<svg width="880" height="77" viewBox="0 0 880 77" fill="none" xmlns="http://www.w3.org/2000/svg">
<rect x="0.5" y="0.5" width="879" height="76" rx="14.5" fill="white" stroke="black"/>
<path d="M66.5874 47H63.1938L69.4194 29.3242H73.3257L79.5757 47H76.1821L74.7173 42.6299H68.0522L66.5874 47ZM68.9067 40.0664H73.8628L71.4458 32.9375H71.2993L68.9067 40.0664ZM83.4575 47.1953C82.4077 47.1953 81.5532 46.3408 81.5532 45.291C81.5532 44.2656 82.4077 43.4111 83.4575 43.4111C84.4585 43.4111 85.3374 44.2656 85.3374 45.291C85.3374 46.3408 84.4585 47.1953 83.4575 47.1953ZM113.511 35.623V37.8447H110.24V49.124H107.53V27.1025H110.24V35.623H113.511ZM96.4214 29.251V41.4336C99.3633 41.3848 102.5 41.1284 105.821 40.4326L106.114 42.7275C102.403 43.46 98.8628 43.6797 95.5913 43.6797H93.7358V29.251H96.4214ZM132.432 33.3525V35.501H117.149V27.9082H119.834V33.3525H132.432ZM134.703 38.0645V40.2129H114.537V38.0645H134.703ZM132.579 46.4629V48.6602H116.954V42.166H119.664V46.4629H132.579ZM148.985 32.8887C148.985 36.4531 150.23 40.1641 153.208 42.0439L151.719 44.1191C149.729 42.9229 148.436 40.8599 147.715 38.4307C146.91 41.104 145.494 43.3623 143.418 44.6318L141.734 42.6055C144.932 40.6523 146.373 36.7705 146.373 33.0107V29.0557H148.985V32.8887ZM161.143 27.1025V49.1729H158.531V27.1025H161.143ZM156.553 27.4932V48.0986H153.99V36.9414H150.84V34.6953H153.99V27.4932H156.553ZM171.519 30.6182C171.519 33.4014 173.326 36.0137 176.719 37.0879L175.254 39.2119C172.874 38.4062 171.165 36.7949 170.225 34.7441C169.249 37.0879 167.466 38.9312 164.927 39.8223L163.462 37.6982C167.027 36.4531 168.785 33.5234 168.809 30.374V28.2744H171.519V30.6182ZM181.114 27.1025V32.4736H184.19V34.7197H181.114V40.3105H178.404V27.1025H181.114ZM173.936 40.7988C178.501 40.7744 181.309 42.3369 181.333 44.9492C181.309 47.6104 178.501 49.1484 173.936 49.1484C169.322 49.1484 166.465 47.6104 166.465 44.9492C166.465 42.3369 169.322 40.7744 173.936 40.7988ZM173.936 42.9229C170.909 42.9229 169.175 43.6553 169.175 44.9492C169.175 46.3164 170.909 47 173.936 47C176.963 47 178.648 46.3164 178.648 44.9492C178.648 43.6553 176.963 42.9229 173.936 42.9229ZM203.672 27.1025V49.1973H200.938V27.1025H203.672ZM191.783 28.7139C195.103 28.7139 197.52 31.7412 197.544 36.502C197.52 41.3115 195.103 44.3145 191.783 44.3145C188.438 44.3145 186.021 41.3115 186.021 36.502C186.021 31.7412 188.438 28.7139 191.783 28.7139ZM191.783 31.1553C189.903 31.1553 188.633 33.1328 188.633 36.502C188.633 39.8955 189.903 41.873 191.783 41.873C193.638 41.873 194.908 39.8955 194.908 36.502C194.908 33.1328 193.638 31.1553 191.783 31.1553ZM218.882 28.7139C221.873 28.7139 224.083 31.2041 224.473 35.2324H228.672V27.1025H231.358V49.1973H228.672V37.4297H224.498C224.205 41.6899 221.958 44.3145 218.882 44.3145C215.562 44.3145 213.218 41.3115 213.218 36.502C213.218 31.7412 215.562 28.7139 218.882 28.7139ZM218.882 31.1553C217.051 31.1553 215.806 33.1328 215.831 36.502C215.806 39.8955 217.051 41.873 218.882 41.873C220.713 41.873 221.934 39.8955 221.958 36.502C221.934 33.1328 220.713 31.1553 218.882 31.1553ZM253.501 40.0664V42.1416H237.364V40.0664H244.102V38.1865H246.812V40.0664H253.501ZM245.396 42.9229C249.424 42.9229 251.817 44.0459 251.817 46.0234C251.817 48.0742 249.424 49.1729 245.396 49.1729C241.368 49.1729 238.951 48.0742 238.975 46.0234C238.951 44.0459 241.368 42.9229 245.396 42.9229ZM245.396 44.8027C243.125 44.8271 241.856 45.2178 241.856 46.0234C241.856 46.8779 243.125 47.293 245.396 47.293C247.642 47.293 248.887 46.8779 248.912 46.0234C248.887 45.2178 247.642 44.8271 245.396 44.8027ZM240.611 28.0791V30.2031H237.559V35.2812C238.609 35.2324 239.671 35.1226 240.855 34.8662L241.05 36.9902C239.122 37.3809 237.657 37.4053 235.923 37.4053H234.898V28.0791H240.611ZM247.886 28.0791V30.2031H244.395V35.2812C246.092 35.2568 247.215 35.147 248.521 34.8418L248.741 36.9902C247.032 37.3809 245.616 37.4053 242.857 37.4053H241.709V28.0791H247.886ZM253.135 27.1025V38.8701H250.474V33.5723H247.129V31.4971H250.474V27.1025H253.135ZM275.108 27.1025V49.1729H272.52V27.1025H275.108ZM270.42 27.6396V48.123H267.857V37.9668H263.926C262.632 40.5059 260.557 42.7031 257.432 44.5098L255.894 42.5811C260.472 39.8833 262.559 36.4287 262.974 31.9854H257.017V29.7881H265.66C265.66 31.9243 265.403 33.9263 264.805 35.7939H267.857V27.6396H270.42ZM301.353 32.4736V34.6221H295.005V36.3066H303.721V38.4551H283.604V36.3066H292.295V34.6221H286.167V27.8838H301.158V30.0811H288.877V32.4736H301.353ZM301.207 39.8711V45.2422H288.658V46.8779H301.817V48.9531H285.997V43.3379H298.545V41.873H285.972V39.8711H301.207ZM311.143 28.7139C314.463 28.7139 316.856 31.7412 316.88 36.502C316.856 41.3115 314.463 44.3145 311.143 44.3145C307.798 44.3145 305.381 41.3115 305.406 36.502C305.381 31.7412 307.798 28.7139 311.143 28.7139ZM311.143 31.1553C309.288 31.1553 308.018 33.1328 308.018 36.502C308.018 39.8955 309.288 41.873 311.143 41.873C313.023 41.873 314.268 39.8955 314.268 36.502C314.268 33.1328 313.023 31.1553 311.143 31.1553ZM322.496 27.1025V35.5742H325.889V37.8691H322.496V49.1729H319.786V27.1025H322.496ZM344.102 27.1025V35.7207H347.374V37.9912H344.102V49.124H341.392V27.1025H344.102ZM338.267 29.3975C338.267 35.8916 335.582 41.5801 328.233 45.1934L326.695 43.0938C332.066 40.4204 334.971 36.6606 335.533 31.6436H327.891V29.3975H338.267ZM366.294 33.3525V35.501H351.011V27.9082H353.697V33.3525H366.294ZM368.565 38.0645V40.2129H348.399V38.0645H368.565ZM366.441 46.4629V48.6602H350.816V42.166H353.526V46.4629H366.441ZM378.355 33.377C378.355 36.9902 380.479 40.7988 384.043 42.2881L382.554 44.4365C379.942 43.3135 378.038 40.9941 377.037 38.1865C376.011 41.2139 374.083 43.7529 371.495 44.9736L369.932 42.8496C373.423 41.2383 375.596 37.1367 375.596 33.377V31.5215H370.738V29.2754H383.189V31.5215H378.355V33.377ZM388.389 27.1025V49.1729H385.655V27.1025H388.389ZM415.269 27.957V29.6416C415.269 31.2896 415.269 33.2427 414.781 35.6963H417.735V37.8691H408.946V40.7988C412.962 41.0796 415.367 42.5688 415.391 44.9492C415.367 47.6348 412.437 49.1484 407.627 49.1484C402.769 49.1484 399.815 47.6348 399.815 44.9492C399.815 42.5688 402.22 41.0796 406.26 40.8232V37.8691H397.569V35.6963H412.046C412.51 33.4258 412.559 31.6924 412.559 30.1299H400.059V27.957H415.269ZM407.627 42.9473C404.356 42.9473 402.549 43.6309 402.574 44.9492C402.549 46.292 404.356 46.9756 407.627 46.9756C410.826 46.9756 412.632 46.292 412.657 44.9492C412.632 43.6309 410.826 42.9473 407.627 42.9473ZM436.875 28.1768V29.8857C436.875 31.5947 436.875 33.5479 436.338 36.1602H439.341V38.3574H419.175V36.1602H433.604C434.117 33.7798 434.166 31.9609 434.166 30.3496H421.666V28.1768H436.875ZM436.851 40.9209V48.9043H421.592V40.9209H436.851ZM424.253 43.0449V46.707H434.166V43.0449H424.253ZM451.548 30.6182V32.791H440.733V30.6182H444.834V27.7373H447.52V30.6182H451.548ZM446.177 33.9629C448.985 33.9629 450.987 36.0869 450.987 39.0898C450.987 42.1416 448.985 44.29 446.177 44.29C443.394 44.29 441.343 42.1416 441.368 39.0898C441.343 36.0869 443.394 33.9629 446.177 33.9629ZM446.177 36.209C444.737 36.209 443.736 37.3564 443.76 39.0898C443.736 40.8721 444.737 41.9951 446.177 41.9707C447.593 41.9951 448.594 40.8721 448.594 39.0898C448.594 37.3564 447.593 36.209 446.177 36.209ZM459.751 27.1025V49.1729H457.164V38.3818H455.015V48.1719H452.476V27.5664H455.015V36.1846H457.164V27.1025H459.751ZM470.542 32.4004C470.542 36.502 472.496 40.5303 476.011 42.0684L474.375 44.2412C471.873 43.0205 470.115 40.6768 469.175 37.7959C468.211 40.8354 466.417 43.3623 463.877 44.6562L462.168 42.459C465.757 40.7744 467.759 36.5264 467.784 32.4004V28.8848H470.542V32.4004ZM480.894 27.1025V49.1973H478.208V36.4287H473.57V34.2314H478.208V27.1025H480.894ZM502.256 28.7383V30.0566C502.232 31.5703 502.232 33.7432 501.719 36.5508L499.034 36.3066C499.461 34.0239 499.546 32.3394 499.595 30.9844H491.001V28.7383H502.256ZM496.69 33.7676V38.1621C498.973 38.0767 501.316 37.9058 503.453 37.6006L503.599 39.5537C499.009 40.3838 493.809 40.457 489.927 40.4814L489.683 38.3086C490.989 38.2964 492.454 38.2842 494.004 38.2598V33.7676H496.69ZM507.53 27.1025V33.9873H510.386V36.2578H507.53V43.6309H504.747V27.1025H507.53ZM508.238 46.5361V48.7334H492.979V42.166H495.713V46.5361H508.238ZM522.081 28.6406V35.501H515.123V38.4062C518.455 38.3818 520.579 38.2354 523.057 37.8203L523.35 40.042C520.494 40.5303 518.101 40.5791 514.048 40.5791H512.388V33.4502H519.346V30.8135H512.364V28.6406H522.081ZM530.015 27.127V43.3867H527.305V37.7471H523.448V35.5498H527.305V32.7666H523.448V30.5938H527.305V27.127H530.015ZM530.601 46.4629V48.6846H515.367V42.166H518.077V46.4629H530.601ZM557.505 27.1025V49.1729H554.771V27.1025H557.505ZM550.914 29.4463C550.914 36.0137 548.375 41.6045 540.635 45.2666L539.219 43.0938C544.993 40.3472 547.679 36.6118 548.155 31.5947H540.342V29.4463H550.914ZM568.565 32.4004C568.541 36.3311 570.518 40.335 573.936 41.9707L572.276 44.1436C569.883 42.9351 568.162 40.6035 567.222 37.7959C566.258 40.7988 564.451 43.2891 561.924 44.5586L560.264 42.3857C563.804 40.7012 565.831 36.4775 565.855 32.4004V28.8848H568.565V32.4004ZM577.964 27.1025V35.7451H581.358V38.0645H577.964V49.1729H575.254V27.1025H577.964ZM602.427 37.1123V39.1631H582.261V37.1123H602.427ZM599.986 40.4814V45.5107H587.339V47.0488H600.645V48.9287H584.629V43.7529H597.3V42.3857H584.605V40.4814H599.986ZM599.937 27.5908V32.5713H587.51V34.0117H600.328V35.8672H584.825V30.8135H597.227V29.4707H584.751V27.5908H599.937ZM617.759 31.6191C617.759 33.9873 619.542 36.3066 623.008 37.2344L621.788 39.3096C619.224 38.6382 617.417 37.1733 616.441 35.2812C615.452 37.3564 613.597 38.9678 610.997 39.7246L609.703 37.5762C613.194 36.6484 615.049 34.207 615.049 31.6191V31.5459H610.435V29.3975H615.049V27.0049H617.784V29.3975H622.374V31.5459H617.759V31.6191ZM627.232 27.1025V32.2295H630.308V34.4756H627.232V39.749H624.522V27.1025H627.232ZM627.549 40.7744V42.9473H621.714C622.227 44.7783 624.705 46.4873 628.477 47.0244L627.5 49.0996C624.046 48.6113 621.434 47.1343 620.152 45.1201C618.882 47.1221 616.294 48.5625 612.876 49.0508L611.875 47C615.66 46.4751 618.113 44.8271 618.638 42.9473H612.779V40.7744H627.549ZM637.364 28.7139C640.684 28.7139 643.077 31.7412 643.101 36.502C643.077 41.3115 640.684 44.3145 637.364 44.3145C634.019 44.3145 631.602 41.3115 631.626 36.502C631.602 31.7412 634.019 28.7139 637.364 28.7139ZM637.364 31.1553C635.508 31.1553 634.239 33.1328 634.239 36.502C634.239 39.8955 635.508 41.873 637.364 41.873C639.244 41.873 640.489 39.8955 640.489 36.502C640.489 33.1328 639.244 31.1553 637.364 31.1553ZM648.716 27.1025V35.5742H652.11V37.8691H648.716V49.1729H646.006V27.1025H648.716ZM677.305 27.1025V38.6504H674.62V27.1025H677.305ZM669.151 39.5537V45.0713H664.268V46.8779C666.893 46.8535 668.553 46.7559 670.518 46.3896L670.787 48.3916C668.443 48.8555 666.514 48.9043 663.047 48.9043H661.631V43.167H666.49V41.5801H661.631V39.5537H669.151ZM677.305 39.5537V49.0508H674.668V41.7266H670.03V39.5537H677.305ZM665.22 28.0547C668.565 28.0303 671.055 30.1299 671.08 33.0596C671.055 36.0137 668.565 38.0889 665.22 38.0889C661.851 38.0889 659.361 36.0137 659.361 33.0596C659.361 30.1299 661.851 28.0303 665.22 28.0547ZM665.22 30.2764C663.365 30.2764 661.998 31.3506 661.998 33.0596C661.998 34.7441 663.365 35.8916 665.22 35.8916C667.076 35.8916 668.443 34.7441 668.443 33.0596C668.443 31.3506 667.076 30.2764 665.22 30.2764ZM698.448 33.3525V35.501H683.165V27.9082H685.85V33.3525H698.448ZM700.718 38.0645V40.2129H680.552V38.0645H700.718ZM698.594 46.4629V48.6602H682.969V42.166H685.679V46.4629H698.594ZM721.226 27.1025V49.1729H718.638V27.1025H721.226ZM716.539 27.6396V48.123H713.975V37.9668H710.044C708.75 40.5059 706.675 42.7031 703.55 44.5098L702.012 42.5811C706.59 39.8833 708.677 36.4287 709.092 31.9854H703.135V29.7881H711.778C711.778 31.9243 711.521 33.9263 710.923 35.7939H713.975V27.6396H716.539ZM739.756 42.3125C744.615 42.3125 747.374 43.4844 747.398 45.7305C747.374 48.001 744.615 49.1729 739.756 49.1729C734.825 49.1729 732.066 48.001 732.066 45.7305C732.066 43.4844 734.825 42.3125 739.756 42.3125ZM739.756 44.2656C736.485 44.2656 734.849 44.7783 734.849 45.7305C734.849 46.707 736.485 47.1953 739.756 47.1709C743.003 47.1953 744.639 46.707 744.664 45.7305C744.639 44.7783 743.003 44.2656 739.756 44.2656ZM748.741 28.8359V30.8867H730.723V28.8359H738.414V26.8584H741.124V28.8359H748.741ZM739.756 31.5703C744.468 31.5703 747.105 32.6934 747.105 34.7686C747.105 36.8438 744.468 37.918 739.756 37.918C735.093 37.918 732.432 36.8438 732.432 34.7686C732.432 32.6934 735.093 31.5703 739.756 31.5703ZM739.756 33.4014C736.827 33.4014 735.337 33.8652 735.337 34.7686C735.337 35.6475 736.827 36.0381 739.756 36.0625C742.71 36.0381 744.2 35.6475 744.2 34.7686C744.2 33.8652 742.71 33.4014 739.756 33.4014ZM749.839 39.0654V41.1406H729.722V39.0654H749.839ZM762.999 29.1777V43.8018H752.5V29.1777H762.999ZM755.186 31.3018V41.6289H760.362V31.3018H755.186ZM769.688 27.1025V49.1973H766.954V27.1025H769.688ZM793.077 38.1865V40.335H772.911V38.1865H781.651V36.5752H775.474V31.0088H787.876V29.5684H775.401V27.4932H790.586V32.9619H778.16V34.5H791.026V36.5752H784.336V38.1865H793.077ZM778.208 41.2383V42.9229H787.974V41.2383H790.635V48.9043H775.523V41.2383H778.208ZM778.208 46.7803H787.974V44.9736H778.208V46.7803ZM811.827 27.1025V35.4766H815.22V37.6982H811.827V49.1973H809.117V27.1025H811.827ZM805.772 29.2021V31.3994H798.155V41.5312C801.585 41.5312 804.295 41.3604 807.334 40.8232L807.652 43.1182C804.234 43.7041 801.255 43.8018 797.276 43.8018H795.445V29.2021H805.772ZM818.833 47.1953C817.784 47.1953 816.929 46.3408 816.929 45.291C816.929 44.2656 817.784 43.4111 818.833 43.4111C819.834 43.4111 820.713 44.2656 820.713 45.291C820.713 46.3408 819.834 47.1953 818.833 47.1953Z" fill="black"/>
</svg>
