<svg width="631" height="77" viewBox="0 0 631 77" fill="none" xmlns="http://www.w3.org/2000/svg">
<rect x="0.5" y="0.5" width="630" height="76" rx="14.5" fill="white" stroke="black"/>
<path d="M211.826 47H208.432L214.658 29.3242H218.564L224.814 47H221.42L219.956 42.6299H213.291L211.826 47ZM214.145 40.0664H219.101L216.684 32.9375H216.538L214.145 40.0664ZM228.696 47.1953C227.646 47.1953 226.792 46.3408 226.792 45.291C226.792 44.2656 227.646 43.4111 228.696 43.4111C229.697 43.4111 230.576 44.2656 230.576 45.291C230.576 46.3408 229.697 47.1953 228.696 47.1953ZM256.015 34.2314V36.4287H240.683V28.1523H243.393V34.2314H256.015ZM258.31 39.1387V41.3359H253.476V49.1729H250.742V41.3359H245.761V49.1729H243.051V41.3359H238.193V39.1387H258.31ZM271.201 30.1299C271.201 33.5479 274.545 36.9658 279.16 37.7715L277.939 40.042C274.24 39.2607 271.213 37.0269 269.785 34.0605C268.32 37.0024 265.292 39.2485 261.606 40.042L260.41 37.7715C264.975 36.9414 268.295 33.5234 268.32 30.1299V28.4941H271.201V30.1299ZM279.965 44.1191V46.3652H259.799V44.1191H279.965ZM301.962 35.623V37.8447H298.691V49.124H295.981V27.1025H298.691V35.623H301.962ZM284.873 29.251V41.4336C287.814 41.3848 290.952 41.1284 294.272 40.4326L294.565 42.7275C290.854 43.46 287.314 43.6797 284.042 43.6797H282.187V29.251H284.873ZM315.756 32.0586C315.756 34.4023 317.172 36.6973 319.956 37.6494L318.735 39.7002C316.708 38.9556 315.317 37.5762 314.536 35.8672C313.754 37.7349 312.351 39.2485 310.263 40.0664L308.994 38.0645C311.777 36.9658 313.168 34.5732 313.193 32.0586V31.8877H309.555V29.7637H313.193V27.3467H315.756V29.7637H319.345V31.8877H315.756V32.0586ZM327.817 27.127V40.6279H325.229V34.9883H323.105V40.5303H320.542V27.4932H323.105V32.791H325.229V27.127H327.817ZM327.817 41.6289V49.1729H325.107V43.8262H312.705V41.6289H327.817ZM340.585 27.4443C345.615 27.4443 348.52 28.7871 348.544 31.2285C348.52 33.6943 345.615 35.0127 340.585 35.0371C335.556 35.0127 332.626 33.6943 332.626 31.2285C332.626 28.7871 335.556 27.4443 340.585 27.4443ZM340.585 29.4463C337.216 29.4463 335.458 30.0811 335.483 31.2285C335.458 32.4492 337.216 33.0107 340.585 33.0107C344.003 33.0107 345.737 32.4492 345.737 31.2285C345.737 30.0811 344.003 29.4463 340.585 29.4463ZM350.668 36.209V38.3818H330.551V36.209H350.668ZM348.154 39.8711V45.2666H335.605V46.9023H348.764V48.9775H332.944V43.3379H345.493V41.873H332.919V39.8711H348.154ZM376.425 27.1025V38.6504H373.74V27.1025H376.425ZM368.271 39.5537V45.0713H363.388V46.8779C366.013 46.8535 367.673 46.7559 369.638 46.3896L369.907 48.3916C367.563 48.8555 365.634 48.9043 362.167 48.9043H360.751V43.167H365.61V41.5801H360.751V39.5537H368.271ZM376.425 39.5537V49.0508H373.789V41.7266H369.15V39.5537H376.425ZM364.34 28.0547C367.685 28.0303 370.175 30.1299 370.2 33.0596C370.175 36.0137 367.685 38.0889 364.34 38.0889C360.971 38.0889 358.481 36.0137 358.481 33.0596C358.481 30.1299 360.971 28.0303 364.34 28.0547ZM364.34 30.2764C362.485 30.2764 361.118 31.3506 361.118 33.0596C361.118 34.7441 362.485 35.8916 364.34 35.8916C366.196 35.8916 367.563 34.7441 367.563 33.0596C367.563 31.3506 366.196 30.2764 364.34 30.2764ZM397.568 33.3525V35.501H382.285V27.9082H384.97V33.3525H397.568ZM399.838 38.0645V40.2129H379.672V38.0645H399.838ZM397.714 46.4629V48.6602H382.089V42.166H384.799V46.4629H397.714ZM418.588 27.1025V35.4766H421.982V37.6982H418.588V49.1973H415.878V27.1025H418.588ZM412.534 29.2021V31.3994H404.917V41.5312C408.347 41.5312 411.057 41.3604 414.096 40.8232L414.414 43.1182C410.996 43.7041 408.017 43.8018 404.038 43.8018H402.207V29.2021H412.534ZM425.595 47.1953C424.545 47.1953 423.691 46.3408 423.691 45.291C423.691 44.2656 424.545 43.4111 425.595 43.4111C426.596 43.4111 427.475 44.2656 427.475 45.291C427.475 46.3408 426.596 47.1953 425.595 47.1953Z" fill="black"/>
</svg>
