<svg width="631" height="77" viewBox="0 0 631 77" fill="none" xmlns="http://www.w3.org/2000/svg">
<rect x="0.5" y="0.5" width="630" height="76" rx="14.5" fill="white" stroke="black"/>
<path d="M162.68 47H159.287L165.512 29.3242H169.418L175.668 47H172.275L170.81 42.6299H164.145L162.68 47ZM165 40.0664H169.956L167.539 32.9375H167.392L165 40.0664ZM179.55 47.1953C178.5 47.1953 177.646 46.3408 177.646 45.291C177.646 44.2656 178.5 43.4111 179.55 43.4111C180.551 43.4111 181.43 44.2656 181.43 45.291C181.43 46.3408 180.551 47.1953 179.55 47.1953ZM207.407 27.1025V49.1973H204.672V27.1025H207.407ZM195.517 28.7139C198.837 28.7139 201.254 31.7412 201.279 36.502C201.254 41.3115 198.837 44.3145 195.517 44.3145C192.172 44.3145 189.755 41.3115 189.755 36.502C189.755 31.7412 192.172 28.7139 195.517 28.7139ZM195.517 31.1553C193.637 31.1553 192.368 33.1328 192.368 36.502C192.368 39.8955 193.637 41.873 195.517 41.873C197.373 41.873 198.642 39.8955 198.642 36.502C198.642 33.1328 197.373 31.1553 195.517 31.1553ZM229.135 27.127V41.8486H226.425V35.3057H222.226V33.084H226.425V27.127H229.135ZM222.08 28.8359C222.055 34.6709 218.686 38.6748 212.119 40.7256L210.947 38.6016C216.025 37.0757 218.686 34.4268 219.15 31.0088H212.094V28.8359H222.08ZM223.129 40.9697C223.105 43.7041 225.839 46.1943 230.234 46.9023L229.135 49.0508C225.717 48.4648 223.081 46.8535 221.762 44.5586C220.407 46.8535 217.758 48.4771 214.34 49.0752L213.266 46.9268C217.685 46.2676 220.419 43.7041 220.419 40.9697V40.1152H223.129V40.9697ZM256.699 27.1025V49.1973H253.989V37.1367H249.741V34.915H253.989V27.1025H256.699ZM246.298 32.9619C246.298 36.7705 248.349 40.8232 251.914 42.3613L250.302 44.5342C247.739 43.3135 245.908 40.8599 244.956 37.9424C243.967 41.0552 242.099 43.6797 239.536 44.9736L237.9 42.8496C241.44 41.1895 243.515 36.9902 243.54 32.9619V31.4971H238.803V29.2754H251.035V31.4971H246.298V32.9619ZM278.281 27.127V41.8486H275.571V35.3057H271.372V33.084H275.571V27.127H278.281ZM271.225 28.8359C271.201 34.6709 267.832 38.6748 261.264 40.7256L260.092 38.6016C265.17 37.0757 267.832 34.4268 268.295 31.0088H261.24V28.8359H271.225ZM272.275 40.9697C272.25 43.7041 274.985 46.1943 279.379 46.9023L278.281 49.0508C274.863 48.4648 272.226 46.8535 270.908 44.5586C269.553 46.8535 266.904 48.4771 263.486 49.0752L262.412 46.9268C266.831 46.2676 269.565 43.7041 269.565 40.9697V40.1152H272.275V40.9697ZM293.369 28.7139C295.371 28.7139 297.019 29.8247 298.007 31.7656H303.159V27.1025H305.844V49.1973H303.159V40.8477H298.203C297.25 43.0449 295.505 44.3145 293.369 44.3145C290.048 44.3145 287.705 41.3115 287.705 36.502C287.705 31.7412 290.048 28.7139 293.369 28.7139ZM293.369 31.1553C291.538 31.1553 290.292 33.1328 290.317 36.502C290.292 39.8955 291.538 41.873 293.369 41.873C295.2 41.873 296.42 39.8955 296.445 36.502C296.42 33.1328 295.2 31.1553 293.369 31.1553ZM298.764 33.9873C298.923 34.7563 299.008 35.5986 299.008 36.502C299.008 37.271 298.947 37.979 298.837 38.6504H303.159V33.9873H298.764ZM327.426 27.1025V49.1973H324.716V37.4541H320.932V35.2324H324.716V27.1025H327.426ZM319.663 29.0312V37.1123H312.436V41.751C315.708 41.7388 318.356 41.6289 321.323 41.0918L321.542 43.3135C318.247 43.8994 315.317 44.0215 311.508 44.0215H309.75V34.915H317.001V31.2285H309.677V29.0312H319.663ZM347.836 27.1025V35.7207H351.108V37.9912H347.836V49.124H345.126V27.1025H347.836ZM342.001 29.3975C342.001 35.8916 339.316 41.5801 331.967 45.1934L330.429 43.0938C335.8 40.4204 338.706 36.6606 339.267 31.6436H331.625V29.3975H342.001ZM360.483 33.377C360.483 36.9902 362.607 40.7988 366.171 42.2881L364.682 44.4365C362.07 43.3135 360.166 40.9941 359.165 38.1865C358.139 41.2139 356.21 43.7529 353.623 44.9736L352.06 42.8496C355.551 41.2383 357.724 37.1367 357.724 33.377V31.5215H352.866V29.2754H365.317V31.5215H360.483V33.377ZM370.517 27.1025V49.1729H367.783V27.1025H370.517ZM393.906 37.1123V39.1631H373.74V37.1123H393.906ZM391.464 40.4814V45.5107H378.818V47.0488H392.124V48.9287H376.108V43.7529H388.779V42.3857H376.083V40.4814H391.464ZM391.416 27.5908V32.5713H378.989V34.0117H391.806V35.8672H376.303V30.8135H388.706V29.4707H376.23V27.5908H391.416ZM412.363 28.6895V38.748H402.06V28.6895H412.363ZM404.721 30.8623V36.5752H409.677V30.8623H404.721ZM418.71 27.1025V32.791H421.787V35.0615H418.71V41.7021H416V27.1025H418.71ZM413.12 41.2627C413.095 43.9238 415.83 46.292 420.273 46.9268L419.199 49.0508C415.781 48.5015 413.12 46.9512 411.801 44.7539C410.434 46.9512 407.773 48.5015 404.355 49.0508L403.281 46.9268C407.7 46.292 410.41 43.9238 410.41 41.2627V40.6523H413.12V41.2627ZM434.14 27.9326V30.3252H443.662V27.9326H446.347V36.8926H440.244V38.9189H448.959V41.1162H428.842V38.9189H437.509V36.8926H431.455V27.9326H434.14ZM434.14 34.7197H443.662V32.4248H434.14V34.7197ZM446.689 46.5361V48.7334H431.333V42.5322H434.042V46.5361H446.689ZM467.734 27.1025V35.4766H471.127V37.6982H467.734V49.1973H465.024V27.1025H467.734ZM461.679 29.2021V31.3994H454.062V41.5312C457.492 41.5312 460.202 41.3604 463.242 40.8232L463.559 43.1182C460.141 43.7041 457.163 43.8018 453.183 43.8018H451.352V29.2021H461.679ZM474.741 47.1953C473.691 47.1953 472.836 46.3408 472.836 45.291C472.836 44.2656 473.691 43.4111 474.741 43.4111C475.742 43.4111 476.621 44.2656 476.621 45.291C476.621 46.3408 475.742 47.1953 474.741 47.1953Z" fill="black"/>
</svg>
