<svg width="996" height="77" viewBox="0 0 996 77" fill="none" xmlns="http://www.w3.org/2000/svg">
<rect x="0.5" y="0.5" width="995" height="76" rx="14.5" fill="current" stroke="black"/>
<path d="M49.5381 47H46.1445L52.3701 29.3242H56.2764L62.5264 47H59.1328L57.668 42.6299H51.0029L49.5381 47ZM51.8574 40.0664H56.8135L54.3965 32.9375H54.25L51.8574 40.0664ZM66.4082 47.1953C65.3584 47.1953 64.5039 46.3408 64.5039 45.291C64.5039 44.2656 65.3584 43.4111 66.4082 43.4111C67.4092 43.4111 68.2881 44.2656 68.2881 45.291C68.2881 46.3408 67.4092 47.1953 66.4082 47.1953ZM94.3867 27.1025V38.4062H91.6768V32.8154H87.2822V30.6426H91.6768V27.1025H94.3867ZM94.3867 39.3584V45.0713H82.5459V46.7559H95.0947V48.9043H79.8848V43.0449H91.7012V41.4824H79.8604V39.3584H94.3867ZM83.9131 29.5928C83.9131 32.3027 85.6953 34.8906 89.1133 35.9404L87.6729 38.04C85.2803 37.2344 83.5469 35.6841 82.5947 33.6699C81.6182 35.9282 79.8115 37.6738 77.1992 38.5283L75.7832 36.3555C79.3232 35.2812 81.1787 32.5713 81.1787 29.5928V27.835H83.9131V29.5928ZM108.742 29.251V43.7041H98.293V29.251H108.742ZM100.954 31.375V41.5312H106.032V31.375H100.954ZM114.797 27.1025V35.5742H118.19V37.8691H114.797V49.1729H112.087V27.1025H114.797ZM126.662 37.5029C127.468 36.624 128.493 36.1602 129.616 36.1602C131.569 36.1602 133.254 37.5273 135.207 37.5273C136.33 37.5273 137.307 37.0635 138.088 36.1357V38.7969C137.282 39.7002 136.257 40.1396 135.134 40.1396C133.181 40.1396 131.472 38.7725 129.543 38.7725C128.42 38.7725 127.443 39.2363 126.662 40.1641V37.5029ZM165.456 27.1025V49.1973H162.722V27.1025H165.456ZM153.566 28.7139C156.887 28.7139 159.304 31.7412 159.328 36.502C159.304 41.3115 156.887 44.3145 153.566 44.3145C150.222 44.3145 147.805 41.3115 147.805 36.502C147.805 31.7412 150.222 28.7139 153.566 28.7139ZM153.566 31.1553C151.687 31.1553 150.417 33.1328 150.417 36.502C150.417 39.8955 151.687 41.873 153.566 41.873C155.422 41.873 156.691 39.8955 156.691 36.502C156.691 33.1328 155.422 31.1553 153.566 31.1553ZM187.185 27.1025V49.1729H184.475V37.9424H179.812V35.7207H184.475V27.1025H187.185ZM179.909 29.4463C179.885 35.9648 177.565 41.4336 169.973 45.1934L168.557 43.0693C174.27 40.2739 176.723 36.5386 177.175 31.5947H169.582V29.4463H179.909ZM204.616 31.5947C204.616 34.3291 206.496 37.0146 210.012 38.1133L208.62 40.2373C206.118 39.4194 204.299 37.7715 203.298 35.6719C202.297 37.9546 200.429 39.7734 197.805 40.6768L196.413 38.5283C199.953 37.3564 201.857 34.5 201.882 31.5947V30.96H197.121V28.7871H209.255V30.96H204.616V31.5947ZM214.626 27.127V43.1426H211.892V27.127H214.626ZM215.236 46.5361V48.7334H200.026V41.6777H202.761V46.5361H215.236ZM235.793 27.1025V35.5742H238.479V37.8447H235.793V49.1729H233.083V27.1025H235.793ZM223.244 33.0107C223.244 35.5376 223.513 38.748 225.1 41.0918C226.638 38.7725 226.931 35.5864 226.931 33.0107V31.3262H225.515V29.1289H231.667V31.3262H229.519V33.0107C229.519 36.5264 230.056 40.5059 232.814 42.5322L231.081 44.4854C229.592 43.3379 228.701 41.5679 228.176 39.5049C227.639 41.6167 226.687 43.4966 225.075 44.6807C223.488 43.4966 222.548 41.6045 222.023 39.5049C221.486 41.5557 220.595 43.3379 219.118 44.4854L217.385 42.5322C220.144 40.4814 220.681 36.4531 220.681 33.0107V31.3262H218.215V29.1289H224.66V31.3262H223.244V33.0107ZM256.594 28.5674V38.1621H246.145V28.5674H256.594ZM248.806 30.7402V35.9893H253.933V30.7402H248.806ZM262.795 27.1025V32.0586H265.871V34.3047H262.795V39.5537H260.085V27.1025H262.795ZM263.112 40.6768V42.8252H257.253C257.68 44.7051 260.183 46.4751 264.04 47.0244L263.063 49.0996C259.621 48.6113 256.997 47.1343 255.739 45.1445C254.458 47.1343 251.882 48.5991 248.439 49.0508L247.438 47C251.333 46.4751 253.774 44.7539 254.226 42.8252H248.342V40.6768H263.112ZM272.927 28.7139C276.247 28.7139 278.64 31.7412 278.664 36.502C278.64 41.3115 276.247 44.3145 272.927 44.3145C269.582 44.3145 267.165 41.3115 267.189 36.502C267.165 31.7412 269.582 28.7139 272.927 28.7139ZM272.927 31.1553C271.071 31.1553 269.802 33.1328 269.802 36.502C269.802 39.8955 271.071 41.873 272.927 41.873C274.807 41.873 276.052 39.8955 276.052 36.502C276.052 33.1328 274.807 31.1553 272.927 31.1553ZM284.279 27.1025V35.5742H287.673V37.8691H284.279V49.1729H281.569V27.1025H284.279ZM292.336 41.5801C292.36 38.4795 293.239 37.5273 294.777 36.5752C295.827 35.916 296.608 35.0859 296.608 33.8652C296.608 32.498 295.559 31.6191 294.216 31.6191C292.995 31.6191 291.823 32.4004 291.75 34.0361H288.698C288.771 30.7646 291.237 29.0801 294.24 29.0801C297.536 29.0801 299.807 30.9111 299.807 33.8164C299.807 35.7939 298.806 37.0879 297.219 38.04C295.803 38.8945 295.217 39.749 295.192 41.5801V41.7998H292.336V41.5801ZM293.85 47.1953C292.8 47.1953 291.945 46.3408 291.945 45.291C291.945 44.2656 292.8 43.4111 293.85 43.4111C294.851 43.4111 295.729 44.2656 295.729 45.291C295.729 46.3408 294.851 47.1953 293.85 47.1953ZM315.383 32.4004C315.358 36.3311 317.336 40.335 320.754 41.9707L319.094 44.1436C316.701 42.9351 314.98 40.6035 314.04 37.7959C313.076 40.7988 311.269 43.2891 308.742 44.5586L307.082 42.3857C310.622 40.7012 312.648 36.4775 312.673 32.4004V28.8848H315.383V32.4004ZM324.782 27.1025V35.7451H328.176V38.0645H324.782V49.1729H322.072V27.1025H324.782ZM347.438 27.1025V38.3574H344.753V27.1025H347.438ZM347.487 39.3828V45.1201H335.549V46.8291H348.146V48.9775H332.888V43.0938H344.777V41.4824H332.839V39.3828H347.487ZM337.331 29.3486C337.331 32.1562 339.187 34.793 342.678 35.8428L341.359 37.9424C338.796 37.1611 336.965 35.5132 335.964 33.4014C334.963 35.6963 333.083 37.4907 330.446 38.333L329.079 36.209C332.644 35.0615 334.523 32.2295 334.523 29.3486V27.6396H337.331V29.3486ZM362.673 28.7139C364.675 28.7139 366.323 29.8247 367.312 31.7656H372.463V27.1025H375.148V49.1973H372.463V40.8477H367.507C366.555 43.0449 364.809 44.3145 362.673 44.3145C359.353 44.3145 357.009 41.3115 357.009 36.502C357.009 31.7412 359.353 28.7139 362.673 28.7139ZM362.673 31.1553C360.842 31.1553 359.597 33.1328 359.621 36.502C359.597 39.8955 360.842 41.873 362.673 41.873C364.504 41.873 365.725 39.8955 365.749 36.502C365.725 33.1328 364.504 31.1553 362.673 31.1553ZM368.068 33.9873C368.227 34.7563 368.312 35.5986 368.312 36.502C368.312 37.271 368.251 37.979 368.142 38.6504H372.463V33.9873H368.068ZM398.391 39.9443V42.0928H389.602V49.1729H386.916V42.0928H378.225V39.9443H398.391ZM383.352 27.9814V30.6914H393.215V27.9814H395.949V37.6494H380.666V27.9814H383.352ZM383.352 35.4521H393.215V32.8398H383.352V35.4521ZM418.215 29.0312V31.2041H416.286V37.7227C417.25 37.6616 418.19 37.564 419.094 37.4541L419.289 39.4561C414.846 40.1885 409.768 40.2861 406.032 40.2861L405.739 38.0889L408.278 38.0645V31.2041H406.325V29.0312H418.215ZM423.195 27.127V33.499H426.271V35.7695H423.195V43.3623H420.485V27.127H423.195ZM424.074 46.5361V48.7334H409.06V41.8242H411.77V46.5361H424.074ZM410.891 37.9912C411.794 37.979 412.722 37.9424 413.649 37.8936V31.2041H410.891V37.9912ZM444.802 27.1025V33.3037H447.902V35.5498H444.802V43.0693H442.092V27.1025H444.802ZM438.21 28.9336V31.1064H431.008V37.1123C435.158 37.1245 437.465 36.978 440.09 36.4287L440.383 38.626C437.502 39.1875 434.914 39.334 430.104 39.334H428.322V28.9336H438.21ZM445.681 46.5361V48.7334H430.666V41.3848H433.376V46.5361H445.681ZM467.36 27.1025V49.1973H464.626V27.1025H467.36ZM455.471 28.7139C458.791 28.7139 461.208 31.7412 461.232 36.502C461.208 41.3115 458.791 44.3145 455.471 44.3145C452.126 44.3145 449.709 41.3115 449.709 36.502C449.709 31.7412 452.126 28.7139 455.471 28.7139ZM455.471 31.1553C453.591 31.1553 452.321 33.1328 452.321 36.502C452.321 39.8955 453.591 41.873 455.471 41.873C457.326 41.873 458.596 39.8955 458.596 36.502C458.596 33.1328 457.326 31.1553 455.471 31.1553ZM491.164 35.623V37.8447H487.893V49.124H485.183V27.1025H487.893V35.623H491.164ZM474.074 29.251V41.4336C477.016 41.3848 480.153 41.1284 483.474 40.4326L483.767 42.7275C480.056 43.46 476.516 43.6797 473.244 43.6797H471.389V29.251H474.074ZM510.476 28.7383V30.0566C510.451 31.5703 510.451 33.7432 509.938 36.5508L507.253 36.3066C507.68 34.0239 507.766 32.3394 507.814 30.9844H499.221V28.7383H510.476ZM504.909 33.7676V38.1621C507.192 38.0767 509.536 37.9058 511.672 37.6006L511.818 39.5537C507.229 40.3838 502.028 40.457 498.146 40.4814L497.902 38.3086C499.208 38.2964 500.673 38.2842 502.224 38.2598V33.7676H504.909ZM515.749 27.1025V33.9873H518.605V36.2578H515.749V43.6309H512.966V27.1025H515.749ZM516.457 46.5361V48.7334H501.198V42.166H503.933V46.5361H516.457ZM530.3 28.6406V35.501H523.342V38.4062C526.674 38.3818 528.798 38.2354 531.276 37.8203L531.569 40.042C528.713 40.5303 526.32 40.5791 522.268 40.5791H520.607V33.4502H527.565V30.8135H520.583V28.6406H530.3ZM538.234 27.127V43.3867H535.524V37.7471H531.667V35.5498H535.524V32.7666H531.667V30.5938H535.524V27.127H538.234ZM538.82 46.4629V48.6846H523.586V42.166H526.296V46.4629H538.82ZM566.237 27.1025V49.1729H563.625V38.0156H561.184V48.0498H558.645V27.5176H561.184V35.7939H563.625V27.1025H566.237ZM550.979 29.6416V41.2871C552.883 41.2505 554.97 41.0918 557.277 40.6279L557.546 42.9961C554.567 43.5332 552.053 43.6797 549.709 43.6797H548.244V29.6416H550.979ZM589.016 37.7227V39.8955H568.898V37.7227H573.586V34.915C571.926 34.2192 570.974 33.1084 570.974 31.668C570.974 29.0312 574.074 27.4688 578.933 27.4688C583.791 27.4688 586.867 29.0312 586.892 31.668C586.879 33.1206 585.927 34.2314 584.255 34.915V37.7227H589.016ZM578.933 41.2383C583.693 41.2139 586.55 42.6299 586.574 45.1689C586.55 47.7324 583.693 49.124 578.933 49.124C574.123 49.124 571.242 47.7324 571.242 45.1689C571.242 42.6299 574.123 41.2139 578.933 41.2383ZM578.933 43.2891C575.71 43.2891 573.977 43.9238 574.001 45.1689C573.977 46.4141 575.71 47.0732 578.933 47.0732C582.082 47.0732 583.84 46.4141 583.864 45.1689C583.84 43.9238 582.082 43.2891 578.933 43.2891ZM578.933 29.5684C575.661 29.5684 573.781 30.3008 573.806 31.668C573.781 33.0107 575.661 33.7188 578.933 33.7188C582.18 33.7188 584.084 33.0107 584.084 31.668C584.084 30.3008 582.18 29.5684 578.933 29.5684ZM576.32 37.7227H581.545V35.623C580.751 35.7329 579.873 35.7939 578.933 35.7939C577.993 35.7939 577.114 35.7329 576.32 35.623V37.7227ZM600.539 27.4443C605.568 27.4443 608.474 28.7871 608.498 31.2285C608.474 33.6943 605.568 35.0127 600.539 35.0371C595.51 35.0127 592.58 33.6943 592.58 31.2285C592.58 28.7871 595.51 27.4443 600.539 27.4443ZM600.539 29.4463C597.17 29.4463 595.412 30.0811 595.437 31.2285C595.412 32.4492 597.17 33.0107 600.539 33.0107C603.957 33.0107 605.69 32.4492 605.69 31.2285C605.69 30.0811 603.957 29.4463 600.539 29.4463ZM610.622 36.209V38.3818H590.505V36.209H610.622ZM608.107 39.8711V45.2666H595.559V46.9023H608.718V48.9775H592.897V43.3379H605.446V41.873H592.873V39.8711H608.107ZM629.201 29.1045V31.3262H621.853V41.6045C625.295 41.5801 627.724 41.4336 630.471 40.9209L630.764 43.1182C627.663 43.7285 625.002 43.8506 620.876 43.8506H619.118V29.1045H629.201ZM636.574 27.1025V49.1973H633.864V37.0879H628.029V34.8662H633.864V27.1025H636.574ZM662.99 27.1025V31.5459H666.066V33.792H662.99V38.1865H660.28V27.1025H662.99ZM662.99 39.1387V44.9248H651.271V46.7559H663.674V48.9043H648.586V42.9473H660.28V41.2383H648.562V39.1387H662.99ZM651.687 27.835C655.056 27.835 657.521 29.8613 657.546 32.791C657.521 35.6719 655.056 37.7227 651.687 37.7227C648.317 37.7227 645.803 35.6719 645.827 32.791C645.803 29.8613 648.317 27.835 651.687 27.835ZM651.687 30.0322C649.831 30.0322 648.464 31.1064 648.488 32.791C648.464 34.4512 649.831 35.5742 651.687 35.5742C653.542 35.5742 654.909 34.4512 654.909 32.791C654.909 31.1064 653.542 30.0322 651.687 30.0322ZM685.622 27.1025V49.1729H682.888V27.1025H685.622ZM679.03 29.4463C679.03 36.0137 676.491 41.6045 668.752 45.2666L667.336 43.0938C673.11 40.3472 675.795 36.6118 676.271 31.5947H668.459V29.4463H679.03ZM701.931 28.0791C705.275 28.0547 707.717 29.959 707.717 32.7178C707.717 35.4277 705.275 37.3564 701.931 37.332C698.61 37.3564 696.193 35.4277 696.193 32.7178C696.193 29.959 698.61 28.0547 701.931 28.0791ZM701.931 30.2764C700.124 30.252 698.806 31.2041 698.83 32.7178C698.806 34.207 700.124 35.1104 701.931 35.1104C703.811 35.1104 705.129 34.207 705.129 32.7178C705.129 31.2041 703.811 30.252 701.931 30.2764ZM713.186 27.127V49.1484H710.5V27.127H713.186ZM694.753 38.8457C698.732 38.8457 704.299 38.7725 709.06 38.0645L709.255 40.0664C707.351 40.4326 705.373 40.6646 703.444 40.7988V48.4893H700.71V40.9697C698.671 41.0552 696.755 41.0674 695.095 41.0918L694.753 38.8457ZM727.102 30.6182V32.791H716.286V30.6182H720.388V27.7373H723.073V30.6182H727.102ZM721.73 33.9629C724.538 33.9629 726.54 36.0869 726.54 39.0898C726.54 42.1416 724.538 44.29 721.73 44.29C718.947 44.29 716.896 42.1416 716.921 39.0898C716.896 36.0869 718.947 33.9629 721.73 33.9629ZM721.73 36.209C720.29 36.209 719.289 37.3564 719.313 39.0898C719.289 40.8721 720.29 41.9951 721.73 41.9707C723.146 41.9951 724.147 40.8721 724.147 39.0898C724.147 37.3564 723.146 36.209 721.73 36.209ZM735.305 27.1025V49.1729H732.717V38.3818H730.568V48.1719H728.029V27.5664H730.568V36.1846H732.717V27.1025H735.305ZM761.696 34.2314V36.4287H746.364V28.1523H749.074V34.2314H761.696ZM763.991 39.1387V41.3359H759.157V49.1729H756.423V41.3359H751.442V49.1729H748.732V41.3359H743.874V39.1387H763.991ZM776.882 30.1299C776.882 33.5479 780.227 36.9658 784.841 37.7715L783.62 40.042C779.921 39.2607 776.894 37.0269 775.466 34.0605C774.001 37.0024 770.974 39.2485 767.287 40.042L766.091 37.7715C770.656 36.9414 773.977 33.5234 774.001 30.1299V28.4941H776.882V30.1299ZM785.646 44.1191V46.3652H765.48V44.1191H785.646ZM804.445 28.4453C804.421 34.1338 800.686 38.1133 794.265 39.9199L793.166 37.7959C798.11 36.4409 801.04 33.8652 801.54 30.6426H794.362V28.4453H804.445ZM811.501 27.127V39.5537H808.791V34.7441H804.543V32.5225H808.791V27.127H811.501ZM811.501 40.4326V48.8799H796.975V40.4326H811.501ZM799.636 42.5811V46.7314H808.815V42.5811H799.636ZM821.511 31.1064C821.511 33.5723 822.878 36.0137 825.783 37.1611L824.318 39.2363C822.377 38.4551 821.022 37.0146 820.241 35.2324C819.411 37.2344 817.971 38.9189 815.871 39.8223L814.431 37.7227C817.458 36.3799 818.874 33.5967 818.898 31.1064V28.4209H821.511V31.1064ZM833.498 27.127V40.4814H830.91V34.8662H828.713V40.3594H826.174V27.4932H828.713V32.6201H830.91V27.127H833.498ZM833.498 41.5312V49.1729H830.788V43.7041H818.386V41.5312H833.498ZM846.267 27.4443C851.296 27.4443 854.201 28.7871 854.226 31.2285C854.201 33.6943 851.296 35.0127 846.267 35.0371C841.237 35.0127 838.308 33.6943 838.308 31.2285C838.308 28.7871 841.237 27.4443 846.267 27.4443ZM846.267 29.4463C842.897 29.4463 841.14 30.0811 841.164 31.2285C841.14 32.4492 842.897 33.0107 846.267 33.0107C849.685 33.0107 851.418 32.4492 851.418 31.2285C851.418 30.0811 849.685 29.4463 846.267 29.4463ZM856.35 36.209V38.3818H836.232V36.209H856.35ZM853.835 39.8711V45.2666H841.286V46.9023H854.445V48.9775H838.625V43.3379H851.174V41.873H838.601V39.8711H853.835ZM872.121 32.4004C872.097 36.4531 874.221 40.5059 877.81 42.0439L876.198 44.2168C873.659 43.0449 871.792 40.7012 870.778 37.8203C869.765 40.9331 867.873 43.4722 865.188 44.7295L863.527 42.459C867.214 40.8721 869.362 36.6484 869.362 32.4004V28.8848H872.121V32.4004ZM882.131 27.1025V49.1973H879.396V27.1025H882.131ZM903.298 37.1367V39.2852H896.755V44.3389H905.544V46.5605H885.378V44.3389H894.069V39.2852H887.819V28.7383H903.127V30.9111H890.529V37.1367H903.298ZM924.392 27.127V34.0605H927.468V36.3066H924.392V43.6064H921.682V27.127H924.392ZM920.095 29.5684V31.7412H907.009V29.5684H912.209V27.1025H914.919V29.5684H920.095ZM913.552 32.6445C916.726 32.6445 918.923 34.3291 918.947 36.8682C918.923 39.3828 916.726 41.043 913.552 41.043C910.354 41.043 908.132 39.3828 908.132 36.8682C908.132 34.3291 910.354 32.6445 913.552 32.6445ZM913.552 34.7441C911.867 34.7441 910.769 35.5254 910.769 36.8682C910.769 38.1865 911.867 38.9678 913.552 38.9434C915.236 38.9678 916.359 38.1865 916.359 36.8682C916.359 35.5254 915.236 34.7441 913.552 34.7441ZM925.271 46.5361V48.7334H910.256V42.3125H912.966V46.5361H925.271ZM945.876 27.1025V35.4766H949.27V37.6982H945.876V49.1973H943.166V27.1025H945.876ZM939.821 29.2021V31.3994H932.204V41.5312C935.634 41.5312 938.344 41.3604 941.384 40.8232L941.701 43.1182C938.283 43.7041 935.305 43.8018 931.325 43.8018H929.494V29.2021H939.821ZM952.883 47.1953C951.833 47.1953 950.979 46.3408 950.979 45.291C950.979 44.2656 951.833 43.4111 952.883 43.4111C953.884 43.4111 954.763 44.2656 954.763 45.291C954.763 46.3408 953.884 47.1953 952.883 47.1953Z" fill="black"/>
</svg>
