<svg width="880" height="77" viewBox="0 0 880 77" fill="none" xmlns="http://www.w3.org/2000/svg">
<rect x="0.5" y="0.5" width="879" height="76" rx="14.5" fill="white" stroke="black"/>
<path d="M137.339 48H133.946L140.171 30.3242H144.078L150.328 48H146.934L145.469 43.6299H138.804L137.339 48ZM139.659 41.0664H144.615L142.198 33.9375H142.051L139.659 41.0664ZM154.209 48.1953C153.16 48.1953 152.305 47.3408 152.305 46.291C152.305 45.2656 153.16 44.4111 154.209 44.4111C155.21 44.4111 156.089 45.2656 156.089 46.291C156.089 47.3408 155.21 48.1953 154.209 48.1953ZM182.09 28.127V44.2402H179.356V28.127H182.09ZM182.701 47.5361V49.7334H167.491V42.7021H170.225V47.5361H182.701ZM171.934 31.4961C171.934 34.5723 173.741 37.4775 177.232 38.6494L175.84 40.7979C173.326 39.9189 171.531 38.1611 170.567 35.915C169.566 38.3198 167.747 40.2485 165.147 41.1885L163.731 39.04C167.32 37.7705 169.126 34.6699 169.126 31.4961V29.3477H171.934V31.4961ZM205.455 39.1377V41.3105H196.934V45.3633H194.249V41.3105H185.289V39.1377H205.455ZM202.867 29.1035V37.0869H187.852V29.1035H202.867ZM190.489 31.2275V34.9629H200.181V31.2275H190.489ZM203.233 47.5361V49.7334H187.73V43.3369H190.44V47.5361H203.233ZM219.249 30.3975V31.96C219.249 33.9375 219.249 36.6963 218.638 40.5049L215.953 40.2852C216.478 36.9404 216.539 34.4746 216.563 32.5703H207.896V30.3975H219.249ZM213.682 36.6963V43.2148C215.928 43.1294 218.235 42.9707 220.347 42.7021L220.494 44.7285C215.928 45.4609 210.875 45.5586 206.993 45.5342L206.724 43.3613C208.03 43.3491 209.483 43.3369 210.997 43.2881V36.6963H213.682ZM224.229 28.1025V37.0869H227.427V39.3818H224.229V50.1729H221.495V28.1025H224.229ZM241.27 33.0586C241.27 35.4023 242.686 37.6973 245.469 38.6494L244.249 40.7002C242.222 39.9556 240.831 38.5762 240.049 36.8672C239.268 38.7349 237.864 40.2485 235.777 41.0664L234.507 39.0645C237.291 37.9658 238.682 35.5732 238.707 33.0586V32.8877H235.069V30.7637H238.707V28.3467H241.27V30.7637H244.859V32.8877H241.27V33.0586ZM253.331 28.127V41.6279H250.743V35.9883H248.619V41.5303H246.055V28.4932H248.619V33.791H250.743V28.127H253.331ZM253.331 42.6289V50.1729H250.621V44.8262H238.218V42.6289H253.331ZM266.099 28.4443C271.128 28.4443 274.034 29.7871 274.058 32.2285C274.034 34.6943 271.128 36.0127 266.099 36.0371C261.07 36.0127 258.14 34.6943 258.14 32.2285C258.14 29.7871 261.07 28.4443 266.099 28.4443ZM266.099 30.4463C262.73 30.4463 260.972 31.0811 260.997 32.2285C260.972 33.4492 262.73 34.0107 266.099 34.0107C269.517 34.0107 271.25 33.4492 271.25 32.2285C271.25 31.0811 269.517 30.4463 266.099 30.4463ZM276.182 37.209V39.3818H256.065V37.209H276.182ZM273.667 40.8711V46.2666H261.119V47.9023H274.278V49.9775H258.458V44.3379H271.006V42.873H258.433V40.8711H273.667ZM291.539 32.6191C291.539 34.9873 293.321 37.3066 296.788 38.2344L295.567 40.3096C293.003 39.6382 291.197 38.1733 290.22 36.2812C289.231 38.3564 287.376 39.9678 284.776 40.7246L283.482 38.5762C286.973 37.6484 288.829 35.207 288.829 32.6191V32.5459H284.214V30.3975H288.829V28.0049H291.563V30.3975H296.153V32.5459H291.539V32.6191ZM301.011 28.1025V33.2295H304.087V35.4756H301.011V40.749H298.301V28.1025H301.011ZM301.329 41.7744V43.9473H295.494C296.006 45.7783 298.484 47.4873 302.256 48.0244L301.28 50.0996C297.825 49.6113 295.213 48.1343 293.931 46.1201C292.662 48.1221 290.074 49.5625 286.656 50.0508L285.655 48C289.439 47.4751 291.893 45.8271 292.417 43.9473H286.558V41.7744H301.329ZM311.143 29.7139C314.463 29.7139 316.856 32.7412 316.88 37.502C316.856 42.3115 314.463 45.3145 311.143 45.3145C307.798 45.3145 305.381 42.3115 305.406 37.502C305.381 32.7412 307.798 29.7139 311.143 29.7139ZM311.143 32.1553C309.288 32.1553 308.018 34.1328 308.018 37.502C308.018 40.8955 309.288 42.873 311.143 42.873C313.023 42.873 314.268 40.8955 314.268 37.502C314.268 34.1328 313.023 32.1553 311.143 32.1553ZM322.496 28.1025V36.5742H325.889V38.8691H322.496V50.1729H319.786V28.1025H322.496ZM346.983 45.29V47.5117H326.817V45.29H335.508V40.9932H329.039V29.5674H331.749V33.1807H341.978V29.5674H344.688V40.9932H338.194V45.29H346.983ZM331.749 38.7959H341.978V35.3535H331.749V38.7959ZM359.751 29.958V31.7158H364.195V28.127H366.905V44.1914H364.195V38.625H359.751V40.5293H349.375V29.958H359.751ZM352.085 32.1064V38.4053H357.066V32.1064H352.085ZM367.393 47.5361V49.7334H352.354V42.7021H355.113V47.5361H367.393ZM359.751 36.4521H364.195V33.9375H359.751V36.4521ZM378.184 33.4004C378.184 37.502 380.137 41.5303 383.653 43.0684L382.017 45.2412C379.515 44.0205 377.757 41.6768 376.817 38.7959C375.853 41.8354 374.058 44.3623 371.519 45.6562L369.81 43.459C373.399 41.7744 375.401 37.5264 375.425 33.4004V29.8848H378.184V33.4004ZM388.536 28.1025V50.1973H385.85V37.4287H381.211V35.2314H385.85V28.1025H388.536ZM417.71 39.5283V41.7012H409.19V45.5098H406.504V41.7012H397.544V39.5283H417.71ZM415.489 47.5361V49.7334H399.986V43.6543H402.671V47.5361H415.489ZM402.867 28.8105V31.3008H412.388V28.8105H415.074V37.7949H400.181V28.8105H402.867ZM402.867 35.6465H412.388V33.3271H402.867V35.6465ZM425.108 29.7139C428.428 29.7139 430.821 32.7412 430.845 37.502C430.821 42.3115 428.428 45.3145 425.108 45.3145C421.763 45.3145 419.346 42.3115 419.371 37.502C419.346 32.7412 421.763 29.7139 425.108 29.7139ZM425.108 32.1553C423.252 32.1553 421.983 34.1328 421.983 37.502C421.983 40.8955 423.252 42.873 425.108 42.873C426.988 42.873 428.233 40.8955 428.233 37.502C428.233 34.1328 426.988 32.1553 425.108 32.1553ZM439.732 33.376V35.6465H436.46V39.8945H439.732V42.1162H436.46V50.1729H433.75V28.1025H436.46V33.376H439.732ZM459.825 28.1025V50.1729H457.212V28.1025H459.825ZM455.284 28.4932V49.0986H452.696V38.6006H450.596C450.34 42.8975 448.497 45.5586 445.762 45.5342C442.881 45.5586 441.001 42.5068 441.001 37.6484C441.001 32.79 442.881 29.7871 445.762 29.7871C448.436 29.7871 450.254 32.2773 450.572 36.4033H452.696V28.4932H455.284ZM445.762 32.3506C444.371 32.3262 443.492 34.2061 443.516 37.6484C443.492 41.0908 444.371 42.9707 445.762 42.9463C447.227 42.9707 448.106 41.0908 448.106 37.6484C448.106 34.2061 447.227 32.3262 445.762 32.3506ZM487.315 28.1025V50.1729H484.727V38.918H482.237V49.0498H479.747V28.5176H482.237V36.7451H484.727V28.1025H487.315ZM477.256 30.7148V32.9121H471.739V42.7266C474.144 42.7021 476.121 42.5801 478.355 42.165L478.55 44.3867C475.889 44.9238 473.57 44.9971 470.494 45.0215H469.004V30.7148H477.256ZM507.334 28.127V35.0605H510.411V37.3066H507.334V44.6064H504.625V28.127H507.334ZM503.038 30.5684V32.7412H489.952V30.5684H495.152V28.1025H497.862V30.5684H503.038ZM496.495 33.6445C499.668 33.6445 501.866 35.3291 501.89 37.8682C501.866 40.3828 499.668 42.043 496.495 42.043C493.296 42.043 491.075 40.3828 491.075 37.8682C491.075 35.3291 493.296 33.6445 496.495 33.6445ZM496.495 35.7441C494.81 35.7441 493.711 36.5254 493.711 37.8682C493.711 39.1865 494.81 39.9678 496.495 39.9434C498.179 39.9678 499.302 39.1865 499.302 37.8682C499.302 36.5254 498.179 35.7441 496.495 35.7441ZM508.213 47.5361V49.7334H493.199V43.3125H495.909V47.5361H508.213ZM535.948 28.1025V41.2129H533.238V35.8174H529.478V33.5957H533.238V28.1025H535.948ZM528.477 41.7744C533.165 41.7744 536.021 43.3125 536.021 45.9736C536.021 48.6348 533.165 50.1729 528.477 50.1729C523.814 50.1729 520.958 48.6348 520.982 45.9736C520.958 43.3125 523.814 41.7744 528.477 41.7744ZM528.477 43.8496C525.401 43.8496 523.667 44.582 523.667 45.9736C523.667 47.3408 525.401 48.0732 528.477 48.0732C531.553 48.0732 533.311 47.3408 533.311 45.9736C533.311 44.582 531.553 43.8496 528.477 43.8496ZM525.572 31.8867C525.572 34.5723 527.354 37.2822 530.772 38.4297L529.405 40.5781C526.951 39.748 525.206 38.0635 524.253 35.9883C523.277 38.3442 521.434 40.2241 518.809 41.1641L517.393 39.0156C520.933 37.7949 522.813 34.8164 522.813 31.9111V31.7402H518.223V29.543H530.137V31.7402H525.572V31.8867ZM559.239 45.29V47.5117H539.073V45.29H547.764V40.9932H541.294V29.5674H544.004V33.1807H554.234V29.5674H556.944V40.9932H550.45V45.29H559.239ZM544.004 38.7959H554.234V35.3535H544.004V38.7959ZM567.271 29.4697C570.665 29.4697 573.252 31.667 573.277 34.792C573.252 37.4897 571.348 39.4795 568.663 39.9922V43.2393C570.494 43.1538 572.337 43.0073 574.058 42.7754L574.253 44.8018C569.639 45.6318 564.585 45.6562 560.801 45.6074L560.411 43.3857C562.071 43.3857 563.975 43.3857 565.953 43.3369V39.9922C563.182 39.5283 561.265 37.5264 561.29 34.792C561.265 31.667 563.804 29.4697 567.271 29.4697ZM567.271 31.7646C565.342 31.7891 563.926 32.9365 563.926 34.792C563.926 36.6475 565.342 37.8193 567.271 37.7949C569.175 37.8193 570.591 36.6475 570.591 34.792C570.591 32.9365 569.175 31.7891 567.271 31.7646ZM578.038 28.1025V36.916H581.236V39.2109H578.038V50.1729H575.328V28.1025H578.038ZM607.359 31.2031V33.376H589.122V31.2031H596.91V28.4688H599.595V31.2031H607.359ZM608.384 45.4854V47.6826H588.218V45.4854H608.384ZM598.252 34.5234C602.793 34.5234 605.674 36.1836 605.674 38.9424C605.674 41.7012 602.793 43.3857 598.252 43.3857C593.663 43.3857 590.782 41.7012 590.806 38.9424C590.782 36.1836 593.663 34.5234 598.252 34.5234ZM598.252 36.6719C595.274 36.6719 593.541 37.4775 593.565 38.9424C593.541 40.4072 595.274 41.2129 598.252 41.2129C601.158 41.2129 602.891 40.4072 602.891 38.9424C602.891 37.4775 601.158 36.6719 598.252 36.6719ZM629.966 39.333V41.4814H609.8V39.333H629.966ZM627.476 28.5664V34.2305H615.049V35.8174H627.916V37.8926H612.364V32.2529H624.766V30.6904H612.291V28.5664H627.476ZM627.549 43.0684V49.9043H612.437V43.0684H627.549ZM615.098 45.2168V47.707H624.864V45.2168H615.098ZM641.465 28.4443C646.495 28.4443 649.4 29.7871 649.424 32.2285C649.4 34.6943 646.495 36.0127 641.465 36.0371C636.436 36.0127 633.506 34.6943 633.506 32.2285C633.506 29.7871 636.436 28.4443 641.465 28.4443ZM641.465 30.4463C638.096 30.4463 636.338 31.0811 636.363 32.2285C636.338 33.4492 638.096 34.0107 641.465 34.0107C644.883 34.0107 646.617 33.4492 646.617 32.2285C646.617 31.0811 644.883 30.4463 641.465 30.4463ZM651.548 37.209V39.3818H631.431V37.209H651.548ZM649.034 40.8711V46.2666H636.485V47.9023H649.644V49.9775H633.824V44.3379H646.373V42.873H633.799V40.8711H649.034ZM664.073 41.335V43.4346H673.79V41.335H676.5V49.9043H661.387V41.335H664.073ZM664.073 47.7559H673.79V45.5098H664.073V47.7559ZM679.087 37.8682V40.0898H658.97V37.8682H679.087ZM670.42 29.1768C670.42 31.5449 673.448 34.0352 678.013 34.5723L677.061 36.7207C673.362 36.2202 670.445 34.5845 669.029 32.3506C667.601 34.5967 664.671 36.2202 660.997 36.7207L659.996 34.5723C664.61 34.0107 667.613 31.6182 667.637 29.1768V28.3467H670.42V29.1768ZM700.718 38.625V40.8223H680.577V38.625H700.718ZM698.277 42.9707V50.2217H695.591V45.1436H682.798V42.9707H698.277ZM698.472 34.4746V36.6475H683.042V28.8838H698.277V31.0566H685.752V34.4746H698.472ZM719.59 28.127V35.0605H722.667V37.3066H719.59V44.6064H716.88V28.127H719.59ZM715.293 30.5684V32.7412H702.208V30.5684H707.408V28.1025H710.118V30.5684H715.293ZM708.75 33.6445C711.924 33.6445 714.122 35.3291 714.146 37.8682C714.122 40.3828 711.924 42.043 708.75 42.043C705.552 42.043 703.331 40.3828 703.331 37.8682C703.331 35.3291 705.552 33.6445 708.75 33.6445ZM708.75 35.7441C707.066 35.7441 705.967 36.5254 705.967 37.8682C705.967 39.1865 707.066 39.9678 708.75 39.9434C710.435 39.9678 711.558 39.1865 711.558 37.8682C711.558 36.5254 710.435 35.7441 708.75 35.7441ZM720.469 47.5361V49.7334H705.455V43.3125H708.165V47.5361H720.469ZM741.075 28.1025V36.4766H744.468V38.6982H741.075V50.1973H738.365V28.1025H741.075ZM735.02 30.2021V32.3994H727.403V42.5312C730.833 42.5312 733.543 42.3604 736.583 41.8232L736.9 44.1182C733.482 44.7041 730.503 44.8018 726.524 44.8018H724.693V30.2021H735.02ZM748.082 48.1953C747.032 48.1953 746.177 47.3408 746.177 46.291C746.177 45.2656 747.032 44.4111 748.082 44.4111C749.083 44.4111 749.961 45.2656 749.961 46.291C749.961 47.3408 749.083 48.1953 748.082 48.1953Z" fill="black"/>
</svg>
