<svg width="940" height="77" viewBox="0 0 940 77" fill="none" xmlns="http://www.w3.org/2000/svg">
<rect x="30.5" y="0.5" width="879" height="76" rx="14.5" fill="current" stroke="black"/>
<path d="M203.215 47H199.822L206.047 29.3242H209.954L216.204 47H212.81L211.345 42.6299H204.68L203.215 47ZM205.535 40.0664H210.491L208.074 32.9375H207.927L205.535 40.0664ZM220.085 47.1953C219.036 47.1953 218.181 46.3408 218.181 45.291C218.181 44.2656 219.036 43.4111 220.085 43.4111C221.086 43.4111 221.965 44.2656 221.965 45.291C221.965 46.3408 221.086 47.1953 220.085 47.1953ZM246.99 27.1025V32.0586H250.066V34.2803H246.99V39.0654H244.231V27.1025H246.99ZM240.911 28.3477C240.911 34.085 237.175 37.7959 230.535 39.334L229.534 37.1367C234.771 35.9893 237.505 33.5112 237.883 30.5205H230.608V28.3477H240.911ZM235.393 39.9688V42.3369H244.28V39.9688H246.99V48.9043H232.659V39.9688H235.393ZM235.393 46.707H244.28V44.4609H235.393V46.707ZM259.099 33.377C259.099 36.7949 261.125 40.6768 264.617 42.2881L263.103 44.4365C260.613 43.2646 258.77 40.8965 257.781 38.1377C256.78 41.165 254.851 43.7529 252.312 44.9736L250.725 42.8496C254.241 41.1895 256.365 37.0391 256.389 33.377V31.5215H251.58V29.2754H263.713V31.5215H259.099V33.377ZM268.474 27.1025V35.6963H271.868V37.9668H268.474V49.1729H265.764V27.1025H268.474ZM291.228 27.1025V49.1729H288.494V27.1025H291.228ZM284.636 29.4463C284.636 36.0137 282.097 41.6045 274.358 45.2666L272.942 43.0938C278.716 40.3472 281.401 36.6118 281.877 31.5947H274.065V29.4463H284.636ZM318.865 27.1025V49.1973H316.155V36.2822H309.832V34.085H316.155V27.1025H318.865ZM304.216 29.5195V41.7021C307.183 41.6533 310.125 41.4214 313.225 40.8232L313.542 43.0449C309.978 43.7773 306.682 43.9727 303.313 43.9727H301.506V29.5195H304.216ZM342.083 39.6025V41.7998H333.293V49.1484H330.608V41.7998H321.917V39.6025H342.083ZM339.617 28.2256V37.0146H324.382V28.2256H339.617ZM327.043 30.3984V34.8906H336.907V30.3984H327.043ZM367.18 27.957V29.6416C367.18 31.2896 367.18 33.2427 366.692 35.6963H369.646V37.8691H360.857V40.7988C364.873 41.0796 367.278 42.5688 367.302 44.9492C367.278 47.6348 364.348 49.1484 359.539 49.1484C354.68 49.1484 351.726 47.6348 351.726 44.9492C351.726 42.5688 354.131 41.0796 358.171 40.8232V37.8691H349.48V35.6963H363.958C364.421 33.4258 364.47 31.6924 364.47 30.1299H351.97V27.957H367.18ZM359.539 42.9473C356.267 42.9473 354.46 43.6309 354.485 44.9492C354.46 46.292 356.267 46.9756 359.539 46.9756C362.737 46.9756 364.543 46.292 364.568 44.9492C364.543 43.6309 362.737 42.9473 359.539 42.9473ZM388.787 28.1768V29.8857C388.787 31.5947 388.787 33.5479 388.25 36.1602H391.252V38.3574H371.086V36.1602H385.515C386.028 33.7798 386.077 31.9609 386.077 30.3496H373.577V28.1768H388.787ZM388.762 40.9209V48.9043H373.503V40.9209H388.762ZM376.165 43.0449V46.707H386.077V43.0449H376.165ZM403.459 30.6182V32.791H392.644V30.6182H396.746V27.7373H399.431V30.6182H403.459ZM398.088 33.9629C400.896 33.9629 402.898 36.0869 402.898 39.0898C402.898 42.1416 400.896 44.29 398.088 44.29C395.305 44.29 393.254 42.1416 393.279 39.0898C393.254 36.0869 395.305 33.9629 398.088 33.9629ZM398.088 36.209C396.648 36.209 395.647 37.3564 395.671 39.0898C395.647 40.8721 396.648 41.9951 398.088 41.9707C399.504 41.9951 400.505 40.8721 400.505 39.0898C400.505 37.3564 399.504 36.209 398.088 36.209ZM411.663 27.1025V49.1729H409.075V38.3818H406.926V48.1719H404.387V27.5664H406.926V36.1846H409.075V27.1025H411.663ZM422.454 32.4004C422.454 36.502 424.407 40.5303 427.922 42.0684L426.287 44.2412C423.784 43.0205 422.026 40.6768 421.086 37.7959C420.122 40.8354 418.328 43.3623 415.789 44.6562L414.08 42.459C417.668 40.7744 419.67 36.5264 419.695 32.4004V28.8848H422.454V32.4004ZM432.805 27.1025V49.1973H430.12V36.4287H425.481V34.2314H430.12V27.1025H432.805ZM460.198 27.1025V49.1973H457.463V27.1025H460.198ZM448.308 28.7139C451.628 28.7139 454.045 31.7412 454.07 36.502C454.045 41.3115 451.628 44.3145 448.308 44.3145C444.963 44.3145 442.546 41.3115 442.546 36.502C442.546 31.7412 444.963 28.7139 448.308 28.7139ZM448.308 31.1553C446.428 31.1553 445.159 33.1328 445.159 36.502C445.159 39.8955 446.428 41.873 448.308 41.873C450.164 41.873 451.433 39.8955 451.433 36.502C451.433 33.1328 450.164 31.1553 448.308 31.1553ZM481.926 27.127V41.8486H479.216V35.3057H475.017V33.084H479.216V27.127H481.926ZM474.871 28.8359C474.846 34.6709 471.477 38.6748 464.91 40.7256L463.738 38.6016C468.816 37.0757 471.477 34.4268 471.941 31.0088H464.885V28.8359H474.871ZM475.92 40.9697C475.896 43.7041 478.63 46.1943 483.025 46.9023L481.926 49.0508C478.508 48.4648 475.872 46.8535 474.553 44.5586C473.198 46.8535 470.549 48.4771 467.131 49.0752L466.057 46.9268C470.476 46.2676 473.21 43.7041 473.21 40.9697V40.1152H475.92V40.9697ZM504.094 27.1025V49.1729H501.482V27.1025H504.094ZM499.553 27.4932V48.0986H496.965V37.6006H494.866C494.609 41.8975 492.766 44.5586 490.032 44.5342C487.151 44.5586 485.271 41.5068 485.271 36.6484C485.271 31.79 487.151 28.7871 490.032 28.7871C492.705 28.7871 494.524 31.2773 494.841 35.4033H496.965V27.4932H499.553ZM490.032 31.3506C488.64 31.3262 487.761 33.2061 487.786 36.6484C487.761 40.0908 488.64 41.9707 490.032 41.9463C491.497 41.9707 492.375 40.0908 492.375 36.6484C492.375 33.2061 491.497 31.3262 490.032 31.3506ZM531.584 27.1025V49.1729H528.997V37.918H526.506V48.0498H524.016V27.5176H526.506V35.7451H528.997V27.1025H531.584ZM521.526 29.7148V31.9121H516.008V41.7266C518.413 41.7021 520.391 41.5801 522.625 41.165L522.82 43.3867C520.159 43.9238 517.839 43.9971 514.763 44.0215H513.274V29.7148H521.526ZM544.963 30.6182V32.791H534.148V30.6182H538.25V27.7373H540.935V30.6182H544.963ZM539.592 33.9629C542.4 33.9629 544.402 36.0869 544.402 39.0898C544.402 42.1416 542.4 44.29 539.592 44.29C536.809 44.29 534.758 42.1416 534.783 39.0898C534.758 36.0869 536.809 33.9629 539.592 33.9629ZM539.592 36.209C538.152 36.209 537.151 37.3564 537.175 39.0898C537.151 40.8721 538.152 41.9951 539.592 41.9707C541.008 41.9951 542.009 40.8721 542.009 39.0898C542.009 37.3564 541.008 36.209 539.592 36.209ZM553.167 27.1025V49.1729H550.579V38.3818H548.43V48.1719H545.891V27.5664H548.43V36.1846H550.579V27.1025H553.167ZM573.162 28.4453C573.137 34.1338 569.402 38.1133 562.981 39.9199L561.882 37.7959C566.826 36.4409 569.756 33.8652 570.256 30.6426H563.079V28.4453H573.162ZM580.217 27.127V39.5537H577.507V34.7441H573.259V32.5225H577.507V27.127H580.217ZM580.217 40.4326V48.8799H565.691V40.4326H580.217ZM568.352 42.5811V46.7314H577.532V42.5811H568.352ZM590.227 31.1064C590.227 33.5723 591.594 36.0137 594.5 37.1611L593.035 39.2363C591.094 38.4551 589.739 37.0146 588.958 35.2324C588.127 37.2344 586.687 38.9189 584.587 39.8223L583.147 37.7227C586.174 36.3799 587.59 33.5967 587.615 31.1064V28.4209H590.227V31.1064ZM602.214 27.127V40.4814H599.626V34.8662H597.429V40.3594H594.89V27.4932H597.429V32.6201H599.626V27.127H602.214ZM602.214 41.5312V49.1729H599.504V43.7041H587.102V41.5312H602.214ZM615.715 30.6182V32.791H604.9V30.6182H609.001V27.7373H611.687V30.6182H615.715ZM610.344 33.9629C613.152 33.9629 615.154 36.0869 615.154 39.0898C615.154 42.1416 613.152 44.29 610.344 44.29C607.561 44.29 605.51 42.1416 605.535 39.0898C605.51 36.0869 607.561 33.9629 610.344 33.9629ZM610.344 36.209C608.904 36.209 607.903 37.3564 607.927 39.0898C607.903 40.8721 608.904 41.9951 610.344 41.9707C611.76 41.9951 612.761 40.8721 612.761 39.0898C612.761 37.3564 611.76 36.209 610.344 36.209ZM623.918 27.1025V49.1729H621.331V38.3818H619.182V48.1719H616.643V27.5664H619.182V36.1846H621.331V27.1025H623.918ZM634.709 32.4004C634.709 36.502 636.663 40.5303 640.178 42.0684L638.542 44.2412C636.04 43.0205 634.282 40.6768 633.342 37.7959C632.378 40.8354 630.583 43.3623 628.044 44.6562L626.335 42.459C629.924 40.7744 631.926 36.5264 631.951 32.4004V28.8848H634.709V32.4004ZM645.061 27.1025V49.1973H642.375V36.4287H637.737V34.2314H642.375V27.1025H645.061ZM662.029 31.6191C662.029 33.9873 663.811 36.3066 667.278 37.2344L666.057 39.3096C663.494 38.6382 661.687 37.1733 660.71 35.2812C659.722 37.3564 657.866 38.9678 655.266 39.7246L653.972 37.5762C657.463 36.6484 659.319 34.207 659.319 31.6191V31.5459H654.705V29.3975H659.319V27.0049H662.053V29.3975H666.643V31.5459H662.029V31.6191ZM671.501 27.1025V32.2295H674.578V34.4756H671.501V39.749H668.792V27.1025H671.501ZM671.819 40.7744V42.9473H665.984C666.497 44.7783 668.975 46.4873 672.747 47.0244L671.77 49.0996C668.315 48.6113 665.703 47.1343 664.421 45.1201C663.152 47.1221 660.564 48.5625 657.146 49.0508L656.145 47C659.929 46.4751 662.383 44.8271 662.908 42.9473H657.048V40.7744H671.819ZM681.633 28.7139C684.954 28.7139 687.346 31.7412 687.371 36.502C687.346 41.3115 684.954 44.3145 681.633 44.3145C678.289 44.3145 675.872 41.3115 675.896 36.502C675.872 31.7412 678.289 28.7139 681.633 28.7139ZM681.633 31.1553C679.778 31.1553 678.508 33.1328 678.508 36.502C678.508 39.8955 679.778 41.873 681.633 41.873C683.513 41.873 684.758 39.8955 684.758 36.502C684.758 33.1328 683.513 31.1553 681.633 31.1553ZM692.986 27.1025V35.5742H696.379V37.8691H692.986V49.1729H690.276V27.1025H692.986ZM702.605 27.9326V30.3252H712.126V27.9326H714.812V36.8926H708.708V38.9189H717.424V41.1162H697.307V38.9189H705.974V36.8926H699.919V27.9326H702.605ZM702.605 34.7197H712.126V32.4248H702.605V34.7197ZM715.154 46.5361V48.7334H699.797V42.5322H702.507V46.5361H715.154ZM736.199 27.1025V35.4766H739.592V37.6982H736.199V49.1973H733.489V27.1025H736.199ZM730.144 29.2021V31.3994H722.527V41.5312C725.957 41.5312 728.667 41.3604 731.707 40.8232L732.024 43.1182C728.606 43.7041 725.627 43.8018 721.648 43.8018H719.817V29.2021H730.144ZM743.206 47.1953C742.156 47.1953 741.301 46.3408 741.301 45.291C741.301 44.2656 742.156 43.4111 743.206 43.4111C744.207 43.4111 745.085 44.2656 745.085 45.291C745.085 46.3408 744.207 47.1953 743.206 47.1953Z" fill="black"/>
</svg>
