<svg width="940" height="77" viewBox="0 0 940 77" fill="none" xmlns="http://www.w3.org/2000/svg">
<rect x="30.5" y="0.5" width="879" height="76" rx="14.5" fill="current" stroke="black"/>
<path d="M213.799 47H210.405L216.631 29.3242H220.537L226.787 47H223.394L221.929 42.6299H215.264L213.799 47ZM216.118 40.0664H221.074L218.657 32.9375H218.511L216.118 40.0664ZM230.669 47.1953C229.619 47.1953 228.765 46.3408 228.765 45.291C228.765 44.2656 229.619 43.4111 230.669 43.4111C231.67 43.4111 232.549 44.2656 232.549 45.291C232.549 46.3408 231.67 47.1953 230.669 47.1953ZM258.647 27.1025V41.9951H255.938V34.6953H251.494V38.7236H241.118V28.6895H251.494V32.498H255.938V27.1025H258.647ZM243.828 30.8867V36.5508H248.809V30.8867H243.828ZM252.739 41.2627C252.715 43.8506 255.474 46.292 259.941 46.9268L258.867 49.0508C255.327 48.5137 252.629 46.8657 251.299 44.583C249.944 46.8291 247.234 48.5137 243.73 49.0508L242.754 46.9268C247.075 46.2676 249.932 43.7285 249.932 41.2627V40.5547H252.739V41.2627ZM270.146 31.5947C270.146 34.3291 272.026 37.0146 275.542 38.1133L274.15 40.2373C271.648 39.4194 269.829 37.7715 268.828 35.6719C267.827 37.9546 265.959 39.7734 263.335 40.6768L261.943 38.5283C265.483 37.3564 267.388 34.5 267.412 31.5947V30.96H262.651V28.7871H274.785V30.96H270.146V31.5947ZM280.156 27.127V43.1426H277.422V27.127H280.156ZM280.767 46.5361V48.7334H265.557V41.6777H268.291V46.5361H280.767ZM302.568 29.4219V31.5459H298.003C298.052 33.4502 299.797 35.147 303.057 35.7939L301.982 37.8936C299.456 37.3687 297.661 36.1846 296.685 34.5977C295.72 36.3311 293.914 37.6372 291.313 38.1865L290.166 36.0869C293.474 35.4399 295.232 33.5723 295.269 31.5459H290.728V29.4219H295.293V27.1514H298.003V29.4219H302.568ZM307.769 27.127V49.1484H305.083V27.127H307.769ZM289.336 39.334C293.438 39.334 298.931 39.3096 303.643 38.7236L303.838 40.6768C301.934 41.0063 299.956 41.2139 298.027 41.3359V48.4893H295.293V41.4824C293.279 41.5679 291.362 41.5801 289.678 41.5801L289.336 39.334ZM322.588 29.1777V43.8018H312.09V29.1777H322.588ZM314.775 31.3018V41.6289H319.951V31.3018H314.775ZM329.277 27.1025V49.1973H326.543V27.1025H329.277ZM349.81 27.1025V35.5742H353.203V37.8447H349.81V49.1973H347.124V27.1025H349.81ZM343.56 29.0312V37.3564H336.138V41.751C339.629 41.7266 342.351 41.5801 345.439 41.043L345.684 43.2402C342.29 43.8506 339.263 43.9971 335.259 43.9971H333.452V35.1836H340.85V31.2285H333.403V29.0312H343.56ZM372.148 29.1289V31.2529C372.124 33.9873 372.124 37.0635 371.27 41.6777L368.535 41.3848C369.39 37.0879 369.39 33.9507 369.414 31.3018H356.23V29.1289H372.148ZM374.248 44.0947V46.3164H354.131V44.0947H361.553V36.4287H364.238V44.0947H374.248ZM388.555 31.2041C388.555 33.5967 389.946 35.9893 392.852 37.0879L391.411 39.1631C389.446 38.4062 388.079 37.0024 387.285 35.2812C386.479 37.2588 385.039 38.9434 382.939 39.8223L381.475 37.7471C384.502 36.4043 385.918 33.6455 385.942 31.2041V28.4697H388.555V31.2041ZM400.542 27.127V40.6523H397.954V34.915H395.757V39.9688H393.218V27.542H395.757V32.6934H397.954V27.127H400.542ZM393.096 41.0186C397.71 41.0186 400.64 42.5322 400.664 45.0713C400.64 47.6104 397.71 49.1484 393.096 49.1484C388.433 49.1484 385.527 47.6104 385.527 45.0713C385.527 42.5322 388.433 41.0186 393.096 41.0186ZM393.096 43.0693C390.044 43.0693 388.237 43.7773 388.237 45.0713C388.237 46.3896 390.044 47.0732 393.096 47.0732C396.123 47.0732 397.93 46.3896 397.93 45.0713C397.93 43.7773 396.123 43.0693 393.096 43.0693ZM420.684 27.1025V32.4248H423.76V34.6953H420.684V39.9688H417.974V27.1025H420.684ZM414.531 28.3965C414.531 34.1826 410.771 38.1621 404.18 39.8467L403.057 37.7715C408.22 36.4409 411.15 33.8042 411.626 30.5938H404.155V28.3965H414.531ZM420.684 40.8965V49.1729H417.974V43.0693H405.986V40.8965H420.684ZM442.168 27.1025V35.8916H445.562V38.1377H442.168V49.1729H439.482V27.1025H442.168ZM437.773 30.4961V32.6689H424.761V30.4961H429.985V27.4199H432.695V30.4961H437.773ZM431.353 34.1094C434.526 34.1094 436.895 36.2578 436.895 39.3096C436.895 42.3613 434.526 44.4854 431.353 44.4854C428.13 44.4854 425.762 42.3613 425.786 39.3096C425.762 36.2578 428.13 34.1094 431.353 34.1094ZM431.353 36.3311C429.619 36.3311 428.374 37.5029 428.374 39.3096C428.374 41.1162 429.619 42.2637 431.353 42.2393C433.037 42.2637 434.282 41.1162 434.307 39.3096C434.282 37.5029 433.037 36.3311 431.353 36.3311ZM457.72 29.1533V32.2051H462.31V27.1025H464.995V49.1973H462.31V40.3838H457.72V43.7285H447.319V29.1533H457.72ZM450.029 31.2773V41.5801H455.059V31.2773H450.029ZM457.72 38.2109H462.31V34.4023H457.72V38.2109ZM472.393 45.2666L470.342 52.1025H468.022L469.292 45.2666H472.393ZM497.808 27.127V34.0605H500.884V36.3066H497.808V43.6064H495.098V27.127H497.808ZM493.511 29.5684V31.7412H480.425V29.5684H485.625V27.1025H488.335V29.5684H493.511ZM486.968 32.6445C490.142 32.6445 492.339 34.3291 492.363 36.8682C492.339 39.3828 490.142 41.043 486.968 41.043C483.77 41.043 481.548 39.3828 481.548 36.8682C481.548 34.3291 483.77 32.6445 486.968 32.6445ZM486.968 34.7441C485.283 34.7441 484.185 35.5254 484.185 36.8682C484.185 38.1865 485.283 38.9678 486.968 38.9434C488.652 38.9678 489.775 38.1865 489.775 36.8682C489.775 35.5254 488.652 34.7441 486.968 34.7441ZM498.687 46.5361V48.7334H483.672V42.3125H486.382V46.5361H498.687ZM520.488 27.127V43.4111H517.778V35.2812H513.335V39.8223H503.008V28.5674H505.718V32.1318H510.649V28.5674H513.335V33.084H517.778V27.127H520.488ZM520.977 46.5361V48.7334H505.938V41.7998H508.696V46.5361H520.977ZM505.718 37.6738H510.649V34.2314H505.718V37.6738ZM537.896 32.4004C537.871 36.4531 539.995 40.5059 543.584 42.0439L541.973 44.2168C539.434 43.0449 537.566 40.7012 536.553 37.8203C535.54 40.9331 533.647 43.4722 530.962 44.7295L529.302 42.459C532.988 40.8721 535.137 36.6484 535.137 32.4004V28.8848H537.896V32.4004ZM547.905 27.1025V49.1973H545.171V27.1025H547.905ZM569.072 37.1367V39.2852H562.529V44.3389H571.318V46.5605H551.152V44.3389H559.844V39.2852H553.594V28.7383H568.901V30.9111H556.304V37.1367H569.072ZM583.525 30.6182V32.791H572.71V30.6182H576.812V27.7373H579.497V30.6182H583.525ZM578.154 33.9629C580.962 33.9629 582.964 36.0869 582.964 39.0898C582.964 42.1416 580.962 44.29 578.154 44.29C575.371 44.29 573.32 42.1416 573.345 39.0898C573.32 36.0869 575.371 33.9629 578.154 33.9629ZM578.154 36.209C576.714 36.209 575.713 37.3564 575.737 39.0898C575.713 40.8721 576.714 41.9951 578.154 41.9707C579.57 41.9951 580.571 40.8721 580.571 39.0898C580.571 37.3564 579.57 36.209 578.154 36.209ZM591.729 27.1025V49.1729H589.141V38.3818H586.992V48.1719H584.453V27.5664H586.992V36.1846H589.141V27.1025H591.729ZM599.663 27.4443V29.1777H609.185V27.4443H611.87V34.793H605.718V36.4775H614.482V38.626H594.365V36.4775H603.032V34.793H596.978V27.4443H599.663ZM599.663 32.7666H609.185V31.1553H599.663V32.7666ZM611.968 40.0176V45.3643H599.419V46.9023H612.578V48.9775H596.758V43.46H609.307V42.0195H596.733V40.0176H611.968ZM633.574 27.1025V35.916H636.626V38.1621H633.574V49.1729H630.84V27.1025H633.574ZM622.588 29.4219C622.563 35.208 621.758 40.0908 617.778 44.3877L615.654 42.8496C618.767 39.5537 619.78 36.0625 620 31.6436H616.533V29.4219H622.588ZM628.691 29.4219C628.667 35.3545 628.057 41.0186 624.077 45.8037L621.904 44.3145C625.054 40.5669 625.933 36.4287 626.128 31.6436H623.32V29.4219H628.691ZM661.528 29.1289V31.2529C661.504 33.9873 661.504 37.0635 660.649 41.6777L657.915 41.3848C658.77 37.0879 658.77 33.9507 658.794 31.3018H645.61V29.1289H661.528ZM663.628 44.0947V46.3164H643.511V44.0947H650.933V36.4287H653.618V44.0947H663.628ZM676.885 28.9336V39.4316H666.24V28.9336H676.885ZM668.926 31.1064V37.2588H674.199V31.1064H668.926ZM683.501 27.127V42.874H680.767V27.127H683.501ZM684.111 46.3896V48.5869H668.901V41.3848H671.636V46.3896H684.111ZM704.131 27.127V34.0605H707.207V36.3066H704.131V43.6064H701.421V27.127H704.131ZM699.834 29.5684V31.7412H686.748V29.5684H691.948V27.1025H694.658V29.5684H699.834ZM693.291 32.6445C696.465 32.6445 698.662 34.3291 698.687 36.8682C698.662 39.3828 696.465 41.043 693.291 41.043C690.093 41.043 687.871 39.3828 687.871 36.8682C687.871 34.3291 690.093 32.6445 693.291 32.6445ZM693.291 34.7441C691.606 34.7441 690.508 35.5254 690.508 36.8682C690.508 38.1865 691.606 38.9678 693.291 38.9434C694.976 38.9678 696.099 38.1865 696.099 36.8682C696.099 35.5254 694.976 34.7441 693.291 34.7441ZM705.01 46.5361V48.7334H689.995V42.3125H692.705V46.5361H705.01ZM725.615 27.1025V35.4766H729.009V37.6982H725.615V49.1973H722.905V27.1025H725.615ZM719.561 29.2021V31.3994H711.943V41.5312C715.374 41.5312 718.083 41.3604 721.123 40.8232L721.44 43.1182C718.022 43.7041 715.044 43.8018 711.064 43.8018H709.233V29.2021H719.561ZM732.622 47.1953C731.572 47.1953 730.718 46.3408 730.718 45.291C730.718 44.2656 731.572 43.4111 732.622 43.4111C733.623 43.4111 734.502 44.2656 734.502 45.291C734.502 46.3408 733.623 47.1953 732.622 47.1953Z" fill="black"/>
</svg>
