<svg width="226" height="54" viewBox="0 0 226 54" fill="none" xmlns="http://www.w3.org/2000/svg">
<rect x="0.5" y="0.5" width="225" height="53" rx="9.5" fill="#ECECEC" stroke="#222222"/>
<path d="M66.8809 23.1211C66.8809 25.9727 68.2676 28.9219 70.5723 30.1719L69.6543 31.3828C67.9746 30.416 66.7734 28.6484 66.1582 26.5586C65.5039 28.834 64.2148 30.7773 62.4863 31.8125L61.4902 30.6797C63.9121 29.293 65.3965 26.1875 65.3965 23.2188V19.8594H66.8809V23.1211ZM76.5684 18.2188V35.582H75.084V26.4805H72.7012V34.7031H71.2168V18.5898H72.7012V25.2109H75.084V18.2188H76.5684ZM98.3066 18.6875V19.8789H95.6309V23.2773H98.248V24.4492H92.6426V26.1484H99.8105V27.3789H83.9902V26.1484H91.1191V24.4492H85.5332V23.2773H88.1504V19.8789H85.4746V18.6875H98.3066ZM97.7793 28.7656V32.4961H87.4668V34.2148H98.3066V35.3867H85.9434V31.3828H96.2754V29.8984H85.9043V28.7656H97.7793ZM89.6738 23.2773H94.1074V19.8789H89.6738V23.2773ZM110.123 19.8789V21.168H103.697V30.0156C106.822 30.0156 108.893 29.9082 111.295 29.4492L111.49 30.7188C108.932 31.207 106.822 31.3242 103.482 31.3242H102.154V19.8789H110.123ZM115.689 18.2188V35.6211H114.146V25.8164H109.088V24.5469H114.146V18.2188H115.689ZM139.4 28.7266V30.0156H132.232V35.6211H130.729V30.0156H123.58V28.7266H139.4ZM132.252 21.6562C132.252 23.8242 135.279 25.7188 138.385 26.1484L137.818 27.3789C135.133 26.9688 132.604 25.6211 131.51 23.7266C130.396 25.6406 127.828 26.9688 125.143 27.3789L124.576 26.1484C127.662 25.7188 130.729 23.8438 130.729 21.6562V21.6367H125.123V20.3867H130.729V18.2188H132.232V20.3867H137.877V21.6367H132.252V21.6562ZM154.303 18.2188V25.2891H157.115V26.5781H154.303V35.582H152.779V18.2188H154.303ZM149.811 20.0938C149.811 25.0156 147.506 29.4883 141.842 32.2812L140.982 31.0703C145.475 28.834 147.916 25.4941 148.268 21.3828H141.783V20.0938H149.811ZM171.588 18.2188V25.3867H174.498V26.6562H171.588V35.582H170.064V18.2188H171.588ZM168.385 21.0117V22.2812H158.053V21.0117H162.525V18.4336H164.049V21.0117H168.385ZM163.307 23.7266C165.768 23.7266 167.545 25.3672 167.564 27.7109C167.545 30.0547 165.768 31.6953 163.307 31.6953C160.826 31.6953 159.029 30.0547 159.049 27.7109C159.029 25.3672 160.826 23.7266 163.307 23.7266ZM163.307 25.0156C161.686 25.0156 160.494 26.1484 160.514 27.7109C160.494 29.293 161.686 30.4062 163.307 30.3867C164.908 30.4062 166.08 29.293 166.1 27.7109C166.08 26.1484 164.908 25.0156 163.307 25.0156ZM189.791 18.2188V35.582H188.248V18.2188H189.791ZM184.654 20.1133C184.635 25.1133 182.311 29.5273 176.49 32.3203L175.65 31.0703C180.348 28.8438 182.74 25.5137 183.092 21.3633H176.451V20.1133H184.654Z" fill="#222222"/>
<circle cx="38" cy="27" r="10" fill="#222222"/>
<path d="M38.4004 23.4004V31.4004" stroke="white" stroke-width="2" stroke-linecap="round"/>
<path d="M42.4004 27.4004L34.4004 27.4004" stroke="white" stroke-width="2" stroke-linecap="round"/>
</svg>
