<svg width="880" height="77" viewBox="0 0 880 77" fill="none" xmlns="http://www.w3.org/2000/svg">
<rect x="0.5" y="0.5" width="879" height="76" rx="14.5" fill="current" stroke="black"/>
<path d="M124.131 47V29.3242H130.894C134.727 29.3242 136.631 31.2773 136.631 33.9141C136.631 36.0625 135.264 37.2588 133.53 37.6738V37.8447C135.41 37.9424 137.314 39.5049 137.314 42.1904C137.314 44.9492 135.337 47 131.284 47H124.131ZM130.796 44.3389C133.115 44.3389 134.092 43.3379 134.092 41.9463C134.092 40.3594 132.847 39.1387 130.869 39.1387H127.305V44.3389H130.796ZM130.503 36.8438C132.188 36.8438 133.457 35.8672 133.457 34.3047C133.457 32.9375 132.48 31.9609 130.576 31.9609H127.305V36.8438H130.503ZM141.685 47.1953C140.635 47.1953 139.78 46.3408 139.78 45.291C139.78 44.2656 140.635 43.4111 141.685 43.4111C142.686 43.4111 143.564 44.2656 143.564 45.291C143.564 46.3408 142.686 47.1953 141.685 47.1953ZM171.738 35.623V37.8447H168.467V49.124H165.757V27.1025H168.467V35.623H171.738ZM154.648 29.251V41.4336C157.59 41.3848 160.728 41.1284 164.048 40.4326L164.341 42.7275C160.63 43.46 157.09 43.6797 153.818 43.6797H151.963V29.251H154.648ZM186.582 29.3975C186.558 32.1807 188.364 34.6953 191.782 35.7207L190.391 37.8203C187.949 37.0513 186.228 35.501 185.288 33.499C184.299 35.7939 182.444 37.5518 179.819 38.4062L178.477 36.2578C182.017 35.1348 183.848 32.4248 183.872 29.3975V27.8838H186.582V29.3975ZM196.128 27.1025V31.5947H199.204V33.8164H196.128V38.5039H193.418V27.1025H196.128ZM196.128 39.4072V45.0957H184.409V46.8291H196.812V48.9775H181.724V43.1182H193.418V41.5068H181.699V39.4072H196.128ZM206.26 28.7139C209.58 28.7139 211.973 31.7412 211.997 36.502C211.973 41.3115 209.58 44.3145 206.26 44.3145C202.915 44.3145 200.498 41.3115 200.522 36.502C200.498 31.7412 202.915 28.7139 206.26 28.7139ZM206.26 31.1553C204.404 31.1553 203.135 33.1328 203.135 36.502C203.135 39.8955 204.404 41.873 206.26 41.873C208.14 41.873 209.385 39.8955 209.385 36.502C209.385 33.1328 208.14 31.1553 206.26 31.1553ZM217.612 27.1025V35.5742H221.006V37.8691H217.612V49.1729H214.902V27.1025H217.612ZM239.219 27.1025V35.7207H242.49V37.9912H239.219V49.124H236.509V27.1025H239.219ZM233.384 29.3975C233.384 35.8916 230.698 41.5801 223.35 45.1934L221.812 43.0938C227.183 40.4204 230.088 36.6606 230.649 31.6436H223.008V29.3975H233.384ZM261.973 27.1025V49.1729H259.238V27.1025H261.973ZM255.381 29.4463C255.381 36.0137 252.842 41.6045 245.103 45.2666L243.687 43.0938C249.46 40.3472 252.146 36.6118 252.622 31.5947H244.81V29.4463H255.381ZM283.066 37.1367V39.2852H276.523V44.3389H285.312V46.5605H265.146V44.3389H273.838V39.2852H267.588V28.7383H282.896V30.9111H270.298V37.1367H283.066ZM309.971 27.1025V35.501H313.364V37.7959H309.971V49.1729H307.261V27.1025H309.971ZM296.152 28.9092V34.4268H301.353V28.9092H304.062V43.9971H293.467V28.9092H296.152ZM296.152 41.7754H301.353V36.5508H296.152V41.7754ZM334.434 38.5283V40.7256H314.268V38.5283H334.434ZM332.261 46.5361V48.7334H316.709V42.2881H319.419V46.5361H332.261ZM318.54 27.9326V30.3008H321.079V27.9326H323.618V36.8926H315.977V27.9326H318.54ZM318.54 34.7197H321.079V32.4004H318.54V34.7197ZM327.646 27.9326V30.3008H330.137V27.9326H332.725V36.8926H325.059V27.9326H327.646ZM327.646 34.7197H330.137V32.4004H327.646V34.7197ZM354.941 27.1025V49.1729H352.305V27.1025H354.941ZM350.303 27.542V48.0986H347.764V37.5029H343.516V35.2812H347.764V27.542H350.303ZM345.029 29.6904V31.8633H339.292V41.8486C341.904 41.8242 343.772 41.7144 345.933 41.2627L346.152 43.4844C343.662 43.9971 341.465 44.0947 338.12 44.1191H336.631V29.6904H345.029ZM361.802 45.2666L359.751 52.1025H357.432L358.701 45.2666H361.802ZM376.694 32.8887C376.694 36.4531 377.939 40.1641 380.918 42.0439L379.429 44.1191C377.439 42.9229 376.145 40.8599 375.425 38.4307C374.619 41.104 373.203 43.3623 371.128 44.6318L369.443 42.6055C372.642 40.6523 374.082 36.7705 374.082 33.0107V29.0557H376.694V32.8887ZM388.853 27.1025V49.1729H386.24V27.1025H388.853ZM384.263 27.4932V48.0986H381.699V36.9414H378.55V34.6953H381.699V27.4932H384.263ZM399.229 30.6182C399.229 33.4014 401.035 36.0137 404.429 37.0879L402.964 39.2119C400.583 38.4062 398.875 36.7949 397.935 34.7441C396.958 37.0879 395.176 38.9312 392.637 39.8223L391.172 37.6982C394.736 36.4531 396.494 33.5234 396.519 30.374V28.2744H399.229V30.6182ZM408.823 27.1025V32.4736H411.899V34.7197H408.823V40.3105H406.113V27.1025H408.823ZM401.646 40.7988C406.211 40.7744 409.019 42.3369 409.043 44.9492C409.019 47.6104 406.211 49.1484 401.646 49.1484C397.031 49.1484 394.175 47.6104 394.175 44.9492C394.175 42.3369 397.031 40.7744 401.646 40.7988ZM401.646 42.9229C398.618 42.9229 396.885 43.6553 396.885 44.9492C396.885 46.3164 398.618 47 401.646 47C404.673 47 406.357 46.3164 406.357 44.9492C406.357 43.6553 404.673 42.9229 401.646 42.9229ZM432.065 27.1025V49.1729H429.453V27.1025H432.065ZM427.524 27.4932V48.0986H424.937V37.6006H422.837C422.581 41.8975 420.737 44.5586 418.003 44.5342C415.122 44.5586 413.242 41.5068 413.242 36.6484C413.242 31.79 415.122 28.7871 418.003 28.7871C420.676 28.7871 422.495 31.2773 422.812 35.4033H424.937V27.4932H427.524ZM418.003 31.3506C416.611 31.3262 415.732 33.2061 415.757 36.6484C415.732 40.0908 416.611 41.9707 418.003 41.9463C419.468 41.9707 420.347 40.0908 420.347 36.6484C420.347 33.2061 419.468 31.3262 418.003 31.3506ZM452.891 28.7383V30.0566C452.866 31.5703 452.866 33.7432 452.354 36.5508L449.668 36.3066C450.095 34.0239 450.181 32.3394 450.229 30.9844H441.636V28.7383H452.891ZM447.324 33.7676V38.1621C449.607 38.0767 451.951 37.9058 454.087 37.6006L454.233 39.5537C449.644 40.3838 444.443 40.457 440.562 40.4814L440.317 38.3086C441.624 38.2964 443.088 38.2842 444.639 38.2598V33.7676H447.324ZM458.164 27.1025V33.9873H461.021V36.2578H458.164V43.6309H455.381V27.1025H458.164ZM458.872 46.5361V48.7334H443.613V42.166H446.348V46.5361H458.872ZM480.552 27.127V39.6025H477.817V27.127H480.552ZM480.552 40.7012V48.9043H465.903V40.7012H480.552ZM468.589 42.8496V46.707H477.891V42.8496H468.589ZM470.396 30.1055C470.396 32.9131 472.275 35.5498 475.718 36.6484L474.399 38.7236C471.848 37.9302 470.017 36.3066 469.028 34.1826C468.015 36.4653 466.16 38.2842 463.511 39.1631L462.168 37.0146C465.757 35.8672 467.588 33.0107 467.588 30.1055V27.957H470.396V30.1055ZM503.892 38.5039V40.6768H483.774V38.5039H503.892ZM501.621 46.5361V48.7334H486.265V42.3125H488.975V46.5361H501.621ZM493.809 27.8105C498.618 27.8105 501.743 29.4951 501.768 32.2783C501.743 35.0859 498.618 36.7949 493.809 36.7949C488.999 36.7949 485.85 35.0859 485.85 32.2783C485.85 29.4951 488.999 27.8105 493.809 27.8105ZM493.809 29.9834C490.61 29.9834 488.657 30.8135 488.682 32.2783C488.657 33.7676 490.61 34.5977 493.809 34.5732C497.031 34.5977 498.96 33.7676 498.96 32.2783C498.96 30.8135 497.031 29.9834 493.809 29.9834ZM531.455 39.6025V41.7998H522.666V49.1484H519.98V41.7998H511.289V39.6025H531.455ZM528.989 28.2256V37.0146H513.755V28.2256H528.989ZM516.416 30.3984V34.8906H526.279V30.3984H516.416ZM553.037 38.3574V40.5303H532.92V38.3574H553.037ZM550.767 46.5361V48.7334H535.41V42.3125H538.12V46.5361H550.767ZM544.37 28.5674C544.37 31.2529 547.422 33.9873 551.938 34.6953L550.84 36.8438C547.263 36.2334 544.395 34.4146 542.979 31.9854C541.562 34.4268 538.682 36.2456 535.093 36.8438L534.019 34.6953C538.535 33.9873 541.562 31.2773 541.587 28.5674V27.7129H544.37V28.5674ZM557.212 47.1953C556.162 47.1953 555.308 46.3408 555.308 45.291C555.308 44.2656 556.162 43.4111 557.212 43.4111C558.213 43.4111 559.092 44.2656 559.092 45.291C559.092 46.3408 558.213 47.1953 557.212 47.1953ZM564.023 47.1953C562.974 47.1953 562.119 46.3408 562.119 45.291C562.119 44.2656 562.974 43.4111 564.023 43.4111C565.024 43.4111 565.903 44.2656 565.903 45.291C565.903 46.3408 565.024 47.1953 564.023 47.1953ZM586.631 29.3486V31.4971H573.545V29.3486H578.745V26.9805H581.455V29.3486H586.631ZM580.088 32.376C583.286 32.376 585.459 34.0117 585.483 36.4043C585.459 38.8213 583.286 40.457 580.088 40.457C576.89 40.457 574.668 38.8213 574.668 36.4043C574.668 34.0117 576.89 32.376 580.088 32.376ZM580.088 34.4512C578.403 34.4512 577.305 35.1592 577.305 36.4043C577.305 37.6738 578.403 38.3574 580.088 38.3574C581.772 38.3574 582.896 37.6738 582.896 36.4043C582.896 35.1592 581.772 34.4512 580.088 34.4512ZM590.928 27.1025V33.1816H594.004V35.4521H590.928V42.5566H588.218V27.1025H590.928ZM585.337 41.6777C585.312 44.1924 588.047 46.4141 592.515 47L591.514 49.0508C588.035 48.5625 585.337 47.1099 583.994 44.998C582.651 47.1099 579.978 48.5625 576.499 49.0508L575.498 47C579.917 46.4141 582.627 44.1924 582.627 41.6777V41.3359H585.337V41.6777ZM619.419 27.1025V49.1973H616.685V27.1025H619.419ZM607.529 28.7139C610.85 28.7139 613.267 31.7412 613.291 36.502C613.267 41.3115 610.85 44.3145 607.529 44.3145C604.185 44.3145 601.768 41.3115 601.768 36.502C601.768 31.7412 604.185 28.7139 607.529 28.7139ZM607.529 31.1553C605.649 31.1553 604.38 33.1328 604.38 36.502C604.38 39.8955 605.649 41.873 607.529 41.873C609.385 41.873 610.654 39.8955 610.654 36.502C610.654 33.1328 609.385 31.1553 607.529 31.1553ZM642.808 39.4316V41.6289H638.071V49.2461H635.361V41.6289H630.21V49.2461H627.476V41.6289H622.642V39.4316H642.808ZM634.165 28.9336C634.165 31.7168 637.314 34.5977 641.953 35.208L640.879 37.4297C637.168 36.8438 634.177 34.9761 632.749 32.4492C631.296 34.9761 628.33 36.8438 624.595 37.4297L623.521 35.208C628.159 34.5732 631.309 31.7412 631.309 28.9336V27.8105H634.165V28.9336ZM655.479 29.0068V39.4316H645.029V29.0068H655.479ZM647.69 31.1797V37.2832H652.817V31.1797H647.69ZM661.68 27.1025V33.5723H664.756V35.8428H661.68V43.2158H658.97V27.1025H661.68ZM662.559 46.5361V48.7334H647.544V41.6533H650.254V46.5361H662.559ZM689.219 27.1025V31.5459H692.295V33.792H689.219V38.1865H686.509V27.1025H689.219ZM689.219 39.1387V44.9248H677.5V46.7559H689.902V48.9043H674.814V42.9473H686.509V41.2383H674.79V39.1387H689.219ZM677.915 27.835C681.284 27.835 683.75 29.8613 683.774 32.791C683.75 35.6719 681.284 37.7227 677.915 37.7227C674.546 37.7227 672.031 35.6719 672.056 32.791C672.031 29.8613 674.546 27.835 677.915 27.835ZM677.915 30.0322C676.06 30.0322 674.692 31.1064 674.717 32.791C674.692 34.4512 676.06 35.5742 677.915 35.5742C679.771 35.5742 681.138 34.4512 681.138 32.791C681.138 31.1064 679.771 30.0322 677.915 30.0322ZM704.746 28.958V30.7158H709.189V27.127H711.899V43.1914H709.189V37.625H704.746V39.5293H694.37V28.958H704.746ZM697.08 31.1064V37.4053H702.061V31.1064H697.08ZM712.388 46.5361V48.7334H697.349V41.7021H700.107V46.5361H712.388ZM704.746 35.4521H709.189V32.9375H704.746V35.4521ZM734.092 36.2578V38.4551H729.624V42.3125C731.553 42.2271 733.481 42.0928 735.312 41.8975L735.532 43.8994C730.674 44.6318 725.571 44.6807 721.396 44.6807L721.055 42.4346C722.874 42.4468 724.863 42.4468 726.914 42.3857V38.4551H722.593V29.1289H733.994V31.2773H725.278V36.2578H734.092ZM739.341 27.1025V49.1973H736.631V27.1025H739.341ZM750.889 33.377C750.889 36.9902 753.013 40.7988 756.577 42.2881L755.088 44.4365C752.476 43.3135 750.571 40.9941 749.57 38.1865C748.545 41.2139 746.616 43.7529 744.028 44.9736L742.466 42.8496C745.957 41.2383 748.13 37.1367 748.13 33.377V31.5215H743.271V29.2754H755.723V31.5215H750.889V33.377ZM760.923 27.1025V49.1729H758.188V27.1025H760.923Z" fill="black"/>
</svg>
