<svg width="631" height="77" viewBox="0 0 631 77" fill="none" xmlns="http://www.w3.org/2000/svg">
<rect x="0.5" y="0.5" width="630" height="76" rx="14.5" fill="white" stroke="black"/>
<path d="M242.893 47V29.3242H249.655C253.488 29.3242 255.393 31.2773 255.393 33.9141C255.393 36.0625 254.025 37.2588 252.292 37.6738V37.8447C254.172 37.9424 256.076 39.5049 256.076 42.1904C256.076 44.9492 254.099 47 250.046 47H242.893ZM249.558 44.3389C251.877 44.3389 252.854 43.3379 252.854 41.9463C252.854 40.3594 251.608 39.1387 249.631 39.1387H246.066V44.3389H249.558ZM249.265 36.8438C250.949 36.8438 252.219 35.8672 252.219 34.3047C252.219 32.9375 251.242 31.9609 249.338 31.9609H246.066V36.8438H249.265ZM260.446 47.1953C259.396 47.1953 258.542 46.3408 258.542 45.291C258.542 44.2656 259.396 43.4111 260.446 43.4111C261.447 43.4111 262.326 44.2656 262.326 45.291C262.326 46.3408 261.447 47.1953 260.446 47.1953ZM280.466 34.1826C280.319 32.6689 279.025 31.79 277.121 31.79C275.119 31.79 273.898 32.7666 273.898 34.085C273.898 35.5742 275.461 36.1846 276.926 36.5264L278.586 36.9658C281.223 37.5762 283.762 38.9678 283.762 42.0439C283.762 45.1445 281.32 47.2686 277.072 47.2686C272.946 47.2686 270.358 45.291 270.212 41.7998H273.337C273.483 43.6553 275.046 44.5586 277.048 44.5586C279.147 44.5586 280.588 43.5332 280.588 42.0195C280.588 40.6279 279.294 40.042 277.39 39.5537L275.388 39.041C272.482 38.2842 270.676 36.8193 270.676 34.2803C270.676 31.1553 273.459 29.0801 277.17 29.0801C280.93 29.0801 283.469 31.2041 283.518 34.1826H280.466ZM300.925 29.3242V47H298.093L289.719 34.915H289.572V47H286.398V29.3242H289.279L297.604 41.4092H297.775V29.3242H300.925ZM313.815 34.1826C313.669 32.6689 312.375 31.79 310.471 31.79C308.469 31.79 307.248 32.7666 307.248 34.085C307.248 35.5742 308.811 36.1846 310.275 36.5264L311.936 36.9658C314.572 37.5762 317.111 38.9678 317.111 42.0439C317.111 45.1445 314.67 47.2686 310.422 47.2686C306.296 47.2686 303.708 45.291 303.562 41.7998H306.687C306.833 43.6553 308.396 44.5586 310.397 44.5586C312.497 44.5586 313.938 43.5332 313.938 42.0195C313.938 40.6279 312.644 40.042 310.739 39.5537L308.737 39.041C305.832 38.2842 304.025 36.8193 304.025 34.2803C304.025 31.1553 306.809 29.0801 310.52 29.0801C314.279 29.0801 316.818 31.2041 316.867 34.1826H313.815ZM338.986 37.1123V39.1631H318.82V37.1123H338.986ZM336.545 40.4814V45.5107H323.898V47.0488H337.204V48.9287H321.188V43.7529H333.859V42.3857H321.164V40.4814H336.545ZM336.496 27.5908V32.5713H324.069V34.0117H336.887V35.8672H321.384V30.8135H333.786V29.4707H321.311V27.5908H336.496ZM357.956 28.8115C357.956 29.6904 357.895 30.5205 357.785 31.3262H362.155V27.127H364.865V43.4355H362.155V38.6748H356.906V36.4531H362.155V33.5234H357.248C356.015 37.0879 353.122 39.7246 347.873 41.4336L346.823 39.3096C350.217 38.2231 352.365 36.7949 353.635 35.0371L347.189 35.5742L346.774 33.4258L354.636 33.1084C354.88 32.4492 355.026 31.7412 355.1 31.0088H347.897V28.8115H357.956ZM365.427 46.5361V48.7334H350.485V41.8242H353.244V46.5361H365.427ZM385.275 27.1025V35.4766H388.669V37.6982H385.275V49.1973H382.565V27.1025H385.275ZM379.221 29.2021V31.3994H371.604V41.5312C375.034 41.5312 377.744 41.3604 380.783 40.8232L381.101 43.1182C377.683 43.7041 374.704 43.8018 370.725 43.8018H368.894V29.2021H379.221ZM392.282 47.1953C391.232 47.1953 390.378 46.3408 390.378 45.291C390.378 44.2656 391.232 43.4111 392.282 43.4111C393.283 43.4111 394.162 44.2656 394.162 45.291C394.162 46.3408 393.283 47.1953 392.282 47.1953Z" fill="black"/>
</svg>
