<svg width="631" height="77" viewBox="0 0 631 77" fill="none" xmlns="http://www.w3.org/2000/svg">
<rect x="0.5" y="0.5" width="630" height="76" rx="14.5" fill="white" stroke="black"/>
<path d="M84.7261 47V29.3242H91.4888C95.3218 29.3242 97.2261 31.2773 97.2261 33.9141C97.2261 36.0625 95.8589 37.2588 94.1255 37.6738V37.8447C96.0054 37.9424 97.9097 39.5049 97.9097 42.1904C97.9097 44.9492 95.9321 47 91.8794 47H84.7261ZM91.3911 44.3389C93.7104 44.3389 94.687 43.3379 94.687 41.9463C94.687 40.3594 93.4419 39.1387 91.4644 39.1387H87.8999V44.3389H91.3911ZM91.0981 36.8438C92.7827 36.8438 94.0522 35.8672 94.0522 34.3047C94.0522 32.9375 93.0757 31.9609 91.1714 31.9609H87.8999V36.8438H91.0981ZM102.28 47.1953C101.23 47.1953 100.375 46.3408 100.375 45.291C100.375 44.2656 101.23 43.4111 102.28 43.4111C103.281 43.4111 104.16 44.2656 104.16 45.291C104.16 46.3408 103.281 47.1953 102.28 47.1953ZM125.034 29.4219V31.5459H120.468C120.517 33.4502 122.263 35.147 125.522 35.7939L124.448 37.8936C121.921 37.3687 120.126 36.1846 119.15 34.5977C118.186 36.3311 116.379 37.6372 113.779 38.1865L112.631 36.0869C115.939 35.4399 117.697 33.5723 117.734 31.5459H113.193V29.4219H117.758V27.1514H120.468V29.4219H125.034ZM130.234 27.127V49.1484H127.548V27.127H130.234ZM111.801 39.334C115.903 39.334 121.396 39.3096 126.108 38.7236L126.303 40.6768C124.399 41.0063 122.421 41.2139 120.493 41.3359V48.4893H117.758V41.4824C115.744 41.5679 113.828 41.5801 112.143 41.5801L111.801 39.334ZM153.793 30.5449V32.7666H150.791V35.2812H153.793V37.5029H150.791V41.1895H148.081V27.1025H150.791V30.5449H153.793ZM143.662 41.3848C148.178 41.3848 151.035 42.8252 151.035 45.2666C151.035 47.6836 148.178 49.1484 143.662 49.1484C139.072 49.1484 136.264 47.6836 136.289 45.2666C136.264 42.8252 139.072 41.3848 143.662 41.3848ZM143.662 43.46C140.634 43.46 138.95 44.0459 138.974 45.2666C138.95 46.4385 140.634 47.0977 143.662 47.0977C146.64 47.0977 148.325 46.4385 148.325 45.2666C148.325 44.0459 146.64 43.46 143.662 43.46ZM146.494 29.3486V31.4727H133.408V29.3486H138.608V26.9561H141.318V29.3486H146.494ZM139.951 32.3516C143.149 32.3516 145.322 33.9385 145.346 36.3066C145.322 38.6748 143.149 40.2373 139.951 40.2373C136.728 40.2373 134.531 38.6748 134.531 36.3066C134.531 33.9385 136.728 32.3516 139.951 32.3516ZM139.951 34.3535C138.266 34.3535 137.167 35.0859 137.167 36.3066C137.167 37.5029 138.266 38.1865 139.951 38.1865C141.635 38.1865 142.758 37.5029 142.758 36.3066C142.758 35.0859 141.635 34.3535 139.951 34.3535ZM173.374 27.127V43.0693H170.639V27.127H173.374ZM173.984 46.5361V48.7334H158.774V41.458H161.508V46.5361H173.984ZM161.337 28.5674C164.682 28.5674 167.27 30.8867 167.27 34.085C167.27 37.3564 164.682 39.627 161.337 39.627C157.968 39.627 155.38 37.3564 155.38 34.085C155.38 30.8867 157.968 28.5674 161.337 28.5674ZM161.337 30.9355C159.458 30.9355 158.017 32.1807 158.042 34.085C158.017 36.0381 159.458 37.2588 161.337 37.2588C163.168 37.2588 164.609 36.0381 164.609 34.085C164.609 32.1807 163.168 30.9355 161.337 30.9355ZM191.879 29.4951V35.2324H194.443V27.4932H197.031V48.0986H194.443V37.4297H191.879V43.4844H183.212V29.4951H191.879ZM185.751 31.6436V41.3359H189.34V31.6436H185.751ZM201.572 27.1025V49.1729H198.959V27.1025H201.572ZM221.958 34.2314V36.4287H206.625V28.1523H209.335V34.2314H221.958ZM224.252 39.1387V41.3359H219.418V49.1729H216.684V41.3359H211.704V49.1729H208.994V41.3359H204.135V39.1387H224.252ZM239.584 29.3242V47H236.386V32.4248H236.289L232.163 35.0615V32.1562L236.533 29.3242H239.584ZM262.094 27.1025V49.1729H259.482V37.8447H257.114V48.1475H254.575V27.6885H257.114V35.6475H259.482V27.1025H262.094ZM252.695 29.8857C252.695 35.8428 250.815 40.9697 244.541 44.5586L242.978 42.6787C247.678 39.9565 249.667 36.4653 250.058 32.0586H244.003V29.8857H252.695ZM284.897 37.1123V39.1631H264.731V37.1123H284.897ZM282.456 40.4814V45.5107H269.809V47.0488H283.115V48.9287H267.099V43.7529H279.77V42.3857H267.075V40.4814H282.456ZM282.407 27.5908V32.5713H269.98V34.0117H282.797V35.8672H267.294V30.8135H279.697V29.4707H267.221V27.5908H282.407ZM300.229 31.6191C300.229 33.9873 302.011 36.3066 305.478 37.2344L304.257 39.3096C301.694 38.6382 299.887 37.1733 298.911 35.2812C297.922 37.3564 296.066 38.9678 293.466 39.7246L292.172 37.5762C295.664 36.6484 297.519 34.207 297.519 31.6191V31.5459H292.905V29.3975H297.519V27.0049H300.253V29.3975H304.843V31.5459H300.229V31.6191ZM309.702 27.1025V32.2295H312.778V34.4756H309.702V39.749H306.992V27.1025H309.702ZM310.019 40.7744V42.9473H304.184C304.697 44.7783 307.175 46.4873 310.947 47.0244L309.97 49.0996C306.516 48.6113 303.903 47.1343 302.622 45.1201C301.352 47.1221 298.764 48.5625 295.346 49.0508L294.345 47C298.129 46.4751 300.583 44.8271 301.108 42.9473H295.249V40.7744H310.019ZM323.935 28.3477C328.598 28.3477 332.163 30.8135 332.163 34.5732C332.163 38.3818 328.598 40.8477 323.935 40.8477C319.296 40.8477 315.732 38.3818 315.756 34.5732C315.732 30.8135 319.296 28.3477 323.935 28.3477ZM323.935 30.5449C320.737 30.5205 318.369 32.1318 318.369 34.5732C318.369 37.0635 320.737 38.626 323.935 38.626C327.158 38.626 329.501 37.0635 329.501 34.5732C329.501 32.1318 327.158 30.5205 323.935 30.5449ZM334.067 44.168V46.3896H313.901V44.168H334.067ZM346.835 28.958V30.7158H351.279V27.127H353.989V43.1914H351.279V37.625H346.835V39.5293H336.459V28.958H346.835ZM339.169 31.1064V37.4053H344.15V31.1064H339.169ZM354.477 46.5361V48.7334H339.438V41.7021H342.197V46.5361H354.477ZM346.835 35.4521H351.279V32.9375H346.835V35.4521ZM380.6 29.251V31.7412C380.6 34.6953 380.6 37.7471 379.794 42.3857L377.036 42.1416C377.89 37.7959 377.89 34.5977 377.89 31.7412V31.4482H365.17V29.251H380.6ZM383.164 43.9238V46.1455H363.046V43.9238H383.164ZM403.134 27.127V41.8486H400.424V35.3057H396.225V33.084H400.424V27.127H403.134ZM396.079 28.8359C396.054 34.6709 392.685 38.6748 386.118 40.7256L384.946 38.6016C390.024 37.0757 392.685 34.4268 393.149 31.0088H386.093V28.8359H396.079ZM397.128 40.9697C397.104 43.7041 399.838 46.1943 404.233 46.9023L403.134 49.0508C399.716 48.4648 397.08 46.8535 395.761 44.5586C394.406 46.8535 391.757 48.4771 388.339 49.0752L387.265 46.9268C391.684 46.2676 394.418 43.7041 394.418 40.9697V40.1152H397.128V40.9697ZM417.465 29.0068V39.4316H407.016V29.0068H417.465ZM409.677 31.1797V37.2832H414.804V31.1797H409.677ZM423.667 27.1025V33.5723H426.743V35.8428H423.667V43.2158H420.957V27.1025H423.667ZM424.545 46.5361V48.7334H409.531V41.6533H412.241V46.5361H424.545ZM452.109 27.957V30.1055H445.737C446.066 31.9854 448.776 33.7065 452.963 34.1338L451.962 36.2578C447.995 35.8306 445.029 34.2314 443.833 31.9854C442.636 34.2314 439.707 35.8306 435.727 36.2578L434.775 34.1338C438.913 33.7065 441.586 31.9731 441.953 30.1055H435.629V27.957H452.109ZM453.916 37.332V39.5293H445.175V41.8975H451.45V49.1729H448.74V44.0947H436.02V41.8975H442.49V39.5293H433.798V37.332H453.916ZM461.435 28.7139C464.426 28.7139 466.635 31.2041 467.026 35.2324H471.225V27.1025H473.911V49.1973H471.225V37.4297H467.05C466.757 41.6899 464.511 44.3145 461.435 44.3145C458.115 44.3145 455.771 41.3115 455.771 36.502C455.771 31.7412 458.115 28.7139 461.435 28.7139ZM461.435 31.1553C459.604 31.1553 458.359 33.1328 458.383 36.502C458.359 39.8955 459.604 41.873 461.435 41.873C463.266 41.873 464.487 39.8955 464.511 36.502C464.487 33.1328 463.266 31.1553 461.435 31.1553ZM494.296 27.1025V35.5742H497.69V37.8447H494.296V49.1973H491.611V27.1025H494.296ZM488.046 29.0312V37.3564H480.625V41.751C484.116 41.7266 486.838 41.5801 489.926 41.043L490.17 43.2402C486.777 43.8506 483.75 43.9971 479.746 43.9971H477.939V35.1836H485.336V31.2285H477.89V29.0312H488.046ZM516.977 29.0312V31.2041H515.048V37.7227C516.013 37.6616 516.953 37.564 517.856 37.4541L518.051 39.4561C513.608 40.1885 508.53 40.2861 504.794 40.2861L504.501 38.0889L507.041 38.0645V31.2041H505.087V29.0312H516.977ZM521.958 27.127V33.499H525.034V35.7695H521.958V43.3623H519.248V27.127H521.958ZM522.836 46.5361V48.7334H507.822V41.8242H510.532V46.5361H522.836ZM509.653 37.9912C510.556 37.979 511.484 37.9424 512.412 37.8936V31.2041H509.653V37.9912ZM543.442 27.1025V35.4766H546.835V37.6982H543.442V49.1973H540.732V27.1025H543.442ZM537.387 29.2021V31.3994H529.77V41.5312C533.2 41.5312 535.91 41.3604 538.95 40.8232L539.267 43.1182C535.849 43.7041 532.871 43.8018 528.891 43.8018H527.06V29.2021H537.387ZM550.449 47.1953C549.399 47.1953 548.544 46.3408 548.544 45.291C548.544 44.2656 549.399 43.4111 550.449 43.4111C551.45 43.4111 552.329 44.2656 552.329 45.291C552.329 46.3408 551.45 47.1953 550.449 47.1953Z" fill="black"/>
</svg>
