<svg width="996" height="77" viewBox="0 0 996 77" fill="none" xmlns="http://www.w3.org/2000/svg">
<rect x="0.5" y="0.5" width="995" height="76" rx="14.5" fill="white" stroke="black"/>
<path d="M184.047 47V29.3242H190.81C194.643 29.3242 196.547 31.2773 196.547 33.9141C196.547 36.0625 195.18 37.2588 193.447 37.6738V37.8447C195.327 37.9424 197.231 39.5049 197.231 42.1904C197.231 44.9492 195.253 47 191.201 47H184.047ZM190.712 44.3389C193.032 44.3389 194.008 43.3379 194.008 41.9463C194.008 40.3594 192.763 39.1387 190.786 39.1387H187.221V44.3389H190.712ZM190.419 36.8438C192.104 36.8438 193.374 35.8672 193.374 34.3047C193.374 32.9375 192.397 31.9609 190.493 31.9609H187.221V36.8438H190.419ZM201.601 47.1953C200.551 47.1953 199.697 46.3408 199.697 45.291C199.697 44.2656 200.551 43.4111 201.601 43.4111C202.602 43.4111 203.481 44.2656 203.481 45.291C203.481 46.3408 202.602 47.1953 201.601 47.1953ZM219.472 31.5947C219.472 34.3291 221.352 37.0146 224.868 38.1133L223.476 40.2373C220.974 39.4194 219.155 37.7715 218.154 35.6719C217.153 37.9546 215.285 39.7734 212.661 40.6768L211.269 38.5283C214.809 37.3564 216.713 34.5 216.738 31.5947V30.96H211.977V28.7871H224.111V30.96H219.472V31.5947ZM229.482 27.127V43.1426H226.748V27.127H229.482ZM230.092 46.5361V48.7334H214.882V41.6777H217.617V46.5361H230.092ZM250.649 27.1025V35.5742H253.334V37.8447H250.649V49.1729H247.939V27.1025H250.649ZM238.1 33.0107C238.1 35.5376 238.369 38.748 239.956 41.0918C241.494 38.7725 241.787 35.5864 241.787 33.0107V31.3262H240.371V29.1289H246.523V31.3262H244.375V33.0107C244.375 36.5264 244.912 40.5059 247.67 42.5322L245.937 44.4854C244.448 43.3379 243.557 41.5679 243.032 39.5049C242.495 41.6167 241.542 43.4966 239.931 44.6807C238.344 43.4966 237.404 41.6045 236.879 39.5049C236.342 41.5557 235.451 43.3379 233.974 44.4854L232.241 42.5322C235 40.4814 235.537 36.4531 235.537 33.0107V31.3262H233.071V29.1289H239.516V31.3262H238.1V33.0107ZM258.046 41.5801C258.071 38.4795 258.95 37.5273 260.488 36.5752C261.538 35.916 262.319 35.0859 262.319 33.8652C262.319 32.498 261.269 31.6191 259.926 31.6191C258.706 31.6191 257.534 32.4004 257.46 34.0361H254.409C254.482 30.7646 256.948 29.0801 259.951 29.0801C263.247 29.0801 265.517 30.9111 265.517 33.8164C265.517 35.7939 264.516 37.0879 262.929 38.04C261.513 38.8945 260.927 39.749 260.903 41.5801V41.7998H258.046V41.5801ZM259.56 47.1953C258.51 47.1953 257.656 46.3408 257.656 45.291C257.656 44.2656 258.51 43.4111 259.56 43.4111C260.561 43.4111 261.44 44.2656 261.44 45.291C261.44 46.3408 260.561 47.1953 259.56 47.1953ZM292.202 27.1025V49.1729H289.614V37.918H287.124V48.0498H284.633V27.5176H287.124V35.7451H289.614V27.1025H292.202ZM282.143 29.7148V31.9121H276.625V41.7266C279.03 41.7021 281.008 41.5801 283.242 41.165L283.437 43.3867C280.776 43.9238 278.457 43.9971 275.38 44.0215H273.891V29.7148H282.143ZM312.221 27.1025V32.6201H315.297V34.8418H312.221V40.3838H309.511V27.1025H312.221ZM312.221 41.4092V49.1729H309.511V43.582H297.524V41.4092H312.221ZM298.256 28.4941V31.6191H303.408V28.4941H306.093V39.0898H295.571V28.4941H298.256ZM298.256 36.9414H303.408V33.7432H298.256V36.9414ZM320.961 29.3242L320.693 41.7998H317.934L317.641 29.3242H320.961ZM319.326 47.1953C318.276 47.1953 317.421 46.3408 317.421 45.291C317.421 44.2656 318.276 43.4111 319.326 43.4111C320.327 43.4111 321.206 44.2656 321.206 45.291C321.206 46.3408 320.327 47.1953 319.326 47.1953ZM347.988 27.127V43.3135H345.253V27.127H347.988ZM348.598 46.5361V48.7334H333.388V41.8486H336.123V46.5361H348.598ZM337.978 32.2539C337.978 34.8662 339.882 37.3564 343.398 38.3574L342.104 40.5059C339.528 39.749 337.685 38.1865 336.684 36.1846C335.683 38.3574 333.815 40.0664 331.191 40.8721L329.873 38.748C333.413 37.6738 335.268 35.0371 335.268 32.2539V31.9609H330.556V29.8125H335.268V27.2246H338.002V29.8125H342.69V31.9609H337.978V32.2539ZM368.862 28.4453V30.4229C368.862 32.4858 368.862 34.7441 368.276 37.8691H371.328V40.0664H362.563V49.1973H359.829V40.0664H351.21V37.8691H365.517C366.127 34.8662 366.152 32.6201 366.152 30.6426H353.579V28.4453H368.862ZM392.958 35.9404V38.0889H372.817V35.9404H392.958ZM390.566 32.376V34.5244H375.38V27.6641H390.371V29.8369H378.09V32.376H390.566ZM390.419 39.6025V45.1445H377.871V46.8291H391.03V48.9531H375.209V43.1914H387.758V41.6533H375.185V39.6025H390.419ZM411.831 27.127V34.0605H414.907V36.3066H411.831V43.6064H409.121V27.127H411.831ZM407.534 29.5684V31.7412H394.448V29.5684H399.648V27.1025H402.358V29.5684H407.534ZM400.991 32.6445C404.165 32.6445 406.362 34.3291 406.386 36.8682C406.362 39.3828 404.165 41.043 400.991 41.043C397.792 41.043 395.571 39.3828 395.571 36.8682C395.571 34.3291 397.792 32.6445 400.991 32.6445ZM400.991 34.7441C399.306 34.7441 398.208 35.5254 398.208 36.8682C398.208 38.1865 399.306 38.9678 400.991 38.9434C402.675 38.9678 403.798 38.1865 403.798 36.8682C403.798 35.5254 402.675 34.7441 400.991 34.7441ZM412.709 46.5361V48.7334H397.695V42.3125H400.405V46.5361H412.709ZM425.014 29.6416V31.79H419.35V35.5742H424.086V37.6738H419.35V41.9463C421.975 41.9219 423.781 41.7998 425.942 41.4336L426.186 43.6064C423.647 44.0947 421.547 44.1436 418.203 44.1436H416.762V29.6416H425.014ZM435.073 27.1025V49.1729H432.436V27.1025H435.073ZM430.434 27.542V48.0986H427.895V37.4541H425.161V35.2568H427.895V27.542H430.434ZM453.505 40.8965C458.291 40.9209 461.318 42.4346 461.342 45.0469C461.318 47.6104 458.291 49.1484 453.505 49.1484C448.745 49.1484 445.693 47.6104 445.693 45.0469C445.693 42.4346 448.745 40.9209 453.505 40.8965ZM453.505 42.9473C450.332 42.9473 448.403 43.7041 448.427 45.0469C448.403 46.3408 450.332 47.0488 453.505 47.0488C456.704 47.0488 458.632 46.3408 458.657 45.0469C458.632 43.7041 456.704 42.9473 453.505 42.9473ZM461.196 28.1523V29.9834C461.196 31.7168 461.196 33.5723 460.585 35.8428L457.9 35.5986C458.449 33.4502 458.486 31.8999 458.486 30.3008H445.913V28.1523H461.196ZM463.637 37.1123V39.3096H443.618V37.1123H451.381V33.1084H454.067V37.1123H463.637ZM485.317 39.4805V41.6777H480.41V49.1729H477.651V41.6777H472.768V49.1729H469.985V41.6777H465.151V39.4805H485.317ZM475.185 27.8838C479.873 27.9082 483.144 29.8125 483.144 32.8154C483.144 35.7695 479.873 37.6494 475.185 37.6494C470.473 37.6494 467.25 35.7695 467.275 32.8154C467.25 29.8125 470.473 27.9082 475.185 27.8838ZM475.185 30.0811C472.06 30.0811 470.034 31.082 470.058 32.8154C470.034 34.5 472.06 35.501 475.185 35.501C478.31 35.501 480.336 34.5 480.336 32.8154C480.336 31.082 478.31 30.0811 475.185 30.0811ZM497.548 30.6182V32.791H486.733V30.6182H490.834V27.7373H493.52V30.6182H497.548ZM492.177 33.9629C494.985 33.9629 496.987 36.0869 496.987 39.0898C496.987 42.1416 494.985 44.29 492.177 44.29C489.394 44.29 487.343 42.1416 487.368 39.0898C487.343 36.0869 489.394 33.9629 492.177 33.9629ZM492.177 36.209C490.737 36.209 489.736 37.3564 489.76 39.0898C489.736 40.8721 490.737 41.9951 492.177 41.9707C493.593 41.9951 494.594 40.8721 494.594 39.0898C494.594 37.3564 493.593 36.209 492.177 36.209ZM505.751 27.1025V49.1729H503.164V38.3818H501.015V48.1719H498.476V27.5664H501.015V36.1846H503.164V27.1025H505.751ZM514.321 28.7139C517.641 28.7139 520.034 31.7412 520.058 36.502C520.034 41.3115 517.641 44.3145 514.321 44.3145C510.976 44.3145 508.559 41.3115 508.583 36.502C508.559 31.7412 510.976 28.7139 514.321 28.7139ZM514.321 31.1553C512.465 31.1553 511.196 33.1328 511.196 36.502C511.196 39.8955 512.465 41.873 514.321 41.873C516.201 41.873 517.446 39.8955 517.446 36.502C517.446 33.1328 516.201 31.1553 514.321 31.1553ZM528.945 32.376V34.6465H525.673V38.8945H528.945V41.1162H525.673V49.1729H522.963V27.1025H525.673V32.376H528.945ZM538.32 33.377C538.32 36.9902 540.444 40.7988 544.008 42.2881L542.519 44.4365C539.907 43.3135 538.002 40.9941 537.001 38.1865C535.976 41.2139 534.047 43.7529 531.459 44.9736L529.897 42.8496C533.388 41.2383 535.561 37.1367 535.561 33.377V31.5215H530.703V29.2754H543.154V31.5215H538.32V33.377ZM548.354 27.1025V49.1729H545.62V27.1025H548.354ZM559.145 37.5029C559.951 36.624 560.976 36.1602 562.099 36.1602C564.052 36.1602 565.737 37.5273 567.69 37.5273C568.813 37.5273 569.79 37.0635 570.571 36.1357V38.7969C569.765 39.7002 568.74 40.1396 567.617 40.1396C565.664 40.1396 563.955 38.7725 562.026 38.7725C560.903 38.7725 559.926 39.2363 559.145 40.1641V37.5029ZM598.452 27.127V40.6035H595.864V34.9639H593.837V40.4814H591.298V27.4199H593.837V32.7422H595.864V27.127H598.452ZM598.452 41.5801V49.1729H595.742V43.7529H583.022V41.5801H598.452ZM590.078 28.9336V31.1797H588.491V37.1123C589.162 37.0635 589.797 37.0024 590.395 36.917L590.517 38.9434C587.075 39.5781 582.534 39.6514 579.702 39.6514L579.409 37.4297L581.386 37.4053V31.1797H579.824V28.9336H590.078ZM583.876 37.3564L586.025 37.2832V31.1797H583.876V37.3564ZM619.13 38.6748V40.8232H603.652V28.8359H618.935V31.0332H606.411V33.6943H618.422V35.8184H606.411V38.6748H619.13ZM621.352 44.2656V46.4873H601.186V44.2656H621.352ZM635.463 33.8408C635.463 37.2588 636.879 40.7012 639.956 42.3613L638.442 44.3633C636.391 43.2769 635 41.3359 634.218 39.0166C633.437 41.519 632.045 43.6553 629.97 44.876L628.383 42.8252C631.508 41.0186 632.9 37.332 632.9 33.8408V33.1572H629.14V30.96H632.9V27.8838H635.463V30.96H639.15V33.1572H635.463V33.8408ZM647.719 27.1025V49.1729H645.131V27.1025H647.719ZM643.227 27.5176V48.0986H640.664V37.8203H637.783V35.5742H640.664V27.5176H643.227ZM668.227 29.1533V31.79C668.227 34.9883 668.227 38.04 667.25 42.7031L664.541 42.459C664.992 40.5303 665.249 38.8335 665.395 37.2588L652.382 37.9424L652.016 35.7451L665.517 35.2324C665.566 34.0483 665.566 32.9131 665.566 31.79V31.3506H652.675V29.1533H668.227ZM670.449 44.1436V46.3652H650.332V44.1436H670.449ZM690.981 27.1025V49.1729H688.369V27.1025H690.981ZM686.44 27.4932V48.0986H683.852V37.6006H681.752C681.496 41.8975 679.653 44.5586 676.918 44.5342C674.038 44.5586 672.158 41.5068 672.158 36.6484C672.158 31.79 674.038 28.7871 676.918 28.7871C679.592 28.7871 681.411 31.2773 681.728 35.4033H683.852V27.4932H686.44ZM676.918 31.3506C675.527 31.3262 674.648 33.2061 674.672 36.6484C674.648 40.0908 675.527 41.9707 676.918 41.9463C678.383 41.9707 679.262 40.0908 679.262 36.6484C679.262 33.2061 678.383 31.3262 676.918 31.3506ZM711.416 33.3525V35.501H696.132V27.9082H698.818V33.3525H711.416ZM713.686 38.0645V40.2129H693.52V38.0645H713.686ZM711.562 46.4629V48.6602H695.937V42.166H698.647V46.4629H711.562ZM733.413 28.7383V30.0566C733.388 31.5703 733.388 33.7432 732.875 36.5508L730.19 36.3066C730.617 34.0239 730.703 32.3394 730.751 30.9844H722.158V28.7383H733.413ZM727.846 33.7676V38.1621C730.129 38.0767 732.473 37.9058 734.609 37.6006L734.755 39.5537C730.166 40.3838 724.965 40.457 721.083 40.4814L720.839 38.3086C722.146 38.2964 723.61 38.2842 725.161 38.2598V33.7676H727.846ZM738.686 27.1025V33.9873H741.542V36.2578H738.686V43.6309H735.903V27.1025H738.686ZM739.394 46.5361V48.7334H724.135V42.166H726.87V46.5361H739.394ZM761.074 27.127V39.6025H758.339V27.127H761.074ZM761.074 40.7012V48.9043H746.425V40.7012H761.074ZM749.111 42.8496V46.707H758.413V42.8496H749.111ZM750.917 30.1055C750.917 32.9131 752.797 35.5498 756.24 36.6484L754.921 38.7236C752.37 37.9302 750.539 36.3066 749.55 34.1826C748.537 36.4653 746.682 38.2842 744.033 39.1631L742.69 37.0146C746.279 35.8672 748.11 33.0107 748.11 30.1055V27.957H750.917V30.1055ZM775.234 40.0176V42.3857H778.139V40.0176H780.654V47.0244C783.242 45.938 784.438 43.7041 784.438 41.6045V39.8467H787.148V41.6045C787.148 43.8994 788.32 46.1211 791.054 47.0488L789.663 49.0752C787.722 48.3794 786.464 47.0366 785.781 45.3643C785.036 46.9878 783.779 48.3306 781.948 49.0752L780.654 47.1465V48.9043H772.695V40.0176H775.234ZM775.234 46.8291H778.139V44.4121H775.234V46.8291ZM776.357 28.0059C779.201 28.0059 781.447 29.5928 782.021 31.9854H786V27.1025H788.71V38.7969H786V34.2314H782.021C781.484 36.6851 779.213 38.3086 776.357 38.3086C772.963 38.3086 770.522 36.1846 770.522 33.1328C770.522 30.1055 772.963 28.0059 776.357 28.0059ZM776.357 30.252C774.453 30.252 773.11 31.375 773.11 33.1328C773.11 34.915 774.453 36.0869 776.357 36.0869C778.212 36.0869 779.531 34.915 779.555 33.1328C779.531 31.375 778.212 30.252 776.357 30.252ZM809.121 27.1025V35.4766H812.514V37.6982H809.121V49.1973H806.411V27.1025H809.121ZM803.066 29.2021V31.3994H795.449V41.5312C798.879 41.5312 801.589 41.3604 804.628 40.8232L804.946 43.1182C801.528 43.7041 798.549 43.8018 794.57 43.8018H792.739V29.2021H803.066ZM816.127 47.1953C815.078 47.1953 814.223 46.3408 814.223 45.291C814.223 44.2656 815.078 43.4111 816.127 43.4111C817.128 43.4111 818.007 44.2656 818.007 45.291C818.007 46.3408 817.128 47.1953 816.127 47.1953Z" fill="black"/>
</svg>
