<svg width="880" height="77" viewBox="0 0 880 77" fill="none" xmlns="http://www.w3.org/2000/svg">
<rect x="0.5" y="0.5" width="879" height="76" rx="14.5" fill="current" stroke="black"/>
<path d="M157.261 48V30.3242H164.024C167.857 30.3242 169.761 32.2773 169.761 34.9141C169.761 37.0625 168.394 38.2588 166.661 38.6738V38.8447C168.541 38.9424 170.445 40.5049 170.445 43.1904C170.445 45.9492 168.467 48 164.415 48H157.261ZM163.926 45.3389C166.246 45.3389 167.222 44.3379 167.222 42.9463C167.222 41.3594 165.977 40.1387 164 40.1387H160.435V45.3389H163.926ZM163.633 37.8438C165.318 37.8438 166.587 36.8672 166.587 35.3047C166.587 33.9375 165.611 32.9609 163.707 32.9609H160.435V37.8438H163.633ZM174.815 48.1953C173.765 48.1953 172.911 47.3408 172.911 46.291C172.911 45.2656 173.765 44.4111 174.815 44.4111C175.816 44.4111 176.695 45.2656 176.695 46.291C176.695 47.3408 175.816 48.1953 174.815 48.1953ZM204.429 40.4072V42.6045H195.665V50.1484H192.979V42.6045H184.312V40.4072H204.429ZM202.574 29.3477V31.4961H195.958C196.116 33.9131 199.021 36.2324 203.379 36.7939L202.403 38.918C198.643 38.3931 195.713 36.6719 194.371 34.2793C193.028 36.6719 190.098 38.3931 186.387 38.918L185.362 36.7939C189.695 36.2324 192.601 33.9131 192.808 31.4961H186.167V29.3477H202.574ZM226.084 45.3633V47.6094H205.918V45.3633H214.61V41.7744H208.311V34.5479H221.006V31.8135H208.262V29.6162H223.692V36.6963H211.021V39.5527H224.205V41.7744H217.295V45.3633H226.084ZM253.599 38.6738V40.8467H233.458V38.6738H242.198V36.5742H235.923V29.1035H251.158V31.2275H238.633V34.4258H251.28V36.5742H244.859V38.6738H253.599ZM243.492 42.1162C248.252 42.1162 251.109 43.5566 251.133 46.1445C251.109 48.708 248.252 50.1729 243.492 50.1729C238.682 50.1729 235.801 48.708 235.801 46.1445C235.801 43.5566 238.682 42.1162 243.492 42.1162ZM243.492 44.1914C240.269 44.1914 238.536 44.875 238.56 46.1445C238.536 47.4141 240.269 48.0732 243.492 48.0732C246.641 48.0732 248.399 47.4141 248.423 46.1445C248.399 44.875 246.641 44.1914 243.492 44.1914ZM261.192 29.3477C262.974 29.3477 264.512 30.0068 265.562 31.1055H270.835V28.1025H273.545V41.0908H270.835V38.2832H265.562C264.512 39.3818 262.962 40.0288 261.192 40.0166C257.872 40.041 255.357 37.7949 255.357 34.6943C255.357 31.5693 257.872 29.3477 261.192 29.3477ZM261.192 31.667C259.288 31.667 257.945 32.8389 257.945 34.6943C257.945 36.501 259.288 37.7217 261.192 37.7217C263.023 37.7217 264.366 36.501 264.39 34.6943C264.366 32.8389 263.023 31.667 261.192 31.667ZM266.075 41.5547C270.713 41.5547 273.619 43.1416 273.619 45.8516C273.619 48.5615 270.713 50.1484 266.075 50.1484C261.46 50.1484 258.555 48.5615 258.58 45.8516C258.555 43.1416 261.46 41.5547 266.075 41.5547ZM266.075 43.6299C262.999 43.6299 261.216 44.4111 261.241 45.8516C261.216 47.2432 262.999 48.0244 266.075 48.0244C269.2 48.0244 270.958 47.2432 270.958 45.8516C270.958 44.4111 269.2 43.6299 266.075 43.6299ZM266.783 33.2783C266.905 33.73 266.978 34.1938 266.978 34.6943C266.978 35.1826 266.905 35.6465 266.807 36.0859H270.835V33.2783H266.783ZM284.483 31.6182C284.483 34.4014 286.29 37.0137 289.683 38.0879L288.218 40.2119C285.838 39.4062 284.129 37.7949 283.189 35.7441C282.212 38.0879 280.43 39.9312 277.891 40.8223L276.426 38.6982C279.991 37.4531 281.749 34.5234 281.773 31.374V29.2744H284.483V31.6182ZM294.078 28.1025V33.4736H297.154V35.7197H294.078V41.3105H291.368V28.1025H294.078ZM286.9 41.7988C291.465 41.7744 294.273 43.3369 294.297 45.9492C294.273 48.6104 291.465 50.1484 286.9 50.1484C282.286 50.1484 279.429 48.6104 279.429 45.9492C279.429 43.3369 282.286 41.7744 286.9 41.7988ZM286.9 43.9229C283.873 43.9229 282.139 44.6553 282.139 45.9492C282.139 47.3164 283.873 48 286.9 48C289.927 48 291.612 47.3164 291.612 45.9492C291.612 44.6553 289.927 43.9229 286.9 43.9229ZM308.311 28.4443C313.34 28.4443 316.246 29.7871 316.27 32.2285C316.246 34.6943 313.34 36.0127 308.311 36.0371C303.282 36.0127 300.352 34.6943 300.352 32.2285C300.352 29.7871 303.282 28.4443 308.311 28.4443ZM308.311 30.4463C304.942 30.4463 303.184 31.0811 303.208 32.2285C303.184 33.4492 304.942 34.0107 308.311 34.0107C311.729 34.0107 313.462 33.4492 313.462 32.2285C313.462 31.0811 311.729 30.4463 308.311 30.4463ZM318.394 37.209V39.3818H298.277V37.209H318.394ZM315.879 40.8711V46.2666H303.331V47.9023H316.49V49.9775H300.669V44.3379H313.218V42.873H300.645V40.8711H315.879ZM333.848 32.0088C333.848 34.9385 335.606 37.7949 339.024 38.9668L337.535 41.0908C335.154 40.1875 333.445 38.4663 332.53 36.3057C331.565 38.7227 329.771 40.6392 327.183 41.6035L325.743 39.4551C329.283 38.2588 331.089 35.207 331.114 31.9844V29.4697H333.848V32.0088ZM344.297 28.127V44.5088H341.587V35.207H337.193V32.9854H341.587V28.127H344.297ZM344.786 47.5361V49.7334H329.747V42.7266H332.505V47.5361H344.786ZM366.563 31.0566V33.2539H348.326V31.0566H356.114V28.3955H358.799V31.0566H366.563ZM367.588 45.6074V47.8047H347.422V45.6074H356.114V42.8975C352.293 42.5923 349.986 41.0664 350.01 38.625C349.986 35.9639 352.842 34.377 357.457 34.377C361.998 34.377 364.878 35.9639 364.878 38.625C364.878 41.0542 362.559 42.5801 358.799 42.873V45.6074H367.588ZM357.457 36.501C354.454 36.5254 352.769 37.2334 352.793 38.625C352.769 40.041 354.454 40.749 357.457 40.7734C360.411 40.749 362.095 40.041 362.095 38.625C362.095 37.2334 360.411 36.5254 357.457 36.501ZM386.314 28.1025V36.8916H389.708V39.1377H386.314V50.1729H383.628V28.1025H386.314ZM381.919 31.4961V33.6689H368.907V31.4961H374.131V28.4199H376.841V31.4961H381.919ZM375.499 35.1094C378.672 35.1094 381.041 37.2578 381.041 40.3096C381.041 43.3613 378.672 45.4854 375.499 45.4854C372.276 45.4854 369.908 43.3613 369.932 40.3096C369.908 37.2578 372.276 35.1094 375.499 35.1094ZM375.499 37.3311C373.765 37.3311 372.52 38.5029 372.52 40.3096C372.52 42.1162 373.765 43.2637 375.499 43.2393C377.183 43.2637 378.428 42.1162 378.453 40.3096C378.428 38.5029 377.183 37.3311 375.499 37.3311ZM401.866 30.1533V33.2051H406.456V28.1025H409.141V50.1973H406.456V41.3838H401.866V44.7285H391.465V30.1533H401.866ZM394.175 32.2773V42.5801H399.205V32.2773H394.175ZM401.866 39.2109H406.456V35.4023H401.866V39.2109ZM416.539 46.2666L414.488 53.1025H412.168L413.438 46.2666H416.539ZM436.875 29.7383V31.0566C436.851 32.5703 436.851 34.7432 436.338 37.5508L433.653 37.3066C434.08 35.0239 434.166 33.3394 434.214 31.9844H425.621V29.7383H436.875ZM431.309 34.7676V39.1621C433.592 39.0767 435.936 38.9058 438.072 38.6006L438.218 40.5537C433.628 41.3838 428.428 41.457 424.546 41.4814L424.302 39.3086C425.608 39.2964 427.073 39.2842 428.624 39.2598V34.7676H431.309ZM442.149 28.1025V34.9873H445.005V37.2578H442.149V44.6309H439.366V28.1025H442.149ZM442.857 47.5361V49.7334H427.598V43.166H430.333V47.5361H442.857ZM456.7 29.6406V36.501H449.742V39.4062C453.074 39.3818 455.198 39.2354 457.676 38.8203L457.969 41.042C455.113 41.5303 452.72 41.5791 448.667 41.5791H447.007V34.4502H453.965V31.8135H446.983V29.6406H456.7ZM464.634 28.127V44.3867H461.924V38.7471H458.067V36.5498H461.924V33.7666H458.067V31.5938H461.924V28.127H464.634ZM465.22 47.4629V49.6846H449.986V43.166H452.696V47.4629H465.22ZM493.833 39.5283V41.7012H485.313V45.5098H482.627V41.7012H473.667V39.5283H493.833ZM491.612 47.5361V49.7334H476.109V43.6543H478.794V47.5361H491.612ZM478.99 28.8105V31.3008H488.511V28.8105H491.197V37.7949H476.304V28.8105H478.99ZM478.99 35.6465H488.511V33.3271H478.99V35.6465ZM501.231 29.7139C504.551 29.7139 506.944 32.7412 506.968 37.502C506.944 42.3115 504.551 45.3145 501.231 45.3145C497.886 45.3145 495.469 42.3115 495.494 37.502C495.469 32.7412 497.886 29.7139 501.231 29.7139ZM501.231 32.1553C499.375 32.1553 498.106 34.1328 498.106 37.502C498.106 40.8955 499.375 42.873 501.231 42.873C503.111 42.873 504.356 40.8955 504.356 37.502C504.356 34.1328 503.111 32.1553 501.231 32.1553ZM515.855 33.376V35.6465H512.583V39.8945H515.855V42.1162H512.583V50.1729H509.874V28.1025H512.583V33.376H515.855ZM543.003 45.2656V47.4873H522.837V45.2656H527.5V39.6748C525.743 38.6738 524.681 37.0991 524.693 35.1338C524.668 31.6182 528.135 29.2988 532.872 29.2988C537.632 29.2988 541.099 31.6182 541.099 35.1338C541.099 37.0625 540.074 38.6128 538.365 39.626V45.2656H543.003ZM532.872 31.4473C529.576 31.4473 527.33 32.8389 527.354 35.1338C527.33 37.4043 529.576 38.8203 532.872 38.8203C536.167 38.8203 538.438 37.4043 538.438 35.1338C538.438 32.8389 536.167 31.4473 532.872 31.4473ZM530.186 45.2656H535.606V40.6514C534.764 40.8467 533.848 40.9443 532.872 40.9443C531.919 40.9443 531.016 40.8467 530.186 40.6758V45.2656ZM564.854 31.1787V33.376H561.851V35.915H564.854V38.1855H561.851V41.1396H559.141V28.1025H561.851V31.1787H564.854ZM561.851 42.0918V50.1729H559.141V44.2891H547.154V42.0918H561.851ZM550.645 29.3721C554.039 29.3477 556.578 31.5693 556.602 34.6699C556.578 37.8193 554.039 40.0166 550.645 40.0166C547.227 40.0166 544.664 37.8193 544.688 34.6699C544.664 31.5693 547.227 29.3477 550.645 29.3721ZM550.645 31.667C548.741 31.6914 547.325 32.8389 547.349 34.6699C547.325 36.5498 548.741 37.7217 550.645 37.6973C552.525 37.7217 553.941 36.5498 553.941 34.6699C553.941 32.8389 552.525 31.6914 550.645 31.667ZM571.348 28.9326V31.3252H580.87V28.9326H583.555V37.8926H577.452V39.9189H586.167V42.1162H566.05V39.9189H574.717V37.8926H568.663V28.9326H571.348ZM571.348 35.7197H580.87V33.4248H571.348V35.7197ZM583.897 47.5361V49.7334H568.541V43.5322H571.25V47.5361H583.897ZM597.691 28.4443C602.72 28.4443 605.625 29.7871 605.65 32.2285C605.625 34.6943 602.72 36.0127 597.691 36.0371C592.662 36.0127 589.732 34.6943 589.732 32.2285C589.732 29.7871 592.662 28.4443 597.691 28.4443ZM597.691 30.4463C594.322 30.4463 592.564 31.0811 592.588 32.2285C592.564 33.4492 594.322 34.0107 597.691 34.0107C601.109 34.0107 602.842 33.4492 602.842 32.2285C602.842 31.0811 601.109 30.4463 597.691 30.4463ZM607.774 37.209V39.3818H587.657V37.209H607.774ZM605.259 40.8711V46.2666H592.71V47.9023H605.87V49.9775H590.049V44.3379H602.598V42.873H590.025V40.8711H605.259ZM635.337 40.5293V42.7754H626.548V50.1729H623.863V42.7754H615.171V40.5293H635.337ZM625.206 28.8838C629.893 28.9082 633.165 30.8125 633.165 33.8398C633.165 36.8428 629.893 38.7227 625.206 38.7227C620.494 38.7227 617.271 36.8428 617.295 33.8398C617.271 30.8125 620.494 28.9082 625.206 28.8838ZM625.206 31.0811C622.081 31.0811 620.054 32.1064 620.079 33.8398C620.054 35.5488 622.081 36.5742 625.206 36.5742C628.331 36.5742 630.357 35.5488 630.357 33.8398C630.357 32.1064 628.331 31.0811 625.206 31.0811ZM644.834 32.0088C644.834 34.9385 646.592 37.7949 650.01 38.9668L648.521 41.0908C646.141 40.1875 644.432 38.4663 643.516 36.3057C642.552 38.7227 640.757 40.6392 638.169 41.6035L636.729 39.4551C640.269 38.2588 642.076 35.207 642.1 31.9844V29.4697H644.834V32.0088ZM655.284 28.127V44.5088H652.574V35.207H648.179V32.9854H652.574V28.127H655.284ZM655.772 47.5361V49.7334H640.733V42.7266H643.492V47.5361H655.772ZM666.758 33.4004C666.734 37.4531 668.858 41.5059 672.447 43.0439L670.835 45.2168C668.296 44.0449 666.429 41.7012 665.416 38.8203C664.402 41.9331 662.51 44.4722 659.825 45.7295L658.165 43.459C661.851 41.8721 664 37.6484 664 33.4004V29.8848H666.758V33.4004ZM676.768 28.1025V50.1973H674.034V28.1025H676.768ZM697.422 28.127V35.0605H700.499V37.3066H697.422V44.6064H694.712V28.127H697.422ZM693.125 30.5684V32.7412H680.04V30.5684H685.24V28.1025H687.95V30.5684H693.125ZM686.583 33.6445C689.756 33.6445 691.954 35.3291 691.978 37.8682C691.954 40.3828 689.756 42.043 686.583 42.043C683.384 42.043 681.163 40.3828 681.163 37.8682C681.163 35.3291 683.384 33.6445 686.583 33.6445ZM686.583 35.7441C684.898 35.7441 683.799 36.5254 683.799 37.8682C683.799 39.1865 684.898 39.9678 686.583 39.9434C688.267 39.9678 689.39 39.1865 689.39 37.8682C689.39 36.5254 688.267 35.7441 686.583 35.7441ZM698.301 47.5361V49.7334H683.287V43.3125H685.997V47.5361H698.301ZM718.907 28.1025V36.4766H722.3V38.6982H718.907V50.1973H716.197V28.1025H718.907ZM712.852 30.2021V32.3994H705.235V42.5312C708.665 42.5312 711.375 42.3604 714.415 41.8232L714.732 44.1182C711.314 44.7041 708.335 44.8018 704.356 44.8018H702.525V30.2021H712.852ZM725.914 48.1953C724.864 48.1953 724.009 47.3408 724.009 46.291C724.009 45.2656 724.864 44.4111 725.914 44.4111C726.915 44.4111 727.793 45.2656 727.793 46.291C727.793 47.3408 726.915 48.1953 725.914 48.1953Z" fill="black"/>
</svg>
