<svg width="880" height="77" viewBox="0 0 880 77" fill="none" xmlns="http://www.w3.org/2000/svg">
<rect x="0.5" y="0.5" width="879" height="76" rx="14.5" fill="current" stroke="black"/>
<path d="M253.086 47V29.3242H259.849C263.682 29.3242 265.586 31.2773 265.586 33.9141C265.586 36.0625 264.219 37.2588 262.485 37.6738V37.8447C264.365 37.9424 266.27 39.5049 266.27 42.1904C266.27 44.9492 264.292 47 260.239 47H253.086ZM259.751 44.3389C262.07 44.3389 263.047 43.3379 263.047 41.9463C263.047 40.3594 261.802 39.1387 259.824 39.1387H256.26V44.3389H259.751ZM259.458 36.8438C261.143 36.8438 262.412 35.8672 262.412 34.3047C262.412 32.9375 261.436 31.9609 259.531 31.9609H256.26V36.8438H259.458ZM270.64 47.1953C269.59 47.1953 268.735 46.3408 268.735 45.291C268.735 44.2656 269.59 43.4111 270.64 43.4111C271.641 43.4111 272.52 44.2656 272.52 45.291C272.52 46.3408 271.641 47.1953 270.64 47.1953ZM297.69 29.251V31.7412C297.69 34.6953 297.69 37.7471 296.885 42.3857L294.126 42.1416C294.98 37.7959 294.98 34.5977 294.98 31.7412V31.4482H282.261V29.251H297.69ZM300.254 43.9238V46.1455H280.137V43.9238H300.254ZM322.178 30.1055V32.3271H319.15V34.793H322.178V37.0635H319.15V40.0664H316.44V27.1025H319.15V30.1055H322.178ZM311.948 40.3594C316.44 40.335 319.346 42.0439 319.37 44.7539C319.346 47.5127 316.44 49.1729 311.948 49.1729C307.407 49.1729 304.478 47.5127 304.478 44.7539C304.478 42.0439 307.407 40.335 311.948 40.3594ZM311.948 42.5322C308.945 42.5322 307.114 43.3135 307.139 44.7539C307.114 46.1943 308.945 47 311.948 47C314.878 47 316.685 46.1943 316.685 44.7539C316.685 43.3135 314.878 42.5322 311.948 42.5322ZM305.43 28.3965V36.2578C308.262 36.2334 311.24 35.9893 314.463 35.3545L314.78 37.5518C311.118 38.2842 307.725 38.5283 304.526 38.5039H302.695V28.3965H305.43ZM346.836 29.251V31.7412C346.836 34.6953 346.836 37.7471 346.03 42.3857L343.271 42.1416C344.126 37.7959 344.126 34.5977 344.126 31.7412V31.4482H331.406V29.251H346.836ZM349.399 43.9238V46.1455H329.282V43.9238H349.399ZM361.704 28.6162V35.4521H354.478V38.2354C358.127 38.2231 360.569 38.1011 363.315 37.6494L363.535 39.8711C360.483 40.335 357.798 40.4326 353.55 40.4326H351.743V33.3525H358.994V30.7891H351.719V28.6162H361.704ZM369.37 27.127V43.3623H366.66V34.8662H362.9V32.5713H366.66V27.127H369.37ZM369.956 46.5361V48.7334H354.771V42.0684H357.48V46.5361H369.956ZM391.538 27.1025V49.1729H388.95V27.1025H391.538ZM386.851 27.6396V48.123H384.287V37.9668H380.356C379.062 40.5059 376.987 42.7031 373.862 44.5098L372.324 42.5811C376.902 39.8833 378.989 36.4287 379.404 31.9854H373.447V29.7881H382.09C382.09 31.9243 381.833 33.9263 381.235 35.7939H384.287V27.6396H386.851ZM407.871 41.458C407.871 43.2891 408.713 45.2178 410.605 46.4141C412.522 45.1323 413.413 43.1304 413.438 41.458V40.5547H416.099V41.458C416.074 43.7773 417.441 45.9258 420.347 46.8535L419.028 48.8311C416.88 48.1108 415.452 46.707 414.683 44.9492C413.975 46.6826 412.668 48.2329 410.679 49.0264C408.579 48.2695 407.261 46.7803 406.577 45.0225C405.784 46.7192 404.38 48.0986 402.329 48.8311L400.986 46.8535C403.843 45.8525 405.21 43.6064 405.234 41.458V40.5547H407.871V41.458ZM418.418 27.127V39.627H415.684V27.127H418.418ZM406.382 28.2988C409.775 28.2988 412.314 30.4473 412.314 33.5479C412.314 36.624 409.775 38.7725 406.382 38.7725C402.964 38.7725 400.425 36.624 400.425 33.5479C400.425 30.4473 402.964 28.2988 406.382 28.2988ZM406.382 30.5938C404.453 30.5938 403.062 31.7412 403.086 33.5479C403.062 35.3545 404.453 36.5264 406.382 36.5264C408.286 36.5264 409.653 35.3545 409.653 33.5479C409.653 31.7412 408.286 30.5938 406.382 30.5938ZM439.292 28.4453V30.4229C439.292 32.4858 439.292 34.7441 438.706 37.8691H441.758V40.0664H432.993V49.1973H430.259V40.0664H421.641V37.8691H435.947C436.558 34.8662 436.582 32.6201 436.582 30.6426H424.009V28.4453H439.292ZM463.804 35.623V37.8447H460.532V49.124H457.822V27.1025H460.532V35.623H463.804ZM446.714 29.251V41.4336C449.656 41.3848 452.793 41.1284 456.113 40.4326L456.406 42.7275C452.695 43.46 449.155 43.6797 445.884 43.6797H444.028V29.251H446.714ZM472.397 37.5029C473.203 36.624 474.229 36.1602 475.352 36.1602C477.305 36.1602 478.989 37.5273 480.942 37.5273C482.065 37.5273 483.042 37.0635 483.823 36.1357V38.7969C483.018 39.7002 481.992 40.1396 480.869 40.1396C478.916 40.1396 477.207 38.7725 475.278 38.7725C474.155 38.7725 473.179 39.2363 472.397 40.1641V37.5029ZM510.117 27.1025V35.8916H513.511V38.1377H510.117V49.1729H507.432V27.1025H510.117ZM505.723 30.4961V32.6689H492.71V30.4961H497.935V27.4199H500.645V30.4961H505.723ZM499.302 34.1094C502.476 34.1094 504.844 36.2578 504.844 39.3096C504.844 42.3613 502.476 44.4854 499.302 44.4854C496.079 44.4854 493.711 42.3613 493.735 39.3096C493.711 36.2578 496.079 34.1094 499.302 34.1094ZM499.302 36.3311C497.568 36.3311 496.323 37.5029 496.323 39.3096C496.323 41.1162 497.568 42.2637 499.302 42.2393C500.986 42.2637 502.231 41.1162 502.256 39.3096C502.231 37.5029 500.986 36.3311 499.302 36.3311ZM532.456 29.1289V31.2529C532.432 33.9873 532.432 37.0635 531.577 41.6777L528.843 41.3848C529.697 37.0879 529.697 33.9507 529.722 31.3018H516.538V29.1289H532.456ZM534.556 44.0947V46.3164H514.438V44.0947H521.86V36.4287H524.546V44.0947H534.556ZM560.459 40.7012V48.9043H545.884V40.7012H560.459ZM548.545 42.874V46.707H557.798V42.874H548.545ZM545.933 28.3232V36.4287C548.887 36.3921 551.755 36.1724 554.819 35.5742L555.112 37.8447C551.646 38.5527 548.447 38.7236 545.029 38.7236H543.247V28.3232H545.933ZM560.459 27.1025V39.749H557.749V33.1816H551.987V30.9844H557.749V27.1025H560.459ZM569.614 28.7139C572.605 28.7139 574.814 31.2041 575.205 35.2324H579.404V27.1025H582.09V49.1973H579.404V37.4297H575.229C574.937 41.6899 572.69 44.3145 569.614 44.3145C566.294 44.3145 563.95 41.3115 563.95 36.502C563.95 31.7412 566.294 28.7139 569.614 28.7139ZM569.614 31.1553C567.783 31.1553 566.538 33.1328 566.562 36.502C566.538 39.8955 567.783 41.873 569.614 41.873C571.445 41.873 572.666 39.8955 572.69 36.502C572.666 33.1328 571.445 31.1553 569.614 31.1553ZM602.598 27.1025V33.4502H605.674V35.7207H602.598V43.0205H599.839V27.1025H602.598ZM596.592 28.7871C596.592 34.6465 592.783 38.8213 586.24 40.7256L585.117 38.5771C590.159 37.1245 593.162 34.3779 593.638 31.0088H586.045V28.7871H596.592ZM603.428 46.5361V48.7334H588.413V41.3848H591.172V46.5361H603.428ZM624.082 27.1025V35.4766H627.476V37.6982H624.082V49.1973H621.372V27.1025H624.082ZM618.027 29.2021V31.3994H610.41V41.5312C613.84 41.5312 616.55 41.3604 619.59 40.8232L619.907 43.1182C616.489 43.7041 613.511 43.8018 609.531 43.8018H607.7V29.2021H618.027ZM631.089 47.1953C630.039 47.1953 629.185 46.3408 629.185 45.291C629.185 44.2656 630.039 43.4111 631.089 43.4111C632.09 43.4111 632.969 44.2656 632.969 45.291C632.969 46.3408 632.09 47.1953 631.089 47.1953Z" fill="black"/>
</svg>
