<svg width="880" height="77" viewBox="0 0 880 77" fill="none" xmlns="http://www.w3.org/2000/svg">
<rect x="0.5" y="0.5" width="879" height="76" rx="14.5" fill="current" stroke="black"/>
<path d="M157.761 47V29.3242H164.524C168.357 29.3242 170.261 31.2773 170.261 33.9141C170.261 36.0625 168.894 37.2588 167.161 37.6738V37.8447C169.041 37.9424 170.945 39.5049 170.945 42.1904C170.945 44.9492 168.967 47 164.915 47H157.761ZM164.426 44.3389C166.746 44.3389 167.722 43.3379 167.722 41.9463C167.722 40.3594 166.477 39.1387 164.5 39.1387H160.935V44.3389H164.426ZM164.133 36.8438C165.818 36.8438 167.087 35.8672 167.087 34.3047C167.087 32.9375 166.111 31.9609 164.207 31.9609H160.935V36.8438H164.133ZM175.315 47.1953C174.265 47.1953 173.411 46.3408 173.411 45.291C173.411 44.2656 174.265 43.4111 175.315 43.4111C176.316 43.4111 177.195 44.2656 177.195 45.291C177.195 46.3408 176.316 47.1953 175.315 47.1953ZM194.749 40.8965C199.534 40.9209 202.561 42.4346 202.585 45.0469C202.561 47.6104 199.534 49.1484 194.749 49.1484C189.988 49.1484 186.936 47.6104 186.936 45.0469C186.936 42.4346 189.988 40.9209 194.749 40.8965ZM194.749 42.9473C191.575 42.9473 189.646 43.7041 189.67 45.0469C189.646 46.3408 191.575 47.0488 194.749 47.0488C197.947 47.0488 199.875 46.3408 199.9 45.0469C199.875 43.7041 197.947 42.9473 194.749 42.9473ZM202.439 28.1523V29.9834C202.439 31.7168 202.439 33.5723 201.829 35.8428L199.143 35.5986C199.692 33.4502 199.729 31.8999 199.729 30.3008H187.156V28.1523H202.439ZM204.88 37.1123V39.3096H184.861V37.1123H192.625V33.1084H195.31V37.1123H204.88ZM223.826 27.1025V32.1318H226.902V34.3535H223.826V39.5049H221.116V27.1025H223.826ZM217.698 28.4453C217.673 34.1826 213.914 38.1621 207.322 39.9199L206.248 37.7471C211.362 36.4287 214.268 33.8286 214.744 30.6426H207.297V28.4453H217.698ZM223.826 40.3838V48.8799H209.543V40.3838H223.826ZM212.253 42.6055V46.7314H221.14V42.6055H212.253ZM246.384 27.1025V49.1973H243.65V27.1025H246.384ZM234.495 28.7139C237.815 28.7139 240.232 31.7412 240.256 36.502C240.232 41.3115 237.815 44.3145 234.495 44.3145C231.15 44.3145 228.733 41.3115 228.733 36.502C228.733 31.7412 231.15 28.7139 234.495 28.7139ZM234.495 31.1553C232.615 31.1553 231.345 33.1328 231.345 36.502C231.345 39.8955 232.615 41.873 234.495 41.873C236.35 41.873 237.62 39.8955 237.62 36.502C237.62 33.1328 236.35 31.1553 234.495 31.1553ZM272.971 27.1025V33.5723H276.047V35.8184H272.971V43.2402H270.261V27.1025H272.971ZM273.85 46.5361V48.7334H258.835V41.5557H261.545V46.5361H273.85ZM261.765 28.5674C265.11 28.5674 267.698 30.8867 267.722 34.1338C267.698 37.332 265.11 39.6758 261.765 39.6758C258.42 39.6758 255.784 37.332 255.808 34.1338C255.784 30.8867 258.42 28.5674 261.765 28.5674ZM261.765 30.9355C259.91 30.9355 258.445 32.1807 258.469 34.1338C258.445 36.0381 259.91 37.2832 261.765 37.2832C263.621 37.2832 265.061 36.0381 265.061 34.1338C265.061 32.1807 263.621 30.9355 261.765 30.9355ZM294.456 27.1025V35.7207H297.727V37.9912H294.456V49.124H291.746V27.1025H294.456ZM288.621 29.3975C288.621 35.8916 285.935 41.5801 278.586 45.1934L277.048 43.0938C282.419 40.4204 285.325 36.6606 285.886 31.6436H278.245V29.3975H288.621ZM316.648 33.3525V35.501H301.365V27.9082H304.05V33.3525H316.648ZM318.918 38.0645V40.2129H298.752V38.0645H318.918ZM316.794 46.4629V48.6602H301.169V42.166H303.879V46.4629H316.794ZM339.573 29.4219V31.5459H335.007C335.056 33.4502 336.802 35.147 340.061 35.7939L338.987 37.8936C336.46 37.3687 334.666 36.1846 333.689 34.5977C332.725 36.3311 330.918 37.6372 328.318 38.1865L327.17 36.0869C330.479 35.4399 332.236 33.5723 332.273 31.5459H327.732V29.4219H332.297V27.1514H335.007V29.4219H339.573ZM344.773 27.127V49.1484H342.087V27.127H344.773ZM326.34 39.334C330.442 39.334 335.935 39.3096 340.647 38.7236L340.842 40.6768C338.938 41.0063 336.96 41.2139 335.032 41.3359V48.4893H332.297V41.4824C330.283 41.5679 328.367 41.5801 326.682 41.5801L326.34 39.334ZM359.592 29.1777V43.8018H349.094V29.1777H359.592ZM351.78 31.3018V41.6289H356.956V31.3018H351.78ZM366.282 27.1025V49.1973H363.547V27.1025H366.282ZM386.814 27.1025V35.5742H390.208V37.8447H386.814V49.1973H384.128V27.1025H386.814ZM380.564 29.0312V37.3564H373.142V41.751C376.633 41.7266 379.355 41.5801 382.444 41.043L382.688 43.2402C379.294 43.8506 376.267 43.9971 372.263 43.9971H370.457V35.1836H377.854V31.2285H370.408V29.0312H380.564ZM409.153 29.1289V31.2529C409.128 33.9873 409.128 37.0635 408.274 41.6777L405.54 41.3848C406.394 37.0879 406.394 33.9507 406.418 31.3018H393.235V29.1289H409.153ZM411.252 44.0947V46.3164H391.135V44.0947H398.557V36.4287H401.243V44.0947H411.252ZM425.559 31.2041C425.559 33.5967 426.951 35.9893 429.856 37.0879L428.416 39.1631C426.45 38.4062 425.083 37.0024 424.29 35.2812C423.484 37.2588 422.043 38.9434 419.944 39.8223L418.479 37.7471C421.506 36.4043 422.922 33.6455 422.947 31.2041V28.4697H425.559V31.2041ZM437.546 27.127V40.6523H434.958V34.915H432.761V39.9688H430.222V27.542H432.761V32.6934H434.958V27.127H437.546ZM430.1 41.0186C434.714 41.0186 437.644 42.5322 437.668 45.0713C437.644 47.6104 434.714 49.1484 430.1 49.1484C425.437 49.1484 422.532 47.6104 422.532 45.0713C422.532 42.5322 425.437 41.0186 430.1 41.0186ZM430.1 43.0693C427.048 43.0693 425.242 43.7773 425.242 45.0713C425.242 46.3896 427.048 47.0732 430.1 47.0732C433.127 47.0732 434.934 46.3896 434.934 45.0713C434.934 43.7773 433.127 43.0693 430.1 43.0693ZM457.688 27.1025V32.4248H460.764V34.6953H457.688V39.9688H454.978V27.1025H457.688ZM451.536 28.3965C451.536 34.1826 447.776 38.1621 441.184 39.8467L440.061 37.7715C445.225 36.4409 448.154 33.8042 448.63 30.5938H441.16V28.3965H451.536ZM457.688 40.8965V49.1729H454.978V43.0693H442.991V40.8965H457.688ZM479.172 27.1025V35.8916H482.566V38.1377H479.172V49.1729H476.487V27.1025H479.172ZM474.778 30.4961V32.6689H461.765V30.4961H466.99V27.4199H469.7V30.4961H474.778ZM468.357 34.1094C471.531 34.1094 473.899 36.2578 473.899 39.3096C473.899 42.3613 471.531 44.4854 468.357 44.4854C465.134 44.4854 462.766 42.3613 462.791 39.3096C462.766 36.2578 465.134 34.1094 468.357 34.1094ZM468.357 36.3311C466.624 36.3311 465.378 37.5029 465.378 39.3096C465.378 41.1162 466.624 42.2637 468.357 42.2393C470.042 42.2637 471.287 41.1162 471.311 39.3096C471.287 37.5029 470.042 36.3311 468.357 36.3311ZM494.724 29.1533V32.2051H499.314V27.1025H502V49.1973H499.314V40.3838H494.724V43.7285H484.324V29.1533H494.724ZM487.034 31.2773V41.5801H492.063V31.2773H487.034ZM494.724 38.2109H499.314V34.4023H494.724V38.2109ZM509.397 45.2666L507.346 52.1025H505.027L506.296 45.2666H509.397ZM534.958 29.251V31.7412C534.958 34.6953 534.958 37.7471 534.153 42.3857L531.394 42.1416C532.249 37.7959 532.249 34.5977 532.249 31.7412V31.4482H519.529V29.251H534.958ZM537.522 43.9238V46.1455H517.405V43.9238H537.522ZM559.446 30.1055V32.3271H556.418V34.793H559.446V37.0635H556.418V40.0664H553.708V27.1025H556.418V30.1055H559.446ZM549.216 40.3594C553.708 40.335 556.614 42.0439 556.638 44.7539C556.614 47.5127 553.708 49.1729 549.216 49.1729C544.675 49.1729 541.746 47.5127 541.746 44.7539C541.746 42.0439 544.675 40.335 549.216 40.3594ZM549.216 42.5322C546.213 42.5322 544.382 43.3135 544.407 44.7539C544.382 46.1943 546.213 47 549.216 47C552.146 47 553.953 46.1943 553.953 44.7539C553.953 43.3135 552.146 42.5322 549.216 42.5322ZM542.698 28.3965V36.2578C545.53 36.2334 548.508 35.9893 551.731 35.3545L552.048 37.5518C548.386 38.2842 544.993 38.5283 541.794 38.5039H539.963V28.3965H542.698ZM586.667 36.917V39.1631H577.903V41.3604H575.217V39.1631H566.55V36.917H586.667ZM577.927 42.7764C577.927 44.8027 580.613 46.6094 585.178 47L584.348 49.0508C580.662 48.709 577.878 47.4272 576.536 45.5352C575.193 47.4028 572.446 48.709 568.796 49.0508L567.893 47C572.41 46.6094 575.144 44.7295 575.144 42.7764V42.2637H577.927V42.7764ZM576.584 27.3955C581.492 27.3955 584.519 28.8848 584.543 31.5215C584.519 34.1338 581.492 35.6475 576.584 35.623C571.726 35.6475 568.625 34.1338 568.625 31.5215C568.625 28.8848 571.726 27.3955 576.584 27.3955ZM576.584 29.4463C573.313 29.4219 571.433 30.1787 571.458 31.5215C571.433 32.8154 573.313 33.5723 576.584 33.5723C579.832 33.5723 581.736 32.8154 581.736 31.5215C581.736 30.1787 579.832 29.4219 576.584 29.4463ZM598.191 28.3477C602.854 28.3477 606.418 30.8135 606.418 34.5732C606.418 38.3818 602.854 40.8477 598.191 40.8477C593.552 40.8477 589.988 38.3818 590.012 34.5732C589.988 30.8135 593.552 28.3477 598.191 28.3477ZM598.191 30.5449C594.993 30.5205 592.625 32.1318 592.625 34.5732C592.625 37.0635 594.993 38.626 598.191 38.626C601.414 38.626 603.757 37.0635 603.757 34.5732C603.757 32.1318 601.414 30.5205 598.191 30.5449ZM608.323 44.168V46.3896H588.157V44.168H608.323ZM620.994 29.1533V32.2051H625.583V27.1025H628.269V49.1973H625.583V40.3838H620.994V43.7285H610.593V29.1533H620.994ZM613.303 31.2773V41.5801H618.333V31.2773H613.303ZM620.994 38.2109H625.583V34.4023H620.994V38.2109ZM655.784 40.7012V48.9043H641.208V40.7012H655.784ZM643.87 42.874V46.707H653.123V42.874H643.87ZM641.257 28.3232V36.4287C644.211 36.3921 647.08 36.1724 650.144 35.5742L650.437 37.8447C646.97 38.5527 643.772 38.7236 640.354 38.7236H638.572V28.3232H641.257ZM655.784 27.1025V39.749H653.074V33.1816H647.312V30.9844H653.074V27.1025H655.784ZM664.939 28.7139C667.93 28.7139 670.139 31.2041 670.53 35.2324H674.729V27.1025H677.415V49.1973H674.729V37.4297H670.554C670.261 41.6899 668.015 44.3145 664.939 44.3145C661.619 44.3145 659.275 41.3115 659.275 36.502C659.275 31.7412 661.619 28.7139 664.939 28.7139ZM664.939 31.1553C663.108 31.1553 661.863 33.1328 661.887 36.502C661.863 39.8955 663.108 41.873 664.939 41.873C666.77 41.873 667.991 39.8955 668.015 36.502C667.991 33.1328 666.77 31.1553 664.939 31.1553ZM697.922 27.1025V33.4502H700.999V35.7207H697.922V43.0205H695.164V27.1025H697.922ZM691.917 28.7871C691.917 34.6465 688.108 38.8213 681.565 40.7256L680.442 38.5771C685.483 37.1245 688.486 34.3779 688.962 31.0088H681.37V28.7871H691.917ZM698.752 46.5361V48.7334H683.738V41.3848H686.497V46.5361H698.752ZM719.407 27.1025V35.4766H722.8V37.6982H719.407V49.1973H716.697V27.1025H719.407ZM713.352 29.2021V31.3994H705.735V41.5312C709.165 41.5312 711.875 41.3604 714.915 40.8232L715.232 43.1182C711.814 43.7041 708.835 43.8018 704.856 43.8018H703.025V29.2021H713.352ZM726.414 47.1953C725.364 47.1953 724.509 46.3408 724.509 45.291C724.509 44.2656 725.364 43.4111 726.414 43.4111C727.415 43.4111 728.293 44.2656 728.293 45.291C728.293 46.3408 727.415 47.1953 726.414 47.1953Z" fill="black"/>
</svg>
