<svg width="58" height="67" viewBox="0 0 58 67" fill="none" xmlns="http://www.w3.org/2000/svg">
    <path d="M16.36 1H1V66.3529H16.36V1Z" stroke="#222222" stroke-miterlimit="10"/>
    <path d="M12.6351 1V25.5882L8.89115 21.7641L8.68635 21.5506C8.58395 21.6541 8.48155 21.7641 8.48155 21.7641L4.73755 25.5882V1H12.6415H12.6351Z" stroke="#222222" stroke-miterlimit="10"/>
    <mask id="path-3-inside-1_0_1" fill="white">
    <path d="M14.1202 60.5293H3.24023V61.1764H14.1202V60.5293Z"/>
    </mask>
    <path d="M14.1202 60.5293H3.24023V61.1764H14.1202V60.5293Z" fill="#222222"/>
    <path d="M3.24023 60.5293V59.5293H2.24023V60.5293H3.24023ZM14.1202 60.5293H15.1202V59.5293H14.1202V60.5293ZM14.1202 61.1764V62.1764H15.1202V61.1764H14.1202ZM3.24023 61.1764H2.24023V62.1764H3.24023V61.1764ZM3.24023 61.5293H14.1202V59.5293H3.24023V61.5293ZM13.1202 60.5293V61.1764H15.1202V60.5293H13.1202ZM14.1202 60.1764H3.24023V62.1764H14.1202V60.1764ZM4.24023 61.1764V60.5293H2.24023V61.1764H4.24023Z" fill="#222222" mask="url(#path-3-inside-1_0_1)"/>
    <mask id="path-5-inside-2_0_1" fill="white">
    <path d="M14.1202 61.8223H3.24023V62.4693H14.1202V61.8223Z"/>
    </mask>
    <path d="M14.1202 61.8223H3.24023V62.4693H14.1202V61.8223Z" fill="#222222"/>
    <path d="M3.24023 61.8223V60.8223H2.24023V61.8223H3.24023ZM14.1202 61.8223H15.1202V60.8223H14.1202V61.8223ZM14.1202 62.4693V63.4693H15.1202V62.4693H14.1202ZM3.24023 62.4693H2.24023V63.4693H3.24023V62.4693ZM3.24023 62.8223H14.1202V60.8223H3.24023V62.8223ZM13.1202 61.8223V62.4693H15.1202V61.8223H13.1202ZM14.1202 61.4693H3.24023V63.4693H14.1202V61.4693ZM4.24023 62.4693V61.8223H2.24023V62.4693H4.24023Z" fill="#222222" mask="url(#path-5-inside-2_0_1)"/>
    <mask id="path-7-inside-3_0_1" fill="white">
    <path d="M14.1202 63.1172H3.24023V63.7642H14.1202V63.1172Z"/>
    </mask>
    <path d="M14.1202 63.1172H3.24023V63.7642H14.1202V63.1172Z" fill="#222222"/>
    <path d="M3.24023 63.1172V62.1172H2.24023V63.1172H3.24023ZM14.1202 63.1172H15.1202V62.1172H14.1202V63.1172ZM14.1202 63.7642V64.7642H15.1202V63.7642H14.1202ZM3.24023 63.7642H2.24023V64.7642H3.24023V63.7642ZM3.24023 64.1172H14.1202V62.1172H3.24023V64.1172ZM13.1202 63.1172V63.7642H15.1202V63.1172H13.1202ZM14.1202 62.7642H3.24023V64.7642H14.1202V62.7642ZM4.24023 63.7642V63.1172H2.24023V63.7642H4.24023Z" fill="#222222" mask="url(#path-7-inside-3_0_1)"/>
    <path d="M57.36 1H42V66.3529H57.36V1Z" stroke="#222222" stroke-miterlimit="10"/>
    <path d="M53.6351 1V25.5882L49.8911 21.7641L49.6863 21.5506C49.5839 21.6541 49.4815 21.7641 49.4815 21.7641L45.7375 25.5882V1H53.6415H53.6351Z" stroke="#222222" stroke-miterlimit="10"/>
    <mask id="path-11-inside-4_0_1" fill="white">
    <path d="M55.1202 60.5293H44.2402V61.1764H55.1202V60.5293Z"/>
    </mask>
    <path d="M55.1202 60.5293H44.2402V61.1764H55.1202V60.5293Z" fill="#222222"/>
    <path d="M44.2402 60.5293V59.5293H43.2402V60.5293H44.2402ZM55.1202 60.5293H56.1202V59.5293H55.1202V60.5293ZM55.1202 61.1764V62.1764H56.1202V61.1764H55.1202ZM44.2402 61.1764H43.2402V62.1764H44.2402V61.1764ZM44.2402 61.5293H55.1202V59.5293H44.2402V61.5293ZM54.1202 60.5293V61.1764H56.1202V60.5293H54.1202ZM55.1202 60.1764H44.2402V62.1764H55.1202V60.1764ZM45.2402 61.1764V60.5293H43.2402V61.1764H45.2402Z" fill="#222222" mask="url(#path-11-inside-4_0_1)"/>
    <mask id="path-13-inside-5_0_1" fill="white">
    <path d="M55.1202 61.8223H44.2402V62.4693H55.1202V61.8223Z"/>
    </mask>
    <path d="M55.1202 61.8223H44.2402V62.4693H55.1202V61.8223Z" fill="#222222"/>
    <path d="M44.2402 61.8223V60.8223H43.2402V61.8223H44.2402ZM55.1202 61.8223H56.1202V60.8223H55.1202V61.8223ZM55.1202 62.4693V63.4693H56.1202V62.4693H55.1202ZM44.2402 62.4693H43.2402V63.4693H44.2402V62.4693ZM44.2402 62.8223H55.1202V60.8223H44.2402V62.8223ZM54.1202 61.8223V62.4693H56.1202V61.8223H54.1202ZM55.1202 61.4693H44.2402V63.4693H55.1202V61.4693ZM45.2402 62.4693V61.8223H43.2402V62.4693H45.2402Z" fill="#222222" mask="url(#path-13-inside-5_0_1)"/>
    <mask id="path-15-inside-6_0_1" fill="white">
    <path d="M55.1202 63.1172H44.2402V63.7642H55.1202V63.1172Z"/>
    </mask>
    <path d="M55.1202 63.1172H44.2402V63.7642H55.1202V63.1172Z" fill="#222222"/>
    <path d="M44.2402 63.1172V62.1172H43.2402V63.1172H44.2402ZM55.1202 63.1172H56.1202V62.1172H55.1202V63.1172ZM55.1202 63.7642V64.7642H56.1202V63.7642H55.1202ZM44.2402 63.7642H43.2402V64.7642H44.2402V63.7642ZM44.2402 64.1172H55.1202V62.1172H44.2402V64.1172ZM54.1202 63.1172V63.7642H56.1202V63.1172H54.1202ZM55.1202 62.7642H44.2402V64.7642H55.1202V62.7642ZM45.2402 63.7642V63.1172H43.2402V63.7642H45.2402Z" fill="#222222" mask="url(#path-15-inside-6_0_1)"/>
    <path d="M36.7201 1H21.3601V66.3529H36.7201V1Z" stroke="#222222" stroke-miterlimit="10"/>
    <path d="M32.9953 1V25.5882L29.2513 21.7641L29.0465 21.5506C28.9441 21.6541 28.8417 21.7641 28.8417 21.7641L25.0977 25.5882V1H33.0017H32.9953Z" stroke="#222222" stroke-miterlimit="10"/>
    <mask id="path-19-inside-7_0_1" fill="white">
    <path d="M34.4803 60.5293H23.6003V61.1764H34.4803V60.5293Z"/>
    </mask>
    <path d="M34.4803 60.5293H23.6003V61.1764H34.4803V60.5293Z" fill="#222222"/>
    <path d="M23.6003 60.5293V59.5293H22.6003V60.5293H23.6003ZM34.4803 60.5293H35.4803V59.5293H34.4803V60.5293ZM34.4803 61.1764V62.1764H35.4803V61.1764H34.4803ZM23.6003 61.1764H22.6003V62.1764H23.6003V61.1764ZM23.6003 61.5293H34.4803V59.5293H23.6003V61.5293ZM33.4803 60.5293V61.1764H35.4803V60.5293H33.4803ZM34.4803 60.1764H23.6003V62.1764H34.4803V60.1764ZM24.6003 61.1764V60.5293H22.6003V61.1764H24.6003Z" fill="#222222" mask="url(#path-19-inside-7_0_1)"/>
    <mask id="path-21-inside-8_0_1" fill="white">
    <path d="M34.4803 61.8223H23.6003V62.4693H34.4803V61.8223Z"/>
    </mask>
    <path d="M34.4803 61.8223H23.6003V62.4693H34.4803V61.8223Z" fill="#222222"/>
    <path d="M23.6003 61.8223V60.8223H22.6003V61.8223H23.6003ZM34.4803 61.8223H35.4803V60.8223H34.4803V61.8223ZM34.4803 62.4693V63.4693H35.4803V62.4693H34.4803ZM23.6003 62.4693H22.6003V63.4693H23.6003V62.4693ZM23.6003 62.8223H34.4803V60.8223H23.6003V62.8223ZM33.4803 61.8223V62.4693H35.4803V61.8223H33.4803ZM34.4803 61.4693H23.6003V63.4693H34.4803V61.4693ZM24.6003 62.4693V61.8223H22.6003V62.4693H24.6003Z" fill="#222222" mask="url(#path-21-inside-8_0_1)"/>
    <mask id="path-23-inside-9_0_1" fill="white">
    <path d="M34.4803 63.1172H23.6003V63.7642H34.4803V63.1172Z"/>
    </mask>
    <path d="M34.4803 63.1172H23.6003V63.7642H34.4803V63.1172Z" fill="#222222"/>
    <path d="M23.6003 63.1172V62.1172H22.6003V63.1172H23.6003ZM34.4803 63.1172H35.4803V62.1172H34.4803V63.1172ZM34.4803 63.7642V64.7642H35.4803V63.7642H34.4803ZM23.6003 63.7642H22.6003V64.7642H23.6003V63.7642ZM23.6003 64.1172H34.4803V62.1172H23.6003V64.1172ZM33.4803 63.1172V63.7642H35.4803V63.1172H33.4803ZM34.4803 62.7642H23.6003V64.7642H34.4803V62.7642ZM24.6003 63.7642V63.1172H22.6003V63.7642H24.6003Z" fill="#222222" mask="url(#path-23-inside-9_0_1)"/>
    </svg>
    