<svg width="492" height="85" viewBox="0 0 492 85" fill="none" xmlns="http://www.w3.org/2000/svg">
    <g filter="url(#filter0_d_0_1)">
    <rect width="484" height="77" rx="15" fill="#F4F4F4"/>
    </g>
    <path fill-rule="evenodd" clip-rule="evenodd" d="M458.281 40.2808C458.395 40.2191 458.502 40.1401 458.598 40.0438C459.134 39.508 459.134 38.6393 458.598 38.1035L448.897 28.4019C448.361 27.866 447.492 27.866 446.956 28.4019C446.42 28.9377 446.42 29.8064 446.956 30.3422L455.688 39.0737L446.402 48.3595C445.866 48.8953 445.866 49.764 446.402 50.2998C446.938 50.8356 447.806 50.8356 448.342 50.2998L458.044 40.5982C458.14 40.5018 458.219 40.3947 458.281 40.2808Z" fill="#A4A4A4"/>
    <path d="M91.9688 39.0625V40.9844H83.625V42.5312H89.6016V47.5H77.5547V48.9531H90.1875V50.8984H75V45.7188H87.0469V44.4062H74.9766V42.5312H81.0469V40.9844H72.75V39.0625H91.9688ZM83.625 29.8516V31.6328H90.1172V33.5781H83.9062C84.4102 35.0781 86.8711 36.2031 91.1016 36.4141L90.3281 38.3594C86.5312 38.125 83.6719 37.0938 82.3359 35.3828C81 37.0938 78.1523 38.125 74.3203 38.3594L73.5938 36.4141C77.7773 36.2031 80.2383 35.0781 80.7891 33.5781H74.6016V31.6328H81.0469V29.8516H83.625ZM101.133 33.25C101.133 35.9688 102.844 38.5703 106.102 39.625L104.695 41.7109C102.398 40.9023 100.758 39.2969 99.8672 37.2578C98.918 39.4844 97.1953 41.2305 94.7578 42.1094L93.3516 40.0234C96.7969 38.875 98.5078 36.1094 98.5078 33.0859V31H101.133V33.25ZM111.188 43.5156V51.0859H108.586V45.5781H96.75V43.5156H111.188ZM111.188 29.8984V42.4844H108.586V36.1562H104.367V34.0234H108.586V29.8984H111.188ZM130.781 29.8984V38.3359H134.039V40.4922H130.781V51.0859H128.203V29.8984H130.781ZM126.562 33.1562V35.2422H114.07V33.1562H119.086V30.2031H121.688V33.1562H126.562ZM120.398 36.625C123.445 36.625 125.719 38.6875 125.719 41.6172C125.719 44.5469 123.445 46.5859 120.398 46.5859C117.305 46.5859 115.031 44.5469 115.055 41.6172C115.031 38.6875 117.305 36.625 120.398 36.625ZM120.398 38.7578C118.734 38.7578 117.539 39.8828 117.539 41.6172C117.539 43.3516 118.734 44.4531 120.398 44.4297C122.016 44.4531 123.211 43.3516 123.234 41.6172C123.211 39.8828 122.016 38.7578 120.398 38.7578ZM152.625 29.8984V51.0859H150V29.8984H152.625ZM146.297 32.1484C146.297 38.4531 143.859 43.8203 136.43 47.3359L135.07 45.25C140.613 42.6133 143.191 39.0273 143.648 34.2109H136.148V32.1484H146.297Z" fill="#222222"/>
    <defs>
    <filter id="filter0_d_0_1" x="0" y="0" width="492" height="85" filterUnits="userSpaceOnUse" color-interpolation-filters="sRGB">
    <feFlood flood-opacity="0" result="BackgroundImageFix"/>
    <feColorMatrix in="SourceAlpha" type="matrix" values="0 0 0 0 0 0 0 0 0 0 0 0 0 0 0 0 0 0 127 0" result="hardAlpha"/>
    <feOffset dx="4" dy="4"/>
    <feGaussianBlur stdDeviation="2"/>
    <feComposite in2="hardAlpha" operator="out"/>
    <feColorMatrix type="matrix" values="0 0 0 0 0 0 0 0 0 0 0 0 0 0 0 0 0 0 0.25 0"/>
    <feBlend mode="normal" in2="BackgroundImageFix" result="effect1_dropShadow_0_1"/>
    <feBlend mode="normal" in="SourceGraphic" in2="effect1_dropShadow_0_1" result="shape"/>
    </filter>
    </defs>
    </svg>
    