<svg width="53" height="53" viewBox="0 0 53 53" fill="none" xmlns="http://www.w3.org/2000/svg">
<circle cx="26.5" cy="26.5" r="24.5" fill="#CFCFCF" stroke="white" stroke-width="4"/>
<path d="M36.509 18.5833H31.6552V18.0767C31.6552 17.4829 31.1714 17 30.5766 17H22.4155C21.8207 17 21.3369 17.4829 21.3369 18.0767V18.5833H16.491C15.6662 18.5833 15 19.2483 15 20.0717V34.5038C15 35.3271 15.6662 35.9921 16.491 35.9921H36.501C37.3259 35.9921 37.9921 35.3271 37.9921 34.5038V20.0717C37.9921 19.2483 37.3259 18.5833 36.501 18.5833H36.509Z" fill="white"/>
<path d="M26.5 32.8333C29.5661 32.8333 32.0517 30.3522 32.0517 27.2917C32.0517 24.2311 29.5661 21.75 26.5 21.75C23.4338 21.75 20.9482 24.2311 20.9482 27.2917C20.9482 30.3522 23.4338 32.8333 26.5 32.8333Z" fill="#CFCFCF"/>
<path d="M26.4999 31.2507C28.69 31.2507 30.4655 29.4784 30.4655 27.2923C30.4655 25.1062 28.69 23.334 26.4999 23.334C24.3098 23.334 22.5344 25.1062 22.5344 27.2923C22.5344 29.4784 24.3098 31.2507 26.4999 31.2507Z" fill="white"/>
</svg>
