<svg width="195" height="54" viewBox="0 0 195 54" fill="none" xmlns="http://www.w3.org/2000/svg">
<rect x="41.5" y="0.5" width="113" height="53" rx="9.5" stroke="#CFCFCF"/>
<path d="M87.4609 21.5C87.4609 23.2578 89.1992 24.7422 91.6602 25.2891L91.0352 26.5195C89.0332 26.0312 87.4902 24.9668 86.7383 23.5508C85.9863 25.084 84.4238 26.2461 82.3633 26.7539L81.6992 25.5234C84.1992 24.9766 85.9375 23.3555 85.9375 21.5V21.4219H82.0703V20.2109H85.9375V18.2773H87.4609V20.2109H91.3281V21.4219H87.4609V21.5ZM95.2344 18.2383V35.6016H93.7305V18.2383H95.2344ZM80.8789 27.9844C84.1992 27.9844 88.6133 27.9453 92.4609 27.457L92.5586 28.5703C90.8984 28.8438 89.1797 29.0098 87.5 29.0977V35.0742H85.9766V29.1758C84.2188 29.2637 82.5488 29.2734 81.0938 29.2734L80.8789 27.9844ZM114.102 32.0469V33.3164H98.2031V32.0469H105.312V27.7891H106.816V32.0469H114.102ZM106.855 20.7383C106.855 23.6484 110.293 26.1875 113.32 26.7148L112.637 27.9844C109.99 27.4473 107.197 25.6504 106.074 23.1406C104.932 25.6406 102.158 27.4473 99.5117 27.9844L98.8281 26.7148C101.855 26.1875 105.254 23.6484 105.254 20.7383V19.4102H106.855V20.7383Z" fill="#222222"/>
</svg>
