<svg width="396" height="72" viewBox="0 0 396 72" fill="none" xmlns="http://www.w3.org/2000/svg">
<path d="M17.9268 7.99414V14.8789H21.0029V5.5918H24.1084V30.3184H21.0029V17.5156H17.9268V24.7812H7.52637V7.99414H17.9268ZM10.5732 10.5723V22.2031H14.8799V10.5723H10.5732ZM29.5576 5.12305V31.6074H26.4229V5.12305H29.5576ZM54.6943 5.15234V24.2832H51.4131V5.15234H54.6943ZM55.4268 28.4434V31.0801H37.1748V22.3496H40.4561V28.4434H55.4268ZM40.251 6.88086C44.2646 6.88086 47.3701 9.66406 47.3701 13.502C47.3701 17.4277 44.2646 20.1523 40.251 20.1523C36.208 20.1523 33.1025 17.4277 33.1025 13.502C33.1025 9.66406 36.208 6.88086 40.251 6.88086ZM40.251 9.72266C37.9951 9.72266 36.2666 11.2168 36.2959 13.502C36.2666 15.8457 37.9951 17.3105 40.251 17.3105C42.4482 17.3105 44.1768 15.8457 44.1768 13.502C44.1768 11.2168 42.4482 9.72266 40.251 9.72266ZM88.6787 5.12305V31.6074H85.5732V5.12305H88.6787ZM83.4053 5.67969V30.2891H80.2998V17.8086H77.3701V14.9082H80.2998V5.67969H83.4053ZM78.0439 8.25781V10.8945H76.1689V22.3203C77.0039 22.2471 77.7949 22.1592 78.542 22.0566L78.7471 24.4297C74.5869 25.2793 69.1377 25.3672 65.7686 25.3672L65.3877 22.6719L67.79 22.6426V10.8945H65.915V8.25781H78.0439ZM70.7197 22.584L73.1807 22.4961V10.8945H70.7197V22.584ZM113.64 5.12305V31.6367H110.358V5.12305H113.64ZM99.3721 7.05664C103.356 7.05664 106.257 10.6895 106.286 16.4023C106.257 22.1738 103.356 25.7773 99.3721 25.7773C95.3584 25.7773 92.458 22.1738 92.458 16.4023C92.458 10.6895 95.3584 7.05664 99.3721 7.05664ZM99.3721 9.98633C97.1162 9.98633 95.5928 12.3594 95.5928 16.4023C95.5928 20.4746 97.1162 22.8477 99.3721 22.8477C101.599 22.8477 103.122 20.4746 103.122 16.4023C103.122 12.3594 101.599 9.98633 99.3721 9.98633ZM127.526 12.6523C127.526 16.9883 130.075 21.5586 134.353 23.3457L132.565 25.9238C129.431 24.5762 127.146 21.793 125.944 18.4238C124.714 22.0566 122.399 25.1035 119.294 26.5684L117.419 24.0195C121.608 22.0859 124.216 17.1641 124.216 12.6523V10.4258H118.386V7.73047H133.327V10.4258H127.526V12.6523ZM139.567 5.12305V31.6074H136.286V5.12305H139.567ZM167.663 25.8359V28.5312H143.464V25.8359H153.894V21.5293H146.335V12.8574H161.569V9.57617H146.276V6.93945H164.792V15.4355H149.587V18.8633H165.407V21.5293H157.116V25.8359H167.663ZM197.81 11.5684V14.1465H190.192V16.168H200.651V18.7461H176.511V16.168H186.94V14.1465H179.587V6.06055H197.575V8.69727H182.839V11.5684H197.81ZM197.634 20.4453V26.8906H182.575V28.8535H198.366V31.3438H179.382V24.6055H194.44V22.8477H179.353V20.4453H197.634ZM209.558 7.05664C213.542 7.05664 216.413 10.6895 216.442 16.4023C216.413 22.1738 213.542 25.7773 209.558 25.7773C205.544 25.7773 202.644 22.1738 202.673 16.4023C202.644 10.6895 205.544 7.05664 209.558 7.05664ZM209.558 9.98633C207.331 9.98633 205.808 12.3594 205.808 16.4023C205.808 20.4746 207.331 22.8477 209.558 22.8477C211.813 22.8477 213.308 20.4746 213.308 16.4023C213.308 12.3594 211.813 9.98633 209.558 9.98633ZM223.181 5.12305V15.2891H227.253V18.043H223.181V31.6074H219.929V5.12305H223.181ZM249.108 5.12305V15.4648H253.034V18.1895H249.108V31.5488H245.856V5.12305H249.108ZM242.106 7.87695C242.106 15.6699 238.884 22.4961 230.065 26.832L228.22 24.3125C234.665 21.1045 238.151 16.5928 238.825 10.5723H229.655V7.87695H242.106ZM276.413 5.12305V31.6074H273.132V5.12305H276.413ZM268.503 7.93555C268.503 15.8164 265.456 22.5254 256.169 26.9199L254.47 24.3125C261.398 21.0166 264.621 16.5342 265.192 10.5137H255.817V7.93555H268.503ZM309.548 5.15234V25.1914H306.267V22.877H301.081V20.5918H306.267V5.15234H309.548ZM310.163 28.4434V31.0801H290.739V23.2578H293.991V28.4434H310.163ZM287.224 17.0469C292.116 17.0176 298.679 16.959 304.304 16.2559L304.479 18.5996C302.297 18.9658 300.041 19.2148 297.8 19.3613V24.459H294.548V19.5371C292.072 19.6396 289.714 19.6543 287.634 19.6543L287.224 17.0469ZM295.866 6.11914C299.733 6.11914 302.429 8.02344 302.458 10.8066C302.429 13.6484 299.733 15.4648 295.866 15.4648C291.94 15.4648 289.245 13.6484 289.245 10.8066C289.245 8.02344 291.94 6.11914 295.866 6.11914ZM295.866 8.52148C293.757 8.52148 292.321 9.37109 292.321 10.8066C292.321 12.2422 293.757 13.0918 295.866 13.0918C297.888 13.0918 299.323 12.2422 299.353 10.8066C299.323 9.37109 297.888 8.52148 295.866 8.52148ZM334.157 5.15234V13.4727H337.849V16.168H334.157V24.9277H330.905V5.15234H334.157ZM329.001 8.08203V10.6895H313.298V8.08203H319.538V5.12305H322.79V8.08203H329.001ZM321.149 11.7734C324.958 11.7734 327.595 13.7949 327.624 16.8418C327.595 19.8594 324.958 21.8516 321.149 21.8516C317.312 21.8516 314.646 19.8594 314.646 16.8418C314.646 13.7949 317.312 11.7734 321.149 11.7734ZM321.149 14.293C319.128 14.293 317.81 15.2305 317.81 16.8418C317.81 18.4238 319.128 19.3613 321.149 19.332C323.171 19.3613 324.519 18.4238 324.519 16.8418C324.519 15.2305 323.171 14.293 321.149 14.293ZM335.212 28.4434V31.0801H317.194V23.375H320.446V28.4434H335.212ZM359.938 5.12305V15.1719H364.011V17.8379H359.938V31.6367H356.687V5.12305H359.938ZM352.673 7.64258V10.2793H343.532V22.4375C347.648 22.4375 350.9 22.2324 354.548 21.5879L354.929 24.3418C350.827 25.0449 347.253 25.1621 342.478 25.1621H340.28V7.64258H352.673ZM378.718 7.34961V9.45898H384.05V5.15234H387.302V24.4297H384.05V17.75H378.718V20.0352H366.267V7.34961H378.718ZM369.519 9.92773V17.4863H375.495V9.92773H369.519ZM387.888 28.4434V31.0801H369.841V22.6426H373.151V28.4434H387.888ZM378.718 15.1426H384.05V12.125H378.718V15.1426ZM53.4053 47.5684V50.1465H35.1826V42.0605H53.1709V44.6973H38.4346V47.5684H53.4053ZM56.2471 51.8164V54.3945H45.7588V56.4453H53.2295V62.8906H38.1709V64.8535H53.9619V67.3438H34.9775V60.6055H50.0361V58.8477H34.9482V56.4453H42.5361V54.3945H32.1064V51.8164H56.2471ZM80.2119 41.123V67.6367H76.96V53.5449H72.4189V50.8789H76.96V41.123H80.2119ZM70.8955 43.4375V53.1348H62.2236V58.7012C66.1494 58.6865 69.3281 58.5547 72.8877 57.9102L73.1514 60.5762C69.1963 61.2793 65.6807 61.4258 61.1104 61.4258H59.001V50.498H67.7021V46.0742H58.9131V43.4375H70.8955ZM108.161 61.748V64.4141H83.9619V61.748H94.3916V56.5918H86.6279V42.8809H89.8799V47.2168H102.155V42.8809H105.407V56.5918H97.6143V61.748H108.161ZM89.8799 53.9551H102.155V49.8242H89.8799V53.9551ZM132.009 41.123V67.6074H128.728V41.123H132.009ZM124.099 43.9355C124.099 51.8164 121.052 58.5254 111.765 62.9199L110.065 60.3125C116.994 57.0166 120.217 52.5342 120.788 46.5137H111.413V43.9355H124.099ZM165.144 41.123V67.6367H161.921V53.2812H156.53V61.2207H143.933V43.1738H147.214V49.7656H153.337V43.1738H156.53V50.6152H161.921V41.123H165.144ZM147.214 58.6133H153.337V52.3145H147.214V58.6133ZM193.005 55.5664V58.1445H168.806V55.5664H193.005ZM190.515 64.4434V67.0801H171.853V59.668H175.046V64.4434H190.515ZM190.31 51.1426V53.6328H171.911V42.0312H190.104V44.5508H175.163V46.6016H189.46V49.0332H175.163V51.1426H190.31ZM206.833 41.5332C212.868 41.5332 216.354 43.1445 216.384 46.0742C216.354 49.0332 212.868 50.6152 206.833 50.6445C200.798 50.6152 197.282 49.0332 197.282 46.0742C197.282 43.1445 200.798 41.5332 206.833 41.5332ZM206.833 43.9355C202.79 43.9355 200.681 44.6973 200.71 46.0742C200.681 47.5391 202.79 48.2129 206.833 48.2129C210.935 48.2129 213.015 47.5391 213.015 46.0742C213.015 44.6973 210.935 43.9355 206.833 43.9355ZM218.933 52.0508V54.6582H194.792V52.0508H218.933ZM215.915 56.4453V62.9199H200.856V64.8828H216.647V67.373H197.663V60.6055H212.722V58.8477H197.634V56.4453H215.915ZM249.226 46.8359V49.4434H230.944V41.4746H234.138V46.8359H249.226ZM252.009 51.2305V53.8672H241.462V56.1816H249.05V62.7734H233.991V64.8535H249.929V67.373H230.71V60.4883H245.827V58.6426H230.681V56.1816H238.269V53.8672H227.81V51.2305H252.009ZM275.944 41.123V67.6367H272.692V53.5449H268.151V50.8789H272.692V41.123H275.944ZM266.628 43.4375V53.1348H257.956V58.7012C261.882 58.6865 265.061 58.5547 268.62 57.9102L268.884 60.5762C264.929 61.2793 261.413 61.4258 256.843 61.4258H254.733V50.498H263.435V46.0742H254.646V43.4375H266.628ZM303.835 55.8887V58.5254H293.317V67.5781H290.095V58.5254H279.694V55.8887H303.835ZM301.608 42.6172V45.1953H293.669C293.859 48.0957 297.346 50.8789 302.575 51.5527L301.403 54.1016C296.892 53.4717 293.376 51.4062 291.765 48.5352C290.153 51.4062 286.638 53.4717 282.185 54.1016L280.954 51.5527C286.154 50.8789 289.641 48.0957 289.89 45.1953H281.921V42.6172H301.608ZM313.884 48.0664C313.884 52.3438 315.378 56.7969 318.952 59.0527L317.165 61.543C314.777 60.1074 313.225 57.6318 312.36 54.7168C311.394 57.9248 309.694 60.6348 307.204 62.1582L305.183 59.7266C309.021 57.3828 310.749 52.7246 310.749 48.2129V43.4668H313.884V48.0664ZM328.474 41.123V67.6074H325.339V41.123H328.474ZM322.966 41.5918V66.3184H319.89V52.9297H316.11V50.2344H319.89V41.5918H322.966ZM355.749 61.7188V64.3848H331.55V61.7188H337.146V55.0098C335.036 53.8086 333.762 51.9189 333.776 49.5605C333.747 45.3418 337.907 42.5586 343.591 42.5586C349.304 42.5586 353.464 45.3418 353.464 49.5605C353.464 51.875 352.233 53.7354 350.183 54.9512V61.7188H355.749ZM343.591 45.1367C339.636 45.1367 336.94 46.8066 336.97 49.5605C336.94 52.2852 339.636 53.9844 343.591 53.9844C347.546 53.9844 350.271 52.2852 350.271 49.5605C350.271 46.8066 347.546 45.1367 343.591 45.1367ZM340.368 61.7188H346.872V56.1816C345.861 56.416 344.763 56.5332 343.591 56.5332C342.448 56.5332 341.364 56.416 340.368 56.2109V61.7188ZM360.7 65.2344C359.44 65.2344 358.415 64.209 358.415 62.9492C358.415 61.7188 359.44 60.6934 360.7 60.6934C361.901 60.6934 362.956 61.7188 362.956 62.9492C362.956 64.209 361.901 65.2344 360.7 65.2344Z" fill="#222222"/>
</svg>
