<svg width="400" height="100" viewBox="0 0 613 100" fill="none" xmlns="http://www.w3.org/2000/svg">
<path d="M226.754 8.75586C226.754 12.8574 230.768 16.959 236.305 17.9258L234.84 20.6504C230.401 19.7129 226.769 17.0322 225.055 13.4727C223.297 17.0029 219.664 19.6982 215.24 20.6504L213.805 17.9258C219.283 16.9297 223.268 12.8281 223.297 8.75586V6.79297H226.754V8.75586ZM237.271 25.543V28.2383H213.072V25.543H237.271ZM260.475 7.58398V10.748C260.475 14.5859 260.475 18.248 259.303 23.8438L256.051 23.5508C256.593 21.2363 256.9 19.2002 257.076 17.3105L241.461 18.1309L241.021 15.4941L257.223 14.8789C257.281 13.458 257.281 12.0957 257.281 10.748V10.2207H241.812V7.58398H260.475ZM263.141 25.5723V28.2383H239V25.5723H263.141ZM287.574 5.15234V19.8301H284.469V13.7656H281.715V19.625H278.668V5.5918H281.715V11.1875H284.469V5.15234H287.574ZM272.926 20.9727V23.4629H284.352V20.9727H287.574V31.2852H269.703V20.9727H272.926ZM272.926 28.6484H284.352V26.0117H272.926V28.6484ZM276.09 6.58789V13.8535H269.205V16.4023C272.281 16.373 274.625 16.2705 277.32 15.7285L277.613 18.3359C274.42 18.9219 271.725 19.0391 267.857 19.0391H266.041V11.4512H272.955V9.16602H266.012V6.58789H276.09ZM320.182 5.12305V31.6367H316.93V17.1641H311.832V14.498H316.93V5.12305H320.182ZM307.701 12.1543C307.701 16.7246 310.162 21.5879 314.439 23.4336L312.506 26.041C309.43 24.5762 307.232 21.6318 306.09 18.1309C304.903 21.8662 302.662 25.0156 299.586 26.5684L297.623 24.0195C301.871 22.0273 304.361 16.9883 304.391 12.1543V10.3965H298.707V7.73047H313.385V10.3965H307.701V12.1543ZM333.395 9.89844C333.395 13.1504 335.504 16.1973 339.635 17.457L338.082 20.0059C335.108 19.083 332.999 17.1934 331.842 14.791C330.67 17.5742 328.429 19.7861 325.25 20.8555L323.609 18.2773C327.887 16.8711 330.113 13.4434 330.113 9.92773V9.60547H324.518V6.96875H338.902V9.60547H333.395V9.89844ZM344.791 5.12305V11.4805H348.482V14.1465H344.791V20.9141H341.539V5.12305H344.791ZM336.178 21.5C341.656 21.5 345.025 23.3457 345.055 26.5098C345.025 29.7031 341.656 31.5781 336.178 31.5781C330.641 31.5781 327.213 29.7031 327.213 26.5098C327.213 23.3457 330.641 21.5 336.178 21.5ZM336.178 24.0488C332.545 24.0488 330.465 24.8984 330.465 26.5098C330.465 28.1504 332.545 29.0293 336.178 29.0293C339.811 29.0293 341.832 28.1504 341.832 26.5098C341.832 24.8984 339.811 24.0488 336.178 24.0488ZM370.572 5.12305V15.6699H374.645V18.3652H370.572V31.6074H367.35V5.12305H370.572ZM365.299 9.19531V11.8027H349.684V9.19531H355.953V5.50391H359.205V9.19531H365.299ZM357.594 13.5312C361.402 13.5312 364.244 16.1094 364.244 19.7715C364.244 23.4336 361.402 25.9824 357.594 25.9824C353.727 25.9824 350.885 23.4336 350.914 19.7715C350.885 16.1094 353.727 13.5312 357.594 13.5312ZM357.594 16.1973C355.514 16.1973 354.02 17.6035 354.02 19.7715C354.02 21.9395 355.514 23.3164 357.594 23.2871C359.615 23.3164 361.109 21.9395 361.139 19.7715C361.109 17.6035 359.615 16.1973 357.594 16.1973ZM397.877 5.12305V31.6074H394.596V5.12305H397.877ZM389.967 7.93555C389.967 15.8164 386.92 22.5254 377.633 26.9199L375.934 24.3125C382.862 21.0166 386.085 16.5342 386.656 10.5137H377.281V7.93555H389.967Z" fill="#222222"/>
<path d="M185.874 49.3906V50.7607H182.796V54.6689H185.806V56.0166H179.36V57.9707H187.603V59.3857H169.41V57.9707H177.608V56.0166H171.184V54.6689H174.194V50.7607H171.117V49.3906H185.874ZM185.267 60.9805V65.2705H173.408V67.2471H185.874V68.5947H171.656V63.9902H183.538V62.2832H171.611V60.9805H185.267ZM175.946 54.6689H181.044V50.7607H175.946V54.6689ZM199.462 50.7607V52.2432H192.073V62.418C195.667 62.418 198.047 62.2944 200.81 61.7666L201.035 63.2266C198.092 63.7881 195.667 63.9229 191.826 63.9229H190.298V50.7607H199.462ZM205.864 48.8516V68.8643H204.089V57.5889H198.272V56.1289H204.089V48.8516H205.864ZM227.426 58.1279V59.5205H209.143V58.1279H227.426ZM225.135 61.1152V65.3604H213.141V67.2695H225.787V68.5498H211.367V64.1475H223.383V62.4404H211.344V61.1152H225.135ZM225.068 49.458V53.5908H213.276V55.3428H225.427V56.623H211.524V52.3779H223.293V50.7383H211.457V49.458H225.068ZM241.644 52.625C241.644 55.4102 243.666 58.0381 246.585 59.0938L245.597 60.4639C243.407 59.5879 241.667 57.8472 240.813 55.6797C239.959 58.0942 238.14 60.0146 235.782 60.958L234.838 59.5205C237.826 58.4199 239.892 55.6348 239.915 52.5576V50.0869H241.644V52.625ZM251.37 48.874V63.833H249.595V55.0508H245.148V53.5684H249.595V48.874H251.37ZM251.819 66.9102V68.3926H238.455V62.126H240.229V66.9102H251.819ZM263.341 50.3115V51.7939H257.277V54.2871H263.117V55.6797H257.277V58.4424C260.186 58.4312 262.005 58.3301 264.15 57.9033L264.33 59.3633C261.994 59.8125 260.107 59.9248 256.85 59.9248H255.592V50.3115H263.341ZM271.652 48.874V60.9805H269.967V55.5225H267.16V60.8457H265.52V49.2559H267.16V54.085H269.967V48.874H271.652ZM271.652 62.0137V68.8193H269.922V63.4512H258.198V62.0137H271.652ZM284.544 52.3105V53.748H274.527V52.3105H278.682V49.458H280.434V52.3105H284.544ZM279.536 55.0957C282.051 55.0957 283.848 56.9824 283.871 59.6328C283.848 62.3057 282.051 64.2148 279.536 64.2148C277.042 64.2148 275.246 62.3057 275.246 59.6328C275.246 56.9824 277.042 55.0957 279.536 55.0957ZM279.536 56.5781C277.963 56.6006 276.818 57.8809 276.818 59.6328C276.818 61.4072 277.963 62.6875 279.536 62.665C281.13 62.6875 282.298 61.4072 282.298 59.6328C282.298 57.8809 281.13 56.6006 279.536 56.5781ZM291.575 48.8516V68.8193H289.89V58.7344H287.24V67.8311H285.578V49.3457H287.24V57.2744H289.89V48.8516H291.575ZM301.48 54.2197C301.48 57.8359 303.793 61.4746 306.691 62.7998L305.635 64.2373C303.367 63.0693 301.491 60.6772 300.604 57.8359C299.717 60.8232 297.841 63.3838 295.573 64.5967L294.427 63.1816C297.347 61.7441 299.683 57.9033 299.683 54.2197V50.5811H301.48V54.2197ZM311.003 48.8516V68.8643H309.251V57.1172H304.512V55.6797H309.251V48.8516H311.003ZM336.654 48.8516V68.8643H334.879V57.5889H330.5V56.1289H334.879V48.8516H336.654ZM327.018 54.7812C327.018 58.1055 329.399 61.7217 332.319 63.0469L331.263 64.4619C328.983 63.3501 327.063 60.9355 326.165 58.1504C325.244 61.104 323.278 63.6646 320.999 64.8662L319.92 63.4961C322.818 62.0811 325.221 58.3301 325.244 54.7812V52.3779H320.684V50.918H331.6V52.3779H327.018V54.7812ZM346.739 52.6475C346.739 55.2529 348.693 57.5889 351.635 58.5547L350.804 59.9473C348.502 59.1948 346.761 57.6001 345.908 55.5898C345.043 57.8809 343.201 59.6665 340.809 60.5312L339.911 59.1162C342.898 58.1055 344.987 55.5225 345.009 52.6475V51.7939H340.45V50.334H351.231V51.7939H346.739V52.6475ZM355.588 48.8516V53.9502H358.598V55.4326H355.588V60.9131H353.836V48.8516H355.588ZM349.187 61.4521C353.297 61.4521 355.768 62.7998 355.768 65.0908C355.768 67.4268 353.297 68.7744 349.187 68.7744C345.077 68.7744 342.561 67.4268 342.561 65.0908C342.561 62.7998 345.077 61.4521 349.187 61.4521ZM349.187 62.8672C346.177 62.8672 344.313 63.6982 344.335 65.0908C344.313 66.5283 346.177 67.3594 349.187 67.3594C352.219 67.3594 354.061 66.5283 354.061 65.0908C354.061 63.6982 352.219 62.8672 349.187 62.8672ZM369.829 52.3105V53.748H359.811V52.3105H363.966V49.458H365.718V52.3105H369.829ZM364.82 55.0957C367.335 55.0957 369.132 56.9824 369.155 59.6328C369.132 62.3057 367.335 64.2148 364.82 64.2148C362.327 64.2148 360.53 62.3057 360.53 59.6328C360.53 56.9824 362.327 55.0957 364.82 55.0957ZM364.82 56.5781C363.248 56.6006 362.102 57.8809 362.102 59.6328C362.102 61.4072 363.248 62.6875 364.82 62.665C366.415 62.6875 367.583 61.4072 367.583 59.6328C367.583 57.8809 366.415 56.6006 364.82 56.5781ZM376.859 48.8516V68.8193H375.174V58.7344H372.524V67.8311H370.862V49.3457H372.524V57.2744H375.174V48.8516H376.859ZM389.819 51.6816C389.796 54.3545 393.368 56.623 396.849 57.1396L396.198 58.5322C393.076 58.0044 390.043 56.3423 388.831 53.9277C387.618 56.3423 384.574 58.0044 381.508 58.5322L380.812 57.1396C384.271 56.623 387.842 54.3545 387.842 51.6816V51.5469H381.441V50.1094H396.198V51.5469H389.819V51.6816ZM397.927 60.2393V61.6992H389.662V68.8193H387.932V61.6992H379.734V60.2393H397.927ZM405.542 54.5342C405.542 57.7012 407.091 61.1377 409.742 62.71L408.731 64.0801C406.811 62.9121 405.429 60.7783 404.733 58.3525C403.992 61.0029 402.509 63.2827 400.51 64.5068L399.387 63.1816C402.15 61.5645 403.834 58.0156 403.834 54.6016V50.7383H405.542V54.5342ZM416.727 48.8516V68.8193H415.02V48.8516H416.727ZM412.594 49.2783V67.8086H410.932V57.5215H407.541V56.0166H410.932V49.2783H412.594ZM437.773 64.7764V66.2588H419.49V64.7764H424.027V59.3857C422.32 58.4985 421.287 57.061 421.287 55.2529C421.287 52.1533 424.319 50.1318 428.586 50.1094C432.854 50.1318 435.886 52.1533 435.886 55.2529C435.886 57.0273 434.887 58.4536 433.236 59.3408V64.7764H437.773ZM428.586 51.5693C425.307 51.5469 422.994 53.0293 422.994 55.2529C422.994 57.4766 425.307 58.9814 428.586 58.9814C431.843 58.9814 434.179 57.4766 434.179 55.2529C434.179 53.0293 431.843 51.5469 428.586 51.5693ZM425.756 64.7764H431.461V60.0146C430.597 60.2505 429.631 60.374 428.586 60.374C427.564 60.374 426.61 60.2617 425.756 60.0371V64.7764ZM441.479 67.1348C440.693 67.1348 440.019 66.4834 440.042 65.6748C440.019 64.8887 440.693 64.2373 441.479 64.2373C442.265 64.2373 442.917 64.8887 442.917 65.6748C442.917 66.4834 442.265 67.1348 441.479 67.1348Z" fill="#222222" fill-opacity="0.7"/>
<line x1="8.74228e-08" y1="99" x2="613" y2="99.0001" stroke="#DFDFDF" stroke-width="2"/>
</svg>
