<svg width="36" height="28" viewBox="0 0 36 28" fill="none" xmlns="http://www.w3.org/2000/svg">
<g filter="url(#filter0_d_661_3353)">
<path d="M2.69359 9.83984H31.3064C32.2412 9.83984 33 10.596 33 11.5276V22.5951H1V11.5276C1 10.596 1.7588 9.83984 2.69359 9.83984Z" fill="#B3B3B3"/>
<path d="M31.0956 1H3.01172V22.5944H31.0956V1Z" fill="white"/>
<path d="M25.0549 13.3066C24.0309 13.3066 23.0663 13.9146 22.44 14.9487L22.3829 15.0423C21.7589 16.079 20.792 16.6844 19.768 16.6844H14.2251C13.2011 16.6844 12.2366 16.0764 11.6103 15.0423L11.5531 14.9487C10.9291 13.912 9.96229 13.3066 8.93829 13.3066H1V24.0479H33V13.3066H25.0549Z" fill="#CFCFCF"/>
</g>
<defs>
<filter id="filter0_d_661_3353" x="0" y="0" width="36" height="27.0479" filterUnits="userSpaceOnUse" color-interpolation-filters="sRGB">
<feFlood flood-opacity="0" result="BackgroundImageFix"/>
<feColorMatrix in="SourceAlpha" type="matrix" values="0 0 0 0 0 0 0 0 0 0 0 0 0 0 0 0 0 0 127 0" result="hardAlpha"/>
<feOffset dx="1" dy="1"/>
<feGaussianBlur stdDeviation="1"/>
<feComposite in2="hardAlpha" operator="out"/>
<feColorMatrix type="matrix" values="0 0 0 0 0 0 0 0 0 0 0 0 0 0 0 0 0 0 0.2 0"/>
<feBlend mode="normal" in2="BackgroundImageFix" result="effect1_dropShadow_661_3353"/>
<feBlend mode="normal" in="SourceGraphic" in2="effect1_dropShadow_661_3353" result="shape"/>
</filter>
</defs>
</svg>
