<svg width="195" height="54" viewBox="0 0 195 54" fill="none" xmlns="http://www.w3.org/2000/svg">
<rect x="13.5" y="0.5" width="168" height="53" rx="9.5" stroke="#222222"/>
<path d="M74.1211 34V21.2734H76.4062V26.6699H82.3301V21.2734H84.6328V34H82.3301V28.5859H76.4062V34H74.1211ZM91.0488 34.1934C88.2715 34.1934 86.4785 32.2246 86.4785 29.2715C86.4785 26.3008 88.2715 24.332 91.0488 24.332C93.8438 24.332 95.6191 26.3008 95.6191 29.2715C95.6191 32.2246 93.8438 34.1934 91.0488 34.1934ZM91.0664 32.4004C92.5957 32.4004 93.3516 31.0117 93.3516 29.2539C93.3516 27.5137 92.5957 26.1074 91.0664 26.1074C89.502 26.1074 88.7461 27.5137 88.7461 29.2539C88.7461 31.0117 89.502 32.4004 91.0664 32.4004ZM97.3594 34V24.4551H99.5039V26.0723H99.627C100.014 24.9824 100.98 24.332 102.246 24.332C103.547 24.332 104.461 24.9824 104.83 26.0723H104.936C105.357 25.0176 106.412 24.332 107.801 24.332C109.541 24.332 110.771 25.457 110.771 27.584V34H108.539V27.9355C108.539 26.7402 107.818 26.2129 106.904 26.2129C105.797 26.2129 105.164 26.9688 105.164 28.041V34H102.984V27.8477C102.984 26.8633 102.316 26.2129 101.367 26.2129C100.4 26.2129 99.6094 27.0039 99.6094 28.1992V34H97.3594ZM117.152 34.1934C114.27 34.1934 112.512 32.2773 112.512 29.2891C112.512 26.3359 114.305 24.332 117.029 24.332C119.367 24.332 121.389 25.791 121.389 29.1484V29.8516H114.727C114.753 31.4775 115.711 32.4355 117.17 32.4355C118.154 32.4355 118.822 32.0137 119.104 31.4512H121.301C120.896 33.1035 119.367 34.1934 117.152 34.1934ZM114.744 28.3223H119.244C119.227 27.0215 118.365 26.0723 117.064 26.0723C115.711 26.0723 114.814 27.1006 114.744 28.3223Z" fill="#222222"/>
</svg>
