<svg width="492" height="85" viewBox="0 0 492 85" fill="none" xmlns="http://www.w3.org/2000/svg">
<g filter="url(#filter0_d_572_5)">
<rect width="484" height="77" rx="15" fill="#F4F4F4"/>
</g>
<path fill-rule="evenodd" clip-rule="evenodd" d="M458.281 40.2808C458.395 40.2191 458.502 40.1401 458.598 40.0438C459.134 39.508 459.134 38.6393 458.598 38.1035L448.897 28.4019C448.361 27.866 447.492 27.866 446.956 28.4019C446.42 28.9377 446.42 29.8064 446.956 30.3422L455.688 39.0737L446.402 48.3595C445.866 48.8953 445.866 49.764 446.402 50.2998C446.938 50.8356 447.806 50.8356 448.342 50.2998L458.044 40.5982C458.14 40.5018 458.219 40.3947 458.281 40.2808Z" fill="#A4A4A4"/>
<path d="M80.2734 34.9844C80.25 38.7578 82.1484 42.6016 85.4297 44.1719L83.8359 46.2578C81.5391 45.0977 79.8867 42.8594 78.9844 40.1641C78.0586 43.0469 76.3242 45.4375 73.8984 46.6562L72.3047 44.5703C75.7031 42.9531 77.6484 38.8984 77.6719 34.9844V31.6094H80.2734V34.9844ZM89.2969 29.8984V38.1953H92.5547V40.4219H89.2969V51.0859H86.6953V29.8984H89.2969ZM112.758 40.0938V42.1797H93.4453V40.0938H97.9453V37.3984C96.3516 36.7305 95.4375 35.6641 95.4375 34.2812C95.4375 31.75 98.4141 30.25 103.078 30.25C107.742 30.25 110.695 31.75 110.719 34.2812C110.707 35.6758 109.793 36.7422 108.188 37.3984V40.0938H112.758ZM103.078 43.4688C107.648 43.4453 110.391 44.8047 110.414 47.2422C110.391 49.7031 107.648 51.0391 103.078 51.0391C98.4609 51.0391 95.6953 49.7031 95.6953 47.2422C95.6953 44.8047 98.4609 43.4453 103.078 43.4688ZM103.078 45.4375C99.9844 45.4375 98.3203 46.0469 98.3438 47.2422C98.3203 48.4375 99.9844 49.0703 103.078 49.0703C106.102 49.0703 107.789 48.4375 107.812 47.2422C107.789 46.0469 106.102 45.4375 103.078 45.4375ZM103.078 32.2656C99.9375 32.2656 98.1328 32.9688 98.1562 34.2812C98.1328 35.5703 99.9375 36.25 103.078 36.25C106.195 36.25 108.023 35.5703 108.023 34.2812C108.023 32.9688 106.195 32.2656 103.078 32.2656ZM100.57 40.0938H105.586V38.0781C104.824 38.1836 103.98 38.2422 103.078 38.2422C102.176 38.2422 101.332 38.1836 100.57 38.0781V40.0938ZM121.781 35.9219C121.781 39.2031 123.727 42.9297 127.078 44.4766L125.625 46.5391C123.234 45.4141 121.465 43.1406 120.516 40.4922C119.555 43.3984 117.703 45.8828 115.266 47.0547L113.742 45.0156C117.117 43.4219 119.156 39.4375 119.18 35.9219V34.1406H114.562V31.9844H126.211V34.1406H121.781V35.9219ZM130.781 29.8984V38.1484H134.039V40.3281H130.781V51.0859H128.18V29.8984H130.781ZM158.367 29.8984V42.4844H155.766V37.3047H152.156V35.1719H155.766V29.8984H158.367ZM151.195 43.0234C155.695 43.0234 158.438 44.5 158.438 47.0547C158.438 49.6094 155.695 51.0859 151.195 51.0859C146.719 51.0859 143.977 49.6094 144 47.0547C143.977 44.5 146.719 43.0234 151.195 43.0234ZM151.195 45.0156C148.242 45.0156 146.578 45.7188 146.578 47.0547C146.578 48.3672 148.242 49.0703 151.195 49.0703C154.148 49.0703 155.836 48.3672 155.836 47.0547C155.836 45.7188 154.148 45.0156 151.195 45.0156ZM148.406 33.5312C148.406 36.1094 150.117 38.7109 153.398 39.8125L152.086 41.875C149.73 41.0781 148.055 39.4609 147.141 37.4688C146.203 39.7305 144.434 41.5352 141.914 42.4375L140.555 40.375C143.953 39.2031 145.758 36.3438 145.758 33.5547V33.3906H141.352V31.2812H152.789V33.3906H148.406V33.5312ZM180.727 46.3984V48.5312H161.367V46.3984H169.711V42.2734H163.5V31.3047H166.102V34.7734H175.922V31.3047H178.523V42.2734H172.289V46.3984H180.727ZM166.102 40.1641H175.922V36.8594H166.102V40.1641Z" fill="#222222"/>
<defs>
<filter id="filter0_d_572_5" x="0" y="0" width="492" height="85" filterUnits="userSpaceOnUse" color-interpolation-filters="sRGB">
<feFlood flood-opacity="0" result="BackgroundImageFix"/>
<feColorMatrix in="SourceAlpha" type="matrix" values="0 0 0 0 0 0 0 0 0 0 0 0 0 0 0 0 0 0 127 0" result="hardAlpha"/>
<feOffset dx="4" dy="4"/>
<feGaussianBlur stdDeviation="2"/>
<feComposite in2="hardAlpha" operator="out"/>
<feColorMatrix type="matrix" values="0 0 0 0 0 0 0 0 0 0 0 0 0 0 0 0 0 0 0.25 0"/>
<feBlend mode="normal" in2="BackgroundImageFix" result="effect1_dropShadow_572_5"/>
<feBlend mode="normal" in="SourceGraphic" in2="effect1_dropShadow_572_5" result="shape"/>
</filter>
</defs>
</svg>
