<svg width="573" height="56" viewBox="0 0 573 56" fill="none" xmlns="http://www.w3.org/2000/svg">
<path d="M20.6627 9C9.25045 9 0 18.2504 0 29.6627C0 41.075 8.53979 49.5909 19.331 50.2777C19.331 50.2777 20.6687 50.63 20.6687 51.6751V54.3983C20.6687 55.4851 21.7257 56.2555 22.7589 55.9211C28.0081 54.2311 41.3314 48.1158 41.3314 29.6567C41.3195 18.2504 32.069 9 20.6627 9Z" fill="#222222"/>
<path d="M14.7213 41C14.5373 41 14.3763 40.908 14.3303 40.724L8.39627 24.532C8.30427 24.302 8.41927 24.118 8.69527 24.118H12.8353C13.0423 24.118 13.2033 24.21 13.2493 24.417L16.2623 33.893L19.2063 24.417C19.2753 24.21 19.4133 24.118 19.6203 24.118H22.4723C22.6563 24.118 22.7943 24.21 22.8633 24.417L26.0373 33.916L28.8203 24.417C28.8893 24.21 29.0273 24.118 29.2343 24.118H33.3053C33.5583 24.118 33.6963 24.302 33.6043 24.532L27.6703 40.724C27.6013 40.908 27.4633 41 27.2563 41H24.3813C24.1973 41 24.0593 40.908 23.9903 40.701L21.0003 31.041L17.9873 40.701C17.9413 40.908 17.8033 41 17.5963 41H14.7213Z" fill="#E9E9E9"/>
<path d="M85.9734 51C85.5254 51 85.2534 50.808 85.1574 50.424L72.7734 16.632C72.6774 16.376 72.6774 16.168 72.7734 16.008C72.9014 15.848 73.1094 15.768 73.3974 15.768H82.0374C82.5174 15.768 82.8054 15.976 82.9014 16.392L89.1894 36.168L95.3334 16.392C95.4614 15.976 95.7494 15.768 96.1974 15.768H102.149C102.565 15.768 102.837 15.976 102.965 16.392L109.589 36.216L115.397 16.392C115.525 15.976 115.813 15.768 116.261 15.768H124.757C125.013 15.768 125.205 15.848 125.333 16.008C125.461 16.168 125.477 16.376 125.381 16.632L112.997 50.424C112.869 50.808 112.581 51 112.133 51H106.133C105.717 51 105.445 50.792 105.317 50.376L99.0774 30.216L92.7894 50.376C92.6934 50.792 92.4214 51 91.9734 51H85.9734ZM131.236 51C130.724 51 130.468 50.744 130.468 50.232V16.536C130.468 16.024 130.724 15.768 131.236 15.768H138.676C139.188 15.768 139.444 16.024 139.444 16.536V28.776H152.452V16.536C152.452 16.024 152.708 15.768 153.22 15.768H160.66C161.172 15.768 161.428 16.024 161.428 16.536V50.232C161.428 50.744 161.172 51 160.66 51H153.22C152.708 51 152.452 50.744 152.452 50.232V37.224H139.444V50.232C139.444 50.744 139.188 51 138.676 51H131.236ZM167.146 51C166.858 51 166.65 50.92 166.522 50.76C166.426 50.568 166.426 50.36 166.522 50.136L180.394 16.344C180.554 15.96 180.842 15.768 181.258 15.768H187.306C187.754 15.768 188.042 15.96 188.17 16.344L202.042 50.136C202.138 50.36 202.122 50.568 201.994 50.76C201.898 50.92 201.722 51 201.466 51H193.402C192.954 51 192.666 50.792 192.538 50.376L190.618 44.952H177.802L175.882 50.376C175.754 50.792 175.466 51 175.018 51H167.146ZM180.346 37.656H188.026L184.138 26.808L180.346 37.656ZM211.362 51C210.85 51 210.594 50.744 210.594 50.232V24.168H200.466C199.986 24.168 199.746 23.928 199.746 23.448V16.536C199.746 16.024 199.986 15.768 200.466 15.768H229.65C230.162 15.768 230.418 16.024 230.418 16.536V23.448C230.418 23.928 230.162 24.168 229.65 24.168H219.57V50.232C219.57 50.744 219.314 51 218.802 51H211.362ZM236.433 30.168C236.177 30.168 235.985 30.088 235.857 29.928C235.729 29.736 235.713 29.512 235.809 29.256L237.969 23.16C237.201 22.84 236.593 22.344 236.145 21.672C235.697 20.968 235.473 20.168 235.473 19.272C235.473 18.056 235.889 17.064 236.721 16.296C237.585 15.496 238.673 15.096 239.985 15.096C241.297 15.096 242.369 15.496 243.201 16.296C244.033 17.064 244.449 18.056 244.449 19.272C244.449 19.752 244.385 20.28 244.257 20.856C244.129 21.432 243.889 22.168 243.537 23.064C243.185 23.928 242.673 25.08 242.001 26.52L240.513 29.592C240.385 29.976 240.097 30.168 239.649 30.168H236.433ZM262.588 51.672C259.26 51.672 256.412 50.872 254.044 49.272C251.676 47.64 249.996 45.32 249.004 42.312C248.844 41.832 249.02 41.512 249.532 41.352L256.204 39.72C256.652 39.624 256.972 39.784 257.164 40.2C257.708 41.48 258.428 42.408 259.324 42.984C260.252 43.528 261.42 43.8 262.828 43.8C263.98 43.8 264.908 43.608 265.612 43.224C266.348 42.808 266.716 42.2 266.716 41.4C266.716 40.504 266.332 39.8 265.564 39.288C264.828 38.744 263.724 38.216 262.252 37.704L258.604 36.408C255.916 35.48 253.772 34.136 252.172 32.376C250.604 30.616 249.82 28.424 249.82 25.8C249.82 23.688 250.38 21.832 251.5 20.232C252.652 18.632 254.172 17.384 256.06 16.488C257.98 15.56 260.108 15.096 262.444 15.096C265.388 15.096 267.964 15.8 270.172 17.208C272.412 18.584 274.028 20.776 275.02 23.784C275.244 24.296 275.084 24.616 274.54 24.744L267.532 26.616C267.084 26.744 266.764 26.584 266.572 26.136C266.06 24.888 265.436 24.056 264.7 23.64C263.996 23.192 263.196 22.968 262.3 22.968C261.34 22.968 260.54 23.176 259.9 23.592C259.26 24.008 258.94 24.584 258.94 25.32C258.94 26.056 259.308 26.712 260.044 27.288C260.78 27.832 262.044 28.408 263.836 29.016L266.476 29.88C269.612 30.936 271.948 32.328 273.484 34.056C275.02 35.752 275.788 38.056 275.788 40.968C275.788 43.048 275.228 44.904 274.108 46.536C272.988 48.136 271.436 49.4 269.452 50.328C267.468 51.224 265.18 51.672 262.588 51.672ZM309.169 51.672C305.617 51.672 302.497 50.904 299.809 49.368C297.153 47.832 295.073 45.704 293.569 42.984C292.097 40.232 291.361 37.032 291.361 33.384C291.361 30.664 291.809 28.184 292.705 25.944C293.601 23.704 294.849 21.784 296.449 20.184C298.081 18.552 299.985 17.304 302.161 16.44C304.369 15.544 306.753 15.096 309.313 15.096C313.153 15.096 316.417 15.928 319.105 17.592C321.825 19.256 323.777 21.624 324.961 24.696C325.185 25.24 325.025 25.56 324.481 25.656L317.137 27.672C316.721 27.768 316.401 27.624 316.177 27.24C315.473 26.12 314.529 25.256 313.345 24.648C312.161 24.04 310.865 23.736 309.457 23.736C306.769 23.736 304.625 24.6 303.025 26.328C301.425 28.024 300.625 30.392 300.625 33.432C300.625 36.472 301.441 38.84 303.073 40.536C304.705 42.232 306.833 43.08 309.457 43.08C311.505 43.08 313.217 42.632 314.593 41.736C315.969 40.84 316.785 39.528 317.041 37.8H310.273C309.761 37.8 309.505 37.544 309.505 37.032V31.896C309.505 31.384 309.761 31.128 310.273 31.128H325.297C325.809 31.128 326.065 31.384 326.065 31.896V36.024C326.065 38.968 325.409 41.624 324.097 43.992C322.817 46.36 320.913 48.232 318.385 49.608C315.889 50.984 312.817 51.672 309.169 51.672ZM350.029 51.672C347.405 51.672 344.989 51.24 342.781 50.376C340.573 49.48 338.653 48.232 337.021 46.632C335.389 45 334.109 43.064 333.181 40.824C332.285 38.584 331.837 36.104 331.837 33.384C331.837 30.664 332.285 28.184 333.181 25.944C334.109 23.704 335.389 21.784 337.021 20.184C338.653 18.552 340.573 17.304 342.781 16.44C344.989 15.544 347.405 15.096 350.029 15.096C352.653 15.096 355.069 15.544 357.277 16.44C359.485 17.304 361.405 18.552 363.037 20.184C364.669 21.784 365.933 23.704 366.829 25.944C367.757 28.184 368.221 30.664 368.221 33.384C368.221 36.104 367.757 38.584 366.829 40.824C365.933 43.064 364.669 45 363.037 46.632C361.405 48.232 359.485 49.48 357.277 50.376C355.069 51.24 352.653 51.672 350.029 51.672ZM350.029 42.984C351.821 42.984 353.373 42.584 354.685 41.784C356.029 40.952 357.069 39.816 357.805 38.376C358.573 36.936 358.957 35.272 358.957 33.384C358.957 31.496 358.573 29.832 357.805 28.392C357.069 26.952 356.029 25.832 354.685 25.032C353.373 24.2 351.821 23.784 350.029 23.784C348.269 23.784 346.717 24.2 345.373 25.032C344.029 25.832 342.973 26.952 342.205 28.392C341.469 29.832 341.101 31.496 341.101 33.384C341.101 35.272 341.469 36.936 342.205 38.376C342.973 39.816 344.029 40.952 345.373 41.784C346.717 42.584 348.269 42.984 350.029 42.984ZM375.823 51C375.311 51 375.055 50.744 375.055 50.232V16.536C375.055 16.024 375.311 15.768 375.823 15.768H383.263C383.775 15.768 384.031 16.024 384.031 16.536V50.232C384.031 50.744 383.775 51 383.263 51H375.823ZM392.579 51C392.067 51 391.811 50.744 391.811 50.232V16.536C391.811 16.024 392.067 15.768 392.579 15.768H400.355C400.707 15.768 401.011 15.944 401.267 16.296L413.843 37.224V16.536C413.843 16.024 414.099 15.768 414.611 15.768H421.667C422.179 15.768 422.435 16.024 422.435 16.536V50.232C422.435 50.744 422.179 51 421.667 51H413.939C413.523 51 413.219 50.824 413.027 50.472L400.403 29.448V50.232C400.403 50.744 400.147 51 399.635 51H392.579ZM447.025 51.672C443.473 51.672 440.353 50.904 437.665 49.368C435.009 47.832 432.929 45.704 431.425 42.984C429.953 40.232 429.217 37.032 429.217 33.384C429.217 30.664 429.665 28.184 430.561 25.944C431.457 23.704 432.705 21.784 434.305 20.184C435.937 18.552 437.841 17.304 440.017 16.44C442.225 15.544 444.609 15.096 447.169 15.096C451.009 15.096 454.273 15.928 456.961 17.592C459.681 19.256 461.633 21.624 462.817 24.696C463.041 25.24 462.881 25.56 462.337 25.656L454.993 27.672C454.577 27.768 454.257 27.624 454.033 27.24C453.329 26.12 452.385 25.256 451.201 24.648C450.017 24.04 448.721 23.736 447.313 23.736C444.625 23.736 442.481 24.6 440.881 26.328C439.281 28.024 438.481 30.392 438.481 33.432C438.481 36.472 439.297 38.84 440.929 40.536C442.561 42.232 444.689 43.08 447.313 43.08C449.361 43.08 451.073 42.632 452.449 41.736C453.825 40.84 454.641 39.528 454.897 37.8H448.129C447.617 37.8 447.361 37.544 447.361 37.032V31.896C447.361 31.384 447.617 31.128 448.129 31.128H463.153C463.665 31.128 463.921 31.384 463.921 31.896V36.024C463.921 38.968 463.265 41.624 461.953 43.992C460.673 46.36 458.769 48.232 456.241 49.608C453.745 50.984 450.673 51.672 447.025 51.672ZM498.875 51.672C496.251 51.672 493.835 51.24 491.627 50.376C489.419 49.48 487.499 48.232 485.867 46.632C484.235 45 482.955 43.064 482.027 40.824C481.131 38.584 480.683 36.104 480.683 33.384C480.683 30.664 481.131 28.184 482.027 25.944C482.955 23.704 484.235 21.784 485.867 20.184C487.499 18.552 489.419 17.304 491.627 16.44C493.835 15.544 496.251 15.096 498.875 15.096C501.499 15.096 503.915 15.544 506.123 16.44C508.331 17.304 510.251 18.552 511.883 20.184C513.515 21.784 514.779 23.704 515.675 25.944C516.603 28.184 517.067 30.664 517.067 33.384C517.067 36.104 516.603 38.584 515.675 40.824C514.779 43.064 513.515 45 511.883 46.632C510.251 48.232 508.331 49.48 506.123 50.376C503.915 51.24 501.499 51.672 498.875 51.672ZM498.875 42.984C500.667 42.984 502.219 42.584 503.531 41.784C504.875 40.952 505.915 39.816 506.651 38.376C507.419 36.936 507.803 35.272 507.803 33.384C507.803 31.496 507.419 29.832 506.651 28.392C505.915 26.952 504.875 25.832 503.531 25.032C502.219 24.2 500.667 23.784 498.875 23.784C497.115 23.784 495.563 24.2 494.219 25.032C492.875 25.832 491.819 26.952 491.051 28.392C490.315 29.832 489.947 31.496 489.947 33.384C489.947 35.272 490.315 36.936 491.051 38.376C491.819 39.816 492.875 40.952 494.219 41.784C495.563 42.584 497.115 42.984 498.875 42.984ZM524.669 51C524.157 51 523.901 50.744 523.901 50.232V16.536C523.901 16.024 524.157 15.768 524.669 15.768H532.445C532.797 15.768 533.101 15.944 533.357 16.296L545.933 37.224V16.536C545.933 16.024 546.189 15.768 546.701 15.768H553.757C554.269 15.768 554.525 16.024 554.525 16.536V50.232C554.525 50.744 554.269 51 553.757 51H546.029C545.613 51 545.309 50.824 545.117 50.472L532.493 29.448V50.232C532.493 50.744 532.237 51 531.725 51H524.669Z" fill="#222222"/>
</svg>
