<svg width="195" height="54" viewBox="0 0 195 54" fill="none" xmlns="http://www.w3.org/2000/svg">
<rect x="13" width="169" height="54" rx="10" fill="white"/>
<path d="M65.8682 34V21.2734H68.1533V32.0664H73.7783V34H65.8682ZM79.667 34.1934C76.8896 34.1934 75.0967 32.2246 75.0967 29.2715C75.0967 26.3008 76.8896 24.332 79.667 24.332C82.4619 24.332 84.2373 26.3008 84.2373 29.2715C84.2373 32.2246 82.4619 34.1934 79.667 34.1934ZM79.6846 32.4004C81.2139 32.4004 81.9697 31.0117 81.9697 29.2539C81.9697 27.5137 81.2139 26.1074 79.6846 26.1074C78.1201 26.1074 77.3643 27.5137 77.3643 29.2539C77.3643 31.0117 78.1201 32.4004 79.6846 32.4004ZM90.1436 37.7793C87.6123 37.7793 86.0127 36.6543 85.8545 34.8613H88.0869C88.2451 35.6875 89.0361 36.0918 90.1787 36.0918C91.5146 36.0918 92.3936 35.5117 92.3936 34.1055V32.2773H92.2881C91.9365 32.9805 91.1807 33.8594 89.5283 33.8594C87.3311 33.8594 85.5908 32.2598 85.5908 29.1484C85.5908 26.002 87.3311 24.332 89.5459 24.332C91.2334 24.332 91.9365 25.334 92.2881 26.0195H92.3936V24.4551H94.6084V34.1582C94.6084 36.6016 92.7275 37.7793 90.1436 37.7793ZM90.1436 32.1016C91.585 32.1016 92.4111 31.0117 92.4111 29.1836C92.4111 27.373 91.6025 26.1602 90.1436 26.1602C88.6494 26.1602 87.876 27.4434 87.876 29.1836C87.876 30.9414 88.667 32.1016 90.1436 32.1016ZM112.485 27.6367C112.485 31.75 109.989 34.1758 106.649 34.1758C103.31 34.1758 100.813 31.7324 100.813 27.6367C100.813 23.5234 103.31 21.0977 106.649 21.0977C109.989 21.0977 112.485 23.5234 112.485 27.6367ZM110.183 27.6367C110.183 24.7363 108.724 23.1543 106.649 23.1543C104.575 23.1543 103.116 24.7363 103.116 27.6367C103.116 30.5371 104.575 32.1191 106.649 32.1191C108.724 32.1191 110.183 30.5371 110.183 27.6367ZM120.519 29.9922V24.4551H122.751V34H120.589V32.3125H120.483C120.044 33.3672 119.042 34.123 117.618 34.123C115.737 34.123 114.437 32.8223 114.419 30.5371V24.4551H116.669V30.1855C116.669 31.3984 117.39 32.1719 118.479 32.1719C119.464 32.1719 120.519 31.4512 120.519 29.9922ZM129.659 24.4551V26.1777H127.778V31.1348C127.778 32.0488 128.235 32.2422 128.798 32.2422C129.062 32.2422 129.501 32.2246 129.782 32.207V34.0352C129.519 34.0879 129.079 34.123 128.517 34.123C126.829 34.123 125.528 33.2969 125.546 31.5039V26.1777H124.175V24.4551H125.546V22.1699H127.778V24.4551H129.659Z" fill="black"/>
</svg>
