<svg width="1206" height="92" viewBox="0 0 1206 92" fill="none" xmlns="http://www.w3.org/2000/svg">
    <path d="M33.9336 90C32.9736 90 32.1336 89.52 31.8936 88.56L0.933606 4.08C0.453606 2.88 1.05361 1.92 2.49361 1.92H24.0936C25.1736 1.92 26.0136 2.4 26.2536 3.48L41.9736 52.92L57.3336 3.48C57.6936 2.4 58.4136 1.92 59.4936 1.92H74.3736C75.3336 1.92 76.0536 2.4 76.4136 3.48L92.9736 53.04L107.494 3.48C107.854 2.4 108.574 1.92 109.654 1.92H130.894C132.214 1.92 132.934 2.88 132.454 4.08L101.494 88.56C101.134 89.52 100.414 90 99.3336 90H84.3336C83.3736 90 82.6536 89.52 82.2936 88.44L66.6936 38.04L50.9736 88.44C50.7336 89.52 50.0136 90 48.9336 90H33.9336ZM147.091 90C145.891 90 145.171 89.28 145.171 88.08V3.83999C145.171 2.63999 145.891 1.92 147.091 1.92H165.691C166.891 1.92 167.611 2.63999 167.611 3.83999V34.44H200.131V3.83999C200.131 2.63999 200.851 1.92 202.051 1.92H220.651C221.731 1.92 222.571 2.63999 222.571 3.83999V88.08C222.571 89.28 221.731 90 220.651 90H202.051C200.851 90 200.131 89.28 200.131 88.08V55.56H167.611V88.08C167.611 89.28 166.891 90 165.691 90H147.091ZM236.864 90C235.424 90 234.824 89.04 235.304 87.84L269.984 3.35999C270.344 2.4 271.184 1.92 272.144 1.92H287.264C288.344 1.92 289.064 2.4 289.424 3.35999L324.104 87.84C324.584 89.04 323.984 90 322.664 90H302.504C301.424 90 300.704 89.52 300.344 88.44L295.544 74.88H263.504L258.704 88.44C258.344 89.52 257.624 90 256.544 90H236.864ZM269.864 56.64H289.064L279.344 29.52L269.864 56.64ZM347.405 90C346.205 90 345.485 89.28 345.485 88.08V22.92H320.165C318.965 22.92 318.365 22.2 318.365 21.12V3.83999C318.365 2.63999 318.965 1.92 320.165 1.92H393.125C394.325 1.92 395.045 2.63999 395.045 3.83999V21.12C395.045 22.2 394.325 22.92 393.125 22.92H367.925V88.08C367.925 89.28 367.205 90 366.005 90H347.405ZM410.083 37.92C408.763 37.92 408.043 36.96 408.523 35.64L413.923 20.4C410.083 18.72 407.683 15.24 407.683 10.68C407.683 4.56 412.363 0.239997 418.963 0.239997C425.443 0.239997 430.123 4.56 430.123 10.68C430.123 14.4 428.923 18.12 424.003 28.8L420.283 36.48C419.923 37.44 419.083 37.92 418.123 37.92H410.083ZM475.471 91.68C458.791 91.68 446.431 83.4 441.511 68.28C441.151 67.08 441.631 66.24 442.831 65.88L459.511 61.8C460.591 61.56 461.431 61.92 461.911 63C464.551 69.36 468.991 72 476.071 72C481.831 72 485.791 70.08 485.791 66C485.791 61.56 481.951 59.4 474.631 56.76L465.511 53.52C452.071 48.84 443.551 40.08 443.551 27C443.551 11.28 457.591 0.239997 475.111 0.239997C489.871 0.239997 501.631 6.96 506.551 21.96C507.031 23.16 506.431 24.12 505.351 24.36L487.831 29.04C486.631 29.4 485.911 28.92 485.431 27.84C482.791 21.6 479.191 19.92 474.751 19.92C469.951 19.92 466.351 22.08 466.351 25.8C466.351 29.52 469.591 32.04 478.591 35.04L485.191 37.2C500.791 42.48 508.471 50.4 508.471 64.92C508.471 80.52 494.911 91.68 475.471 91.68ZM591.922 91.68C565.282 91.68 547.402 73.2 547.402 45.96C547.402 18.72 566.602 0.239997 592.282 0.239997C611.482 0.239997 625.522 8.87999 631.402 24.24C631.882 25.44 631.402 26.4 630.202 26.64L611.842 31.68C610.762 31.92 610.042 31.56 609.442 30.6C605.962 24.96 599.722 21.84 592.642 21.84C579.202 21.84 570.562 30.84 570.562 46.08C570.562 61.32 579.442 70.2 592.642 70.2C602.842 70.2 610.402 65.52 611.602 57H594.682C593.482 57 592.762 56.28 592.762 55.08V42.24C592.762 41.04 593.482 40.32 594.682 40.32H632.242C633.322 40.32 634.162 41.04 634.162 42.24V52.56C634.162 74.64 619.282 91.68 591.922 91.68ZM694.071 91.68C667.911 91.68 648.591 73.2 648.591 45.96C648.591 18.72 667.911 0.239997 694.071 0.239997C720.231 0.239997 739.551 18.72 739.551 45.96C739.551 73.2 720.231 91.68 694.071 91.68ZM694.071 69.96C707.391 69.96 716.391 60.12 716.391 45.96C716.391 31.8 707.391 21.96 694.071 21.96C680.751 21.96 671.751 31.8 671.751 45.96C671.751 60.12 680.751 69.96 694.071 69.96ZM758.556 90C757.356 90 756.636 89.28 756.636 88.08V3.83999C756.636 2.63999 757.356 1.92 758.556 1.92H777.156C778.356 1.92 779.076 2.63999 779.076 3.83999V88.08C779.076 89.28 778.356 90 777.156 90H758.556ZM800.449 90C799.249 90 798.529 89.28 798.529 88.08V3.83999C798.529 2.63999 799.249 1.92 800.449 1.92H819.889C820.969 1.92 821.569 2.4 822.169 3.23999L853.609 55.56V3.83999C853.609 2.63999 854.329 1.92 855.529 1.92H873.169C874.369 1.92 875.089 2.63999 875.089 3.83999V88.08C875.089 89.28 874.369 90 873.169 90H853.849C852.769 90 852.049 89.52 851.569 88.68L820.009 36.12V88.08C820.009 89.28 819.289 90 818.089 90H800.449ZM936.561 91.68C909.921 91.68 892.041 73.2 892.041 45.96C892.041 18.72 911.241 0.239997 936.921 0.239997C956.121 0.239997 970.161 8.87999 976.041 24.24C976.521 25.44 976.041 26.4 974.841 26.64L956.481 31.68C955.401 31.92 954.681 31.56 954.081 30.6C950.601 24.96 944.361 21.84 937.281 21.84C923.841 21.84 915.201 30.84 915.201 46.08C915.201 61.32 924.081 70.2 937.281 70.2C947.481 70.2 955.041 65.52 956.241 57H939.321C938.121 57 937.401 56.28 937.401 55.08V42.24C937.401 41.04 938.121 40.32 939.321 40.32H976.881C977.961 40.32 978.801 41.04 978.801 42.24V52.56C978.801 74.64 963.921 91.68 936.561 91.68ZM1066.19 91.68C1040.03 91.68 1020.71 73.2 1020.71 45.96C1020.71 18.72 1040.03 0.239997 1066.19 0.239997C1092.35 0.239997 1111.67 18.72 1111.67 45.96C1111.67 73.2 1092.35 91.68 1066.19 91.68ZM1066.19 69.96C1079.51 69.96 1088.51 60.12 1088.51 45.96C1088.51 31.8 1079.51 21.96 1066.19 21.96C1052.87 21.96 1043.87 31.8 1043.87 45.96C1043.87 60.12 1052.87 69.96 1066.19 69.96ZM1130.67 90C1129.47 90 1128.75 89.28 1128.75 88.08V3.83999C1128.75 2.63999 1129.47 1.92 1130.67 1.92H1150.11C1151.19 1.92 1151.79 2.4 1152.39 3.23999L1183.83 55.56V3.83999C1183.83 2.63999 1184.55 1.92 1185.75 1.92H1203.39C1204.59 1.92 1205.31 2.63999 1205.31 3.83999V88.08C1205.31 89.28 1204.59 90 1203.39 90H1184.07C1182.99 90 1182.27 89.52 1181.79 88.68L1150.23 36.12V88.08C1150.23 89.28 1149.51 90 1148.31 90H1130.67Z" fill="#222222"/>
    </svg>
    