<svg width="327" height="51" viewBox="0 0 327 51" fill="none" xmlns="http://www.w3.org/2000/svg">
<rect x="70" width="188" height="51" rx="15" fill="white" fill-opacity="0.5"/>
<rect x="70.5" y="0.5" width="187" height="50" rx="14.5" stroke="#222222" stroke-opacity="0.5"/>
<path d="M107.729 17.082V34.7383H105.639V25.6758H103.744V33.918H101.713V17.5508H103.744V23.918H105.639V17.082H107.729ZM100.209 19.3086C100.209 24.0742 98.7051 28.1758 93.6855 31.0469L92.4355 29.543C96.1953 27.3652 97.7871 24.5723 98.0996 21.0469H93.2559V19.3086H100.209ZM124.564 17.1016V29.8555H122.377V17.1016H124.564ZM125.053 32.6289V34.3867H112.885V28.5664H115.072V32.6289H125.053ZM114.936 18.2539C117.611 18.2539 119.682 20.1094 119.682 22.668C119.682 25.2852 117.611 27.1016 114.936 27.1016C112.24 27.1016 110.17 25.2852 110.17 22.668C110.17 20.1094 112.24 18.2539 114.936 18.2539ZM114.936 20.1484C113.432 20.1484 112.279 21.1445 112.299 22.668C112.279 24.2305 113.432 25.207 114.936 25.207C116.4 25.207 117.553 24.2305 117.553 22.668C117.553 21.1445 116.4 20.1484 114.936 20.1484ZM141.928 17.082V27.5703H139.76V23.2539H136.752V21.4766H139.76V17.082H141.928ZM135.951 28.0195C139.701 28.0195 141.986 29.25 141.986 31.3789C141.986 33.5078 139.701 34.7383 135.951 34.7383C132.221 34.7383 129.936 33.5078 129.955 31.3789C129.936 29.25 132.221 28.0195 135.951 28.0195ZM135.951 29.6797C133.49 29.6797 132.104 30.2656 132.104 31.3789C132.104 32.4727 133.49 33.0586 135.951 33.0586C138.412 33.0586 139.818 32.4727 139.818 31.3789C139.818 30.2656 138.412 29.6797 135.951 29.6797ZM133.627 20.1094C133.627 22.2578 135.053 24.4258 137.787 25.3438L136.693 27.0625C134.73 26.3984 133.334 25.0508 132.572 23.3906C131.791 25.2754 130.316 26.7793 128.217 27.5312L127.084 25.8125C129.916 24.8359 131.42 22.4531 131.42 20.1289V19.9922H127.748V18.2344H137.279V19.9922H133.627V20.1094ZM160.561 30.832V32.6094H144.428V30.832H151.381V27.3945H146.205V18.2539H148.373V21.1445H156.557V18.2539H158.725V27.3945H153.529V30.832H160.561ZM148.373 25.6367H156.557V22.8828H148.373V25.6367ZM175.658 18.5469C175.658 20.7734 178.139 23.0195 181.908 23.5078L181.049 25.2656C178.051 24.8164 175.668 23.3418 174.525 21.3398C173.363 23.3418 170.99 24.8164 168.021 25.2656L167.162 23.5078C170.893 23.0195 173.373 20.7734 173.373 18.5469V17.6484H175.658V18.5469ZM182.553 26.7891V28.5859H175.541V34.7383H173.393V28.5859H166.459V26.7891H182.553ZM198.529 17.082V27.5703H196.361V23.2539H193.354V21.4766H196.361V17.082H198.529ZM192.553 28.0195C196.303 28.0195 198.588 29.25 198.588 31.3789C198.588 33.5078 196.303 34.7383 192.553 34.7383C188.822 34.7383 186.537 33.5078 186.557 31.3789C186.537 29.25 188.822 28.0195 192.553 28.0195ZM192.553 29.6797C190.092 29.6797 188.705 30.2656 188.705 31.3789C188.705 32.4727 190.092 33.0586 192.553 33.0586C195.014 33.0586 196.42 32.4727 196.42 31.3789C196.42 30.2656 195.014 29.6797 192.553 29.6797ZM190.229 20.1094C190.229 22.2578 191.654 24.4258 194.389 25.3438L193.295 27.0625C191.332 26.3984 189.936 25.0508 189.174 23.3906C188.393 25.2754 186.918 26.7793 184.818 27.5312L183.686 25.8125C186.518 24.8359 188.021 22.4531 188.021 20.1289V19.9922H184.35V18.2344H193.881V19.9922H190.229V20.1094ZM214.857 17.082V24.1133H217.572V25.9102H214.857V34.7383H212.709V17.082H214.857ZM211.342 19.7969V21.5352H200.932V19.7969H205.111V17.3359H207.279V19.7969H211.342ZM206.205 22.6875C208.744 22.6875 210.639 24.4062 210.639 26.8477C210.639 29.2891 208.744 30.9883 206.205 30.9883C203.627 30.9883 201.732 29.2891 201.752 26.8477C201.732 24.4062 203.627 22.6875 206.205 22.6875ZM206.205 24.4648C204.818 24.4648 203.822 25.4023 203.822 26.8477C203.822 28.293 204.818 29.2109 206.205 29.1914C207.553 29.2109 208.549 28.293 208.568 26.8477C208.549 25.4023 207.553 24.4648 206.205 24.4648ZM233.061 17.082V34.7383H230.873V17.082H233.061ZM227.787 18.957C227.787 24.2109 225.756 28.6836 219.564 31.6133L218.432 29.875C223.051 27.6777 225.199 24.6895 225.58 20.6758H219.33V18.957H227.787Z" fill="#222222" fill-opacity="0.5"/>
</svg>
