<svg width="216" height="54" viewBox="0 0 216 54" fill="none" xmlns="http://www.w3.org/2000/svg">
<rect x="0.5" y="0.5" width="215" height="53" rx="9.5" stroke="#222222" stroke-opacity="0.7"/>
<path d="M60.5117 18.2188V35.6211H58.9688V18.2188H60.5117ZM48.7344 19.7031V24.293H53.9102V19.7031H55.4141V31.4219H47.2109V19.7031H48.7344ZM48.7344 30.1328H53.9102V25.5234H48.7344V30.1328ZM72.543 19.1953V26.2656H64.3984V19.1953H72.543ZM65.9023 20.4453V25.0547H71.0391V20.4453H65.9023ZM77.7969 18.2188V27.1836H76.293V18.2188H77.7969ZM77.7969 28.043V32.1836H68.0703V34.1367H78.4219V35.3867H66.5469V31.0508H76.293V29.2734H66.5273V28.043H77.7969ZM95.1602 18.2383V31.0898H93.6172V24.4102H89.5156V28.1211H81.6445V19.3906H83.168V22.4766H88.0117V19.3906H89.5156V23.1211H93.6172V18.2383H95.1602ZM95.5508 33.9219V35.2109H83.9297V29.8203H85.4727V33.9219H95.5508ZM83.168 26.8516H88.0117V23.6875H83.168V26.8516ZM113.051 20.7969V22.0664H98.832V20.7969H105.199V18.5117H106.703V20.7969H113.051ZM113.949 32.2812V33.5508H98.0508V32.2812H105.199V29.8398C102.113 29.6738 100.238 28.4727 100.258 26.5195C100.238 24.4492 102.426 23.2383 105.961 23.2578C109.457 23.2383 111.664 24.4492 111.664 26.5195C111.664 28.4727 109.77 29.6738 106.703 29.8398V32.2812H113.949ZM105.961 24.4688C103.363 24.4688 101.781 25.2305 101.801 26.5195C101.781 27.8477 103.363 28.5898 105.961 28.6094C108.52 28.5898 110.102 27.8477 110.102 26.5195C110.102 25.2305 108.52 24.4688 105.961 24.4688ZM135.277 18.2188V35.582H133.793V26.5586H131.43V34.7031H129.965V18.5898H131.43V25.25H133.793V18.2188H135.277ZM125.492 22.9648C125.492 26.1484 126.801 28.9414 129.281 30.2109L128.363 31.4023C126.605 30.4453 125.404 28.7266 124.789 26.5977C124.193 29.0195 122.973 30.9141 121.137 31.9883L120.18 30.8164C122.68 29.4492 124.008 26.4805 124.008 22.9648V21.5781H120.59V20.2891H128.715V21.5781H125.492V22.9648ZM152.035 18.2188V27.2031H150.492V22.6914H146.625V21.4219H150.492V18.2188H152.035ZM152.035 28.082V32.2227H142.328V34.1172H152.68V35.3477H140.824V31.0508H150.512V29.3125H140.785V28.082H152.035ZM143.559 20.4258C143.539 22.7109 145.336 24.7812 147.875 25.6211L147.055 26.8125C145.131 26.1289 143.598 24.7617 142.836 23.0039C142.094 24.9863 140.521 26.5 138.461 27.2422L137.621 26.0117C140.238 25.1523 142.035 22.9648 142.055 20.4258V18.7852H143.559V20.4258ZM169.32 18.2188V28.5703H167.777V24.0195H164.281V22.75H167.777V18.2188H169.32ZM163.559 29.1172C167.172 29.1172 169.379 30.2891 169.379 32.3398C169.379 34.3906 167.172 35.5625 163.559 35.582C159.945 35.5625 157.738 34.3906 157.738 32.3398C157.738 30.2891 159.945 29.1172 163.559 29.1172ZM163.559 30.3086C160.902 30.3086 159.242 31.0703 159.262 32.3398C159.242 33.5898 160.902 34.3516 163.559 34.3516C166.215 34.3516 167.855 33.5898 167.855 32.3398C167.855 31.0703 166.215 30.3086 163.559 30.3086ZM160.961 21.4023C160.961 23.668 162.699 25.8164 165.238 26.6953L164.438 27.9258C162.484 27.2227 160.971 25.7676 160.238 23.9609C159.477 26.002 157.865 27.6328 155.805 28.4141L155.004 27.1836C157.582 26.2461 159.418 23.9023 159.418 21.4219V20.7773H155.492V19.4883H164.848V20.7773H160.961V21.4023Z" fill="#222222" fill-opacity="0.7"/>
</svg>
