<svg width="26" height="25" viewBox="0 0 26 25" fill="none" xmlns="http://www.w3.org/2000/svg">
    <rect x="11.3574" y="18.8945" width="7.66036" height="13.9616" rx="0.5" transform="rotate(-134.531 11.3574 18.8945)" fill="#222222"/>
    <path d="M22.9279 7.51004C22.8129 7.62315 22.628 7.62164 22.5149 7.50666L17.5523 2.46222C17.4392 2.34724 17.4407 2.16234 17.5557 2.04923C18.7055 0.918117 20.5545 0.933241 21.6856 2.08301L22.9617 3.38015C24.0928 4.52991 24.0777 6.37893 22.9279 7.51004Z" fill="#222222"/>
    <path fill-rule="evenodd" clip-rule="evenodd" d="M3.77966 20.1744C3.50973 19.9 3.044 20.0207 2.94134 20.3917L2.60383 21.6113C2.50118 21.9823 2.83859 22.3252 3.21118 22.2287L4.43614 21.9111C4.80872 21.8146 4.93704 21.3509 4.66711 21.0765L3.77966 20.1744ZM3.62982 17.9038C3.58218 18.076 3.63 18.2605 3.75528 18.3878L6.45305 21.1301C6.57832 21.2574 6.76202 21.3083 6.93494 21.2635L9.30289 20.6497C9.67548 20.5531 9.8038 20.0894 9.53387 19.815L5.12057 15.3289C4.85064 15.0545 4.38491 15.1753 4.28225 15.5462L3.62982 17.9038Z" fill="#222222"/>
    </svg>
    