<svg width="33" height="32" viewBox="0 0 33 32" fill="none" xmlns="http://www.w3.org/2000/svg">
<rect x="15.5352" y="24.248" width="9.8044" height="17.8693" rx="0.5" transform="rotate(-134.531 15.5352 24.248)" fill="#222222"/>
<path d="M30.3456 9.67732C30.1984 9.82209 29.9617 9.82016 29.817 9.673L23.4654 3.21667C23.3206 3.06952 23.3226 2.83286 23.4697 2.6881C24.9413 1.2404 27.3078 1.25976 28.7555 2.73133L30.3888 4.39153C31.8365 5.8631 31.8171 8.22963 30.3456 9.67732Z" fill="#222222"/>
<path fill-rule="evenodd" clip-rule="evenodd" d="M5.66782 25.7116C5.39789 25.4372 4.93216 25.558 4.8295 25.9289L4.2674 27.9601C4.16474 28.3311 4.50216 28.6741 4.87474 28.5775L6.91486 28.0487C7.28745 27.9521 7.41577 27.4884 7.14584 27.214L5.66782 25.7116ZM5.62448 23.0562C5.57684 23.2284 5.62466 23.4129 5.74994 23.5402L9.31831 27.1674C9.44359 27.2948 9.62728 27.3456 9.8002 27.3008L13.1407 26.4349C13.5133 26.3383 13.6416 25.8746 13.3717 25.6003L7.3832 19.513C7.11327 19.2386 6.64754 19.3593 6.54488 19.7303L5.62448 23.0562Z" fill="#222222"/>
</svg>
