<svg width="631" height="356" viewBox="0 0 631 356" fill="none" xmlns="http://www.w3.org/2000/svg">
<rect width="631" height="13" rx="6.5" fill="#222222" fill-opacity="0.2"/>
<path d="M291.438 72.9062H297.953L300.156 75.625C301.445 73.9141 302.172 71.3359 302.172 68.0312C302.172 61.2812 299.172 57.625 294.203 57.625C289.234 57.625 286.234 61.2812 286.234 68.0312C286.234 74.7812 289.234 78.4375 294.203 78.4375C294.672 78.4375 295.141 78.4141 295.609 78.3438L291.438 72.9062ZM310.328 68.0312C310.328 74.0078 308.336 78.5547 305.078 81.5312L310.047 87.6719H302.781L300.156 84.4844C298.328 85.1406 296.312 85.4688 294.203 85.4688C285.062 85.4688 278.078 79.1875 278.078 68.0312C278.078 56.8281 285.062 50.5938 294.203 50.5938C303.297 50.5938 310.328 56.8281 310.328 68.0312ZM317.359 85.4688C315.016 85.4688 313.094 83.5938 313.141 81.2031C313.094 78.9062 315.016 77.0312 317.359 77.0312C319.609 77.0312 321.578 78.9062 321.625 81.2031C321.578 83.5938 319.609 85.4688 317.359 85.4688ZM351.109 51.0625V85H343.094V58.5625H342.906L335.266 63.25V56.3125L343.656 51.0625H351.109Z" fill="black"/>
<path d="M104.964 146.391V149.323H78.3447V146.391H84.5V139.011C82.1797 137.689 80.7778 135.611 80.7939 133.017C80.7617 128.376 85.3379 125.314 91.5898 125.314C97.874 125.314 102.45 128.376 102.45 133.017C102.45 135.562 101.097 137.609 98.8408 138.946V146.391H104.964ZM91.5898 128.15C87.2393 128.15 84.2744 129.987 84.3066 133.017C84.2744 136.014 87.2393 137.883 91.5898 137.883C95.9404 137.883 98.9375 136.014 98.9375 133.017C98.9375 129.987 95.9404 128.15 91.5898 128.15ZM88.0449 146.391H95.1992V140.3C94.0874 140.558 92.8789 140.687 91.5898 140.687C90.333 140.687 89.1406 140.558 88.0449 140.332V146.391ZM131.035 124.96V127.796H122.624C123.091 130.245 126.604 132.485 132.163 132.984L130.906 135.788C125.637 135.272 121.706 133.178 120.11 130.213C118.547 133.194 114.664 135.272 109.379 135.788L108.154 132.984C113.601 132.485 117.129 130.261 117.629 127.796H109.282V124.96H131.035ZM130.197 142.459V152.514H109.991V142.459H130.197ZM113.536 145.295V149.613H126.717V145.295H113.536ZM133.42 137.142V139.945H106.865V137.142H133.42ZM152.305 131.373C152.305 136.078 153.948 140.977 157.88 143.458L155.914 146.197C153.288 144.618 151.58 141.895 150.629 138.688C149.565 142.217 147.696 145.198 144.957 146.874L142.733 144.199C146.955 141.621 148.856 136.497 148.856 131.534V126.313H152.305V131.373ZM168.354 123.735V152.868H164.905V123.735H168.354ZM162.295 124.251V151.45H158.911V136.723H154.754V133.758H158.911V124.251H162.295ZM182.05 128.376C182.05 132.05 184.435 135.498 188.914 136.916L186.98 139.72C183.838 138.656 181.583 136.529 180.342 133.822C179.053 136.916 176.7 139.349 173.349 140.525L171.415 137.722C176.12 136.078 178.44 132.211 178.473 128.054V125.282H182.05V128.376ZM194.715 123.735V130.825H198.775V133.79H194.715V141.17H191.138V123.735H194.715ZM185.24 141.814C191.267 141.782 194.973 143.845 195.005 147.293C194.973 150.806 191.267 152.836 185.24 152.836C179.149 152.836 175.379 150.806 175.379 147.293C175.379 143.845 179.149 141.782 185.24 141.814ZM185.24 144.618C181.244 144.618 178.956 145.585 178.956 147.293C178.956 149.098 181.244 150 185.24 150C189.236 150 191.46 149.098 191.46 147.293C191.46 145.585 189.236 144.618 185.24 144.618ZM225.395 123.735V152.868H221.946V123.735H225.395ZM219.4 124.251V151.45H215.984V137.593H213.213C212.875 143.265 210.441 146.777 206.832 146.745C203.029 146.777 200.548 142.749 200.548 136.336C200.548 129.923 203.029 125.959 206.832 125.959C210.361 125.959 212.762 129.246 213.181 134.692H215.984V124.251H219.4ZM206.832 129.343C204.995 129.311 203.835 131.792 203.867 136.336C203.835 140.88 204.995 143.361 206.832 143.329C208.766 143.361 209.926 140.88 209.926 136.336C209.926 131.792 208.766 129.311 206.832 129.343ZM261.682 123.735V152.868H258.266V138.012H254.979V151.386H251.691V124.283H254.979V135.144H258.266V123.735H261.682ZM248.404 127.184V130.084H241.121V143.039C244.295 143.007 246.906 142.846 249.854 142.298L250.112 145.23C246.6 145.939 243.538 146.036 239.478 146.068H237.512V127.184H248.404ZM288.107 123.768V132.92H292.168V135.885H288.107V145.521H284.53V123.768H288.107ZM282.436 126.99V129.858H265.162V126.99H272.026V123.735H275.604V126.99H282.436ZM273.799 131.051C277.988 131.051 280.889 133.274 280.921 136.626C280.889 139.945 277.988 142.137 273.799 142.137C269.577 142.137 266.645 139.945 266.645 136.626C266.645 133.274 269.577 131.051 273.799 131.051ZM273.799 133.822C271.575 133.822 270.125 134.854 270.125 136.626C270.125 138.366 271.575 139.397 273.799 139.365C276.022 139.397 277.505 138.366 277.505 136.626C277.505 134.854 276.022 133.822 273.799 133.822ZM289.268 149.388V152.288H269.448V143.812H273.025V149.388H289.268ZM317.756 125.895V127.635C317.724 129.633 317.724 132.501 317.047 136.207L313.502 135.885C314.066 132.872 314.179 130.648 314.243 128.859H302.899V125.895H317.756ZM310.408 132.533V138.334C313.421 138.221 316.515 137.996 319.335 137.593L319.528 140.171C313.47 141.267 306.605 141.363 301.481 141.396L301.159 138.527C302.883 138.511 304.817 138.495 306.863 138.463V132.533H310.408ZM324.717 123.735V132.823H328.487V135.82H324.717V145.553H321.043V123.735H324.717ZM325.651 149.388V152.288H305.51V143.619H309.119V149.388H325.651ZM354.269 123.768V140.235H350.659V123.768H354.269ZM354.269 141.686V152.514H334.933V141.686H354.269ZM338.478 144.521V149.613H350.756V144.521H338.478ZM340.862 127.699C340.862 131.405 343.344 134.886 347.888 136.336L346.147 139.075C342.78 138.028 340.363 135.885 339.058 133.081C337.72 136.094 335.271 138.495 331.774 139.655L330.002 136.819C334.739 135.305 337.156 131.534 337.156 127.699V124.863H340.862V127.699ZM382.177 136.98V139.816H373.54V146.487H385.142V149.42H358.522V146.487H369.995V139.816H361.745V125.895H381.951V128.763H365.322V136.98H382.177ZM410.633 131.985V134.821H390.459V124.799H394.004V131.985H410.633ZM413.63 138.205V141.041H387.011V138.205H413.63ZM410.826 149.291V152.191H390.201V143.619H393.778V149.291H410.826ZM431.354 125.862C435.302 125.862 438.219 129.149 438.734 134.467H444.277V123.735H447.822V152.9H444.277V137.367H438.767C438.38 142.991 435.415 146.455 431.354 146.455C426.972 146.455 423.878 142.491 423.878 136.143C423.878 129.858 426.972 125.862 431.354 125.862ZM431.354 129.085C428.938 129.085 427.294 131.695 427.326 136.143C427.294 140.622 428.938 143.232 431.354 143.232C433.771 143.232 435.383 140.622 435.415 136.143C435.383 131.695 433.771 129.085 431.354 129.085ZM477.342 149.388V152.288H456.588V143.071H460.165V149.388H477.342ZM476.568 123.768V144.844H473.056V134.467H468.576V131.566H473.056V123.768H476.568ZM460.036 126.023V128.924H456.008V137.657C457.394 137.593 458.747 137.448 460.262 137.109L460.552 140.01C458.135 140.558 456.201 140.558 453.849 140.558H452.495V126.023H460.036ZM469.672 126.023V128.924H465.063V137.657C467.303 137.625 468.786 137.48 470.478 137.077L470.832 139.978C468.512 140.493 466.675 140.558 463.065 140.558H461.519V126.023H469.672ZM503.252 123.735V135.111H507.57V138.108H503.252V152.804H499.675V123.735H503.252ZM495.55 126.765C495.55 135.337 492.005 142.846 482.305 147.615L480.274 144.844C487.364 141.315 491.199 136.352 491.94 129.729H481.854V126.765H495.55ZM535.575 146.391V149.323H508.956V146.391H515.111V139.011C512.791 137.689 511.389 135.611 511.405 133.017C511.373 128.376 515.949 125.314 522.201 125.314C528.485 125.314 533.062 128.376 533.062 133.017C533.062 135.562 531.708 137.609 529.452 138.946V146.391H535.575ZM522.201 128.15C517.851 128.15 514.886 129.987 514.918 133.017C514.886 136.014 517.851 137.883 522.201 137.883C526.552 137.883 529.549 136.014 529.549 133.017C529.549 129.987 526.552 128.15 522.201 128.15ZM518.656 146.391H525.811V140.3C524.699 140.558 523.49 140.687 522.201 140.687C520.944 140.687 519.752 140.558 518.656 140.332V146.391ZM542.407 142.846C542.439 138.753 543.6 137.496 545.63 136.239C547.016 135.369 548.047 134.273 548.047 132.662C548.047 130.857 546.661 129.697 544.889 129.697C543.277 129.697 541.73 130.729 541.634 132.888H537.605C537.702 128.569 540.957 126.346 544.921 126.346C549.271 126.346 552.269 128.763 552.269 132.598C552.269 135.208 550.947 136.916 548.853 138.173C546.983 139.301 546.21 140.429 546.178 142.846V143.136H542.407V142.846ZM544.405 150.258C543.02 150.258 541.892 149.13 541.892 147.744C541.892 146.391 543.02 145.263 544.405 145.263C545.727 145.263 546.887 146.391 546.887 147.744C546.887 149.13 545.727 150.258 544.405 150.258Z" fill="black"/>
<path d="M316.643 314.673C332.359 314.673 345.1 301.932 345.1 286.216C345.1 270.499 332.359 257.758 316.643 257.758C300.926 257.758 288.185 270.499 288.185 286.216C288.185 301.932 300.926 314.673 316.643 314.673Z" fill="#222222" stroke="#222222" stroke-width="2" stroke-miterlimit="10" stroke-linecap="round"/>
<path d="M268.736 259.473C280.741 259.473 290.473 249.741 290.473 237.736C290.473 225.732 280.741 216 268.736 216C256.732 216 247 225.732 247 237.736C247 249.741 256.732 259.473 268.736 259.473Z" stroke="#222222" stroke-width="2" stroke-miterlimit="10" stroke-linecap="round"/>
<path d="M291.474 350.138C299.45 350.138 305.917 343.671 305.917 335.695C305.917 327.718 299.45 321.251 291.474 321.251C283.497 321.251 277.03 327.718 277.03 335.695C277.03 343.671 283.497 350.138 291.474 350.138Z" stroke="#222222" stroke-width="2" stroke-miterlimit="10" stroke-linecap="round"/>
<path d="M257.439 312.383C262.731 312.383 267.02 308.093 267.02 302.802C267.02 297.51 262.731 293.221 257.439 293.221C252.148 293.221 247.858 297.51 247.858 302.802C247.858 308.093 252.148 312.383 257.439 312.383Z" stroke="#222222" stroke-width="2" stroke-miterlimit="10" stroke-linecap="round"/>
<path d="M342.526 252.61C349.318 252.61 354.824 247.104 354.824 240.312C354.824 233.52 349.318 228.013 342.526 228.013C335.734 228.013 330.228 233.52 330.228 240.312C330.228 247.104 335.734 252.61 342.526 252.61Z" stroke="#222222" stroke-width="2" stroke-miterlimit="10" stroke-linecap="round"/>
<path d="M364.12 355C375.572 355 384.855 345.717 384.855 334.265C384.855 322.813 375.572 313.529 364.12 313.529C352.668 313.529 343.384 322.813 343.384 334.265C343.384 345.717 352.668 355 364.12 355Z" stroke="#222222" stroke-width="2" stroke-miterlimit="10" stroke-linecap="round"/>
<path d="M378.277 290.647C381.91 290.647 384.855 287.702 384.855 284.069C384.855 280.436 381.91 277.491 378.277 277.491C374.644 277.491 371.699 280.436 371.699 284.069C371.699 287.702 374.644 290.647 378.277 290.647Z" stroke="#222222" stroke-width="2" stroke-miterlimit="10" stroke-linecap="round"/>
<path d="M336.323 250.93L330.517 261.364" stroke="#222222" stroke-width="2" stroke-miterlimit="10"/>
<path d="M284.092 253.119L296.793 265.824" stroke="#222222" stroke-width="2" stroke-miterlimit="10"/>
<path d="M266.814 300.821L289.446 294.62" stroke="#222222" stroke-width="2" stroke-miterlimit="10"/>
<path d="M304.044 311.733L298.361 322.993" stroke="#222222" stroke-width="2" stroke-miterlimit="10"/>
<path d="M336.889 306.21L349.908 319.164" stroke="#222222" stroke-width="2" stroke-miterlimit="10"/>
<path d="M345.077 285.097L371.698 284.59" stroke="#222222" stroke-width="2" stroke-miterlimit="10"/>
<path d="M317.071 286.072C322.126 286.072 326.223 281.974 326.223 276.92C326.223 271.865 322.126 267.768 317.071 267.768C312.017 267.768 307.919 271.865 307.919 276.92C307.919 281.974 312.017 286.072 317.071 286.072Z" stroke="#E9E9E9" stroke-width="2" stroke-miterlimit="10"/>
<path d="M333.088 301.946C333.088 293.18 325.981 286.072 317.215 286.072C308.449 286.072 301.341 293.18 301.341 301.946H333.088Z" stroke="#E9E9E9" stroke-width="2" stroke-miterlimit="10"/>
<path d="M364.852 334.444C367.983 334.444 370.521 331.907 370.521 328.776C370.521 325.645 367.983 323.107 364.852 323.107C361.722 323.107 359.184 325.645 359.184 328.776C359.184 331.907 361.722 334.444 364.852 334.444Z" stroke="#222222" stroke-width="2" stroke-miterlimit="10"/>
<path d="M374.77 344.274C374.77 338.846 370.369 334.444 364.94 334.444C359.512 334.444 355.11 338.846 355.11 344.274H374.77Z" stroke="#222222" stroke-width="2" stroke-miterlimit="10"/>
<path d="M268.703 237.468C272.459 237.468 275.504 234.423 275.504 230.667C275.504 226.911 272.459 223.866 268.703 223.866C264.946 223.866 261.901 226.911 261.901 230.667C261.901 234.423 264.946 237.468 268.703 237.468Z" stroke="#222222" stroke-width="2" stroke-miterlimit="10"/>
<path d="M280.606 249.268C280.606 242.752 275.323 237.47 268.808 237.47C262.293 237.47 257.01 242.752 257.01 249.268H280.606Z" stroke="#222222" stroke-width="2" stroke-miterlimit="10"/>
</svg>
