<svg width="631" height="370" viewBox="0 0 631 370" fill="none" xmlns="http://www.w3.org/2000/svg">
<path d="M288.086 72.9062H294.602L296.805 75.625C298.094 73.9141 298.82 71.3359 298.82 68.0312C298.82 61.2812 295.82 57.625 290.852 57.625C285.883 57.625 282.883 61.2812 282.883 68.0312C282.883 74.7812 285.883 78.4375 290.852 78.4375C291.32 78.4375 291.789 78.4141 292.258 78.3438L288.086 72.9062ZM306.977 68.0312C306.977 74.0078 304.984 78.5547 301.727 81.5312L306.695 87.6719H299.43L296.805 84.4844C294.977 85.1406 292.961 85.4688 290.852 85.4688C281.711 85.4688 274.727 79.1875 274.727 68.0312C274.727 56.8281 281.711 50.5938 290.852 50.5938C299.945 50.5938 306.977 56.8281 306.977 68.0312ZM314.008 85.4688C311.664 85.4688 309.742 83.5938 309.789 81.2031C309.742 78.9062 311.664 77.0312 314.008 77.0312C316.258 77.0312 318.227 78.9062 318.273 81.2031C318.227 83.5938 316.258 85.4688 314.008 85.4688ZM332.242 85V79.2344L344.617 68.3594C347.477 65.7344 349.117 64 349.164 61.4219C349.117 58.6094 347.055 56.8281 344.195 56.8281C341.289 56.8281 339.367 58.6562 339.367 61.75H331.773C331.773 54.9062 336.789 50.5938 344.242 50.5938C351.883 50.5938 356.898 54.7188 356.898 60.8125C356.898 64.7031 354.977 67.9375 347.617 74.3594L343.352 78.2969V78.5312H357.32V85H332.242Z" fill="black"/>
<path d="M101.806 132.018C101.806 136.787 104.609 141.814 109.314 143.78L107.349 146.616C103.9 145.134 101.387 142.072 100.065 138.366C98.7119 142.362 96.166 145.714 92.75 147.325L90.6875 144.521C95.2959 142.395 98.1641 136.98 98.1641 132.018V129.568H91.751V126.604H108.187V129.568H101.806V132.018ZM115.051 123.735V152.868H111.441V123.735H115.051ZM142.153 123.735V135.337H146.633V138.302H142.153V152.868H138.608V123.735H142.153ZM136.353 128.215V131.083H119.176V128.215H126.072V124.154H129.649V128.215H136.353ZM127.877 132.984C132.066 132.984 135.192 135.82 135.192 139.849C135.192 143.877 132.066 146.681 127.877 146.681C123.623 146.681 120.497 143.877 120.529 139.849C120.497 135.82 123.623 132.984 127.877 132.984ZM127.877 135.917C125.589 135.917 123.945 137.464 123.945 139.849C123.945 142.233 125.589 143.748 127.877 143.716C130.101 143.748 131.744 142.233 131.776 139.849C131.744 137.464 130.101 135.917 127.877 135.917ZM158.331 129.504C158.331 132.275 160.909 134.982 165.485 135.949L163.906 138.656C160.458 137.899 157.944 136.143 156.591 133.822C155.286 136.384 152.756 138.318 149.211 139.172L147.664 136.433C152.24 135.337 154.754 132.501 154.754 129.504V129.214H148.663V126.346H154.754V123.606H158.363V126.346H164.422V129.214H158.331V129.504ZM172.253 123.735V138.914H168.676V133.564H163.616V130.696H168.676V123.735H172.253ZM172.253 140.074V147.583H156.655V149.839H173.188V152.61H153.078V144.94H168.676V142.846H153.046V140.074H172.253ZM208.443 123.735V152.9H204.834V123.735H208.443ZM192.749 125.862C197.132 125.862 200.322 129.858 200.354 136.143C200.322 142.491 197.132 146.455 192.749 146.455C188.334 146.455 185.144 142.491 185.144 136.143C185.144 129.858 188.334 125.862 192.749 125.862ZM192.749 129.085C190.268 129.085 188.592 131.695 188.592 136.143C188.592 140.622 190.268 143.232 192.749 143.232C195.198 143.232 196.874 140.622 196.874 136.143C196.874 131.695 195.198 129.085 192.749 129.085ZM239.316 137.689V140.558H212.729V137.689H224.267V134.918H215.984V125.057H236.094V127.86H219.562V132.082H236.255V134.918H227.779V137.689H239.316ZM225.975 142.233C232.259 142.233 236.029 144.135 236.062 147.551C236.029 150.935 232.259 152.868 225.975 152.868C219.626 152.868 215.823 150.935 215.823 147.551C215.823 144.135 219.626 142.233 225.975 142.233ZM225.975 144.973C221.721 144.973 219.433 145.875 219.465 147.551C219.433 149.227 221.721 150.097 225.975 150.097C230.132 150.097 232.452 149.227 232.484 147.551C232.452 145.875 230.132 144.973 225.975 144.973ZM252.271 130.729C252.239 136.078 255.043 141.428 259.78 143.458L257.653 146.326C254.302 144.779 251.836 141.686 250.499 137.883C249.162 141.992 246.664 145.343 243.119 147.003L240.928 144.006C245.794 141.911 248.63 136.336 248.63 130.729V126.088H252.271V130.729ZM265.484 123.735V152.9H261.875V123.735H265.484ZM292.748 123.735V132.114H296.809V135.111H292.748V144.747H289.106V123.735H292.748ZM284.82 125.959C284.82 133.693 279.793 139.204 271.156 141.718L269.674 138.882C276.329 136.964 280.292 133.339 280.921 128.892H270.898V125.959H284.82ZM293.844 149.388V152.288H274.024V142.588H277.666V149.388H293.844ZM322.525 123.735V152.9H318.916V123.735H322.525ZM306.831 125.862C311.214 125.862 314.404 129.858 314.437 136.143C314.404 142.491 311.214 146.455 306.831 146.455C302.416 146.455 299.226 142.491 299.226 136.143C299.226 129.858 302.416 125.862 306.831 125.862ZM306.831 129.085C304.35 129.085 302.674 131.695 302.674 136.143C302.674 140.622 304.35 143.232 306.831 143.232C309.28 143.232 310.956 140.622 310.956 136.143C310.956 131.695 309.28 129.085 306.831 129.085ZM335.609 150V146.971L343.859 139.011C346.212 136.658 347.437 135.272 347.437 133.307C347.437 131.147 345.729 129.762 343.44 129.762C341.023 129.762 339.477 131.276 339.509 133.629H335.513C335.48 129.214 338.8 126.346 343.473 126.346C348.242 126.346 351.465 129.182 351.465 133.113C351.465 135.756 350.176 137.883 345.6 142.201L341.442 146.326V146.487H351.819V150H335.609ZM364.098 150.322C358.49 150.322 355.139 145.972 355.139 138.334C355.139 130.729 358.49 126.346 364.098 126.346C369.673 126.346 373.057 130.729 373.057 138.334C373.057 145.972 369.705 150.322 364.098 150.322ZM364.098 146.81C367.03 146.81 368.835 143.941 368.835 138.334C368.835 132.759 366.998 129.826 364.098 129.826C361.197 129.826 359.36 132.759 359.36 138.334C359.36 143.941 361.165 146.81 364.098 146.81ZM402.189 138.817V141.686H390.942V146.713H387.397V141.686H375.57V138.817H402.189ZM399.257 149.388V152.288H378.793V144.264H382.338V149.388H399.257ZM382.596 124.67V127.957H395.164V124.67H398.709V136.529H379.051V124.67H382.596ZM382.596 133.693H395.164V130.632H382.596V133.693ZM428.357 123.735V152.9H424.748V123.735H428.357ZM412.663 125.862C417.046 125.862 420.236 129.858 420.269 136.143C420.236 142.491 417.046 146.455 412.663 146.455C408.248 146.455 405.058 142.491 405.058 136.143C405.058 129.858 408.248 125.862 412.663 125.862ZM412.663 129.085C410.182 129.085 408.506 131.695 408.506 136.143C408.506 140.622 410.182 143.232 412.663 143.232C415.112 143.232 416.788 140.622 416.788 136.143C416.788 131.695 415.112 129.085 412.663 129.085ZM464.87 123.735V138.463H461.293V133.146H455.653V130.213H461.293V123.735H464.87ZM455.331 124.928C455.363 132.404 450.594 137.109 442.086 139.172L440.861 136.304C447.452 134.805 450.932 131.744 451.496 127.828H442.473V124.928H455.331ZM464.87 139.623V147.293H449.305V149.71H465.644V152.578H445.728V144.618H461.293V142.459H445.695V139.623H464.87ZM493.197 123.768V145.198H489.652V123.768H493.197ZM494.003 149.388V152.288H473.797V143.458H477.406V149.388H494.003ZM483.916 125.733V134.725H474.055V138.398C479.324 138.382 482.788 138.221 486.816 137.496L487.203 140.364C482.82 141.17 478.985 141.331 473.023 141.331H470.542V132.018H480.371V128.602H470.478V125.733H483.916ZM520.332 123.735V134.789H524.812V137.722H520.332V152.9H516.755V123.735H520.332ZM512.34 126.507V129.407H502.285V142.781C506.813 142.781 510.39 142.556 514.402 141.847L514.821 144.876C510.31 145.649 506.378 145.778 501.125 145.778H498.708V126.507H512.34ZM529.581 150.258C528.195 150.258 527.067 149.13 527.067 147.744C527.067 146.391 528.195 145.263 529.581 145.263C530.902 145.263 532.062 146.391 532.062 147.744C532.062 149.13 530.902 150.258 529.581 150.258ZM196.036 162.735V191.9H192.427V162.735H196.036ZM180.342 164.862C184.725 164.862 187.915 168.858 187.947 175.143C187.915 181.491 184.725 185.455 180.342 185.455C175.927 185.455 172.736 181.491 172.736 175.143C172.736 168.858 175.927 164.862 180.342 164.862ZM180.342 168.085C177.86 168.085 176.185 170.695 176.185 175.143C176.185 179.622 177.86 182.232 180.342 182.232C182.791 182.232 184.467 179.622 184.467 175.143C184.467 170.695 182.791 168.085 180.342 168.085ZM219.755 163.283V174.24H222.397V162.735H225.781V191.868H222.397V177.173H219.755V190.482H216.468V163.283H219.755ZM207.187 166.28V169.181H204.222V181.588C205.124 181.523 206.139 181.378 207.251 181.104L207.541 184.102C205.317 184.585 203.609 184.617 202.191 184.617H200.935V166.28H207.187ZM214.792 166.28V169.181H211.602V181.62C212.697 181.572 213.874 181.427 215.211 181.072L215.469 184.069C213.213 184.585 211.408 184.617 209.636 184.617H208.379V166.28H214.792ZM261.585 162.768V184.682H258.169V174.949H255.397V184.102H252.046V163.315H255.397V172.017H258.169V162.768H261.585ZM251.015 165.99V168.826H236.513V165.99H242.023V162.993H245.568V165.99H251.015ZM243.796 169.986C247.47 169.986 250.112 172.146 250.145 175.368C250.112 178.623 247.47 180.814 243.796 180.814C240.154 180.814 237.512 178.623 237.544 175.368C237.512 172.146 240.154 169.986 243.796 169.986ZM243.796 172.693C241.959 172.661 240.734 173.692 240.734 175.368C240.734 177.044 241.959 178.107 243.796 178.075C245.633 178.107 246.89 177.044 246.89 175.368C246.89 173.692 245.633 172.661 243.796 172.693ZM262.391 188.388V191.288H242.088V182.684H245.665V188.388H262.391ZM288.849 176.399V179.268H268.417V165.281H288.623V168.182H271.962V176.399H288.849ZM291.813 185.197V188.162H265.194V185.197H291.813ZM317.82 163.896V166.796H313.824V172.371H317.659V175.175H308.765V178.172H320.27V181.008H293.715V178.172H305.155V175.175H296.261V172.371H300.096V166.796H296.1V163.896H317.82ZM317.272 188.388V191.288H297.002V183.103H300.579V188.388H317.272ZM303.673 172.371H310.215V166.796H303.673V172.371ZM335.48 163.187C342.119 163.187 345.954 164.959 345.986 168.182C345.954 171.437 342.119 173.177 335.48 173.209C328.842 173.177 324.975 171.437 324.975 168.182C324.975 164.959 328.842 163.187 335.48 163.187ZM335.48 165.829C331.033 165.829 328.713 166.667 328.745 168.182C328.713 169.793 331.033 170.534 335.48 170.534C339.992 170.534 342.28 169.793 342.28 168.182C342.28 166.667 339.992 165.829 335.48 165.829ZM348.79 174.756V177.624H322.235V174.756H348.79ZM345.471 179.59V186.712H328.906V188.871H346.276V191.61H325.394V184.166H341.958V182.232H325.361V179.59H345.471ZM373.862 164.991C373.862 166.151 373.782 167.247 373.637 168.311H379.405V162.768H382.982V184.295H379.405V178.011H372.477V175.078H379.405V171.211H372.928C371.3 175.916 367.481 179.396 360.553 181.652L359.167 178.849C363.646 177.415 366.482 175.529 368.158 173.209L359.65 173.918L359.103 171.082L369.479 170.663C369.802 169.793 369.995 168.858 370.092 167.892H360.585V164.991H373.862ZM383.724 188.388V191.288H364.001V182.168H367.643V188.388H383.724ZM417.948 162.735V169.89H421.977V172.822H417.948V179.751H414.339V162.735H417.948ZM408.441 180.299C414.403 180.299 418.174 182.426 418.206 186.035C418.174 189.709 414.403 191.836 408.441 191.836C402.415 191.836 398.58 189.709 398.58 186.035C398.58 182.426 402.415 180.299 408.441 180.299ZM408.441 183.167C404.445 183.167 402.093 184.166 402.125 186.035C402.093 187.937 404.445 188.968 408.441 188.968C412.373 188.968 414.726 187.937 414.726 186.035C414.726 184.166 412.373 183.167 408.441 183.167ZM409.118 164.798V167.698H399.611V175.014C405.187 174.998 408.296 174.836 411.729 174.111L412.083 176.979C408.312 177.785 404.864 177.914 398.419 177.914H396.066V164.798H409.118ZM447.726 162.768V184.037H444.116V162.768H447.726ZM448.531 188.388V191.288H428.454V182.007H432.063V188.388H448.531ZM434.319 167.215C434.319 171.275 436.704 175.11 441.312 176.657L439.476 179.493C436.156 178.333 433.788 176.013 432.515 173.048C431.193 176.222 428.792 178.768 425.36 180.009L423.491 177.173C428.229 175.497 430.613 171.404 430.613 167.215V164.379H434.319V167.215ZM457.651 186.712L454.944 195.735H451.883L453.559 186.712H457.651Z" fill="black"/>
<rect width="631" height="13" rx="6.5" fill="#222222" fill-opacity="0.2"/>
<rect width="166" height="13" rx="6.5" fill="#222222" fill-opacity="0.39"/>
<path d="M290.123 299.587V240.888C290.123 236 294.123 232 299.011 232H334.986C339.874 232 343.874 236 343.874 240.888V256.242" stroke="#222222" stroke-width="2" stroke-miterlimit="10" stroke-linecap="round"/>
<path d="M343.877 303.671V321.396C343.877 326.284 339.877 330.284 334.989 330.284H299.981" stroke="#222222" stroke-width="2" stroke-miterlimit="10" stroke-linecap="round"/>
<path d="M290.123 242.486H343.876" stroke="#222222" stroke-width="2" stroke-miterlimit="10" stroke-linecap="round"/>
<path d="M305.933 252.025L299.083 258.613" stroke="#222222" stroke-width="5" stroke-miterlimit="10" stroke-linecap="round"/>
<path d="M318.449 252.159L299.213 271.658" stroke="#222222" stroke-width="5" stroke-miterlimit="10" stroke-linecap="round"/>
<path d="M294.432 350.008L273.564 329.14C269.962 325.538 264.123 325.538 260.521 329.14C256.92 332.741 256.92 338.581 260.521 342.182L281.389 363.05C284.991 366.652 290.83 366.652 294.432 363.05C298.033 359.449 298.033 353.609 294.432 350.008Z" fill="#222222" stroke="#222222" stroke-width="2" stroke-miterlimit="10" stroke-linecap="round"/>
<path d="M272.469 328.177L277.476 323.197V273.633" stroke="#222222" stroke-width="2" stroke-miterlimit="10" stroke-linecap="round"/>
<path d="M277.476 273.766C277.476 270.649 280.024 268.101 283.141 268.101H284.458C287.573 268.101 290.123 270.649 290.123 273.766" stroke="#222222" stroke-width="2" stroke-miterlimit="10" stroke-linecap="round"/>
<path d="M290.123 299.587C290.123 299.587 311.73 310.786 298.291 333.447" stroke="#222222" stroke-width="2" stroke-miterlimit="10" stroke-linecap="round"/>
<path d="M302.694 317.161H343.876" stroke="#222222" stroke-width="2" stroke-miterlimit="10" stroke-linecap="round"/>
<path d="M324.834 330.284C324.834 330.284 320.426 345.83 300.136 345.04L294.432 350.006" stroke="#222222" stroke-width="2" stroke-miterlimit="10" stroke-linecap="round"/>
<path d="M345.062 256.24H340.846C337.572 256.24 334.917 258.894 334.917 262.169C334.917 265.443 337.572 268.097 340.846 268.097H345.062C348.336 268.097 350.991 265.443 350.991 262.169C350.991 258.894 348.336 256.24 345.062 256.24Z" stroke="#222222" stroke-width="2" stroke-miterlimit="10" stroke-linecap="round"/>
<path d="M345.062 268.101H340.846C337.572 268.101 334.917 270.755 334.917 274.03C334.917 277.304 337.572 279.958 340.846 279.958H345.062C348.336 279.958 350.991 277.304 350.991 274.03C350.991 270.755 348.336 268.101 345.062 268.101Z" stroke="#222222" stroke-width="2" stroke-miterlimit="10" stroke-linecap="round"/>
<path d="M345.062 279.958H340.846C337.572 279.958 334.917 282.612 334.917 285.886C334.917 289.161 337.572 291.815 340.846 291.815H345.062C348.336 291.815 350.991 289.161 350.991 285.886C350.991 282.612 348.336 279.958 345.062 279.958Z" stroke="#222222" stroke-width="2" stroke-miterlimit="10" stroke-linecap="round"/>
<path d="M345.062 291.814H340.846C337.572 291.814 334.917 294.468 334.917 297.743C334.917 301.017 337.572 303.671 340.846 303.671H345.062C348.336 303.671 350.991 301.017 350.991 297.743C350.991 294.468 348.336 291.814 345.062 291.814Z" stroke="#222222" stroke-width="2" stroke-miterlimit="10" stroke-linecap="round"/>
<path d="M260.93 275.214C260.93 275.68 260.552 276.058 260.085 276.058C259.619 276.058 259.241 275.68 259.241 275.214C259.241 274.747 259.619 274.369 260.085 274.369C260.552 274.369 260.93 274.747 260.93 275.214Z" fill="#222222" stroke="#222222" stroke-width="2"/>
<path d="M258.163 285.885C258.163 286.351 257.785 286.729 257.318 286.729C256.852 286.729 256.474 286.351 256.474 285.885C256.474 285.419 256.852 285.041 257.318 285.041C257.785 285.041 258.163 285.419 258.163 285.885Z" fill="#222222" stroke="#222222" stroke-width="2"/>
<path d="M257.109 296.951C257.109 297.418 256.731 297.796 256.264 297.796C255.798 297.796 255.42 297.418 255.42 296.951C255.42 296.485 255.798 296.107 256.264 296.107C256.731 296.107 257.109 296.485 257.109 296.951Z" fill="#222222" stroke="#222222" stroke-width="2"/>
<path d="M258.163 308.018C258.163 308.484 257.785 308.862 257.318 308.862C256.852 308.862 256.474 308.484 256.474 308.018C256.474 307.551 256.852 307.173 257.318 307.173C257.785 307.173 258.163 307.551 258.163 308.018Z" fill="#222222" stroke="#222222" stroke-width="2"/>
<path d="M261.061 318.559C261.061 319.025 260.683 319.404 260.217 319.404C259.75 319.404 259.372 319.025 259.372 318.559C259.372 318.093 259.75 317.715 260.217 317.715C260.683 317.715 261.061 318.093 261.061 318.559Z" fill="#222222" stroke="#222222" stroke-width="2"/>
<path d="M266.068 265.333C266.068 265.799 265.69 266.177 265.223 266.177C264.757 266.177 264.379 265.799 264.379 265.333C264.379 264.867 264.757 264.489 265.223 264.489C265.69 264.489 266.068 264.867 266.068 265.333Z" fill="#222222" stroke="#222222" stroke-width="2"/>
<path d="M361.453 257.165C361.453 257.631 361.075 258.009 360.609 258.009C360.142 258.009 359.764 257.631 359.764 257.165C359.764 256.698 360.142 256.32 360.609 256.32C361.075 256.32 361.453 256.698 361.453 257.165Z" fill="#222222" stroke="#222222" stroke-width="2"/>
<path d="M368.041 265.86C368.041 266.326 367.662 266.705 367.196 266.705C366.73 266.705 366.352 266.326 366.352 265.86C366.352 265.394 366.73 265.016 367.196 265.016C367.662 265.016 368.041 265.394 368.041 265.86Z" fill="#222222" stroke="#222222" stroke-width="2"/>
<path d="M373.047 275.875C373.047 276.341 372.669 276.719 372.203 276.719C371.736 276.719 371.358 276.341 371.358 275.875C371.358 275.408 371.736 275.03 372.203 275.03C372.669 275.03 373.047 275.408 373.047 275.875Z" fill="#222222" stroke="#222222" stroke-width="2"/>
<path d="M375.946 286.675C375.946 287.142 375.568 287.52 375.102 287.52C374.635 287.52 374.257 287.142 374.257 286.675C374.257 286.209 374.635 285.831 375.102 285.831C375.568 285.831 375.946 286.209 375.946 286.675Z" fill="#222222" stroke="#222222" stroke-width="2"/>
<path d="M377 297.478C377 297.945 376.622 298.323 376.156 298.323C375.689 298.323 375.311 297.945 375.311 297.478C375.311 297.012 375.689 296.634 376.156 296.634C376.622 296.634 377 297.012 377 297.478Z" fill="#222222" stroke="#222222" stroke-width="2"/>
<path d="M375.682 308.544C375.682 309.011 375.304 309.389 374.838 309.389C374.371 309.389 373.993 309.011 373.993 308.544C373.993 308.078 374.371 307.7 374.838 307.7C375.304 307.7 375.682 308.078 375.682 308.544Z" fill="#222222" stroke="#222222" stroke-width="2"/>
<path d="M372.52 319.086C372.52 319.552 372.142 319.93 371.676 319.93C371.21 319.93 370.832 319.552 370.832 319.086C370.832 318.62 371.21 318.241 371.676 318.241C372.142 318.241 372.52 318.62 372.52 319.086Z" fill="#222222" stroke="#222222" stroke-width="2"/>
<path d="M367.514 329.096C367.514 329.563 367.136 329.941 366.669 329.941C366.203 329.941 365.825 329.563 365.825 329.096C365.825 328.63 366.203 328.252 366.669 328.252C367.136 328.252 367.514 328.63 367.514 329.096Z" fill="#222222" stroke="#222222" stroke-width="2"/>
<path d="M360.926 337.794C360.926 338.26 360.548 338.638 360.082 338.638C359.615 338.638 359.237 338.26 359.237 337.794C359.237 337.328 359.615 336.949 360.082 336.949C360.548 336.949 360.926 337.328 360.926 337.794Z" fill="#222222" stroke="#222222" stroke-width="2"/>
<path d="M352.494 345.172C352.494 345.639 352.116 346.017 351.65 346.017C351.183 346.017 350.805 345.639 350.805 345.172C350.805 344.706 351.183 344.328 351.65 344.328C352.116 344.328 352.494 344.706 352.494 345.172Z" fill="#222222" stroke="#222222" stroke-width="2"/>
<path d="M343.272 350.706C343.272 351.173 342.894 351.551 342.427 351.551C341.961 351.551 341.583 351.173 341.583 350.706C341.583 350.24 341.961 349.862 342.427 349.862C342.894 349.862 343.272 350.24 343.272 350.706Z" fill="#222222" stroke="#222222" stroke-width="2"/>
<path d="M332.732 354.658C332.732 355.124 332.354 355.502 331.887 355.502C331.421 355.502 331.043 355.124 331.043 354.658C331.043 354.192 331.421 353.813 331.887 353.813C332.354 353.813 332.732 354.192 332.732 354.658Z" fill="#222222" stroke="#222222" stroke-width="2"/>
<path d="M321.929 356.767C321.929 357.234 321.551 357.612 321.084 357.612C320.618 357.612 320.24 357.234 320.24 356.767C320.24 356.301 320.618 355.923 321.084 355.923C321.551 355.923 321.929 356.301 321.929 356.767Z" fill="#222222" stroke="#222222" stroke-width="2"/>
<path d="M310.862 356.502C310.862 356.968 310.484 357.346 310.017 357.346C309.551 357.346 309.173 356.968 309.173 356.502C309.173 356.036 309.551 355.657 310.017 355.657C310.484 355.657 310.862 356.036 310.862 356.502Z" fill="#222222" stroke="#222222" stroke-width="2"/>
<path d="M353.548 249.521C353.548 249.987 353.17 250.365 352.704 250.365C352.237 250.365 351.859 249.987 351.859 249.521C351.859 249.054 352.237 248.676 352.704 248.676C353.17 248.676 353.548 249.054 353.548 249.521Z" fill="#222222" stroke="#222222" stroke-width="2"/>
<path d="M272.655 256.638C272.655 257.104 272.277 257.482 271.811 257.482C271.344 257.482 270.966 257.104 270.966 256.638C270.966 256.171 271.344 255.793 271.811 255.793C272.277 255.793 272.655 256.171 272.655 256.638Z" fill="#222222" stroke="#222222" stroke-width="2"/>
<path d="M280.824 248.996C280.824 249.462 280.446 249.841 279.979 249.841C279.513 249.841 279.135 249.462 279.135 248.996C279.135 248.53 279.513 248.152 279.979 248.152C280.446 248.152 280.824 248.53 280.824 248.996Z" fill="#222222" stroke="#222222" stroke-width="2"/>
<path d="M343 242H290L292 235.5L297 232.5H337.5L343 236.5V242Z" fill="#222222"/>
<path d="M303 323.5V317.5L344 317L343.5 323.5L341 328.5L336.5 330.5H300.5L303 323.5Z" fill="#222222"/>
</svg>
