<svg width="631" height="364" viewBox="0 0 631 364" fill="none" xmlns="http://www.w3.org/2000/svg">
<path d="M287.406 72.9062H293.922L296.125 75.625C297.414 73.9141 298.141 71.3359 298.141 68.0312C298.141 61.2812 295.141 57.625 290.172 57.625C285.203 57.625 282.203 61.2812 282.203 68.0312C282.203 74.7812 285.203 78.4375 290.172 78.4375C290.641 78.4375 291.109 78.4141 291.578 78.3438L287.406 72.9062ZM306.297 68.0312C306.297 74.0078 304.305 78.5547 301.047 81.5312L306.016 87.6719H298.75L296.125 84.4844C294.297 85.1406 292.281 85.4688 290.172 85.4688C281.031 85.4688 274.047 79.1875 274.047 68.0312C274.047 56.8281 281.031 50.5938 290.172 50.5938C299.266 50.5938 306.297 56.8281 306.297 68.0312ZM313.328 85.4688C310.984 85.4688 309.062 83.5938 309.109 81.2031C309.062 78.9062 310.984 77.0312 313.328 77.0312C315.578 77.0312 317.547 78.9062 317.594 81.2031C317.547 83.5938 315.578 85.4688 313.328 85.4688ZM344.453 85.4688C336.719 85.4688 331.234 81.2031 331.141 75.1094H339.203C339.25 77.3594 341.5 78.9531 344.5 78.9531C347.5 78.9531 349.656 77.2188 349.609 74.7812C349.656 72.3438 347.359 70.5625 343.797 70.5625H340.516V64.8438H343.797C346.891 64.8438 349.047 63.2031 349.047 60.7656C349.047 58.4688 347.219 56.8281 344.5 56.8281C341.734 56.8281 339.531 58.4219 339.484 60.8125H331.797C331.891 54.8125 337.234 50.5938 344.547 50.5938C351.812 50.5938 356.781 54.7656 356.734 60.2969C356.781 64.0938 353.969 66.7656 350.078 67.3281V67.5625C355.281 68.1719 358.047 71.1719 358 75.3906C358.047 81.25 352.375 85.4688 344.453 85.4688Z" fill="black"/>
<path d="M92.1055 125.379C98.3574 125.379 102.966 128.505 102.966 133.242C102.966 137.609 99.2114 140.525 93.8779 141.041V146.391H105.479V149.323H78.8604V146.391H90.333V141.041C85.0317 140.525 81.2773 137.609 81.3096 133.242C81.2773 128.505 85.8857 125.379 92.1055 125.379ZM92.1055 128.279C87.8516 128.247 84.79 130.181 84.8223 133.242C84.79 136.4 87.8516 138.27 92.1055 138.27C96.4238 138.27 99.4531 136.4 99.4531 133.242C99.4531 130.181 96.4238 128.247 92.1055 128.279ZM132.292 123.768V145.392H128.876V135.111H125.847V144.715H122.495V124.315H125.847V132.179H128.876V123.768H132.292ZM133.098 149.388V152.288H112.795V143.361H116.372V149.388H133.098ZM119.659 126.152V134.982H112.086V138.431C115.47 138.398 118.048 138.221 121.013 137.657L121.335 140.525C117.822 141.138 114.857 141.267 110.604 141.267H108.605V132.275H116.211V128.988H108.573V126.152H119.659ZM150.693 126.249V140.01H136.9V126.249H150.693ZM140.413 129.117V137.174H147.181V129.117H140.413ZM158.879 123.735V132.275H162.939V135.272H158.879V145.005H155.302V123.735H158.879ZM160.039 149.388V152.288H140.22V142.942H143.797V149.388H160.039ZM189.559 123.735V152.868H186.11V123.735H189.559ZM183.564 124.251V151.45H180.148V137.593H177.377C177.039 143.265 174.605 146.777 170.996 146.745C167.193 146.777 164.712 142.749 164.712 136.336C164.712 129.923 167.193 125.959 170.996 125.959C174.525 125.959 176.926 129.246 177.345 134.692H180.148V124.251H183.564ZM170.996 129.343C169.159 129.311 167.999 131.792 168.031 136.336C167.999 140.88 169.159 143.361 170.996 143.329C172.93 143.361 174.09 140.88 174.09 136.336C174.09 131.792 172.93 129.311 170.996 129.343ZM215.598 126.571V145.649H201.805V126.571H215.598ZM205.317 129.375V142.781H212.021V129.375H205.317ZM223.59 123.735V134.918H228.069V137.947H223.59V152.868H220.013V123.735H223.59ZM242.539 124.315C248.984 124.315 253.013 126.442 253.045 129.987C253.013 133.468 248.984 135.562 242.539 135.53C236.158 135.562 232.033 133.468 232.033 129.987C232.033 126.442 236.158 124.315 242.539 124.315ZM242.539 127.119C238.285 127.119 235.739 128.118 235.771 129.987C235.739 131.76 238.285 132.727 242.539 132.759C246.793 132.727 249.339 131.76 249.339 129.987C249.339 128.118 246.793 127.119 242.539 127.119ZM252.626 142.717V152.514H232.42V142.717H252.626ZM235.965 145.553V149.613H249.146V145.553H235.965ZM255.849 137.496V140.396H229.294V137.496H255.849ZM282.951 123.735V152.868H279.503V123.735H282.951ZM276.957 124.251V151.45H273.541V137.593H270.77C270.431 143.265 267.998 146.777 264.389 146.745C260.586 146.777 258.104 142.749 258.104 136.336C258.104 129.923 260.586 125.959 264.389 125.959C267.917 125.959 270.318 129.246 270.737 134.692H273.541V124.251H276.957ZM264.389 129.343C262.552 129.311 261.392 131.792 261.424 136.336C261.392 140.88 262.552 143.361 264.389 143.329C266.322 143.361 267.482 140.88 267.482 136.336C267.482 131.792 266.322 129.311 264.389 129.343ZM317.82 137.399V140.268H297.389V126.281H317.595V129.182H300.934V137.399H317.82ZM320.785 146.197V149.162H294.166V146.197H320.785ZM346.276 131.985V134.821H326.103V124.799H329.647V131.985H346.276ZM349.273 138.205V141.041H322.654V138.205H349.273ZM346.47 149.291V152.191H325.845V143.619H329.422V149.291H346.47ZM373.637 125.83V139.107H360.037V125.83H373.637ZM363.55 128.698V136.239H370.092V128.698H363.55ZM382.016 123.735V131.244H386.076V134.241H382.016V143.007H378.438V123.735H382.016ZM374.636 142.427C374.604 145.939 378.213 149.065 384.078 149.903L382.66 152.707C378.148 151.982 374.636 149.936 372.896 147.035C371.091 149.936 367.578 151.982 363.066 152.707L361.648 149.903C367.481 149.065 371.059 145.939 371.059 142.427V141.621H374.636V142.427ZM404.735 125.476V128.344H398.612C398.661 131.76 401.174 135.031 405.767 136.336L403.962 139.14C400.594 138.141 398.161 136.03 396.84 133.339C395.535 136.239 393.037 138.527 389.557 139.623L387.752 136.819C392.409 135.45 394.922 131.953 395.003 128.344H388.719V125.476H404.735ZM411.825 123.735V139.526H408.216V123.735H411.825ZM396.099 140.815V143.812H408.248V140.815H411.825V152.514H392.554V140.815H396.099ZM396.099 149.613H408.248V146.584H396.099V149.613ZM429.324 124.187C435.963 124.187 439.798 125.959 439.83 129.182C439.798 132.437 435.963 134.177 429.324 134.209C422.686 134.177 418.818 132.437 418.818 129.182C418.818 125.959 422.686 124.187 429.324 124.187ZM429.324 126.829C424.877 126.829 422.557 127.667 422.589 129.182C422.557 130.793 424.877 131.534 429.324 131.534C433.836 131.534 436.124 130.793 436.124 129.182C436.124 127.667 433.836 126.829 429.324 126.829ZM442.634 135.756V138.624H416.079V135.756H442.634ZM439.314 140.59V147.712H422.75V149.871H440.12V152.61H419.237V145.166H435.802V143.232H419.205V140.59H439.314ZM462.904 129.697C462.904 132.823 465.257 135.885 469.833 137.109L468.222 139.849C464.838 138.962 462.453 137.029 461.164 134.531C459.859 137.271 457.41 139.397 453.978 140.396L452.27 137.561C456.878 136.336 459.327 133.113 459.327 129.697V129.601H453.236V126.765H459.327V123.606H462.937V126.765H468.995V129.601H462.904V129.697ZM475.408 123.735V130.503H479.469V133.468H475.408V140.429H471.831V123.735H475.408ZM475.827 141.782V144.65H468.125C468.802 147.067 472.073 149.323 477.052 150.032L475.763 152.771C471.203 152.127 467.754 150.177 466.062 147.519C464.387 150.161 460.971 152.062 456.459 152.707L455.138 150C460.133 149.307 463.372 147.132 464.064 144.65H456.33V141.782H475.827ZM489.137 125.347C493.616 125.347 496.968 128.183 497 132.308C496.968 136.433 493.616 139.301 489.137 139.301C484.625 139.301 481.241 136.433 481.273 132.308C481.241 128.183 484.625 125.347 489.137 125.347ZM489.137 128.344C486.623 128.344 484.754 129.923 484.786 132.308C484.754 134.757 486.623 136.271 489.137 136.271C491.618 136.271 493.487 134.757 493.487 132.308C493.487 129.923 491.618 128.344 489.137 128.344ZM503.929 123.735V130.277H507.989V133.178H503.929V140.106H500.352V123.735H503.929ZM490.974 142.62C490.941 145.085 492.053 147.615 494.551 149.259C497.081 147.502 498.225 144.812 498.257 142.62V141.363H501.737V142.62C501.737 145.714 503.542 148.582 507.377 149.871L505.604 152.514C502.785 151.482 500.932 149.613 499.933 147.261C498.998 149.597 497.274 151.676 494.615 152.771C491.86 151.708 490.136 149.71 489.233 147.357C488.186 149.646 486.349 151.515 483.658 152.514L481.886 149.871C485.624 148.518 487.493 145.488 487.525 142.62V141.363H490.974V142.62ZM532.288 123.735V134.789H536.768V137.722H532.288V152.9H528.711V123.735H532.288ZM524.296 126.507V129.407H514.241V142.781C518.769 142.781 522.346 142.556 526.358 141.847L526.777 144.876C522.266 145.649 518.334 145.778 513.081 145.778H510.664V126.507H524.296ZM541.537 150.258C540.151 150.258 539.023 149.13 539.023 147.744C539.023 146.391 540.151 145.263 541.537 145.263C542.858 145.263 544.019 146.391 544.019 147.744C544.019 149.13 542.858 150.258 541.537 150.258ZM206.316 165.894V173.467H209.7V163.251H213.116V190.45H209.7V176.367H206.316V184.359H194.876V165.894H206.316ZM198.228 168.729V181.523H202.965V168.729H198.228ZM219.11 162.735V191.868H215.662V162.735H219.11ZM246.02 172.146V175.046H225.781V164.121H229.358V172.146H246.02ZM249.049 178.623V181.523H242.668V191.868H239.059V181.523H232.484V191.868H228.907V181.523H222.494V178.623H249.049ZM274.669 175.98V178.816H266.032V185.487H277.634V188.42H251.015V185.487H262.487V178.816H254.237V164.895H274.443V167.763H257.814V175.98H274.669ZM295.326 164.862C297.969 164.862 300.144 166.329 301.449 168.891H308.249V162.735H311.794V191.9H308.249V180.879H301.707C300.45 183.779 298.146 185.455 295.326 185.455C290.943 185.455 287.85 181.491 287.85 175.143C287.85 168.858 290.943 164.862 295.326 164.862ZM295.326 168.085C292.909 168.085 291.266 170.695 291.298 175.143C291.266 179.622 292.909 182.232 295.326 182.232C297.743 182.232 299.354 179.622 299.387 175.143C299.354 170.695 297.743 168.085 295.326 168.085ZM302.448 171.823C302.658 172.838 302.771 173.95 302.771 175.143C302.771 176.158 302.69 177.092 302.545 177.979H308.249V171.823H302.448ZM340.282 162.735V191.9H336.705V176.399H331.71V173.467H336.705V162.735H340.282ZM330.034 165.281V175.948H320.495V182.071C324.813 182.055 328.31 181.91 332.226 181.201L332.516 184.134C328.165 184.907 324.298 185.068 319.271 185.068H316.95V173.048H326.521V168.182H316.854V165.281H330.034ZM367.224 162.735V174.111H371.542V177.108H367.224V191.804H363.646V162.735H367.224ZM359.521 165.765C359.521 174.337 355.977 181.846 346.276 186.615L344.246 183.844C351.336 180.315 355.171 175.352 355.912 168.729H345.825V165.765H359.521ZM383.917 171.018C383.917 175.787 386.721 180.814 391.426 182.78L389.46 185.616C386.012 184.134 383.498 181.072 382.177 177.366C380.823 181.362 378.277 184.714 374.861 186.325L372.799 183.521C377.407 181.395 380.275 175.98 380.275 171.018V168.568H373.862V165.604H390.298V168.568H383.917V171.018ZM397.162 162.735V191.868H393.553V162.735H397.162ZM424.265 162.735V173.789H428.744V176.722H424.265V191.9H420.688V162.735H424.265ZM416.272 165.507V168.407H406.218V181.781C410.746 181.781 414.323 181.556 418.335 180.847L418.754 183.876C414.242 184.649 410.311 184.778 405.058 184.778H402.641V165.507H416.272ZM433.514 189.258C432.128 189.258 431 188.13 431 186.744C431 185.391 432.128 184.263 433.514 184.263C434.835 184.263 435.995 185.391 435.995 186.744C435.995 188.13 434.835 189.258 433.514 189.258Z" fill="black"/>
<rect width="631" height="13" rx="6.5" fill="#222222" fill-opacity="0.2"/>
<rect width="319" height="13" rx="6.5" fill="#222222" fill-opacity="0.39"/>
<path d="M368.001 235H271.833V362.569H368.001V235Z" fill="#222222" stroke="#222222" stroke-width="2" stroke-miterlimit="10" stroke-linecap="round"/>
<path d="M271.832 254.626H267.907C265.208 254.626 263 252.418 263 249.719C263 247.021 265.208 244.813 267.907 244.813H271.832" fill="#E9E9E9"/>
<path d="M271.832 254.626H267.907C265.208 254.626 263 252.418 263 249.719C263 247.021 265.208 244.813 267.907 244.813H271.832" stroke="#222222" stroke-width="2" stroke-miterlimit="10" stroke-linecap="round"/>
<path d="M271.832 274.253H267.907C265.208 274.253 263 272.045 263 269.346C263 266.648 265.208 264.44 267.907 264.44H271.832" fill="#E9E9E9"/>
<path d="M271.832 274.253H267.907C265.208 274.253 263 272.045 263 269.346C263 266.648 265.208 264.44 267.907 264.44H271.832" stroke="#222222" stroke-width="2" stroke-miterlimit="10" stroke-linecap="round"/>
<path d="M271.832 293.878H267.907C265.208 293.878 263 291.671 263 288.972C263 286.273 265.208 284.065 267.907 284.065H271.832" fill="#E9E9E9"/>
<path d="M271.832 293.878H267.907C265.208 293.878 263 291.671 263 288.972C263 286.273 265.208 284.065 267.907 284.065H271.832" stroke="#222222" stroke-width="2" stroke-miterlimit="10" stroke-linecap="round"/>
<path d="M271.832 313.506H267.907C265.208 313.506 263 311.298 263 308.599C263 305.901 265.208 303.693 267.907 303.693H271.832" fill="#E9E9E9"/>
<path d="M271.832 313.506H267.907C265.208 313.506 263 311.298 263 308.599C263 305.901 265.208 303.693 267.907 303.693H271.832" stroke="#222222" stroke-width="2" stroke-miterlimit="10" stroke-linecap="round"/>
<path d="M271.832 333.131H267.907C265.208 333.131 263 330.923 263 328.225C263 325.526 265.208 323.318 267.907 323.318H271.832" fill="#E9E9E9"/>
<path d="M271.832 333.131H267.907C265.208 333.131 263 330.923 263 328.225C263 325.526 265.208 323.318 267.907 323.318H271.832" stroke="#222222" stroke-width="2" stroke-miterlimit="10" stroke-linecap="round"/>
<path d="M271.832 352.755H267.907C265.208 352.755 263 350.547 263 347.848C263 345.15 265.208 342.942 267.907 342.942H271.832" fill="#E9E9E9"/>
<path d="M271.832 352.755H267.907C265.208 352.755 263 350.547 263 347.848C263 345.15 265.208 342.942 267.907 342.942H271.832" stroke="#222222" stroke-width="2" stroke-miterlimit="10" stroke-linecap="round"/>
<path d="M349.798 287.988H290.645C288.824 287.988 287.348 289.464 287.348 291.285V294.504C287.348 296.325 288.824 297.801 290.645 297.801H349.798C351.619 297.801 353.095 296.325 353.095 294.504V291.285C353.095 289.464 351.619 287.988 349.798 287.988Z" fill="#222222" stroke="#E9E9E9" stroke-width="2" stroke-miterlimit="10" stroke-linecap="round"/>
<path d="M292.782 286.824C294.902 273.478 306.462 263.273 320.406 263.273C334.35 263.273 345.91 273.478 348.029 286.824" fill="#222222"/>
<path d="M292.782 286.824C294.902 273.478 306.462 263.273 320.406 263.273C334.35 263.273 345.91 273.478 348.029 286.824" stroke="#E9E9E9" stroke-width="2" stroke-miterlimit="10" stroke-linecap="round"/>
<path d="M315.99 262.457V256.216C315.99 253.517 318.198 251.31 320.897 251.31C323.595 251.31 325.803 253.517 325.803 256.216V262.624" fill="#222222"/>
<path d="M315.99 262.457V256.216C315.99 253.517 318.198 251.31 320.897 251.31C323.595 251.31 325.803 253.517 325.803 256.216V262.624" stroke="#E9E9E9" stroke-width="2" stroke-miterlimit="10" stroke-linecap="round"/>
<path d="M347.022 321.335H349.709V331.035C349.709 334.214 347.289 336.408 343.68 336.408C340.05 336.408 337.65 334.214 337.65 331.035V321.335H340.316V330.809C340.316 332.675 341.629 334.029 343.68 334.029C345.73 334.029 347.022 332.675 347.022 330.809V321.335Z" fill="#E9E9E9"/>
<path d="M334.903 321.335V336.182H332.524L325.49 326.031H325.367V336.182H322.701V321.335H325.121L332.114 331.486H332.258V321.335H334.903Z" fill="#E9E9E9"/>
<path d="M310.479 336.182V321.335H320.138V323.57H313.145V327.631H319.625V329.866H313.145V333.926H320.179V336.182H310.479Z" fill="#E9E9E9"/>
<path d="M292.165 321.335H295.446L299.855 332.122H300.04L304.449 321.335H307.73V336.182H305.167V325.969H305.023L300.901 336.141H298.994L294.872 325.928H294.749V336.182H292.165V321.335Z" fill="#E9E9E9"/>
<line x1="288.666" y1="316.166" x2="353.999" y2="316.166" stroke="white"/>
<line x1="288.666" y1="340.666" x2="353.999" y2="340.666" stroke="white"/>
</svg>
