<svg width="631" height="364" viewBox="0 0 631 364" fill="none" xmlns="http://www.w3.org/2000/svg">
<path d="M286.891 72.9062H293.406L295.609 75.625C296.898 73.9141 297.625 71.3359 297.625 68.0312C297.625 61.2812 294.625 57.625 289.656 57.625C284.688 57.625 281.688 61.2812 281.688 68.0312C281.688 74.7812 284.688 78.4375 289.656 78.4375C290.125 78.4375 290.594 78.4141 291.062 78.3438L286.891 72.9062ZM305.781 68.0312C305.781 74.0078 303.789 78.5547 300.531 81.5312L305.5 87.6719H298.234L295.609 84.4844C293.781 85.1406 291.766 85.4688 289.656 85.4688C280.516 85.4688 273.531 79.1875 273.531 68.0312C273.531 56.8281 280.516 50.5938 289.656 50.5938C298.75 50.5938 305.781 56.8281 305.781 68.0312ZM312.812 85.4688C310.469 85.4688 308.547 83.5938 308.594 81.2031C308.547 78.9062 310.469 77.0312 312.812 77.0312C315.062 77.0312 317.031 78.9062 317.078 81.2031C317.031 83.5938 315.062 85.4688 312.812 85.4688ZM330.578 79.2812V73.0469L344.641 51.0625H354.719V73H358.844V79.2812H354.719V85H347.078V79.2812H330.578ZM338.547 73H347.219V59.5469H346.938L338.547 72.7188V73Z" fill="black"/>
<path d="M177.812 125.895V127.635C177.78 129.633 177.78 132.501 177.103 136.207L173.558 135.885C174.122 132.872 174.235 130.648 174.299 128.859H162.956V125.895H177.812ZM170.464 132.533V138.334C173.478 138.221 176.571 137.996 179.391 137.593L179.584 140.171C173.526 141.267 166.662 141.363 161.538 141.396L161.215 138.527C162.939 138.511 164.873 138.495 166.919 138.463V132.533H170.464ZM184.773 123.735V132.823H188.543V135.82H184.773V145.553H181.099V123.735H184.773ZM185.708 149.388V152.288H165.566V143.619H169.175V149.388H185.708ZM214.325 123.768V140.235H210.715V123.768H214.325ZM214.325 141.686V152.514H194.989V141.686H214.325ZM198.534 144.521V149.613H210.812V144.521H198.534ZM200.918 127.699C200.918 131.405 203.4 134.886 207.944 136.336L206.204 139.075C202.836 138.028 200.419 135.885 199.114 133.081C197.776 136.094 195.327 138.495 191.831 139.655L190.058 136.819C194.795 135.305 197.212 131.534 197.212 127.699V124.863H200.918V127.699ZM228.923 142.685C228.923 145.102 230.035 147.647 232.533 149.227C235.062 147.535 236.239 144.892 236.271 142.685V141.492H239.784V142.685C239.751 145.746 241.556 148.582 245.391 149.807L243.651 152.417C240.815 151.466 238.93 149.613 237.915 147.293C236.98 149.581 235.256 151.627 232.629 152.675C229.858 151.676 228.118 149.71 227.215 147.39C226.168 149.629 224.315 151.45 221.608 152.417L219.835 149.807C223.606 148.485 225.411 145.521 225.443 142.685V141.492H228.923V142.685ZM242.845 123.768V140.268H239.236V123.768H242.845ZM226.958 125.314C231.437 125.314 234.789 128.15 234.789 132.243C234.789 136.304 231.437 139.14 226.958 139.14C222.446 139.14 219.094 136.304 219.094 132.243C219.094 128.15 222.446 125.314 226.958 125.314ZM226.958 128.344C224.412 128.344 222.575 129.858 222.607 132.243C222.575 134.628 224.412 136.175 226.958 136.175C229.471 136.175 231.276 134.628 231.276 132.243C231.276 129.858 229.471 128.344 226.958 128.344ZM270.689 131.985V134.821H250.515V124.799H254.06V131.985H270.689ZM273.686 138.205V141.041H247.067V138.205H273.686ZM270.882 149.291V152.191H250.257V143.619H253.834V149.291H270.882ZM310.038 138.817V141.686H298.791V146.713H295.246V141.686H283.418V138.817H310.038ZM307.105 149.388V152.288H286.641V144.264H290.186V149.388H307.105ZM290.444 124.67V127.957H303.012V124.67H306.557V136.529H286.899V124.67H290.444ZM290.444 133.693H303.012V130.632H290.444V133.693ZM319.802 125.862C324.185 125.862 327.343 129.858 327.375 136.143C327.343 142.491 324.185 146.455 319.802 146.455C315.387 146.455 312.197 142.491 312.229 136.143C312.197 129.858 315.387 125.862 319.802 125.862ZM319.802 129.085C317.353 129.085 315.677 131.695 315.677 136.143C315.677 140.622 317.353 143.232 319.802 143.232C322.284 143.232 323.927 140.622 323.927 136.143C323.927 131.695 322.284 129.085 319.802 129.085ZM339.106 130.696V133.693H334.788V139.301H339.106V142.233H334.788V152.868H331.21V123.735H334.788V130.696H339.106ZM363.308 123.735V135.111H367.626V138.108H363.308V152.804H359.731V123.735H363.308ZM355.606 126.765C355.606 135.337 352.061 142.846 342.361 147.615L340.331 144.844C347.42 141.315 351.255 136.352 351.997 129.729H341.91V126.765H355.606ZM385.931 129.149C385.931 132.308 387.768 135.466 391.603 136.916L389.702 139.655C387.107 138.656 385.303 136.803 384.255 134.531C383.192 137.142 381.291 139.365 378.519 140.525L376.585 137.786C380.582 136.014 382.451 132.372 382.483 129.149V125.54H385.931V129.149ZM401.754 123.768V141.621H398.338V134.048H395.438V140.719H392.086V124.315H395.438V131.115H398.338V123.768H401.754ZM391.925 142.104C398.016 142.104 401.883 144.103 401.916 147.454C401.883 150.806 398.016 152.836 391.925 152.836C385.77 152.836 381.935 150.806 381.935 147.454C381.935 144.103 385.77 142.104 391.925 142.104ZM391.925 144.812C387.897 144.812 385.512 145.746 385.512 147.454C385.512 149.194 387.897 150.097 391.925 150.097C395.921 150.097 398.306 149.194 398.306 147.454C398.306 145.746 395.921 144.812 391.925 144.812ZM420.575 125.508C420.575 126.41 420.494 127.28 420.349 128.118H426.182V123.768H429.759V140.171H426.182V137.109H419.253V134.177H426.182V131.019H419.543C417.658 135.659 413.308 138.946 407.007 140.654L405.622 137.851C412.18 136.094 416.079 132.662 416.708 128.408H407.201V125.508H420.575ZM415.805 142.749C415.805 145.198 416.901 147.744 419.415 149.355C421.977 147.631 423.121 144.94 423.153 142.749V141.073H426.633V142.749C426.601 145.778 428.438 148.679 432.273 149.903L430.468 152.546C427.665 151.563 425.795 149.694 424.829 147.357C423.878 149.678 422.154 151.74 419.447 152.836C416.708 151.789 415 149.791 414.097 147.454C413.034 149.694 411.213 151.547 408.554 152.546L406.717 149.903C410.488 148.614 412.325 145.553 412.357 142.749V141.073H415.805V142.749ZM456.701 123.735V134.789H461.18V137.722H456.701V152.9H453.124V123.735H456.701ZM448.708 126.507V129.407H438.654V142.781C443.182 142.781 446.759 142.556 450.771 141.847L451.19 144.876C446.678 145.649 442.747 145.778 437.494 145.778H435.077V126.507H448.708ZM465.95 150.258C464.564 150.258 463.436 149.13 463.436 147.744C463.436 146.391 464.564 145.263 465.95 145.263C467.271 145.263 468.431 146.391 468.431 147.744C468.431 149.13 467.271 150.258 465.95 150.258ZM129.601 165.571V168.858C129.601 172.758 129.601 176.786 128.538 182.909L124.896 182.587C126.024 176.851 126.024 172.629 126.024 168.858V168.472H109.234V165.571H129.601ZM132.985 184.939V187.872H106.43V184.939H132.985ZM159.346 162.768V182.2H155.769V173.563H150.226V170.631H155.769V162.768H159.346ZM150.033 165.023C150 172.726 145.553 178.011 136.884 180.718L135.337 177.914C142.041 175.9 145.553 172.403 146.166 167.892H136.852V165.023H150.033ZM151.418 181.04C151.386 184.649 154.996 187.937 160.796 188.871L159.346 191.707C154.834 190.934 151.354 188.807 149.614 185.777C147.825 188.807 144.329 190.95 139.817 191.739L138.399 188.903C144.232 188.033 147.841 184.649 147.841 181.04V179.912H151.418V181.04ZM188.608 162.735V191.868H185.16V162.735H188.608ZM182.614 163.251V190.45H179.198V176.593H176.426C176.088 182.265 173.655 185.777 170.045 185.745C166.243 185.777 163.761 181.749 163.761 175.336C163.761 168.923 166.243 164.959 170.045 164.959C173.574 164.959 175.975 168.246 176.394 173.692H179.198V163.251H182.614ZM170.045 168.343C168.208 168.311 167.048 170.792 167.081 175.336C167.048 179.88 168.208 182.361 170.045 182.329C171.979 182.361 173.139 179.88 173.139 175.336C173.139 170.792 171.979 168.311 170.045 168.343ZM224.895 162.735V191.868H221.479V177.012H218.192V190.386H214.905V163.283H218.192V174.144H221.479V162.735H224.895ZM211.618 166.184V169.084H204.334V182.039C207.509 182.007 210.119 181.846 213.068 181.298L213.326 184.23C209.813 184.939 206.751 185.036 202.691 185.068H200.725V166.184H211.618ZM251.321 162.768V171.92H255.381V174.885H251.321V184.521H247.744V162.768H251.321ZM245.649 165.99V168.858H228.375V165.99H235.24V162.735H238.817V165.99H245.649ZM237.012 170.051C241.202 170.051 244.102 172.274 244.134 175.626C244.102 178.945 241.202 181.137 237.012 181.137C232.791 181.137 229.858 178.945 229.858 175.626C229.858 172.274 232.791 170.051 237.012 170.051ZM237.012 172.822C234.789 172.822 233.338 173.854 233.338 175.626C233.338 177.366 234.789 178.397 237.012 178.365C239.236 178.397 240.718 177.366 240.718 175.626C240.718 173.854 239.236 172.822 237.012 172.822ZM252.481 188.388V191.288H232.662V182.812H236.239V188.388H252.481ZM277.811 180.943C284.127 180.976 288.124 182.974 288.156 186.422C288.124 189.806 284.127 191.836 277.811 191.836C271.527 191.836 267.499 189.806 267.499 186.422C267.499 182.974 271.527 180.976 277.811 180.943ZM277.811 183.65C273.622 183.65 271.076 184.649 271.108 186.422C271.076 188.13 273.622 189.064 277.811 189.064C282.033 189.064 284.579 188.13 284.611 186.422C284.579 184.649 282.033 183.65 277.811 183.65ZM287.962 164.121V166.538C287.962 168.826 287.962 171.275 287.157 174.272L283.612 173.95C284.337 171.114 284.385 169.068 284.385 166.957H267.789V164.121H287.962ZM291.185 175.948V178.849H264.759V175.948H275.007V170.663H278.552V175.948H291.185ZM319.802 179.687V182.522H308.201V191.868H304.656V182.522H293.183V179.687H319.802ZM299.951 163.896V167.473H312.97V163.896H316.58V176.657H296.406V163.896H299.951ZM299.951 173.757H312.97V170.309H299.951V173.757ZM348.323 175.948V178.655H321.704V175.948H348.323ZM345.1 180.396V187.034H328.407V189.064H345.97V191.546H324.83V184.714H341.555V182.909H324.797V180.396H345.1ZM345.036 163.38V169.954H328.632V171.855H345.551V174.305H325.087V167.634H341.458V165.861H324.991V163.38H345.036ZM380.904 162.735V174.337H385.383V177.302H380.904V191.868H377.359V162.735H380.904ZM375.103 167.215V170.083H357.926V167.215H364.823V163.154H368.4V167.215H375.103ZM366.627 171.984C370.817 171.984 373.943 174.82 373.943 178.849C373.943 182.877 370.817 185.681 366.627 185.681C362.374 185.681 359.248 182.877 359.28 178.849C359.248 174.82 362.374 171.984 366.627 171.984ZM366.627 174.917C364.339 174.917 362.696 176.464 362.696 178.849C362.696 181.233 364.339 182.748 366.627 182.716C368.851 182.748 370.495 181.233 370.527 178.849C370.495 176.464 368.851 174.917 366.627 174.917ZM410.391 165.41V168.214C410.359 171.823 410.359 175.884 409.231 181.975L405.622 181.588C406.75 175.916 406.75 171.775 406.782 168.278H389.379V165.41H410.391ZM413.163 185.165V188.098H386.608V185.165H396.405V175.046H399.95V185.165H413.163ZM447.226 162.768V178.913H443.617V162.768H447.226ZM433.82 166.603C433.82 170.276 436.269 173.757 440.877 175.078L439.169 177.946C435.77 176.883 433.32 174.724 432.015 171.952C430.678 174.949 428.196 177.318 424.7 178.43L422.959 175.594C427.665 174.144 430.114 170.438 430.114 166.603V163.799H433.82V166.603ZM447.387 180.363V183.199H443.713V188.613H447.645V191.514H427.278V188.613H431.242V183.199H427.536V180.363H447.387ZM434.787 188.613H440.168V183.199H434.787V188.613ZM478.035 177.785V180.653H451.48V177.785H478.035ZM475.038 188.388V191.288H454.767V182.812H458.344V188.388H475.038ZM464.725 163.67C471.074 163.67 475.199 165.894 475.231 169.567C475.199 173.273 471.074 175.529 464.725 175.529C458.376 175.529 454.219 173.273 454.219 169.567C454.219 165.894 458.376 163.67 464.725 163.67ZM464.725 166.538C460.503 166.538 457.925 167.634 457.958 169.567C457.925 171.533 460.503 172.629 464.725 172.597C468.979 172.629 471.525 171.533 471.525 169.567C471.525 167.634 468.979 166.538 464.725 166.538ZM505.137 162.735V191.868H501.657V162.735H505.137ZM499.014 163.315V190.45H495.663V176.464H490.055V173.531H495.663V163.315H499.014ZM492.053 166.151V169.02H484.48V182.2C487.928 182.168 490.394 182.023 493.246 181.427L493.536 184.359C490.249 185.036 487.348 185.165 482.933 185.197H480.967V166.151H492.053ZM512.066 189.258C510.68 189.258 509.552 188.13 509.552 186.744C509.552 185.391 510.68 184.263 512.066 184.263C513.387 184.263 514.547 185.391 514.547 186.744C514.547 188.13 513.387 189.258 512.066 189.258ZM521.057 189.258C519.671 189.258 518.543 188.13 518.543 186.744C518.543 185.391 519.671 184.263 521.057 184.263C522.378 184.263 523.539 185.391 523.539 186.744C523.539 188.13 522.378 189.258 521.057 189.258Z" fill="black"/>
<rect width="631" height="13" rx="6.5" fill="#222222" fill-opacity="0.2"/>
<rect width="319" height="13" rx="6.5" fill="#222222" fill-opacity="0.39"/>
<path d="M291.075 338.526C310.446 338.526 326.15 322.823 326.15 303.451C326.15 284.08 310.446 268.376 291.075 268.376C271.704 268.376 256 284.08 256 303.451C256 322.823 271.704 338.526 291.075 338.526Z" fill="#222222" stroke="#222222" stroke-width="2" stroke-miterlimit="10"/>
<path d="M291.076 330.434C276.198 330.434 264.095 318.331 264.095 303.453C264.095 288.576 276.198 276.473 291.076 276.473C305.953 276.473 318.056 288.576 318.056 303.453C318.056 318.331 305.953 330.434 291.076 330.434Z" fill="#E9E9E9" stroke="#222222" stroke-width="2" stroke-miterlimit="10"/>
<path d="M321.047 321.677L346.25 346.88C349.555 350.185 349.555 355.595 346.25 358.9C342.945 362.205 337.535 362.205 334.23 358.9L308.96 333.63" fill="#222222"/>
<path d="M321.047 321.677L346.25 346.88C349.555 350.185 349.555 355.595 346.25 358.9C342.945 362.205 337.535 362.205 334.23 358.9L308.96 333.63" stroke="#222222" stroke-width="2" stroke-miterlimit="10"/>
<path d="M282.98 269.319V236H348.73L374.985 265.935V354.716H282.98V337.585" stroke="#222222" stroke-width="2" stroke-miterlimit="10"/>
<path d="M348.729 236V265.949H374.985" fill="#222222"/>
<path d="M348.729 236V265.949H374.985" stroke="#222222" stroke-width="2" stroke-miterlimit="10"/>
<path d="M356.851 245.261H381.999V362.86H304.144V354.717" stroke="#222222" stroke-width="2" stroke-miterlimit="10"/>
<path d="M294.313 247.601H338.173" stroke="#222222" stroke-width="2" stroke-miterlimit="10"/>
<path d="M294.313 258.664H338.173" stroke="#222222" stroke-width="2" stroke-miterlimit="10"/>
<path d="M330.331 275.392H364.883" stroke="#222222" stroke-width="2" stroke-miterlimit="10"/>
<path d="M330.331 286.454H364.883" stroke="#222222" stroke-width="2" stroke-miterlimit="10"/>
<path d="M333.569 297.518H364.883" stroke="#222222" stroke-width="2" stroke-miterlimit="10"/>
<path d="M333.569 308.578H364.883" stroke="#222222" stroke-width="2" stroke-miterlimit="10"/>
</svg>
