<svg width="631" height="352" viewBox="0 0 631 352" fill="none" xmlns="http://www.w3.org/2000/svg">
<path d="M286.891 72.9062H293.406L295.609 75.625C296.898 73.9141 297.625 71.3359 297.625 68.0312C297.625 61.2812 294.625 57.625 289.656 57.625C284.688 57.625 281.688 61.2812 281.688 68.0312C281.688 74.7812 284.688 78.4375 289.656 78.4375C290.125 78.4375 290.594 78.4141 291.062 78.3438L286.891 72.9062ZM305.781 68.0312C305.781 74.0078 303.789 78.5547 300.531 81.5312L305.5 87.6719H298.234L295.609 84.4844C293.781 85.1406 291.766 85.4688 289.656 85.4688C280.516 85.4688 273.531 79.1875 273.531 68.0312C273.531 56.8281 280.516 50.5938 289.656 50.5938C298.75 50.5938 305.781 56.8281 305.781 68.0312ZM312.812 85.4688C310.469 85.4688 308.547 83.5938 308.594 81.2031C308.547 78.9062 310.469 77.0312 312.812 77.0312C315.062 77.0312 317.031 78.9062 317.078 81.2031C317.031 83.5938 315.062 85.4688 312.812 85.4688ZM330.578 79.2812V73.0469L344.641 51.0625H354.719V73H358.844V79.2812H354.719V85H347.078V79.2812H330.578ZM338.547 73H347.219V59.5469H346.938L338.547 72.7188V73Z" fill="black"/>
<path d="M106.801 133.081C106.607 131.083 104.899 129.923 102.386 129.923C99.7432 129.923 98.1318 131.212 98.1318 132.952C98.1318 134.918 100.194 135.724 102.128 136.175L104.319 136.755C107.8 137.561 111.151 139.397 111.151 143.458C111.151 147.551 107.929 150.354 102.321 150.354C96.875 150.354 93.459 147.744 93.2656 143.136H97.3906C97.584 145.585 99.6465 146.777 102.289 146.777C105.061 146.777 106.962 145.424 106.962 143.426C106.962 141.589 105.254 140.815 102.74 140.171L100.098 139.494C96.2627 138.495 93.8779 136.562 93.8779 133.21C93.8779 129.085 97.5518 126.346 102.45 126.346C107.413 126.346 110.765 129.149 110.829 133.081H106.801ZM133.807 126.668V150H130.068L119.015 134.048H118.821V150H114.632V126.668H118.435L129.424 142.62H129.649V126.668H133.807ZM150.822 133.081C150.629 131.083 148.921 129.923 146.407 129.923C143.765 129.923 142.153 131.212 142.153 132.952C142.153 134.918 144.216 135.724 146.149 136.175L148.341 136.755C151.821 137.561 155.173 139.397 155.173 143.458C155.173 147.551 151.95 150.354 146.343 150.354C140.896 150.354 137.48 147.744 137.287 143.136H141.412C141.605 145.585 143.668 146.777 146.311 146.777C149.082 146.777 150.983 145.424 150.983 143.426C150.983 141.589 149.275 140.815 146.762 140.171L144.119 139.494C140.284 138.495 137.899 136.562 137.899 133.21C137.899 129.085 141.573 126.346 146.472 126.346C151.435 126.346 154.786 129.149 154.851 133.081H150.822ZM182.598 123.735V152.868H179.149V123.735H182.598ZM176.604 124.251V151.45H173.188V137.593H170.416C170.078 143.265 167.645 146.777 164.035 146.745C160.232 146.777 157.751 142.749 157.751 136.336C157.751 129.923 160.232 125.959 164.035 125.959C167.564 125.959 169.965 129.246 170.384 134.692H173.188V124.251H176.604ZM164.035 129.343C162.198 129.311 161.038 131.792 161.07 136.336C161.038 140.88 162.198 143.361 164.035 143.329C165.969 143.361 167.129 140.88 167.129 136.336C167.129 131.792 165.969 129.311 164.035 129.343ZM196.745 130.729C196.745 136.143 199.323 141.46 203.964 143.49L201.805 146.358C198.501 144.747 196.181 141.653 194.94 137.851C193.667 141.863 191.299 145.198 187.947 146.906L185.691 144.006C190.429 141.782 193.071 136.175 193.104 130.729V126.088H196.745V130.729ZM210.409 123.735V152.9H206.864V136.046H200.741V133.146H206.864V123.735H210.409ZM230.422 125.347C234.176 125.314 237.141 127.522 237.898 130.793H243.151V123.735H246.729V140.332H243.151V133.726H237.931C237.238 137.077 234.241 139.333 230.422 139.333C226.007 139.333 222.72 136.433 222.72 132.34C222.72 128.247 226.007 125.314 230.422 125.347ZM230.422 128.344C227.94 128.312 226.136 129.923 226.136 132.34C226.136 134.789 227.94 136.304 230.422 136.336C232.839 136.304 234.611 134.789 234.644 132.34C234.611 129.923 232.839 128.312 230.422 128.344ZM246.729 141.686V152.514H227.36V141.686H246.729ZM230.938 144.521V149.613H243.216V144.521H230.938ZM261.327 129.955C261.327 133.146 263.809 136.304 268.385 137.528L266.709 140.3C263.341 139.381 260.924 137.416 259.587 134.886C258.33 137.754 255.897 140.01 252.433 141.041L250.757 138.27C255.301 136.884 257.75 133.468 257.75 129.955V129.794H251.659V126.958H257.75V123.606H261.359V126.958H267.418V129.794H261.327V129.955ZM275.249 123.735V141.363H271.672V134.628H266.548V131.728H271.672V123.735H275.249ZM265.388 141.943C271.543 141.943 275.346 143.909 275.346 147.357C275.346 150.838 271.543 152.836 265.388 152.836C259.265 152.836 255.462 150.838 255.494 147.357C255.462 143.909 259.265 141.943 265.388 141.943ZM265.388 144.683C261.327 144.715 259.039 145.617 259.039 147.357C259.039 149.098 261.327 150.064 265.388 150.064C269.513 150.064 271.769 149.098 271.769 147.357C271.769 145.617 269.513 144.715 265.388 144.683ZM304.511 126.7V129.536H287.237V126.7H294.102V123.574H297.679V126.7H304.511ZM295.874 130.696C300.096 130.696 302.964 132.855 302.996 136.014C302.964 139.204 300.096 141.363 295.874 141.363C291.652 141.363 288.72 139.204 288.72 136.014C288.72 132.855 291.652 130.696 295.874 130.696ZM295.874 133.436C293.65 133.436 292.2 134.37 292.2 136.014C292.2 137.689 293.65 138.592 295.874 138.592C298.098 138.592 299.58 137.689 299.58 136.014C299.58 134.37 298.098 133.436 295.874 133.436ZM310.183 123.735V131.76H314.243V134.757H310.183V144.135H306.605V123.735H310.183ZM302.803 142.975C302.771 146.294 306.38 149.227 312.277 150L310.956 152.707C306.364 152.062 302.803 150.145 301.03 147.357C299.258 150.145 295.729 152.062 291.137 152.707L289.815 150C295.648 149.227 299.226 146.294 299.226 142.975V142.523H302.803V142.975ZM338.703 123.768V132.92H342.764V135.885H338.703V145.521H335.126V123.768H338.703ZM333.031 126.99V129.858H315.758V126.99H322.622V123.735H326.199V126.99H333.031ZM324.395 131.051C328.584 131.051 331.484 133.274 331.517 136.626C331.484 139.945 328.584 142.137 324.395 142.137C320.173 142.137 317.24 139.945 317.24 136.626C317.24 133.274 320.173 131.051 324.395 131.051ZM324.395 133.822C322.171 133.822 320.721 134.854 320.721 136.626C320.721 138.366 322.171 139.397 324.395 139.365C326.618 139.397 328.101 138.366 328.101 136.626C328.101 134.854 326.618 133.822 324.395 133.822ZM339.863 149.388V152.288H320.044V143.812H323.621V149.388H339.863ZM376.408 123.735V152.868H372.799V123.735H376.408ZM367.707 126.829C367.707 135.498 364.355 142.878 354.14 147.712L352.271 144.844C359.892 141.218 363.437 136.288 364.065 129.665H353.753V126.829H367.707ZM391.007 130.729C390.975 135.917 393.585 141.202 398.097 143.361L395.905 146.229C392.747 144.634 390.475 141.557 389.234 137.851C387.961 141.814 385.577 145.102 382.241 146.777L380.05 143.909C384.723 141.686 387.397 136.11 387.43 130.729V126.088H391.007V130.729ZM403.414 123.735V135.144H407.894V138.205H403.414V152.868H399.837V123.735H403.414ZM435.705 136.948V139.655H409.086V136.948H435.705ZM432.482 141.396V148.034H415.789V150.064H433.353V152.546H412.212V145.714H428.938V143.909H412.18V141.396H432.482ZM432.418 124.38V130.954H416.015V132.855H432.934V135.305H412.47V128.634H428.841V126.861H412.373V124.38H432.418ZM469.672 123.735V138.979H466.127V123.735H469.672ZM458.908 140.171V147.454H452.463V149.839C455.927 149.807 458.119 149.678 460.713 149.194L461.067 151.837C457.974 152.449 455.428 152.514 450.852 152.514H448.982V144.94H455.396V142.846H448.982V140.171H458.908ZM469.672 140.171V152.707H466.191V143.039H460.068V140.171H469.672ZM453.72 124.992C458.135 124.96 461.422 127.731 461.454 131.599C461.422 135.498 458.135 138.237 453.72 138.237C449.272 138.237 445.985 135.498 445.985 131.599C445.985 127.731 449.272 124.96 453.72 124.992ZM453.72 127.925C451.271 127.925 449.466 129.343 449.466 131.599C449.466 133.822 451.271 135.337 453.72 135.337C456.169 135.337 457.974 133.822 457.974 131.599C457.974 129.343 456.169 127.925 453.72 127.925ZM484.657 142.62C484.625 145.085 485.753 147.631 488.267 149.259C490.78 147.502 491.908 144.812 491.94 142.62V141.267H495.453V142.62C495.453 145.649 497.226 148.582 501.125 149.807L499.32 152.481C496.5 151.482 494.631 149.613 493.648 147.261C492.682 149.581 490.941 151.644 488.267 152.707C485.56 151.692 483.835 149.71 482.885 147.357C481.854 149.613 480 151.466 477.31 152.481L475.569 149.807C479.34 148.518 481.145 145.488 481.177 142.62V141.267H484.657V142.62ZM482.079 125.282C485.801 125.282 488.798 127.474 489.556 130.696H494.809V123.735H498.386V140.171H494.809V133.597H489.588C488.895 136.916 485.866 139.14 482.079 139.14C477.664 139.14 474.377 136.271 474.377 132.211C474.377 128.183 477.664 125.282 482.079 125.282ZM482.079 128.279C479.63 128.279 477.825 129.826 477.825 132.211C477.825 134.563 479.63 136.175 482.079 136.175C484.464 136.175 486.269 134.563 486.269 132.211C486.269 129.826 484.464 128.279 482.079 128.279ZM525.327 123.735V134.789H529.807V137.722H525.327V152.9H521.75V123.735H525.327ZM517.335 126.507V129.407H507.28V142.781C511.808 142.781 515.385 142.556 519.397 141.847L519.816 144.876C515.305 145.649 511.373 145.778 506.12 145.778H503.703V126.507H517.335ZM534.576 150.258C533.19 150.258 532.062 149.13 532.062 147.744C532.062 146.391 533.19 145.263 534.576 145.263C535.897 145.263 537.058 146.391 537.058 147.744C537.058 149.13 535.897 150.258 534.576 150.258Z" fill="black"/>
<rect width="631" height="13" rx="6.5" fill="#222222" fill-opacity="0.2"/>
<rect width="510" height="13" rx="6.5" fill="#222222" fill-opacity="0.39"/>
<path d="M273.98 285.965V334.631H360.44L374.095 349V334.631H389.853V285.965H273.98Z" fill="#222222" stroke="#222222" stroke-width="2" stroke-miterlimit="10" stroke-linecap="round"/>
<path d="M338.406 218.759C338.406 218.759 319.866 234.517 330.99 257.229C342.114 279.94 367.142 272.06 367.142 272.06C367.142 272.06 390.317 267.425 387.536 237.298C384.755 207.171 355.091 203 355.091 203C355.091 203 359.726 224.784 347.212 227.102C347.212 227.102 338.406 228.029 338.406 218.759Z" fill="#D9D9D9" stroke="#222222" stroke-width="2" stroke-miterlimit="10" stroke-linecap="round"/>
<path d="M357.604 247.032C357.604 247.032 348.14 257.693 348.14 264.181C348.14 270.67 352.742 273.308 356.932 273.382" fill="#222222"/>
<path d="M357.604 247.032C357.604 247.032 348.14 257.693 348.14 264.181C348.14 270.67 352.742 273.308 356.932 273.382" stroke="#222222" stroke-width="2" stroke-miterlimit="10" stroke-linecap="round"/>
<path d="M357.873 247.032C357.873 247.032 367.338 257.693 367.338 264.181C367.338 270.67 362.735 273.308 358.545 273.382" fill="#222222"/>
<path d="M357.873 247.032C357.873 247.032 367.338 257.693 367.338 264.181C367.338 270.67 362.735 273.308 358.545 273.382" stroke="#222222" stroke-width="2" stroke-miterlimit="10" stroke-linecap="round"/>
<path d="M339.797 247.032H242V293.845H339.797V247.032Z" fill="#E9E9E9" stroke="#222222" stroke-width="2" stroke-miterlimit="10" stroke-linecap="round"/>
<path d="M304.76 264.181V260.668H323.354V264.181H316.168V284H311.979V264.181H304.76Z" fill="black"/>
<path d="M303.084 272.334C303.084 279.875 298.508 284.322 292.385 284.322C286.262 284.322 281.686 279.843 281.686 272.334C281.686 264.793 286.262 260.346 292.385 260.346C298.508 260.346 303.084 264.793 303.084 272.334ZM298.862 272.334C298.862 267.017 296.188 264.116 292.385 264.116C288.582 264.116 285.907 267.017 285.907 272.334C285.907 277.651 288.582 280.552 292.385 280.552C296.188 280.552 298.862 277.651 298.862 272.334Z" fill="black"/>
<path d="M258.676 284V260.668H262.865V270.562H273.726V260.668H277.947V284H273.726V274.074H262.865V284H258.676Z" fill="black"/>
<path d="M373.379 307.081C373.186 305.083 371.478 303.923 368.964 303.923C366.321 303.923 364.71 305.212 364.71 306.952C364.71 308.918 366.772 309.724 368.706 310.175L370.897 310.755C374.378 311.561 377.729 313.397 377.729 317.458C377.729 321.551 374.507 324.354 368.899 324.354C363.453 324.354 360.037 321.744 359.844 317.136H363.969C364.162 319.585 366.225 320.777 368.867 320.777C371.639 320.777 373.54 319.424 373.54 317.426C373.54 315.589 371.832 314.815 369.318 314.171L366.676 313.494C362.841 312.495 360.456 310.562 360.456 307.21C360.456 303.085 364.13 300.346 369.028 300.346C373.991 300.346 377.343 303.149 377.407 307.081H373.379Z" fill="#E9E9E9"/>
<path d="M333.74 324L327.166 300.668H331.678L335.899 317.845H336.125L340.604 300.668H344.729L349.241 317.877H349.435L353.656 300.668H358.168L351.594 324H347.437L342.764 307.597H342.603L337.897 324H333.74Z" fill="#E9E9E9"/>
<path d="M309.603 324V300.668H324.781V304.181H313.792V310.562H323.976V314.074H313.792V320.455H324.846V324H309.603Z" fill="#E9E9E9"/>
<path d="M305.284 300.668V324H301.546L290.492 308.048H290.299V324H286.109V300.668H289.912L300.901 316.62H301.127V300.668H305.284Z" fill="#E9E9E9"/>
<path d="M355.5 273L357.5 247L360.5 253.5L360 273H355.5Z" fill="#222222"/>
</svg>
