<svg width="631" height="363" viewBox="0 0 631 363" fill="none" xmlns="http://www.w3.org/2000/svg">
<path d="M287.242 72.9062H293.758L295.961 75.625C297.25 73.9141 297.977 71.3359 297.977 68.0312C297.977 61.2812 294.977 57.625 290.008 57.625C285.039 57.625 282.039 61.2812 282.039 68.0312C282.039 74.7812 285.039 78.4375 290.008 78.4375C290.477 78.4375 290.945 78.4141 291.414 78.3438L287.242 72.9062ZM306.133 68.0312C306.133 74.0078 304.141 78.5547 300.883 81.5312L305.852 87.6719H298.586L295.961 84.4844C294.133 85.1406 292.117 85.4688 290.008 85.4688C280.867 85.4688 273.883 79.1875 273.883 68.0312C273.883 56.8281 280.867 50.5938 290.008 50.5938C299.102 50.5938 306.133 56.8281 306.133 68.0312ZM313.164 85.4688C310.82 85.4688 308.898 83.5938 308.945 81.2031C308.898 78.9062 310.82 77.0312 313.164 77.0312C315.414 77.0312 317.383 78.9062 317.43 81.2031C317.383 83.5938 315.414 85.4688 313.164 85.4688ZM344.992 85.4688C337.586 85.4688 330.836 81.0625 330.836 68.6406C330.883 57.3906 336.508 50.5938 345.18 50.5938C352.305 50.5938 357.133 55.1406 357.789 60.8125H349.914C349.398 58.6094 347.57 57.4375 345.18 57.4375C340.867 57.4375 338.758 61.3281 338.758 67.5156H338.992C340.445 64.4688 343.867 62.6406 347.664 62.6406C353.805 62.6406 358.164 67.1875 358.164 73.5156C358.164 80.5938 352.82 85.4688 344.992 85.4688ZM344.945 79.2812C348.086 79.2812 350.43 76.9375 350.383 73.75C350.43 70.6094 348.133 68.2656 344.992 68.2656C341.852 68.2656 339.508 70.6562 339.508 73.7969C339.508 76.8438 341.805 79.2812 344.945 79.2812Z" fill="black"/>
<path d="M74.9771 123.768V145.134H71.3677V123.768H74.9771ZM75.7827 149.388V152.288H55.7056V143.2H59.3149V149.388H75.7827ZM61.7642 130.535C61.7642 133.983 64.2778 137.271 68.9185 138.592L67.2104 141.428C63.8105 140.429 61.3774 138.366 60.0562 135.724C58.7349 138.592 56.2695 140.848 52.8052 141.911L51.0649 139.107C55.7378 137.689 58.187 134.209 58.187 130.535V130.148H51.9673V127.312H58.187V123.896H61.7964V127.312H67.9839V130.148H61.7642V130.535ZM102.531 125.508V128.118C102.531 130.841 102.531 133.822 101.757 137.947H105.786V140.848H94.2163V152.9H90.6069V140.848H79.231V137.947H98.1157C98.9214 133.983 98.9536 131.019 98.9536 128.408H82.3569V125.508H102.531ZM130.729 123.768V130.729H134.822V133.693H130.729V141.267H127.152V123.768H130.729ZM122.157 125.54V133.919H112.457V136.98C117.403 136.948 120.787 136.771 124.767 136.11L125.154 138.979C120.803 139.752 117.033 139.945 111.264 139.913H108.879V131.212H118.644V128.376H108.847V125.54H122.157ZM121.222 141.911C127.216 141.943 130.987 143.974 131.019 147.422C130.987 150.838 127.216 152.804 121.222 152.804C115.099 152.804 111.361 150.838 111.361 147.422C111.361 143.974 115.099 141.943 121.222 141.911ZM121.222 144.715C117.162 144.715 114.841 145.682 114.874 147.422C114.841 149.162 117.162 150.097 121.222 150.097C125.25 150.097 127.474 149.162 127.474 147.422C127.474 145.682 125.25 144.715 121.222 144.715ZM169.175 123.735V152.868H165.759V138.012H162.472V151.386H159.185V124.283H162.472V135.144H165.759V123.735H169.175ZM155.898 127.184V130.084H148.615V143.039C151.789 143.007 154.399 142.846 157.348 142.298L157.606 145.23C154.093 145.939 151.032 146.036 146.971 146.068H145.005V127.184H155.898ZM195.666 123.735V135.756H199.758V138.753H195.666V152.868H192.056V123.735H195.666ZM172.269 144.779C174.477 144.779 177.039 144.779 179.713 144.715V141.976C176.539 141.444 174.46 139.446 174.493 136.723C174.46 133.436 177.361 131.244 181.55 131.244C185.675 131.244 188.608 133.436 188.64 136.723C188.608 139.462 186.497 141.46 183.323 141.976V144.586C185.772 144.457 188.221 144.264 190.509 143.941L190.735 146.552C184.483 147.68 177.748 147.744 172.785 147.744L172.269 144.779ZM190.187 127.087V129.923H172.817V127.087H179.713V123.864H183.323V127.087H190.187ZM181.55 133.983C179.327 134.016 177.876 135.015 177.876 136.723C177.876 138.398 179.327 139.397 181.55 139.365C183.742 139.397 185.192 138.398 185.192 136.723C185.192 135.015 183.742 134.016 181.55 133.983ZM227.731 136.948V139.655H201.112V136.948H227.731ZM224.508 141.396V148.034H207.815V150.064H225.378V152.546H204.238V145.714H220.963V143.909H204.206V141.396H224.508ZM224.444 124.38V130.954H208.041V132.855H224.959V135.305H204.496V128.634H220.867V126.861H204.399V124.38H224.444ZM260.312 123.735V135.337H264.792V138.302H260.312V152.868H256.767V123.735H260.312ZM254.511 128.215V131.083H237.334V128.215H244.231V124.154H247.808V128.215H254.511ZM246.036 132.984C250.225 132.984 253.351 135.82 253.351 139.849C253.351 143.877 250.225 146.681 246.036 146.681C241.782 146.681 238.656 143.877 238.688 139.849C238.656 135.82 241.782 132.984 246.036 132.984ZM246.036 135.917C243.748 135.917 242.104 137.464 242.104 139.849C242.104 142.233 243.748 143.748 246.036 143.716C248.259 143.748 249.903 142.233 249.935 139.849C249.903 137.464 248.259 135.917 246.036 135.917ZM288.833 123.735V134.789H293.312V137.722H288.833V152.9H285.255V123.735H288.833ZM280.84 126.507V129.407H270.786V142.781C275.313 142.781 278.891 142.556 282.903 141.847L283.322 144.876C278.81 145.649 274.878 145.778 269.625 145.778H267.208V126.507H280.84ZM317.353 123.735V135.111H321.671V138.108H317.353V152.804H313.776V123.735H317.353ZM309.651 126.765C309.651 135.337 306.106 142.846 296.406 147.615L294.375 144.844C301.465 141.315 305.3 136.352 306.042 129.729H295.955V126.765H309.651ZM355.993 126.056V128.795H332.209V126.056H342.361V123.445H345.938V126.056H355.993ZM344.133 129.665C350.321 129.665 353.833 131.18 353.833 133.951C353.833 136.433 350.998 137.867 345.938 138.108V140.01H357.443V142.846H330.888V140.01H342.361V138.108C337.301 137.867 334.465 136.449 334.465 133.951C334.465 131.18 337.978 129.665 344.133 129.665ZM344.133 132.146C340.137 132.146 338.107 132.791 338.139 133.951C338.107 135.111 340.137 135.691 344.133 135.691C348.162 135.691 350.127 135.111 350.16 133.951C350.127 132.791 348.162 132.146 344.133 132.146ZM354.059 144.715V152.868H350.45V147.454H333.756V144.715H354.059ZM385.963 138.785V141.653H359.409V138.785H385.963ZM382.966 149.388V152.288H362.696V143.812H366.273V149.388H382.966ZM372.654 124.67C379.002 124.67 383.127 126.894 383.16 130.567C383.127 134.273 379.002 136.529 372.654 136.529C366.305 136.529 362.148 134.273 362.148 130.567C362.148 126.894 366.305 124.67 372.654 124.67ZM372.654 127.538C368.432 127.538 365.854 128.634 365.886 130.567C365.854 132.533 368.432 133.629 372.654 133.597C376.908 133.629 379.454 132.533 379.454 130.567C379.454 128.634 376.908 127.538 372.654 127.538ZM409.65 133.081C409.457 131.083 407.749 129.923 405.235 129.923C402.592 129.923 400.981 131.212 400.981 132.952C400.981 134.918 403.043 135.724 404.977 136.175L407.168 136.755C410.649 137.561 414 139.397 414 143.458C414 147.551 410.778 150.354 405.17 150.354C399.724 150.354 396.308 147.744 396.115 143.136H400.24C400.433 145.585 402.496 146.777 405.138 146.777C407.91 146.777 409.811 145.424 409.811 143.426C409.811 141.589 408.103 140.815 405.589 140.171L402.947 139.494C399.112 138.495 396.727 136.562 396.727 133.21C396.727 129.085 400.401 126.346 405.299 126.346C410.262 126.346 413.614 129.149 413.678 133.081H409.65ZM436.656 126.668V150H432.917L421.864 134.048H421.67V150H417.481V126.668H421.284L432.273 142.62H432.499V126.668H436.656ZM453.671 133.081C453.478 131.083 451.77 129.923 449.256 129.923C446.614 129.923 445.002 131.212 445.002 132.952C445.002 134.918 447.065 135.724 448.999 136.175L451.19 136.755C454.67 137.561 458.022 139.397 458.022 143.458C458.022 147.551 454.799 150.354 449.192 150.354C443.746 150.354 440.33 147.744 440.136 143.136H444.261C444.455 145.585 446.517 146.777 449.16 146.777C451.931 146.777 453.833 145.424 453.833 143.426C453.833 141.589 452.125 140.815 449.611 140.171L446.968 139.494C443.133 138.495 440.749 136.562 440.749 133.21C440.749 129.085 444.422 126.346 449.321 126.346C454.284 126.346 457.635 129.149 457.7 133.081H453.671ZM486.897 136.948V139.655H460.278V136.948H486.897ZM483.674 141.396V148.034H466.981V150.064H484.544V152.546H463.404V145.714H480.129V143.909H463.372V141.396H483.674ZM483.61 124.38V130.954H467.207V132.855H484.125V135.305H463.662V128.634H480.033V126.861H463.565V124.38H483.61ZM519.478 123.735V135.337H523.958V138.302H519.478V152.868H515.933V123.735H519.478ZM513.677 128.215V131.083H496.5V128.215H503.397V124.154H506.974V128.215H513.677ZM505.202 132.984C509.391 132.984 512.517 135.82 512.517 139.849C512.517 143.877 509.391 146.681 505.202 146.681C500.948 146.681 497.822 143.877 497.854 139.849C497.822 135.82 500.948 132.984 505.202 132.984ZM505.202 135.917C502.914 135.917 501.27 137.464 501.27 139.849C501.27 142.233 502.914 143.748 505.202 143.716C507.425 143.748 509.069 142.233 509.101 139.849C509.069 137.464 507.425 135.917 505.202 135.917ZM547.999 123.735V134.789H552.478V137.722H547.999V152.9H544.421V123.735H547.999ZM540.006 126.507V129.407H529.952V142.781C534.479 142.781 538.057 142.556 542.069 141.847L542.488 144.876C537.976 145.649 534.044 145.778 528.792 145.778H526.375V126.507H540.006ZM576.519 123.735V135.111H580.837V138.108H576.519V152.804H572.942V123.735H576.519ZM568.817 126.765C568.817 135.337 565.272 142.846 555.572 147.615L553.542 144.844C560.631 141.315 564.466 136.352 565.208 129.729H555.121V126.765H568.817ZM188.157 185.391V188.323H161.538V185.391H173.01V179.042H164.47V164.991H185.095V179.042H176.555V185.391H188.157ZM167.983 167.859V176.238H181.55V167.859H167.983ZM216.677 185.487V188.42H190.058V185.487H216.677ZM213.519 164.798V174.176H196.793V177.979H214.196V180.814H193.216V171.308H209.974V167.698H193.152V164.798H213.519ZM242.168 170.985V173.821H221.995V163.799H225.54V170.985H242.168ZM245.166 177.205V180.041H218.546V177.205H245.166ZM242.362 188.291V191.191H221.737V182.619H225.314V188.291H242.362ZM265.339 169.729C265.307 174.917 267.917 180.202 272.429 182.361L270.238 185.229C267.08 183.634 264.808 180.557 263.567 176.851C262.294 180.814 259.909 184.102 256.574 185.777L254.382 182.909C259.055 180.686 261.73 175.11 261.762 169.729V165.088H265.339V169.729ZM277.747 162.735V174.144H282.226V177.205H277.747V191.868H274.169V162.735H277.747ZM307.653 162.735V177.592H304.108V162.735H307.653ZM307.717 178.945V186.519H291.958V188.774H308.587V191.61H288.446V183.844H304.14V181.717H288.381V178.945H307.717ZM294.311 165.7C294.311 169.406 296.76 172.887 301.369 174.272L299.628 177.044C296.245 176.013 293.828 173.837 292.506 171.05C291.185 174.079 288.704 176.448 285.223 177.56L283.418 174.756C288.124 173.241 290.605 169.503 290.605 165.7V163.444H294.311V165.7ZM325.216 163.187C331.855 163.187 335.69 164.959 335.722 168.182C335.69 171.437 331.855 173.177 325.216 173.209C318.578 173.177 314.71 171.437 314.71 168.182C314.71 164.959 318.578 163.187 325.216 163.187ZM325.216 165.829C320.769 165.829 318.449 166.667 318.481 168.182C318.449 169.793 320.769 170.534 325.216 170.534C329.728 170.534 332.016 169.793 332.016 168.182C332.016 166.667 329.728 165.829 325.216 165.829ZM338.526 174.756V177.624H311.971V174.756H338.526ZM335.207 179.59V186.712H318.642V188.871H336.012V191.61H315.129V184.166H331.694V182.232H315.097V179.59H335.207ZM352.867 164.024V167.73H359.667V164.024H363.211V176.722H349.322V164.024H352.867ZM352.867 173.886H359.667V170.438H352.867V173.886ZM371.3 162.735V168.633H375.361V171.533H371.3V177.656H367.723V162.735H371.3ZM371.3 178.816V186.454H355.832V188.774H372.203V191.61H352.287V183.844H367.723V181.62H352.254V178.816H371.3ZM401.239 162.768V184.295H397.662V177.946H390.636V175.014H397.662V171.404H391.023C388.96 175.884 384.674 179.235 378.777 181.04L377.262 178.236C383.691 176.174 387.816 172.468 388.477 167.859H378.777V164.991H392.409C392.409 166.216 392.264 167.392 392.022 168.504H397.662V162.768H401.239ZM401.98 188.388V191.288H382.257V182.168H385.899V188.388H401.98ZM430.275 162.768V180.718H426.859V173.338H424.087V180.363H420.736V163.187H424.087V170.405H426.859V162.768H430.275ZM419.705 165.732V168.568H405.203V165.732H410.713V162.896H414.258V165.732H419.705ZM412.486 169.664C416.192 169.696 418.802 171.694 418.834 174.724C418.802 177.721 416.192 179.783 412.486 179.783C408.844 179.783 406.202 177.721 406.234 174.724C406.202 171.694 408.844 169.696 412.486 169.664ZM412.486 172.274C410.681 172.274 409.424 173.145 409.424 174.724C409.424 176.238 410.649 177.173 412.486 177.173C414.323 177.173 415.58 176.238 415.58 174.724C415.58 173.145 414.323 172.274 412.486 172.274ZM416.224 182.329C416.224 184.585 417.304 186.905 419.737 188.355C422.202 186.809 423.346 184.359 423.378 182.329V181.62H426.923V182.329C426.923 185.101 428.76 187.775 432.563 188.807L430.887 191.514C428.035 190.611 426.134 188.807 425.119 186.551C424.2 188.774 422.492 190.756 419.801 191.771C417.062 190.805 415.338 188.936 414.419 186.712C413.356 188.839 411.455 190.595 408.748 191.514L407.072 188.807C410.81 187.679 412.679 184.939 412.679 182.329V181.62H416.224V182.329ZM456.701 162.735V173.789H461.18V176.722H456.701V191.9H453.124V162.735H456.701ZM448.708 165.507V168.407H438.654V181.781C443.182 181.781 446.759 181.556 450.771 180.847L451.19 183.876C446.678 184.649 442.747 184.778 437.494 184.778H435.077V165.507H448.708ZM465.95 189.258C464.564 189.258 463.436 188.13 463.436 186.744C463.436 185.391 464.564 184.263 465.95 184.263C467.271 184.263 468.431 185.391 468.431 186.744C468.431 188.13 467.271 189.258 465.95 189.258Z" fill="black"/>
<rect width="631" height="13" rx="6.5" fill="#222222" fill-opacity="0.2"/>
<rect width="410" height="13" rx="6.5" fill="#222222" fill-opacity="0.39"/>
<path d="M304.405 338.81C332.796 338.81 355.81 315.796 355.81 287.405C355.81 259.015 332.796 236 304.405 236C276.015 236 253 259.015 253 287.405C253 315.796 276.015 338.81 304.405 338.81Z" fill="#222222" stroke="#222222" stroke-width="2" stroke-miterlimit="10"/>
<path d="M304.405 326.902C282.628 326.902 264.908 309.182 264.908 287.406C264.908 265.629 282.628 247.909 304.405 247.909C326.182 247.909 343.902 265.629 343.902 287.406C343.902 309.182 326.182 326.902 304.405 326.902Z" fill="#E9E9E9" stroke="#222222" stroke-width="2" stroke-miterlimit="10"/>
<path d="M304.604 298.324C312.277 298.324 318.498 292.103 318.498 284.43C318.498 276.757 312.277 270.537 304.604 270.537C296.931 270.537 290.711 276.757 290.711 284.43C290.711 292.103 296.931 298.324 304.604 298.324Z" fill="#E9E9E9" stroke="#222222" stroke-width="2" stroke-miterlimit="10"/>
<path d="M296.864 299.511C297.023 297.924 295.342 295.343 294.681 294.351L314.925 293.756C314.131 295.079 312.504 298.043 312.345 299.313C312.186 300.583 312.676 301.562 312.94 301.893H296.467C296.533 301.761 296.705 301.099 296.864 299.511Z" fill="#E9E9E9"/>
<path d="M353.423 322.663L339.271 336.815C337.676 338.41 337.676 340.996 339.271 342.592L356.792 360.112C358.387 361.707 360.973 361.707 362.568 360.112L376.72 345.96C378.316 344.365 378.316 341.778 376.72 340.183L359.2 322.663C357.605 321.068 355.018 321.068 353.423 322.663Z" fill="#222222" stroke="#222222" stroke-width="2" stroke-miterlimit="10"/>
<path d="M333.494 329.793L339.945 336.145" stroke="#222222" stroke-width="2" stroke-miterlimit="10"/>
<path d="M346.582 316.803L353.025 323.063" stroke="#222222" stroke-width="2" stroke-miterlimit="10"/>
<path d="M305.795 257.037C305.795 256.38 305.262 255.846 304.604 255.846C303.946 255.846 303.413 256.38 303.413 257.037V264.976C303.413 265.634 303.946 266.167 304.604 266.167C305.262 266.167 305.795 265.634 305.795 264.976V257.037Z" fill="#222222" stroke="#222222" stroke-miterlimit="10"/>
<path d="M277.611 281.651C276.953 281.651 276.42 282.184 276.42 282.842C276.42 283.5 276.953 284.033 277.611 284.033H285.55C286.208 284.033 286.741 283.5 286.741 282.842C286.741 282.184 286.208 281.651 285.55 281.651H277.611Z" fill="#222222" stroke="#222222" stroke-miterlimit="10"/>
<path d="M286.758 264.506C286.293 264.041 285.539 264.041 285.074 264.506C284.608 264.971 284.608 265.725 285.074 266.19L290.687 271.804C291.152 272.269 291.906 272.269 292.371 271.804C292.836 271.339 292.836 270.585 292.371 270.12L286.758 264.506Z" fill="#222222" stroke="#222222" stroke-miterlimit="10"/>
<path d="M323.658 281.651C323 281.651 322.467 282.184 322.467 282.842C322.467 283.5 323 284.033 323.658 284.033H331.597C332.254 284.033 332.788 283.5 332.788 282.842C332.788 282.184 332.254 281.651 331.597 281.651H323.658Z" fill="#222222" stroke="#222222" stroke-miterlimit="10"/>
<path d="M316.835 270.117C316.37 270.582 316.37 271.336 316.835 271.801C317.3 272.266 318.054 272.266 318.519 271.801L324.133 266.187C324.598 265.722 324.598 264.968 324.133 264.503C323.668 264.038 322.913 264.038 322.448 264.503L316.835 270.117Z" fill="#222222" stroke="#222222" stroke-miterlimit="10"/>
<path d="M312.543 309.039C312.543 313.425 308.99 316.978 304.604 316.978C300.218 316.978 296.665 313.425 296.665 309.039" fill="#E9E9E9"/>
<path d="M312.543 309.039C312.543 313.425 308.99 316.978 304.604 316.978C300.218 316.978 296.665 313.425 296.665 309.039" stroke="#222222" stroke-width="2" stroke-miterlimit="10"/>
<path d="M312.742 305.464H296.467C295.48 305.464 294.681 306.264 294.681 307.25C294.681 308.237 295.48 309.037 296.467 309.037H312.742C313.729 309.037 314.528 308.237 314.528 307.25C314.528 306.264 313.729 305.464 312.742 305.464Z" fill="#222222" stroke="#222222" stroke-width="2" stroke-miterlimit="10"/>
<path d="M294.203 293.634C294.203 293.634 297.855 298.322 296.466 301.894" stroke="#222222" stroke-width="2" stroke-miterlimit="10"/>
<path d="M315.039 293.634C315.039 293.634 311.387 298.322 312.776 301.894" stroke="#222222" stroke-width="2" stroke-miterlimit="10"/>
<path d="M300.236 291.178C300.236 291.178 302.558 299.911 301.796 301.896" stroke="#222222" stroke-width="3" stroke-miterlimit="10" stroke-linecap="round"/>
<path d="M309.093 291.178C309.093 291.178 306.77 299.911 307.532 301.896" stroke="#222222" stroke-width="3" stroke-miterlimit="10" stroke-linecap="round"/>
<path d="M312.742 301.894H296.467C295.48 301.894 294.681 302.693 294.681 303.68C294.681 304.666 295.48 305.466 296.467 305.466H312.742C313.729 305.466 314.528 304.666 314.528 303.68C314.528 302.693 313.729 301.894 312.742 301.894Z" fill="#222222" stroke="#222222" stroke-width="2" stroke-miterlimit="10"/>
</svg>
