<svg width="631" height="365" viewBox="0 0 631 365" fill="none" xmlns="http://www.w3.org/2000/svg">
<path d="M288.906 72.9062H295.422L297.625 75.625C298.914 73.9141 299.641 71.3359 299.641 68.0312C299.641 61.2812 296.641 57.625 291.672 57.625C286.703 57.625 283.703 61.2812 283.703 68.0312C283.703 74.7812 286.703 78.4375 291.672 78.4375C292.141 78.4375 292.609 78.4141 293.078 78.3438L288.906 72.9062ZM307.797 68.0312C307.797 74.0078 305.805 78.5547 302.547 81.5312L307.516 87.6719H300.25L297.625 84.4844C295.797 85.1406 293.781 85.4688 291.672 85.4688C282.531 85.4688 275.547 79.1875 275.547 68.0312C275.547 56.8281 282.531 50.5938 291.672 50.5938C300.766 50.5938 307.797 56.8281 307.797 68.0312ZM314.828 85.4688C312.484 85.4688 310.562 83.5938 310.609 81.2031C310.562 78.9062 312.484 77.0312 314.828 77.0312C317.078 77.0312 319.047 78.9062 319.094 81.2031C319.047 83.5938 317.078 85.4688 314.828 85.4688ZM334.469 85L348.344 57.7656V57.5312H332.125V51.0625H356.641V57.5781L342.719 85H334.469Z" fill="black"/>
<path d="M125.428 123.768V145.134H121.818V123.768H125.428ZM126.233 149.388V152.288H106.156V143.2H109.766V149.388H126.233ZM112.215 130.535C112.215 133.983 114.729 137.271 119.369 138.592L117.661 141.428C114.261 140.429 111.828 138.366 110.507 135.724C109.186 138.592 106.72 140.848 103.256 141.911L101.516 139.107C106.188 137.689 108.638 134.209 108.638 130.535V130.148H102.418V127.312H108.638V123.896H112.247V127.312H118.435V130.148H112.215V130.535ZM152.981 125.508V128.118C152.981 130.841 152.981 133.822 152.208 137.947H156.236V140.848H144.667V152.9H141.058V140.848H129.682V137.947H148.566C149.372 133.983 149.404 131.019 149.404 128.408H132.808V125.508H152.981ZM167.645 125.766C172.253 125.733 175.637 128.666 175.669 132.791C175.637 136.948 172.253 139.849 167.645 139.849C163.068 139.849 159.652 136.948 159.652 132.791C159.652 128.666 163.068 125.733 167.645 125.766ZM167.645 128.859C165.099 128.859 163.197 130.374 163.197 132.791C163.197 135.24 165.099 136.723 167.645 136.723C170.223 136.723 172.156 135.24 172.156 132.791C172.156 130.374 170.223 128.859 167.645 128.859ZM182.469 123.735V152.9H178.892V123.735H182.469ZM158.331 143.877C163.584 143.877 170.867 143.812 177.151 142.91L177.441 145.521C170.899 146.777 163.906 146.81 158.782 146.81L158.331 143.877ZM212.053 126.797V129.601H206.026C206.091 132.114 208.395 134.354 212.697 135.208L211.279 137.979C207.944 137.287 205.575 135.724 204.286 133.629C203.013 135.917 200.628 137.641 197.196 138.366L195.682 135.595C200.048 134.741 202.369 132.275 202.417 129.601H196.423V126.797H202.449V123.8H206.026V126.797H212.053ZM218.917 123.768V152.836H215.372V123.768H218.917ZM194.586 139.881C200 139.881 207.251 139.849 213.471 139.075L213.729 141.653C211.215 142.088 208.604 142.362 206.059 142.523V151.966H202.449V142.717C199.791 142.83 197.261 142.846 195.037 142.846L194.586 139.881ZM238.479 126.475V145.778H224.621V126.475H238.479ZM228.166 129.278V142.91H234.998V129.278H228.166ZM247.309 123.735V152.9H243.699V123.735H247.309ZM274.411 123.735V135.111H278.729V138.108H274.411V152.804H270.834V123.735H274.411ZM266.709 126.765C266.709 135.337 263.164 142.846 253.464 147.615L251.434 144.844C258.523 141.315 262.358 136.352 263.1 129.729H253.013V126.765H266.709ZM312.213 123.768V145.037H308.604V123.768H312.213ZM313.019 149.388V152.288H292.941V143.007H296.551V149.388H313.019ZM298.807 128.215C298.807 132.275 301.191 136.11 305.8 137.657L303.963 140.493C300.644 139.333 298.275 137.013 297.002 134.048C295.681 137.222 293.28 139.768 289.848 141.009L287.979 138.173C292.716 136.497 295.101 132.404 295.101 128.215V125.379H298.807V128.215ZM343.054 138.302V141.17H331.807V146.52H328.262V141.17H316.435V138.302H343.054ZM339.638 125.057V135.595H319.818V125.057H339.638ZM323.299 127.86V132.791H336.093V127.86H323.299ZM340.121 149.388V152.288H319.657V143.845H323.234V149.388H340.121ZM377.021 123.735V138.979H373.476V123.735H377.021ZM366.257 140.171V147.454H359.812V149.839C363.276 149.807 365.467 149.678 368.062 149.194L368.416 151.837C365.322 152.449 362.776 152.514 358.2 152.514H356.331V144.94H362.744V142.846H356.331V140.171H366.257ZM377.021 140.171V152.707H373.54V143.039H367.417V140.171H377.021ZM361.068 124.992C365.483 124.96 368.771 127.731 368.803 131.599C368.771 135.498 365.483 138.237 361.068 138.237C356.621 138.237 353.334 135.498 353.334 131.599C353.334 127.731 356.621 124.96 361.068 124.992ZM361.068 127.925C358.619 127.925 356.814 129.343 356.814 131.599C356.814 133.822 358.619 135.337 361.068 135.337C363.518 135.337 365.322 133.822 365.322 131.599C365.322 129.343 363.518 127.925 361.068 127.925ZM405.67 123.735V152.868H402.061V123.735H405.67ZM396.969 126.829C396.969 135.498 393.617 142.878 383.401 147.712L381.532 144.844C389.154 141.218 392.699 136.288 393.327 129.665H383.015V126.829H396.969ZM432.676 123.735V134.918H437.155V137.915H432.676V152.9H429.131V123.735H432.676ZM424.426 126.281V137.271H414.629V143.071C419.237 143.039 422.831 142.846 426.907 142.137L427.229 145.037C422.75 145.843 418.754 146.036 413.469 146.036H411.084V134.402H420.849V129.182H411.02V126.281H424.426ZM462.163 126.41V129.214C462.131 132.823 462.131 136.884 461.003 142.975L457.394 142.588C458.521 136.916 458.521 132.775 458.554 129.278H441.151V126.41H462.163ZM464.935 146.165V149.098H438.38V146.165H448.177V136.046H451.722V146.165H464.935ZM497.548 123.735V135.337H502.027V138.302H497.548V152.868H494.003V123.735H497.548ZM491.747 128.215V131.083H474.57V128.215H481.467V124.154H485.044V128.215H491.747ZM483.271 132.984C487.461 132.984 490.587 135.82 490.587 139.849C490.587 143.877 487.461 146.681 483.271 146.681C479.018 146.681 475.892 143.877 475.924 139.849C475.892 135.82 479.018 132.984 483.271 132.984ZM483.271 135.917C480.983 135.917 479.34 137.464 479.34 139.849C479.34 142.233 480.983 143.748 483.271 143.716C485.495 143.748 487.139 142.233 487.171 139.849C487.139 137.464 485.495 135.917 483.271 135.917ZM518.076 126.442V130.471H524.135V123.735H527.68V152.9H524.135V141.267H518.076V145.682H504.348V126.442H518.076ZM507.925 129.246V142.846H514.563V129.246H507.925ZM518.076 138.398H524.135V133.371H518.076V138.398ZM188.672 173.982V176.915H184.354V191.804H180.777V162.735H184.354V173.982H188.672ZM166.114 165.571V181.652C169.997 181.588 174.138 181.25 178.521 180.331L178.908 183.36C174.009 184.327 169.336 184.617 165.018 184.617H162.569V165.571H166.114ZM215.195 162.735V191.868H211.747V162.735H215.195ZM209.201 163.251V190.45H205.785V176.593H203.013C202.675 182.265 200.242 185.777 196.632 185.745C192.83 185.777 190.348 181.749 190.348 175.336C190.348 168.923 192.83 164.959 196.632 164.959C200.161 164.959 202.562 168.246 202.981 173.692H205.785V163.251H209.201ZM196.632 168.343C194.795 168.311 193.635 170.792 193.667 175.336C193.635 179.88 194.795 182.361 196.632 182.329C198.566 182.361 199.726 179.88 199.726 175.336C199.726 170.792 198.566 168.311 196.632 168.343ZM243.715 162.735V191.868H240.299V162.735H243.715ZM237.528 163.444V190.482H234.144V177.076H228.956C227.248 180.428 224.508 183.328 220.383 185.713L218.353 183.167C224.396 179.606 227.151 175.046 227.699 169.181H219.835V166.28H231.244C231.244 169.1 230.905 171.743 230.116 174.208H234.144V163.444H237.528ZM281.485 180.234V183.167H269.948V191.9H266.403V183.167H254.93V180.234H281.485ZM279.003 166.184V169.02H270.012C270.351 171.904 274.137 174.917 279.97 175.626L278.649 178.462C273.831 177.85 270.093 175.723 268.208 172.919C266.29 175.755 262.52 177.85 257.669 178.462L256.38 175.626C262.197 174.917 266.016 171.952 266.371 169.02H257.379V166.184H266.403V162.768H269.948V166.184H279.003ZM293.924 169.632C293.924 173.112 296.341 176.464 300.95 177.882L299.209 180.686C295.906 179.687 293.521 177.576 292.184 174.885C290.895 177.785 288.494 180.073 285.094 181.169L283.354 178.365C287.93 176.915 290.347 173.37 290.347 169.632V169.181H284.256V166.345H290.347V162.929H293.957V166.345H300.015V169.181H293.924V169.632ZM307.846 162.768V184.392H304.269V174.305H299.048V171.437H304.269V162.768H307.846ZM308.587 188.388V191.288H288.736V182.522H292.313V188.388H308.587ZM334.949 162.768V171.92H339.009V174.885H334.949V184.521H331.372V162.768H334.949ZM329.277 165.99V168.858H312.003V165.99H318.868V162.735H322.445V165.99H329.277ZM320.64 170.051C324.83 170.051 327.73 172.274 327.762 175.626C327.73 178.945 324.83 181.137 320.64 181.137C316.418 181.137 313.486 178.945 313.486 175.626C313.486 172.274 316.418 170.051 320.64 170.051ZM320.64 172.822C318.417 172.822 316.966 173.854 316.966 175.626C316.966 177.366 318.417 178.397 320.64 178.365C322.864 178.397 324.346 177.366 324.346 175.626C324.346 173.854 322.864 172.822 320.64 172.822ZM336.109 188.388V191.288H316.29V182.812H319.867V188.388H336.109ZM363.308 162.735V173.789H367.788V176.722H363.308V191.9H359.731V162.735H363.308ZM355.316 165.507V168.407H345.261V181.781C349.789 181.781 353.366 181.556 357.378 180.847L357.797 183.876C353.286 184.649 349.354 184.778 344.101 184.778H341.684V165.507H355.316ZM392.795 165.41V168.214C392.763 171.823 392.763 175.884 391.635 181.975L388.026 181.588C389.154 175.916 389.154 171.775 389.186 168.278H371.784V165.41H392.795ZM395.567 185.165V188.098H369.012V185.165H378.809V175.046H382.354V185.165H395.567ZM428.341 162.768V171.92H432.402V174.885H428.341V184.521H424.764V162.768H428.341ZM422.669 165.99V168.858H405.396V165.99H412.26V162.735H415.837V165.99H422.669ZM414.033 170.051C418.222 170.051 421.123 172.274 421.155 175.626C421.123 178.945 418.222 181.137 414.033 181.137C409.811 181.137 406.878 178.945 406.878 175.626C406.878 172.274 409.811 170.051 414.033 170.051ZM414.033 172.822C411.809 172.822 410.359 173.854 410.359 175.626C410.359 177.366 411.809 178.397 414.033 178.365C416.256 178.397 417.739 177.366 417.739 175.626C417.739 173.854 416.256 172.822 414.033 172.822ZM429.501 188.388V191.288H409.682V182.812H413.259V188.388H429.501ZM456.701 162.735V173.789H461.18V176.722H456.701V191.9H453.124V162.735H456.701ZM448.708 165.507V168.407H438.654V181.781C443.182 181.781 446.759 181.556 450.771 180.847L451.19 183.876C446.678 184.649 442.747 184.778 437.494 184.778H435.077V165.507H448.708ZM465.95 189.258C464.564 189.258 463.436 188.13 463.436 186.744C463.436 185.391 464.564 184.263 465.95 184.263C467.271 184.263 468.431 185.391 468.431 186.744C468.431 188.13 467.271 189.258 465.95 189.258Z" fill="black"/>
<rect width="631" height="13" rx="6.5" fill="#222222" fill-opacity="0.2"/>
<rect width="492" height="13" rx="6.5" fill="#222222" fill-opacity="0.39"/>
<path d="M355.902 306.637V338.851C355.902 345.073 350.856 350.12 344.634 350.12H294.546C294.263 350.12 293.986 350.111 293.713 350.088" stroke="#222222" stroke-width="2" stroke-miterlimit="10" stroke-linecap="round"/>
<path d="M283.279 332.96V239.269C283.279 233.047 288.326 228 294.548 228H344.636C350.858 228 355.905 233.047 355.905 239.269V247.428" stroke="#222222" stroke-width="2" stroke-miterlimit="10" stroke-linecap="round"/>
<path d="M362.905 247.428H313.289C309.491 247.428 306.41 250.509 306.41 254.307V299.76C306.41 303.558 309.491 306.639 313.289 306.639H319.594V322.293L333.06 306.639H362.905C366.703 306.639 369.784 303.558 369.784 299.76V254.307C369.784 250.509 366.703 247.428 362.905 247.428Z" fill="#222222" stroke="#222222" stroke-width="2" stroke-miterlimit="10" stroke-linecap="round"/>
<path d="M331.851 238.177H317.973C316.951 238.177 316.123 239.006 316.123 240.028C316.123 241.049 316.951 241.878 317.973 241.878H331.851C332.873 241.878 333.701 241.049 333.701 240.028C333.701 239.006 332.873 238.177 331.851 238.177Z" fill="#222222" stroke="#222222" stroke-width="2" stroke-miterlimit="10" stroke-linecap="round"/>
<path d="M326.3 335.32H312.423C311.401 335.32 310.572 336.149 310.572 337.171C310.572 338.193 311.401 339.021 312.423 339.021H326.3C327.322 339.021 328.15 338.193 328.15 337.171C328.15 336.149 327.322 335.32 326.3 335.32Z" fill="#222222" stroke="#222222" stroke-width="2" stroke-miterlimit="10" stroke-linecap="round"/>
<path d="M310.573 238.177H308.26C307.239 238.177 306.41 239.006 306.41 240.028C306.41 241.049 307.239 241.878 308.26 241.878H310.573C311.595 241.878 312.424 241.049 312.424 240.028C312.424 239.006 311.595 238.177 310.573 238.177Z" fill="#222222" stroke="#222222" stroke-width="2" stroke-miterlimit="10" stroke-linecap="round"/>
<path d="M262 363.999C262 363.999 263.85 309.877 265.238 306.639C266.626 303.4 283.279 283.199 283.279 283.199" stroke="#222222" stroke-width="2" stroke-miterlimit="10" stroke-linecap="round"/>
<path d="M283.278 332.962C283.278 332.962 284.666 334.396 290.217 329.77C295.768 325.144 300.394 317.752 306.407 320.523C312.421 323.294 305.903 333.47 301.994 337.171C298.085 340.872 294.843 354.287 281.428 360.3V364.001" stroke="#222222" stroke-width="2" stroke-miterlimit="10" stroke-linecap="round"/>
<path d="M325.091 276.572H318.254C317.332 276.572 316.584 277.319 316.584 278.241V294.793C316.584 295.715 317.332 296.463 318.254 296.463H325.091C326.013 296.463 326.761 295.715 326.761 294.793V278.241C326.761 277.319 326.013 276.572 325.091 276.572Z" stroke="#E9E9E9" stroke-width="2" stroke-miterlimit="10" stroke-linecap="round"/>
<path d="M326.762 279.578C326.762 279.578 336.939 277.723 338.095 268.356C339.251 258.988 340.639 258.068 343.415 258.068C346.19 258.068 348.041 260.843 347.578 267.32C347.115 273.796 346.19 274.721 346.19 274.721H354.697C357.75 274.721 360.072 277.464 359.563 280.475L357.745 291.291C357.38 293.474 355.488 295.074 353.272 295.074H335.338C333.64 295.074 331.947 294.843 330.31 294.385L326.762 293.395" stroke="#E9E9E9" stroke-width="2" stroke-miterlimit="10" stroke-linecap="round"/>
</svg>
