<svg width="22" height="27" viewBox="0 0 26 27" fill="none" xmlns="http://www.w3.org/2000/svg">
    <path d="M18.567 23.9214C16.8783 24.8428 14.9431 25.3663 12.8848 25.3663C6.32167 25.3663 1 20.0348 1 13.4596C1 10.995 1.74622 8.7065 3.02643 6.80664" stroke="black" stroke-width="0.8" stroke-miterlimit="10"/>
    <path d="M23.028 7.24805C24.1348 9.05646 24.7715 11.1827 24.7715 13.4598C24.7715 16.7634 23.4296 19.7515 21.2617 21.9074" stroke="black" stroke-width="0.8" stroke-miterlimit="10"/>
    <path d="M5.44043 4.17538C7.47827 2.53386 10.0684 1.55078 12.8867 1.55078C14.9291 1.55078 16.8528 2.06747 18.5324 2.97739" stroke="black" stroke-width="0.8" stroke-miterlimit="10"/>
    <path d="M7.18457 11.0249C7.73454 5.61571 10.0782 1.55078 12.8873 1.55078C16.1027 1.55078 18.7111 6.88229 18.7111 13.4598C18.7111 20.0373 16.1027 25.3688 12.8873 25.3688C10.6395 25.3688 8.6907 22.7671 7.71856 18.9559" stroke="black" stroke-width="0.8" stroke-miterlimit="10"/>
    <path d="M12.8867 25.3665V1.55078" stroke="black" stroke-width="0.8" stroke-miterlimit="10"/>
    <path d="M9.9707 13.4609H24.7719" stroke="black" stroke-width="0.8" stroke-miterlimit="10"/>
    <path d="M1 13.4609H4.15375" stroke="black" stroke-width="0.8" stroke-miterlimit="10"/>
    <path d="M23.8821 5.54961C24.9683 3.63146 23.7337 1.15546 21.5384 1.00686C21.4631 1.00229 21.3901 1 21.3148 1C21.2395 1 21.1642 1.00229 21.0911 1.00686C18.8958 1.15546 17.6636 3.63146 18.7475 5.54961L21.3148 10.0855L23.8821 5.54961Z" stroke="black" stroke-width="0.8" stroke-miterlimit="10"/>
    <path d="M21.3144 5.8033C22.2798 5.8033 23.0625 5.01923 23.0625 4.05204C23.0625 3.08485 22.2798 2.30078 21.3144 2.30078C20.349 2.30078 19.5664 3.08485 19.5664 4.05204C19.5664 5.01923 20.349 5.8033 21.3144 5.8033Z" stroke="black" stroke-width="0.8" stroke-miterlimit="10"/>
    <path d="M9.63011 15.577C10.7163 13.6588 9.48177 11.1828 7.28647 11.0342C7.21116 11.0296 7.13814 11.0273 7.06283 11.0273C6.98753 11.0273 6.91222 11.0296 6.8392 11.0342C4.64389 11.1828 3.4116 13.6588 4.49556 15.577L6.74335 19.5459L7.06512 20.1128L9.63239 15.577H9.63011Z" stroke="black" stroke-width="0.8" stroke-miterlimit="10"/>
    <path d="M7.06346 15.8287C8.02887 15.8287 8.81148 15.0446 8.81148 14.0774C8.81148 13.1102 8.02887 12.3262 7.06346 12.3262C6.09805 12.3262 5.31543 13.1102 5.31543 14.0774C5.31543 15.0446 6.09805 15.8287 7.06346 15.8287Z" stroke="black" stroke-width="0.8" stroke-miterlimit="10"/>
    <path d="M21.0339 23.0627C21.6546 21.9676 20.9494 20.5524 19.6943 20.4655C19.651 20.4632 19.6099 20.4609 19.5665 20.4609C19.5232 20.4609 19.4798 20.4609 19.4387 20.4655C18.1836 20.5501 17.4785 21.9653 18.0992 23.0627L19.5665 25.6553L21.0339 23.0627Z" stroke="black" stroke-width="0.8" stroke-miterlimit="10"/>
    <path d="M19.5659 23.2059C20.118 23.2059 20.5655 22.7575 20.5655 22.2045C20.5655 21.6515 20.118 21.2031 19.5659 21.2031C19.0139 21.2031 18.5664 21.6515 18.5664 22.2045C18.5664 22.7575 19.0139 23.2059 19.5659 23.2059Z" stroke="black" stroke-width="0.8" stroke-miterlimit="10"/>
    <path d="M5.56122 6.09783C6.18193 5.00272 5.47679 3.58754 4.22168 3.50067C4.17832 3.49838 4.13724 3.49609 4.09388 3.49609C4.05053 3.49609 4.00717 3.49609 3.96609 3.50067C2.71098 3.58526 2.00584 5.00044 2.62654 6.09783L4.09388 8.69042L5.56122 6.09783Z" stroke="black" stroke-width="0.8" stroke-miterlimit="10"/>
    <path d="M4.09425 6.24493C4.64627 6.24493 5.09378 5.7966 5.09378 5.24356C5.09378 4.69052 4.64627 4.24219 4.09425 4.24219C3.54223 4.24219 3.09473 4.69052 3.09473 5.24356C3.09473 5.7966 3.54223 6.24493 4.09425 6.24493Z" stroke="black" stroke-width="0.8" stroke-miterlimit="10"/>
    <path d="M19.5342 6.94486C17.6698 7.77705 15.3969 8.26631 12.946 8.26631C10.0752 8.26631 7.45089 7.59644 5.44043 6.49219" stroke="black" stroke-width="0.8" stroke-miterlimit="10"/>
    <path d="M7.66602 19.2049C9.24746 18.6836 11.0434 18.3887 12.9489 18.3887C16.6344 18.3887 19.9113 19.4906 22.0085 21.2053" stroke="black" stroke-width="0.8" stroke-miterlimit="10"/>
    <path d="M3.87012 21.2204C4.66882 20.5643 5.64096 19.9973 6.7409 19.5469" stroke="black" stroke-width="0.8" stroke-miterlimit="10"/>
    </svg>