<svg width="22" height="29" viewBox="0 0 29 29" fill="none" xmlns="http://www.w3.org/2000/svg">
    <path d="M20.172 6.79297H8.83006C7.70568 6.79297 6.79419 7.70446 6.79419 8.82884V20.1708C6.79419 21.2952 7.70568 22.2067 8.83006 22.2067H20.172C21.2964 22.2067 22.2079 21.2952 22.2079 20.1708V8.82884C22.2079 7.70446 21.2964 6.79297 20.172 6.79297Z" stroke="black" stroke-width="1.5" stroke-miterlimit="10"/>
    <path d="M19.5505 18.058V10.9428C19.5505 10.1179 18.8818 9.44922 18.0569 9.44922H10.9418C10.1169 9.44922 9.4482 10.1179 9.4482 10.9428V18.058C9.4482 18.8828 10.1169 19.5516 10.9418 19.5516H18.0569C18.8818 19.5516 19.5505 18.8828 19.5505 18.058Z" stroke="black" stroke-width="1.5" stroke-miterlimit="10"/>
    <path d="M8.32471 2.85938H12.5786V6.79269" stroke="black" stroke-width="1.5" stroke-miterlimit="10"/>
    <path d="M20.6745 2.85938H16.4207V6.79269" stroke="black" stroke-width="1.5" stroke-miterlimit="10"/>
    <path d="M20.6745 26.1384H16.4207V22.2051" stroke="black" stroke-width="1.5" stroke-miterlimit="10"/>
    <path d="M8.32471 26.1384H12.5786V22.2051" stroke="black" stroke-width="1.5" stroke-miterlimit="10"/>
    <path d="M2.86011 20.6758V16.4219H6.79342" stroke="black" stroke-width="1.5" stroke-miterlimit="10"/>
    <path d="M2.86011 8.32227V12.5762H6.79342" stroke="black" stroke-width="1.5" stroke-miterlimit="10"/>
    <path d="M26.1393 8.32227V12.5762H22.207" stroke="black" stroke-width="1.5" stroke-miterlimit="10"/>
    <path d="M26.1393 20.6758V16.4219H22.207" stroke="black" stroke-width="1.5" stroke-miterlimit="10"/>
    <path d="M8.32308 28.0016C8.83699 28.0016 9.25359 27.585 9.25359 27.0711C9.25359 26.5572 8.83699 26.1406 8.32308 26.1406C7.80918 26.1406 7.39258 26.5572 7.39258 27.0711C7.39258 27.585 7.80918 28.0016 8.32308 28.0016Z" stroke="black" stroke-width="1.5" stroke-miterlimit="10"/>
    <path d="M20.6761 28.0016C21.19 28.0016 21.6066 27.585 21.6066 27.0711C21.6066 26.5572 21.19 26.1406 20.6761 26.1406C20.1622 26.1406 19.7456 26.5572 19.7456 27.0711C19.7456 27.585 20.1622 28.0016 20.6761 28.0016Z" stroke="black" stroke-width="1.5" stroke-miterlimit="10"/>
    <path d="M8.32308 2.86101C8.83699 2.86101 9.25359 2.44441 9.25359 1.93051C9.25359 1.4166 8.83699 1 8.32308 1C7.80918 1 7.39258 1.4166 7.39258 1.93051C7.39258 2.44441 7.80918 2.86101 8.32308 2.86101Z" stroke="black" stroke-width="1.5" stroke-miterlimit="10"/>
    <path d="M20.6761 2.86101C21.19 2.86101 21.6066 2.44441 21.6066 1.93051C21.6066 1.4166 21.19 1 20.6761 1C20.1622 1 19.7456 1.4166 19.7456 1.93051C19.7456 2.44441 20.1622 2.86101 20.6761 2.86101Z" stroke="black" stroke-width="1.5" stroke-miterlimit="10"/>
    <path d="M1.93051 21.6052C2.44441 21.6052 2.86101 21.1885 2.86101 20.6746C2.86101 20.1607 2.44441 19.7441 1.93051 19.7441C1.4166 19.7441 1 20.1607 1 20.6746C1 21.1885 1.4166 21.6052 1.93051 21.6052Z" stroke="black" stroke-width="1.5" stroke-miterlimit="10"/>
    <path d="M1.93051 9.25359C2.44441 9.25359 2.86101 8.83699 2.86101 8.32308C2.86101 7.80918 2.44441 7.39258 1.93051 7.39258C1.4166 7.39258 1 7.80918 1 8.32308C1 8.83699 1.4166 9.25359 1.93051 9.25359Z" stroke="black" stroke-width="1.5" stroke-miterlimit="10"/>
    <path d="M27.0689 21.6052C27.5828 21.6052 27.9994 21.1885 27.9994 20.6746C27.9994 20.1607 27.5828 19.7441 27.0689 19.7441C26.555 19.7441 26.1384 20.1607 26.1384 20.6746C26.1384 21.1885 26.555 21.6052 27.0689 21.6052Z" stroke="black" stroke-width="1.5" stroke-miterlimit="10"/>
    <path d="M27.0689 9.25359C27.5828 9.25359 27.9994 8.83699 27.9994 8.32308C27.9994 7.80918 27.5828 7.39258 27.0689 7.39258C26.555 7.39258 26.1384 7.80918 26.1384 8.32308C26.1384 8.83699 26.555 9.25359 27.0689 9.25359Z" stroke="black" stroke-width="1.5" stroke-miterlimit="10"/>
    </svg>