<svg width="22" height="31" viewBox="0 0 33 31" fill="none" xmlns="http://www.w3.org/2000/svg">
    <path d="M4.21338 17.0703C4.59074 12.7553 7.37375 9.10428 11.2593 7.38086" stroke="black" stroke-width="1.3" stroke-miterlimit="10" stroke-linecap="round"/>
    <path d="M24.1161 27.0688C22.0052 28.7908 19.2797 29.8274 16.3051 29.8274C13.3304 29.8274 10.4457 28.7294 8.31128 26.916" stroke="black" stroke-width="1.3" stroke-miterlimit="10" stroke-linecap="round"/>
    <path d="M21.5703 7.48047C25.3409 9.24244 28.0281 12.8378 28.3967 17.0728" stroke="black" stroke-width="1.3" stroke-miterlimit="10" stroke-linecap="round"/>
    <path d="M16.3049 5.14364C17.4861 5.14364 18.4437 4.21605 18.4437 3.07182C18.4437 1.92759 17.4861 1 16.3049 1C15.1236 1 14.166 1.92759 14.166 3.07182C14.166 4.21605 15.1236 5.14364 16.3049 5.14364Z" stroke="black" stroke-width="1.3" stroke-miterlimit="10" stroke-linecap="round"/>
    <path d="M14.8392 4.58203C14.8392 4.58203 12.7151 6.41397 13.2104 8.27875C13.2959 8.59716 13.5907 8.82134 13.9312 8.82134H16.3044" stroke="black" stroke-width="1.3" stroke-miterlimit="10" stroke-linecap="round"/>
    <path d="M17.7716 4.58203C17.7716 4.58203 19.8957 6.41397 19.4004 8.27875C19.3149 8.59716 19.0201 8.82134 18.6796 8.82134H16.3064" stroke="black" stroke-width="1.3" stroke-miterlimit="10" stroke-linecap="round"/>
    <path d="M4.1701 22.7472C5.35136 22.7472 6.30895 21.8196 6.30895 20.6753C6.30895 19.5311 5.35136 18.6035 4.1701 18.6035C2.98885 18.6035 2.03125 19.5311 2.03125 20.6753C2.03125 21.8196 2.98885 22.7472 4.1701 22.7472Z" stroke="black" stroke-width="1.3" stroke-miterlimit="10" stroke-linecap="round"/>
    <path d="M2.7037 22.1855C2.7037 22.1855 0.579589 24.0175 1.07487 25.8823C1.16037 26.2007 1.45518 26.4249 1.79568 26.4249H4.16891" stroke="black" stroke-width="1.3" stroke-miterlimit="10" stroke-linecap="round"/>
    <path d="M5.63537 22.1855C5.63537 22.1855 7.75948 24.0175 7.2642 25.8823C7.17871 26.2007 6.8839 26.4249 6.54339 26.4249H4.17017" stroke="black" stroke-width="1.3" stroke-miterlimit="10" stroke-linecap="round"/>
    <path d="M28.4394 22.7472C29.6206 22.7472 30.5782 21.8196 30.5782 20.6753C30.5782 19.5311 29.6206 18.6035 28.4394 18.6035C27.2581 18.6035 26.3005 19.5311 26.3005 20.6753C26.3005 21.8196 27.2581 22.7472 28.4394 22.7472Z" stroke="black" stroke-width="1.3" stroke-miterlimit="10" stroke-linecap="round"/>
    <path d="M26.974 22.1855C26.974 22.1855 24.8499 24.0175 25.3451 25.8823C25.4306 26.2007 25.7254 26.4249 26.0659 26.4249H28.4392" stroke="black" stroke-width="1.3" stroke-miterlimit="10" stroke-linecap="round"/>
    <path d="M29.9054 22.1855C29.9054 22.1855 32.0295 24.0175 31.5342 25.8823C31.4487 26.2007 31.1539 26.4249 30.8134 26.4249H28.4402" stroke="black" stroke-width="1.3" stroke-miterlimit="10" stroke-linecap="round"/>
    <path d="M10.5308 21.1908L11.6968 20.0842C11.7793 20.0057 11.8899 19.9629 12.0049 19.9629H19.2852C19.5284 19.9629 19.726 19.7715 19.726 19.5359V13.509C19.726 13.2734 19.5284 13.082 19.2852 13.082H10.2213C9.97804 13.082 9.78052 13.2734 9.78052 13.509V20.8867C9.78052 21.2651 10.2507 21.4564 10.5308 21.1923V21.1908Z" stroke="black" stroke-width="1.3" stroke-miterlimit="10" stroke-linecap="round"/>
    <path d="M19.7276 15.8945H22.3882C22.6315 15.8945 22.829 16.0859 22.829 16.3215V23.6992C22.829 24.0776 22.3588 24.2689 22.0787 24.0048L20.9127 22.8982C20.8302 22.8196 20.7196 22.7768 20.6046 22.7768H13.3243C13.0811 22.7768 12.8835 22.5855 12.8835 22.3499V19.9625" stroke="black" stroke-width="1.3" stroke-miterlimit="10" stroke-linecap="round"/>
    </svg>