<svg width="22" height="32" viewBox="0 0 33 32" fill="none" xmlns="http://www.w3.org/2000/svg">
    <path d="M22.9589 30.9936C27.9908 30.9936 32.07 26.9144 32.07 21.8825C32.07 16.8506 27.9908 12.7715 22.9589 12.7715C17.9271 12.7715 13.8479 16.8506 13.8479 21.8825C13.8479 26.9144 17.9271 30.9936 22.9589 30.9936Z" stroke="black" stroke-width="1.1" stroke-miterlimit="10" stroke-linecap="round"/>
    <path d="M22.9589 19.5L20.4514 21.3212L21.4089 24.2674H24.5076L25.4651 21.3212L22.9589 19.5Z" stroke="black" stroke-width="1.1" stroke-miterlimit="10" stroke-linecap="round"/>
    <path d="M29.5058 28.2177L28.8733 26.2715H25.7758L24.8184 29.2189L26.3596 30.3376" stroke="black" stroke-width="1.1" stroke-miterlimit="10" stroke-linecap="round"/>
    <path d="M19.1512 30.1626L20.4512 29.2189L19.4937 26.2715H16.3963L15.9363 27.689" stroke="black" stroke-width="1.1" stroke-miterlimit="10" stroke-linecap="round"/>
    <path d="M30.8637 17.2441H29.0813L28.1238 20.1903L30.6312 22.0115L32.0274 20.9966" stroke="black" stroke-width="1.1" stroke-miterlimit="10" stroke-linecap="round"/>
    <path d="M13.8857 21.0503L15.2082 22.0115L17.7144 20.1903L16.7569 17.2441H15.1157" stroke="black" stroke-width="1.1" stroke-miterlimit="10" stroke-linecap="round"/>
    <path d="M24.9926 13L25.4651 14.4525L22.9589 16.2737L20.4514 14.4525L20.9239 13" stroke="black" stroke-width="1.1" stroke-miterlimit="10" stroke-linecap="round"/>
    <path d="M22.9592 16.2734V19.4996" stroke="black" stroke-width="1.1" stroke-miterlimit="10" stroke-linecap="round"/>
    <path d="M25.4658 21.3214L28.1245 20.1914" stroke="black" stroke-width="1.1" stroke-miterlimit="10" stroke-linecap="round"/>
    <path d="M17.7146 20.1914L20.452 21.3214" stroke="black" stroke-width="1.1" stroke-miterlimit="10" stroke-linecap="round"/>
    <path d="M24.5071 24.2676L25.7758 26.2725" stroke="black" stroke-width="1.1" stroke-miterlimit="10" stroke-linecap="round"/>
    <path d="M21.4086 24.2676L19.4937 26.2725" stroke="black" stroke-width="1.1" stroke-miterlimit="10" stroke-linecap="round"/>
    <path d="M7.77265 11.0785C7.73265 10.7348 7.71265 10.386 7.71265 10.0323C7.71265 5.04366 11.7563 1 16.7437 1C21.7311 1 25.776 5.04366 25.776 10.0323C25.776 10.6273 25.7185 11.2085 25.6085 11.771" stroke="black" stroke-width="1.1" stroke-miterlimit="10" stroke-linecap="round"/>
    <path d="M16.7449 1V12.6172" stroke="black" stroke-width="1.1" stroke-miterlimit="10" stroke-linecap="round"/>
    <path d="M10.2527 3.75195C10.2527 3.75195 13.8389 5.8619 12.3926 12.7705" stroke="black" stroke-width="1.1" stroke-miterlimit="10" stroke-linecap="round"/>
    <path d="M23.2123 3.75195C23.2123 3.75195 20.1074 5.57816 20.8399 11.3955" stroke="black" stroke-width="1.1" stroke-miterlimit="10" stroke-linecap="round"/>
    <path d="M7.71265 10.0332H25.776" stroke="black" stroke-width="1.1" stroke-miterlimit="10" stroke-linecap="round"/>
    <path d="M15.2479 30.1584C15.0941 30.3009 14.9267 30.4309 14.7479 30.5447C11.8817 32.3759 6.91934 29.7309 3.66316 24.6373C0.408235 19.5424 0.0932424 13.9275 2.95943 12.0963C5.59687 10.4114 10.008 12.5151 13.2317 16.83C13.5117 17.205 13.7829 17.5974 14.0442 18.0049" stroke="black" stroke-width="1.1" stroke-miterlimit="10" stroke-linecap="round"/>
    <path d="M1.20874 18.6857C1.20874 18.6857 4.24117 14.7832 9.57605 13.207" stroke="black" stroke-width="1.1" stroke-miterlimit="10" stroke-linecap="round"/>
    <path d="M14.1183 26.2051C12.6996 27.3451 10.6684 28.6388 8.10596 29.3963" stroke="black" stroke-width="1.1" stroke-miterlimit="10" stroke-linecap="round"/>
    <path d="M7.37524 18.3262L11.1114 24.2673" stroke="black" stroke-width="1.1" stroke-miterlimit="10" stroke-linecap="round"/>
    <path d="M7.26953 20.0264L8.95074 18.9102" stroke="black" stroke-width="1.1" stroke-miterlimit="10" stroke-linecap="round"/>
    <path d="M8.40332 21.8558L10.0845 20.7383" stroke="black" stroke-width="1.1" stroke-miterlimit="10" stroke-linecap="round"/>
    <path d="M9.50903 23.5862L11.1902 22.4688" stroke="black" stroke-width="1.1" stroke-miterlimit="10" stroke-linecap="round"/>
    </svg>