<svg width="22" height="28" viewBox="0 0 30 28" fill="none" xmlns="http://www.w3.org/2000/svg">
    <path d="M1.77832 25.8897L2.89804 22.2288C2.89804 22.2288 11.9225 18.5679 15.0003 21.7361" stroke="black" stroke-width="1.5" stroke-miterlimit="10" stroke-linecap="round"/>
    <path d="M1 26.6653L11.8295 24.332C11.8295 24.332 12.4313 26.4565 14.9998 26.4981" stroke="black" stroke-width="1.5" stroke-miterlimit="10" stroke-linecap="round"/>
    <path d="M15.0002 21.7361C18.0781 18.5679 27.1025 22.2288 27.1025 22.2288L28.2222 25.8897" stroke="black" stroke-width="1.5" stroke-miterlimit="10" stroke-linecap="round"/>
    <path d="M29 26.6653L18.1705 24.332C18.1705 24.332 17.5687 26.4565 15.0002 26.4981" stroke="black" stroke-width="1.5" stroke-miterlimit="10" stroke-linecap="round"/>
    <path d="M3.3335 18.5178C3.3335 18.5178 11.1011 16.5644 15 21.2224" stroke="black" stroke-width="1.5" stroke-miterlimit="10" stroke-linecap="round"/>
    <path d="M27.4445 18.5178C27.4445 18.5178 19.1591 16.5644 15.0002 21.2224" stroke="black" stroke-width="1.5" stroke-miterlimit="10" stroke-linecap="round"/>
    <path d="M4.88843 10.332L10.3328 15.7764" stroke="black" stroke-width="1.5" stroke-miterlimit="10" stroke-linecap="round"/>
    <path d="M12.6655 8L13.4433 14.2221" stroke="black" stroke-width="1.5" stroke-miterlimit="10" stroke-linecap="round"/>
    <path d="M19.667 4.11133L17.3337 14.2223" stroke="black" stroke-width="1.5" stroke-miterlimit="10" stroke-linecap="round"/>
    <path d="M19.6655 14.9993L25.8876 12.666" stroke="black" stroke-width="1.5" stroke-miterlimit="10" stroke-linecap="round"/>
    <path d="M4.11126 15.7782C4.54081 15.7782 4.88902 15.43 4.88902 15.0004C4.88902 14.5709 4.54081 14.2227 4.11126 14.2227C3.68171 14.2227 3.3335 14.5709 3.3335 15.0004C3.3335 15.43 3.68171 15.7782 4.11126 15.7782Z" stroke="black" stroke-width="1.5" stroke-miterlimit="10" stroke-linecap="round"/>
    <path d="M14.9985 2.55553C15.428 2.55553 15.7762 2.20731 15.7762 1.77776C15.7762 1.34822 15.428 1 14.9985 1C14.5689 1 14.2207 1.34822 14.2207 1.77776C14.2207 2.20731 14.5689 2.55553 14.9985 2.55553Z" stroke="black" stroke-width="1.5" stroke-miterlimit="10" stroke-linecap="round"/>
    <path d="M23.1674 8.00042C23.3822 8.00042 23.5563 7.82631 23.5563 7.61154C23.5563 7.39676 23.3822 7.22266 23.1674 7.22266C22.9527 7.22266 22.7786 7.39676 22.7786 7.61154C22.7786 7.82631 22.9527 8.00042 23.1674 8.00042Z" stroke="black" stroke-width="1.5" stroke-miterlimit="10" stroke-linecap="round"/>
    <path d="M6.44396 7.22238C7.30305 7.22238 7.99948 6.52595 7.99948 5.66686C7.99948 4.80776 7.30305 4.11133 6.44396 4.11133C5.58486 4.11133 4.88843 4.80776 4.88843 5.66686C4.88843 6.52595 5.58486 7.22238 6.44396 7.22238Z" stroke="black" stroke-width="1.5" stroke-miterlimit="10" stroke-linecap="round"/>
    <path d="M25.8889 3.33203V6.44309" stroke="black" stroke-width="1.5" stroke-miterlimit="10" stroke-linecap="round"/>
    <path d="M27.4448 4.88867L24.3337 4.88867" stroke="black" stroke-width="1.5" stroke-miterlimit="10" stroke-linecap="round"/>
    </svg>