<svg width="540" height="1080" viewBox="0 0 540 1080" fill="none" xmlns="http://www.w3.org/2000/svg">
<g filter="url(#filter0_d_587_3)">
<path d="M0 0H480C507.614 0 530 22.3858 530 50V1080H0V0Z" fill="white"/>
</g>
<path d="M70.6627 48C59.2504 48 50 57.2504 50 68.6627C50 80.075 58.5398 88.5909 69.331 89.2777C69.331 89.2777 70.6687 89.63 70.6687 90.6751V93.3983C70.6687 94.4851 71.7257 95.2555 72.7589 94.9211C78.0081 93.2311 91.3314 87.1158 91.3314 68.6567C91.3195 57.2504 82.069 48 70.6627 48Z" fill="#222222"/>
<path d="M64.7213 80C64.5373 80 64.3763 79.908 64.3303 79.724L58.3963 63.532C58.3043 63.302 58.4193 63.118 58.6953 63.118H62.8353C63.0423 63.118 63.2033 63.21 63.2493 63.417L66.2623 72.893L69.2063 63.417C69.2753 63.21 69.4133 63.118 69.6203 63.118H72.4723C72.6563 63.118 72.7943 63.21 72.8633 63.417L76.0373 72.916L78.8203 63.417C78.8893 63.21 79.0273 63.118 79.2343 63.118H83.3053C83.5583 63.118 83.6963 63.302 83.6043 63.532L77.6703 79.724C77.6013 79.908 77.4633 80 77.2563 80H74.3813C74.1973 80 74.0593 79.908 73.9903 79.701L71.0003 70.041L67.9873 79.701C67.9413 79.908 67.8033 80 67.5963 80H64.7213Z" fill="#E9E9E9"/>
<path d="M110.727 80L106.344 64.4453H109.352L112.166 75.8965H112.316L115.303 64.4453H118.053L121.061 75.918H121.189L124.004 64.4453H127.012L122.629 80H119.857L116.742 69.0645H116.635L113.498 80H110.727ZM131.416 73.168V80H128.666V64.4453H131.352V70.3105H131.502C132.039 69 133.156 68.1836 134.961 68.1836C137.389 68.1836 138.979 69.752 138.979 72.5664V80H136.25V72.9961C136.25 71.4062 135.391 70.5039 133.951 70.5039C132.469 70.5039 131.416 71.4707 131.416 73.168ZM141.041 76.7129C141.041 74.0918 143.211 73.3184 145.381 73.1895C146.187 73.1357 147.862 73.0391 148.367 73.0176V72.0938C148.367 70.9336 147.615 70.2676 146.262 70.2676C145.037 70.2676 144.285 70.8262 144.07 71.6641H141.428C141.621 69.6875 143.404 68.1836 146.326 68.1836C148.539 68.1836 151.096 69.0859 151.096 72.2012V80H148.475V78.3887H148.389C147.873 79.377 146.777 80.2363 144.951 80.2363C142.717 80.2363 141.041 79.0117 141.041 76.7129ZM143.684 76.6914C143.684 77.7012 144.5 78.2168 145.66 78.2168C147.314 78.2168 148.389 77.1211 148.389 75.8105V74.8438L145.811 75.0156C144.5 75.123 143.684 75.6602 143.684 76.6914ZM159.496 68.334V70.4395H157.197V76.498C157.197 77.6152 157.756 77.8516 158.443 77.8516C158.766 77.8516 159.303 77.8301 159.646 77.8086V80.043C159.324 80.1074 158.787 80.1504 158.1 80.1504C156.037 80.1504 154.447 79.1406 154.469 76.9492V70.4395H152.793V68.334H154.469V65.541H157.197V68.334H159.496ZM165.512 64.4668L163.707 70.4824H161.666L162.783 64.4668H165.512ZM172.73 71.6641C172.559 70.7832 171.828 70.2246 170.668 70.2246C169.486 70.2246 168.627 70.8047 168.648 71.5996C168.627 72.2012 169.121 72.6523 170.303 72.9316L172.279 73.3398C174.492 73.834 175.545 74.8438 175.566 76.5195C175.545 78.7109 173.633 80.2363 170.582 80.2363C167.617 80.2363 165.855 78.9043 165.576 76.6699H168.369C168.541 77.6582 169.314 78.1523 170.582 78.1523C171.893 78.1523 172.773 77.6152 172.773 76.7559C172.773 76.0898 172.236 75.6602 171.076 75.4023L169.207 74.9941C167.037 74.5645 165.92 73.4258 165.92 71.75C165.92 69.6016 167.768 68.1836 170.625 68.1836C173.418 68.1836 175.137 69.5371 175.33 71.6641H172.73ZM193.42 69.4082C192.926 67.7539 191.637 66.7441 189.746 66.7441C187.232 66.7441 185.428 68.6992 185.428 72.2012C185.428 75.7461 187.211 77.7012 189.811 77.7012C192.152 77.7012 193.656 76.2832 193.699 74.0703H190.09V71.8574H196.406V73.7266C196.406 77.7227 193.656 80.2148 189.811 80.2148C185.514 80.2148 182.613 77.1641 182.613 72.2227C182.613 67.2383 185.643 64.2305 189.725 64.2305C193.162 64.2305 195.805 66.3574 196.277 69.4082H193.42ZM203.904 80.2363C200.51 80.2363 198.318 77.8301 198.318 74.2207C198.318 70.5898 200.51 68.1836 203.904 68.1836C207.32 68.1836 209.49 70.5898 209.49 74.2207C209.49 77.8301 207.32 80.2363 203.904 80.2363ZM203.926 78.0449C205.795 78.0449 206.719 76.3477 206.719 74.1992C206.719 72.0723 205.795 70.3535 203.926 70.3535C202.014 70.3535 201.09 72.0723 201.09 74.1992C201.09 76.3477 202.014 78.0449 203.926 78.0449ZM211.617 80V68.334H214.367V80H211.617ZM213.014 66.6797C212.154 66.6797 211.424 66.0137 211.424 65.1758C211.424 64.3594 212.154 63.6934 213.014 63.6934C213.895 63.6934 214.604 64.3594 214.604 65.1758C214.604 66.0137 213.895 66.6797 213.014 66.6797ZM219.738 73.168V80H216.988V68.334H219.609V70.3105H219.76C220.297 69 221.479 68.1836 223.219 68.1836C225.646 68.1836 227.236 69.7734 227.215 72.5664V80H224.486V72.9961C224.486 71.4277 223.648 70.5039 222.209 70.5039C220.748 70.5039 219.738 71.4707 219.738 73.168ZM234.928 84.6191C231.834 84.6191 229.879 83.2441 229.686 81.0527H232.414C232.607 82.0625 233.574 82.5566 234.971 82.5566C236.604 82.5566 237.678 81.8477 237.678 80.1289V77.8945H237.549C237.119 78.7539 236.195 79.8281 234.176 79.8281C231.49 79.8281 229.363 77.873 229.363 74.0703C229.363 70.2246 231.49 68.1836 234.197 68.1836C236.26 68.1836 237.119 69.4082 237.549 70.2461H237.678V68.334H240.385V80.1934C240.385 83.1797 238.086 84.6191 234.928 84.6191ZM234.928 77.6797C236.689 77.6797 237.699 76.3477 237.699 74.1133C237.699 71.9004 236.711 70.418 234.928 70.418C233.102 70.418 232.156 71.9863 232.156 74.1133C232.156 76.2617 233.123 77.6797 234.928 77.6797ZM262.234 72.2227C262.234 77.25 259.184 80.2148 255.102 80.2148C251.02 80.2148 247.969 77.2285 247.969 72.2227C247.969 67.1953 251.02 64.2305 255.102 64.2305C259.184 64.2305 262.234 67.1953 262.234 72.2227ZM259.42 72.2227C259.42 68.6777 257.637 66.7441 255.102 66.7441C252.566 66.7441 250.783 68.6777 250.783 72.2227C250.783 75.7676 252.566 77.7012 255.102 77.7012C257.637 77.7012 259.42 75.7676 259.42 72.2227ZM267.348 73.168V80H264.598V68.334H267.219V70.3105H267.369C267.906 69 269.088 68.1836 270.828 68.1836C273.256 68.1836 274.846 69.7734 274.824 72.5664V80H272.096V72.9961C272.096 71.4277 271.258 70.5039 269.818 70.5039C268.357 70.5039 267.348 71.4707 267.348 73.168Z" fill="#222222"/>
<defs>
<filter id="filter0_d_587_3" x="-10" y="-6" width="550" height="1100" filterUnits="userSpaceOnUse" color-interpolation-filters="sRGB">
<feFlood flood-opacity="0" result="BackgroundImageFix"/>
<feColorMatrix in="SourceAlpha" type="matrix" values="0 0 0 0 0 0 0 0 0 0 0 0 0 0 0 0 0 0 127 0" result="hardAlpha"/>
<feOffset dy="4"/>
<feGaussianBlur stdDeviation="5"/>
<feComposite in2="hardAlpha" operator="out"/>
<feColorMatrix type="matrix" values="0 0 0 0 0 0 0 0 0 0 0 0 0 0 0 0 0 0 0.4 0"/>
<feBlend mode="normal" in2="BackgroundImageFix" result="effect1_dropShadow_587_3"/>
<feBlend mode="normal" in="SourceGraphic" in2="effect1_dropShadow_587_3" result="shape"/>
</filter>
</defs>
</svg>
