<svg width="1118" height="479" viewBox="0 0 1118 479" fill="none" xmlns="http://www.w3.org/2000/svg">
<path d="M45.1797 440.115V442.635C45.1797 446.004 45.1797 449.842 44.0957 455.643L39.8184 455.203C40.8438 450.281 40.917 446.546 40.9609 443.455H25.375V440.115H45.1797ZM47.377 458.279V461.678H22.8555V458.279H31.3809V449.139H35.5703V458.279H47.377ZM64.6621 439.324V442.664H59.5645C59.8721 445.257 61.7031 447.85 65.8047 448.904L63.6953 452.215C60.6777 451.365 58.6123 449.622 57.4258 447.41C56.1953 449.812 54.0713 451.717 50.9219 452.654L48.7832 449.373C53.0166 448.201 54.877 445.433 55.1992 442.664H49.9258V439.324H64.6621ZM71.3711 437.918V452.508H67.1523V437.918H71.3711ZM57.3672 453.562V455.848H67.1523V453.562H71.3711V464.52H53.2363V453.562H57.3672ZM57.3672 461.15H67.1523V459.1H57.3672V461.15ZM84.7012 454.91C84.7012 457.005 85.5068 459.158 87.5723 460.623C89.6523 459.085 90.502 456.888 90.5312 454.91V454.178H94.6914V454.91C94.6621 457.752 95.9805 460.271 99.584 461.355L97.5625 464.402C95.0283 463.582 93.4023 462.015 92.4648 459.979C91.5713 462.015 90.0332 463.729 87.6602 464.637C85.1699 463.758 83.6172 462.088 82.7383 460.066C81.7715 462.015 80.1748 463.567 77.7578 464.402L75.6777 461.355C79.252 460.154 80.5703 457.547 80.5996 454.91V454.178H84.7012V454.91ZM97.2988 437.947V453.094H93.0801V437.947H97.2988ZM82.5039 439.236C86.7227 439.266 89.9453 441.961 89.9453 445.77C89.9453 449.52 86.7227 452.244 82.5039 452.244C78.2852 452.244 75.0332 449.52 75.0625 445.77C75.0332 441.961 78.2852 439.266 82.5039 439.236ZM82.5039 442.781C80.541 442.781 79.1641 443.836 79.1641 445.77C79.1641 447.645 80.541 448.758 82.5039 448.758C84.4082 448.758 85.7559 447.645 85.7559 445.77C85.7559 443.836 84.4082 442.781 82.5039 442.781ZM122.494 445.008V448.289H103.598V438.885H107.787V445.008H122.494ZM125.189 450.896V454.207H100.609V450.896H125.189ZM122.67 460.857V464.227H103.334V456.229H107.553V460.857H122.67ZM156.039 437.918V453.621H151.85V450.457H147.25V452.303H134.359V439.881H147.25V441.727H151.85V437.918H156.039ZM138.549 443.191V448.963H143.119V443.191H138.549ZM146.752 454.295C152.553 454.295 156.098 456.229 156.127 459.568C156.098 462.908 152.553 464.842 146.752 464.812C141.01 464.842 137.465 462.908 137.465 459.568C137.465 456.229 141.01 454.295 146.752 454.295ZM146.752 457.488C143.383 457.488 141.654 458.104 141.654 459.568C141.654 460.975 143.383 461.619 146.752 461.648C150.18 461.619 151.908 460.975 151.938 459.568C151.908 458.104 150.18 457.488 146.752 457.488ZM147.25 447.059H151.85V445.008H147.25V447.059ZM183.754 451.043V454.383H173.91V458.748H169.75V454.383H159.174V451.043H183.754ZM180.619 439.061V449.139H162.191V439.061H180.619ZM166.322 442.312V445.887H176.488V442.312H166.322ZM181.059 461.004V464.373H161.957V456.521H166.176V461.004H181.059ZM206.459 437.918V448.025H210.062V451.482H206.459V464.725H202.24V437.918H206.459ZM199.193 440.613C199.193 448.787 196.205 455.76 187.064 460.242L184.691 457.02C190.858 453.929 194.169 449.915 194.916 444.07H186.303V440.613H199.193ZM227.963 444.949C227.934 448.992 229.809 453.709 234.408 455.789L232.064 459.1C229.105 457.781 227.084 455.188 225.912 452.127C224.726 455.525 222.616 458.367 219.525 459.803L217.094 456.463C221.752 454.295 223.686 449.344 223.686 444.949V443.895H218.207V440.467H233.178V443.895H227.963V444.949ZM239.096 437.918V447.996H242.904V451.482H239.096V464.812H234.877V437.918H239.096ZM267.016 437.918V464.812H263.031V437.918H267.016ZM261.479 438.299V463.611H257.553V450.369H254.33V447H257.553V438.299H261.479ZM252.396 444.979C252.396 449.402 253.568 453.855 257.553 456.141L255.121 459.217C252.792 457.884 251.298 455.657 250.404 452.947C249.496 455.892 247.958 458.382 245.6 459.832L243.08 456.727C247.094 454.236 248.324 449.432 248.324 444.979V443.895H244.164V440.525H256.205V443.895H252.396V444.979ZM284.535 440.232V443.543H269.711V440.232H275.219V437.684H279.438V440.232H284.535ZM277.27 444.305C280.99 444.305 283.715 446.385 283.744 449.373C283.715 452.361 280.99 454.383 277.27 454.383C273.549 454.383 270.912 452.361 270.912 449.373C270.912 446.385 273.549 444.305 277.27 444.305ZM277.27 447.439C275.805 447.439 274.838 448.084 274.838 449.373C274.838 450.662 275.805 451.277 277.27 451.277C278.764 451.277 279.818 450.662 279.818 449.373C279.818 448.084 278.764 447.439 277.27 447.439ZM292.387 437.918V454.969H288.197V452.42H284.857V449.051H288.197V447H284.945V443.631H288.197V437.918H292.387ZM283.188 455.32C288.93 455.32 292.504 457.078 292.533 460.066C292.504 463.025 288.93 464.842 283.188 464.812C277.416 464.842 273.812 463.025 273.812 460.066C273.812 457.078 277.416 455.32 283.188 455.32ZM283.188 458.484C279.965 458.514 278.266 458.953 278.266 460.066C278.266 461.15 279.965 461.648 283.188 461.648C286.322 461.648 287.992 461.15 287.992 460.066C287.992 458.953 286.322 458.514 283.188 458.484Z" fill="#222222"/>
<g filter="url(#filter0_d_1091_3)">
<path fill-rule="evenodd" clip-rule="evenodd" d="M533.891 0C500.202 0 472.891 27.3106 472.891 61V202.9L414.154 231.423C410.399 233.246 410.399 238.595 414.154 240.418L472.891 268.941V410C472.891 443.689 500.202 471 533.891 471H1050.89C1084.58 471 1111.89 443.689 1111.89 410V61C1111.89 27.3106 1084.58 0 1050.89 0H533.891Z" fill="white"/>
</g>
<path d="M688.617 75.6406V80.625H691.475V82.043H688.617V87.0488H686.92V75.6406H688.617ZM682.473 87.4141C686.361 87.4141 688.768 88.7676 688.768 91.0449C688.768 93.3652 686.361 94.6973 682.473 94.6973C678.562 94.6973 676.135 93.3652 676.135 91.0449C676.135 88.7676 678.562 87.4141 682.473 87.4141ZM682.473 88.8105C679.594 88.7891 677.789 89.6484 677.789 91.0449C677.789 92.4629 679.594 93.3438 682.473 93.3438C685.33 93.3438 687.135 92.4629 687.135 91.0449C687.135 89.6484 685.33 88.7891 682.473 88.8105ZM683.031 77.1016V78.498H676.199V84.1055C680.066 84.084 682.301 83.9658 684.857 83.4395L685.029 84.8359C682.365 85.373 680.066 85.4805 676.027 85.4805H674.545V77.1016H683.031ZM708.447 75.6621V89.6699H706.771V75.6621H708.447ZM709.049 92.9141V94.332H696.115V88.3809H697.791V92.9141H709.049ZM699.445 78.6484C699.424 81.5488 701.422 84.1699 704.258 85.2012L703.377 86.5547C701.164 85.7061 699.445 83.9873 698.607 81.7852C697.759 84.127 696.019 86.0068 693.795 86.8984L692.871 85.5879C695.771 84.4707 697.727 81.6562 697.727 78.6484V76.7363H699.445V78.6484ZM729.094 85.7168V87.0918H711.691V85.7168H729.094ZM727.16 92.9141V94.332H713.947V88.7676H715.645V92.9141H727.16ZM720.393 76.3281C724.496 76.3066 727.139 77.7246 727.139 80.1094C727.139 82.4941 724.496 83.9121 720.393 83.9121C716.246 83.9121 713.625 82.4941 713.625 80.1094C713.625 77.7246 716.246 76.3066 720.393 76.3281ZM720.393 77.6816C717.32 77.6816 715.344 78.6055 715.365 80.1094C715.344 81.6133 717.32 82.5371 720.393 82.5371C723.443 82.5371 725.42 81.6133 725.42 80.1094C725.42 78.6055 723.443 77.6816 720.393 77.6816ZM742.006 93.2148C738.547 93.2148 736.57 90.3145 736.57 85.2227C736.57 80.1738 738.59 77.2305 742.006 77.2305C745.422 77.2305 747.441 80.1738 747.441 85.2227C747.441 90.3145 745.443 93.2148 742.006 93.2148ZM742.006 91.4961C744.24 91.4961 745.551 89.2402 745.551 85.2227C745.551 81.2051 744.24 78.9062 742.006 78.9062C739.771 78.9062 738.439 81.2051 738.439 85.2227C738.439 89.2402 739.75 91.4961 742.006 91.4961ZM755.111 93.2148C751.652 93.2148 749.676 90.3145 749.676 85.2227C749.676 80.1738 751.695 77.2305 755.111 77.2305C758.527 77.2305 760.547 80.1738 760.547 85.2227C760.547 90.3145 758.549 93.2148 755.111 93.2148ZM755.111 91.4961C757.346 91.4961 758.656 89.2402 758.656 85.2227C758.656 81.2051 757.346 78.9062 755.111 78.9062C752.877 78.9062 751.545 81.2051 751.545 85.2227C751.545 89.2402 752.855 91.4961 755.111 91.4961ZM779.904 85.7598V87.1348H772.127V90.873H770.451V87.1348H762.416V85.7598H779.904ZM777.949 92.9141V94.332H764.65V89.1113H766.326V92.9141H777.949ZM766.434 76.2637V78.7129H775.887V76.2637H777.562V83.8906H764.758V76.2637H766.434ZM766.434 82.5156H775.887V80.002H766.434V82.5156ZM786.564 77.123C789.379 77.1445 791.377 79.7227 791.398 83.7832C791.377 87.8438 789.379 90.4219 786.564 90.4219C783.729 90.4219 781.752 87.8438 781.752 83.7832C781.752 79.7227 783.729 77.1445 786.564 77.123ZM786.564 78.627C784.674 78.6484 783.342 80.668 783.342 83.7832C783.342 86.8984 784.674 88.918 786.564 88.918C788.477 88.918 789.766 86.8984 789.766 83.7832C789.766 80.668 788.477 78.6484 786.564 78.627ZM799.326 80.4531V81.8926H796.232V86.1465H799.326V87.5645H796.232V94.7402H794.557V75.6406H796.232V80.4531H799.326ZM816.836 75.6406V94.7402H815.203V75.6406H816.836ZM812.99 76.0488V93.7734H811.379V84.4922H808.93C808.747 88.209 807.168 90.5293 804.805 90.5293C802.312 90.5293 800.701 87.9512 800.701 83.8906C800.701 79.8301 802.312 77.252 804.805 77.252C807.125 77.252 808.693 79.4971 808.908 83.0957H811.379V76.0488H812.99ZM804.805 78.8418C803.258 78.8418 802.27 80.7754 802.291 83.8906C802.27 86.9844 803.258 88.9395 804.805 88.918C806.352 88.9395 807.34 86.9844 807.34 83.8906C807.34 80.7754 806.352 78.8418 804.805 78.8418ZM835.592 77.123V78.1328C835.57 79.3789 835.57 81.291 835.098 83.7832L833.4 83.6543C833.862 81.3662 833.905 79.7441 833.938 78.541H826.074V77.123H835.592ZM830.672 81.3555V85.459C832.788 85.373 834.979 85.2227 836.967 84.9434L837.074 86.1895C833.078 86.877 828.459 86.9629 825.064 86.9629L824.893 85.5664C826.128 85.5557 827.524 85.5449 828.996 85.502V81.3555H830.672ZM839.975 75.6406V81.8711H842.768V83.3105H839.975V90.0137H838.256V75.6406H839.975ZM840.598 92.9141V94.332H827.836V88.7246H829.533V92.9141H840.598ZM859.783 75.6621V86.5117H858.107V75.6621H859.783ZM859.783 87.6074V94.4824H847.365V87.6074H859.783ZM849.02 88.9824V93.1074H858.129V88.9824H849.02ZM850.781 78.2832C850.76 80.9902 852.822 83.375 855.637 84.3633L854.777 85.6523C852.564 84.8896 850.803 83.2783 849.943 81.1836C849.095 83.418 847.312 85.1797 845.023 86.0176L844.164 84.6855C847.064 83.6758 849.062 81.0977 849.062 78.2832V76.4141H850.781V78.2832ZM869.494 88.4668C869.494 90.1533 870.396 91.9473 872.223 92.9785C874.027 91.8506 874.994 89.9492 874.994 88.4668V87.4141H876.648V88.4668C876.648 90.4219 878.088 92.3984 880.537 93.2363L879.699 94.4824C877.787 93.8057 876.444 92.4736 875.789 90.873C875.198 92.4199 874.027 93.8809 872.266 94.6328C870.407 93.9238 869.226 92.5166 868.656 90.916C867.979 92.4629 866.658 93.7949 864.832 94.4824L863.973 93.2363C866.379 92.334 867.84 90.293 867.861 88.4668V87.4141H869.494V88.4668ZM878.797 75.6621V86.5762H877.121V75.6621H878.797ZM868.484 76.7793C871.385 76.7793 873.49 78.584 873.49 81.248C873.49 83.8691 871.385 85.6738 868.484 85.6738C865.584 85.6738 863.479 83.8691 863.479 81.248C863.479 78.584 865.584 76.7793 868.484 76.7793ZM868.484 78.2188C866.529 78.1973 865.111 79.4648 865.133 81.248C865.111 83.0098 866.529 84.2559 868.484 84.2773C870.418 84.2559 871.836 83.0098 871.836 81.248C871.836 79.4648 870.418 78.1973 868.484 78.2188ZM897.488 81.4414V82.7949H884.404V76.3496H886.08V81.4414H897.488ZM899.508 85.3945V86.7695H882.02V85.3945H899.508ZM897.596 92.8711V94.2676H884.297V88.7246H885.973V92.8711H897.596ZM904.191 91.5605L902.516 97.4043H900.926L902.107 91.5605H904.191Z" fill="#222222"/>
<path d="M699.831 224.455C699.831 227.721 703.569 230.643 706.899 231.266L706.126 232.684C703.247 232.018 700.207 229.966 698.972 227.141C697.736 229.955 694.707 232.007 691.817 232.684L691.044 231.266C694.353 230.621 698.069 227.742 698.069 224.455V222.994H699.831V224.455ZM707.802 236.744V238.141H690.313V236.744H707.802ZM724.56 223.596V225.959C724.56 228.773 724.56 231.373 723.765 235.24L722.067 235.09C722.486 233.253 722.701 231.663 722.819 230.17L711.153 230.814L710.917 229.418L722.884 228.924C722.916 227.914 722.916 226.937 722.927 225.959V225.014H711.433V223.596H724.56ZM726.729 236.637V238.055H709.327V236.637H726.729ZM744.562 221.662V232.232H742.95V227.57H740.265V232.039H738.696V222.006H740.265V226.217H742.95V221.662H744.562ZM733.647 233.113V235.305H742.907V233.113H744.562V240.482H731.972V233.113H733.647ZM733.647 239.107H742.907V236.68H733.647V239.107ZM736.419 222.801V227.699H730.854V230.234C733.368 230.202 735.291 230.105 737.558 229.633L737.751 231.029C735.28 231.502 733.239 231.609 730.468 231.609H729.222V226.41H734.808V224.176H729.179V222.801H736.419ZM759.343 225.186C759.343 227.721 761.212 230.041 764.048 231.029L763.188 232.34C761.008 231.566 759.343 229.998 758.526 228.021C757.71 230.191 755.959 231.878 753.714 232.705L752.812 231.395C755.669 230.385 757.667 227.914 757.688 225.186V224.369H753.327V222.994H763.64V224.369H759.343V225.186ZM767.808 221.641V226.689H770.687V228.129H767.808V233.156H766.132V221.641H767.808ZM767.808 234.166V240.74H766.132V235.541H755.304V234.166H767.808ZM778.464 224.648C778.442 227.377 780.376 229.783 783.19 230.729L782.245 232.039C780.14 231.244 778.485 229.697 777.669 227.678C776.842 229.966 775.091 231.749 772.792 232.619L771.868 231.244C774.812 230.213 776.767 227.678 776.788 224.713V222.736H778.464V224.648ZM787.724 221.641V232.963H786.026V227.141H781.772V225.744H786.026V221.641H787.724ZM781.386 233.521C785.36 233.521 787.788 234.832 787.788 237.131C787.788 239.408 785.36 240.697 781.386 240.697C777.411 240.697 774.983 239.408 774.983 237.131C774.983 234.832 777.411 233.521 781.386 233.521ZM781.386 234.854C778.464 234.854 776.638 235.713 776.659 237.131C776.638 238.506 778.464 239.344 781.386 239.344C784.308 239.344 786.112 238.506 786.112 237.131C786.112 235.713 784.308 234.854 781.386 234.854ZM806.329 230.6V231.975H800.421V236.916H808.392V238.334H790.903V236.916H798.767V231.975H793.138V223.209H806.136V224.584H794.835V230.6H806.329ZM830.37 221.641V226.109H833.249V227.506H830.37V231.867H828.694V221.641H830.37ZM825.235 222.994C825.214 227.764 821.841 230.943 816.212 232.232L815.503 230.857C820.369 229.794 823.087 227.377 823.366 224.369H816.319V222.994H825.235ZM830.456 232.727V234.016H819.972V235.906H830.241V237.195H819.972V239.172H830.907V240.482H818.274V232.727H830.456ZM850.2 221.641V240.783H848.503V221.641H850.2ZM840.038 223.123C842.874 223.145 844.915 225.723 844.915 229.783C844.915 233.844 842.874 236.422 840.038 236.422C837.181 236.422 835.161 233.844 835.161 229.783C835.161 225.723 837.181 223.145 840.038 223.123ZM840.038 224.627C838.126 224.648 836.794 226.668 836.794 229.783C836.794 232.898 838.126 234.918 840.038 234.918C841.95 234.918 843.282 232.898 843.282 229.783C843.282 226.668 841.95 224.648 840.038 224.627ZM868.526 224.949V226.324H858.944V224.949H862.919V222.221H864.595V224.949H868.526ZM863.735 227.613C866.142 227.613 867.86 229.418 867.882 231.953C867.86 234.51 866.142 236.336 863.735 236.336C861.351 236.336 859.632 234.51 859.632 231.953C859.632 229.418 861.351 227.613 863.735 227.613ZM863.735 229.031C862.231 229.053 861.136 230.277 861.136 231.953C861.136 233.65 862.231 234.875 863.735 234.854C865.261 234.875 866.378 233.65 866.378 231.953C866.378 230.277 865.261 229.053 863.735 229.031ZM875.251 221.641V240.74H873.64V231.094H871.104V239.795H869.515V222.113H871.104V229.697H873.64V221.641H875.251ZM884.726 226.775C884.726 230.234 886.938 233.715 889.71 234.982L888.7 236.357C886.53 235.24 884.736 232.952 883.888 230.234C883.039 233.092 881.245 235.541 879.075 236.701L877.979 235.348C880.772 233.973 883.007 230.299 883.007 226.775V223.295H884.726V226.775ZM893.835 221.641V240.783H892.159V229.547H887.626V228.172H892.159V221.641H893.835ZM663.039 252.506C663.039 255.75 665.402 259.037 668.217 260.262L667.271 261.594C665.037 260.573 663.104 258.371 662.223 255.729C661.32 258.532 659.397 260.971 657.217 262.066L656.207 260.734C658.936 259.424 661.32 255.814 661.342 252.506V250.014H656.83V248.617H667.594V250.014H663.039V252.506ZM671.955 246.641V265.74H670.258V246.641H671.955ZM681.988 249.412C681.967 252.205 683.986 254.676 686.822 255.664L685.963 256.996C683.75 256.19 681.999 254.536 681.15 252.42C680.302 254.687 678.529 256.47 676.295 257.34L675.414 256.008C678.271 254.955 680.27 252.291 680.27 249.412V247.586H681.988V249.412ZM690.99 259.102V265.74H689.314V260.498H678.143V259.102H690.99ZM690.99 246.641V258.156H689.314V246.641H690.99ZM702.936 246.984C707.189 246.984 709.682 248.145 709.682 250.271C709.682 252.441 707.189 253.602 702.936 253.623C698.682 253.602 696.168 252.441 696.168 250.271C696.168 248.145 698.682 246.984 702.936 246.984ZM702.936 248.252C699.756 248.252 697.908 249.025 697.93 250.271C697.908 251.604 699.756 252.334 702.936 252.334C706.094 252.334 707.963 251.604 707.963 250.271C707.963 249.025 706.094 248.252 702.936 248.252ZM711.637 254.912V256.287H694.234V254.912H711.637ZM709.402 257.941V262.217H698.059V264.193H709.982V265.525H696.383V260.971H707.748V259.23H696.34V257.941H709.402ZM725.129 252.871C725.129 255.922 727.127 259.059 729.898 260.391L728.91 261.701C726.805 260.67 725.14 258.586 724.355 256.115C723.518 258.769 721.745 260.992 719.564 262.045L718.598 260.734C721.391 259.424 723.475 256.158 723.496 252.871V251.346H719.113V249.971H723.475V247.006H725.172V249.971H729.469V251.346H725.129V252.871ZM733.551 246.641V254.482H736.752V255.922H733.551V265.74H731.875V246.641H733.551ZM755.186 255.729V257.125H737.805V255.729H745.002V251.861H746.656V255.729H755.186ZM752.973 259.316V265.74H751.254V260.713H739.652V259.316H752.973ZM752.973 247.693V249.133C752.973 250.594 752.973 252.248 752.5 254.418L750.803 254.246C751.297 252.098 751.297 250.572 751.297 249.133V249.068H739.867V247.693H752.973ZM768.678 252.871C768.678 255.922 770.676 259.059 773.447 260.391L772.459 261.701C770.354 260.67 768.688 258.586 767.904 256.115C767.066 258.769 765.294 260.992 763.113 262.045L762.146 260.734C764.939 259.424 767.023 256.158 767.045 252.871V251.346H762.662V249.971H767.023V247.006H768.721V249.971H773.018V251.346H768.678V252.871ZM777.1 246.641V254.482H780.301V255.922H777.1V265.74H775.424V246.641H777.1ZM798.734 255.729V257.125H781.354V255.729H788.551V251.861H790.205V255.729H798.734ZM796.521 259.316V265.74H794.803V260.713H783.201V259.316H796.521ZM796.521 247.693V249.133C796.521 250.594 796.521 252.248 796.049 254.418L794.352 254.246C794.846 252.098 794.846 250.572 794.846 249.133V249.068H783.416V247.693H796.521ZM821.186 246.641V250.809H823.699V252.227H821.186V256.824H819.51V246.641H821.186ZM810.314 248.789C810.314 250.196 810.712 252.42 812.205 253.902C813.623 252.463 814.031 250.271 814.031 248.811V247.479H814.396V247.457H815.6V248.789C815.6 250.809 816.438 253.279 818.65 254.418L817.727 255.621C816.233 254.837 815.342 253.473 814.869 251.947C814.429 253.483 813.623 254.966 812.184 255.836C810.723 254.944 809.906 253.387 809.498 251.84C808.993 253.365 808.102 254.805 806.641 255.621L805.717 254.418C807.865 253.193 808.703 250.594 808.725 248.789V247.457H810.314V248.789ZM821.98 257.941V259.273H808.445V257.941H814.396V256.029H816.072V257.941H821.98ZM815.234 260.176C818.736 260.176 820.799 261.164 820.799 262.926C820.799 264.752 818.736 265.697 815.234 265.697C811.668 265.697 809.605 264.752 809.627 262.926C809.605 261.164 811.668 260.176 815.234 260.176ZM815.234 261.4C812.699 261.422 811.281 261.98 811.303 262.926C811.281 263.914 812.699 264.473 815.234 264.451C817.705 264.473 819.145 263.914 819.145 262.926C819.145 261.98 817.705 261.422 815.234 261.4ZM829.994 248.123C832.809 248.145 834.807 250.723 834.828 254.783C834.807 258.844 832.809 261.422 829.994 261.422C827.158 261.422 825.182 258.844 825.182 254.783C825.182 250.723 827.158 248.145 829.994 248.123ZM829.994 249.627C828.104 249.648 826.771 251.668 826.771 254.783C826.771 257.898 828.104 259.918 829.994 259.918C831.906 259.918 833.195 257.898 833.195 254.783C833.195 251.668 831.906 249.648 829.994 249.627ZM839.662 246.641V254.268H842.863V255.729H839.662V265.74H837.986V246.641H839.662ZM861.77 254.268V255.686H858.676V265.74H857V246.641H858.676V254.268H861.77ZM846.365 248.531V259.467C849.158 259.456 852.005 259.241 855.152 258.586L855.367 260.025C852.08 260.691 849.115 260.885 846.215 260.885H844.689V248.531H846.365ZM877.689 246.641V254.418H880.783V255.836H877.689V265.74H876.014V246.641H877.689ZM872.748 248.703C872.748 254.117 870.213 259.037 863.982 262.109L863.037 260.777C867.979 258.317 870.664 254.644 871.051 250.121H863.918V248.703H872.748ZM890.172 248.23V251.152H896.381V248.23H898.057V256.824H894.125V260.24C895.887 260.176 897.659 260.047 899.303 259.832L899.41 261.1C895.371 261.744 890.838 261.809 887.486 261.83L887.207 260.391C888.765 260.38 890.559 260.369 892.428 260.305V256.824H888.496V248.23H890.172ZM890.172 255.449H896.381V252.463H890.172V255.449ZM902.203 246.641V254.676H905.318V256.094H902.203V265.74H900.527V246.641H902.203ZM923.945 261.873V263.291H906.457V261.873H910.797V256.717C909.164 255.868 908.176 254.493 908.176 252.764C908.176 249.799 911.076 247.865 915.158 247.844C919.24 247.865 922.141 249.799 922.141 252.764C922.141 254.461 921.185 255.825 919.605 256.674V261.873H923.945ZM915.158 249.24C912.021 249.219 909.809 250.637 909.809 252.764C909.809 254.891 912.021 256.33 915.158 256.33C918.273 256.33 920.508 254.891 920.508 252.764C920.508 250.637 918.273 249.219 915.158 249.24ZM912.451 261.873H917.908V257.318C917.081 257.544 916.157 257.662 915.158 257.662C914.181 257.662 913.268 257.555 912.451 257.34V261.873ZM928.564 248.445L928.414 259.617H926.609L926.459 248.445H928.564ZM927.512 264.129C926.76 264.129 926.115 263.506 926.137 262.732C926.115 261.98 926.76 261.357 927.512 261.357C928.264 261.357 928.887 261.98 928.887 262.732C928.887 263.506 928.264 264.129 927.512 264.129Z" fill="#222222"/>
<path d="M592.302 176.662V182.441H595.159V183.859H592.302V190.24H590.604V176.662H592.302ZM587.21 189.596C587.21 192.109 590.196 193.871 593.655 194.344L593.011 195.654C590.11 195.192 587.479 193.936 586.351 191.895C585.212 193.936 582.569 195.192 579.669 195.654L579.046 194.344C582.505 193.871 585.491 192.109 585.491 189.596V188.951H587.21V189.596ZM577.37 186.459C578.863 186.459 580.604 186.448 582.419 186.373V184.59C580.056 184.343 578.487 182.957 578.509 181.002C578.487 178.854 580.421 177.414 583.214 177.393C586.007 177.414 587.94 178.854 587.94 181.002C587.94 182.925 586.415 184.3 584.116 184.568V186.309C585.91 186.212 587.715 186.062 589.38 185.814L589.509 187.018C585.47 187.748 580.894 187.812 577.585 187.812L577.37 186.459ZM583.214 178.682C581.366 178.682 580.077 179.605 580.077 181.002C580.077 182.398 581.366 183.344 583.214 183.344C585.062 183.344 586.351 182.398 586.351 181.002C586.351 179.605 585.062 178.682 583.214 178.682ZM613.894 191.873V193.291H596.405V191.873H613.894ZM605.987 181.109C605.987 184.268 609.146 186.652 612.776 187.297L612.089 188.672C609.07 188.06 606.32 186.405 605.128 183.902C603.914 186.405 601.164 188.06 598.146 188.672L597.479 187.297C601.089 186.652 604.269 184.268 604.269 181.109H598.038V179.734H604.29V177.113H605.944V179.734H612.218V181.109H605.987ZM630.737 178.574V180.486C630.716 182.828 630.716 185.449 630.028 189.295L628.31 189.102C629.04 185.449 629.04 182.764 629.04 180.486V179.971H617.267V178.574H630.737ZM632.821 191.637V193.033H615.419V191.637H622.251V184.805H623.905V191.637H632.821ZM650.202 176.662V188.027H648.526V176.662H650.202ZM643.821 188.414C647.796 188.414 650.245 189.746 650.267 192.045C650.245 194.365 647.796 195.697 643.821 195.697C639.804 195.697 637.376 194.365 637.376 192.045C637.376 189.746 639.804 188.414 643.821 188.414ZM643.821 189.746C640.856 189.746 639.073 190.605 639.073 192.045C639.073 193.484 640.856 194.344 643.821 194.344C646.765 194.344 648.591 193.484 648.591 192.045C648.591 190.605 646.765 189.746 643.821 189.746ZM639.89 177.865C642.79 177.887 644.896 179.691 644.896 182.334C644.896 184.977 642.79 186.76 639.89 186.781C636.989 186.76 634.884 184.977 634.884 182.334C634.884 179.691 636.989 177.887 639.89 177.865ZM639.89 179.326C637.935 179.305 636.517 180.529 636.538 182.334C636.517 184.117 637.935 185.342 639.89 185.363C641.823 185.342 643.241 184.117 643.241 182.334C643.241 180.529 641.823 179.305 639.89 179.326ZM670.849 186.824V188.221H653.446V186.824H661.31V184.826C657.646 184.644 655.38 183.258 655.38 181.002C655.38 178.66 658.001 177.221 662.147 177.221C666.251 177.221 668.894 178.66 668.894 181.002C668.894 183.258 666.605 184.644 662.985 184.826V186.824H670.849ZM668.915 193.914V195.332H655.702V189.768H657.399V193.914H668.915ZM662.147 178.596C659.075 178.596 657.099 179.541 657.12 181.002C657.099 182.549 659.075 183.451 662.147 183.451C665.198 183.451 667.175 182.549 667.175 181.002C667.175 179.541 665.198 178.596 662.147 178.596ZM688.208 176.641V195.783H686.511V176.641H688.208ZM678.046 178.123C680.882 178.145 682.923 180.723 682.923 184.783C682.923 188.844 680.882 191.422 678.046 191.422C675.188 191.422 673.169 188.844 673.169 184.783C673.169 180.723 675.188 178.145 678.046 178.123ZM678.046 179.627C676.134 179.648 674.802 181.668 674.802 184.783C674.802 187.898 676.134 189.918 678.046 189.918C679.958 189.918 681.29 187.898 681.29 184.783C681.29 181.668 679.958 179.648 678.046 179.627ZM711.948 176.641V181.625H714.806V183.043H711.948V188.049H710.251V176.641H711.948ZM705.804 188.414C709.692 188.414 712.099 189.768 712.099 192.045C712.099 194.365 709.692 195.697 705.804 195.697C701.894 195.697 699.466 194.365 699.466 192.045C699.466 189.768 701.894 188.414 705.804 188.414ZM705.804 189.811C702.925 189.789 701.12 190.648 701.12 192.045C701.12 193.463 702.925 194.344 705.804 194.344C708.661 194.344 710.466 193.463 710.466 192.045C710.466 190.648 708.661 189.789 705.804 189.811ZM706.362 178.102V179.498H699.53V185.105C703.397 185.084 705.632 184.966 708.188 184.439L708.36 185.836C705.696 186.373 703.397 186.48 699.358 186.48H697.876V178.102H706.362ZM731.778 176.662V190.67H730.103V176.662H731.778ZM732.38 193.914V195.332H719.446V189.381H721.122V193.914H732.38ZM722.776 179.648C722.755 182.549 724.753 185.17 727.589 186.201L726.708 187.555C724.495 186.706 722.776 184.987 721.938 182.785C721.09 185.127 719.35 187.007 717.126 187.898L716.202 186.588C719.103 185.471 721.058 182.656 721.058 179.648V177.736H722.776V179.648ZM743.724 176.984C747.978 176.984 750.47 178.145 750.47 180.271C750.47 182.441 747.978 183.602 743.724 183.623C739.47 183.602 736.956 182.441 736.956 180.271C736.956 178.145 739.47 176.984 743.724 176.984ZM743.724 178.252C740.544 178.252 738.696 179.025 738.718 180.271C738.696 181.604 740.544 182.334 743.724 182.334C746.882 182.334 748.751 181.604 748.751 180.271C748.751 179.025 746.882 178.252 743.724 178.252ZM752.425 184.912V186.287H735.022V184.912H752.425ZM750.19 187.941V192.217H738.847V194.193H750.771V195.525H737.171V190.971H748.536V189.23H737.128V187.941H750.19ZM765.853 177.586C768.71 177.564 770.751 179.133 770.751 181.475C770.751 183.795 768.71 185.406 765.853 185.385C762.995 185.406 760.954 183.795 760.954 181.475C760.954 179.133 762.995 177.564 765.853 177.586ZM765.853 178.961C763.94 178.939 762.587 179.992 762.608 181.475C762.587 182.979 763.94 184.01 765.853 183.988C767.786 184.01 769.14 182.979 769.14 181.475C769.14 179.992 767.786 178.939 765.853 178.961ZM775.306 176.662V195.762H773.651V176.662H775.306ZM759.515 187.018C763.103 187.018 768.001 186.953 772.255 186.33L772.362 187.598C770.536 187.931 768.635 188.135 766.798 188.242V195.16H765.122V188.35C763.178 188.436 761.341 188.446 759.751 188.457L759.515 187.018ZM788.11 179.949V181.324H778.528V179.949H782.503V177.221H784.179V179.949H788.11ZM783.319 182.613C785.726 182.613 787.444 184.418 787.466 186.953C787.444 189.51 785.726 191.336 783.319 191.336C780.935 191.336 779.216 189.51 779.216 186.953C779.216 184.418 780.935 182.613 783.319 182.613ZM783.319 184.031C781.815 184.053 780.72 185.277 780.72 186.953C780.72 188.65 781.815 189.875 783.319 189.854C784.845 189.875 785.962 188.65 785.962 186.953C785.962 185.277 784.845 184.053 783.319 184.031ZM794.835 176.641V195.74H793.224V186.094H790.688V194.795H789.099V177.113H790.688V184.697H793.224V176.641H794.835ZM814.536 178.811V180.164H803.149V178.811H808.005V176.512H809.681V178.811H814.536ZM808.843 181.195C811.593 181.195 813.419 182.549 813.44 184.633C813.419 186.717 811.593 188.07 808.843 188.07C806.093 188.07 804.224 186.717 804.245 184.633C804.224 182.549 806.093 181.195 808.843 181.195ZM808.843 182.506C807.038 182.506 805.835 183.344 805.856 184.633C805.835 185.922 807.038 186.738 808.843 186.738C810.626 186.738 811.829 185.922 811.851 184.633C811.829 183.344 810.626 182.506 808.843 182.506ZM818.038 176.641V182.205H820.917V183.645H818.038V190.025H816.362V176.641H818.038ZM813.075 189.273C813.054 191.895 816.169 193.828 819.563 194.365L818.919 195.654C816.062 195.171 813.387 193.796 812.259 191.637C811.099 193.796 808.445 195.171 805.577 195.654L804.933 194.365C808.306 193.828 811.399 191.895 811.399 189.273V188.951H813.075V189.273ZM843.39 176.641V195.783H841.692V176.641H843.39ZM833.228 178.123C836.063 178.145 838.104 180.723 838.104 184.783C838.104 188.844 836.063 191.422 833.228 191.422C830.37 191.422 828.351 188.844 828.351 184.783C828.351 180.723 830.37 178.145 833.228 178.123ZM833.228 179.627C831.315 179.648 829.983 181.668 829.983 184.783C829.983 187.898 831.315 189.918 833.228 189.918C835.14 189.918 836.472 187.898 836.472 184.783C836.472 181.668 835.14 179.648 833.228 179.627ZM864.122 187.576V188.973H859.653V195.891H857.978V188.973H852.8V195.891H851.124V188.973H846.634V187.576H864.122ZM856.237 178.424C856.237 181.131 859.782 183.494 863.177 183.988L862.511 185.385C859.557 184.858 856.624 183.193 855.399 180.83C854.164 183.226 851.231 184.858 848.245 185.385L847.558 183.988C850.995 183.494 854.497 181.174 854.497 178.424V177.328H856.237V178.424ZM883.136 185.514V186.846H865.647V185.514H883.136ZM880.944 188.371V192.432H869.472V194.258H881.567V195.482H867.774V191.271H879.269V189.639H867.753V188.371H880.944ZM880.88 177.221V181.174H869.601V182.85H881.224V184.074H867.925V180.014H879.183V178.445H867.86V177.221H880.88ZM905.136 176.641V180.787H908.015V182.205H905.136V186.373H903.46V176.641H905.136ZM905.136 187.275V191.938H894.651V194.129H905.845V195.482H892.997V190.648H903.46V188.629H892.954V187.275H905.136ZM895.532 177.35C898.411 177.371 900.495 179.09 900.495 181.582C900.495 184.096 898.411 185.836 895.532 185.836C892.675 185.836 890.548 184.096 890.569 181.582C890.548 179.09 892.675 177.371 895.532 177.35ZM895.532 178.768C893.62 178.746 892.202 179.928 892.224 181.582C892.202 183.258 893.62 184.461 895.532 184.461C897.444 184.461 898.841 183.258 898.841 181.582C898.841 179.928 897.444 178.746 895.532 178.768ZM925.03 176.641V195.783H923.354V187.641H919.38V186.223H923.354V182.42H919.53V181.002H923.354V176.641H925.03ZM918.284 178.381V185.17H911.624V189.875C914.492 189.864 916.866 189.757 919.767 189.316L919.917 190.734C916.866 191.207 914.417 191.314 911.366 191.314H909.948V183.795H916.63V179.777H909.884V178.381H918.284ZM943.657 185.836V187.232H930.466V178.424H943.464V179.82H932.142V185.836H943.657ZM945.72 191.723V193.141H928.231V191.723H945.72ZM956.978 177.586V182.248H949.888V184.611C953.508 184.611 955.957 184.515 958.954 184.053L959.104 185.363C956.032 185.857 953.519 185.965 949.759 185.965H948.212V181.002H955.323V178.896H948.147V177.586H956.978ZM963.015 187.555V192.045H952.315V194.172H963.702V195.525H950.64V190.777H961.296V188.887H950.597V187.555H963.015ZM963.015 176.641V186.717H961.339V176.641H963.015ZM982.608 176.641V195.74H980.997V176.641H982.608ZM978.591 177.156V194.773H976.979V185.857H972.94C971.77 188.081 969.933 190.047 967.269 191.615L966.28 190.391C970.438 187.931 972.521 184.482 972.833 180.486H967.097V179.09H974.509C974.498 180.97 974.197 182.785 973.563 184.482H976.979V177.156H978.591ZM1002.76 191.873V193.291H985.272V191.873H989.612V186.717C987.979 185.868 986.991 184.493 986.991 182.764C986.991 179.799 989.892 177.865 993.974 177.844C998.056 177.865 1000.96 179.799 1000.96 182.764C1000.96 184.461 1000 185.825 998.421 186.674V191.873H1002.76ZM993.974 179.24C990.837 179.219 988.624 180.637 988.624 182.764C988.624 184.891 990.837 186.33 993.974 186.33C997.089 186.33 999.323 184.891 999.323 182.764C999.323 180.637 997.089 179.219 993.974 179.24ZM991.267 191.873H996.724V187.318C995.896 187.544 994.973 187.662 993.974 187.662C992.996 187.662 992.083 187.555 991.267 187.34V191.873ZM1007.38 178.445L1007.23 189.617H1005.42L1005.27 178.445H1007.38ZM1006.33 194.129C1005.58 194.129 1004.93 193.506 1004.95 192.732C1004.93 191.98 1005.58 191.357 1006.33 191.357C1007.08 191.357 1007.7 191.98 1007.7 192.732C1007.7 193.506 1007.08 194.129 1006.33 194.129Z" fill="#222222"/>
<path d="M656.714 113.38L658.887 106.324H661.743L660.571 113.38H656.714ZM662.402 113.38L664.575 106.324H667.432L666.26 113.38H662.402ZM693.457 105.763V107.862C693.457 110.67 693.457 113.868 692.554 118.702L688.989 118.336C689.844 114.234 689.905 111.122 689.941 108.546H676.953V105.763H693.457ZM695.288 120.899V123.731H674.854V120.899H681.958V113.282H685.449V120.899H695.288ZM709.692 105.104V107.887H705.444C705.701 110.047 707.227 112.208 710.645 113.087L708.887 115.846C706.372 115.138 704.651 113.685 703.662 111.842C702.637 113.844 700.867 115.431 698.242 116.212L696.46 113.478C699.988 112.501 701.538 110.194 701.807 107.887H697.412V105.104H709.692ZM715.283 103.932V116.09H711.768V103.932H715.283ZM703.613 116.969V118.873H711.768V116.969H715.283V126.1H700.171V116.969H703.613ZM703.613 123.292H711.768V121.583H703.613V123.292ZM726.392 118.092C726.392 119.837 727.063 121.632 728.784 122.853C730.518 121.571 731.226 119.74 731.25 118.092V117.481H734.717V118.092C734.692 120.46 735.791 122.56 738.794 123.463L737.109 126.002C734.998 125.318 733.643 124.012 732.861 122.315C732.117 124.012 730.835 125.44 728.857 126.197C726.782 125.465 725.488 124.073 724.756 122.389C723.95 124.012 722.62 125.306 720.605 126.002L718.872 123.463C721.851 122.462 722.949 120.289 722.974 118.092V117.481H726.392V118.092ZM736.89 103.956V116.578H733.374V103.956H736.89ZM724.561 105.03C728.076 105.055 730.762 107.301 730.762 110.475C730.762 113.6 728.076 115.87 724.561 115.87C721.045 115.87 718.335 113.6 718.359 110.475C718.335 107.301 721.045 105.055 724.561 105.03ZM724.561 107.984C722.925 107.984 721.777 108.863 721.777 110.475C721.777 112.037 722.925 112.965 724.561 112.965C726.147 112.965 727.271 112.037 727.271 110.475C727.271 108.863 726.147 107.984 724.561 107.984ZM757.886 109.84V112.574H742.139V104.737H745.63V109.84H757.886ZM760.132 114.747V117.506H739.648V114.747H760.132ZM758.032 123.048V125.855H741.919V119.19H745.435V123.048H758.032ZM785.84 103.932V117.018H782.349V114.381H778.516V115.919H767.773V105.567H778.516V107.105H782.349V103.932H785.84ZM771.265 108.326V113.136H775.073V108.326H771.265ZM778.101 117.579C782.935 117.579 785.889 119.19 785.913 121.974C785.889 124.757 782.935 126.368 778.101 126.344C773.315 126.368 770.361 124.757 770.361 121.974C770.361 119.19 773.315 117.579 778.101 117.579ZM778.101 120.24C775.293 120.24 773.853 120.753 773.853 121.974C773.853 123.146 775.293 123.683 778.101 123.707C780.957 123.683 782.397 123.146 782.422 121.974C782.397 120.753 780.957 120.24 778.101 120.24ZM778.516 111.549H782.349V109.84H778.516V111.549ZM808.936 114.869V117.652H800.732V121.29H797.266V117.652H788.452V114.869H808.936ZM806.323 104.884V113.282H790.967V104.884H806.323ZM794.409 107.594V110.572H802.881V107.594H794.409ZM806.689 123.17V125.978H790.771V119.435H794.287V123.17H806.689ZM827.856 103.932V112.354H830.859V115.235H827.856V126.271H824.341V103.932H827.856ZM821.802 106.178C821.802 112.989 819.312 118.8 811.694 122.535L809.717 119.85C814.856 117.274 817.615 113.929 818.237 109.059H811.06V106.178H821.802ZM845.776 109.791C845.752 113.16 847.314 117.091 851.147 118.824L849.194 121.583C846.729 120.484 845.044 118.324 844.067 115.772C843.079 118.604 841.321 120.973 838.745 122.169L836.719 119.386C840.601 117.579 842.212 113.453 842.212 109.791V108.912H837.646V106.056H850.122V108.912H845.776V109.791ZM855.054 103.932V112.33H858.228V115.235H855.054V126.344H851.538V103.932H855.054ZM878.32 103.932V126.344H875V103.932H878.32ZM873.706 104.249V125.343H870.435V114.308H867.749V111.5H870.435V104.249H873.706ZM866.138 109.815C866.138 113.502 867.114 117.213 870.435 119.117L868.408 121.681C866.467 120.57 865.222 118.714 864.478 116.456C863.721 118.91 862.439 120.985 860.474 122.193L858.374 119.605C861.719 117.53 862.744 113.526 862.744 109.815V108.912H859.277V106.104H869.312V108.912H866.138V109.815ZM892.92 105.86V108.619H880.566V105.86H885.156V103.736H888.672V105.86H892.92ZM886.865 109.254C889.966 109.254 892.236 110.987 892.261 113.478C892.236 115.968 889.966 117.652 886.865 117.652C883.765 117.652 881.567 115.968 881.567 113.478C881.567 110.987 883.765 109.254 886.865 109.254ZM886.865 111.866C885.645 111.866 884.839 112.403 884.839 113.478C884.839 114.552 885.645 115.064 886.865 115.064C888.11 115.064 888.989 114.552 888.989 113.478C888.989 112.403 888.11 111.866 886.865 111.866ZM899.463 103.932V118.141H895.972V116.017H893.188V113.209H895.972V111.5H893.262V108.692H895.972V103.932H899.463ZM891.797 118.434C896.582 118.434 899.561 119.898 899.585 122.389C899.561 124.854 896.582 126.368 891.797 126.344C886.987 126.368 883.984 124.854 883.984 122.389C883.984 119.898 886.987 118.434 891.797 118.434ZM891.797 121.07C889.111 121.095 887.695 121.461 887.695 122.389C887.695 123.292 889.111 123.707 891.797 123.707C894.409 123.707 895.801 123.292 895.801 122.389C895.801 121.461 894.409 121.095 891.797 121.07ZM907.666 113.38L909.839 106.324H912.695L911.523 113.38H907.666ZM913.354 113.38L915.527 106.324H918.384L917.212 113.38H913.354Z" fill="black"/>
<rect x="559" y="345" width="137" height="52" rx="10" fill="#C4C4C4"/>
<path d="M605.984 373.039V374.844H597.406V381.969H595.227V374.844H586.766V373.039H605.984ZM603.57 362.117V370.367H589.18V362.117H603.57ZM591.359 363.898V368.633H601.344V363.898H591.359ZM624.031 360.992V365.938H627.078V367.789H624.031V372.852H621.805V360.992H624.031ZM618.242 362.305C618.219 367.695 614.586 371.469 608.328 373.156L607.438 371.375C612.453 370.051 615.418 367.414 615.828 364.133H608.422V362.305H618.242ZM624.031 373.742V381.711H610.578V373.742H624.031ZM612.805 375.594V379.93H621.828V375.594H612.805ZM644.773 360.992V366.172H647.82V368.047H644.773V373.273H642.547V360.992H644.773ZM638.961 362.281C638.961 367.695 635.305 371.469 629.07 373.086L628.156 371.375C633.195 370.062 636.184 367.402 636.57 364.086H629.164V362.281H638.961ZM644.773 374.188V381.992H642.547V375.992H630.898V374.188H644.773ZM660.852 363.195V364.977H649.039V363.195H653.961V360.805H656.164V363.195H660.852ZM655.039 365.938C657.875 365.938 659.867 367.508 659.891 369.852C659.867 372.195 657.875 373.742 655.039 373.742C652.18 373.742 650.211 372.195 650.211 369.852C650.211 367.508 652.18 365.938 655.039 365.938ZM655.039 367.625C653.375 367.625 652.297 368.492 652.297 369.852C652.297 371.211 653.375 372.055 655.039 372.055C656.68 372.055 657.805 371.211 657.828 369.852C657.805 368.492 656.68 367.625 655.039 367.625ZM666.523 360.992V374.516H664.297V371.82H660.898V370.016H664.297V367.695H660.922V365.891H664.297V360.992H666.523ZM659.539 374.727C663.945 374.727 666.641 376.039 666.641 378.336C666.641 380.609 663.945 381.969 659.539 381.945C655.109 381.969 652.414 380.609 652.414 378.336C652.414 376.039 655.109 374.727 659.539 374.727ZM659.539 376.438C656.516 376.438 654.734 377.094 654.734 378.336C654.734 379.555 656.516 380.258 659.539 380.234C662.492 380.258 664.273 379.555 664.273 378.336C664.273 377.094 662.492 376.438 659.539 376.438Z" fill="white"/>
<rect x="889" y="345" width="137" height="52" rx="10" fill="#939393"/>
<path d="M930.805 367.93V369.734H916.25V362.023H918.5V367.93H930.805ZM933.008 372.57V374.375H928.227V381.992H925.977V374.375H920.891V381.992H918.664V374.375H913.859V372.57H933.008ZM945.266 363.969C945.266 367.391 948.922 370.625 952.953 371.352L951.922 373.203C948.57 372.477 945.477 370.273 944.117 367.32C942.734 370.25 939.652 372.453 936.289 373.203L935.305 371.352C939.289 370.602 942.922 367.391 942.922 363.969V362.375H945.266V363.969ZM953.82 377.375V379.227H934.602V377.375H953.82ZM968.609 364.836C968.609 367.672 970.508 370.438 973.672 371.539L972.453 373.273C970.156 372.395 968.445 370.66 967.555 368.469C966.641 370.906 964.848 372.828 962.375 373.766L961.18 372.008C964.438 370.836 966.383 367.93 966.406 364.766V362.281H968.609V364.836ZM978.711 361.016V376.672H976.484V367.625H972.055V365.797H976.484V361.016H978.711ZM979.18 379.742V381.547H965V374.914H967.25V379.742H979.18ZM1000.13 363.945V365.75H982.859V363.945H990.406V361.297H992.609V363.945H1000.13ZM1001.16 377.82V379.625H981.945V377.82H990.406V375.031C986.727 374.809 984.5 373.355 984.5 371.023C984.5 368.492 987.172 367.016 991.508 367.016C995.797 367.016 998.492 368.492 998.492 371.023C998.492 373.355 996.254 374.809 992.609 375.031V377.82H1001.16ZM991.508 368.773C988.508 368.773 986.75 369.57 986.773 371.023C986.75 372.477 988.508 373.273 991.508 373.297C994.461 373.273 996.219 372.477 996.219 371.023C996.219 369.57 994.461 368.773 991.508 368.773Z" fill="white"/>
<rect x="724" y="345" width="137" height="52" rx="10" fill="#B1B1B1"/>
<path d="M761.023 363.031V380H758.422V365.609H758.328L754.273 368.258V365.797L758.492 363.031H761.023ZM782.586 360.992V381.992H780.453V371.094H777.852V380.984H775.766V361.555H777.852V369.289H780.453V360.992H782.586ZM773.68 363.664C773.656 369.195 771.828 374.141 765.828 377.539L764.539 375.992C769.203 373.355 771.172 369.781 771.523 365.492H765.43V363.664H773.68ZM795.992 362.844V372.641H786.172V362.844H795.992ZM788.352 364.648V370.883H793.812V364.648H788.352ZM801.852 360.969V367.25H804.898V369.125H801.852V376.367H799.625V360.969H801.852ZM802.742 379.742V381.547H788.539V374.891H790.766V379.742H802.742ZM823.883 362.539V364.344H821.891V370.109C822.887 370.039 823.859 369.945 824.797 369.828L824.938 371.492C820.695 372.172 815.773 372.242 812.211 372.242L811.953 370.367H814.531V364.344H812.539V362.539H823.883ZM828.453 374.211V381.734H815.047V374.211H828.453ZM817.227 375.969V379.93H826.25V375.969H817.227ZM828.453 360.992V365.938H831.5V367.766H828.453V373.156H826.227V360.992H828.453ZM816.688 370.344C817.672 370.32 818.691 370.285 819.711 370.227V364.344H816.688V370.344Z" fill="white"/>
<path d="M296.584 179.419H295.03V341.066H296.584V179.419Z" stroke="black" stroke-width="2" stroke-miterlimit="10" stroke-linecap="round"/>
<path d="M266.274 242.45C266.274 242.45 281.883 257.941 294.843 257.941C307.804 257.941 278.439 285.422 266.274 273.274" fill="#D9D9D9"/>
<path d="M266.274 242.45C266.274 242.45 281.883 257.941 294.843 257.941C307.804 257.941 278.439 285.422 266.274 273.274" stroke="black" stroke-width="2" stroke-miterlimit="10"/>
<path d="M268.623 141.168V376.816H43.3877V83.0527H213.448L268.623 141.168Z" fill="#D9D9D9" stroke="black" stroke-width="2" stroke-miterlimit="10"/>
<path d="M149.496 262.574C149.496 262.574 139.695 365.935 111.734 384.587C111.734 384.587 100.861 375.261 66.6873 372.152C32.5136 369.044 29.4069 348.838 18.5335 348.838H3C3 348.838 40.2804 307.695 43.3871 245.104" fill="#EDECEC"/>
<path d="M149.496 262.574C149.496 262.574 139.695 365.935 111.734 384.587C111.734 384.587 100.861 375.261 66.6873 372.152C32.5136 369.044 29.4069 348.838 18.5335 348.838H3C3 348.838 40.2804 307.695 43.3871 245.104" stroke="black" stroke-width="2" stroke-miterlimit="10"/>
<path d="M161.505 262.574C161.505 262.574 171.307 365.935 199.267 384.587C199.267 384.587 210.14 375.261 244.314 372.152C278.488 369.044 281.594 348.838 292.468 348.838C303.341 348.838 308.001 348.838 308.001 348.838C308.001 348.838 270.721 307.695 267.614 245.104" fill="#EDECEC"/>
<path d="M161.505 262.574C161.505 262.574 171.307 365.935 199.267 384.587C199.267 384.587 210.14 375.261 244.314 372.152C278.488 369.044 281.594 348.838 292.468 348.838C303.341 348.838 308.001 348.838 308.001 348.838C308.001 348.838 270.721 307.695 267.614 245.104" stroke="black" stroke-width="2" stroke-miterlimit="10"/>
<path d="M56.6836 83.0524L84.473 47.0858C85.6846 45.516 87.9836 45.3139 89.4437 46.6662L99.9133 56.3029C101.42 57.7017 103.828 57.4219 104.993 55.7278L126.693 24.2376C128.06 22.2637 130.996 22.2947 132.316 24.2998L152.712 55.448C153.892 57.251 156.409 57.4997 157.931 55.992L168.96 44.972C170.342 43.5887 172.61 43.6664 173.899 45.143L207.063 83.0368H56.6836V83.0524Z" fill="white" stroke="black" stroke-width="2" stroke-miterlimit="10"/>
<path d="M85.3284 41.0859C87.0442 41.0859 88.4351 39.6941 88.4351 37.9773C88.4351 36.2604 87.0442 34.8687 85.3284 34.8687C83.6126 34.8687 82.2217 36.2604 82.2217 37.9773C82.2217 39.6941 83.6126 41.0859 85.3284 41.0859Z" fill="white" stroke="black" stroke-width="2" stroke-miterlimit="10"/>
<path d="M170.761 41.0859C172.477 41.0859 173.868 39.6941 173.868 37.9773C173.868 36.2604 172.477 34.8687 170.761 34.8687C169.045 34.8687 167.654 36.2604 167.654 37.9773C167.654 39.6941 169.045 41.0859 170.761 41.0859Z" fill="white" stroke="black" stroke-width="2" stroke-miterlimit="10"/>
<path d="M130.375 16.2172C132.091 16.2172 133.482 14.8254 133.482 13.1086C133.482 11.3918 132.091 10 130.375 10C128.659 10 127.269 11.3918 127.269 13.1086C127.269 14.8254 128.659 16.2172 130.375 16.2172Z" fill="white" stroke="black" stroke-width="2" stroke-miterlimit="10"/>
<path d="M144.355 123.464C144.355 123.464 117.948 83.1143 88.4348 116.501C88.4348 116.501 82.2214 120.355 79.1147 149.887C76.008 179.419 43.3877 205.842 18.5341 184.082C-6.31948 162.322 21.6408 151.441 27.8542 157.659C34.0676 163.876 29.4076 174.756 23.1942 170.093" stroke="black" stroke-width="2" stroke-miterlimit="10" stroke-linecap="round"/>
<path d="M154.419 123.464C154.419 123.464 180.826 83.1143 210.34 116.501C210.34 116.501 216.553 120.355 219.66 149.887C222.766 179.419 255.387 205.842 280.24 184.082C305.094 162.322 277.134 151.441 270.92 157.659C264.707 163.876 269.367 174.756 275.58 170.093" stroke="black" stroke-width="2" stroke-miterlimit="10" stroke-linecap="round"/>
<path d="M116.394 148.333H99.3076V180.973H116.394V148.333Z" fill="black"/>
<path d="M207.265 149.11H190.178V181.751H207.265V149.11Z" fill="black"/>
<path d="M116.394 148.333H96.7441" stroke="black" stroke-width="2" stroke-miterlimit="10"/>
<path d="M116.394 180.974H96.7441" stroke="black" stroke-width="2" stroke-miterlimit="10"/>
<path d="M207.267 149.11H187.213" stroke="black" stroke-width="2" stroke-miterlimit="10"/>
<path d="M207.267 181.75H187.213" stroke="black" stroke-width="2" stroke-miterlimit="10"/>
<path d="M153.256 164.653C153.256 164.653 157.543 185.636 163.368 180.973C166.786 178.253 172.44 173.932 176.556 170.808C177.286 170.264 178.187 171.196 177.628 171.896C170.281 181.082 155.415 200.371 155.99 205.391" stroke="black" stroke-width="2" stroke-miterlimit="10" stroke-linecap="round"/>
<path d="M147.462 222.939L117.949 212.059C117.949 212.059 116.395 224.493 121.055 226.048C125.715 227.602 133.482 219.831 133.482 219.831" fill="white"/>
<path d="M147.462 222.939L117.949 212.059C117.949 212.059 116.395 224.493 121.055 226.048C125.715 227.602 133.482 219.831 133.482 219.831" stroke="black" stroke-width="2" stroke-miterlimit="10" stroke-linecap="round"/>
<path d="M213.449 83.0527C213.449 83.0527 206.427 138.868 213.449 145.94C220.47 153.012 248.43 134.018 268.624 141.184" fill="#F4F4F4"/>
<path d="M213.449 83.0527C213.449 83.0527 206.427 138.868 213.449 145.94C220.47 153.012 248.43 134.018 268.624 141.184" stroke="black" stroke-width="2" stroke-miterlimit="10" stroke-linecap="round"/>
<path d="M213.799 83.4316L268.925 141.208" stroke="black"/>
<path d="M60.4737 224.494C60.4737 224.494 40.2801 240.037 34.0667 240.037C27.8533 240.037 79.1139 257.134 93.094 275.786C107.074 294.437 130.374 300.654 130.374 300.654C130.374 300.654 146.871 260.243 149.496 262.574C152.121 264.905 68.2404 230.711 60.4737 224.494Z" fill="white" stroke="black" stroke-width="2" stroke-miterlimit="10"/>
<path d="M250.525 224.494C250.525 224.494 270.719 240.037 276.932 240.037C283.146 240.037 231.885 257.134 217.905 275.786C203.925 294.437 180.624 300.654 180.624 300.654C180.624 300.654 164.128 260.243 161.503 262.574C158.878 264.905 242.758 230.711 250.525 224.494Z" fill="white" stroke="black" stroke-width="2" stroke-miterlimit="10"/>
<path d="M293.601 154.659C293.601 154.659 297.314 165.181 290.51 169.844C283.707 174.507 292.374 180.693 296.087 179.465C299.799 178.237 312.195 175.751 293.601 154.674V154.659Z" fill="#F4F4F4" stroke="black" stroke-width="2" stroke-miterlimit="10"/>
<path d="M213 82.5L269 141.5" stroke="black" stroke-width="2"/>
<defs>
<filter id="filter0_d_1091_3" x="407.338" y="0" width="708.554" height="479" filterUnits="userSpaceOnUse" color-interpolation-filters="sRGB">
<feFlood flood-opacity="0" result="BackgroundImageFix"/>
<feColorMatrix in="SourceAlpha" type="matrix" values="0 0 0 0 0 0 0 0 0 0 0 0 0 0 0 0 0 0 127 0" result="hardAlpha"/>
<feOffset dy="4"/>
<feGaussianBlur stdDeviation="2"/>
<feComposite in2="hardAlpha" operator="out"/>
<feColorMatrix type="matrix" values="0 0 0 0 0 0 0 0 0 0 0 0 0 0 0 0 0 0 0.25 0"/>
<feBlend mode="normal" in2="BackgroundImageFix" result="effect1_dropShadow_1091_3"/>
<feBlend mode="normal" in="SourceGraphic" in2="effect1_dropShadow_1091_3" result="shape"/>
</filter>
</defs>
</svg>
