<svg width="1166" height="518" viewBox="0 0 1166 518" fill="none" xmlns="http://www.w3.org/2000/svg">
<path d="M136.275 476.918V493.734H132.262V486.791H130.592V492.855H126.637V477.416H130.592V483.363H132.262V476.918H136.275ZM125.963 479.555V482.807H112.955V479.555H117.379V477.182H121.568V479.555H125.963ZM119.488 483.539C122.916 483.539 125.406 485.443 125.406 488.256C125.406 491.039 122.916 492.943 119.488 492.943C116.148 492.943 113.658 491.039 113.658 488.256C113.658 485.443 116.148 483.539 119.488 483.539ZM119.488 486.557C118.258 486.527 117.438 487.143 117.438 488.256C117.438 489.369 118.258 489.984 119.488 489.984C120.748 489.984 121.598 489.369 121.598 488.256C121.598 487.143 120.748 486.527 119.488 486.557ZM126.988 493.91C132.848 493.91 136.393 495.727 136.422 498.861C136.393 502.025 132.848 503.842 126.988 503.812C121.188 503.842 117.584 502.025 117.613 498.861C117.584 495.727 121.188 493.91 126.988 493.91ZM126.988 497.045C123.531 497.045 121.803 497.602 121.832 498.861C121.803 500.092 123.531 500.648 126.988 500.648C130.504 500.648 132.145 500.092 132.174 498.861C132.145 497.602 130.504 497.045 126.988 497.045ZM163.609 489.428V492.738H139.029V489.428H149.254V487.406H141.959V478.09H160.709V481.371H146.178V484.096H160.826V487.406H153.414V489.428H163.609ZM151.246 493.881C157.105 493.881 160.621 495.668 160.621 498.891C160.621 502.055 157.105 503.871 151.246 503.871C145.357 503.871 141.783 502.055 141.783 498.891C141.783 495.668 145.357 493.881 151.246 493.881ZM151.246 497.074C147.701 497.074 146.061 497.66 146.09 498.891C146.061 500.15 147.701 500.648 151.246 500.648C154.703 500.648 156.402 500.15 156.402 498.891C156.402 497.66 154.703 497.074 151.246 497.074ZM180.25 479.262V482.631H178.023V493.939C179.005 493.866 179.972 493.764 180.895 493.646L181.1 496.664C175.68 497.66 169.615 497.777 165.045 497.777L164.605 494.379L167.477 494.35V482.631H165.279V479.262H180.25ZM186.285 476.918V486.996H190.094V490.395H186.285V503.812H182.066V476.918H186.285ZM171.549 494.262L173.98 494.203V482.631H171.549V494.262ZM219.566 488.783V492.094H211.92V497.426H222.174V500.854H197.594V497.426H207.76V492.094H200.406V478.734H219.391V482.074H204.625V488.783H219.566ZM236.5 478.764V487.611H228.707V490.219C232.062 490.189 234.522 490.028 237.232 489.545L237.701 492.943C234.273 493.529 231.227 493.617 226.598 493.617H224.488V484.506H232.252V482.104H224.488V478.764H236.5ZM246.285 476.947V496.811H242.096V490.307H237.965V486.938H242.096V484.213H237.965V480.873H242.096V476.947H246.285ZM246.93 499.945V503.373H228.092V495.258H232.281V499.945H246.93ZM272.008 476.918V491.947H267.818V476.918H272.008ZM255.162 478.471V487.348C259.117 487.304 262.384 487.025 265.768 486.293L266.236 489.691C262.193 490.57 258.209 490.863 253.316 490.893H250.943V478.471H255.162ZM272.008 493.002V503.49H253.902V493.002H272.008ZM258.033 496.283V500.209H267.877V496.283H258.033ZM290.289 479.232V482.543H275.465V479.232H280.973V476.684H285.191V479.232H290.289ZM283.023 483.305C286.744 483.305 289.469 485.385 289.498 488.373C289.469 491.361 286.744 493.383 283.023 493.383C279.303 493.383 276.666 491.361 276.666 488.373C276.666 485.385 279.303 483.305 283.023 483.305ZM283.023 486.439C281.559 486.439 280.592 487.084 280.592 488.373C280.592 489.662 281.559 490.277 283.023 490.277C284.518 490.277 285.572 489.662 285.572 488.373C285.572 487.084 284.518 486.439 283.023 486.439ZM298.141 476.918V493.969H293.951V491.42H290.611V488.051H293.951V486H290.699V482.631H293.951V476.918H298.141ZM288.941 494.32C294.684 494.32 298.258 496.078 298.287 499.066C298.258 502.025 294.684 503.842 288.941 503.812C283.17 503.842 279.566 502.025 279.566 499.066C279.566 496.078 283.17 494.32 288.941 494.32ZM288.941 497.484C285.719 497.514 284.02 497.953 284.02 499.066C284.02 500.15 285.719 500.648 288.941 500.648C292.076 500.648 293.746 500.15 293.746 499.066C293.746 497.953 292.076 497.514 288.941 497.484Z" fill="#222222"/>
<g filter="url(#filter0_d_1091_5)">
<path fill-rule="evenodd" clip-rule="evenodd" d="M581.891 39C548.202 39 520.891 66.3106 520.891 100V241.9L462.154 270.423C458.399 272.246 458.399 277.595 462.154 279.418L520.891 307.941V449C520.891 482.689 548.202 510 581.891 510H1098.89C1132.58 510 1159.89 482.689 1159.89 449V100C1159.89 66.3106 1132.58 39 1098.89 39H581.891Z" fill="white"/>
</g>
<path d="M736.617 114.641V119.625H739.475V121.043H736.617V126.049H734.92V114.641H736.617ZM730.473 126.414C734.361 126.414 736.768 127.768 736.768 130.045C736.768 132.365 734.361 133.697 730.473 133.697C726.562 133.697 724.135 132.365 724.135 130.045C724.135 127.768 726.562 126.414 730.473 126.414ZM730.473 127.811C727.594 127.789 725.789 128.648 725.789 130.045C725.789 131.463 727.594 132.344 730.473 132.344C733.33 132.344 735.135 131.463 735.135 130.045C735.135 128.648 733.33 127.789 730.473 127.811ZM731.031 116.102V117.498H724.199V123.105C728.066 123.084 730.301 122.966 732.857 122.439L733.029 123.836C730.365 124.373 728.066 124.48 724.027 124.48H722.545V116.102H731.031ZM756.447 114.662V128.67H754.771V114.662H756.447ZM757.049 131.914V133.332H744.115V127.381H745.791V131.914H757.049ZM747.445 117.648C747.424 120.549 749.422 123.17 752.258 124.201L751.377 125.555C749.164 124.706 747.445 122.987 746.607 120.785C745.759 123.127 744.019 125.007 741.795 125.898L740.871 124.588C743.771 123.471 745.727 120.656 745.727 117.648V115.736H747.445V117.648ZM777.094 124.717V126.092H759.691V124.717H777.094ZM775.16 131.914V133.332H761.947V127.768H763.645V131.914H775.16ZM768.393 115.328C772.496 115.307 775.139 116.725 775.139 119.109C775.139 121.494 772.496 122.912 768.393 122.912C764.246 122.912 761.625 121.494 761.625 119.109C761.625 116.725 764.246 115.307 768.393 115.328ZM768.393 116.682C765.32 116.682 763.344 117.605 763.365 119.109C763.344 120.613 765.32 121.537 768.393 121.537C771.443 121.537 773.42 120.613 773.42 119.109C773.42 117.605 771.443 116.682 768.393 116.682ZM790.006 132.215C786.547 132.215 784.57 129.314 784.57 124.223C784.57 119.174 786.59 116.23 790.006 116.23C793.422 116.23 795.441 119.174 795.441 124.223C795.441 129.314 793.443 132.215 790.006 132.215ZM790.006 130.496C792.24 130.496 793.551 128.24 793.551 124.223C793.551 120.205 792.24 117.906 790.006 117.906C787.771 117.906 786.439 120.205 786.439 124.223C786.439 128.24 787.75 130.496 790.006 130.496ZM803.111 132.215C799.652 132.215 797.676 129.314 797.676 124.223C797.676 119.174 799.695 116.23 803.111 116.23C806.527 116.23 808.547 119.174 808.547 124.223C808.547 129.314 806.549 132.215 803.111 132.215ZM803.111 130.496C805.346 130.496 806.656 128.24 806.656 124.223C806.656 120.205 805.346 117.906 803.111 117.906C800.877 117.906 799.545 120.205 799.545 124.223C799.545 128.24 800.855 130.496 803.111 130.496ZM827.904 124.76V126.135H820.127V129.873H818.451V126.135H810.416V124.76H827.904ZM825.949 131.914V133.332H812.65V128.111H814.326V131.914H825.949ZM814.434 115.264V117.713H823.887V115.264H825.562V122.891H812.758V115.264H814.434ZM814.434 121.516H823.887V119.002H814.434V121.516ZM834.564 116.123C837.379 116.145 839.377 118.723 839.398 122.783C839.377 126.844 837.379 129.422 834.564 129.422C831.729 129.422 829.752 126.844 829.752 122.783C829.752 118.723 831.729 116.145 834.564 116.123ZM834.564 117.627C832.674 117.648 831.342 119.668 831.342 122.783C831.342 125.898 832.674 127.918 834.564 127.918C836.477 127.918 837.766 125.898 837.766 122.783C837.766 119.668 836.477 117.648 834.564 117.627ZM847.326 119.453V120.893H844.232V125.146H847.326V126.564H844.232V133.74H842.557V114.641H844.232V119.453H847.326ZM864.836 114.641V133.74H863.203V114.641H864.836ZM860.99 115.049V132.773H859.379V123.492H856.93C856.747 127.209 855.168 129.529 852.805 129.529C850.312 129.529 848.701 126.951 848.701 122.891C848.701 118.83 850.312 116.252 852.805 116.252C855.125 116.252 856.693 118.497 856.908 122.096H859.379V115.049H860.99ZM852.805 117.842C851.258 117.842 850.27 119.775 850.291 122.891C850.27 125.984 851.258 127.939 852.805 127.918C854.352 127.939 855.34 125.984 855.34 122.891C855.34 119.775 854.352 117.842 852.805 117.842ZM883.592 116.123V117.133C883.57 118.379 883.57 120.291 883.098 122.783L881.4 122.654C881.862 120.366 881.905 118.744 881.938 117.541H874.074V116.123H883.592ZM878.672 120.355V124.459C880.788 124.373 882.979 124.223 884.967 123.943L885.074 125.189C881.078 125.877 876.459 125.963 873.064 125.963L872.893 124.566C874.128 124.556 875.524 124.545 876.996 124.502V120.355H878.672ZM887.975 114.641V120.871H890.768V122.311H887.975V129.014H886.256V114.641H887.975ZM888.598 131.914V133.332H875.836V127.725H877.533V131.914H888.598ZM907.783 114.662V125.512H906.107V114.662H907.783ZM907.783 126.607V133.482H895.365V126.607H907.783ZM897.02 127.982V132.107H906.129V127.982H897.02ZM898.781 117.283C898.76 119.99 900.822 122.375 903.637 123.363L902.777 124.652C900.564 123.89 898.803 122.278 897.943 120.184C897.095 122.418 895.312 124.18 893.023 125.018L892.164 123.686C895.064 122.676 897.062 120.098 897.062 117.283V115.414H898.781V117.283ZM917.494 127.467C917.494 129.153 918.396 130.947 920.223 131.979C922.027 130.851 922.994 128.949 922.994 127.467V126.414H924.648V127.467C924.648 129.422 926.088 131.398 928.537 132.236L927.699 133.482C925.787 132.806 924.444 131.474 923.789 129.873C923.198 131.42 922.027 132.881 920.266 133.633C918.407 132.924 917.226 131.517 916.656 129.916C915.979 131.463 914.658 132.795 912.832 133.482L911.973 132.236C914.379 131.334 915.84 129.293 915.861 127.467V126.414H917.494V127.467ZM926.797 114.662V125.576H925.121V114.662H926.797ZM916.484 115.779C919.385 115.779 921.49 117.584 921.49 120.248C921.49 122.869 919.385 124.674 916.484 124.674C913.584 124.674 911.479 122.869 911.479 120.248C911.479 117.584 913.584 115.779 916.484 115.779ZM916.484 117.219C914.529 117.197 913.111 118.465 913.133 120.248C913.111 122.01 914.529 123.256 916.484 123.277C918.418 123.256 919.836 122.01 919.836 120.248C919.836 118.465 918.418 117.197 916.484 117.219ZM945.488 120.441V121.795H932.404V115.35H934.08V120.441H945.488ZM947.508 124.395V125.77H930.02V124.395H947.508ZM945.596 131.871V133.268H932.297V127.725H933.973V131.871H945.596ZM952.191 130.561L950.516 136.404H948.926L950.107 130.561H952.191Z" fill="#222222"/>
<path d="M716.55 263.455C716.55 266.721 720.288 269.643 723.618 270.266L722.845 271.684C719.966 271.018 716.926 268.966 715.69 266.141C714.455 268.955 711.426 271.007 708.536 271.684L707.763 270.266C711.071 269.621 714.788 266.742 714.788 263.455V261.994H716.55V263.455ZM724.521 275.744V277.141H707.032V275.744H724.521ZM741.278 262.596V264.959C741.278 267.773 741.278 270.373 740.483 274.24L738.786 274.09C739.205 272.253 739.42 270.663 739.538 269.17L727.872 269.814L727.636 268.418L739.603 267.924C739.635 266.914 739.635 265.937 739.646 264.959V264.014H728.151V262.596H741.278ZM743.448 275.637V277.055H726.046V275.637H743.448ZM761.28 260.662V271.232H759.669V266.57H756.983V271.039H755.415V261.006H756.983V265.217H759.669V260.662H761.28ZM750.366 272.113V274.305H759.626V272.113H761.28V279.482H748.69V272.113H750.366ZM750.366 278.107H759.626V275.68H750.366V278.107ZM753.138 261.801V266.699H747.573V269.234C750.087 269.202 752.01 269.105 754.276 268.633L754.47 270.029C751.999 270.502 749.958 270.609 747.187 270.609H745.94V265.41H751.526V263.176H745.897V261.801H753.138ZM776.062 264.186C776.062 266.721 777.931 269.041 780.767 270.029L779.907 271.34C777.727 270.566 776.062 268.998 775.245 267.021C774.429 269.191 772.678 270.878 770.433 271.705L769.53 270.395C772.388 269.385 774.386 266.914 774.407 264.186V263.369H770.046V261.994H780.358V263.369H776.062V264.186ZM784.526 260.641V265.689H787.405V267.129H784.526V272.156H782.851V260.641H784.526ZM784.526 273.166V279.74H782.851V274.541H772.022V273.166H784.526ZM795.183 263.648C795.161 266.377 797.095 268.783 799.909 269.729L798.964 271.039C796.858 270.244 795.204 268.697 794.388 266.678C793.561 268.966 791.81 270.749 789.511 271.619L788.587 270.244C791.53 269.213 793.485 266.678 793.507 263.713V261.736H795.183V263.648ZM804.442 260.641V271.963H802.745V266.141H798.491V264.744H802.745V260.641H804.442ZM798.104 272.521C802.079 272.521 804.507 273.832 804.507 276.131C804.507 278.408 802.079 279.697 798.104 279.697C794.13 279.697 791.702 278.408 791.702 276.131C791.702 273.832 794.13 272.521 798.104 272.521ZM798.104 273.854C795.183 273.854 793.356 274.713 793.378 276.131C793.356 277.506 795.183 278.344 798.104 278.344C801.026 278.344 802.831 277.506 802.831 276.131C802.831 274.713 801.026 273.854 798.104 273.854ZM818.214 262.768V263.756C818.192 265.26 818.192 267.795 817.655 271.34L815.958 271.189C816.474 267.988 816.517 265.668 816.517 264.143H808.503V262.768H818.214ZM813.208 268.225V274.025C815.324 273.95 817.494 273.811 819.481 273.574L819.567 274.842C815.55 275.465 811.06 275.551 807.644 275.529L807.429 274.133C808.686 274.122 810.082 274.111 811.554 274.068V268.225H813.208ZM822.36 260.641V268.633H825.454V270.094H822.36V279.74H820.685V260.641H822.36ZM847.089 260.641V265.732H849.968V267.172H847.089V272.156H845.413V260.641H847.089ZM847.089 273.252V279.482H835.036V273.252H847.089ZM836.69 274.605V278.107H845.413V274.605H836.69ZM843.587 262.682V264.078H832.2V262.682H837.056V260.49H838.731V262.682H843.587ZM837.894 265.023C840.644 265.023 842.47 266.377 842.491 268.418C842.47 270.502 840.644 271.834 837.894 271.834C835.122 271.834 833.274 270.502 833.296 268.418C833.274 266.377 835.122 265.023 837.894 265.023ZM837.894 266.334C836.089 266.334 834.886 267.172 834.907 268.418C834.886 269.729 836.089 270.523 837.894 270.545C839.677 270.523 840.88 269.729 840.901 268.418C840.88 267.172 839.677 266.334 837.894 266.334ZM855.919 262.961C855.897 266.979 855.339 271.49 852.546 275.186L851.214 274.412C853.609 271.415 854.318 267.881 854.458 264.357H851.601V262.961H855.919ZM860.151 262.961C860.141 264.519 860.108 266.312 859.872 268.16H862.407V261.156H864.019V278.773H862.407V269.557H859.657C859.217 271.941 858.379 274.358 856.821 276.453L855.511 275.658C858.153 272.285 858.594 267.924 858.669 264.357H856.521V262.961H860.151ZM867.606 260.641V279.74H865.974V260.641H867.606ZM891.132 269.6V270.975H885.224V275.916H893.194V277.334H875.706V275.916H883.569V270.975H877.94V262.209H890.938V263.584H879.638V269.6H891.132ZM910.554 260.662V274.67H908.856V267.344H904.925V265.947H908.856V260.662H910.554ZM911.091 277.914V279.332H898.286V273.402H899.983V277.914H911.091ZM901.358 264.594C901.358 267.064 903.271 269.471 906.063 270.416L905.183 271.77C903.023 270.996 901.358 269.385 900.542 267.408C899.715 269.61 897.953 271.372 895.687 272.221L894.806 270.846C897.62 269.857 899.661 267.344 899.661 264.594V263.605H895.343V262.209H905.634V263.605H901.358V264.594ZM922.435 260.984C926.688 260.984 929.181 262.145 929.181 264.271C929.181 266.441 926.688 267.602 922.435 267.623C918.181 267.602 915.667 266.441 915.667 264.271C915.667 262.145 918.181 260.984 922.435 260.984ZM922.435 262.252C919.255 262.252 917.407 263.025 917.429 264.271C917.407 265.604 919.255 266.334 922.435 266.334C925.593 266.334 927.462 265.604 927.462 264.271C927.462 263.025 925.593 262.252 922.435 262.252ZM931.136 268.912V270.287H913.733V268.912H931.136ZM928.901 271.941V276.217H917.558V278.193H929.481V279.525H915.882V274.971H927.247V273.23H915.839V271.941H928.901ZM953.05 260.641V268.525H956.251V269.922H953.05V279.74H951.374V260.641H953.05ZM949.526 263.713V265.109H938.161V263.713H943.081V260.877H944.757V263.713H949.526ZM943.94 266.699C946.647 266.699 948.603 268.504 948.624 271.082C948.603 273.66 946.647 275.465 943.94 275.465C941.212 275.465 939.235 273.66 939.257 271.082C939.235 268.504 941.212 266.699 943.94 266.699ZM943.94 268.117C942.157 268.117 940.847 269.363 940.868 271.082C940.847 272.822 942.157 274.047 943.94 274.025C945.702 274.047 946.991 272.822 947.013 271.082C946.991 269.363 945.702 268.117 943.94 268.117ZM966.757 262.553V265.238H971.44V260.641H973.116V279.783H971.44V271.898H966.757V274.906H958.056V262.553H966.757ZM959.731 263.885V273.553H965.124V263.885H959.731ZM966.757 270.502H971.44V266.635H966.757V270.502ZM735.714 287.467V288.885H728.646V298.617C732.083 298.617 734.36 298.499 737.003 297.994L737.218 299.391C734.403 299.928 732.083 300.057 728.409 300.057H726.948V287.467H735.714ZM741.837 285.641V304.783H740.14V293.998H734.575V292.602H740.14V285.641H741.837ZM753.353 286.629V293.418C756.339 293.407 758.863 293.257 761.646 292.688L761.903 294.105C758.896 294.686 756.296 294.836 753.116 294.836H751.655V286.629H753.353ZM766.351 285.641V295.824H764.653V290.238H759.153V288.842H764.653V285.641H766.351ZM761.753 296.533V299.047H764.804V296.533H766.351V304.525H760.206V296.533H761.753ZM761.753 303.172H764.804V300.379H761.753V303.172ZM759.024 296.77V301.109H754.534V303.193C756.607 303.183 757.832 303.14 759.454 302.871L759.604 304.16C757.821 304.482 756.425 304.525 753.868 304.525H752.88V299.863H757.392V298.059H752.837V296.77H759.024ZM786.933 295.717V297.092H769.53V295.717H786.933ZM784.999 302.914V304.332H771.786V298.768H773.483V302.914H784.999ZM778.231 286.328C782.335 286.307 784.978 287.725 784.978 290.109C784.978 292.494 782.335 293.912 778.231 293.912C774.085 293.912 771.464 292.494 771.464 290.109C771.464 287.725 774.085 286.307 778.231 286.328ZM778.231 287.682C775.159 287.682 773.183 288.605 773.204 290.109C773.183 291.613 775.159 292.537 778.231 292.537C781.282 292.537 783.259 291.613 783.259 290.109C783.259 288.605 781.282 287.682 778.231 287.682ZM799.737 291.076C799.737 294.105 801.22 297.393 803.755 298.896L802.788 300.207C800.951 299.09 799.63 297.049 798.964 294.729C798.255 297.264 796.837 299.444 794.925 300.615L793.851 299.348C796.493 297.801 798.104 294.406 798.104 291.141V287.445H799.737V291.076ZM810.437 285.641V304.74H808.804V285.641H810.437ZM806.483 286.049V303.773H804.894V293.934H801.649V292.494H804.894V286.049H806.483ZM819.46 288.734C819.46 291.334 821.437 293.719 824.208 294.664L823.284 295.996C821.168 295.223 819.503 293.644 818.665 291.656C817.849 293.901 816.151 295.674 813.917 296.533L813.015 295.18C815.872 294.105 817.784 291.549 817.806 288.605V286.629H819.46V288.734ZM828.011 285.641V290.625H830.89V292.043H828.011V297.264H826.335V285.641H828.011ZM821.888 297.758C825.819 297.758 828.183 299.025 828.183 301.217C828.183 303.451 825.819 304.697 821.888 304.697C817.956 304.697 815.55 303.451 815.55 301.217C815.55 299.025 817.956 297.758 821.888 297.758ZM821.888 299.111C819.009 299.111 817.226 299.906 817.247 301.217C817.226 302.57 819.009 303.344 821.888 303.365C824.788 303.344 826.55 302.57 826.55 301.217C826.55 299.906 824.788 299.111 821.888 299.111ZM840.794 285.984C845.048 285.984 847.54 287.145 847.54 289.271C847.54 291.441 845.048 292.602 840.794 292.623C836.54 292.602 834.026 291.441 834.026 289.271C834.026 287.145 836.54 285.984 840.794 285.984ZM840.794 287.252C837.614 287.252 835.767 288.025 835.788 289.271C835.767 290.604 837.614 291.334 840.794 291.334C843.952 291.334 845.821 290.604 845.821 289.271C845.821 288.025 843.952 287.252 840.794 287.252ZM849.495 293.912V295.287H832.093V293.912H849.495ZM847.261 296.941V301.217H835.917V303.193H847.841V304.525H834.241V299.971H845.606V298.23H834.198V296.941H847.261ZM872.462 285.641V295.867H870.765V292.988H867.563V291.613H870.765V289.809H867.563V288.455H870.765V285.641H872.462ZM867.349 286.887V288.262H865.394V293.611C866.285 293.558 867.155 293.482 867.972 293.396L868.058 294.643C864.384 295.201 860.065 295.244 856.864 295.244L856.671 293.805L859.142 293.783V288.262H857.208V286.887H867.349ZM872.462 296.77V301.152H861.784V303.172H873.171V304.525H860.13V299.863H870.786V298.102H860.087V296.77H872.462ZM860.774 293.762C861.752 293.762 862.762 293.729 863.761 293.697V288.262H860.774V293.762ZM891.454 285.641V304.783H889.778V297.092H885.847V295.695H889.778V293.117H885.847V291.699H889.778V285.641H891.454ZM882.237 291.871C882.237 295.029 884.386 298.145 887.222 299.412L886.255 300.723C884.085 299.724 882.28 297.629 881.442 295.094C880.604 297.769 878.821 299.992 876.651 301.045L875.685 299.734C878.478 298.424 880.583 295.158 880.583 291.871V290.346H876.2V288.971H880.583V286.006H882.259V288.971H886.577V290.346H882.237V291.871ZM912.144 300.895V302.291H894.655V300.895H902.519V296.77H896.718V286.994H898.415V290.453H908.341V286.994H909.995V296.77H904.173V300.895H912.144ZM898.415 295.395H908.341V291.828H898.415V295.395ZM919.341 291.076C919.341 294.105 920.823 297.393 923.358 298.896L922.392 300.207C920.555 299.09 919.233 297.049 918.567 294.729C917.858 297.264 916.44 299.444 914.528 300.615L913.454 299.348C916.097 297.801 917.708 294.406 917.708 291.141V287.445H919.341V291.076ZM930.04 285.641V304.74H928.407V285.641H930.04ZM926.087 286.049V303.773H924.497V293.934H921.253V292.494H924.497V286.049H926.087ZM950.171 300.873V302.291H932.683V300.873H937.022V295.717C935.39 294.868 934.401 293.493 934.401 291.764C934.401 288.799 937.302 286.865 941.384 286.844C945.466 286.865 948.366 288.799 948.366 291.764C948.366 293.461 947.41 294.825 945.831 295.674V300.873H950.171ZM941.384 288.24C938.247 288.219 936.034 289.637 936.034 291.764C936.034 293.891 938.247 295.33 941.384 295.33C944.499 295.33 946.733 293.891 946.733 291.764C946.733 289.637 944.499 288.219 941.384 288.24ZM938.677 300.873H944.134V296.318C943.307 296.544 942.383 296.662 941.384 296.662C940.406 296.662 939.493 296.555 938.677 296.34V300.873ZM954.79 287.445L954.64 298.617H952.835L952.685 287.445H954.79ZM953.737 303.129C952.985 303.129 952.341 302.506 952.362 301.732C952.341 300.98 952.985 300.357 953.737 300.357C954.489 300.357 955.112 300.98 955.112 301.732C955.112 302.506 954.489 303.129 953.737 303.129Z" fill="#222222"/>
<path d="M690.597 215.662V221.441H693.454V222.859H690.597V229.24H688.899V215.662H690.597ZM685.505 228.596C685.505 231.109 688.491 232.871 691.95 233.344L691.306 234.654C688.405 234.192 685.773 232.936 684.646 230.895C683.507 232.936 680.864 234.192 677.964 234.654L677.341 233.344C680.8 232.871 683.786 231.109 683.786 228.596V227.951H685.505V228.596ZM675.665 225.459C677.158 225.459 678.898 225.448 680.714 225.373V223.59C678.351 223.343 676.782 221.957 676.804 220.002C676.782 217.854 678.716 216.414 681.509 216.393C684.302 216.414 686.235 217.854 686.235 220.002C686.235 221.925 684.71 223.3 682.411 223.568V225.309C684.205 225.212 686.01 225.062 687.675 224.814L687.804 226.018C683.765 226.748 679.188 226.812 675.88 226.812L675.665 225.459ZM681.509 217.682C679.661 217.682 678.372 218.605 678.372 220.002C678.372 221.398 679.661 222.344 681.509 222.344C683.356 222.344 684.646 221.398 684.646 220.002C684.646 218.605 683.356 217.682 681.509 217.682ZM712.188 230.873V232.291H694.7V230.873H712.188ZM704.282 220.109C704.282 223.268 707.44 225.652 711.071 226.297L710.384 227.672C707.365 227.06 704.615 225.405 703.423 222.902C702.209 225.405 699.459 227.06 696.44 227.672L695.774 226.297C699.384 225.652 702.563 223.268 702.563 220.109H696.333V218.734H702.585V216.113H704.239V218.734H710.513V220.109H704.282ZM729.032 217.574V219.486C729.011 221.828 729.011 224.449 728.323 228.295L726.604 228.102C727.335 224.449 727.335 221.764 727.335 219.486V218.971H715.562V217.574H729.032ZM731.116 230.637V232.033H713.714V230.637H720.546V223.805H722.2V230.637H731.116ZM748.497 215.662V227.027H746.821V215.662H748.497ZM742.116 227.414C746.091 227.414 748.54 228.746 748.562 231.045C748.54 233.365 746.091 234.697 742.116 234.697C738.099 234.697 735.671 233.365 735.671 231.045C735.671 228.746 738.099 227.414 742.116 227.414ZM742.116 228.746C739.151 228.746 737.368 229.605 737.368 231.045C737.368 232.484 739.151 233.344 742.116 233.344C745.06 233.344 746.886 232.484 746.886 231.045C746.886 229.605 745.06 228.746 742.116 228.746ZM738.185 216.865C741.085 216.887 743.19 218.691 743.19 221.334C743.19 223.977 741.085 225.76 738.185 225.781C735.284 225.76 733.179 223.977 733.179 221.334C733.179 218.691 735.284 216.887 738.185 216.865ZM738.185 218.326C736.229 218.305 734.812 219.529 734.833 221.334C734.812 223.117 736.229 224.342 738.185 224.363C740.118 224.342 741.536 223.117 741.536 221.334C741.536 219.529 740.118 218.305 738.185 218.326ZM769.144 225.824V227.221H751.741V225.824H759.604V223.826C755.941 223.644 753.675 222.258 753.675 220.002C753.675 217.66 756.296 216.221 760.442 216.221C764.546 216.221 767.188 217.66 767.188 220.002C767.188 222.258 764.9 223.644 761.28 223.826V225.824H769.144ZM767.21 232.914V234.332H753.997V228.768H755.694V232.914H767.21ZM760.442 217.596C757.37 217.596 755.394 218.541 755.415 220.002C755.394 221.549 757.37 222.451 760.442 222.451C763.493 222.451 765.47 221.549 765.47 220.002C765.47 218.541 763.493 217.596 760.442 217.596ZM781.347 217.768V218.756C781.325 220.26 781.325 222.795 780.788 226.34L779.091 226.189C779.606 222.988 779.649 220.668 779.649 219.143H771.636V217.768H781.347ZM776.341 223.225V229.025C778.457 228.95 780.627 228.811 782.614 228.574L782.7 229.842C778.683 230.465 774.192 230.551 770.776 230.529L770.562 229.133C771.818 229.122 773.215 229.111 774.687 229.068V223.225H776.341ZM785.493 215.641V223.633H788.587V225.094H785.493V234.74H783.817V215.641H785.493ZM810.222 215.641V220.732H813.101V222.172H810.222V227.156H808.546V215.641H810.222ZM810.222 228.252V234.482H798.169V228.252H810.222ZM799.823 229.605V233.107H808.546V229.605H799.823ZM806.72 217.682V219.078H795.333V217.682H800.188V215.49H801.864V217.682H806.72ZM801.026 220.023C803.776 220.023 805.603 221.377 805.624 223.418C805.603 225.502 803.776 226.834 801.026 226.834C798.255 226.834 796.407 225.502 796.429 223.418C796.407 221.377 798.255 220.023 801.026 220.023ZM801.026 221.334C799.222 221.334 798.019 222.172 798.04 223.418C798.019 224.729 799.222 225.523 801.026 225.545C802.81 225.523 804.013 224.729 804.034 223.418C804.013 222.172 802.81 221.334 801.026 221.334ZM819.052 217.961C819.03 221.979 818.472 226.49 815.679 230.186L814.347 229.412C816.742 226.415 817.451 222.881 817.591 219.357H814.733V217.961H819.052ZM823.284 217.961C823.273 219.519 823.241 221.312 823.005 223.16H825.54V216.156H827.151V233.773H825.54V224.557H822.79C822.35 226.941 821.512 229.358 819.954 231.453L818.644 230.658C821.286 227.285 821.727 222.924 821.802 219.357H819.653V217.961H823.284ZM830.739 215.641V234.74H829.106V215.641H830.739ZM844.511 221.076C844.511 224.105 845.993 227.393 848.528 228.896L847.562 230.207C845.725 229.09 844.403 227.049 843.737 224.729C843.028 227.264 841.61 229.444 839.698 230.615L838.624 229.348C841.267 227.801 842.878 224.406 842.878 221.141V217.445H844.511V221.076ZM855.21 215.641V234.74H853.577V215.641H855.21ZM851.257 216.049V233.773H849.667V223.934H846.423V222.494H849.667V216.049H851.257ZM874.202 215.641V234.74H872.591V215.641H874.202ZM870.335 216.156V233.773H868.724V227.156H865.179V225.76H868.724V222.365H865.501C864.566 225.599 862.472 228.456 858.862 230.615L857.831 229.391C861.988 226.931 864.072 223.482 864.405 219.486H858.69V218.09H866.081C866.081 219.067 865.995 220.034 865.823 220.969H868.724V216.156H870.335ZM894.333 224.514V225.846H876.845V224.514H894.333ZM892.142 227.371V231.432H880.669V233.258H892.765V234.482H878.972V230.271H890.466V228.639H878.95V227.371H892.142ZM892.077 216.221V220.174H880.798V221.85H892.421V223.074H879.122V219.014H890.38V217.445H879.058V216.221H892.077ZM911.091 216.822V218.24H903.979V220.625H910.726V222.021H903.979V224.557C907.696 224.578 909.834 224.503 912.337 224.02L912.53 225.395C909.888 225.867 907.696 225.932 903.743 225.91H902.304V216.822H911.091ZM916.333 227.887V234.482H904.28V227.887H916.333ZM905.935 229.24V233.107H914.657V229.24H905.935ZM916.333 215.641V220.389H919.212V221.828H916.333V226.898H914.657V215.641H916.333ZM936.249 215.641V227.221H934.552V222.859H931.308V221.463H934.552V215.641H936.249ZM936.249 228.252V234.482H923.767V228.252H936.249ZM925.442 229.605V233.107H934.595V229.605H925.442ZM931.587 217.66V219.035H920.437V217.66H925.185V215.469H926.839V217.66H931.587ZM926.001 220.023C928.601 220.023 930.427 221.42 930.448 223.418C930.427 225.48 928.601 226.834 926.001 226.834C923.401 226.834 921.575 225.48 921.575 223.418C921.575 221.42 923.401 220.023 926.001 220.023ZM926.001 221.334C924.347 221.334 923.187 222.193 923.187 223.418C923.187 224.686 924.347 225.523 926.001 225.545C927.655 225.523 928.815 224.686 928.815 223.418C928.815 222.193 927.655 221.334 926.001 221.334ZM948.968 218.949V220.324H939.386V218.949H943.36V216.221H945.036V218.949H948.968ZM944.177 221.613C946.583 221.613 948.302 223.418 948.323 225.953C948.302 228.51 946.583 230.336 944.177 230.336C941.792 230.336 940.073 228.51 940.073 225.953C940.073 223.418 941.792 221.613 944.177 221.613ZM944.177 223.031C942.673 223.053 941.577 224.277 941.577 225.953C941.577 227.65 942.673 228.875 944.177 228.854C945.702 228.875 946.819 227.65 946.819 225.953C946.819 224.277 945.702 223.053 944.177 223.031ZM955.692 215.641V234.74H954.081V225.094H951.546V233.795H949.956V216.113H951.546V223.697H954.081V215.641H955.692ZM966.692 217.23V220.152H972.901V217.23H974.577V225.824H970.646V229.24C972.407 229.176 974.18 229.047 975.823 228.832L975.931 230.1C971.892 230.744 967.358 230.809 964.007 230.83L963.728 229.391C965.285 229.38 967.079 229.369 968.948 229.305V225.824H965.017V217.23H966.692ZM966.692 224.449H972.901V221.463H966.692V224.449ZM978.724 215.641V223.676H981.839V225.094H978.724V234.74H977.048V215.641H978.724ZM1000.47 230.873V232.291H982.978V230.873H987.317V225.717C985.685 224.868 984.696 223.493 984.696 221.764C984.696 218.799 987.597 216.865 991.679 216.844C995.761 216.865 998.661 218.799 998.661 221.764C998.661 223.461 997.705 224.825 996.126 225.674V230.873H1000.47ZM991.679 218.24C988.542 218.219 986.329 219.637 986.329 221.764C986.329 223.891 988.542 225.33 991.679 225.33C994.794 225.33 997.028 223.891 997.028 221.764C997.028 219.637 994.794 218.219 991.679 218.24ZM988.972 230.873H994.429V226.318C993.602 226.544 992.678 226.662 991.679 226.662C990.701 226.662 989.788 226.555 988.972 226.34V230.873ZM1005.08 217.445L1004.93 228.617H1003.13L1002.98 217.445H1005.08ZM1004.03 233.129C1003.28 233.129 1002.64 232.506 1002.66 231.732C1002.64 230.98 1003.28 230.357 1004.03 230.357C1004.78 230.357 1005.41 230.98 1005.41 231.732C1005.41 232.506 1004.78 233.129 1004.03 233.129Z" fill="#222222"/>
<path d="M739.919 152.38L742.092 145.324H744.948L743.776 152.38H739.919ZM745.607 152.38L747.78 145.324H750.637L749.465 152.38H745.607ZM777.37 142.932V156.945H774.025V151.159H772.634V156.213H769.338V143.347H772.634V148.303H774.025V142.932H777.37ZM768.776 145.129V147.839H757.937V145.129H761.623V143.151H765.114V145.129H768.776ZM763.381 148.449C766.237 148.449 768.312 150.036 768.312 152.38C768.312 154.699 766.237 156.286 763.381 156.286C760.598 156.286 758.522 154.699 758.522 152.38C758.522 150.036 760.598 148.449 763.381 148.449ZM763.381 150.964C762.355 150.939 761.672 151.452 761.672 152.38C761.672 153.308 762.355 153.82 763.381 153.82C764.431 153.82 765.139 153.308 765.139 152.38C765.139 151.452 764.431 150.939 763.381 150.964ZM769.631 157.092C774.514 157.092 777.468 158.605 777.492 161.218C777.468 163.854 774.514 165.368 769.631 165.344C764.797 165.368 761.794 163.854 761.818 161.218C761.794 158.605 764.797 157.092 769.631 157.092ZM769.631 159.704C766.75 159.704 765.31 160.168 765.334 161.218C765.31 162.243 766.75 162.707 769.631 162.707C772.561 162.707 773.928 162.243 773.952 161.218C773.928 160.168 772.561 159.704 769.631 159.704ZM800.148 153.356V156.115H779.665V153.356H788.186V151.672H782.106V143.908H797.731V146.643H785.622V148.913H797.829V151.672H791.652V153.356H800.148ZM789.846 157.067C794.729 157.067 797.658 158.557 797.658 161.242C797.658 163.879 794.729 165.393 789.846 165.393C784.938 165.393 781.96 163.879 781.96 161.242C781.96 158.557 784.938 157.067 789.846 157.067ZM789.846 159.729C786.892 159.729 785.524 160.217 785.549 161.242C785.524 162.292 786.892 162.707 789.846 162.707C792.727 162.707 794.143 162.292 794.143 161.242C794.143 160.217 792.727 159.729 789.846 159.729ZM814.016 144.885V147.692H812.16V157.116C812.978 157.055 813.784 156.97 814.553 156.872L814.724 159.387C810.207 160.217 805.153 160.314 801.345 160.314L800.979 157.482L803.371 157.458V147.692H801.54V144.885H814.016ZM819.045 142.932V151.33H822.219V154.162H819.045V165.344H815.529V142.932H819.045ZM806.765 157.385L808.791 157.336V147.692H806.765V157.385ZM846.779 152.819V155.578H840.407V160.021H848.952V162.878H828.469V160.021H836.94V155.578H830.812V144.445H846.633V147.229H834.328V152.819H846.779ZM860.891 144.47V151.843H854.396V154.016C857.192 153.991 859.243 153.857 861.501 153.454L861.892 156.286C859.035 156.774 856.496 156.848 852.639 156.848H850.881V149.255H857.351V147.253H850.881V144.47H860.891ZM869.045 142.956V159.509H865.554V154.089H862.111V151.281H865.554V149.011H862.111V146.228H865.554V142.956H869.045ZM869.582 162.121V164.978H853.884V158.215H857.375V162.121H869.582ZM890.48 142.932V155.456H886.989V142.932H890.48ZM876.442 144.226V151.623C879.738 151.586 882.46 151.354 885.28 150.744L885.671 153.576C882.302 154.309 878.981 154.553 874.904 154.577H872.927V144.226H876.442ZM890.48 156.335V165.075H875.393V156.335H890.48ZM878.835 159.069V162.341H887.038V159.069H878.835ZM905.715 144.86V147.619H893.361V144.86H897.951V142.736H901.467V144.86H905.715ZM899.66 148.254C902.761 148.254 905.031 149.987 905.056 152.478C905.031 154.968 902.761 156.652 899.66 156.652C896.56 156.652 894.362 154.968 894.362 152.478C894.362 149.987 896.56 148.254 899.66 148.254ZM899.66 150.866C898.439 150.866 897.634 151.403 897.634 152.478C897.634 153.552 898.439 154.064 899.66 154.064C900.905 154.064 901.784 153.552 901.784 152.478C901.784 151.403 900.905 150.866 899.66 150.866ZM912.258 142.932V157.141H908.767V155.017H905.983V152.209H908.767V150.5H906.057V147.692H908.767V142.932H912.258ZM904.592 157.434C909.377 157.434 912.355 158.898 912.38 161.389C912.355 163.854 909.377 165.368 904.592 165.344C899.782 165.368 896.779 163.854 896.779 161.389C896.779 158.898 899.782 157.434 904.592 157.434ZM904.592 160.07C901.906 160.095 900.49 160.461 900.49 161.389C900.49 162.292 901.906 162.707 904.592 162.707C907.204 162.707 908.596 162.292 908.596 161.389C908.596 160.461 907.204 160.095 904.592 160.07ZM920.461 152.38L922.634 145.324H925.49L924.318 152.38H920.461ZM926.149 152.38L928.322 145.324H931.179L930.007 152.38H926.149Z" fill="black"/>
<rect x="607" y="384" width="137" height="52" rx="10" fill="#C4C4C4"/>
<path d="M653.984 412.039V413.844H645.406V420.969H643.227V413.844H634.766V412.039H653.984ZM651.57 401.117V409.367H637.18V401.117H651.57ZM639.359 402.898V407.633H649.344V402.898H639.359ZM672.031 399.992V404.938H675.078V406.789H672.031V411.852H669.805V399.992H672.031ZM666.242 401.305C666.219 406.695 662.586 410.469 656.328 412.156L655.438 410.375C660.453 409.051 663.418 406.414 663.828 403.133H656.422V401.305H666.242ZM672.031 412.742V420.711H658.578V412.742H672.031ZM660.805 414.594V418.93H669.828V414.594H660.805ZM692.773 399.992V405.172H695.82V407.047H692.773V412.273H690.547V399.992H692.773ZM686.961 401.281C686.961 406.695 683.305 410.469 677.07 412.086L676.156 410.375C681.195 409.062 684.184 406.402 684.57 403.086H677.164V401.281H686.961ZM692.773 413.188V420.992H690.547V414.992H678.898V413.188H692.773ZM708.852 402.195V403.977H697.039V402.195H701.961V399.805H704.164V402.195H708.852ZM703.039 404.938C705.875 404.938 707.867 406.508 707.891 408.852C707.867 411.195 705.875 412.742 703.039 412.742C700.18 412.742 698.211 411.195 698.211 408.852C698.211 406.508 700.18 404.938 703.039 404.938ZM703.039 406.625C701.375 406.625 700.297 407.492 700.297 408.852C700.297 410.211 701.375 411.055 703.039 411.055C704.68 411.055 705.805 410.211 705.828 408.852C705.805 407.492 704.68 406.625 703.039 406.625ZM714.523 399.992V413.516H712.297V410.82H708.898V409.016H712.297V406.695H708.922V404.891H712.297V399.992H714.523ZM707.539 413.727C711.945 413.727 714.641 415.039 714.641 417.336C714.641 419.609 711.945 420.969 707.539 420.945C703.109 420.969 700.414 419.609 700.414 417.336C700.414 415.039 703.109 413.727 707.539 413.727ZM707.539 415.438C704.516 415.438 702.734 416.094 702.734 417.336C702.734 418.555 704.516 419.258 707.539 419.234C710.492 419.258 712.273 418.555 712.273 417.336C712.273 416.094 710.492 415.438 707.539 415.438Z" fill="white"/>
<rect x="937" y="384" width="137" height="52" rx="10" fill="#313131"/>
<path d="M981.805 409.672V411.453H975.453V416.586H984.008V418.414H964.789V416.586H973.25V411.453H967.18V401.609H981.617V403.414H969.406V409.672H981.805ZM997.555 402.148V403.977H995.398V413.75C996.441 413.691 997.461 413.586 998.445 413.469L998.562 415.086C994.156 415.812 989.211 415.883 985.531 415.906L985.273 414.055L987.945 414.031V403.977H985.789V402.148H997.555ZM1001.89 399.992V408.266H1005.27V410.094H1001.89V420.992H999.664V399.992H1001.89ZM990.102 413.984C991.133 413.973 992.188 413.938 993.242 413.891V403.977H990.102V413.984ZM1017.36 401.773V411.641H1007.38V401.773H1017.36ZM1009.55 403.578V409.859H1015.16V403.578H1009.55ZM1023.69 400.016V415.062H1021.46V400.016H1023.69ZM1024.32 418.531V420.359H1009.95V413.609H1012.2V418.531H1024.32ZM1038.85 402.195V403.977H1027.04V402.195H1031.96V399.805H1034.16V402.195H1038.85ZM1033.04 404.938C1035.88 404.938 1037.87 406.508 1037.89 408.852C1037.87 411.195 1035.88 412.742 1033.04 412.742C1030.18 412.742 1028.21 411.195 1028.21 408.852C1028.21 406.508 1030.18 404.938 1033.04 404.938ZM1033.04 406.625C1031.38 406.625 1030.3 407.492 1030.3 408.852C1030.3 410.211 1031.38 411.055 1033.04 411.055C1034.68 411.055 1035.8 410.211 1035.83 408.852C1035.8 407.492 1034.68 406.625 1033.04 406.625ZM1044.52 399.992V413.516H1042.3V410.82H1038.9V409.016H1042.3V406.695H1038.92V404.891H1042.3V399.992H1044.52ZM1037.54 413.727C1041.95 413.727 1044.64 415.039 1044.64 417.336C1044.64 419.609 1041.95 420.969 1037.54 420.945C1033.11 420.969 1030.41 419.609 1030.41 417.336C1030.41 415.039 1033.11 413.727 1037.54 413.727ZM1037.54 415.438C1034.52 415.438 1032.73 416.094 1032.73 417.336C1032.73 418.555 1034.52 419.258 1037.54 419.234C1040.49 419.258 1042.27 418.555 1042.27 417.336C1042.27 416.094 1040.49 415.438 1037.54 415.438Z" fill="white"/>
<rect x="772" y="384" width="137" height="52" rx="10" fill="#504F4F"/>
<path d="M827.176 409.672V411.453H820.824V416.586H829.379V418.414H810.16V416.586H818.621V411.453H812.551V401.609H826.988V403.414H814.777V409.672H827.176ZM848.41 400.016V415.391H846.184V407.492H842.176V405.688H846.184V400.016H848.41ZM848.973 418.742V420.547H834.77V414.008H836.996V418.742H848.973ZM838.426 404.258C838.426 406.883 840.324 409.508 843.488 410.562L842.34 412.344C839.984 411.512 838.238 409.824 837.324 407.75C836.41 410.059 834.57 411.922 832.074 412.812L830.926 411.008C834.16 409.906 836.152 407.141 836.152 404.258V403.438H831.605V401.609H842.926V403.438H838.426V404.258ZM863.48 402.195V403.977H851.668V402.195H856.59V399.805H858.793V402.195H863.48ZM857.668 404.938C860.504 404.938 862.496 406.508 862.52 408.852C862.496 411.195 860.504 412.742 857.668 412.742C854.809 412.742 852.84 411.195 852.84 408.852C852.84 406.508 854.809 404.938 857.668 404.938ZM857.668 406.625C856.004 406.625 854.926 407.492 854.926 408.852C854.926 410.211 856.004 411.055 857.668 411.055C859.309 411.055 860.434 410.211 860.457 408.852C860.434 407.492 859.309 406.625 857.668 406.625ZM869.152 399.992V413.516H866.926V410.82H863.527V409.016H866.926V406.695H863.551V404.891H866.926V399.992H869.152ZM862.168 413.727C866.574 413.727 869.27 415.039 869.27 417.336C869.27 419.609 866.574 420.969 862.168 420.945C857.738 420.969 855.043 419.609 855.043 417.336C855.043 415.039 857.738 413.727 862.168 413.727ZM862.168 415.438C859.145 415.438 857.363 416.094 857.363 417.336C857.363 418.555 859.145 419.258 862.168 419.234C865.121 419.258 866.902 418.555 866.902 417.336C866.902 416.094 865.121 415.438 862.168 415.438Z" fill="white"/>
<path d="M328.451 164.4V415.67H88.1309V102.42H269.581L328.451 164.4Z" fill="#D9D9D9" stroke="black" stroke-width="2" stroke-miterlimit="10"/>
<path d="M269.581 102.42C269.581 102.42 262.091 161.94 269.581 169.47C277.071 177 306.911 156.76 328.451 164.39" fill="#F4F4F4"/>
<path d="M269.581 102.42C269.581 102.42 262.091 161.94 269.581 169.47C277.071 177 306.911 156.76 328.451 164.39" stroke="black" stroke-width="2" stroke-miterlimit="10" stroke-linecap="round"/>
<path d="M108.949 162.53C108.949 162.53 135.339 150.28 142.879 153.11C150.419 155.94 157.019 165.36 159.839 167.25C162.669 169.13 182.459 181.39 182.459 181.39" stroke="black" stroke-width="2" stroke-miterlimit="10" stroke-linecap="round"/>
<path d="M257.85 174.779C257.85 174.779 288.01 150.279 298.37 150.279C308.73 150.279 313.45 157.819 313.45 157.819" stroke="black" stroke-width="2" stroke-miterlimit="10" stroke-linecap="round"/>
<path d="M246.539 216.239C246.539 216.239 262.869 199.279 289.419 198.329C289.419 198.329 279.209 193.619 275.129 193.619C271.049 193.619 256.749 201.159 254.709 203.989C252.669 206.819 246.539 216.239 246.539 216.239Z" fill="black" stroke="black" stroke-width="2" stroke-miterlimit="10" stroke-linecap="round"/>
<path d="M118.369 208.7C118.369 208.7 122.139 203.99 132.509 203.99C139.439 203.99 149.729 205.67 155.789 206.79C159.019 207.38 162.049 208.73 164.649 210.73L174.829 218.51C175.199 218.79 175.679 218.34 175.419 217.95L168.709 207.89C166.649 204.79 163.419 202.66 159.759 201.99L140.079 198.35C140.079 198.35 140.029 198.35 139.999 198.35C139.139 198.35 124.759 198.66 118.359 208.72L118.369 208.7Z" fill="black" stroke="black" stroke-width="2" stroke-miterlimit="10" stroke-linecap="round"/>
<path d="M233.35 243.571C233.35 243.571 239 242.631 239.95 247.341" stroke="black" stroke-width="2" stroke-miterlimit="10" stroke-linecap="round"/>
<path d="M259.729 283.151C259.729 283.151 253.129 287.861 238.049 286.921C222.969 285.981 187.159 284.771 182.449 283.961C177.739 283.151 164.539 276.551 159.829 269.011C155.119 261.471 150.409 261.471 148.519 261.471C146.629 261.471 144.749 290.881 145.689 295.031C146.629 299.171 154.169 311.421 158.879 313.311C163.589 315.201 182.439 315.191 189.979 318.021C197.519 320.851 214.479 318.961 216.369 316.141C218.259 313.321 241.529 290.451 241.529 290.451" fill="white"/>
<path d="M259.729 283.151C259.729 283.151 253.129 287.861 238.049 286.921C222.969 285.981 187.159 284.771 182.449 283.961C177.739 283.151 164.539 276.551 159.829 269.011C155.119 261.471 150.409 261.471 148.519 261.471C146.629 261.471 144.749 290.881 145.689 295.031C146.629 299.171 154.169 311.421 158.879 313.311C163.589 315.201 182.439 315.191 189.979 318.021C197.519 320.851 214.479 318.961 216.369 316.141C218.259 313.321 241.529 290.451 241.529 290.451" stroke="black" stroke-width="2" stroke-miterlimit="10" stroke-linecap="round"/>
<path d="M200.76 357.307C200.76 357.307 177.31 344.017 174.18 351.057C171.05 358.097 170.27 375.297 173.4 376.077C176.53 376.857 196.85 369.077 200.76 370.227" fill="black"/>
<path d="M200.76 357.307C200.76 357.307 177.31 344.017 174.18 351.057C171.05 358.097 170.27 375.297 173.4 376.077C176.53 376.857 196.85 369.077 200.76 370.227" stroke="black" stroke-width="2" stroke-miterlimit="10" stroke-linecap="round"/>
<path d="M215.189 357.307C215.189 357.307 238.639 344.017 241.769 351.057C244.899 358.097 245.679 375.297 242.549 376.077C239.419 376.857 219.099 369.077 215.189 370.227" fill="black"/>
<path d="M215.189 357.307C215.189 357.307 238.639 344.017 241.769 351.057C244.899 358.097 245.679 375.297 242.549 376.077C239.419 376.857 219.099 369.077 215.189 370.227" stroke="black" stroke-width="2" stroke-miterlimit="10" stroke-linecap="round"/>
<path d="M212.16 356.518H203.43C201.955 356.518 200.76 357.713 200.76 359.188V369.488C200.76 370.962 201.955 372.158 203.43 372.158H212.16C213.634 372.158 214.83 370.962 214.83 369.488V359.188C214.83 357.713 213.634 356.518 212.16 356.518Z" fill="black" stroke="black" stroke-width="2" stroke-miterlimit="10" stroke-linecap="round"/>
<path d="M97.9492 299.27L117.649 415.77H135.329L106.239 299.27H97.9492Z" fill="black" stroke="black" stroke-width="2" stroke-miterlimit="10" stroke-linecap="round"/>
<path d="M318.65 299.27L298.95 415.77H281.27L310.36 299.27H318.65Z" fill="black" stroke="black" stroke-width="2" stroke-miterlimit="10" stroke-linecap="round"/>
<path d="M86.9355 307L52.3055 344.01C44.9355 351.89 45.2855 364.24 53.0955 371.69L83.9255 401.08C85.3355 402.43 87.6155 401.01 87.0255 399.15L77.8255 370.02C76.5855 366.09 77.6255 361.79 80.5155 358.85L87.2455 352.04" fill="#D9D9D9"/>
<path d="M86.9355 307L52.3055 344.01C44.9355 351.89 45.2855 364.24 53.0955 371.69L83.9255 401.08C85.3355 402.43 87.6155 401.01 87.0255 399.15L77.8255 370.02C76.5855 366.09 77.6255 361.79 80.5155 358.85L87.2455 352.04" stroke="black" stroke-width="2" stroke-miterlimit="10" stroke-linecap="round"/>
<path d="M88.0195 368.17H328.45" stroke="black" stroke-width="2" stroke-miterlimit="10" stroke-linecap="round"/>
<path d="M88.0195 376.17H328.45" stroke="black" stroke-width="2" stroke-miterlimit="10" stroke-linecap="round"/>
<path d="M88.0195 384.17H328.45" stroke="black" stroke-width="2" stroke-miterlimit="10" stroke-linecap="round"/>
<path d="M88.0195 392.17H328.45" stroke="black" stroke-width="2" stroke-miterlimit="10" stroke-linecap="round"/>
<path d="M88.0195 400.17H328.45" stroke="black" stroke-width="2" stroke-miterlimit="10" stroke-linecap="round"/>
<path d="M88.0195 408.17H328.45" stroke="black" stroke-width="2" stroke-miterlimit="10" stroke-linecap="round"/>
<path d="M350.15 286.32C350.15 286.32 362.2 194.66 369.99 184.92C370.33 184.5 370.85 184.27 371.39 184.27H375.44C376.52 184.27 377.37 185.21 377.26 186.28L373.57 222.98L385.53 214.05C386.11 213.61 386.94 214.03 386.94 214.76V218.38C386.94 218.58 386.87 218.77 386.75 218.92C384.95 221.24 370.6 239.74 369.69 244.28C368.72 249.12 360.82 280.3 360.82 280.3" fill="#969696"/>
<path d="M350.15 286.32C350.15 286.32 362.2 194.66 369.99 184.92C370.33 184.5 370.85 184.27 371.39 184.27H375.44C376.52 184.27 377.37 185.21 377.26 186.28L373.57 222.98L385.53 214.05C386.11 213.61 386.94 214.03 386.94 214.76V218.38C386.94 218.58 386.87 218.77 386.75 218.92C384.95 221.24 370.6 239.74 369.69 244.28C368.72 249.12 360.82 280.3 360.82 280.3" stroke="black" stroke-width="2" stroke-miterlimit="10" stroke-linecap="round"/>
<path d="M350.949 323.271V339.371C350.949 340.271 351.829 340.901 352.679 340.611L357.919 338.841C358.439 338.661 358.799 338.181 358.809 337.621C358.899 332.741 359.389 309.891 360.939 306.061" fill="#969696"/>
<path d="M350.949 323.271V339.371C350.949 340.271 351.829 340.901 352.679 340.611L357.919 338.841C358.439 338.661 358.799 338.181 358.809 337.621C358.899 332.741 359.389 309.891 360.939 306.061" stroke="black" stroke-width="2" stroke-miterlimit="10" stroke-linecap="round"/>
<path d="M307.949 101.269L325.519 50.3194C326.599 47.1994 330.659 46.4194 332.809 48.9294L337.899 54.8694C339.119 56.2994 339.269 58.3594 338.259 59.9394L306.949 109.269" fill="white"/>
<path d="M307.949 101.269L325.519 50.3194C326.599 47.1994 330.659 46.4194 332.809 48.9294L337.899 54.8694C339.119 56.2994 339.269 58.3594 338.259 59.9394L306.949 109.269" stroke="black" stroke-width="2" stroke-miterlimit="10" stroke-linecap="round"/>
<path d="M314.949 116.269L326.489 105.369C329.089 102.909 333.389 104.549 333.679 108.119C333.839 109.989 332.749 111.749 331.009 112.439L318.939 117.269" fill="#EDECEC"/>
<path d="M314.949 116.269L326.489 105.369C329.089 102.909 333.389 104.549 333.679 108.119C333.839 109.989 332.749 111.749 331.009 112.439L318.939 117.269" stroke="black" stroke-width="2" stroke-miterlimit="10" stroke-linecap="round"/>
<path d="M67.4525 109.771L55.9126 98.8712C53.3126 96.4112 49.0126 98.0512 48.7226 101.621C48.5626 103.491 49.6526 105.251 51.3926 105.941L63.4626 110.771" fill="#EDECEC"/>
<path d="M67.4525 109.771L55.9126 98.8712C53.3126 96.4112 49.0126 98.0512 48.7226 101.621C48.5626 103.491 49.6526 105.251 51.3926 105.941L63.4626 110.771" stroke="black" stroke-width="2" stroke-miterlimit="10" stroke-linecap="round"/>
<path d="M93.4522 78.7715L61.0122 44.4715C59.5422 42.9215 59.4522 40.5315 60.7822 38.8615L69.8422 27.5315C71.8922 24.9615 75.9522 25.5815 77.1622 28.6415L93.4622 70.0715" fill="#EDECEC"/>
<path d="M93.4522 78.7715L61.0122 44.4715C59.5422 42.9215 59.4522 40.5315 60.7822 38.8615L69.8422 27.5315C71.8922 24.9615 75.9522 25.5815 77.1622 28.6415L93.4622 70.0715" stroke="black" stroke-width="2" stroke-miterlimit="10" stroke-linecap="round"/>
<path d="M47.2618 71.1219L2.44181 31.5419C1.22181 30.4619 0.721815 28.7819 1.15181 27.2119L7.44181 4.15188C8.32182 0.931881 12.3918 -0.0881186 14.6818 2.35188L38.8818 28.1719C39.2518 28.5719 39.5518 29.0319 39.7518 29.5419L54.0718 66.3619C55.6918 70.5419 50.6218 74.0819 47.2618 71.1119V71.1219Z" fill="white" stroke="black" stroke-width="2" stroke-miterlimit="10" stroke-linecap="round"/>
<path d="M328.949 301.08C328.949 301.08 366.049 273.26 371.949 278.32C377.849 283.38 329.799 353.78 328.949 364.53" fill="#D9D9D9"/>
<path d="M328.949 301.08C328.949 301.08 366.049 273.26 371.949 278.32C377.849 283.38 329.799 353.78 328.949 364.53" stroke="black" stroke-width="2" stroke-miterlimit="10" stroke-linecap="round"/>
<path d="M270 102.5L328 164" stroke="black" stroke-width="2"/>
<path d="M87 299H107" stroke="black" stroke-width="2"/>
<path d="M310 299H329" stroke="black" stroke-width="2"/>
<defs>
<filter id="filter0_d_1091_5" x="455.338" y="39" width="708.554" height="479" filterUnits="userSpaceOnUse" color-interpolation-filters="sRGB">
<feFlood flood-opacity="0" result="BackgroundImageFix"/>
<feColorMatrix in="SourceAlpha" type="matrix" values="0 0 0 0 0 0 0 0 0 0 0 0 0 0 0 0 0 0 127 0" result="hardAlpha"/>
<feOffset dy="4"/>
<feGaussianBlur stdDeviation="2"/>
<feComposite in2="hardAlpha" operator="out"/>
<feColorMatrix type="matrix" values="0 0 0 0 0 0 0 0 0 0 0 0 0 0 0 0 0 0 0.25 0"/>
<feBlend mode="normal" in2="BackgroundImageFix" result="effect1_dropShadow_1091_5"/>
<feBlend mode="normal" in="SourceGraphic" in2="effect1_dropShadow_1091_5" result="shape"/>
</filter>
</defs>
</svg>
