<svg width="1126" height="560" viewBox="0 0 1126 560" fill="none" xmlns="http://www.w3.org/2000/svg">
<path d="M22.4893 456.918V463.363H25.9756V466.762H22.4893V473.031H18.2705V456.918H22.4893ZM22.4893 474.145V483.812H18.2705V477.484H4.2373V474.145H22.4893ZM5.93652 458.617V461.986H10.7119V458.617H14.9307V471.771H1.77637V458.617H5.93652ZM5.93652 468.461H10.7119V465.238H5.93652V468.461ZM37.167 462.631C37.167 467.494 38.8662 472.328 43.3193 474.496L40.7998 477.836C37.9873 476.474 36.1416 473.998 35.0869 470.951C33.915 474.247 31.9375 476.898 28.9346 478.363L26.3564 474.936C31.1025 472.797 32.9482 467.67 32.9482 462.631V458.91H37.167V462.631ZM48.3291 456.918V467.113H52.1377V470.658H48.3291V483.812H44.1104V456.918H48.3291ZM74.2568 456.918V467.025H77.8604V470.482H74.2568V483.725H70.0381V456.918H74.2568ZM66.9912 459.613C66.9912 467.787 64.0029 474.76 54.8623 479.242L52.4893 476.02C58.6562 472.929 61.9668 468.915 62.7139 463.07H54.1006V459.613H66.9912ZM96.6982 458.061V459.789C96.6982 461.591 96.6982 463.949 95.8486 467.025H102.353C102.968 464.726 103.114 462.953 103.173 461.4H98.2217V458.061H107.245V459.877C107.216 461.796 107.216 464.11 106.571 467.025H110.058V470.424H99.833V473.559H107.04V483.49H88.4951V473.559H95.6436V470.424H85.5654V467.025H91.6006C92.2891 464.682 92.4941 462.895 92.5674 461.4H87.7041V458.061H96.6982ZM92.6553 476.811V480.209H102.851V476.811H92.6553ZM134.081 456.947V476.166H129.862V456.947H134.081ZM134.755 480.004V483.373H115.858V474.232H120.136V480.004H134.755ZM119.286 458.617C123.446 458.617 126.728 461.488 126.728 465.443C126.728 469.486 123.446 472.328 119.286 472.328C115.126 472.328 111.815 469.486 111.845 465.443C111.815 461.488 115.126 458.617 119.286 458.617ZM119.286 462.279C117.382 462.25 115.946 463.422 115.946 465.443C115.946 467.553 117.382 468.666 119.286 468.666C121.103 468.666 122.538 467.553 122.538 465.443C122.538 463.422 121.103 462.25 119.286 462.279ZM165.546 456.947V465.004H169.032V468.432H165.546V477.016H161.327V456.947H165.546ZM160.038 459.643V462.924H144.101V459.643H149.96V456.918H154.179V459.643H160.038ZM152.069 463.686C155.995 463.686 158.749 465.824 158.749 468.959C158.749 472.064 155.995 474.145 152.069 474.145C148.144 474.145 145.331 472.064 145.36 468.959C145.331 465.824 148.144 463.686 152.069 463.686ZM152.069 466.908C150.517 466.908 149.462 467.611 149.462 468.959C149.462 470.307 150.517 470.951 152.069 470.98C153.651 470.951 154.735 470.307 154.735 468.959C154.735 467.611 153.651 466.908 152.069 466.908ZM166.425 480.004V483.373H147.909V475.463H152.128V480.004H166.425ZM194.608 471.83V475.258H184.325V483.842H180.136V475.258H170.028V471.83H194.608ZM182.245 457.768C188.046 457.768 192.147 460.17 192.147 463.92C192.147 467.611 188.046 469.955 182.245 469.955C176.444 469.955 172.372 467.611 172.401 463.92C172.372 460.17 176.444 457.768 182.245 457.768ZM182.245 461.107C178.817 461.137 176.737 462.074 176.737 463.92C176.737 465.707 178.817 466.645 182.245 466.645C185.702 466.645 187.782 465.707 187.782 463.92C187.782 462.074 185.702 461.137 182.245 461.107ZM220.507 467.377V470.688H210.312V472.094H217.577V479.271H202.929V480.502H218.222V483.666H198.769V476.312H213.388V475.258H198.769V472.094H206.063V470.688H195.985V467.377H220.507ZM217.431 457.68V466.234H198.974V457.68H217.431ZM203.104 460.932V463.012H213.212V460.932H203.104ZM233.954 458.471V461.811H238.524V458.471H242.685V463.158H247.196V456.918H251.386V472.504H247.196V466.586H242.685V471.449H229.706V458.471H233.954ZM233.954 468.109H238.524V465.092H233.954V468.109ZM251.386 473.471V483.52H233.163V473.471H251.386ZM237.411 476.811V480.15H247.284V476.811H237.411ZM263.339 461.547C263.31 464.359 264.599 467.099 267.997 468.52V457.416H271.894V463.305H273.71V456.947H277.724V473.354H273.71V466.703H271.894V472.504H267.997V468.959L266.005 471.859C263.808 471.01 262.299 469.53 261.347 467.67C260.38 469.896 258.754 471.742 256.308 472.738L254.052 469.486C257.89 467.787 259.208 464.535 259.208 461.547V458.559H263.339V461.547ZM268.437 473.617C274.149 473.617 277.841 475.551 277.87 478.715C277.841 481.879 274.149 483.842 268.437 483.812C262.724 483.842 259.032 481.879 259.062 478.715C259.032 475.551 262.724 473.617 268.437 473.617ZM268.437 476.781C265.126 476.752 263.251 477.396 263.28 478.715C263.251 480.033 265.126 480.648 268.437 480.648C271.747 480.648 273.593 480.033 273.622 478.715C273.593 477.396 271.747 476.752 268.437 476.781ZM303.065 456.918V483.871H298.817V456.918H303.065ZM288.388 458.764C292.46 458.764 295.507 462.484 295.536 468.373C295.507 474.35 292.46 478.07 288.388 478.07C284.228 478.07 281.181 474.35 281.181 468.373C281.181 462.484 284.228 458.764 288.388 458.764ZM288.388 462.572C286.483 462.572 285.253 464.535 285.282 468.373C285.253 472.27 286.483 474.232 288.388 474.232C290.233 474.232 291.464 472.27 291.464 468.373C291.464 464.535 290.233 462.572 288.388 462.572ZM321.317 459.232V462.543H306.493V459.232H312.001V456.684H316.22V459.232H321.317ZM314.052 463.305C317.772 463.305 320.497 465.385 320.526 468.373C320.497 471.361 317.772 473.383 314.052 473.383C310.331 473.383 307.694 471.361 307.694 468.373C307.694 465.385 310.331 463.305 314.052 463.305ZM314.052 466.439C312.587 466.439 311.62 467.084 311.62 468.373C311.62 469.662 312.587 470.277 314.052 470.277C315.546 470.277 316.601 469.662 316.601 468.373C316.601 467.084 315.546 466.439 314.052 466.439ZM329.169 456.918V473.969H324.979V471.42H321.64V468.051H324.979V466H321.728V462.631H324.979V456.918H329.169ZM319.97 474.32C325.712 474.32 329.286 476.078 329.315 479.066C329.286 482.025 325.712 483.842 319.97 483.812C314.198 483.842 310.595 482.025 310.595 479.066C310.595 476.078 314.198 474.32 319.97 474.32ZM319.97 477.484C316.747 477.514 315.048 477.953 315.048 479.066C315.048 480.15 316.747 480.648 319.97 480.648C323.104 480.648 324.774 480.15 324.774 479.066C324.774 477.953 323.104 477.514 319.97 477.484Z" fill="#222222"/>
<path d="M272.318 159.276V396.002H45.9126V100.895H216.856L272.318 159.276Z" fill="#D9D9D9" stroke="black" stroke-width="2" stroke-miterlimit="10"/>
<path d="M45.9126 314.764C45.9126 314.764 41.2596 329.644 31.8754 330.034C22.4913 330.425 10 321.056 10 325.74C10 330.425 27.1756 358.53 36.5441 363.214C45.9126 367.899 45.9126 361.013 45.9126 361.013" fill="#D9D9D9"/>
<path d="M45.9126 314.764C45.9126 314.764 41.2596 329.644 31.8754 330.034C22.4913 330.425 10 321.056 10 325.74C10 330.425 27.1756 358.53 36.5441 363.214C45.9126 367.899 45.9126 361.013 45.9126 361.013" stroke="black" stroke-width="2" stroke-miterlimit="10"/>
<path d="M209.86 74.3516H84.9468V99.3342H209.86V74.3516Z" fill="#FEFEFE" stroke="black" stroke-width="2" stroke-miterlimit="10"/>
<path d="M109.696 57.1758H221.806C222.977 57.1758 223.913 58.1282 223.913 59.2837V72.181C223.913 73.3833 222.945 74.3514 221.743 74.3514H108.603C104.168 74.3514 100.562 70.7445 100.562 66.3101C100.562 61.2667 104.652 57.1758 109.696 57.1758Z" fill="#969696" stroke="black" stroke-width="2" stroke-miterlimit="10"/>
<path d="M199.9 40H94.9101C93.7201 40 92.7554 40.9647 92.7554 42.1548V55.0208C92.7554 56.2109 93.7201 57.1756 94.9101 57.1756H199.9C201.09 57.1756 202.055 56.2109 202.055 55.0208V42.1548C202.055 40.9647 201.09 40 199.9 40Z" fill="#EBEBEB" stroke="black" stroke-width="2" stroke-miterlimit="10"/>
<path d="M118.519 49.3691H202.055" stroke="black" stroke-width="2" stroke-miterlimit="10" stroke-linecap="round"/>
<path d="M118.519 54.0527H202.055" stroke="black" stroke-width="2" stroke-miterlimit="10" stroke-linecap="round"/>
<path d="M118.519 44.6836H202.055" stroke="black" stroke-width="2" stroke-miterlimit="10" stroke-linecap="round"/>
<path d="M131.01 66.5449H223.915" stroke="black" stroke-width="2" stroke-miterlimit="10" stroke-linecap="round"/>
<path d="M131.01 71.2285H223.915" stroke="black" stroke-width="2" stroke-miterlimit="10" stroke-linecap="round"/>
<path d="M131.01 61.8594H223.915" stroke="black" stroke-width="2" stroke-miterlimit="10" stroke-linecap="round"/>
<path d="M116.956 85.2812H209.86" stroke="black" stroke-width="2" stroke-miterlimit="10" stroke-linecap="round"/>
<path d="M116.956 89.9648H209.86" stroke="black" stroke-width="2" stroke-miterlimit="10" stroke-linecap="round"/>
<path d="M116.956 94.6484H209.86" stroke="black" stroke-width="2" stroke-miterlimit="10" stroke-linecap="round"/>
<path d="M116.956 80.5977H209.86" stroke="black" stroke-width="2" stroke-miterlimit="10" stroke-linecap="round"/>
<path d="M111.882 240.643C132.794 240.643 149.746 223.69 149.746 202.778C149.746 181.867 132.794 164.914 111.882 164.914C90.97 164.914 74.0176 181.867 74.0176 202.778C74.0176 223.69 90.97 240.643 111.882 240.643Z" stroke="black" stroke-width="6" stroke-miterlimit="10" stroke-linecap="round"/>
<path d="M207.129 240.643C228.04 240.643 244.993 223.69 244.993 202.778C244.993 181.867 228.04 164.914 207.129 164.914C186.217 164.914 169.264 181.867 169.264 202.778C169.264 223.69 186.217 240.643 207.129 240.643Z" stroke="black" stroke-width="6" stroke-miterlimit="10" stroke-linecap="round"/>
<path d="M149.748 202.777V207.852H168.485V200.045H149.748V202.777Z" fill="black"/>
<path d="M216.856 100.895C216.856 100.895 209.799 156.965 216.856 164.069C223.914 171.174 252.02 152.093 272.318 159.292" fill="#F4F4F4"/>
<path d="M216.856 100.895C216.856 100.895 209.799 156.965 216.856 164.069C223.914 171.174 252.02 152.093 272.318 159.292" stroke="black" stroke-width="2" stroke-miterlimit="10" stroke-linecap="round"/>
<path d="M105.762 133.279C105.762 133.279 113.054 125.878 123.984 129.001" stroke="black" stroke-width="2" stroke-miterlimit="10" stroke-linecap="round"/>
<path d="M192.341 128.235C192.341 128.235 200.57 123.145 210.672 130.765" stroke="black" stroke-width="2" stroke-miterlimit="10" stroke-linecap="round"/>
<path d="M181.755 257.037C181.755 257.037 122.421 249.23 125.544 267.967C128.667 286.704 177.071 269.528 181.755 257.037Z" fill="white" stroke="black" stroke-width="2" stroke-miterlimit="10" stroke-linecap="round"/>
<path d="M140.598 349.316L145.469 361.48C146.64 364.4 149.466 366.32 152.621 366.32H166.611C169.64 366.32 172.404 364.54 173.637 361.761L178.962 349.863" fill="black"/>
<path d="M140.598 349.316L145.469 361.48C146.64 364.4 149.466 366.32 152.621 366.32H166.611C169.64 366.32 172.404 364.54 173.637 361.761L178.962 349.863" stroke="black" stroke-width="2" stroke-miterlimit="10" stroke-linecap="round"/>
<path d="M88.8508 261.72C95.3184 261.72 100.561 260.322 100.561 258.597C100.561 256.873 95.3184 255.475 88.8508 255.475C82.3832 255.475 77.1401 256.873 77.1401 258.597C77.1401 260.322 82.3832 261.72 88.8508 261.72Z" fill="white"/>
<path d="M227.816 261.72C234.284 261.72 239.527 260.322 239.527 258.597C239.527 256.873 234.284 255.475 227.816 255.475C221.348 255.475 216.105 256.873 216.105 258.597C216.105 260.322 221.348 261.72 227.816 261.72Z" fill="white"/>
<path d="M272.318 265.844C272.318 265.844 275.441 288.266 283.248 282.02C288.463 277.851 295.068 265.313 298.893 257.443C299.861 255.445 302.875 255.991 303.062 258.208C304.249 272.448 302.812 304.988 272.333 336.654" fill="#D9D9D9"/>
<path d="M272.318 265.844C272.318 265.844 275.441 288.266 283.248 282.02C288.463 277.851 295.068 265.313 298.893 257.443C299.861 255.445 302.875 255.991 303.062 258.208C304.249 272.448 302.812 304.988 272.333 336.654" stroke="black" stroke-width="2" stroke-miterlimit="10" stroke-linecap="round"/>
<path d="M113.053 224.248C119.952 224.248 125.544 214.111 125.544 201.607C125.544 189.103 119.952 178.967 113.053 178.967C106.154 178.967 100.562 189.103 100.562 201.607C100.562 214.111 106.154 224.248 113.053 224.248Z" fill="black"/>
<path d="M207.518 225.027C214.417 225.027 220.01 214.891 220.01 202.387C220.01 189.883 214.417 179.746 207.518 179.746C200.619 179.746 195.027 189.883 195.027 202.387C195.027 214.891 200.619 225.027 207.518 225.027Z" fill="black"/>
<path d="M158.741 341.728L48.2549 301.771L61.6987 321.742L92.443 328.893L117.597 358.966L158.741 341.728Z" fill="#F4F4F4" stroke="black" stroke-width="2" stroke-miterlimit="10" stroke-linecap="round"/>
<path d="M151.402 366.336L141.83 397.564C141.081 400.031 141.83 402.717 143.735 404.45L155.321 414.927C157.85 417.222 161.707 417.222 164.252 414.927L175.869 404.419C177.758 402.701 178.508 400.062 177.79 397.595L168.515 366.07L151.402 366.32V366.336Z" fill="black" stroke="black" stroke-width="2" stroke-miterlimit="10" stroke-linecap="round"/>
<path d="M141.208 349.466L158.882 341.969L178.161 350.002L141.208 349.466Z" fill="black"/>
<path d="M45.3454 319.477L47.4876 311.443L48.5587 367.14L43.7388 362.856L45.3454 319.477Z" fill="#D9D9D9"/>
<path d="M272.417 272.884L270.811 263.244L268.668 340.363L273.488 333.401L272.417 272.884Z" fill="#D9D9D9"/>
<path d="M159.491 341.728L269.977 301.771L256.533 321.742L225.789 328.893L200.635 358.966L159.491 341.728Z" fill="#F4F4F4" stroke="black" stroke-width="2" stroke-miterlimit="10" stroke-linecap="round"/>
<path d="M212.789 276.554C252.025 276.554 283.833 244.746 283.833 205.509C283.833 166.273 252.025 134.465 212.789 134.465C173.552 134.465 141.744 166.273 141.744 205.509C141.744 244.746 173.552 276.554 212.789 276.554Z" stroke="black" stroke-width="10" stroke-miterlimit="10"/>
<path d="M262.645 260.676L290.548 288.578" stroke="black" stroke-width="10" stroke-miterlimit="10" stroke-linecap="round"/>
<path d="M216.721 101.51L271.347 158.278" stroke="black" stroke-width="2"/>
<ellipse cx="116.574" cy="190.409" rx="2.67774" ry="4.28438" fill="white"/>
<ellipse cx="210.83" cy="190.409" rx="2.67774" ry="4.28438" fill="white"/>
<g filter="url(#filter0_d_444_6)">
<path fill-rule="evenodd" clip-rule="evenodd" d="M542 0C508.311 0 481 27.3106 481 61V237.794L420.636 272.147C417.267 274.065 417.267 278.921 420.636 280.838L481 315.192V491C481 524.689 508.311 552 542 552H1059C1092.69 552 1120 524.689 1120 491V61C1120 27.3106 1092.69 0 1059 0H542Z" fill="white"/>
</g>
<path d="M645.378 224.455C645.378 227.721 649.116 230.643 652.446 231.266L651.673 232.684C648.794 232.018 645.754 229.966 644.519 227.141C643.283 229.955 640.254 232.007 637.364 232.684L636.591 231.266C639.899 230.621 643.616 227.742 643.616 224.455V222.994H645.378V224.455ZM653.349 236.744V238.141H635.86V236.744H653.349ZM670.106 223.596V225.959C670.106 228.773 670.106 231.373 669.312 235.24L667.614 235.09C668.033 233.253 668.248 231.663 668.366 230.17L656.7 230.814L656.464 229.418L668.431 228.924C668.463 227.914 668.463 226.937 668.474 225.959V225.014H656.979V223.596H670.106ZM672.276 236.637V238.055H654.874V236.637H672.276ZM690.108 221.662V232.232H688.497V227.57H685.812V232.039H684.243V222.006H685.812V226.217H688.497V221.662H690.108ZM679.194 233.113V235.305H688.454V233.113H690.108V240.482H677.519V233.113H679.194ZM679.194 239.107H688.454V236.68H679.194V239.107ZM681.966 222.801V227.699H676.401V230.234C678.915 230.202 680.838 230.105 683.104 229.633L683.298 231.029C680.827 231.502 678.786 231.609 676.015 231.609H674.769V226.41H680.354V224.176H674.726V222.801H681.966ZM704.89 225.186C704.89 227.721 706.759 230.041 709.595 231.029L708.735 232.34C706.555 231.566 704.89 229.998 704.073 228.021C703.257 230.191 701.506 231.878 699.261 232.705L698.358 231.395C701.216 230.385 703.214 227.914 703.235 225.186V224.369H698.874V222.994H709.187V224.369H704.89V225.186ZM713.354 221.641V226.689H716.233V228.129H713.354V233.156H711.679V221.641H713.354ZM713.354 234.166V240.74H711.679V235.541H700.851V234.166H713.354ZM724.011 224.648C723.989 227.377 725.923 229.783 728.737 230.729L727.792 232.039C725.687 231.244 724.032 229.697 723.216 227.678C722.389 229.966 720.638 231.749 718.339 232.619L717.415 231.244C720.358 230.213 722.313 227.678 722.335 224.713V222.736H724.011V224.648ZM733.271 221.641V232.963H731.573V227.141H727.319V225.744H731.573V221.641H733.271ZM726.933 233.521C730.907 233.521 733.335 234.832 733.335 237.131C733.335 239.408 730.907 240.697 726.933 240.697C722.958 240.697 720.53 239.408 720.53 237.131C720.53 234.832 722.958 233.521 726.933 233.521ZM726.933 234.854C724.011 234.854 722.185 235.713 722.206 237.131C722.185 238.506 724.011 239.344 726.933 239.344C729.854 239.344 731.659 238.506 731.659 237.131C731.659 235.713 729.854 234.854 726.933 234.854ZM745.151 222.887C749.147 222.887 752.134 224.971 752.134 228.129C752.134 231.309 749.147 233.393 745.151 233.371C741.155 233.393 738.169 231.309 738.169 228.129C738.169 224.971 741.155 222.887 745.151 222.887ZM745.151 224.262C742.079 224.24 739.759 225.852 739.78 228.129C739.759 230.449 742.079 231.996 745.151 231.996C748.202 231.996 750.501 230.449 750.501 228.129C750.501 225.852 748.202 224.24 745.151 224.262ZM753.938 236.787V238.205H736.45V236.787H753.938ZM772.952 236.959V238.377H755.464V236.959H763.327V233.35H757.655V227.463H769.085V224.455H757.612V223.059H770.739V228.838H759.331V231.953H771.19V233.35H764.981V236.959H772.952ZM794.78 221.641V229.203H797.981V230.621H794.78V240.783H793.104V221.641H794.78ZM789.753 223.51V224.906H782.513V234.574C785.972 234.574 788.421 234.413 791.257 233.887L791.472 235.348C788.485 235.885 785.972 235.992 782.341 235.992H780.837V223.51H789.753ZM816.78 224.541V225.938H813.944V228.602H816.78V230.02H813.944V232.984H812.269V221.641H813.944V224.541H816.78ZM804.384 222.801C807.284 222.779 809.39 224.627 809.411 227.291C809.39 229.955 807.284 231.76 804.384 231.781C801.483 231.76 799.356 229.955 799.378 227.291C799.356 224.627 801.483 222.779 804.384 222.801ZM804.384 224.24C802.45 224.219 801.011 225.486 801.032 227.291C801.011 229.096 802.45 230.342 804.384 230.363C806.339 230.342 807.757 229.096 807.757 227.291C807.757 225.486 806.339 224.219 804.384 224.24ZM807.821 233.564C811.71 233.586 814.116 234.875 814.116 237.152C814.116 239.387 811.71 240.697 807.821 240.697C803.911 240.697 801.483 239.387 801.483 237.152C801.483 234.875 803.911 233.586 807.821 233.564ZM807.821 234.939C804.942 234.939 803.159 235.756 803.181 237.152C803.159 238.527 804.942 239.344 807.821 239.344C810.722 239.344 812.483 238.527 812.483 237.152C812.483 235.756 810.722 234.939 807.821 234.939ZM832.958 221.662V227.957H835.837V229.375H832.958V235.971H831.282V221.662H832.958ZM829.456 224.004V225.379H818.069V224.004H822.925V221.662H824.601V224.004H829.456ZM823.763 226.432C826.491 226.432 828.339 227.828 828.36 229.998C828.339 232.146 826.491 233.521 823.763 233.521C821.013 233.521 819.144 232.146 819.165 229.998C819.144 227.828 821.013 226.432 823.763 226.432ZM823.763 227.764C821.958 227.764 820.755 228.645 820.776 229.998C820.755 231.352 821.958 232.211 823.763 232.189C825.546 232.211 826.749 231.352 826.771 229.998C826.749 228.645 825.546 227.764 823.763 227.764ZM833.839 238.914V240.332H821.013V234.832H822.667V238.914H833.839ZM860.028 231.76V233.135H852.251V236.873H850.575V233.135H842.54V231.76H860.028ZM858.073 238.914V240.332H844.774V235.111H846.45V238.914H858.073ZM846.558 222.264V224.713H856.011V222.264H857.687V229.891H844.882V222.264H846.558ZM846.558 228.516H856.011V226.002H846.558V228.516ZM866.688 223.123C869.503 223.145 871.501 225.723 871.522 229.783C871.501 233.844 869.503 236.422 866.688 236.422C863.853 236.422 861.876 233.844 861.876 229.783C861.876 225.723 863.853 223.145 866.688 223.123ZM866.688 224.627C864.798 224.648 863.466 226.668 863.466 229.783C863.466 232.898 864.798 234.918 866.688 234.918C868.601 234.918 869.89 232.898 869.89 229.783C869.89 226.668 868.601 224.648 866.688 224.627ZM879.45 226.453V227.893H876.356V232.146H879.45V233.564H876.356V240.74H874.681V221.641H876.356V226.453H879.45ZM886.841 223.037C889.849 223.037 891.976 224.863 891.976 227.527C891.976 230.191 889.849 232.018 886.841 232.018C883.833 232.018 881.663 230.191 881.685 227.527C881.663 224.863 883.833 223.037 886.841 223.037ZM886.841 224.52C884.8 224.52 883.317 225.744 883.339 227.527C883.317 229.311 884.8 230.535 886.841 230.535C888.86 230.535 890.321 229.311 890.321 227.527C890.321 225.744 888.86 224.52 886.841 224.52ZM896.251 221.641V240.783H894.575V221.641H896.251ZM880.696 235.133C884.22 235.133 889.075 235.111 893.308 234.488L893.437 235.734C889.075 236.551 884.37 236.572 880.933 236.572L880.696 235.133ZM911.956 227.506C911.956 230.75 914.319 234.037 917.134 235.262L916.188 236.594C913.954 235.573 912.021 233.371 911.14 230.729C910.237 233.532 908.314 235.971 906.134 237.066L905.124 235.734C907.853 234.424 910.237 230.814 910.259 227.506V225.014H905.747V223.617H916.511V225.014H911.956V227.506ZM920.872 221.641V240.74H919.175V221.641H920.872ZM930.905 224.412C930.884 227.205 932.903 229.676 935.739 230.664L934.88 231.996C932.667 231.19 930.916 229.536 930.067 227.42C929.219 229.687 927.446 231.47 925.212 232.34L924.331 231.008C927.188 229.955 929.187 227.291 929.187 224.412V222.586H930.905V224.412ZM939.907 234.102V240.74H938.231V235.498H927.06V234.102H939.907ZM939.907 221.641V233.156H938.231V221.641H939.907ZM951.853 221.984C956.106 221.984 958.599 223.145 958.599 225.271C958.599 227.441 956.106 228.602 951.853 228.623C947.599 228.602 945.085 227.441 945.085 225.271C945.085 223.145 947.599 221.984 951.853 221.984ZM951.853 223.252C948.673 223.252 946.825 224.025 946.847 225.271C946.825 226.604 948.673 227.334 951.853 227.334C955.011 227.334 956.88 226.604 956.88 225.271C956.88 224.025 955.011 223.252 951.853 223.252ZM960.554 229.912V231.287H943.151V229.912H960.554ZM958.319 232.941V237.217H946.976V239.193H958.899V240.525H945.3V235.971H956.665V234.23H945.257V232.941H958.319ZM629.888 252.871C629.888 255.922 631.886 259.059 634.657 260.391L633.669 261.701C631.563 260.67 629.898 258.586 629.114 256.115C628.276 258.769 626.504 260.992 624.323 262.045L623.356 260.734C626.149 259.424 628.233 256.158 628.255 252.871V251.346H623.872V249.971H628.233V247.006H629.931V249.971H634.228V251.346H629.888V252.871ZM638.31 246.641V254.482H641.511V255.922H638.31V265.74H636.634V246.641H638.31ZM659.944 255.729V257.125H642.563V255.729H649.761V251.861H651.415V255.729H659.944ZM657.731 259.316V265.74H656.013V260.713H644.411V259.316H657.731ZM657.731 247.693V249.133C657.731 250.594 657.731 252.248 657.259 254.418L655.562 254.246C656.056 252.098 656.056 250.572 656.056 249.133V249.068H644.626V247.693H657.731ZM667.915 252.871C667.915 255.922 669.913 259.059 672.685 260.391L671.696 261.701C669.591 260.67 667.926 258.586 667.142 256.115C666.304 258.769 664.531 260.992 662.351 262.045L661.384 260.734C664.177 259.424 666.261 256.158 666.282 252.871V251.346H661.899V249.971H666.261V247.006H667.958V249.971H672.255V251.346H667.915V252.871ZM676.337 246.641V254.482H679.538V255.922H676.337V265.74H674.661V246.641H676.337ZM697.972 255.729V257.125H680.591V255.729H687.788V251.861H689.442V255.729H697.972ZM695.759 259.316V265.74H694.04V260.713H682.438V259.316H695.759ZM695.759 247.693V249.133C695.759 250.594 695.759 252.248 695.286 254.418L693.589 254.246C694.083 252.098 694.083 250.572 694.083 249.133V249.068H682.653V247.693H695.759ZM720.423 246.641V250.809H722.937V252.227H720.423V256.824H718.747V246.641H720.423ZM709.552 248.789C709.552 250.196 709.949 252.42 711.442 253.902C712.86 252.463 713.269 250.271 713.269 248.811V247.479H713.634V247.457H714.837V248.789C714.837 250.809 715.675 253.279 717.888 254.418L716.964 255.621C715.471 254.837 714.579 253.473 714.106 251.947C713.666 253.483 712.86 254.966 711.421 255.836C709.96 254.944 709.144 253.387 708.735 251.84C708.23 253.365 707.339 254.805 705.878 255.621L704.954 254.418C707.103 253.193 707.94 250.594 707.962 248.789V247.457H709.552V248.789ZM721.218 257.941V259.273H707.683V257.941H713.634V256.029H715.31V257.941H721.218ZM714.472 260.176C717.974 260.176 720.036 261.164 720.036 262.926C720.036 264.752 717.974 265.697 714.472 265.697C710.905 265.697 708.843 264.752 708.864 262.926C708.843 261.164 710.905 260.176 714.472 260.176ZM714.472 261.4C711.937 261.422 710.519 261.98 710.54 262.926C710.519 263.914 711.937 264.473 714.472 264.451C716.942 264.473 718.382 263.914 718.382 262.926C718.382 261.98 716.942 261.422 714.472 261.4ZM729.231 248.123C732.046 248.145 734.044 250.723 734.065 254.783C734.044 258.844 732.046 261.422 729.231 261.422C726.396 261.422 724.419 258.844 724.419 254.783C724.419 250.723 726.396 248.145 729.231 248.123ZM729.231 249.627C727.341 249.648 726.009 251.668 726.009 254.783C726.009 257.898 727.341 259.918 729.231 259.918C731.144 259.918 732.433 257.898 732.433 254.783C732.433 251.668 731.144 249.648 729.231 249.627ZM738.899 246.641V254.268H742.101V255.729H738.899V265.74H737.224V246.641H738.899ZM761.007 254.268V255.686H757.913V265.74H756.237V246.641H757.913V254.268H761.007ZM745.603 248.531V259.467C748.396 259.456 751.242 259.241 754.39 258.586L754.604 260.025C751.317 260.691 748.353 260.885 745.452 260.885H743.927V248.531H745.603ZM776.927 246.641V254.418H780.021V255.836H776.927V265.74H775.251V246.641H776.927ZM771.985 248.703C771.985 254.117 769.45 259.037 763.22 262.109L762.274 260.777C767.216 258.317 769.901 254.644 770.288 250.121H763.155V248.703H771.985ZM796.606 252.441V253.795H783.522V247.35H785.198V252.441H796.606ZM798.626 256.395V257.77H781.138V256.395H798.626ZM796.714 263.871V265.268H783.415V259.725H785.091V263.871H796.714ZM821.528 246.662V259.596H819.831V253.451H815.642V252.033H819.831V246.662H821.528ZM815.556 248.166C815.534 253.064 812.269 256.588 806.769 258.35L806.017 256.996C810.582 255.589 813.396 252.936 813.751 249.541H806.962V248.166H815.556ZM816.157 258.801C816.157 261.594 819.208 263.678 822.581 264.279L821.872 265.633C819.058 265.085 816.469 263.613 815.341 261.379C814.17 263.624 811.549 265.117 808.702 265.676L808.015 264.344C811.388 263.764 814.481 261.615 814.503 258.801V257.92H816.157V258.801ZM840.456 246.641V265.783H838.759V246.641H840.456ZM830.294 248.123C833.13 248.145 835.171 250.723 835.171 254.783C835.171 258.844 833.13 261.422 830.294 261.422C827.437 261.422 825.417 258.844 825.417 254.783C825.417 250.723 827.437 248.145 830.294 248.123ZM830.294 249.627C828.382 249.648 827.05 251.668 827.05 254.783C827.05 257.898 828.382 259.918 830.294 259.918C832.206 259.918 833.538 257.898 833.538 254.783C833.538 251.668 832.206 249.648 830.294 249.627ZM858.761 252.334V254.59H866.71V255.986H849.222V254.59H857.106V252.334H858.761ZM865.099 247.242V248.574H859.062C859.201 250.529 862.402 251.958 865.722 252.227L865.163 253.494C861.983 253.193 858.986 251.958 857.966 249.949C856.924 251.958 853.927 253.193 850.726 253.494L850.167 252.227C853.465 251.958 856.666 250.529 856.849 248.574H850.833V247.242H865.099ZM865.056 258.521V259.854H850.876V258.521H857.106V256.717H858.782V258.521H865.056ZM857.944 260.799C861.618 260.799 863.724 261.658 863.724 263.312C863.724 264.988 861.618 265.848 857.944 265.848C854.228 265.848 852.187 264.988 852.187 263.312C852.187 261.658 854.228 260.799 857.944 260.799ZM857.944 261.98C855.366 262.002 853.884 262.432 853.884 263.312C853.884 264.193 855.366 264.688 857.944 264.666C860.544 264.688 861.983 264.193 862.005 263.312C861.983 262.432 860.544 262.002 857.944 261.98ZM876.958 246.984C881.212 246.984 883.704 248.145 883.704 250.271C883.704 252.441 881.212 253.602 876.958 253.623C872.704 253.602 870.19 252.441 870.19 250.271C870.19 248.145 872.704 246.984 876.958 246.984ZM876.958 248.252C873.778 248.252 871.931 249.025 871.952 250.271C871.931 251.604 873.778 252.334 876.958 252.334C880.116 252.334 881.985 251.604 881.985 250.271C881.985 249.025 880.116 248.252 876.958 248.252ZM885.659 254.912V256.287H868.257V254.912H885.659ZM883.425 257.941V262.217H872.081V264.193H884.005V265.525H870.405V260.971H881.771V259.23H870.362V257.941H883.425ZM908.626 246.662V259.596H906.929V253.451H902.739V252.033H906.929V246.662H908.626ZM902.653 248.166C902.632 253.064 899.366 256.588 893.866 258.35L893.114 256.996C897.68 255.589 900.494 252.936 900.849 249.541H894.06V248.166H902.653ZM903.255 258.801C903.255 261.594 906.306 263.678 909.679 264.279L908.97 265.633C906.155 265.085 903.566 263.613 902.438 261.379C901.268 263.624 898.646 265.117 895.8 265.676L895.112 264.344C898.485 263.764 901.579 261.615 901.601 258.801V257.92H903.255V258.801ZM932.259 246.641V251.109H935.138V252.506H932.259V256.867H930.583V246.641H932.259ZM927.124 247.994C927.103 252.764 923.729 255.943 918.101 257.232L917.392 255.857C922.258 254.794 924.976 252.377 925.255 249.369H918.208V247.994H927.124ZM932.345 257.727V259.016H921.86V260.906H932.13V262.195H921.86V264.172H932.796V265.482H920.163V257.727H932.345ZM941.454 248.123C944.269 248.145 946.267 250.723 946.288 254.783C946.267 258.844 944.269 261.422 941.454 261.422C938.618 261.422 936.642 258.844 936.642 254.783C936.642 250.723 938.618 248.145 941.454 248.123ZM941.454 249.627C939.563 249.648 938.231 251.668 938.231 254.783C938.231 257.898 939.563 259.918 941.454 259.918C943.366 259.918 944.655 257.898 944.655 254.783C944.655 251.668 943.366 249.648 941.454 249.627ZM951.122 246.641V254.268H954.323V255.729H951.122V265.74H949.446V246.641H951.122ZM972.843 261.873V263.291H955.354V261.873H959.694V256.717C958.062 255.868 957.073 254.493 957.073 252.764C957.073 249.799 959.974 247.865 964.056 247.844C968.138 247.865 971.038 249.799 971.038 252.764C971.038 254.461 970.082 255.825 968.503 256.674V261.873H972.843ZM964.056 249.24C960.919 249.219 958.706 250.637 958.706 252.764C958.706 254.891 960.919 256.33 964.056 256.33C967.171 256.33 969.405 254.891 969.405 252.764C969.405 250.637 967.171 249.219 964.056 249.24ZM961.349 261.873H966.806V257.318C965.979 257.544 965.055 257.662 964.056 257.662C963.078 257.662 962.165 257.555 961.349 257.34V261.873ZM977.462 248.445L977.312 259.617H975.507L975.356 248.445H977.462ZM976.409 264.129C975.657 264.129 975.013 263.506 975.034 262.732C975.013 261.98 975.657 261.357 976.409 261.357C977.161 261.357 977.784 261.98 977.784 262.732C977.784 263.506 977.161 264.129 976.409 264.129Z" fill="#222222"/>
<path d="M631.692 176.662V182.441H634.55V183.859H631.692V190.24H629.995V176.662H631.692ZM626.601 189.596C626.601 192.109 629.587 193.871 633.046 194.344L632.401 195.654C629.501 195.192 626.869 193.936 625.741 191.895C624.603 193.936 621.96 195.192 619.06 195.654L618.437 194.344C621.896 193.871 624.882 192.109 624.882 189.596V188.951H626.601V189.596ZM616.761 186.459C618.254 186.459 619.994 186.448 621.81 186.373V184.59C619.446 184.343 617.878 182.957 617.899 181.002C617.878 178.854 619.812 177.414 622.604 177.393C625.397 177.414 627.331 178.854 627.331 181.002C627.331 182.925 625.806 184.3 623.507 184.568V186.309C625.301 186.212 627.105 186.062 628.771 185.814L628.899 187.018C624.86 187.748 620.284 187.812 616.976 187.812L616.761 186.459ZM622.604 178.682C620.757 178.682 619.468 179.605 619.468 181.002C619.468 182.398 620.757 183.344 622.604 183.344C624.452 183.344 625.741 182.398 625.741 181.002C625.741 179.605 624.452 178.682 622.604 178.682ZM653.284 191.873V193.291H635.796V191.873H653.284ZM645.378 181.109C645.378 184.268 648.536 186.652 652.167 187.297L651.479 188.672C648.461 188.06 645.711 186.405 644.519 183.902C643.305 186.405 640.555 188.06 637.536 188.672L636.87 187.297C640.479 186.652 643.659 184.268 643.659 181.109H637.429V179.734H643.681V177.113H645.335V179.734H651.608V181.109H645.378ZM670.128 178.574V180.486C670.106 182.828 670.106 185.449 669.419 189.295L667.7 189.102C668.431 185.449 668.431 182.764 668.431 180.486V179.971H656.657V178.574H670.128ZM672.212 191.637V193.033H654.81V191.637H661.642V184.805H663.296V191.637H672.212ZM689.593 176.662V188.027H687.917V176.662H689.593ZM683.212 188.414C687.187 188.414 689.636 189.746 689.657 192.045C689.636 194.365 687.187 195.697 683.212 195.697C679.194 195.697 676.767 194.365 676.767 192.045C676.767 189.746 679.194 188.414 683.212 188.414ZM683.212 189.746C680.247 189.746 678.464 190.605 678.464 192.045C678.464 193.484 680.247 194.344 683.212 194.344C686.155 194.344 687.981 193.484 687.981 192.045C687.981 190.605 686.155 189.746 683.212 189.746ZM679.28 177.865C682.181 177.887 684.286 179.691 684.286 182.334C684.286 184.977 682.181 186.76 679.28 186.781C676.38 186.76 674.274 184.977 674.274 182.334C674.274 179.691 676.38 177.887 679.28 177.865ZM679.28 179.326C677.325 179.305 675.907 180.529 675.929 182.334C675.907 184.117 677.325 185.342 679.28 185.363C681.214 185.342 682.632 184.117 682.632 182.334C682.632 180.529 681.214 179.305 679.28 179.326ZM710.239 186.824V188.221H692.837V186.824H700.7V184.826C697.037 184.644 694.771 183.258 694.771 181.002C694.771 178.66 697.392 177.221 701.538 177.221C705.642 177.221 708.284 178.66 708.284 181.002C708.284 183.258 705.996 184.644 702.376 184.826V186.824H710.239ZM708.306 193.914V195.332H695.093V189.768H696.79V193.914H708.306ZM701.538 178.596C698.466 178.596 696.489 179.541 696.511 181.002C696.489 182.549 698.466 183.451 701.538 183.451C704.589 183.451 706.565 182.549 706.565 181.002C706.565 179.541 704.589 178.596 701.538 178.596ZM722.442 178.768V179.756C722.421 181.26 722.421 183.795 721.884 187.34L720.187 187.189C720.702 183.988 720.745 181.668 720.745 180.143H712.731V178.768H722.442ZM717.437 184.225V190.025C719.553 189.95 721.723 189.811 723.71 189.574L723.796 190.842C719.778 191.465 715.288 191.551 711.872 191.529L711.657 190.133C712.914 190.122 714.311 190.111 715.782 190.068V184.225H717.437ZM726.589 176.641V184.633H729.683V186.094H726.589V195.74H724.913V176.641H726.589ZM751.317 176.641V181.732H754.196V183.172H751.317V188.156H749.642V176.641H751.317ZM751.317 189.252V195.482H739.265V189.252H751.317ZM740.919 190.605V194.107H749.642V190.605H740.919ZM747.815 178.682V180.078H736.429V178.682H741.284V176.49H742.96V178.682H747.815ZM742.122 181.023C744.872 181.023 746.698 182.377 746.72 184.418C746.698 186.502 744.872 187.834 742.122 187.834C739.351 187.834 737.503 186.502 737.524 184.418C737.503 182.377 739.351 181.023 742.122 181.023ZM742.122 182.334C740.317 182.334 739.114 183.172 739.136 184.418C739.114 185.729 740.317 186.523 742.122 186.545C743.905 186.523 745.108 185.729 745.13 184.418C745.108 183.172 743.905 182.334 742.122 182.334ZM760.147 178.961C760.126 182.979 759.567 187.49 756.774 191.186L755.442 190.412C757.838 187.415 758.547 183.881 758.687 180.357H755.829V178.961H760.147ZM764.38 178.961C764.369 180.519 764.337 182.312 764.101 184.16H766.636V177.156H768.247V194.773H766.636V185.557H763.886C763.445 187.941 762.607 190.358 761.05 192.453L759.739 191.658C762.382 188.285 762.822 183.924 762.897 180.357H760.749V178.961H764.38ZM771.835 176.641V195.74H770.202V176.641H771.835ZM786.767 182.506C786.767 185.75 789.13 189.037 791.944 190.262L790.999 191.594C788.765 190.573 786.831 188.371 785.95 185.729C785.048 188.532 783.125 190.971 780.944 192.066L779.935 190.734C782.663 189.424 785.048 185.814 785.069 182.506V180.014H780.558V178.617H791.321V180.014H786.767V182.506ZM795.683 176.641V195.74H793.985V176.641H795.683ZM805.587 180.164C805.587 182.656 807.499 185.02 810.292 185.986L809.411 187.318C807.252 186.545 805.587 184.944 804.771 182.979C803.943 185.181 802.182 186.942 799.915 187.77L799.034 186.438C801.849 185.428 803.89 182.871 803.89 180.186V179.348H799.571V177.973H809.862V179.348H805.587V180.164ZM814.782 189.102V195.74H813.085V190.498H801.935V189.102H814.782ZM814.782 176.641V188.092H813.085V183.064H809.261V181.646H813.085V176.641H814.782ZM833.173 177.822V179.24H826.062V181.625H832.808V183.021H826.062V185.557C829.778 185.578 831.916 185.503 834.419 185.02L834.612 186.395C831.97 186.867 829.778 186.932 825.825 186.91H824.386V177.822H833.173ZM838.415 188.887V195.482H826.362V188.887H838.415ZM828.017 190.24V194.107H836.739V190.24H828.017ZM838.415 176.641V181.389H841.294V182.828H838.415V187.898H836.739V176.641H838.415ZM857.601 177.887V179.562C857.601 181.378 857.601 183.344 857.063 186.094H859.899V187.49H852.015V195.783H850.317V187.49H842.497V186.094H855.345C855.925 183.344 855.925 181.335 855.925 179.562V179.283H844.688V177.887H857.601ZM878.978 185.514V186.846H861.489V185.514H878.978ZM876.786 188.371V192.432H865.313V194.258H877.409V195.482H863.616V191.271H875.11V189.639H863.595V188.371H876.786ZM876.722 177.221V181.174H865.442V182.85H877.065V184.074H863.767V180.014H875.024V178.445H863.702V177.221H876.722ZM890.042 176.963V178.789H899.495V176.963H901.171V183.236H888.366V176.963H890.042ZM890.042 181.926H899.495V180.078H890.042V181.926ZM903.448 184.826V186.223H895.563V188.092H901.214V192.324H889.87V194.193H901.794V195.525H888.194V191.078H899.56V189.381H888.151V188.092H893.888V186.223H886.046V184.826H903.448ZM913.396 178.854V180.229H907.444V183.902H913.116V185.256H907.444V189.574C910.28 189.563 912.031 189.488 914.126 189.102L914.276 190.498C912.042 190.928 910.194 191.014 907.058 191.014H905.833V178.854H913.396ZM921.431 176.641V195.74H919.798V185.729H917.177V194.773H915.544V177.049H917.177V184.332H919.798V176.641H921.431ZM939.886 176.662V195.762H938.167V191.014H933.763V189.725H938.167V176.662H939.886ZM923.987 186.717C927.64 186.717 932.474 186.695 936.685 186.094L936.792 187.361C934.901 187.684 932.936 187.877 931.034 187.984V195.16H929.337V188.07C927.5 188.146 925.76 188.156 924.224 188.156L923.987 186.717ZM930.282 177.607C933.118 177.607 935.095 179.133 935.095 181.367C935.095 183.645 933.118 185.105 930.282 185.105C927.425 185.105 925.448 183.645 925.448 181.367C925.448 179.133 927.425 177.607 930.282 177.607ZM930.282 178.918C928.349 178.918 927.017 179.928 927.038 181.367C927.017 182.828 928.349 183.795 930.282 183.795C932.151 183.795 933.505 182.828 933.505 181.367C933.505 179.928 932.151 178.918 930.282 178.918ZM945.815 178.23V181.152H952.024V178.23H953.7V186.824H949.769V190.24C951.53 190.176 953.303 190.047 954.946 189.832L955.054 191.1C951.015 191.744 946.481 191.809 943.13 191.83L942.851 190.391C944.408 190.38 946.202 190.369 948.071 190.305V186.824H944.14V178.23H945.815ZM945.815 185.449H952.024V182.463H945.815V185.449ZM957.847 176.641V184.676H960.962V186.094H957.847V195.74H956.171V176.641H957.847ZM979.589 191.873V193.291H962.101V191.873H966.44V186.717C964.808 185.868 963.819 184.493 963.819 182.764C963.819 179.799 966.72 177.865 970.802 177.844C974.884 177.865 977.784 179.799 977.784 182.764C977.784 184.461 976.828 185.825 975.249 186.674V191.873H979.589ZM970.802 179.24C967.665 179.219 965.452 180.637 965.452 182.764C965.452 184.891 967.665 186.33 970.802 186.33C973.917 186.33 976.151 184.891 976.151 182.764C976.151 180.637 973.917 179.219 970.802 179.24ZM968.095 191.873H973.552V187.318C972.725 187.544 971.801 187.662 970.802 187.662C969.824 187.662 968.911 187.555 968.095 187.34V191.873ZM984.208 178.445L984.058 189.617H982.253L982.103 178.445H984.208ZM983.155 194.129C982.403 194.129 981.759 193.506 981.78 192.732C981.759 191.98 982.403 191.357 983.155 191.357C983.907 191.357 984.53 191.98 984.53 192.732C984.53 193.506 983.907 194.129 983.155 194.129Z" fill="#222222"/>
<path d="M578.135 352.107V353.504H564.986V346.629H566.705V352.107H578.135ZM580.176 356.275V357.672H575.643V364.74H573.967V357.672H569.004V364.74H567.328V357.672H562.773V356.275H580.176ZM591.305 348.455C591.305 351.721 595.043 354.643 598.373 355.266L597.6 356.684C594.721 356.018 591.681 353.966 590.445 351.141C589.21 353.955 586.181 356.007 583.291 356.684L582.518 355.266C585.826 354.621 589.543 351.742 589.543 348.455V346.994H591.305V348.455ZM599.275 360.744V362.141H581.787V360.744H599.275ZM612.854 349.25C612.854 351.914 614.787 354.428 617.58 355.438L616.635 356.748C614.54 355.91 612.875 354.245 612.059 352.172C611.242 354.481 609.502 356.318 607.246 357.221L606.344 355.846C609.201 354.793 611.178 352.129 611.199 349.186V346.822H612.854V349.25ZM622.156 345.662V359.971H620.459V351.57H616.205V350.152H620.459V345.662H622.156ZM622.586 362.914V364.332H609.803V358.338H611.5V362.914H622.586ZM641.836 348.477V349.873H626.195V348.477H633.199V345.963H634.854V348.477H641.836ZM642.824 361.109V362.506H625.336V361.109H633.199V358.424C629.805 358.241 627.742 356.92 627.764 354.771C627.742 352.494 630.148 351.162 634.037 351.184C637.883 351.162 640.311 352.494 640.311 354.771C640.311 356.92 638.227 358.241 634.854 358.424V361.109H642.824ZM634.037 352.516C631.18 352.516 629.439 353.354 629.461 354.771C629.439 356.232 631.18 357.049 634.037 357.07C636.852 357.049 638.592 356.232 638.592 354.771C638.592 353.354 636.852 352.516 634.037 352.516Z" fill="#222222"/>
<path d="M568.961 397.445V413H567.006V399.465H566.92L563.139 401.979V400.023L567.006 397.445H568.961ZM588.727 395.641V414.74H587.072V404.75H584.43V413.795H582.818V396.156H584.43V403.354H587.072V395.641H588.727ZM580.648 398.133C580.627 402.988 578.93 407.586 573.43 410.637L572.441 409.455C576.878 406.984 578.715 403.482 578.994 399.529H573.172V398.133H580.648ZM601.08 397.381V406.168H592.25V397.381H601.08ZM593.904 398.756V404.814H599.447V398.756H593.904ZM606.365 395.641V401.463H609.244V402.881H606.365V409.648H604.689V395.641H606.365ZM607.246 412.914V414.332H594.42V408.316H596.074V412.914H607.246ZM626.883 397.102V398.498H624.928V404.041C625.905 403.987 626.872 403.901 627.785 403.783L627.914 405.072C624.025 405.674 619.492 405.717 616.227 405.738L616.033 404.299L618.504 404.277V398.498H616.57V397.102H626.883ZM630.9 407.736V414.482H618.848V407.736H630.9ZM620.502 409.09V413.107H629.225V409.09H620.502ZM630.9 395.641V400.238H633.779V401.656H630.9V406.727H629.225V395.641H630.9ZM620.158 404.256C621.179 404.234 622.221 404.202 623.273 404.148V398.498H620.158V404.256Z" fill="#222222"/>
<path d="M572.635 448.887C572.613 453.678 569.197 457.115 563.697 458.684L562.988 457.352C567.554 456.062 570.465 453.527 570.83 450.283H563.977V448.887H572.635ZM578.607 447.662V458.555H576.91V454H572.678V452.582H576.91V447.662H578.607ZM578.607 459.371V466.482H566.211V459.371H578.607ZM567.844 460.725V465.107H576.932V460.725H567.844ZM587.48 451.379C587.48 453.549 588.941 455.74 591.391 456.707L590.488 458.018C588.684 457.266 587.362 455.869 586.686 454.172C585.977 456.03 584.602 457.652 582.732 458.49L581.809 457.18C584.322 456.062 585.869 453.549 585.869 451.379V448.822H587.48V451.379ZM598.008 447.662V459.199H596.396V454.064H593.861V459.092H592.271V448.006H593.861V452.646H596.396V447.662H598.008ZM598.008 460.252V466.74H596.354V461.648H585.139V460.252H598.008ZM611.629 449.789V451.164H600.822V449.789H605.463V447.49H607.139V449.789H611.629ZM606.279 452.152C608.836 452.152 610.641 453.549 610.641 455.676C610.641 457.824 608.836 459.221 606.279 459.221C603.701 459.221 601.939 457.824 601.961 455.676C601.939 453.549 603.701 452.152 606.279 452.152ZM606.279 453.42C604.625 453.441 603.529 454.344 603.529 455.676C603.529 457.029 604.625 457.91 606.279 457.91C607.934 457.91 609.051 457.029 609.072 455.676C609.051 454.344 607.934 453.441 606.279 453.42ZM616.635 447.641V459.994H614.938V457.352H611.607V455.955H614.938V453.635H611.629V452.238H614.938V447.641H616.635ZM610.34 460.188C614.314 460.188 616.742 461.369 616.742 463.453C616.742 465.494 614.314 466.697 610.34 466.697C606.322 466.697 603.916 465.494 603.916 463.453C603.916 461.369 606.322 460.188 610.34 460.188ZM610.34 461.498C607.439 461.498 605.656 462.207 605.656 463.453C605.656 464.656 607.439 465.387 610.34 465.387C613.197 465.387 614.959 464.656 614.959 463.453C614.959 462.207 613.197 461.498 610.34 461.498Z" fill="#222222"/>
<rect x="664" y="343" width="375" height="24" rx="12" fill="#E6E6E6"/>
<rect x="664" y="395" width="375" height="24" rx="12" fill="#E6E6E6"/>
<rect x="664" y="447" width="375" height="24" rx="12" fill="#E6E6E6"/>
<rect x="664" y="343" width="263" height="24" rx="12" fill="#8F8F8F"/>
<rect x="664" y="395" width="375" height="24" rx="12" fill="#8F8F8F"/>
<rect x="664" y="447" width="330" height="24" rx="12" fill="#8F8F8F"/>
<path d="M788.206 76.6406V81.625H791.063V83.043H788.206V88.0488H786.509V76.6406H788.206ZM782.062 88.4141C785.95 88.4141 788.356 89.7676 788.356 92.0449C788.356 94.3652 785.95 95.6973 782.062 95.6973C778.151 95.6973 775.724 94.3652 775.724 92.0449C775.724 89.7676 778.151 88.4141 782.062 88.4141ZM782.062 89.8105C779.183 89.7891 777.378 90.6484 777.378 92.0449C777.378 93.4629 779.183 94.3438 782.062 94.3438C784.919 94.3438 786.724 93.4629 786.724 92.0449C786.724 90.6484 784.919 89.7891 782.062 89.8105ZM782.62 78.1016V79.498H775.788V85.1055C779.655 85.084 781.89 84.9658 784.446 84.4395L784.618 85.8359C781.954 86.373 779.655 86.4805 775.616 86.4805H774.134V78.1016H782.62ZM808.036 76.6621V90.6699H806.36V76.6621H808.036ZM808.638 93.9141V95.332H795.704V89.3809H797.38V93.9141H808.638ZM799.034 79.6484C799.013 82.5488 801.011 85.1699 803.847 86.2012L802.966 87.5547C800.753 86.7061 799.034 84.9873 798.196 82.7852C797.348 85.127 795.607 87.0068 793.384 87.8984L792.46 86.5879C795.36 85.4707 797.315 82.6562 797.315 79.6484V77.7363H799.034V79.6484ZM828.683 86.7168V88.0918H811.28V86.7168H828.683ZM826.749 93.9141V95.332H813.536V89.7676H815.233V93.9141H826.749ZM819.981 77.3281C824.085 77.3066 826.728 78.7246 826.728 81.1094C826.728 83.4941 824.085 84.9121 819.981 84.9121C815.835 84.9121 813.214 83.4941 813.214 81.1094C813.214 78.7246 815.835 77.3066 819.981 77.3281ZM819.981 78.6816C816.909 78.6816 814.933 79.6055 814.954 81.1094C814.933 82.6133 816.909 83.5371 819.981 83.5371C823.032 83.5371 825.009 82.6133 825.009 81.1094C825.009 79.6055 823.032 78.6816 819.981 78.6816Z" fill="#222222"/>
<path d="M645.921 116.38L648.094 109.324H650.951L649.779 116.38H645.921ZM651.61 116.38L653.783 109.324H656.639L655.467 116.38H651.61ZM681.908 106.932V112.303H684.813V115.135H681.908V120.359H678.392V106.932H681.908ZM681.908 121.287V129.344H678.392V124.07H666.698V121.287H681.908ZM668.114 108.348V111.155H672.093V108.348H675.609V119.31H664.647V108.348H668.114ZM668.114 116.551H672.093V113.865H668.114V116.551ZM694.139 111.692C694.139 115.745 695.555 119.773 699.266 121.58L697.167 124.363C694.823 123.228 693.285 121.165 692.406 118.626C691.429 121.373 689.781 123.582 687.279 124.803L685.13 121.946C689.085 120.164 690.624 115.892 690.624 111.692V108.592H694.139V111.692ZM703.441 106.932V115.428H706.615V118.382H703.441V129.344H699.925V106.932H703.441ZM725.047 106.932V115.354H728.05V118.235H725.047V129.271H721.532V106.932H725.047ZM718.993 109.178C718.993 115.989 716.502 121.8 708.885 125.535L706.908 122.85C712.047 120.274 714.806 116.929 715.428 112.059H708.25V109.178H718.993ZM743.749 107.884V109.324C743.749 110.826 743.749 112.791 743.041 115.354H748.46C748.973 113.438 749.095 111.961 749.144 110.667H745.018V107.884H752.538V109.397C752.513 110.997 752.513 112.925 751.976 115.354H754.881V118.187H746.361V120.799H752.367V129.075H736.913V120.799H742.87V118.187H734.471V115.354H739.5C740.074 113.401 740.245 111.912 740.306 110.667H736.253V107.884H743.749ZM740.379 123.509V126.341H748.875V123.509H740.379ZM774.901 106.956V122.972H771.385V106.956H774.901ZM775.462 126.17V128.978H759.715V121.36H763.28V126.17H775.462ZM762.572 108.348C766.039 108.348 768.773 110.74 768.773 114.036C768.773 117.405 766.039 119.773 762.572 119.773C759.105 119.773 756.346 117.405 756.371 114.036C756.346 110.74 759.105 108.348 762.572 108.348ZM762.572 111.399C760.985 111.375 759.789 112.352 759.789 114.036C759.789 115.794 760.985 116.722 762.572 116.722C764.085 116.722 765.282 115.794 765.282 114.036C765.282 112.352 764.085 111.375 762.572 111.399ZM801.122 106.956V113.67H804.027V116.526H801.122V123.68H797.606V106.956H801.122ZM796.532 109.202V111.937H783.25V109.202H788.133V106.932H791.649V109.202H796.532ZM789.891 112.571C793.163 112.571 795.458 114.354 795.458 116.966C795.458 119.554 793.163 121.287 789.891 121.287C786.62 121.287 784.276 119.554 784.3 116.966C784.276 114.354 786.62 112.571 789.891 112.571ZM789.891 115.257C788.597 115.257 787.718 115.843 787.718 116.966C787.718 118.089 788.597 118.626 789.891 118.65C791.209 118.626 792.113 118.089 792.113 116.966C792.113 115.843 791.209 115.257 789.891 115.257ZM801.854 126.17V128.978H786.424V122.386H789.94V126.17H801.854ZM825.34 119.358V122.215H816.771V129.368H813.28V122.215H804.857V119.358H825.34ZM815.038 107.64C819.872 107.64 823.29 109.642 823.29 112.767C823.29 115.843 819.872 117.796 815.038 117.796C810.204 117.796 806.81 115.843 806.834 112.767C806.81 109.642 810.204 107.64 815.038 107.64ZM815.038 110.423C812.181 110.447 810.448 111.229 810.448 112.767C810.448 114.256 812.181 115.037 815.038 115.037C817.918 115.037 819.652 114.256 819.652 112.767C819.652 111.229 817.918 110.447 815.038 110.423ZM846.922 115.647V118.406H838.426V119.578H844.481V125.56H832.274V126.585H845.018V129.222H828.807V123.094H840.99V122.215H828.807V119.578H834.886V118.406H826.488V115.647H846.922ZM844.359 107.566V114.695H828.978V107.566H844.359ZM832.42 110.276V112.01H840.843V110.276H832.42ZM858.128 108.226V111.009H861.937V108.226H865.404V112.132H869.164V106.932H872.655V119.92H869.164V114.988H865.404V119.041H854.588V108.226H858.128ZM858.128 116.258H861.937V113.743H858.128V116.258ZM872.655 120.726V129.1H857.469V120.726H872.655ZM861.009 123.509V126.292H869.237V123.509H861.009ZM882.616 110.789C882.591 113.133 883.666 115.416 886.498 116.6V107.347H889.745V112.254H891.258V106.956H894.603V120.628H891.258V115.086H889.745V119.92H886.498V116.966L884.837 119.383C883.006 118.675 881.749 117.442 880.956 115.892C880.15 117.747 878.795 119.285 876.756 120.115L874.876 117.405C878.075 115.989 879.173 113.279 879.173 110.789V108.299H882.616V110.789ZM886.864 120.848C891.625 120.848 894.701 122.459 894.725 125.096C894.701 127.732 891.625 129.368 886.864 129.344C882.103 129.368 879.027 127.732 879.051 125.096C879.027 122.459 882.103 120.848 886.864 120.848ZM886.864 123.484C884.105 123.46 882.542 123.997 882.567 125.096C882.542 126.194 884.105 126.707 886.864 126.707C889.623 126.707 891.161 126.194 891.185 125.096C891.161 123.997 889.623 123.46 886.864 123.484ZM915.721 106.932V129.393H912.181V106.932H915.721ZM903.49 108.47C906.883 108.47 909.422 111.57 909.447 116.478C909.422 121.458 906.883 124.559 903.49 124.559C900.023 124.559 897.484 121.458 897.484 116.478C897.484 111.57 900.023 108.47 903.49 108.47ZM903.49 111.644C901.903 111.644 900.877 113.279 900.902 116.478C900.877 119.725 901.903 121.36 903.49 121.36C905.028 121.36 906.053 119.725 906.053 116.478C906.053 113.279 905.028 111.644 903.49 111.644ZM930.931 108.86V111.619H918.578V108.86H923.167V106.736H926.683V108.86H930.931ZM924.876 112.254C927.977 112.254 930.248 113.987 930.272 116.478C930.248 118.968 927.977 120.652 924.876 120.652C921.776 120.652 919.579 118.968 919.579 116.478C919.579 113.987 921.776 112.254 924.876 112.254ZM924.876 114.866C923.656 114.866 922.85 115.403 922.85 116.478C922.85 117.552 923.656 118.064 924.876 118.064C926.122 118.064 927 117.552 927 116.478C927 115.403 926.122 114.866 924.876 114.866ZM937.474 106.932V121.141H933.983V119.017H931.2V116.209H933.983V114.5H931.273V111.692H933.983V106.932H937.474ZM929.808 121.434C934.593 121.434 937.572 122.898 937.596 125.389C937.572 127.854 934.593 129.368 929.808 129.344C924.999 129.368 921.996 127.854 921.996 125.389C921.996 122.898 924.999 121.434 929.808 121.434ZM929.808 124.07C927.123 124.095 925.707 124.461 925.707 125.389C925.707 126.292 927.123 126.707 929.808 126.707C932.42 126.707 933.812 126.292 933.812 125.389C933.812 124.461 932.42 124.095 929.808 124.07ZM945.677 116.38L947.85 109.324H950.707L949.535 116.38H945.677ZM951.366 116.38L953.539 109.324H956.395L955.223 116.38H951.366Z" fill="black"/>
<defs>
<filter id="filter0_d_444_6" x="414.109" y="0" width="709.891" height="560" filterUnits="userSpaceOnUse" color-interpolation-filters="sRGB">
<feFlood flood-opacity="0" result="BackgroundImageFix"/>
<feColorMatrix in="SourceAlpha" type="matrix" values="0 0 0 0 0 0 0 0 0 0 0 0 0 0 0 0 0 0 127 0" result="hardAlpha"/>
<feOffset dy="4"/>
<feGaussianBlur stdDeviation="2"/>
<feComposite in2="hardAlpha" operator="out"/>
<feColorMatrix type="matrix" values="0 0 0 0 0 0 0 0 0 0 0 0 0 0 0 0 0 0 0.25 0"/>
<feBlend mode="normal" in2="BackgroundImageFix" result="effect1_dropShadow_444_6"/>
<feBlend mode="normal" in="SourceGraphic" in2="effect1_dropShadow_444_6" result="shape"/>
</filter>
</defs>
</svg>
