<svg width="1169" height="576" viewBox="0 0 1169 576" fill="none" xmlns="http://www.w3.org/2000/svg">
<path d="M139.275 472.918V489.734H135.262V482.791H133.592V488.855H129.637V473.416H133.592V479.363H135.262V472.918H139.275ZM128.963 475.555V478.807H115.955V475.555H120.379V473.182H124.568V475.555H128.963ZM122.488 479.539C125.916 479.539 128.406 481.443 128.406 484.256C128.406 487.039 125.916 488.943 122.488 488.943C119.148 488.943 116.658 487.039 116.658 484.256C116.658 481.443 119.148 479.539 122.488 479.539ZM122.488 482.557C121.258 482.527 120.438 483.143 120.438 484.256C120.438 485.369 121.258 485.984 122.488 485.984C123.748 485.984 124.598 485.369 124.598 484.256C124.598 483.143 123.748 482.527 122.488 482.557ZM129.988 489.91C135.848 489.91 139.393 491.727 139.422 494.861C139.393 498.025 135.848 499.842 129.988 499.812C124.188 499.842 120.584 498.025 120.613 494.861C120.584 491.727 124.188 489.91 129.988 489.91ZM129.988 493.045C126.531 493.045 124.803 493.602 124.832 494.861C124.803 496.092 126.531 496.648 129.988 496.648C133.504 496.648 135.145 496.092 135.174 494.861C135.145 493.602 133.504 493.045 129.988 493.045ZM166.609 485.428V488.738H142.029V485.428H152.254V483.406H144.959V474.09H163.709V477.371H149.178V480.096H163.826V483.406H156.414V485.428H166.609ZM154.246 489.881C160.105 489.881 163.621 491.668 163.621 494.891C163.621 498.055 160.105 499.871 154.246 499.871C148.357 499.871 144.783 498.055 144.783 494.891C144.783 491.668 148.357 489.881 154.246 489.881ZM154.246 493.074C150.701 493.074 149.061 493.66 149.09 494.891C149.061 496.15 150.701 496.648 154.246 496.648C157.703 496.648 159.402 496.15 159.402 494.891C159.402 493.66 157.703 493.074 154.246 493.074ZM183.25 475.262V478.631H181.023V489.939C182.005 489.866 182.972 489.764 183.895 489.646L184.1 492.664C178.68 493.66 172.615 493.777 168.045 493.777L167.605 490.379L170.477 490.35V478.631H168.279V475.262H183.25ZM189.285 472.918V482.996H193.094V486.395H189.285V499.812H185.066V472.918H189.285ZM174.549 490.262L176.98 490.203V478.631H174.549V490.262ZM222.566 484.783V488.094H214.92V493.426H225.174V496.854H200.594V493.426H210.76V488.094H203.406V474.734H222.391V478.074H207.625V484.783H222.566ZM239.5 474.764V483.611H231.707V486.219C235.062 486.189 237.522 486.028 240.232 485.545L240.701 488.943C237.273 489.529 234.227 489.617 229.598 489.617H227.488V480.506H235.252V478.104H227.488V474.764H239.5ZM249.285 472.947V492.811H245.096V486.307H240.965V482.938H245.096V480.213H240.965V476.873H245.096V472.947H249.285ZM249.93 495.945V499.373H231.092V491.258H235.281V495.945H249.93ZM275.008 472.918V487.947H270.818V472.918H275.008ZM258.162 474.471V483.348C262.117 483.304 265.384 483.025 268.768 482.293L269.236 485.691C265.193 486.57 261.209 486.863 256.316 486.893H253.943V474.471H258.162ZM275.008 489.002V499.49H256.902V489.002H275.008ZM261.033 492.283V496.209H270.877V492.283H261.033ZM293.289 475.232V478.543H278.465V475.232H283.973V472.684H288.191V475.232H293.289ZM286.023 479.305C289.744 479.305 292.469 481.385 292.498 484.373C292.469 487.361 289.744 489.383 286.023 489.383C282.303 489.383 279.666 487.361 279.666 484.373C279.666 481.385 282.303 479.305 286.023 479.305ZM286.023 482.439C284.559 482.439 283.592 483.084 283.592 484.373C283.592 485.662 284.559 486.277 286.023 486.277C287.518 486.277 288.572 485.662 288.572 484.373C288.572 483.084 287.518 482.439 286.023 482.439ZM301.141 472.918V489.969H296.951V487.42H293.611V484.051H296.951V482H293.699V478.631H296.951V472.918H301.141ZM291.941 490.32C297.684 490.32 301.258 492.078 301.287 495.066C301.258 498.025 297.684 499.842 291.941 499.812C286.17 499.842 282.566 498.025 282.566 495.066C282.566 492.078 286.17 490.32 291.941 490.32ZM291.941 493.484C288.719 493.514 287.02 493.953 287.02 495.066C287.02 496.15 288.719 496.648 291.941 496.648C295.076 496.648 296.746 496.15 296.746 495.066C296.746 493.953 295.076 493.514 291.941 493.484Z" fill="#222222"/>
<g filter="url(#filter0_d_444_10)">
<path fill-rule="evenodd" clip-rule="evenodd" d="M585 16C551.311 16 524 43.3106 524 77V253.794L463.636 288.147C460.267 290.065 460.267 294.921 463.636 296.838L524 331.192V507C524 540.689 551.311 568 585 568H1102C1135.69 568 1163 540.689 1163 507V77C1163 43.3106 1135.69 16 1102 16H585Z" fill="white"/>
</g>
<path d="M719.659 240.455C719.659 243.721 723.397 246.643 726.728 247.266L725.954 248.684C723.075 248.018 720.035 245.966 718.8 243.141C717.564 245.955 714.535 248.007 711.646 248.684L710.872 247.266C714.181 246.621 717.897 243.742 717.897 240.455V238.994H719.659V240.455ZM727.63 252.744V254.141H710.142V252.744H727.63ZM744.388 239.596V241.959C744.388 244.773 744.388 247.373 743.593 251.24L741.896 251.09C742.314 249.253 742.529 247.663 742.647 246.17L730.981 246.814L730.745 245.418L742.712 244.924C742.744 243.914 742.744 242.937 742.755 241.959V241.014H731.261V239.596H744.388ZM746.558 252.637V254.055H729.155V252.637H746.558ZM764.39 237.662V248.232H762.778V243.57H760.093V248.039H758.524V238.006H760.093V242.217H762.778V237.662H764.39ZM753.476 249.113V251.305H762.735V249.113H764.39V256.482H751.8V249.113H753.476ZM753.476 255.107H762.735V252.68H753.476V255.107ZM756.247 238.801V243.699H750.683V246.234C753.196 246.202 755.119 246.105 757.386 245.633L757.579 247.029C755.108 247.502 753.067 247.609 750.296 247.609H749.05V242.41H754.636V240.176H749.007V238.801H756.247ZM779.171 241.186C779.171 243.721 781.04 246.041 783.876 247.029L783.017 248.34C780.836 247.566 779.171 245.998 778.354 244.021C777.538 246.191 775.787 247.878 773.542 248.705L772.64 247.395C775.497 246.385 777.495 243.914 777.517 241.186V240.369H773.155V238.994H783.468V240.369H779.171V241.186ZM787.636 237.641V242.689H790.515V244.129H787.636V249.156H785.96V237.641H787.636ZM787.636 250.166V256.74H785.96V251.541H775.132V250.166H787.636ZM798.292 240.648C798.271 243.377 800.204 245.783 803.019 246.729L802.073 248.039C799.968 247.244 798.313 245.697 797.497 243.678C796.67 245.966 794.919 247.749 792.62 248.619L791.696 247.244C794.64 246.213 796.595 243.678 796.616 240.713V238.736H798.292V240.648ZM807.552 237.641V248.963H805.854V243.141H801.601V241.744H805.854V237.641H807.552ZM801.214 249.521C805.188 249.521 807.616 250.832 807.616 253.131C807.616 255.408 805.188 256.697 801.214 256.697C797.239 256.697 794.812 255.408 794.812 253.131C794.812 250.832 797.239 249.521 801.214 249.521ZM801.214 250.854C798.292 250.854 796.466 251.713 796.487 253.131C796.466 254.506 798.292 255.344 801.214 255.344C804.136 255.344 805.94 254.506 805.94 253.131C805.94 251.713 804.136 250.854 801.214 250.854ZM821.323 239.768V240.756C821.302 242.26 821.302 244.795 820.765 248.34L819.067 248.189C819.583 244.988 819.626 242.668 819.626 241.143H811.612V239.768H821.323ZM816.317 245.225V251.025C818.434 250.95 820.604 250.811 822.591 250.574L822.677 251.842C818.659 252.465 814.169 252.551 810.753 252.529L810.538 251.133C811.795 251.122 813.191 251.111 814.663 251.068V245.225H816.317ZM825.47 237.641V245.633H828.563V247.094H825.47V256.74H823.794V237.641H825.47ZM850.198 237.641V242.732H853.077V244.172H850.198V249.156H848.522V237.641H850.198ZM850.198 250.252V256.482H838.146V250.252H850.198ZM839.8 251.605V255.107H848.522V251.605H839.8ZM846.696 239.682V241.078H835.31V239.682H840.165V237.49H841.841V239.682H846.696ZM841.003 242.023C843.753 242.023 845.579 243.377 845.601 245.418C845.579 247.502 843.753 248.834 841.003 248.834C838.231 248.834 836.384 247.502 836.405 245.418C836.384 243.377 838.231 242.023 841.003 242.023ZM841.003 243.334C839.198 243.334 837.995 244.172 838.017 245.418C837.995 246.729 839.198 247.523 841.003 247.545C842.786 247.523 843.989 246.729 844.011 245.418C843.989 244.172 842.786 243.334 841.003 243.334ZM859.028 239.961C859.007 243.979 858.448 248.49 855.655 252.186L854.323 251.412C856.719 248.415 857.428 244.881 857.567 241.357H854.71V239.961H859.028ZM863.261 239.961C863.25 241.519 863.218 243.312 862.981 245.16H865.517V238.156H867.128V255.773H865.517V246.557H862.767C862.326 248.941 861.488 251.358 859.931 253.453L858.62 252.658C861.263 249.285 861.703 244.924 861.778 241.357H859.63V239.961H863.261ZM870.716 237.641V256.74H869.083V237.641H870.716ZM894.241 246.6V247.975H888.333V252.916H896.304V254.334H878.815V252.916H886.679V247.975H881.05V239.209H894.048V240.584H882.747V246.6H894.241ZM913.663 237.662V251.67H911.966V244.344H908.034V242.947H911.966V237.662H913.663ZM914.2 254.914V256.332H901.396V250.402H903.093V254.914H914.2ZM904.468 241.594C904.468 244.064 906.38 246.471 909.173 247.416L908.292 248.77C906.133 247.996 904.468 246.385 903.651 244.408C902.824 246.61 901.062 248.372 898.796 249.221L897.915 247.846C900.729 246.857 902.771 244.344 902.771 241.594V240.605H898.452V239.209H908.743V240.605H904.468V241.594ZM925.544 237.984C929.798 237.984 932.29 239.145 932.29 241.271C932.29 243.441 929.798 244.602 925.544 244.623C921.29 244.602 918.776 243.441 918.776 241.271C918.776 239.145 921.29 237.984 925.544 237.984ZM925.544 239.252C922.364 239.252 920.517 240.025 920.538 241.271C920.517 242.604 922.364 243.334 925.544 243.334C928.702 243.334 930.571 242.604 930.571 241.271C930.571 240.025 928.702 239.252 925.544 239.252ZM934.245 245.912V247.287H916.843V245.912H934.245ZM932.011 248.941V253.217H920.667V255.193H932.591V256.525H918.991V251.971H930.356V250.23H918.948V248.941H932.011ZM956.159 237.641V245.525H959.36V246.922H956.159V256.74H954.483V237.641H956.159ZM952.636 240.713V242.109H941.271V240.713H946.19V237.877H947.866V240.713H952.636ZM947.05 243.699C949.757 243.699 951.712 245.504 951.733 248.082C951.712 250.66 949.757 252.465 947.05 252.465C944.321 252.465 942.345 250.66 942.366 248.082C942.345 245.504 944.321 243.699 947.05 243.699ZM947.05 245.117C945.267 245.117 943.956 246.363 943.978 248.082C943.956 249.822 945.267 251.047 947.05 251.025C948.812 251.047 950.101 249.822 950.122 248.082C950.101 246.363 948.812 245.117 947.05 245.117ZM969.866 239.553V242.238H974.55V237.641H976.226V256.783H974.55V248.898H969.866V251.906H961.165V239.553H969.866ZM962.841 240.885V250.553H968.233V240.885H962.841ZM969.866 247.502H974.55V243.635H969.866V247.502ZM738.823 264.467V265.885H731.755V275.617C735.192 275.617 737.47 275.499 740.112 274.994L740.327 276.391C737.513 276.928 735.192 277.057 731.519 277.057H730.058V264.467H738.823ZM744.946 262.641V281.783H743.249V270.998H737.685V269.602H743.249V262.641H744.946ZM756.462 263.629V270.418C759.448 270.407 761.973 270.257 764.755 269.688L765.013 271.105C762.005 271.686 759.405 271.836 756.226 271.836H754.765V263.629H756.462ZM769.46 262.641V272.824H767.763V267.238H762.263V265.842H767.763V262.641H769.46ZM764.862 273.533V276.047H767.913V273.533H769.46V281.525H763.315V273.533H764.862ZM764.862 280.172H767.913V277.379H764.862V280.172ZM762.134 273.77V278.109H757.644V280.193C759.717 280.183 760.941 280.14 762.563 279.871L762.714 281.16C760.931 281.482 759.534 281.525 756.978 281.525H755.989V276.863H760.501V275.059H755.946V273.77H762.134ZM790.042 272.717V274.092H772.64V272.717H790.042ZM788.108 279.914V281.332H774.896V275.768H776.593V279.914H788.108ZM781.341 263.328C785.444 263.307 788.087 264.725 788.087 267.109C788.087 269.494 785.444 270.912 781.341 270.912C777.194 270.912 774.573 269.494 774.573 267.109C774.573 264.725 777.194 263.307 781.341 263.328ZM781.341 264.682C778.269 264.682 776.292 265.605 776.313 267.109C776.292 268.613 778.269 269.537 781.341 269.537C784.392 269.537 786.368 268.613 786.368 267.109C786.368 265.605 784.392 264.682 781.341 264.682ZM802.847 268.076C802.847 271.105 804.329 274.393 806.864 275.896L805.897 277.207C804.061 276.09 802.739 274.049 802.073 271.729C801.364 274.264 799.946 276.444 798.034 277.615L796.96 276.348C799.603 274.801 801.214 271.406 801.214 268.141V264.445H802.847V268.076ZM813.546 262.641V281.74H811.913V262.641H813.546ZM809.593 263.049V280.773H808.003V270.934H804.759V269.494H808.003V263.049H809.593ZM822.569 265.734C822.569 268.334 824.546 270.719 827.317 271.664L826.394 272.996C824.277 272.223 822.612 270.644 821.774 268.656C820.958 270.901 819.261 272.674 817.026 273.533L816.124 272.18C818.981 271.105 820.894 268.549 820.915 265.605V263.629H822.569V265.734ZM831.12 262.641V267.625H833.999V269.043H831.12V274.264H829.444V262.641H831.12ZM824.997 274.758C828.929 274.758 831.292 276.025 831.292 278.217C831.292 280.451 828.929 281.697 824.997 281.697C821.065 281.697 818.659 280.451 818.659 278.217C818.659 276.025 821.065 274.758 824.997 274.758ZM824.997 276.111C822.118 276.111 820.335 276.906 820.356 278.217C820.335 279.57 822.118 280.344 824.997 280.365C827.897 280.344 829.659 279.57 829.659 278.217C829.659 276.906 827.897 276.111 824.997 276.111ZM843.903 262.984C848.157 262.984 850.649 264.145 850.649 266.271C850.649 268.441 848.157 269.602 843.903 269.623C839.649 269.602 837.136 268.441 837.136 266.271C837.136 264.145 839.649 262.984 843.903 262.984ZM843.903 264.252C840.724 264.252 838.876 265.025 838.897 266.271C838.876 267.604 840.724 268.334 843.903 268.334C847.062 268.334 848.931 267.604 848.931 266.271C848.931 265.025 847.062 264.252 843.903 264.252ZM852.604 270.912V272.287H835.202V270.912H852.604ZM850.37 273.941V278.217H839.026V280.193H850.95V281.525H837.351V276.971H848.716V275.23H837.308V273.941H850.37ZM875.571 262.641V272.867H873.874V269.988H870.673V268.613H873.874V266.809H870.673V265.455H873.874V262.641H875.571ZM870.458 263.887V265.262H868.503V270.611C869.395 270.558 870.265 270.482 871.081 270.396L871.167 271.643C867.493 272.201 863.175 272.244 859.974 272.244L859.78 270.805L862.251 270.783V265.262H860.317V263.887H870.458ZM875.571 273.77V278.152H864.894V280.172H876.28V281.525H863.239V276.863H873.896V275.102H863.196V273.77H875.571ZM863.884 270.762C864.861 270.762 865.871 270.729 866.87 270.697V265.262H863.884V270.762ZM894.563 262.641V281.783H892.888V274.092H888.956V272.695H892.888V270.117H888.956V268.699H892.888V262.641H894.563ZM885.347 268.871C885.347 272.029 887.495 275.145 890.331 276.412L889.364 277.723C887.194 276.724 885.39 274.629 884.552 272.094C883.714 274.769 881.931 276.992 879.761 278.045L878.794 276.734C881.587 275.424 883.692 272.158 883.692 268.871V267.346H879.31V265.971H883.692V263.006H885.368V265.971H889.687V267.346H885.347V268.871ZM915.253 277.895V279.291H897.765V277.895H905.628V273.77H899.827V263.994H901.524V267.453H911.45V263.994H913.104V273.77H907.282V277.895H915.253ZM901.524 272.395H911.45V268.828H901.524V272.395ZM922.45 268.076C922.45 271.105 923.933 274.393 926.468 275.896L925.501 277.207C923.664 276.09 922.343 274.049 921.677 271.729C920.968 274.264 919.55 276.444 917.638 277.615L916.563 276.348C919.206 274.801 920.817 271.406 920.817 268.141V264.445H922.45V268.076ZM933.149 262.641V281.74H931.517V262.641H933.149ZM929.196 263.049V280.773H927.606V270.934H924.362V269.494H927.606V263.049H929.196ZM953.28 277.873V279.291H935.792V277.873H940.132V272.717C938.499 271.868 937.511 270.493 937.511 268.764C937.511 265.799 940.411 263.865 944.493 263.844C948.575 263.865 951.476 265.799 951.476 268.764C951.476 270.461 950.52 271.825 948.94 272.674V277.873H953.28ZM944.493 265.24C941.356 265.219 939.144 266.637 939.144 268.764C939.144 270.891 941.356 272.33 944.493 272.33C947.608 272.33 949.843 270.891 949.843 268.764C949.843 266.637 947.608 265.219 944.493 265.24ZM941.786 277.873H947.243V273.318C946.416 273.544 945.492 273.662 944.493 273.662C943.516 273.662 942.603 273.555 941.786 273.34V277.873ZM957.899 264.445L957.749 275.617H955.944L955.794 264.445H957.899ZM956.847 280.129C956.095 280.129 955.45 279.506 955.472 278.732C955.45 277.98 956.095 277.357 956.847 277.357C957.599 277.357 958.222 277.98 958.222 278.732C958.222 279.506 957.599 280.129 956.847 280.129Z" fill="#222222"/>
<path d="M696.467 192.662V198.441H699.324V199.859H696.467V206.24H694.77V192.662H696.467ZM691.375 205.596C691.375 208.109 694.361 209.871 697.82 210.344L697.176 211.654C694.275 211.192 691.644 209.936 690.516 207.895C689.377 209.936 686.734 211.192 683.834 211.654L683.211 210.344C686.67 209.871 689.656 208.109 689.656 205.596V204.951H691.375V205.596ZM681.535 202.459C683.028 202.459 684.769 202.448 686.584 202.373V200.59C684.221 200.343 682.652 198.957 682.674 197.002C682.652 194.854 684.586 193.414 687.379 193.393C690.172 193.414 692.105 194.854 692.105 197.002C692.105 198.925 690.58 200.3 688.281 200.568V202.309C690.075 202.212 691.88 202.062 693.545 201.814L693.674 203.018C689.635 203.748 685.059 203.812 681.75 203.812L681.535 202.459ZM687.379 194.682C685.531 194.682 684.242 195.605 684.242 197.002C684.242 198.398 685.531 199.344 687.379 199.344C689.227 199.344 690.516 198.398 690.516 197.002C690.516 195.605 689.227 194.682 687.379 194.682ZM718.059 207.873V209.291H700.57V207.873H718.059ZM710.152 197.109C710.152 200.268 713.311 202.652 716.941 203.297L716.254 204.672C713.235 204.06 710.485 202.405 709.293 199.902C708.079 202.405 705.329 204.06 702.311 204.672L701.645 203.297C705.254 202.652 708.434 200.268 708.434 197.109H702.203V195.734H708.455V193.113H710.109V195.734H716.383V197.109H710.152ZM734.902 194.574V196.486C734.881 198.828 734.881 201.449 734.193 205.295L732.475 205.102C733.205 201.449 733.205 198.764 733.205 196.486V195.971H721.432V194.574H734.902ZM736.986 207.637V209.033H719.584V207.637H726.416V200.805H728.07V207.637H736.986ZM754.367 192.662V204.027H752.691V192.662H754.367ZM747.986 204.414C751.961 204.414 754.41 205.746 754.432 208.045C754.41 210.365 751.961 211.697 747.986 211.697C743.969 211.697 741.541 210.365 741.541 208.045C741.541 205.746 743.969 204.414 747.986 204.414ZM747.986 205.746C745.021 205.746 743.238 206.605 743.238 208.045C743.238 209.484 745.021 210.344 747.986 210.344C750.93 210.344 752.756 209.484 752.756 208.045C752.756 206.605 750.93 205.746 747.986 205.746ZM744.055 193.865C746.955 193.887 749.061 195.691 749.061 198.334C749.061 200.977 746.955 202.76 744.055 202.781C741.154 202.76 739.049 200.977 739.049 198.334C739.049 195.691 741.154 193.887 744.055 193.865ZM744.055 195.326C742.1 195.305 740.682 196.529 740.703 198.334C740.682 200.117 742.1 201.342 744.055 201.363C745.988 201.342 747.406 200.117 747.406 198.334C747.406 196.529 745.988 195.305 744.055 195.326ZM775.014 202.824V204.221H757.611V202.824H765.475V200.826C761.812 200.644 759.545 199.258 759.545 197.002C759.545 194.66 762.166 193.221 766.312 193.221C770.416 193.221 773.059 194.66 773.059 197.002C773.059 199.258 770.771 200.644 767.15 200.826V202.824H775.014ZM773.08 209.914V211.332H759.867V205.768H761.564V209.914H773.08ZM766.312 194.596C763.24 194.596 761.264 195.541 761.285 197.002C761.264 198.549 763.24 199.451 766.312 199.451C769.363 199.451 771.34 198.549 771.34 197.002C771.34 195.541 769.363 194.596 766.312 194.596ZM787.217 194.768V195.756C787.195 197.26 787.195 199.795 786.658 203.34L784.961 203.189C785.477 199.988 785.52 197.668 785.52 196.143H777.506V194.768H787.217ZM782.211 200.225V206.025C784.327 205.95 786.497 205.811 788.484 205.574L788.57 206.842C784.553 207.465 780.062 207.551 776.646 207.529L776.432 206.133C777.688 206.122 779.085 206.111 780.557 206.068V200.225H782.211ZM791.363 192.641V200.633H794.457V202.094H791.363V211.74H789.688V192.641H791.363ZM816.092 192.641V197.732H818.971V199.172H816.092V204.156H814.416V192.641H816.092ZM816.092 205.252V211.482H804.039V205.252H816.092ZM805.693 206.605V210.107H814.416V206.605H805.693ZM812.59 194.682V196.078H801.203V194.682H806.059V192.49H807.734V194.682H812.59ZM806.896 197.023C809.646 197.023 811.473 198.377 811.494 200.418C811.473 202.502 809.646 203.834 806.896 203.834C804.125 203.834 802.277 202.502 802.299 200.418C802.277 198.377 804.125 197.023 806.896 197.023ZM806.896 198.334C805.092 198.334 803.889 199.172 803.91 200.418C803.889 201.729 805.092 202.523 806.896 202.545C808.68 202.523 809.883 201.729 809.904 200.418C809.883 199.172 808.68 198.334 806.896 198.334ZM824.922 194.961C824.9 198.979 824.342 203.49 821.549 207.186L820.217 206.412C822.612 203.415 823.321 199.881 823.461 196.357H820.604V194.961H824.922ZM829.154 194.961C829.144 196.519 829.111 198.312 828.875 200.16H831.41V193.156H833.021V210.773H831.41V201.557H828.66C828.22 203.941 827.382 206.358 825.824 208.453L824.514 207.658C827.156 204.285 827.597 199.924 827.672 196.357H825.523V194.961H829.154ZM836.609 192.641V211.74H834.977V192.641H836.609ZM850.381 198.076C850.381 201.105 851.863 204.393 854.398 205.896L853.432 207.207C851.595 206.09 850.273 204.049 849.607 201.729C848.898 204.264 847.48 206.444 845.568 207.615L844.494 206.348C847.137 204.801 848.748 201.406 848.748 198.141V194.445H850.381V198.076ZM861.08 192.641V211.74H859.447V192.641H861.08ZM857.127 193.049V210.773H855.537V200.934H852.293V199.494H855.537V193.049H857.127ZM880.072 192.641V211.74H878.461V192.641H880.072ZM876.205 193.156V210.773H874.594V204.156H871.049V202.76H874.594V199.365H871.371C870.437 202.599 868.342 205.456 864.732 207.615L863.701 206.391C867.858 203.931 869.942 200.482 870.275 196.486H864.561V195.09H871.951C871.951 196.067 871.865 197.034 871.693 197.969H874.594V193.156H876.205ZM900.203 201.514V202.846H882.715V201.514H900.203ZM898.012 204.371V208.432H886.539V210.258H898.635V211.482H884.842V207.271H896.336V205.639H884.82V204.371H898.012ZM897.947 193.221V197.174H886.668V198.85H898.291V200.074H884.992V196.014H896.25V194.445H884.928V193.221H897.947ZM916.961 193.822V195.24H909.85V197.625H916.596V199.021H909.85V201.557C913.566 201.578 915.704 201.503 918.207 201.02L918.4 202.395C915.758 202.867 913.566 202.932 909.613 202.91H908.174V193.822H916.961ZM922.203 204.887V211.482H910.15V204.887H922.203ZM911.805 206.24V210.107H920.527V206.24H911.805ZM922.203 192.641V197.389H925.082V198.828H922.203V203.898H920.527V192.641H922.203ZM942.119 192.641V204.221H940.422V199.859H937.178V198.463H940.422V192.641H942.119ZM942.119 205.252V211.482H929.637V205.252H942.119ZM931.312 206.605V210.107H940.465V206.605H931.312ZM937.457 194.66V196.035H926.307V194.66H931.055V192.469H932.709V194.66H937.457ZM931.871 197.023C934.471 197.023 936.297 198.42 936.318 200.418C936.297 202.48 934.471 203.834 931.871 203.834C929.271 203.834 927.445 202.48 927.445 200.418C927.445 198.42 929.271 197.023 931.871 197.023ZM931.871 198.334C930.217 198.334 929.057 199.193 929.057 200.418C929.057 201.686 930.217 202.523 931.871 202.545C933.525 202.523 934.686 201.686 934.686 200.418C934.686 199.193 933.525 198.334 931.871 198.334ZM954.838 195.949V197.324H945.256V195.949H949.23V193.221H950.906V195.949H954.838ZM950.047 198.613C952.453 198.613 954.172 200.418 954.193 202.953C954.172 205.51 952.453 207.336 950.047 207.336C947.662 207.336 945.943 205.51 945.943 202.953C945.943 200.418 947.662 198.613 950.047 198.613ZM950.047 200.031C948.543 200.053 947.447 201.277 947.447 202.953C947.447 204.65 948.543 205.875 950.047 205.854C951.572 205.875 952.689 204.65 952.689 202.953C952.689 201.277 951.572 200.053 950.047 200.031ZM961.562 192.641V211.74H959.951V202.094H957.416V210.795H955.826V193.113H957.416V200.697H959.951V192.641H961.562ZM967.041 194.23V197.152H973.25V194.23H974.926V202.824H970.994V206.24C972.756 206.176 974.528 206.047 976.172 205.832L976.279 207.1C972.24 207.744 967.707 207.809 964.355 207.83L964.076 206.391C965.634 206.38 967.428 206.369 969.297 206.305V202.824H965.365V194.23H967.041ZM967.041 201.449H973.25V198.463H967.041V201.449ZM979.072 192.641V200.676H982.188V202.094H979.072V211.74H977.396V192.641H979.072ZM1000.81 207.873V209.291H983.326V207.873H987.666V202.717C986.033 201.868 985.045 200.493 985.045 198.764C985.045 195.799 987.945 193.865 992.027 193.844C996.109 193.865 999.01 195.799 999.01 198.764C999.01 200.461 998.054 201.825 996.475 202.674V207.873H1000.81ZM992.027 195.24C988.891 195.219 986.678 196.637 986.678 198.764C986.678 200.891 988.891 202.33 992.027 202.33C995.143 202.33 997.377 200.891 997.377 198.764C997.377 196.637 995.143 195.219 992.027 195.24ZM989.32 207.873H994.777V203.318C993.95 203.544 993.026 203.662 992.027 203.662C991.05 203.662 990.137 203.555 989.32 203.34V207.873ZM1005.43 194.445L1005.28 205.617H1003.48L1003.33 194.445H1005.43ZM1004.38 210.129C1003.63 210.129 1002.98 209.506 1003.01 208.732C1002.98 207.98 1003.63 207.357 1004.38 207.357C1005.13 207.357 1005.76 207.98 1005.76 208.732C1005.76 209.506 1005.13 210.129 1004.38 210.129Z" fill="#222222"/>
<path d="M621.199 370.6V371.975H615.291V376.916H623.262V378.334H605.773V376.916H613.637V371.975H608.008V363.209H621.006V364.584H609.705V370.6H621.199ZM635.766 363.725V365.121H633.639V374.316C634.67 374.241 635.69 374.155 636.668 374.037L636.754 375.283C632.715 375.928 628.139 375.992 624.766 376.014L624.551 374.574L627.129 374.553V365.121H625.023V363.725H635.766ZM639.568 361.641V369.311H642.77V370.729H639.568V380.74H637.893V361.641H639.568ZM628.762 374.531C629.825 374.51 630.932 374.467 632.027 374.402V365.121H628.762V374.531ZM653.77 363.316V372.168H644.811V363.316H653.77ZM646.465 364.713V370.814H652.115V364.713H646.465ZM659.57 361.662V375.391H657.895V361.662H659.57ZM660.172 378.699V380.096H647.238V374.059H648.914V378.699H660.172ZM673.643 363.789V365.164H662.836V363.789H667.477V361.49H669.152V363.789H673.643ZM668.293 366.152C670.85 366.152 672.654 367.549 672.654 369.676C672.654 371.824 670.85 373.221 668.293 373.221C665.715 373.221 663.953 371.824 663.975 369.676C663.953 367.549 665.715 366.152 668.293 366.152ZM668.293 367.42C666.639 367.441 665.543 368.344 665.543 369.676C665.543 371.029 666.639 371.91 668.293 371.91C669.947 371.91 671.064 371.029 671.086 369.676C671.064 368.344 669.947 367.441 668.293 367.42ZM678.648 361.641V373.994H676.951V371.352H673.621V369.955H676.951V367.635H673.643V366.238H676.951V361.641H678.648ZM672.354 374.188C676.328 374.188 678.756 375.369 678.756 377.453C678.756 379.494 676.328 380.697 672.354 380.697C668.336 380.697 665.93 379.494 665.93 377.453C665.93 375.369 668.336 374.188 672.354 374.188ZM672.354 375.498C669.453 375.498 667.67 376.207 667.67 377.453C667.67 378.656 669.453 379.387 672.354 379.387C675.211 379.387 676.973 378.656 676.973 377.453C676.973 376.207 675.211 375.498 672.354 375.498Z" fill="#222222"/>
<path d="M621.199 420.6V421.975H615.291V426.916H623.262V428.334H605.773V426.916H613.637V421.975H608.008V413.209H621.006V414.584H609.705V420.6H621.199ZM640.621 411.662V425.67H638.924V418.344H634.992V416.947H638.924V411.662H640.621ZM641.158 428.914V430.332H628.354V424.402H630.051V428.914H641.158ZM631.426 415.594C631.426 418.064 633.338 420.471 636.131 421.416L635.25 422.77C633.091 421.996 631.426 420.385 630.609 418.408C629.782 420.61 628.021 422.372 625.754 423.221L624.873 421.846C627.688 420.857 629.729 418.344 629.729 415.594V414.605H625.41V413.209H635.701V414.605H631.426V415.594ZM654.629 413.789V415.164H643.822V413.789H648.463V411.49H650.139V413.789H654.629ZM649.279 416.152C651.836 416.152 653.641 417.549 653.641 419.676C653.641 421.824 651.836 423.221 649.279 423.221C646.701 423.221 644.939 421.824 644.961 419.676C644.939 417.549 646.701 416.152 649.279 416.152ZM649.279 417.42C647.625 417.441 646.529 418.344 646.529 419.676C646.529 421.029 647.625 421.91 649.279 421.91C650.934 421.91 652.051 421.029 652.072 419.676C652.051 418.344 650.934 417.441 649.279 417.42ZM659.635 411.641V423.994H657.938V421.352H654.607V419.955H657.938V417.635H654.629V416.238H657.938V411.641H659.635ZM653.34 424.188C657.314 424.188 659.742 425.369 659.742 427.453C659.742 429.494 657.314 430.697 653.34 430.697C649.322 430.697 646.916 429.494 646.916 427.453C646.916 425.369 649.322 424.188 653.34 424.188ZM653.34 425.498C650.439 425.498 648.656 426.207 648.656 427.453C648.656 428.656 650.439 429.387 653.34 429.387C656.197 429.387 657.959 428.656 657.959 427.453C657.959 426.207 656.197 425.498 653.34 425.498Z" fill="#222222"/>
<path d="M623.24 474.748V476.145H615.27V482.74H613.615V476.145H605.752V474.748H623.24ZM620.963 464.715V472.148H608.008V464.715H620.963ZM609.662 466.09V470.816H619.287V466.09H609.662ZM639.719 463.641V468.324H642.598V469.721H639.719V474.49H638.043V463.641H639.719ZM634.498 464.887C634.477 469.699 631.104 473.137 625.453 474.684L624.766 473.33C629.471 472.062 632.339 469.517 632.693 466.283H625.625V464.887H634.498ZM639.719 475.371V482.482H627.623V475.371H639.719ZM629.299 476.768V481.107H638.043V476.768H629.299ZM658.732 463.641V468.496H661.611V469.936H658.732V474.855H657.057V463.641H658.732ZM653.49 464.865C653.49 469.699 650.117 473.137 644.467 474.641L643.779 473.33C648.463 472.062 651.353 469.506 651.707 466.262H644.639V464.865H653.49ZM658.732 475.736V482.74H657.057V477.111H646.229V475.736H658.732ZM673.643 465.789V467.164H662.836V465.789H667.477V463.49H669.152V465.789H673.643ZM668.293 468.152C670.85 468.152 672.654 469.549 672.654 471.676C672.654 473.824 670.85 475.221 668.293 475.221C665.715 475.221 663.953 473.824 663.975 471.676C663.953 469.549 665.715 468.152 668.293 468.152ZM668.293 469.42C666.639 469.441 665.543 470.344 665.543 471.676C665.543 473.029 666.639 473.91 668.293 473.91C669.947 473.91 671.064 473.029 671.086 471.676C671.064 470.344 669.947 469.441 668.293 469.42ZM678.648 463.641V475.994H676.951V473.352H673.621V471.955H676.951V469.635H673.643V468.238H676.951V463.641H678.648ZM672.354 476.188C676.328 476.188 678.756 477.369 678.756 479.453C678.756 481.494 676.328 482.697 672.354 482.697C668.336 482.697 665.93 481.494 665.93 479.453C665.93 477.369 668.336 476.188 672.354 476.188ZM672.354 477.498C669.453 477.498 667.67 478.207 667.67 479.453C667.67 480.656 669.453 481.387 672.354 481.387C675.211 481.387 676.973 480.656 676.973 479.453C676.973 478.207 675.211 477.498 672.354 477.498Z" fill="#222222"/>
<rect x="707" y="359" width="375" height="24" rx="12" fill="#E6E6E6"/>
<rect x="707" y="411" width="375" height="24" rx="12" fill="#E6E6E6"/>
<rect x="707" y="463" width="375" height="24" rx="12" fill="#E6E6E6"/>
<rect x="707" y="359" width="322" height="24" rx="12" fill="#8F8F8F"/>
<rect x="707" y="411" width="375" height="24" rx="12" fill="#8F8F8F"/>
<rect x="707" y="463" width="250" height="24" rx="12" fill="#8F8F8F"/>
<path d="M831.206 92.6406V97.625H834.063V99.043H831.206V104.049H829.509V92.6406H831.206ZM825.062 104.414C828.95 104.414 831.356 105.768 831.356 108.045C831.356 110.365 828.95 111.697 825.062 111.697C821.151 111.697 818.724 110.365 818.724 108.045C818.724 105.768 821.151 104.414 825.062 104.414ZM825.062 105.811C822.183 105.789 820.378 106.648 820.378 108.045C820.378 109.463 822.183 110.344 825.062 110.344C827.919 110.344 829.724 109.463 829.724 108.045C829.724 106.648 827.919 105.789 825.062 105.811ZM825.62 94.1016V95.498H818.788V101.105C822.655 101.084 824.89 100.966 827.446 100.439L827.618 101.836C824.954 102.373 822.655 102.48 818.616 102.48H817.134V94.1016H825.62ZM851.036 92.6621V106.67H849.36V92.6621H851.036ZM851.638 109.914V111.332H838.704V105.381H840.38V109.914H851.638ZM842.034 95.6484C842.013 98.5488 844.011 101.17 846.847 102.201L845.966 103.555C843.753 102.706 842.034 100.987 841.196 98.7852C840.348 101.127 838.607 103.007 836.384 103.898L835.46 102.588C838.36 101.471 840.315 98.6562 840.315 95.6484V93.7363H842.034V95.6484ZM871.683 102.717V104.092H854.28V102.717H871.683ZM869.749 109.914V111.332H856.536V105.768H858.233V109.914H869.749ZM862.981 93.3281C867.085 93.3066 869.728 94.7246 869.728 97.1094C869.728 99.4941 867.085 100.912 862.981 100.912C858.835 100.912 856.214 99.4941 856.214 97.1094C856.214 94.7246 858.835 93.3066 862.981 93.3281ZM862.981 94.6816C859.909 94.6816 857.933 95.6055 857.954 97.1094C857.933 98.6133 859.909 99.5371 862.981 99.5371C866.032 99.5371 868.009 98.6133 868.009 97.1094C868.009 95.6055 866.032 94.6816 862.981 94.6816Z" fill="#222222"/>
<path d="M748.028 132.38L750.201 125.324H753.058L751.886 132.38H748.028ZM753.717 132.38L755.89 125.324H758.746L757.574 132.38H753.717ZM785.479 122.932V136.945H782.135V131.159H780.743V136.213H777.447V123.347H780.743V128.303H782.135V122.932H785.479ZM776.886 125.129V127.839H766.046V125.129H769.732V123.151H773.224V125.129H776.886ZM771.49 128.449C774.347 128.449 776.422 130.036 776.422 132.38C776.422 134.699 774.347 136.286 771.49 136.286C768.707 136.286 766.632 134.699 766.632 132.38C766.632 130.036 768.707 128.449 771.49 128.449ZM771.49 130.964C770.465 130.939 769.781 131.452 769.781 132.38C769.781 133.308 770.465 133.82 771.49 133.82C772.54 133.82 773.248 133.308 773.248 132.38C773.248 131.452 772.54 130.939 771.49 130.964ZM777.74 137.092C782.623 137.092 785.577 138.605 785.602 141.218C785.577 143.854 782.623 145.368 777.74 145.344C772.906 145.368 769.903 143.854 769.928 141.218C769.903 138.605 772.906 137.092 777.74 137.092ZM777.74 139.704C774.859 139.704 773.419 140.168 773.443 141.218C773.419 142.243 774.859 142.707 777.74 142.707C780.67 142.707 782.037 142.243 782.062 141.218C782.037 140.168 780.67 139.704 777.74 139.704ZM808.258 133.356V136.115H787.774V133.356H796.295V131.672H790.216V123.908H805.841V126.643H793.731V128.913H805.938V131.672H799.762V133.356H808.258ZM797.955 137.067C802.838 137.067 805.768 138.557 805.768 141.242C805.768 143.879 802.838 145.393 797.955 145.393C793.048 145.393 790.069 143.879 790.069 141.242C790.069 138.557 793.048 137.067 797.955 137.067ZM797.955 139.729C795.001 139.729 793.634 140.217 793.658 141.242C793.634 142.292 795.001 142.707 797.955 142.707C800.836 142.707 802.252 142.292 802.252 141.242C802.252 140.217 800.836 139.729 797.955 139.729ZM822.125 124.885V127.692H820.27V137.116C821.087 137.055 821.893 136.97 822.662 136.872L822.833 139.387C818.316 140.217 813.263 140.314 809.454 140.314L809.088 137.482L811.48 137.458V127.692H809.649V124.885H822.125ZM827.154 122.932V131.33H830.328V134.162H827.154V145.344H823.639V122.932H827.154ZM814.874 137.385L816.9 137.336V127.692H814.874V137.385ZM854.889 132.819V135.578H848.517V140.021H857.062V142.878H836.578V140.021H845.05V135.578H838.922V124.445H854.742V127.229H842.438V132.819H854.889ZM869 124.47V131.843H862.506V134.016C865.301 133.991 867.352 133.857 869.61 133.454L870.001 136.286C867.145 136.774 864.605 136.848 860.748 136.848H858.99V129.255H865.46V127.253H858.99V124.47H869ZM877.154 122.956V139.509H873.663V134.089H870.221V131.281H873.663V129.011H870.221V126.228H873.663V122.956H877.154ZM877.691 142.121V144.978H861.993V138.215H865.484V142.121H877.691ZM898.59 122.932V135.456H895.099V122.932H898.59ZM884.552 124.226V131.623C887.848 131.586 890.57 131.354 893.39 130.744L893.78 133.576C890.411 134.309 887.091 134.553 883.014 134.577H881.036V124.226H884.552ZM898.59 136.335V145.075H883.502V136.335H898.59ZM886.944 139.069V142.341H895.147V139.069H886.944ZM913.824 124.86V127.619H901.471V124.86H906.061V122.736H909.576V124.86H913.824ZM907.77 128.254C910.87 128.254 913.141 129.987 913.165 132.478C913.141 134.968 910.87 136.652 907.77 136.652C904.669 136.652 902.472 134.968 902.472 132.478C902.472 129.987 904.669 128.254 907.77 128.254ZM907.77 130.866C906.549 130.866 905.743 131.403 905.743 132.478C905.743 133.552 906.549 134.064 907.77 134.064C909.015 134.064 909.894 133.552 909.894 132.478C909.894 131.403 909.015 130.866 907.77 130.866ZM920.367 122.932V137.141H916.876V135.017H914.093V132.209H916.876V130.5H914.166V127.692H916.876V122.932H920.367ZM912.701 137.434C917.486 137.434 920.465 138.898 920.489 141.389C920.465 143.854 917.486 145.368 912.701 145.344C907.892 145.368 904.889 143.854 904.889 141.389C904.889 138.898 907.892 137.434 912.701 137.434ZM912.701 140.07C910.016 140.095 908.6 140.461 908.6 141.389C908.6 142.292 910.016 142.707 912.701 142.707C915.313 142.707 916.705 142.292 916.705 141.389C916.705 140.461 915.313 140.095 912.701 140.07ZM928.57 132.38L930.743 125.324H933.6L932.428 132.38H928.57ZM934.259 132.38L936.432 125.324H939.288L938.116 132.38H934.259Z" fill="black"/>
<path d="M328.451 164.4V415.67H88.1309V102.42H269.581L328.451 164.4Z" fill="#D9D9D9" stroke="black" stroke-width="2" stroke-miterlimit="10"/>
<path d="M269.581 102.42C269.581 102.42 262.091 161.94 269.581 169.47C277.071 177 306.911 156.76 328.451 164.39" fill="#F4F4F4"/>
<path d="M269.581 102.42C269.581 102.42 262.091 161.94 269.581 169.47C277.071 177 306.911 156.76 328.451 164.39" stroke="black" stroke-width="2" stroke-miterlimit="10" stroke-linecap="round"/>
<path d="M108.949 162.53C108.949 162.53 135.339 150.28 142.879 153.11C150.419 155.94 157.019 165.36 159.839 167.25C162.669 169.13 182.459 181.39 182.459 181.39" stroke="black" stroke-width="2" stroke-miterlimit="10" stroke-linecap="round"/>
<path d="M257.85 174.779C257.85 174.779 288.01 150.279 298.37 150.279C308.73 150.279 313.45 157.819 313.45 157.819" stroke="black" stroke-width="2" stroke-miterlimit="10" stroke-linecap="round"/>
<path d="M246.539 216.239C246.539 216.239 262.869 199.279 289.419 198.329C289.419 198.329 279.209 193.619 275.129 193.619C271.049 193.619 256.749 201.159 254.709 203.989C252.669 206.819 246.539 216.239 246.539 216.239Z" fill="black" stroke="black" stroke-width="2" stroke-miterlimit="10" stroke-linecap="round"/>
<path d="M118.369 208.7C118.369 208.7 122.139 203.99 132.509 203.99C139.439 203.99 149.729 205.67 155.789 206.79C159.019 207.38 162.049 208.73 164.649 210.73L174.829 218.51C175.199 218.79 175.679 218.34 175.419 217.95L168.709 207.89C166.649 204.79 163.419 202.66 159.759 201.99L140.079 198.35C140.079 198.35 140.029 198.35 139.999 198.35C139.139 198.35 124.759 198.66 118.359 208.72L118.369 208.7Z" fill="black" stroke="black" stroke-width="2" stroke-miterlimit="10" stroke-linecap="round"/>
<path d="M233.35 243.571C233.35 243.571 239 242.631 239.95 247.341" stroke="black" stroke-width="2" stroke-miterlimit="10" stroke-linecap="round"/>
<path d="M259.729 283.151C259.729 283.151 253.129 287.861 238.049 286.921C222.969 285.981 187.159 284.771 182.449 283.961C177.739 283.151 164.539 276.551 159.829 269.011C155.119 261.471 150.409 261.471 148.519 261.471C146.629 261.471 144.749 290.881 145.689 295.031C146.629 299.171 154.169 311.421 158.879 313.311C163.589 315.201 182.439 315.191 189.979 318.021C197.519 320.851 214.479 318.961 216.369 316.141C218.259 313.321 241.529 290.451 241.529 290.451" fill="white"/>
<path d="M259.729 283.151C259.729 283.151 253.129 287.861 238.049 286.921C222.969 285.981 187.159 284.771 182.449 283.961C177.739 283.151 164.539 276.551 159.829 269.011C155.119 261.471 150.409 261.471 148.519 261.471C146.629 261.471 144.749 290.881 145.689 295.031C146.629 299.171 154.169 311.421 158.879 313.311C163.589 315.201 182.439 315.191 189.979 318.021C197.519 320.851 214.479 318.961 216.369 316.141C218.259 313.321 241.529 290.451 241.529 290.451" stroke="black" stroke-width="2" stroke-miterlimit="10" stroke-linecap="round"/>
<path d="M200.76 357.307C200.76 357.307 177.31 344.017 174.18 351.057C171.05 358.097 170.27 375.297 173.4 376.077C176.53 376.857 196.85 369.077 200.76 370.227" fill="black"/>
<path d="M200.76 357.307C200.76 357.307 177.31 344.017 174.18 351.057C171.05 358.097 170.27 375.297 173.4 376.077C176.53 376.857 196.85 369.077 200.76 370.227" stroke="black" stroke-width="2" stroke-miterlimit="10" stroke-linecap="round"/>
<path d="M215.189 357.307C215.189 357.307 238.639 344.017 241.769 351.057C244.899 358.097 245.679 375.297 242.549 376.077C239.419 376.857 219.099 369.077 215.189 370.227" fill="black"/>
<path d="M215.189 357.307C215.189 357.307 238.639 344.017 241.769 351.057C244.899 358.097 245.679 375.297 242.549 376.077C239.419 376.857 219.099 369.077 215.189 370.227" stroke="black" stroke-width="2" stroke-miterlimit="10" stroke-linecap="round"/>
<path d="M212.16 356.518H203.43C201.955 356.518 200.76 357.713 200.76 359.188V369.488C200.76 370.962 201.955 372.158 203.43 372.158H212.16C213.634 372.158 214.83 370.962 214.83 369.488V359.188C214.83 357.713 213.634 356.518 212.16 356.518Z" fill="black" stroke="black" stroke-width="2" stroke-miterlimit="10" stroke-linecap="round"/>
<path d="M97.9492 299.27L117.649 415.77H135.329L106.239 299.27H97.9492Z" fill="black" stroke="black" stroke-width="2" stroke-miterlimit="10" stroke-linecap="round"/>
<path d="M318.65 299.27L298.95 415.77H281.27L310.36 299.27H318.65Z" fill="black" stroke="black" stroke-width="2" stroke-miterlimit="10" stroke-linecap="round"/>
<path d="M86.9355 307L52.3055 344.01C44.9355 351.89 45.2855 364.24 53.0955 371.69L83.9255 401.08C85.3355 402.43 87.6155 401.01 87.0255 399.15L77.8255 370.02C76.5855 366.09 77.6255 361.79 80.5155 358.85L87.2455 352.04" fill="#D9D9D9"/>
<path d="M86.9355 307L52.3055 344.01C44.9355 351.89 45.2855 364.24 53.0955 371.69L83.9255 401.08C85.3355 402.43 87.6155 401.01 87.0255 399.15L77.8255 370.02C76.5855 366.09 77.6255 361.79 80.5155 358.85L87.2455 352.04" stroke="black" stroke-width="2" stroke-miterlimit="10" stroke-linecap="round"/>
<path d="M88.0195 368.17H328.45" stroke="black" stroke-width="2" stroke-miterlimit="10" stroke-linecap="round"/>
<path d="M88.0195 376.17H328.45" stroke="black" stroke-width="2" stroke-miterlimit="10" stroke-linecap="round"/>
<path d="M88.0195 384.17H328.45" stroke="black" stroke-width="2" stroke-miterlimit="10" stroke-linecap="round"/>
<path d="M88.0195 392.17H328.45" stroke="black" stroke-width="2" stroke-miterlimit="10" stroke-linecap="round"/>
<path d="M88.0195 400.17H328.45" stroke="black" stroke-width="2" stroke-miterlimit="10" stroke-linecap="round"/>
<path d="M88.0195 408.17H328.45" stroke="black" stroke-width="2" stroke-miterlimit="10" stroke-linecap="round"/>
<path d="M350.15 286.32C350.15 286.32 362.2 194.66 369.99 184.92C370.33 184.5 370.85 184.27 371.39 184.27H375.44C376.52 184.27 377.37 185.21 377.26 186.28L373.57 222.98L385.53 214.05C386.11 213.61 386.94 214.03 386.94 214.76V218.38C386.94 218.58 386.87 218.77 386.75 218.92C384.95 221.24 370.6 239.74 369.69 244.28C368.72 249.12 360.82 280.3 360.82 280.3" fill="#969696"/>
<path d="M350.15 286.32C350.15 286.32 362.2 194.66 369.99 184.92C370.33 184.5 370.85 184.27 371.39 184.27H375.44C376.52 184.27 377.37 185.21 377.26 186.28L373.57 222.98L385.53 214.05C386.11 213.61 386.94 214.03 386.94 214.76V218.38C386.94 218.58 386.87 218.77 386.75 218.92C384.95 221.24 370.6 239.74 369.69 244.28C368.72 249.12 360.82 280.3 360.82 280.3" stroke="black" stroke-width="2" stroke-miterlimit="10" stroke-linecap="round"/>
<path d="M350.949 323.271V339.371C350.949 340.271 351.829 340.901 352.679 340.611L357.919 338.841C358.439 338.661 358.799 338.181 358.809 337.621C358.899 332.741 359.389 309.891 360.939 306.061" fill="#969696"/>
<path d="M350.949 323.271V339.371C350.949 340.271 351.829 340.901 352.679 340.611L357.919 338.841C358.439 338.661 358.799 338.181 358.809 337.621C358.899 332.741 359.389 309.891 360.939 306.061" stroke="black" stroke-width="2" stroke-miterlimit="10" stroke-linecap="round"/>
<path d="M307.949 101.269L325.519 50.3194C326.599 47.1994 330.659 46.4194 332.809 48.9294L337.899 54.8694C339.119 56.2994 339.269 58.3594 338.259 59.9394L306.949 109.269" fill="white"/>
<path d="M307.949 101.269L325.519 50.3194C326.599 47.1994 330.659 46.4194 332.809 48.9294L337.899 54.8694C339.119 56.2994 339.269 58.3594 338.259 59.9394L306.949 109.269" stroke="black" stroke-width="2" stroke-miterlimit="10" stroke-linecap="round"/>
<path d="M314.949 116.269L326.489 105.369C329.089 102.909 333.389 104.549 333.679 108.119C333.839 109.989 332.749 111.749 331.009 112.439L318.939 117.269" fill="#EDECEC"/>
<path d="M314.949 116.269L326.489 105.369C329.089 102.909 333.389 104.549 333.679 108.119C333.839 109.989 332.749 111.749 331.009 112.439L318.939 117.269" stroke="black" stroke-width="2" stroke-miterlimit="10" stroke-linecap="round"/>
<path d="M67.4525 109.771L55.9126 98.8712C53.3126 96.4112 49.0126 98.0512 48.7226 101.621C48.5626 103.491 49.6526 105.251 51.3926 105.941L63.4626 110.771" fill="#EDECEC"/>
<path d="M67.4525 109.771L55.9126 98.8712C53.3126 96.4112 49.0126 98.0512 48.7226 101.621C48.5626 103.491 49.6526 105.251 51.3926 105.941L63.4626 110.771" stroke="black" stroke-width="2" stroke-miterlimit="10" stroke-linecap="round"/>
<path d="M93.4522 78.7715L61.0122 44.4715C59.5422 42.9215 59.4522 40.5315 60.7822 38.8615L69.8422 27.5315C71.8922 24.9615 75.9522 25.5815 77.1622 28.6415L93.4622 70.0715" fill="#EDECEC"/>
<path d="M93.4522 78.7715L61.0122 44.4715C59.5422 42.9215 59.4522 40.5315 60.7822 38.8615L69.8422 27.5315C71.8922 24.9615 75.9522 25.5815 77.1622 28.6415L93.4622 70.0715" stroke="black" stroke-width="2" stroke-miterlimit="10" stroke-linecap="round"/>
<path d="M47.2618 71.1219L2.44181 31.5419C1.22181 30.4619 0.721815 28.7819 1.15181 27.2119L7.44181 4.15188C8.32182 0.931881 12.3918 -0.0881186 14.6818 2.35188L38.8818 28.1719C39.2518 28.5719 39.5518 29.0319 39.7518 29.5419L54.0718 66.3619C55.6918 70.5419 50.6218 74.0819 47.2618 71.1119V71.1219Z" fill="white" stroke="black" stroke-width="2" stroke-miterlimit="10" stroke-linecap="round"/>
<path d="M328.949 301.08C328.949 301.08 366.049 273.26 371.949 278.32C377.849 283.38 329.799 353.78 328.949 364.53" fill="#D9D9D9"/>
<path d="M328.949 301.08C328.949 301.08 366.049 273.26 371.949 278.32C377.849 283.38 329.799 353.78 328.949 364.53" stroke="black" stroke-width="2" stroke-miterlimit="10" stroke-linecap="round"/>
<path d="M270 102.5L328 164" stroke="black" stroke-width="2"/>
<path d="M87 299H107" stroke="black" stroke-width="2"/>
<path d="M310 299H329" stroke="black" stroke-width="2"/>
<defs>
<filter id="filter0_d_444_10" x="457.109" y="16" width="709.892" height="560" filterUnits="userSpaceOnUse" color-interpolation-filters="sRGB">
<feFlood flood-opacity="0" result="BackgroundImageFix"/>
<feColorMatrix in="SourceAlpha" type="matrix" values="0 0 0 0 0 0 0 0 0 0 0 0 0 0 0 0 0 0 127 0" result="hardAlpha"/>
<feOffset dy="4"/>
<feGaussianBlur stdDeviation="2"/>
<feComposite in2="hardAlpha" operator="out"/>
<feColorMatrix type="matrix" values="0 0 0 0 0 0 0 0 0 0 0 0 0 0 0 0 0 0 0.25 0"/>
<feBlend mode="normal" in2="BackgroundImageFix" result="effect1_dropShadow_444_10"/>
<feBlend mode="normal" in="SourceGraphic" in2="effect1_dropShadow_444_10" result="shape"/>
</filter>
</defs>
</svg>
