<svg width="1166" height="560" viewBox="0 0 1166 560" fill="none" xmlns="http://www.w3.org/2000/svg">
<path d="M91.0977 458.061V459.789C91.0977 461.591 91.0977 463.949 90.248 467.025H96.752C97.3672 464.726 97.5137 462.953 97.5723 461.4H92.6211V458.061H101.645V459.877C101.615 461.796 101.615 464.11 100.971 467.025H104.457V470.424H94.2324V473.559H101.439V483.49H82.8945V473.559H90.043V470.424H79.9648V467.025H86C86.6885 464.682 86.8936 462.895 86.9668 461.4H82.1035V458.061H91.0977ZM87.0547 476.811V480.209H97.25V476.811H87.0547ZM134.018 456.918V462.426H137.504V465.883H134.018V470.219H129.799V456.918H134.018ZM126.342 458.588V469.867H113.305V458.588H126.342ZM117.465 461.84V466.557H122.182V461.84H117.465ZM118.988 472.387V479.652C120.38 479.55 121.625 479.345 122.855 478.949L123.441 482.201C121.303 482.992 119.252 483.109 116.439 483.109H114.857V472.387H118.988ZM136.039 472.68V475.668H122.533V472.68H127.279V470.863H131.381V472.68H136.039ZM129.271 476.254C132.377 476.254 134.516 477.689 134.545 480.033C134.516 482.348 132.377 483.783 129.271 483.783C126.107 483.783 123.998 482.348 123.998 480.033C123.998 477.689 126.107 476.254 129.271 476.254ZM129.271 479.066C128.393 479.096 127.748 479.359 127.748 480.033C127.748 480.736 128.393 481 129.271 481C130.121 481 130.766 480.736 130.766 480.033C130.766 479.359 130.121 479.096 129.271 479.066ZM163.051 470.541V473.852H138.529V470.541H163.051ZM160.238 480.004V483.373H141.43V475.492H145.648V480.004H160.238ZM150.775 457.709C156.693 457.709 160.619 459.818 160.648 463.246C160.619 466.732 156.693 468.871 150.775 468.9C144.828 468.871 140.902 466.732 140.902 463.246C140.902 459.818 144.828 457.709 150.775 457.709ZM150.775 461.02C147.23 461.049 145.268 461.781 145.297 463.246C145.268 464.799 147.23 465.473 150.775 465.473C154.291 465.473 156.283 464.799 156.283 463.246C156.283 461.781 154.291 461.049 150.775 461.02ZM193.93 456.918V472.621H189.74V469.457H185.141V471.303H172.25V458.881H185.141V460.727H189.74V456.918H193.93ZM176.439 462.191V467.963H181.01V462.191H176.439ZM184.643 473.295C190.443 473.295 193.988 475.229 194.018 478.568C193.988 481.908 190.443 483.842 184.643 483.812C178.9 483.842 175.355 481.908 175.355 478.568C175.355 475.229 178.9 473.295 184.643 473.295ZM184.643 476.488C181.273 476.488 179.545 477.104 179.545 478.568C179.545 479.975 181.273 480.619 184.643 480.648C188.07 480.619 189.799 479.975 189.828 478.568C189.799 477.104 188.07 476.488 184.643 476.488ZM185.141 466.059H189.74V464.008H185.141V466.059ZM221.645 470.043V473.383H211.801V477.748H207.641V473.383H197.064V470.043H221.645ZM218.51 458.061V468.139H200.082V458.061H218.51ZM204.213 461.312V464.887H214.379V461.312H204.213ZM218.949 480.004V483.373H199.848V475.521H204.066V480.004H218.949ZM244.35 456.918V467.025H247.953V470.482H244.35V483.725H240.131V456.918H244.35ZM237.084 459.613C237.084 467.787 234.096 474.76 224.955 479.242L222.582 476.02C228.749 472.929 232.06 468.915 232.807 463.07H224.193V459.613H237.084ZM265.854 463.949C265.824 467.992 267.699 472.709 272.299 474.789L269.955 478.1C266.996 476.781 264.975 474.188 263.803 471.127C262.616 474.525 260.507 477.367 257.416 478.803L254.984 475.463C259.643 473.295 261.576 468.344 261.576 463.949V462.895H256.098V459.467H271.068V462.895H265.854V463.949ZM276.986 456.918V466.996H280.795V470.482H276.986V483.812H272.768V456.918H276.986ZM304.906 456.918V483.812H300.922V456.918H304.906ZM299.369 457.299V482.611H295.443V469.369H292.221V466H295.443V457.299H299.369ZM290.287 463.979C290.287 468.402 291.459 472.855 295.443 475.141L293.012 478.217C290.683 476.884 289.188 474.657 288.295 471.947C287.387 474.892 285.849 477.382 283.49 478.832L280.971 475.727C284.984 473.236 286.215 468.432 286.215 463.979V462.895H282.055V459.525H294.096V462.895H290.287V463.979ZM322.426 459.232V462.543H307.602V459.232H313.109V456.684H317.328V459.232H322.426ZM315.16 463.305C318.881 463.305 321.605 465.385 321.635 468.373C321.605 471.361 318.881 473.383 315.16 473.383C311.439 473.383 308.803 471.361 308.803 468.373C308.803 465.385 311.439 463.305 315.16 463.305ZM315.16 466.439C313.695 466.439 312.729 467.084 312.729 468.373C312.729 469.662 313.695 470.277 315.16 470.277C316.654 470.277 317.709 469.662 317.709 468.373C317.709 467.084 316.654 466.439 315.16 466.439ZM330.277 456.918V473.969H326.088V471.42H322.748V468.051H326.088V466H322.836V462.631H326.088V456.918H330.277ZM321.078 474.32C326.82 474.32 330.395 476.078 330.424 479.066C330.395 482.025 326.82 483.842 321.078 483.812C315.307 483.842 311.703 482.025 311.703 479.066C311.703 476.078 315.307 474.32 321.078 474.32ZM321.078 477.484C317.855 477.514 316.156 477.953 316.156 479.066C316.156 480.15 317.855 480.648 321.078 480.648C324.213 480.648 325.883 480.15 325.883 479.066C325.883 477.953 324.213 477.514 321.078 477.484Z" fill="#222222"/>
<g filter="url(#filter0_d_444_7)">
<path fill-rule="evenodd" clip-rule="evenodd" d="M582 0C548.311 0 521 27.3106 521 61V237.794L460.636 272.147C457.267 274.065 457.267 278.921 460.636 280.838L521 315.192V491C521 524.689 548.311 552 582 552H1099C1132.69 552 1160 524.689 1160 491V61C1160 27.3106 1132.69 0 1099 0H582Z" fill="white"/>
</g>
<path d="M747.94 224.455C747.94 227.721 751.679 230.643 755.009 231.266L754.235 232.684C751.356 232.018 748.316 229.966 747.081 227.141C745.846 229.955 742.816 232.007 739.927 232.684L739.153 231.266C742.462 230.621 746.179 227.742 746.179 224.455V222.994H747.94V224.455ZM755.911 236.744V238.141H738.423V236.744H755.911ZM772.669 223.596V225.959C772.669 228.773 772.669 231.373 771.874 235.24L770.177 235.09C770.596 233.253 770.811 231.663 770.929 230.17L759.263 230.814L759.026 229.418L770.993 228.924C771.025 227.914 771.025 226.937 771.036 225.959V225.014H759.542V223.596H772.669ZM774.839 236.637V238.055H757.437V236.637H774.839ZM792.671 221.662V232.232H791.06V227.57H788.374V232.039H786.806V222.006H788.374V226.217H791.06V221.662H792.671ZM781.757 233.113V235.305H791.017V233.113H792.671V240.482H780.081V233.113H781.757ZM781.757 239.107H791.017V236.68H781.757V239.107ZM784.528 222.801V227.699H778.964V230.234C781.478 230.202 783.4 230.105 785.667 229.633L785.86 231.029C783.39 231.502 781.349 231.609 778.577 231.609H777.331V226.41H782.917V224.176H777.288V222.801H784.528ZM807.452 225.186C807.452 227.721 809.321 230.041 812.157 231.029L811.298 232.34C809.117 231.566 807.452 229.998 806.636 228.021C805.819 230.191 804.068 231.878 801.823 232.705L800.921 231.395C803.778 230.385 805.776 227.914 805.798 225.186V224.369H801.437V222.994H811.749V224.369H807.452V225.186ZM815.917 221.641V226.689H818.796V228.129H815.917V233.156H814.241V221.641H815.917ZM815.917 234.166V240.74H814.241V235.541H803.413V234.166H815.917ZM826.573 224.648C826.552 227.377 828.485 229.783 831.3 230.729L830.354 232.039C828.249 231.244 826.595 229.697 825.778 227.678C824.951 229.966 823.2 231.749 820.901 232.619L819.978 231.244C822.921 230.213 824.876 227.678 824.897 224.713V222.736H826.573V224.648ZM835.833 221.641V232.963H834.136V227.141H829.882V225.744H834.136V221.641H835.833ZM829.495 233.521C833.47 233.521 835.897 234.832 835.897 237.131C835.897 239.408 833.47 240.697 829.495 240.697C825.521 240.697 823.093 239.408 823.093 237.131C823.093 234.832 825.521 233.521 829.495 233.521ZM829.495 234.854C826.573 234.854 824.747 235.713 824.769 237.131C824.747 238.506 826.573 239.344 829.495 239.344C832.417 239.344 834.222 238.506 834.222 237.131C834.222 235.713 832.417 234.854 829.495 234.854ZM854.438 230.6V231.975H848.53V236.916H856.501V238.334H839.013V236.916H846.876V231.975H841.247V223.209H854.245V224.584H842.944V230.6H854.438ZM878.479 221.641V226.109H881.358V227.506H878.479V231.867H876.804V221.641H878.479ZM873.345 222.994C873.323 227.764 869.95 230.943 864.321 232.232L863.612 230.857C868.479 229.794 871.196 227.377 871.476 224.369H864.429V222.994H873.345ZM878.565 232.727V234.016H868.081V235.906H878.351V237.195H868.081V239.172H879.017V240.482H866.384V232.727H878.565ZM898.31 221.641V240.783H896.612V221.641H898.31ZM888.147 223.123C890.983 223.145 893.024 225.723 893.024 229.783C893.024 233.844 890.983 236.422 888.147 236.422C885.29 236.422 883.271 233.844 883.271 229.783C883.271 225.723 885.29 223.145 888.147 223.123ZM888.147 224.627C886.235 224.648 884.903 226.668 884.903 229.783C884.903 232.898 886.235 234.918 888.147 234.918C890.06 234.918 891.392 232.898 891.392 229.783C891.392 226.668 890.06 224.648 888.147 224.627ZM916.636 224.949V226.324H907.054V224.949H911.028V222.221H912.704V224.949H916.636ZM911.845 227.613C914.251 227.613 915.97 229.418 915.991 231.953C915.97 234.51 914.251 236.336 911.845 236.336C909.46 236.336 907.741 234.51 907.741 231.953C907.741 229.418 909.46 227.613 911.845 227.613ZM911.845 229.031C910.341 229.053 909.245 230.277 909.245 231.953C909.245 233.65 910.341 234.875 911.845 234.854C913.37 234.875 914.487 233.65 914.487 231.953C914.487 230.277 913.37 229.053 911.845 229.031ZM923.36 221.641V240.74H921.749V231.094H919.214V239.795H917.624V222.113H919.214V229.697H921.749V221.641H923.36ZM932.835 226.775C932.835 230.234 935.048 233.715 937.819 234.982L936.81 236.357C934.64 235.24 932.846 232.952 931.997 230.234C931.148 233.092 929.354 235.541 927.185 236.701L926.089 235.348C928.882 233.973 931.116 230.299 931.116 226.775V223.295H932.835V226.775ZM941.944 221.641V240.783H940.269V229.547H935.735V228.172H940.269V221.641H941.944ZM711.148 252.506C711.148 255.75 713.512 259.037 716.326 260.262L715.381 261.594C713.146 260.573 711.213 258.371 710.332 255.729C709.43 258.532 707.507 260.971 705.326 262.066L704.316 260.734C707.045 259.424 709.43 255.814 709.451 252.506V250.014H704.939V248.617H715.703V250.014H711.148V252.506ZM720.064 246.641V265.74H718.367V246.641H720.064ZM730.098 249.412C730.076 252.205 732.096 254.676 734.932 255.664L734.072 256.996C731.859 256.19 730.108 254.536 729.26 252.42C728.411 254.687 726.639 256.47 724.404 257.34L723.523 256.008C726.381 254.955 728.379 252.291 728.379 249.412V247.586H730.098V249.412ZM739.1 259.102V265.74H737.424V260.498H726.252V259.102H739.1ZM739.1 246.641V258.156H737.424V246.641H739.1ZM751.045 246.984C755.299 246.984 757.791 248.145 757.791 250.271C757.791 252.441 755.299 253.602 751.045 253.623C746.791 253.602 744.277 252.441 744.277 250.271C744.277 248.145 746.791 246.984 751.045 246.984ZM751.045 248.252C747.865 248.252 746.018 249.025 746.039 250.271C746.018 251.604 747.865 252.334 751.045 252.334C754.203 252.334 756.072 251.604 756.072 250.271C756.072 249.025 754.203 248.252 751.045 248.252ZM759.746 254.912V256.287H742.344V254.912H759.746ZM757.512 257.941V262.217H746.168V264.193H758.092V265.525H744.492V260.971H755.857V259.23H744.449V257.941H757.512ZM773.238 252.871C773.238 255.922 775.236 259.059 778.008 260.391L777.02 261.701C774.914 260.67 773.249 258.586 772.465 256.115C771.627 258.769 769.854 260.992 767.674 262.045L766.707 260.734C769.5 259.424 771.584 256.158 771.605 252.871V251.346H767.223V249.971H771.584V247.006H773.281V249.971H777.578V251.346H773.238V252.871ZM781.66 246.641V254.482H784.861V255.922H781.66V265.74H779.984V246.641H781.66ZM803.295 255.729V257.125H785.914V255.729H793.111V251.861H794.766V255.729H803.295ZM801.082 259.316V265.74H799.363V260.713H787.762V259.316H801.082ZM801.082 247.693V249.133C801.082 250.594 801.082 252.248 800.609 254.418L798.912 254.246C799.406 252.098 799.406 250.572 799.406 249.133V249.068H787.977V247.693H801.082ZM816.787 252.871C816.787 255.922 818.785 259.059 821.557 260.391L820.568 261.701C818.463 260.67 816.798 258.586 816.014 256.115C815.176 258.769 813.403 260.992 811.223 262.045L810.256 260.734C813.049 259.424 815.133 256.158 815.154 252.871V251.346H810.771V249.971H815.133V247.006H816.83V249.971H821.127V251.346H816.787V252.871ZM825.209 246.641V254.482H828.41V255.922H825.209V265.74H823.533V246.641H825.209ZM846.844 255.729V257.125H829.463V255.729H836.66V251.861H838.314V255.729H846.844ZM844.631 259.316V265.74H842.912V260.713H831.311V259.316H844.631ZM844.631 247.693V249.133C844.631 250.594 844.631 252.248 844.158 254.418L842.461 254.246C842.955 252.098 842.955 250.572 842.955 249.133V249.068H831.525V247.693H844.631ZM869.295 246.641V250.809H871.809V252.227H869.295V256.824H867.619V246.641H869.295ZM858.424 248.789C858.424 250.196 858.821 252.42 860.314 253.902C861.732 252.463 862.141 250.271 862.141 248.811V247.479H862.506V247.457H863.709V248.789C863.709 250.809 864.547 253.279 866.76 254.418L865.836 255.621C864.343 254.837 863.451 253.473 862.979 251.947C862.538 253.483 861.732 254.966 860.293 255.836C858.832 254.944 858.016 253.387 857.607 251.84C857.103 253.365 856.211 254.805 854.75 255.621L853.826 254.418C855.975 253.193 856.812 250.594 856.834 248.789V247.457H858.424V248.789ZM870.09 257.941V259.273H856.555V257.941H862.506V256.029H864.182V257.941H870.09ZM863.344 260.176C866.846 260.176 868.908 261.164 868.908 262.926C868.908 264.752 866.846 265.697 863.344 265.697C859.777 265.697 857.715 264.752 857.736 262.926C857.715 261.164 859.777 260.176 863.344 260.176ZM863.344 261.4C860.809 261.422 859.391 261.98 859.412 262.926C859.391 263.914 860.809 264.473 863.344 264.451C865.814 264.473 867.254 263.914 867.254 262.926C867.254 261.98 865.814 261.422 863.344 261.4ZM878.104 248.123C880.918 248.145 882.916 250.723 882.938 254.783C882.916 258.844 880.918 261.422 878.104 261.422C875.268 261.422 873.291 258.844 873.291 254.783C873.291 250.723 875.268 248.145 878.104 248.123ZM878.104 249.627C876.213 249.648 874.881 251.668 874.881 254.783C874.881 257.898 876.213 259.918 878.104 259.918C880.016 259.918 881.305 257.898 881.305 254.783C881.305 251.668 880.016 249.648 878.104 249.627ZM887.771 246.641V254.268H890.973V255.729H887.771V265.74H886.096V246.641H887.771ZM909.879 254.268V255.686H906.785V265.74H905.109V246.641H906.785V254.268H909.879ZM894.475 248.531V259.467C897.268 259.456 900.114 259.241 903.262 258.586L903.477 260.025C900.189 260.691 897.225 260.885 894.324 260.885H892.799V248.531H894.475ZM925.799 246.641V254.418H928.893V255.836H925.799V265.74H924.123V246.641H925.799ZM920.857 248.703C920.857 254.117 918.322 259.037 912.092 262.109L911.146 260.777C916.088 258.317 918.773 254.644 919.16 250.121H912.027V248.703H920.857ZM938.281 248.23V251.152H944.49V248.23H946.166V256.824H942.234V260.24C943.996 260.176 945.769 260.047 947.412 259.832L947.52 261.1C943.48 261.744 938.947 261.809 935.596 261.83L935.316 260.391C936.874 260.38 938.668 260.369 940.537 260.305V256.824H936.605V248.23H938.281ZM938.281 255.449H944.49V252.463H938.281V255.449ZM950.312 246.641V254.676H953.428V256.094H950.312V265.74H948.637V246.641H950.312ZM972.055 261.873V263.291H954.566V261.873H958.906V256.717C957.273 255.868 956.285 254.493 956.285 252.764C956.285 249.799 959.186 247.865 963.268 247.844C967.35 247.865 970.25 249.799 970.25 252.764C970.25 254.461 969.294 255.825 967.715 256.674V261.873H972.055ZM963.268 249.24C960.131 249.219 957.918 250.637 957.918 252.764C957.918 254.891 960.131 256.33 963.268 256.33C966.383 256.33 968.617 254.891 968.617 252.764C968.617 250.637 966.383 249.219 963.268 249.24ZM960.561 261.873H966.018V257.318C965.19 257.544 964.267 257.662 963.268 257.662C962.29 257.662 961.377 257.555 960.561 257.34V261.873ZM976.674 248.445L976.523 259.617H974.719L974.568 248.445H976.674ZM975.621 264.129C974.869 264.129 974.225 263.506 974.246 262.732C974.225 261.98 974.869 261.357 975.621 261.357C976.373 261.357 976.996 261.98 976.996 262.732C976.996 263.506 976.373 264.129 975.621 264.129Z" fill="#222222"/>
<path d="M640.411 176.662V182.441H643.269V183.859H640.411V190.24H638.714V176.662H640.411ZM635.319 189.596C635.319 192.109 638.306 193.871 641.765 194.344L641.12 195.654C638.22 195.192 635.588 193.936 634.46 191.895C633.321 193.936 630.679 195.192 627.778 195.654L627.155 194.344C630.614 193.871 633.601 192.109 633.601 189.596V188.951H635.319V189.596ZM625.479 186.459C626.973 186.459 628.713 186.448 630.528 186.373V184.59C628.165 184.343 626.597 182.957 626.618 181.002C626.597 178.854 628.53 177.414 631.323 177.393C634.116 177.414 636.05 178.854 636.05 181.002C636.05 182.925 634.524 184.3 632.226 184.568V186.309C634.02 186.212 635.824 186.062 637.489 185.814L637.618 187.018C633.579 187.748 629.003 187.812 625.694 187.812L625.479 186.459ZM631.323 178.682C629.476 178.682 628.187 179.605 628.187 181.002C628.187 182.398 629.476 183.344 631.323 183.344C633.171 183.344 634.46 182.398 634.46 181.002C634.46 179.605 633.171 178.682 631.323 178.682ZM662.003 191.873V193.291H644.515V191.873H662.003ZM654.097 181.109C654.097 184.268 657.255 186.652 660.886 187.297L660.198 188.672C657.18 188.06 654.43 186.405 653.237 183.902C652.023 186.405 649.273 188.06 646.255 188.672L645.589 187.297C649.198 186.652 652.378 184.268 652.378 181.109H646.147V179.734H652.399V177.113H654.054V179.734H660.327V181.109H654.097ZM678.847 178.574V180.486C678.825 182.828 678.825 185.449 678.138 189.295L676.419 189.102C677.149 185.449 677.149 182.764 677.149 180.486V179.971H665.376V178.574H678.847ZM680.931 191.637V193.033H663.528V191.637H670.36V184.805H672.015V191.637H680.931ZM698.312 176.662V188.027H696.636V176.662H698.312ZM691.931 188.414C695.905 188.414 698.354 189.746 698.376 192.045C698.354 194.365 695.905 195.697 691.931 195.697C687.913 195.697 685.485 194.365 685.485 192.045C685.485 189.746 687.913 188.414 691.931 188.414ZM691.931 189.746C688.966 189.746 687.183 190.605 687.183 192.045C687.183 193.484 688.966 194.344 691.931 194.344C694.874 194.344 696.7 193.484 696.7 192.045C696.7 190.605 694.874 189.746 691.931 189.746ZM687.999 177.865C690.899 177.887 693.005 179.691 693.005 182.334C693.005 184.977 690.899 186.76 687.999 186.781C685.099 186.76 682.993 184.977 682.993 182.334C682.993 179.691 685.099 177.887 687.999 177.865ZM687.999 179.326C686.044 179.305 684.626 180.529 684.647 182.334C684.626 184.117 686.044 185.342 687.999 185.363C689.933 185.342 691.351 184.117 691.351 182.334C691.351 180.529 689.933 179.305 687.999 179.326ZM718.958 186.824V188.221H701.556V186.824H709.419V184.826C705.756 184.644 703.489 183.258 703.489 181.002C703.489 178.66 706.11 177.221 710.257 177.221C714.36 177.221 717.003 178.66 717.003 181.002C717.003 183.258 714.715 184.644 711.095 184.826V186.824H718.958ZM717.024 193.914V195.332H703.812V189.768H705.509V193.914H717.024ZM710.257 178.596C707.185 178.596 705.208 179.541 705.229 181.002C705.208 182.549 707.185 183.451 710.257 183.451C713.308 183.451 715.284 182.549 715.284 181.002C715.284 179.541 713.308 178.596 710.257 178.596ZM736.317 176.641V195.783H734.62V176.641H736.317ZM726.155 178.123C728.991 178.145 731.032 180.723 731.032 184.783C731.032 188.844 728.991 191.422 726.155 191.422C723.298 191.422 721.278 188.844 721.278 184.783C721.278 180.723 723.298 178.145 726.155 178.123ZM726.155 179.627C724.243 179.648 722.911 181.668 722.911 184.783C722.911 187.898 724.243 189.918 726.155 189.918C728.067 189.918 729.399 187.898 729.399 184.783C729.399 181.668 728.067 179.648 726.155 179.627ZM760.058 176.641V181.625H762.915V183.043H760.058V188.049H758.36V176.641H760.058ZM753.913 188.414C757.802 188.414 760.208 189.768 760.208 192.045C760.208 194.365 757.802 195.697 753.913 195.697C750.003 195.697 747.575 194.365 747.575 192.045C747.575 189.768 750.003 188.414 753.913 188.414ZM753.913 189.811C751.034 189.789 749.229 190.648 749.229 192.045C749.229 193.463 751.034 194.344 753.913 194.344C756.771 194.344 758.575 193.463 758.575 192.045C758.575 190.648 756.771 189.789 753.913 189.811ZM754.472 178.102V179.498H747.64V185.105C751.507 185.084 753.741 184.966 756.298 184.439L756.47 185.836C753.806 186.373 751.507 186.48 747.468 186.48H745.985V178.102H754.472ZM779.888 176.662V190.67H778.212V176.662H779.888ZM780.489 193.914V195.332H767.556V189.381H769.231V193.914H780.489ZM770.886 179.648C770.864 182.549 772.862 185.17 775.698 186.201L774.817 187.555C772.604 186.706 770.886 184.987 770.048 182.785C769.199 185.127 767.459 187.007 765.235 187.898L764.312 186.588C767.212 185.471 769.167 182.656 769.167 179.648V177.736H770.886V179.648ZM791.833 176.984C796.087 176.984 798.579 178.145 798.579 180.271C798.579 182.441 796.087 183.602 791.833 183.623C787.579 183.602 785.065 182.441 785.065 180.271C785.065 178.145 787.579 176.984 791.833 176.984ZM791.833 178.252C788.653 178.252 786.806 179.025 786.827 180.271C786.806 181.604 788.653 182.334 791.833 182.334C794.991 182.334 796.86 181.604 796.86 180.271C796.86 179.025 794.991 178.252 791.833 178.252ZM800.534 184.912V186.287H783.132V184.912H800.534ZM798.3 187.941V192.217H786.956V194.193H798.88V195.525H785.28V190.971H796.646V189.23H785.237V187.941H798.3ZM813.962 177.586C816.819 177.564 818.86 179.133 818.86 181.475C818.86 183.795 816.819 185.406 813.962 185.385C811.104 185.406 809.063 183.795 809.063 181.475C809.063 179.133 811.104 177.564 813.962 177.586ZM813.962 178.961C812.05 178.939 810.696 179.992 810.718 181.475C810.696 182.979 812.05 184.01 813.962 183.988C815.896 184.01 817.249 182.979 817.249 181.475C817.249 179.992 815.896 178.939 813.962 178.961ZM823.415 176.662V195.762H821.761V176.662H823.415ZM807.624 187.018C811.212 187.018 816.11 186.953 820.364 186.33L820.472 187.598C818.646 187.931 816.744 188.135 814.907 188.242V195.16H813.231V188.35C811.287 188.436 809.45 188.446 807.86 188.457L807.624 187.018ZM836.22 179.949V181.324H826.638V179.949H830.612V177.221H832.288V179.949H836.22ZM831.429 182.613C833.835 182.613 835.554 184.418 835.575 186.953C835.554 189.51 833.835 191.336 831.429 191.336C829.044 191.336 827.325 189.51 827.325 186.953C827.325 184.418 829.044 182.613 831.429 182.613ZM831.429 184.031C829.925 184.053 828.829 185.277 828.829 186.953C828.829 188.65 829.925 189.875 831.429 189.854C832.954 189.875 834.071 188.65 834.071 186.953C834.071 185.277 832.954 184.053 831.429 184.031ZM842.944 176.641V195.74H841.333V186.094H838.798V194.795H837.208V177.113H838.798V184.697H841.333V176.641H842.944ZM862.646 178.811V180.164H851.259V178.811H856.114V176.512H857.79V178.811H862.646ZM856.952 181.195C859.702 181.195 861.528 182.549 861.55 184.633C861.528 186.717 859.702 188.07 856.952 188.07C854.202 188.07 852.333 186.717 852.354 184.633C852.333 182.549 854.202 181.195 856.952 181.195ZM856.952 182.506C855.147 182.506 853.944 183.344 853.966 184.633C853.944 185.922 855.147 186.738 856.952 186.738C858.735 186.738 859.938 185.922 859.96 184.633C859.938 183.344 858.735 182.506 856.952 182.506ZM866.147 176.641V182.205H869.026V183.645H866.147V190.025H864.472V176.641H866.147ZM861.185 189.273C861.163 191.895 864.278 193.828 867.673 194.365L867.028 195.654C864.171 195.171 861.496 193.796 860.368 191.637C859.208 193.796 856.555 195.171 853.687 195.654L853.042 194.365C856.415 193.828 859.509 191.895 859.509 189.273V188.951H861.185V189.273ZM891.499 176.641V195.783H889.802V176.641H891.499ZM881.337 178.123C884.173 178.145 886.214 180.723 886.214 184.783C886.214 188.844 884.173 191.422 881.337 191.422C878.479 191.422 876.46 188.844 876.46 184.783C876.46 180.723 878.479 178.145 881.337 178.123ZM881.337 179.627C879.425 179.648 878.093 181.668 878.093 184.783C878.093 187.898 879.425 189.918 881.337 189.918C883.249 189.918 884.581 187.898 884.581 184.783C884.581 181.668 883.249 179.648 881.337 179.627ZM912.231 187.576V188.973H907.763V195.891H906.087V188.973H900.909V195.891H899.233V188.973H894.743V187.576H912.231ZM904.347 178.424C904.347 181.131 907.892 183.494 911.286 183.988L910.62 185.385C907.666 184.858 904.733 183.193 903.509 180.83C902.273 183.226 899.341 184.858 896.354 185.385L895.667 183.988C899.104 183.494 902.606 181.174 902.606 178.424V177.328H904.347V178.424ZM931.245 185.514V186.846H913.757V185.514H931.245ZM929.054 188.371V192.432H917.581V194.258H929.677V195.482H915.884V191.271H927.378V189.639H915.862V188.371H929.054ZM928.989 177.221V181.174H917.71V182.85H929.333V184.074H916.034V180.014H927.292V178.445H915.97V177.221H928.989ZM953.245 176.641V180.787H956.124V182.205H953.245V186.373H951.569V176.641H953.245ZM953.245 187.275V191.938H942.761V194.129H953.954V195.482H941.106V190.648H951.569V188.629H941.063V187.275H953.245ZM943.642 177.35C946.521 177.371 948.604 179.09 948.604 181.582C948.604 184.096 946.521 185.836 943.642 185.836C940.784 185.836 938.657 184.096 938.679 181.582C938.657 179.09 940.784 177.371 943.642 177.35ZM943.642 178.768C941.729 178.746 940.312 179.928 940.333 181.582C940.312 183.258 941.729 184.461 943.642 184.461C945.554 184.461 946.95 183.258 946.95 181.582C946.95 179.928 945.554 178.746 943.642 178.768ZM973.14 176.641V195.783H971.464V187.641H967.489V186.223H971.464V182.42H967.64V181.002H971.464V176.641H973.14ZM966.394 178.381V185.17H959.733V189.875C962.602 189.864 964.976 189.757 967.876 189.316L968.026 190.734C964.976 191.207 962.526 191.314 959.476 191.314H958.058V183.795H964.739V179.777H957.993V178.381H966.394ZM991.767 185.836V187.232H978.575V178.424H991.573V179.82H980.251V185.836H991.767ZM993.829 191.723V193.141H976.341V191.723H993.829ZM1005.09 177.586V182.248H997.997V184.611C1001.62 184.611 1004.07 184.515 1007.06 184.053L1007.21 185.363C1004.14 185.857 1001.63 185.965 997.868 185.965H996.321V181.002H1003.43V178.896H996.257V177.586H1005.09ZM1011.12 187.555V192.045H1000.42V194.172H1011.81V195.525H998.749V190.777H1009.41V188.887H998.706V187.555H1011.12ZM1011.12 176.641V186.717H1009.45V176.641H1011.12ZM1030.72 176.641V195.74H1029.11V176.641H1030.72ZM1026.7 177.156V194.773H1025.09V185.857H1021.05C1019.88 188.081 1018.04 190.047 1015.38 191.615L1014.39 190.391C1018.55 187.931 1020.63 184.482 1020.94 180.486H1015.21V179.09H1022.62C1022.61 180.97 1022.31 182.785 1021.67 184.482H1025.09V177.156H1026.7ZM1050.87 191.873V193.291H1033.38V191.873H1037.72V186.717C1036.09 185.868 1035.1 184.493 1035.1 182.764C1035.1 179.799 1038 177.865 1042.08 177.844C1046.17 177.865 1049.07 179.799 1049.07 182.764C1049.07 184.461 1048.11 185.825 1046.53 186.674V191.873H1050.87ZM1042.08 179.24C1038.95 179.219 1036.73 180.637 1036.73 182.764C1036.73 184.891 1038.95 186.33 1042.08 186.33C1045.2 186.33 1047.43 184.891 1047.43 182.764C1047.43 180.637 1045.2 179.219 1042.08 179.24ZM1039.38 191.873H1044.83V187.318C1044.01 187.544 1043.08 187.662 1042.08 187.662C1041.11 187.662 1040.19 187.555 1039.38 187.34V191.873ZM1055.49 178.445L1055.34 189.617H1053.53L1053.38 178.445H1055.49ZM1054.44 194.129C1053.68 194.129 1053.04 193.506 1053.06 192.732C1053.04 191.98 1053.68 191.357 1054.44 191.357C1055.19 191.357 1055.81 191.98 1055.81 192.732C1055.81 193.506 1055.19 194.129 1054.44 194.129Z" fill="#222222"/>
<path d="M618.135 352.107V353.504H604.986V346.629H606.705V352.107H618.135ZM620.176 356.275V357.672H615.643V364.74H613.967V357.672H609.004V364.74H607.328V357.672H602.773V356.275H620.176ZM631.305 348.455C631.305 351.721 635.043 354.643 638.373 355.266L637.6 356.684C634.721 356.018 631.681 353.966 630.445 351.141C629.21 353.955 626.181 356.007 623.291 356.684L622.518 355.266C625.826 354.621 629.543 351.742 629.543 348.455V346.994H631.305V348.455ZM639.275 360.744V362.141H621.787V360.744H639.275ZM652.854 349.25C652.854 351.914 654.787 354.428 657.58 355.438L656.635 356.748C654.54 355.91 652.875 354.245 652.059 352.172C651.242 354.481 649.502 356.318 647.246 357.221L646.344 355.846C649.201 354.793 651.178 352.129 651.199 349.186V346.822H652.854V349.25ZM662.156 345.662V359.971H660.459V351.57H656.205V350.152H660.459V345.662H662.156ZM662.586 362.914V364.332H649.803V358.338H651.5V362.914H662.586ZM681.836 348.477V349.873H666.195V348.477H673.199V345.963H674.854V348.477H681.836ZM682.824 361.109V362.506H665.336V361.109H673.199V358.424C669.805 358.241 667.742 356.92 667.764 354.771C667.742 352.494 670.148 351.162 674.037 351.184C677.883 351.162 680.311 352.494 680.311 354.771C680.311 356.92 678.227 358.241 674.854 358.424V361.109H682.824ZM674.037 352.516C671.18 352.516 669.439 353.354 669.461 354.771C669.439 356.232 671.18 357.049 674.037 357.07C676.852 357.049 678.592 356.232 678.592 354.771C678.592 353.354 676.852 352.516 674.037 352.516Z" fill="#222222"/>
<path d="M618.199 404.6V405.975H612.291V410.916H620.262V412.334H602.773V410.916H610.637V405.975H605.008V397.209H618.006V398.584H606.705V404.6H618.199ZM637.621 395.662V409.67H635.924V402.344H631.992V400.947H635.924V395.662H637.621ZM638.158 412.914V414.332H625.354V408.402H627.051V412.914H638.158ZM628.426 399.594C628.426 402.064 630.338 404.471 633.131 405.416L632.25 406.77C630.091 405.996 628.426 404.385 627.609 402.408C626.782 404.61 625.021 406.372 622.754 407.221L621.873 405.846C624.688 404.857 626.729 402.344 626.729 399.594V398.605H622.41V397.209H632.701V398.605H628.426V399.594ZM651.629 397.789V399.164H640.822V397.789H645.463V395.49H647.139V397.789H651.629ZM646.279 400.152C648.836 400.152 650.641 401.549 650.641 403.676C650.641 405.824 648.836 407.221 646.279 407.221C643.701 407.221 641.939 405.824 641.961 403.676C641.939 401.549 643.701 400.152 646.279 400.152ZM646.279 401.42C644.625 401.441 643.529 402.344 643.529 403.676C643.529 405.029 644.625 405.91 646.279 405.91C647.934 405.91 649.051 405.029 649.072 403.676C649.051 402.344 647.934 401.441 646.279 401.42ZM656.635 395.641V407.994H654.938V405.352H651.607V403.955H654.938V401.635H651.629V400.238H654.938V395.641H656.635ZM650.34 408.188C654.314 408.188 656.742 409.369 656.742 411.453C656.742 413.494 654.314 414.697 650.34 414.697C646.322 414.697 643.916 413.494 643.916 411.453C643.916 409.369 646.322 408.188 650.34 408.188ZM650.34 409.498C647.439 409.498 645.656 410.207 645.656 411.453C645.656 412.656 647.439 413.387 650.34 413.387C653.197 413.387 654.959 412.656 654.959 411.453C654.959 410.207 653.197 409.498 650.34 409.498Z" fill="#222222"/>
<path d="M620.24 458.748V460.145H612.27V466.74H610.615V460.145H602.752V458.748H620.24ZM617.963 448.715V456.148H605.008V448.715H617.963ZM606.662 450.09V454.816H616.287V450.09H606.662ZM636.719 447.641V452.324H639.598V453.721H636.719V458.49H635.043V447.641H636.719ZM631.498 448.887C631.477 453.699 628.104 457.137 622.453 458.684L621.766 457.33C626.471 456.062 629.339 453.517 629.693 450.283H622.625V448.887H631.498ZM636.719 459.371V466.482H624.623V459.371H636.719ZM626.299 460.768V465.107H635.043V460.768H626.299ZM655.732 447.641V452.496H658.611V453.936H655.732V458.855H654.057V447.641H655.732ZM650.49 448.865C650.49 453.699 647.117 457.137 641.467 458.641L640.779 457.33C645.463 456.062 648.353 453.506 648.707 450.262H641.639V448.865H650.49ZM655.732 459.736V466.74H654.057V461.111H643.229V459.736H655.732ZM670.643 449.789V451.164H659.836V449.789H664.477V447.49H666.152V449.789H670.643ZM665.293 452.152C667.85 452.152 669.654 453.549 669.654 455.676C669.654 457.824 667.85 459.221 665.293 459.221C662.715 459.221 660.953 457.824 660.975 455.676C660.953 453.549 662.715 452.152 665.293 452.152ZM665.293 453.42C663.639 453.441 662.543 454.344 662.543 455.676C662.543 457.029 663.639 457.91 665.293 457.91C666.947 457.91 668.064 457.029 668.086 455.676C668.064 454.344 666.947 453.441 665.293 453.42ZM675.648 447.641V459.994H673.951V457.352H670.621V455.955H673.951V453.635H670.643V452.238H673.951V447.641H675.648ZM669.354 460.188C673.328 460.188 675.756 461.369 675.756 463.453C675.756 465.494 673.328 466.697 669.354 466.697C665.336 466.697 662.93 465.494 662.93 463.453C662.93 461.369 665.336 460.188 669.354 460.188ZM669.354 461.498C666.453 461.498 664.67 462.207 664.67 463.453C664.67 464.656 666.453 465.387 669.354 465.387C672.211 465.387 673.973 464.656 673.973 463.453C673.973 462.207 672.211 461.498 669.354 461.498Z" fill="#222222"/>
<rect x="704" y="343" width="375" height="24" rx="12" fill="#E6E6E6"/>
<rect x="704" y="395" width="375" height="24" rx="12" fill="#E6E6E6"/>
<rect x="704" y="447" width="375" height="24" rx="12" fill="#E6E6E6"/>
<rect x="704" y="343" width="286" height="24" rx="12" fill="#8F8F8F"/>
<rect x="704" y="395" width="330" height="24" rx="12" fill="#8F8F8F"/>
<rect x="704" y="447" width="238" height="24" rx="12" fill="#8F8F8F"/>
<path d="M319.797 174.031V409.464H94.8965V115.969H264.704L319.797 174.031Z" fill="#D9D9D9" stroke="black" stroke-width="2" stroke-miterlimit="10"/>
<path d="M108.39 115.968L136.027 80.4054C137.232 78.8532 139.519 78.6534 140.971 79.9905L151.383 89.5188C152.882 90.902 155.276 90.6254 156.435 88.9502L178.017 57.814C179.376 55.8622 182.296 55.8929 183.609 57.8754L203.893 88.6736C205.068 90.4563 207.57 90.7022 209.084 89.2115L220.053 78.3153C221.428 76.9475 223.683 77.0244 224.965 78.4844L257.948 115.952H108.405L108.39 115.968Z" fill="white" stroke="black" stroke-width="2" stroke-miterlimit="10"/>
<path d="M136.502 74.3622C138.365 74.3622 139.875 72.8519 139.875 70.9887C139.875 69.1256 138.365 67.6152 136.502 67.6152C134.639 67.6152 133.128 69.1256 133.128 70.9887C133.128 72.8519 134.639 74.3622 136.502 74.3622Z" fill="white" stroke="black" stroke-width="2" stroke-miterlimit="10"/>
<path d="M221.965 73.2372C223.828 73.2372 225.338 71.7269 225.338 69.8637C225.338 68.0006 223.828 66.4902 221.965 66.4902C220.102 66.4902 218.591 68.0006 218.591 69.8637C218.591 71.7269 220.102 73.2372 221.965 73.2372Z" fill="white" stroke="black" stroke-width="2" stroke-miterlimit="10"/>
<path d="M180.358 50.747C182.222 50.747 183.732 49.2366 183.732 47.3735C183.732 45.5104 182.222 44 180.358 44C178.495 44 176.985 45.5104 176.985 47.3735C176.985 49.2366 178.495 50.747 180.358 50.747Z" fill="white" stroke="black" stroke-width="2" stroke-miterlimit="10"/>
<path d="M196.101 156.406C196.101 156.406 169.671 116.041 140.131 149.44C140.131 149.44 133.912 153.296 130.802 182.839C127.693 212.382 95.0435 238.815 70.1677 217.047C45.2919 195.278 73.2771 184.394 79.4961 190.613C85.715 196.833 81.0508 207.717 74.8319 203.053" stroke="black" stroke-width="2" stroke-miterlimit="10" stroke-linecap="round"/>
<path d="M206.221 156.406C206.221 156.406 232.433 116.041 261.729 149.44C261.729 149.44 267.896 153.296 270.98 182.839C274.064 212.382 306.443 238.815 331.114 217.047C355.784 195.278 328.03 184.394 321.862 190.613C315.695 196.833 320.32 207.717 326.488 203.053" stroke="black" stroke-width="2" stroke-miterlimit="10" stroke-linecap="round"/>
<path d="M167.989 181.189H151.121V213.8H167.989V181.189Z" fill="black"/>
<path d="M259.073 182.314H241.081V214.925H259.073V182.314Z" fill="black"/>
<path d="M167.988 181.189H147.747" stroke="black" stroke-width="2" stroke-miterlimit="10"/>
<path d="M167.988 213.801H147.747" stroke="black" stroke-width="2" stroke-miterlimit="10"/>
<path d="M259.074 182.314H238.833" stroke="black" stroke-width="2" stroke-miterlimit="10"/>
<path d="M259.074 214.924H238.833" stroke="black" stroke-width="2" stroke-miterlimit="10"/>
<path d="M319.796 263.179C319.796 263.179 341.57 242.477 346.236 247.077C350.902 251.678 324.245 312.756 324.245 312.756H319.796V263.179Z" fill="#D9D9D9" stroke="black" stroke-width="2" stroke-miterlimit="10"/>
<path d="M94.8958 263.463C94.8958 263.463 73.1217 242.41 68.4558 247.089C63.7899 251.767 90.4476 313.88 90.4476 313.88H94.8958V263.463Z" fill="#D9D9D9" stroke="black" stroke-width="2" stroke-miterlimit="10"/>
<path d="M203.973 198.057C203.973 198.057 207.025 215.184 210.076 216.741C213.128 218.298 219.094 215.184 220.696 216.741C222.298 218.298 210.076 238.539 210.076 238.539" stroke="black" stroke-width="2" stroke-miterlimit="10" stroke-linecap="round"/>
<path d="M196.662 274.522C200.699 274.522 203.972 268.984 203.972 262.153C203.972 255.321 200.699 249.783 196.662 249.783C192.625 249.783 189.353 255.321 189.353 262.153C189.353 268.984 192.625 274.522 196.662 274.522Z" fill="white" stroke="black" stroke-width="2" stroke-miterlimit="10"/>
<path d="M160.579 185.332C160.579 185.332 159.152 191.29 155.754 191.491C155.754 191.491 160.579 195.06 160.579 198.581" fill="white"/>
<path d="M160.627 185.332C160.627 185.332 162.055 191.29 165.452 191.491C165.452 191.491 160.627 195.06 160.627 198.581" fill="white"/>
<path d="M252.116 185.332C252.116 185.332 250.689 191.29 247.291 191.491C247.291 191.491 252.116 195.06 252.116 198.581" fill="white"/>
<path d="M252.164 185.332C252.164 185.332 253.591 191.29 256.989 191.491C256.989 191.491 252.164 195.06 252.164 198.581" fill="white"/>
<path d="M48.2407 141.969C44.3931 132.226 33.3623 127.432 23.6193 131.28C13.8762 135.128 9.08228 146.158 12.9299 155.901C15.0864 161.347 19.4769 165.257 24.6432 166.948C24.6432 166.948 27.7306 168.639 30.0888 172.548C30.9731 174.022 32.7883 174.658 34.4018 174.022L45.0912 169.802C46.6582 169.182 47.5735 167.537 47.2477 165.893C46.7668 163.41 46.3324 159.904 47.2477 158.027C49.8542 153.248 50.3972 147.399 48.2562 141.954L48.2407 141.969Z" fill="#EDECEC" stroke="black" stroke-width="2" stroke-miterlimit="10"/>
<path d="M46.5512 172.334L34.4734 177.104C33.8598 177.347 33.5588 178.04 33.8011 178.654L33.8068 178.669C34.0491 179.282 34.7431 179.583 35.3567 179.341L47.4345 174.571C48.0482 174.329 48.3492 173.635 48.1068 173.021L48.1011 173.007C47.8588 172.393 47.1649 172.092 46.5512 172.334Z" fill="black" stroke="black" stroke-miterlimit="10"/>
<path d="M46.8686 178.192L38.4992 181.497C37.9733 181.705 37.7153 182.299 37.923 182.825L38.0541 183.157C38.2618 183.683 38.8566 183.941 39.3825 183.734L47.7519 180.428C48.2779 180.221 48.5359 179.626 48.3282 179.1L48.1971 178.768C47.9894 178.242 47.3946 177.984 46.8686 178.192Z" fill="black" stroke="black" stroke-miterlimit="10"/>
<path d="M25.5889 138.262C25.5889 138.262 36.1387 133.577 41.4446 144.406" stroke="black" stroke-width="2" stroke-miterlimit="10" stroke-linecap="round"/>
<path d="M20.3931 121.195L22.5185 126.548" stroke="black" stroke-width="2" stroke-miterlimit="10" stroke-linecap="round"/>
<path d="M6.98633 129.635L11.7803 132.815" stroke="black" stroke-width="2" stroke-miterlimit="10" stroke-linecap="round"/>
<path d="M1 143.506L6.66276 144.499" stroke="black" stroke-width="2" stroke-miterlimit="10" stroke-linecap="round"/>
<path d="M2.20898 158.85L7.56146 156.74" stroke="black" stroke-width="2" stroke-miterlimit="10" stroke-linecap="round"/>
<path d="M35.7035 118.279L34.3848 123.88" stroke="black" stroke-width="2" stroke-miterlimit="10" stroke-linecap="round"/>
<path d="M49.5608 124.33L46.1011 128.922" stroke="black" stroke-width="2" stroke-miterlimit="10" stroke-linecap="round"/>
<path d="M59.147 136.369L53.8101 138.479" stroke="black" stroke-width="2" stroke-miterlimit="10" stroke-linecap="round"/>
<path d="M342.628 127.833C342.628 127.833 326.939 125.79 328.975 110.037C331.012 94.2996 347.665 97.8245 347.665 97.8245C347.665 97.8245 351.63 93.1298 357.959 95.3134C357.959 95.3134 365.469 85.8305 379.432 90.0728C393.395 94.3152 394.67 104.36 394.67 104.36C394.67 104.36 402.476 105.592 405.834 111.83C409.193 118.069 406.799 121.391 406.799 121.391C406.799 121.391 413.656 127.1 409.597 134.321C405.539 141.543 398.418 137.066 398.418 137.066C398.418 137.066 393.224 143.633 385.73 142.899C378.25 142.166 371.875 136.13 371.875 136.13C371.875 136.13 368.75 138.875 364.287 137.924C359.825 136.973 358.13 134.914 358.13 134.914C358.13 134.914 352.797 138.049 347.774 135.709C342.752 133.37 342.643 127.817 342.643 127.817L342.628 127.833Z" fill="white" stroke="black" stroke-width="2" stroke-miterlimit="10" stroke-linecap="round"/>
<path d="M296.444 89.7789C296.444 89.7789 288.625 90.078 288.319 82.4206C288.014 74.7632 296.428 75.0922 296.428 75.0922C296.428 75.0922 297.971 72.5347 301.239 73.0731C301.239 73.0731 304.125 67.9582 311.272 68.8406C318.419 69.723 319.885 74.4042 319.885 74.4042C319.885 74.4042 323.795 74.3593 325.933 77.0514C328.071 79.7435 327.185 81.5232 327.185 81.5232C327.185 81.5232 331.003 83.6918 329.613 87.4458C328.223 91.1997 324.39 89.6593 324.39 89.6593C324.39 89.6593 322.39 93.2038 318.694 93.4581C314.998 93.7123 311.379 91.3642 311.379 91.3642C311.379 91.3642 310.081 92.9197 307.821 92.8299C305.561 92.7402 304.568 91.9027 304.568 91.9027C304.568 91.9027 302.231 93.817 299.589 93.1141C296.948 92.4112 296.444 89.764 296.444 89.764V89.7789Z" fill="#EDECEC" stroke="black" stroke-width="2" stroke-miterlimit="10" stroke-linecap="round"/>
<path d="M212.969 295.361C212.969 295.361 222.75 398.689 250.651 417.335C250.651 417.335 261.501 408.012 295.602 404.904C329.704 401.797 332.804 381.597 343.654 381.597C354.504 381.597 359.155 381.597 359.155 381.597C359.155 381.597 321.953 340.468 318.853 277.896" fill="#EDECEC"/>
<path d="M212.969 295.361C212.969 295.361 222.75 398.689 250.651 417.335C250.651 417.335 261.501 408.012 295.602 404.904C329.704 401.797 332.804 381.597 343.654 381.597C354.504 381.597 359.155 381.597 359.155 381.597C359.155 381.597 321.953 340.468 318.853 277.896" stroke="black" stroke-width="2" stroke-miterlimit="10"/>
<path d="M301.909 257.656C301.909 257.656 322.07 273.032 328.274 273.032C334.477 273.032 283.299 289.946 269.341 308.397C255.383 326.848 232.121 332.998 232.121 332.998C232.121 332.998 215.65 293.021 213.029 295.327C210.409 297.633 294.155 263.807 301.909 257.656Z" fill="white" stroke="black" stroke-width="2" stroke-miterlimit="10"/>
<path d="M200.6 295.361C200.6 295.361 190.819 398.689 162.918 417.335C162.918 417.335 152.068 408.012 117.967 404.904C83.8655 401.797 80.7654 381.597 69.9151 381.597H54.4146C54.4146 381.597 91.6158 340.468 94.7159 277.896" fill="#EDECEC"/>
<path d="M200.6 295.361C200.6 295.361 190.819 398.689 162.918 417.335C162.918 417.335 152.068 408.012 117.967 404.904C83.8655 401.797 80.7654 381.597 69.9151 381.597H54.4146C54.4146 381.597 91.6158 340.468 94.7159 277.896" stroke="black" stroke-width="2" stroke-miterlimit="10"/>
<path d="M111.659 257.656C111.659 257.656 91.4979 273.032 85.2944 273.032C79.091 273.032 130.269 289.946 144.227 308.397C158.185 326.848 181.448 332.998 181.448 332.998C181.448 332.998 197.918 293.021 200.539 295.327C203.16 297.633 119.413 263.807 111.659 257.656Z" fill="white" stroke="black" stroke-width="2" stroke-miterlimit="10"/>
<path d="M264.452 115.969C264.452 115.969 257.41 172.413 264.452 179.565C271.495 186.717 299.541 167.509 319.796 174.755" fill="#F4F4F4"/>
<path d="M264.452 115.969C264.452 115.969 257.41 172.413 264.452 179.565C271.495 186.717 299.541 167.509 319.796 174.755" stroke="black" stroke-width="2" stroke-miterlimit="10" stroke-linecap="round"/>
<path d="M265 116.5L320 174.5" stroke="black" stroke-width="2"/>
<path d="M828.206 76.6406V81.625H831.063V83.043H828.206V88.0488H826.509V76.6406H828.206ZM822.062 88.4141C825.95 88.4141 828.356 89.7676 828.356 92.0449C828.356 94.3652 825.95 95.6973 822.062 95.6973C818.151 95.6973 815.724 94.3652 815.724 92.0449C815.724 89.7676 818.151 88.4141 822.062 88.4141ZM822.062 89.8105C819.183 89.7891 817.378 90.6484 817.378 92.0449C817.378 93.4629 819.183 94.3438 822.062 94.3438C824.919 94.3438 826.724 93.4629 826.724 92.0449C826.724 90.6484 824.919 89.7891 822.062 89.8105ZM822.62 78.1016V79.498H815.788V85.1055C819.655 85.084 821.89 84.9658 824.446 84.4395L824.618 85.8359C821.954 86.373 819.655 86.4805 815.616 86.4805H814.134V78.1016H822.62ZM848.036 76.6621V90.6699H846.36V76.6621H848.036ZM848.638 93.9141V95.332H835.704V89.3809H837.38V93.9141H848.638ZM839.034 79.6484C839.013 82.5488 841.011 85.1699 843.847 86.2012L842.966 87.5547C840.753 86.7061 839.034 84.9873 838.196 82.7852C837.348 85.127 835.607 87.0068 833.384 87.8984L832.46 86.5879C835.36 85.4707 837.315 82.6562 837.315 79.6484V77.7363H839.034V79.6484ZM868.683 86.7168V88.0918H851.28V86.7168H868.683ZM866.749 93.9141V95.332H853.536V89.7676H855.233V93.9141H866.749ZM859.981 77.3281C864.085 77.3066 866.728 78.7246 866.728 81.1094C866.728 83.4941 864.085 84.9121 859.981 84.9121C855.835 84.9121 853.214 83.4941 853.214 81.1094C853.214 78.7246 855.835 77.3066 859.981 77.3281ZM859.981 78.6816C856.909 78.6816 854.933 79.6055 854.954 81.1094C854.933 82.6133 856.909 83.5371 859.981 83.5371C863.032 83.5371 865.009 82.6133 865.009 81.1094C865.009 79.6055 863.032 78.6816 859.981 78.6816Z" fill="#222222"/>
<path d="M717.831 116.38L720.004 109.324H722.86L721.688 116.38H717.831ZM723.52 116.38L725.692 109.324H728.549L727.377 116.38H723.52ZM745.248 107.884V109.324C745.248 110.826 745.248 112.791 744.54 115.354H749.96C750.473 113.438 750.595 111.961 750.644 110.667H746.518V107.884H754.037V109.397C754.013 110.997 754.013 112.925 753.476 115.354H756.381V118.187H747.86V120.799H753.866V129.075H738.412V120.799H744.369V118.187H735.971V115.354H741C741.574 113.401 741.745 111.912 741.806 110.667H737.753V107.884H745.248ZM741.879 123.509V126.341H750.375V123.509H741.879ZM781.015 106.932V111.521H783.92V114.402H781.015V118.016H777.499V106.932H781.015ZM774.618 108.323V117.723H763.754V108.323H774.618ZM767.221 111.033V114.964H771.151V111.033H767.221ZM768.49 119.822V125.877C769.65 125.792 770.688 125.621 771.713 125.291L772.201 128.001C770.419 128.66 768.71 128.758 766.366 128.758H765.048V119.822H768.49ZM782.699 120.066V122.557H771.444V120.066H775.399V118.553H778.817V120.066H782.699ZM777.06 123.045C779.647 123.045 781.43 124.241 781.454 126.194C781.43 128.123 779.647 129.319 777.06 129.319C774.423 129.319 772.665 128.123 772.665 126.194C772.665 124.241 774.423 123.045 777.06 123.045ZM777.06 125.389C776.327 125.413 775.79 125.633 775.79 126.194C775.79 126.78 776.327 127 777.06 127C777.768 127 778.305 126.78 778.305 126.194C778.305 125.633 777.768 125.413 777.06 125.389ZM805.209 118.284V121.043H784.774V118.284H805.209ZM802.865 126.17V128.978H787.191V122.41H790.707V126.17H802.865ZM794.979 107.591C799.911 107.591 803.183 109.349 803.207 112.205C803.183 115.11 799.911 116.893 794.979 116.917C790.023 116.893 786.752 115.11 786.752 112.205C786.752 109.349 790.023 107.591 794.979 107.591ZM794.979 110.35C792.025 110.374 790.39 110.984 790.414 112.205C790.39 113.499 792.025 114.061 794.979 114.061C797.909 114.061 799.569 113.499 799.569 112.205C799.569 110.984 797.909 110.374 794.979 110.35ZM830.941 106.932V120.018H827.45V117.381H823.617V118.919H812.875V108.567H823.617V110.105H827.45V106.932H830.941ZM816.366 111.326V116.136H820.175V111.326H816.366ZM823.202 120.579C828.036 120.579 830.99 122.19 831.015 124.974C830.99 127.757 828.036 129.368 823.202 129.344C818.417 129.368 815.463 127.757 815.463 124.974C815.463 122.19 818.417 120.579 823.202 120.579ZM823.202 123.24C820.395 123.24 818.954 123.753 818.954 124.974C818.954 126.146 820.395 126.683 823.202 126.707C826.059 126.683 827.499 126.146 827.523 124.974C827.499 123.753 826.059 123.24 823.202 123.24ZM823.617 114.549H827.45V112.84H823.617V114.549ZM854.037 117.869V120.652H845.834V124.29H842.367V120.652H833.554V117.869H854.037ZM851.425 107.884V116.282H836.068V107.884H851.425ZM839.511 110.594V113.572H847.982V110.594H839.511ZM851.791 126.17V128.978H835.873V122.435H839.389V126.17H851.791ZM872.958 106.932V115.354H875.961V118.235H872.958V129.271H869.442V106.932H872.958ZM866.903 109.178C866.903 115.989 864.413 121.8 856.796 125.535L854.818 122.85C859.958 120.274 862.716 116.929 863.339 112.059H856.161V109.178H866.903ZM890.878 112.791C890.854 116.16 892.416 120.091 896.249 121.824L894.296 124.583C891.83 123.484 890.146 121.324 889.169 118.772C888.18 121.604 886.422 123.973 883.847 125.169L881.82 122.386C885.702 120.579 887.313 116.453 887.313 112.791V111.912H882.748V109.056H895.224V111.912H890.878V112.791ZM900.155 106.932V115.33H903.329V118.235H900.155V129.344H896.64V106.932H900.155ZM923.422 106.932V129.344H920.102V106.932H923.422ZM918.808 107.249V128.343H915.536V117.308H912.851V114.5H915.536V107.249H918.808ZM911.239 112.815C911.239 116.502 912.216 120.213 915.536 122.117L913.51 124.681C911.569 123.57 910.324 121.714 909.579 119.456C908.822 121.91 907.541 123.985 905.575 125.193L903.476 122.605C906.82 120.53 907.846 116.526 907.846 112.815V111.912H904.379V109.104H914.413V111.912H911.239V112.815ZM938.021 108.86V111.619H925.668V108.86H930.258V106.736H933.773V108.86H938.021ZM931.967 112.254C935.067 112.254 937.338 113.987 937.362 116.478C937.338 118.968 935.067 120.652 931.967 120.652C928.866 120.652 926.669 118.968 926.669 116.478C926.669 113.987 928.866 112.254 931.967 112.254ZM931.967 114.866C930.746 114.866 929.94 115.403 929.94 116.478C929.94 117.552 930.746 118.064 931.967 118.064C933.212 118.064 934.091 117.552 934.091 116.478C934.091 115.403 933.212 114.866 931.967 114.866ZM944.564 106.932V121.141H941.073V119.017H938.29V116.209H941.073V114.5H938.363V111.692H941.073V106.932H944.564ZM936.898 121.434C941.684 121.434 944.662 122.898 944.687 125.389C944.662 127.854 941.684 129.368 936.898 129.344C932.089 129.368 929.086 127.854 929.086 125.389C929.086 122.898 932.089 121.434 936.898 121.434ZM936.898 124.07C934.213 124.095 932.797 124.461 932.797 125.389C932.797 126.292 934.213 126.707 936.898 126.707C939.511 126.707 940.902 126.292 940.902 125.389C940.902 124.461 939.511 124.095 936.898 124.07ZM952.768 116.38L954.94 109.324H957.797L956.625 116.38H952.768ZM958.456 116.38L960.629 109.324H963.485L962.313 116.38H958.456Z" fill="black"/>
<defs>
<filter id="filter0_d_444_7" x="454.109" y="0" width="709.891" height="560" filterUnits="userSpaceOnUse" color-interpolation-filters="sRGB">
<feFlood flood-opacity="0" result="BackgroundImageFix"/>
<feColorMatrix in="SourceAlpha" type="matrix" values="0 0 0 0 0 0 0 0 0 0 0 0 0 0 0 0 0 0 127 0" result="hardAlpha"/>
<feOffset dy="4"/>
<feGaussianBlur stdDeviation="2"/>
<feComposite in2="hardAlpha" operator="out"/>
<feColorMatrix type="matrix" values="0 0 0 0 0 0 0 0 0 0 0 0 0 0 0 0 0 0 0.25 0"/>
<feBlend mode="normal" in2="BackgroundImageFix" result="effect1_dropShadow_444_7"/>
<feBlend mode="normal" in="SourceGraphic" in2="effect1_dropShadow_444_7" result="shape"/>
</filter>
</defs>
</svg>
