<svg width="1116" height="560" viewBox="0 0 1116 560" fill="none" xmlns="http://www.w3.org/2000/svg">
<path d="M43.1797 459.115V461.635C43.1797 465.004 43.1797 468.842 42.0957 474.643L37.8184 474.203C38.8438 469.281 38.917 465.546 38.9609 462.455H23.375V459.115H43.1797ZM45.377 477.279V480.678H20.8555V477.279H29.3809V468.139H33.5703V477.279H45.377ZM62.6621 458.324V461.664H57.5645C57.8721 464.257 59.7031 466.85 63.8047 467.904L61.6953 471.215C58.6777 470.365 56.6123 468.622 55.4258 466.41C54.1953 468.812 52.0713 470.717 48.9219 471.654L46.7832 468.373C51.0166 467.201 52.877 464.433 53.1992 461.664H47.9258V458.324H62.6621ZM69.3711 456.918V471.508H65.1523V456.918H69.3711ZM55.3672 472.562V474.848H65.1523V472.562H69.3711V483.52H51.2363V472.562H55.3672ZM55.3672 480.15H65.1523V478.1H55.3672V480.15ZM82.7012 473.91C82.7012 476.005 83.5068 478.158 85.5723 479.623C87.6523 478.085 88.502 475.888 88.5312 473.91V473.178H92.6914V473.91C92.6621 476.752 93.9805 479.271 97.584 480.355L95.5625 483.402C93.0283 482.582 91.4023 481.015 90.4648 478.979C89.5713 481.015 88.0332 482.729 85.6602 483.637C83.1699 482.758 81.6172 481.088 80.7383 479.066C79.7715 481.015 78.1748 482.567 75.7578 483.402L73.6777 480.355C77.252 479.154 78.5703 476.547 78.5996 473.91V473.178H82.7012V473.91ZM95.2988 456.947V472.094H91.0801V456.947H95.2988ZM80.5039 458.236C84.7227 458.266 87.9453 460.961 87.9453 464.77C87.9453 468.52 84.7227 471.244 80.5039 471.244C76.2852 471.244 73.0332 468.52 73.0625 464.77C73.0332 460.961 76.2852 458.266 80.5039 458.236ZM80.5039 461.781C78.541 461.781 77.1641 462.836 77.1641 464.77C77.1641 466.645 78.541 467.758 80.5039 467.758C82.4082 467.758 83.7559 466.645 83.7559 464.77C83.7559 462.836 82.4082 461.781 80.5039 461.781ZM120.494 464.008V467.289H101.598V457.885H105.787V464.008H120.494ZM123.189 469.896V473.207H98.6094V469.896H123.189ZM120.67 479.857V483.227H101.334V475.229H105.553V479.857H120.67ZM154.039 456.918V472.621H149.85V469.457H145.25V471.303H132.359V458.881H145.25V460.727H149.85V456.918H154.039ZM136.549 462.191V467.963H141.119V462.191H136.549ZM144.752 473.295C150.553 473.295 154.098 475.229 154.127 478.568C154.098 481.908 150.553 483.842 144.752 483.812C139.01 483.842 135.465 481.908 135.465 478.568C135.465 475.229 139.01 473.295 144.752 473.295ZM144.752 476.488C141.383 476.488 139.654 477.104 139.654 478.568C139.654 479.975 141.383 480.619 144.752 480.648C148.18 480.619 149.908 479.975 149.938 478.568C149.908 477.104 148.18 476.488 144.752 476.488ZM145.25 466.059H149.85V464.008H145.25V466.059ZM181.754 470.043V473.383H171.91V477.748H167.75V473.383H157.174V470.043H181.754ZM178.619 458.061V468.139H160.191V458.061H178.619ZM164.322 461.312V464.887H174.488V461.312H164.322ZM179.059 480.004V483.373H159.957V475.521H164.176V480.004H179.059ZM204.459 456.918V467.025H208.062V470.482H204.459V483.725H200.24V456.918H204.459ZM197.193 459.613C197.193 467.787 194.205 474.76 185.064 479.242L182.691 476.02C188.858 472.929 192.169 468.915 192.916 463.07H184.303V459.613H197.193ZM225.963 463.949C225.934 467.992 227.809 472.709 232.408 474.789L230.064 478.1C227.105 476.781 225.084 474.188 223.912 471.127C222.726 474.525 220.616 477.367 217.525 478.803L215.094 475.463C219.752 473.295 221.686 468.344 221.686 463.949V462.895H216.207V459.467H231.178V462.895H225.963V463.949ZM237.096 456.918V466.996H240.904V470.482H237.096V483.812H232.877V456.918H237.096ZM265.016 456.918V483.812H261.031V456.918H265.016ZM259.479 457.299V482.611H255.553V469.369H252.33V466H255.553V457.299H259.479ZM250.396 463.979C250.396 468.402 251.568 472.855 255.553 475.141L253.121 478.217C250.792 476.884 249.298 474.657 248.404 471.947C247.496 474.892 245.958 477.382 243.6 478.832L241.08 475.727C245.094 473.236 246.324 468.432 246.324 463.979V462.895H242.164V459.525H254.205V462.895H250.396V463.979ZM282.535 459.232V462.543H267.711V459.232H273.219V456.684H277.438V459.232H282.535ZM275.27 463.305C278.99 463.305 281.715 465.385 281.744 468.373C281.715 471.361 278.99 473.383 275.27 473.383C271.549 473.383 268.912 471.361 268.912 468.373C268.912 465.385 271.549 463.305 275.27 463.305ZM275.27 466.439C273.805 466.439 272.838 467.084 272.838 468.373C272.838 469.662 273.805 470.277 275.27 470.277C276.764 470.277 277.818 469.662 277.818 468.373C277.818 467.084 276.764 466.439 275.27 466.439ZM290.387 456.918V473.969H286.197V471.42H282.857V468.051H286.197V466H282.945V462.631H286.197V456.918H290.387ZM281.188 474.32C286.93 474.32 290.504 476.078 290.533 479.066C290.504 482.025 286.93 483.842 281.188 483.812C275.416 483.842 271.812 482.025 271.812 479.066C271.812 476.078 275.416 474.32 281.188 474.32ZM281.188 477.484C277.965 477.514 276.266 477.953 276.266 479.066C276.266 480.15 277.965 480.648 281.188 480.648C284.322 480.648 285.992 480.15 285.992 479.066C285.992 477.953 284.322 477.514 281.188 477.484Z" fill="#222222"/>
<g filter="url(#filter0_d_449_3)">
<path fill-rule="evenodd" clip-rule="evenodd" d="M532 0C498.311 0 471 27.3106 471 61V237.794L410.636 272.147C407.267 274.065 407.267 278.921 410.636 280.838L471 315.192V491C471 524.689 498.311 552 532 552H1049C1082.69 552 1110 524.689 1110 491V61C1110 27.3106 1082.69 0 1049 0H532Z" fill="white"/>
</g>
<path d="M697.94 224.455C697.94 227.721 701.679 230.643 705.009 231.266L704.235 232.684C701.356 232.018 698.316 229.966 697.081 227.141C695.846 229.955 692.816 232.007 689.927 232.684L689.153 231.266C692.462 230.621 696.179 227.742 696.179 224.455V222.994H697.94V224.455ZM705.911 236.744V238.141H688.423V236.744H705.911ZM722.669 223.596V225.959C722.669 228.773 722.669 231.373 721.874 235.24L720.177 235.09C720.596 233.253 720.811 231.663 720.929 230.17L709.263 230.814L709.026 229.418L720.993 228.924C721.025 227.914 721.025 226.937 721.036 225.959V225.014H709.542V223.596H722.669ZM724.839 236.637V238.055H707.437V236.637H724.839ZM742.671 221.662V232.232H741.06V227.57H738.374V232.039H736.806V222.006H738.374V226.217H741.06V221.662H742.671ZM731.757 233.113V235.305H741.017V233.113H742.671V240.482H730.081V233.113H731.757ZM731.757 239.107H741.017V236.68H731.757V239.107ZM734.528 222.801V227.699H728.964V230.234C731.478 230.202 733.4 230.105 735.667 229.633L735.86 231.029C733.39 231.502 731.349 231.609 728.577 231.609H727.331V226.41H732.917V224.176H727.288V222.801H734.528ZM757.452 225.186C757.452 227.721 759.321 230.041 762.157 231.029L761.298 232.34C759.117 231.566 757.452 229.998 756.636 228.021C755.819 230.191 754.068 231.878 751.823 232.705L750.921 231.395C753.778 230.385 755.776 227.914 755.798 225.186V224.369H751.437V222.994H761.749V224.369H757.452V225.186ZM765.917 221.641V226.689H768.796V228.129H765.917V233.156H764.241V221.641H765.917ZM765.917 234.166V240.74H764.241V235.541H753.413V234.166H765.917ZM776.573 224.648C776.552 227.377 778.485 229.783 781.3 230.729L780.354 232.039C778.249 231.244 776.595 229.697 775.778 227.678C774.951 229.966 773.2 231.749 770.901 232.619L769.978 231.244C772.921 230.213 774.876 227.678 774.897 224.713V222.736H776.573V224.648ZM785.833 221.641V232.963H784.136V227.141H779.882V225.744H784.136V221.641H785.833ZM779.495 233.521C783.47 233.521 785.897 234.832 785.897 237.131C785.897 239.408 783.47 240.697 779.495 240.697C775.521 240.697 773.093 239.408 773.093 237.131C773.093 234.832 775.521 233.521 779.495 233.521ZM779.495 234.854C776.573 234.854 774.747 235.713 774.769 237.131C774.747 238.506 776.573 239.344 779.495 239.344C782.417 239.344 784.222 238.506 784.222 237.131C784.222 235.713 782.417 234.854 779.495 234.854ZM804.438 230.6V231.975H798.53V236.916H806.501V238.334H789.013V236.916H796.876V231.975H791.247V223.209H804.245V224.584H792.944V230.6H804.438ZM828.479 221.641V226.109H831.358V227.506H828.479V231.867H826.804V221.641H828.479ZM823.345 222.994C823.323 227.764 819.95 230.943 814.321 232.232L813.612 230.857C818.479 229.794 821.196 227.377 821.476 224.369H814.429V222.994H823.345ZM828.565 232.727V234.016H818.081V235.906H828.351V237.195H818.081V239.172H829.017V240.482H816.384V232.727H828.565ZM848.31 221.641V240.783H846.612V221.641H848.31ZM838.147 223.123C840.983 223.145 843.024 225.723 843.024 229.783C843.024 233.844 840.983 236.422 838.147 236.422C835.29 236.422 833.271 233.844 833.271 229.783C833.271 225.723 835.29 223.145 838.147 223.123ZM838.147 224.627C836.235 224.648 834.903 226.668 834.903 229.783C834.903 232.898 836.235 234.918 838.147 234.918C840.06 234.918 841.392 232.898 841.392 229.783C841.392 226.668 840.06 224.648 838.147 224.627ZM866.636 224.949V226.324H857.054V224.949H861.028V222.221H862.704V224.949H866.636ZM861.845 227.613C864.251 227.613 865.97 229.418 865.991 231.953C865.97 234.51 864.251 236.336 861.845 236.336C859.46 236.336 857.741 234.51 857.741 231.953C857.741 229.418 859.46 227.613 861.845 227.613ZM861.845 229.031C860.341 229.053 859.245 230.277 859.245 231.953C859.245 233.65 860.341 234.875 861.845 234.854C863.37 234.875 864.487 233.65 864.487 231.953C864.487 230.277 863.37 229.053 861.845 229.031ZM873.36 221.641V240.74H871.749V231.094H869.214V239.795H867.624V222.113H869.214V229.697H871.749V221.641H873.36ZM882.835 226.775C882.835 230.234 885.048 233.715 887.819 234.982L886.81 236.357C884.64 235.24 882.846 232.952 881.997 230.234C881.148 233.092 879.354 235.541 877.185 236.701L876.089 235.348C878.882 233.973 881.116 230.299 881.116 226.775V223.295H882.835V226.775ZM891.944 221.641V240.783H890.269V229.547H885.735V228.172H890.269V221.641H891.944ZM661.148 252.506C661.148 255.75 663.512 259.037 666.326 260.262L665.381 261.594C663.146 260.573 661.213 258.371 660.332 255.729C659.43 258.532 657.507 260.971 655.326 262.066L654.316 260.734C657.045 259.424 659.43 255.814 659.451 252.506V250.014H654.939V248.617H665.703V250.014H661.148V252.506ZM670.064 246.641V265.74H668.367V246.641H670.064ZM680.098 249.412C680.076 252.205 682.096 254.676 684.932 255.664L684.072 256.996C681.859 256.19 680.108 254.536 679.26 252.42C678.411 254.687 676.639 256.47 674.404 257.34L673.523 256.008C676.381 254.955 678.379 252.291 678.379 249.412V247.586H680.098V249.412ZM689.1 259.102V265.74H687.424V260.498H676.252V259.102H689.1ZM689.1 246.641V258.156H687.424V246.641H689.1ZM701.045 246.984C705.299 246.984 707.791 248.145 707.791 250.271C707.791 252.441 705.299 253.602 701.045 253.623C696.791 253.602 694.277 252.441 694.277 250.271C694.277 248.145 696.791 246.984 701.045 246.984ZM701.045 248.252C697.865 248.252 696.018 249.025 696.039 250.271C696.018 251.604 697.865 252.334 701.045 252.334C704.203 252.334 706.072 251.604 706.072 250.271C706.072 249.025 704.203 248.252 701.045 248.252ZM709.746 254.912V256.287H692.344V254.912H709.746ZM707.512 257.941V262.217H696.168V264.193H708.092V265.525H694.492V260.971H705.857V259.23H694.449V257.941H707.512ZM723.238 252.871C723.238 255.922 725.236 259.059 728.008 260.391L727.02 261.701C724.914 260.67 723.249 258.586 722.465 256.115C721.627 258.769 719.854 260.992 717.674 262.045L716.707 260.734C719.5 259.424 721.584 256.158 721.605 252.871V251.346H717.223V249.971H721.584V247.006H723.281V249.971H727.578V251.346H723.238V252.871ZM731.66 246.641V254.482H734.861V255.922H731.66V265.74H729.984V246.641H731.66ZM753.295 255.729V257.125H735.914V255.729H743.111V251.861H744.766V255.729H753.295ZM751.082 259.316V265.74H749.363V260.713H737.762V259.316H751.082ZM751.082 247.693V249.133C751.082 250.594 751.082 252.248 750.609 254.418L748.912 254.246C749.406 252.098 749.406 250.572 749.406 249.133V249.068H737.977V247.693H751.082ZM766.787 252.871C766.787 255.922 768.785 259.059 771.557 260.391L770.568 261.701C768.463 260.67 766.798 258.586 766.014 256.115C765.176 258.769 763.403 260.992 761.223 262.045L760.256 260.734C763.049 259.424 765.133 256.158 765.154 252.871V251.346H760.771V249.971H765.133V247.006H766.83V249.971H771.127V251.346H766.787V252.871ZM775.209 246.641V254.482H778.41V255.922H775.209V265.74H773.533V246.641H775.209ZM796.844 255.729V257.125H779.463V255.729H786.66V251.861H788.314V255.729H796.844ZM794.631 259.316V265.74H792.912V260.713H781.311V259.316H794.631ZM794.631 247.693V249.133C794.631 250.594 794.631 252.248 794.158 254.418L792.461 254.246C792.955 252.098 792.955 250.572 792.955 249.133V249.068H781.525V247.693H794.631ZM819.295 246.641V250.809H821.809V252.227H819.295V256.824H817.619V246.641H819.295ZM808.424 248.789C808.424 250.196 808.821 252.42 810.314 253.902C811.732 252.463 812.141 250.271 812.141 248.811V247.479H812.506V247.457H813.709V248.789C813.709 250.809 814.547 253.279 816.76 254.418L815.836 255.621C814.343 254.837 813.451 253.473 812.979 251.947C812.538 253.483 811.732 254.966 810.293 255.836C808.832 254.944 808.016 253.387 807.607 251.84C807.103 253.365 806.211 254.805 804.75 255.621L803.826 254.418C805.975 253.193 806.812 250.594 806.834 248.789V247.457H808.424V248.789ZM820.09 257.941V259.273H806.555V257.941H812.506V256.029H814.182V257.941H820.09ZM813.344 260.176C816.846 260.176 818.908 261.164 818.908 262.926C818.908 264.752 816.846 265.697 813.344 265.697C809.777 265.697 807.715 264.752 807.736 262.926C807.715 261.164 809.777 260.176 813.344 260.176ZM813.344 261.4C810.809 261.422 809.391 261.98 809.412 262.926C809.391 263.914 810.809 264.473 813.344 264.451C815.814 264.473 817.254 263.914 817.254 262.926C817.254 261.98 815.814 261.422 813.344 261.4ZM828.104 248.123C830.918 248.145 832.916 250.723 832.938 254.783C832.916 258.844 830.918 261.422 828.104 261.422C825.268 261.422 823.291 258.844 823.291 254.783C823.291 250.723 825.268 248.145 828.104 248.123ZM828.104 249.627C826.213 249.648 824.881 251.668 824.881 254.783C824.881 257.898 826.213 259.918 828.104 259.918C830.016 259.918 831.305 257.898 831.305 254.783C831.305 251.668 830.016 249.648 828.104 249.627ZM837.771 246.641V254.268H840.973V255.729H837.771V265.74H836.096V246.641H837.771ZM859.879 254.268V255.686H856.785V265.74H855.109V246.641H856.785V254.268H859.879ZM844.475 248.531V259.467C847.268 259.456 850.114 259.241 853.262 258.586L853.477 260.025C850.189 260.691 847.225 260.885 844.324 260.885H842.799V248.531H844.475ZM875.799 246.641V254.418H878.893V255.836H875.799V265.74H874.123V246.641H875.799ZM870.857 248.703C870.857 254.117 868.322 259.037 862.092 262.109L861.146 260.777C866.088 258.317 868.773 254.644 869.16 250.121H862.027V248.703H870.857ZM888.281 248.23V251.152H894.49V248.23H896.166V256.824H892.234V260.24C893.996 260.176 895.769 260.047 897.412 259.832L897.52 261.1C893.48 261.744 888.947 261.809 885.596 261.83L885.316 260.391C886.874 260.38 888.668 260.369 890.537 260.305V256.824H886.605V248.23H888.281ZM888.281 255.449H894.49V252.463H888.281V255.449ZM900.312 246.641V254.676H903.428V256.094H900.312V265.74H898.637V246.641H900.312ZM922.055 261.873V263.291H904.566V261.873H908.906V256.717C907.273 255.868 906.285 254.493 906.285 252.764C906.285 249.799 909.186 247.865 913.268 247.844C917.35 247.865 920.25 249.799 920.25 252.764C920.25 254.461 919.294 255.825 917.715 256.674V261.873H922.055ZM913.268 249.24C910.131 249.219 907.918 250.637 907.918 252.764C907.918 254.891 910.131 256.33 913.268 256.33C916.383 256.33 918.617 254.891 918.617 252.764C918.617 250.637 916.383 249.219 913.268 249.24ZM910.561 261.873H916.018V257.318C915.19 257.544 914.267 257.662 913.268 257.662C912.29 257.662 911.377 257.555 910.561 257.34V261.873ZM926.674 248.445L926.523 259.617H924.719L924.568 248.445H926.674ZM925.621 264.129C924.869 264.129 924.225 263.506 924.246 262.732C924.225 261.98 924.869 261.357 925.621 261.357C926.373 261.357 926.996 261.98 926.996 262.732C926.996 263.506 926.373 264.129 925.621 264.129Z" fill="#222222"/>
<path d="M590.411 176.662V182.441H593.269V183.859H590.411V190.24H588.714V176.662H590.411ZM585.319 189.596C585.319 192.109 588.306 193.871 591.765 194.344L591.12 195.654C588.22 195.192 585.588 193.936 584.46 191.895C583.321 193.936 580.679 195.192 577.778 195.654L577.155 194.344C580.614 193.871 583.601 192.109 583.601 189.596V188.951H585.319V189.596ZM575.479 186.459C576.973 186.459 578.713 186.448 580.528 186.373V184.59C578.165 184.343 576.597 182.957 576.618 181.002C576.597 178.854 578.53 177.414 581.323 177.393C584.116 177.414 586.05 178.854 586.05 181.002C586.05 182.925 584.524 184.3 582.226 184.568V186.309C584.02 186.212 585.824 186.062 587.489 185.814L587.618 187.018C583.579 187.748 579.003 187.812 575.694 187.812L575.479 186.459ZM581.323 178.682C579.476 178.682 578.187 179.605 578.187 181.002C578.187 182.398 579.476 183.344 581.323 183.344C583.171 183.344 584.46 182.398 584.46 181.002C584.46 179.605 583.171 178.682 581.323 178.682ZM612.003 191.873V193.291H594.515V191.873H612.003ZM604.097 181.109C604.097 184.268 607.255 186.652 610.886 187.297L610.198 188.672C607.18 188.06 604.43 186.405 603.237 183.902C602.023 186.405 599.273 188.06 596.255 188.672L595.589 187.297C599.198 186.652 602.378 184.268 602.378 181.109H596.147V179.734H602.399V177.113H604.054V179.734H610.327V181.109H604.097ZM628.847 178.574V180.486C628.825 182.828 628.825 185.449 628.138 189.295L626.419 189.102C627.149 185.449 627.149 182.764 627.149 180.486V179.971H615.376V178.574H628.847ZM630.931 191.637V193.033H613.528V191.637H620.36V184.805H622.015V191.637H630.931ZM648.312 176.662V188.027H646.636V176.662H648.312ZM641.931 188.414C645.905 188.414 648.354 189.746 648.376 192.045C648.354 194.365 645.905 195.697 641.931 195.697C637.913 195.697 635.485 194.365 635.485 192.045C635.485 189.746 637.913 188.414 641.931 188.414ZM641.931 189.746C638.966 189.746 637.183 190.605 637.183 192.045C637.183 193.484 638.966 194.344 641.931 194.344C644.874 194.344 646.7 193.484 646.7 192.045C646.7 190.605 644.874 189.746 641.931 189.746ZM637.999 177.865C640.899 177.887 643.005 179.691 643.005 182.334C643.005 184.977 640.899 186.76 637.999 186.781C635.099 186.76 632.993 184.977 632.993 182.334C632.993 179.691 635.099 177.887 637.999 177.865ZM637.999 179.326C636.044 179.305 634.626 180.529 634.647 182.334C634.626 184.117 636.044 185.342 637.999 185.363C639.933 185.342 641.351 184.117 641.351 182.334C641.351 180.529 639.933 179.305 637.999 179.326ZM668.958 186.824V188.221H651.556V186.824H659.419V184.826C655.756 184.644 653.489 183.258 653.489 181.002C653.489 178.66 656.11 177.221 660.257 177.221C664.36 177.221 667.003 178.66 667.003 181.002C667.003 183.258 664.715 184.644 661.095 184.826V186.824H668.958ZM667.024 193.914V195.332H653.812V189.768H655.509V193.914H667.024ZM660.257 178.596C657.185 178.596 655.208 179.541 655.229 181.002C655.208 182.549 657.185 183.451 660.257 183.451C663.308 183.451 665.284 182.549 665.284 181.002C665.284 179.541 663.308 178.596 660.257 178.596ZM686.317 176.641V195.783H684.62V176.641H686.317ZM676.155 178.123C678.991 178.145 681.032 180.723 681.032 184.783C681.032 188.844 678.991 191.422 676.155 191.422C673.298 191.422 671.278 188.844 671.278 184.783C671.278 180.723 673.298 178.145 676.155 178.123ZM676.155 179.627C674.243 179.648 672.911 181.668 672.911 184.783C672.911 187.898 674.243 189.918 676.155 189.918C678.067 189.918 679.399 187.898 679.399 184.783C679.399 181.668 678.067 179.648 676.155 179.627ZM710.058 176.641V181.625H712.915V183.043H710.058V188.049H708.36V176.641H710.058ZM703.913 188.414C707.802 188.414 710.208 189.768 710.208 192.045C710.208 194.365 707.802 195.697 703.913 195.697C700.003 195.697 697.575 194.365 697.575 192.045C697.575 189.768 700.003 188.414 703.913 188.414ZM703.913 189.811C701.034 189.789 699.229 190.648 699.229 192.045C699.229 193.463 701.034 194.344 703.913 194.344C706.771 194.344 708.575 193.463 708.575 192.045C708.575 190.648 706.771 189.789 703.913 189.811ZM704.472 178.102V179.498H697.64V185.105C701.507 185.084 703.741 184.966 706.298 184.439L706.47 185.836C703.806 186.373 701.507 186.48 697.468 186.48H695.985V178.102H704.472ZM729.888 176.662V190.67H728.212V176.662H729.888ZM730.489 193.914V195.332H717.556V189.381H719.231V193.914H730.489ZM720.886 179.648C720.864 182.549 722.862 185.17 725.698 186.201L724.817 187.555C722.604 186.706 720.886 184.987 720.048 182.785C719.199 185.127 717.459 187.007 715.235 187.898L714.312 186.588C717.212 185.471 719.167 182.656 719.167 179.648V177.736H720.886V179.648ZM741.833 176.984C746.087 176.984 748.579 178.145 748.579 180.271C748.579 182.441 746.087 183.602 741.833 183.623C737.579 183.602 735.065 182.441 735.065 180.271C735.065 178.145 737.579 176.984 741.833 176.984ZM741.833 178.252C738.653 178.252 736.806 179.025 736.827 180.271C736.806 181.604 738.653 182.334 741.833 182.334C744.991 182.334 746.86 181.604 746.86 180.271C746.86 179.025 744.991 178.252 741.833 178.252ZM750.534 184.912V186.287H733.132V184.912H750.534ZM748.3 187.941V192.217H736.956V194.193H748.88V195.525H735.28V190.971H746.646V189.23H735.237V187.941H748.3ZM763.962 177.586C766.819 177.564 768.86 179.133 768.86 181.475C768.86 183.795 766.819 185.406 763.962 185.385C761.104 185.406 759.063 183.795 759.063 181.475C759.063 179.133 761.104 177.564 763.962 177.586ZM763.962 178.961C762.05 178.939 760.696 179.992 760.718 181.475C760.696 182.979 762.05 184.01 763.962 183.988C765.896 184.01 767.249 182.979 767.249 181.475C767.249 179.992 765.896 178.939 763.962 178.961ZM773.415 176.662V195.762H771.761V176.662H773.415ZM757.624 187.018C761.212 187.018 766.11 186.953 770.364 186.33L770.472 187.598C768.646 187.931 766.744 188.135 764.907 188.242V195.16H763.231V188.35C761.287 188.436 759.45 188.446 757.86 188.457L757.624 187.018ZM786.22 179.949V181.324H776.638V179.949H780.612V177.221H782.288V179.949H786.22ZM781.429 182.613C783.835 182.613 785.554 184.418 785.575 186.953C785.554 189.51 783.835 191.336 781.429 191.336C779.044 191.336 777.325 189.51 777.325 186.953C777.325 184.418 779.044 182.613 781.429 182.613ZM781.429 184.031C779.925 184.053 778.829 185.277 778.829 186.953C778.829 188.65 779.925 189.875 781.429 189.854C782.954 189.875 784.071 188.65 784.071 186.953C784.071 185.277 782.954 184.053 781.429 184.031ZM792.944 176.641V195.74H791.333V186.094H788.798V194.795H787.208V177.113H788.798V184.697H791.333V176.641H792.944ZM812.646 178.811V180.164H801.259V178.811H806.114V176.512H807.79V178.811H812.646ZM806.952 181.195C809.702 181.195 811.528 182.549 811.55 184.633C811.528 186.717 809.702 188.07 806.952 188.07C804.202 188.07 802.333 186.717 802.354 184.633C802.333 182.549 804.202 181.195 806.952 181.195ZM806.952 182.506C805.147 182.506 803.944 183.344 803.966 184.633C803.944 185.922 805.147 186.738 806.952 186.738C808.735 186.738 809.938 185.922 809.96 184.633C809.938 183.344 808.735 182.506 806.952 182.506ZM816.147 176.641V182.205H819.026V183.645H816.147V190.025H814.472V176.641H816.147ZM811.185 189.273C811.163 191.895 814.278 193.828 817.673 194.365L817.028 195.654C814.171 195.171 811.496 193.796 810.368 191.637C809.208 193.796 806.555 195.171 803.687 195.654L803.042 194.365C806.415 193.828 809.509 191.895 809.509 189.273V188.951H811.185V189.273ZM841.499 176.641V195.783H839.802V176.641H841.499ZM831.337 178.123C834.173 178.145 836.214 180.723 836.214 184.783C836.214 188.844 834.173 191.422 831.337 191.422C828.479 191.422 826.46 188.844 826.46 184.783C826.46 180.723 828.479 178.145 831.337 178.123ZM831.337 179.627C829.425 179.648 828.093 181.668 828.093 184.783C828.093 187.898 829.425 189.918 831.337 189.918C833.249 189.918 834.581 187.898 834.581 184.783C834.581 181.668 833.249 179.648 831.337 179.627ZM862.231 187.576V188.973H857.763V195.891H856.087V188.973H850.909V195.891H849.233V188.973H844.743V187.576H862.231ZM854.347 178.424C854.347 181.131 857.892 183.494 861.286 183.988L860.62 185.385C857.666 184.858 854.733 183.193 853.509 180.83C852.273 183.226 849.341 184.858 846.354 185.385L845.667 183.988C849.104 183.494 852.606 181.174 852.606 178.424V177.328H854.347V178.424ZM881.245 185.514V186.846H863.757V185.514H881.245ZM879.054 188.371V192.432H867.581V194.258H879.677V195.482H865.884V191.271H877.378V189.639H865.862V188.371H879.054ZM878.989 177.221V181.174H867.71V182.85H879.333V184.074H866.034V180.014H877.292V178.445H865.97V177.221H878.989ZM903.245 176.641V180.787H906.124V182.205H903.245V186.373H901.569V176.641H903.245ZM903.245 187.275V191.938H892.761V194.129H903.954V195.482H891.106V190.648H901.569V188.629H891.063V187.275H903.245ZM893.642 177.35C896.521 177.371 898.604 179.09 898.604 181.582C898.604 184.096 896.521 185.836 893.642 185.836C890.784 185.836 888.657 184.096 888.679 181.582C888.657 179.09 890.784 177.371 893.642 177.35ZM893.642 178.768C891.729 178.746 890.312 179.928 890.333 181.582C890.312 183.258 891.729 184.461 893.642 184.461C895.554 184.461 896.95 183.258 896.95 181.582C896.95 179.928 895.554 178.746 893.642 178.768ZM923.14 176.641V195.783H921.464V187.641H917.489V186.223H921.464V182.42H917.64V181.002H921.464V176.641H923.14ZM916.394 178.381V185.17H909.733V189.875C912.602 189.864 914.976 189.757 917.876 189.316L918.026 190.734C914.976 191.207 912.526 191.314 909.476 191.314H908.058V183.795H914.739V179.777H907.993V178.381H916.394ZM941.767 185.836V187.232H928.575V178.424H941.573V179.82H930.251V185.836H941.767ZM943.829 191.723V193.141H926.341V191.723H943.829ZM955.087 177.586V182.248H947.997V184.611C951.617 184.611 954.066 184.515 957.063 184.053L957.214 185.363C954.142 185.857 951.628 185.965 947.868 185.965H946.321V181.002H953.433V178.896H946.257V177.586H955.087ZM961.124 187.555V192.045H950.425V194.172H961.812V195.525H948.749V190.777H959.405V188.887H948.706V187.555H961.124ZM961.124 176.641V186.717H959.448V176.641H961.124ZM980.718 176.641V195.74H979.106V176.641H980.718ZM976.7 177.156V194.773H975.089V185.857H971.05C969.879 188.081 968.042 190.047 965.378 191.615L964.39 190.391C968.547 187.931 970.631 184.482 970.942 180.486H965.206V179.09H972.618C972.607 180.97 972.307 182.785 971.673 184.482H975.089V177.156H976.7ZM1000.87 191.873V193.291H983.382V191.873H987.722V186.717C986.089 185.868 985.101 184.493 985.101 182.764C985.101 179.799 988.001 177.865 992.083 177.844C996.165 177.865 999.065 179.799 999.065 182.764C999.065 184.461 998.109 185.825 996.53 186.674V191.873H1000.87ZM992.083 179.24C988.946 179.219 986.733 180.637 986.733 182.764C986.733 184.891 988.946 186.33 992.083 186.33C995.198 186.33 997.433 184.891 997.433 182.764C997.433 180.637 995.198 179.219 992.083 179.24ZM989.376 191.873H994.833V187.318C994.006 187.544 993.082 187.662 992.083 187.662C991.105 187.662 990.192 187.555 989.376 187.34V191.873ZM1005.49 178.445L1005.34 189.617H1003.53L1003.38 178.445H1005.49ZM1004.44 194.129C1003.68 194.129 1003.04 193.506 1003.06 192.732C1003.04 191.98 1003.68 191.357 1004.44 191.357C1005.19 191.357 1005.81 191.98 1005.81 192.732C1005.81 193.506 1005.19 194.129 1004.44 194.129Z" fill="#222222"/>
<path d="M568.135 352.107V353.504H554.986V346.629H556.705V352.107H568.135ZM570.176 356.275V357.672H565.643V364.74H563.967V357.672H559.004V364.74H557.328V357.672H552.773V356.275H570.176ZM581.305 348.455C581.305 351.721 585.043 354.643 588.373 355.266L587.6 356.684C584.721 356.018 581.681 353.966 580.445 351.141C579.21 353.955 576.181 356.007 573.291 356.684L572.518 355.266C575.826 354.621 579.543 351.742 579.543 348.455V346.994H581.305V348.455ZM589.275 360.744V362.141H571.787V360.744H589.275ZM602.854 349.25C602.854 351.914 604.787 354.428 607.58 355.438L606.635 356.748C604.54 355.91 602.875 354.245 602.059 352.172C601.242 354.481 599.502 356.318 597.246 357.221L596.344 355.846C599.201 354.793 601.178 352.129 601.199 349.186V346.822H602.854V349.25ZM612.156 345.662V359.971H610.459V351.57H606.205V350.152H610.459V345.662H612.156ZM612.586 362.914V364.332H599.803V358.338H601.5V362.914H612.586ZM631.836 348.477V349.873H616.195V348.477H623.199V345.963H624.854V348.477H631.836ZM632.824 361.109V362.506H615.336V361.109H623.199V358.424C619.805 358.241 617.742 356.92 617.764 354.771C617.742 352.494 620.148 351.162 624.037 351.184C627.883 351.162 630.311 352.494 630.311 354.771C630.311 356.92 628.227 358.241 624.854 358.424V361.109H632.824ZM624.037 352.516C621.18 352.516 619.439 353.354 619.461 354.771C619.439 356.232 621.18 357.049 624.037 357.07C626.852 357.049 628.592 356.232 628.592 354.771C628.592 353.354 626.852 352.516 624.037 352.516Z" fill="#222222"/>
<path d="M558.961 397.445V413H557.006V399.465H556.92L553.139 401.979V400.023L557.006 397.445H558.961ZM578.727 395.641V414.74H577.072V404.75H574.43V413.795H572.818V396.156H574.43V403.354H577.072V395.641H578.727ZM570.648 398.133C570.627 402.988 568.93 407.586 563.43 410.637L562.441 409.455C566.878 406.984 568.715 403.482 568.994 399.529H563.172V398.133H570.648ZM591.08 397.381V406.168H582.25V397.381H591.08ZM583.904 398.756V404.814H589.447V398.756H583.904ZM596.365 395.641V401.463H599.244V402.881H596.365V409.648H594.689V395.641H596.365ZM597.246 412.914V414.332H584.42V408.316H586.074V412.914H597.246ZM616.883 397.102V398.498H614.928V404.041C615.905 403.987 616.872 403.901 617.785 403.783L617.914 405.072C614.025 405.674 609.492 405.717 606.227 405.738L606.033 404.299L608.504 404.277V398.498H606.57V397.102H616.883ZM620.9 407.736V414.482H608.848V407.736H620.9ZM610.502 409.09V413.107H619.225V409.09H610.502ZM620.9 395.641V400.238H623.779V401.656H620.9V406.727H619.225V395.641H620.9ZM610.158 404.256C611.179 404.234 612.221 404.202 613.273 404.148V398.498H610.158V404.256Z" fill="#222222"/>
<path d="M570.24 458.748V460.145H562.27V466.74H560.615V460.145H552.752V458.748H570.24ZM567.963 448.715V456.148H555.008V448.715H567.963ZM556.662 450.09V454.816H566.287V450.09H556.662ZM586.719 447.641V452.324H589.598V453.721H586.719V458.49H585.043V447.641H586.719ZM581.498 448.887C581.477 453.699 578.104 457.137 572.453 458.684L571.766 457.33C576.471 456.062 579.339 453.517 579.693 450.283H572.625V448.887H581.498ZM586.719 459.371V466.482H574.623V459.371H586.719ZM576.299 460.768V465.107H585.043V460.768H576.299ZM605.732 447.641V452.496H608.611V453.936H605.732V458.855H604.057V447.641H605.732ZM600.49 448.865C600.49 453.699 597.117 457.137 591.467 458.641L590.779 457.33C595.463 456.062 598.353 453.506 598.707 450.262H591.639V448.865H600.49ZM605.732 459.736V466.74H604.057V461.111H593.229V459.736H605.732ZM620.643 449.789V451.164H609.836V449.789H614.477V447.49H616.152V449.789H620.643ZM615.293 452.152C617.85 452.152 619.654 453.549 619.654 455.676C619.654 457.824 617.85 459.221 615.293 459.221C612.715 459.221 610.953 457.824 610.975 455.676C610.953 453.549 612.715 452.152 615.293 452.152ZM615.293 453.42C613.639 453.441 612.543 454.344 612.543 455.676C612.543 457.029 613.639 457.91 615.293 457.91C616.947 457.91 618.064 457.029 618.086 455.676C618.064 454.344 616.947 453.441 615.293 453.42ZM625.648 447.641V459.994H623.951V457.352H620.621V455.955H623.951V453.635H620.643V452.238H623.951V447.641H625.648ZM619.354 460.188C623.328 460.188 625.756 461.369 625.756 463.453C625.756 465.494 623.328 466.697 619.354 466.697C615.336 466.697 612.93 465.494 612.93 463.453C612.93 461.369 615.336 460.188 619.354 460.188ZM619.354 461.498C616.453 461.498 614.67 462.207 614.67 463.453C614.67 464.656 616.453 465.387 619.354 465.387C622.211 465.387 623.973 464.656 623.973 463.453C623.973 462.207 622.211 461.498 619.354 461.498Z" fill="#222222"/>
<rect x="654" y="343" width="375" height="24" rx="12" fill="#E6E6E6"/>
<rect x="654" y="395" width="375" height="24" rx="12" fill="#E6E6E6"/>
<rect x="654" y="447" width="375" height="24" rx="12" fill="#E6E6E6"/>
<rect x="654" y="343" width="263" height="24" rx="12" fill="#8F8F8F"/>
<rect x="654" y="395" width="375" height="24" rx="12" fill="#8F8F8F"/>
<rect x="654" y="447" width="246" height="24" rx="12" fill="#8F8F8F"/>
<path d="M296.584 211.42H295.03V373.067H296.584V211.42Z" stroke="black" stroke-width="2" stroke-miterlimit="10" stroke-linecap="round"/>
<path d="M266.274 274.449C266.274 274.449 281.883 289.941 294.843 289.941C307.804 289.941 278.439 317.422 266.274 305.274" fill="#D9D9D9"/>
<path d="M266.274 274.449C266.274 274.449 281.883 289.941 294.843 289.941C307.804 289.941 278.439 317.422 266.274 305.274" stroke="black" stroke-width="2" stroke-miterlimit="10"/>
<path d="M268.623 173.168V408.816H43.3877V115.053H213.448L268.623 173.168Z" fill="#D9D9D9" stroke="black" stroke-width="2" stroke-miterlimit="10"/>
<path d="M149.496 294.574C149.496 294.574 139.695 397.935 111.734 416.587C111.734 416.587 100.861 407.261 66.6873 404.152C32.5136 401.044 29.4069 380.838 18.5335 380.838H3C3 380.838 40.2804 339.695 43.3871 277.104" fill="#EDECEC"/>
<path d="M149.496 294.574C149.496 294.574 139.695 397.935 111.734 416.587C111.734 416.587 100.861 407.261 66.6873 404.152C32.5136 401.044 29.4069 380.838 18.5335 380.838H3C3 380.838 40.2804 339.695 43.3871 277.104" stroke="black" stroke-width="2" stroke-miterlimit="10"/>
<path d="M161.505 294.574C161.505 294.574 171.307 397.935 199.267 416.587C199.267 416.587 210.14 407.261 244.314 404.152C278.488 401.044 281.594 380.838 292.468 380.838C303.341 380.838 308.001 380.838 308.001 380.838C308.001 380.838 270.721 339.695 267.614 277.104" fill="#EDECEC"/>
<path d="M161.505 294.574C161.505 294.574 171.307 397.935 199.267 416.587C199.267 416.587 210.14 407.261 244.314 404.152C278.488 401.044 281.594 380.838 292.468 380.838C303.341 380.838 308.001 380.838 308.001 380.838C308.001 380.838 270.721 339.695 267.614 277.104" stroke="black" stroke-width="2" stroke-miterlimit="10"/>
<path d="M56.6836 115.051L84.473 79.0849C85.6846 77.515 87.9836 77.313 89.4437 78.6652L99.9133 88.3019C101.42 89.7007 103.828 89.421 104.993 87.7268L126.693 56.2366C128.06 54.2627 130.996 54.2938 132.316 56.2988L152.712 87.447C153.892 89.25 156.409 89.4987 157.931 87.991L168.96 76.971C170.342 75.5877 172.61 75.6654 173.899 77.142L207.063 115.036H56.6836V115.051Z" fill="white" stroke="black" stroke-width="2" stroke-miterlimit="10"/>
<path d="M85.3284 73.0863C87.0442 73.0863 88.4351 71.6946 88.4351 69.9777C88.4351 68.2609 87.0442 66.8691 85.3284 66.8691C83.6126 66.8691 82.2217 68.2609 82.2217 69.9777C82.2217 71.6946 83.6126 73.0863 85.3284 73.0863Z" fill="white" stroke="black" stroke-width="2" stroke-miterlimit="10"/>
<path d="M170.761 73.0863C172.477 73.0863 173.868 71.6946 173.868 69.9777C173.868 68.2609 172.477 66.8691 170.761 66.8691C169.045 66.8691 167.654 68.2609 167.654 69.9777C167.654 71.6946 169.045 73.0863 170.761 73.0863Z" fill="white" stroke="black" stroke-width="2" stroke-miterlimit="10"/>
<path d="M130.375 48.2172C132.091 48.2172 133.482 46.8254 133.482 45.1086C133.482 43.3918 132.091 42 130.375 42C128.659 42 127.269 43.3918 127.269 45.1086C127.269 46.8254 128.659 48.2172 130.375 48.2172Z" fill="white" stroke="black" stroke-width="2" stroke-miterlimit="10"/>
<path d="M144.355 155.465C144.355 155.465 117.948 115.115 88.4348 148.501C88.4348 148.501 82.2214 152.356 79.1147 181.888C76.008 211.419 43.3877 237.842 18.5341 216.082C-6.31948 194.322 21.6408 183.442 27.8542 189.659C34.0676 195.876 29.4076 206.756 23.1942 202.094" stroke="black" stroke-width="2" stroke-miterlimit="10" stroke-linecap="round"/>
<path d="M154.419 155.465C154.419 155.465 180.826 115.115 210.34 148.501C210.34 148.501 216.553 152.356 219.66 181.888C222.766 211.419 255.387 237.842 280.24 216.082C305.094 194.322 277.134 183.442 270.92 189.659C264.707 195.876 269.367 206.756 275.58 202.094" stroke="black" stroke-width="2" stroke-miterlimit="10" stroke-linecap="round"/>
<path d="M116.394 180.332H99.3076V212.972H116.394V180.332Z" fill="black"/>
<path d="M207.265 181.109H190.178V213.75H207.265V181.109Z" fill="black"/>
<path d="M116.394 180.332H96.7441" stroke="black" stroke-width="2" stroke-miterlimit="10"/>
<path d="M116.394 212.973H96.7441" stroke="black" stroke-width="2" stroke-miterlimit="10"/>
<path d="M207.267 181.109H187.213" stroke="black" stroke-width="2" stroke-miterlimit="10"/>
<path d="M207.267 213.75H187.213" stroke="black" stroke-width="2" stroke-miterlimit="10"/>
<path d="M153.256 196.652C153.256 196.652 157.543 217.635 163.368 212.973C166.786 210.252 172.44 205.932 176.556 202.807C177.286 202.263 178.187 203.196 177.628 203.895C170.281 213.081 155.415 232.37 155.99 237.391" stroke="black" stroke-width="2" stroke-miterlimit="10" stroke-linecap="round"/>
<path d="M147.462 254.939L117.949 244.059C117.949 244.059 116.395 256.493 121.055 258.047C125.715 259.602 133.482 251.83 133.482 251.83" fill="white"/>
<path d="M147.462 254.939L117.949 244.059C117.949 244.059 116.395 256.493 121.055 258.047C125.715 259.602 133.482 251.83 133.482 251.83" stroke="black" stroke-width="2" stroke-miterlimit="10" stroke-linecap="round"/>
<path d="M213.449 115.053C213.449 115.053 206.427 170.868 213.449 177.94C220.47 185.012 248.43 166.018 268.624 173.184" fill="#F4F4F4"/>
<path d="M213.449 115.053C213.449 115.053 206.427 170.868 213.449 177.94C220.47 185.012 248.43 166.018 268.624 173.184" stroke="black" stroke-width="2" stroke-miterlimit="10" stroke-linecap="round"/>
<path d="M213.799 115.432L268.925 173.208" stroke="black"/>
<path d="M60.4737 256.494C60.4737 256.494 40.2801 272.037 34.0667 272.037C27.8533 272.037 79.1139 289.134 93.094 307.786C107.074 326.438 130.374 332.655 130.374 332.655C130.374 332.655 146.871 292.243 149.496 294.575C152.121 296.906 68.2404 262.711 60.4737 256.494Z" fill="white" stroke="black" stroke-width="2" stroke-miterlimit="10"/>
<path d="M250.525 256.494C250.525 256.494 270.719 272.037 276.932 272.037C283.146 272.037 231.885 289.134 217.905 307.786C203.925 326.438 180.624 332.655 180.624 332.655C180.624 332.655 164.128 292.243 161.503 294.575C158.878 296.906 242.758 262.711 250.525 256.494Z" fill="white" stroke="black" stroke-width="2" stroke-miterlimit="10"/>
<path d="M293.601 186.658C293.601 186.658 297.314 197.181 290.51 201.844C283.707 206.507 292.374 212.693 296.087 211.465C299.799 210.237 312.195 207.75 293.601 186.674V186.658Z" fill="#F4F4F4" stroke="black" stroke-width="2" stroke-miterlimit="10"/>
<path d="M213 114.5L269 173.5" stroke="black" stroke-width="2"/>
<path d="M778.206 76.6406V81.625H781.063V83.043H778.206V88.0488H776.509V76.6406H778.206ZM772.062 88.4141C775.95 88.4141 778.356 89.7676 778.356 92.0449C778.356 94.3652 775.95 95.6973 772.062 95.6973C768.151 95.6973 765.724 94.3652 765.724 92.0449C765.724 89.7676 768.151 88.4141 772.062 88.4141ZM772.062 89.8105C769.183 89.7891 767.378 90.6484 767.378 92.0449C767.378 93.4629 769.183 94.3438 772.062 94.3438C774.919 94.3438 776.724 93.4629 776.724 92.0449C776.724 90.6484 774.919 89.7891 772.062 89.8105ZM772.62 78.1016V79.498H765.788V85.1055C769.655 85.084 771.89 84.9658 774.446 84.4395L774.618 85.8359C771.954 86.373 769.655 86.4805 765.616 86.4805H764.134V78.1016H772.62ZM798.036 76.6621V90.6699H796.36V76.6621H798.036ZM798.638 93.9141V95.332H785.704V89.3809H787.38V93.9141H798.638ZM789.034 79.6484C789.013 82.5488 791.011 85.1699 793.847 86.2012L792.966 87.5547C790.753 86.7061 789.034 84.9873 788.196 82.7852C787.348 85.127 785.607 87.0068 783.384 87.8984L782.46 86.5879C785.36 85.4707 787.315 82.6562 787.315 79.6484V77.7363H789.034V79.6484ZM818.683 86.7168V88.0918H801.28V86.7168H818.683ZM816.749 93.9141V95.332H803.536V89.7676H805.233V93.9141H816.749ZM809.981 77.3281C814.085 77.3066 816.728 78.7246 816.728 81.1094C816.728 83.4941 814.085 84.9121 809.981 84.9121C805.835 84.9121 803.214 83.4941 803.214 81.1094C803.214 78.7246 805.835 77.3066 809.981 77.3281ZM809.981 78.6816C806.909 78.6816 804.933 79.6055 804.954 81.1094C804.933 82.6133 806.909 83.5371 809.981 83.5371C813.032 83.5371 815.009 82.6133 815.009 81.1094C815.009 79.6055 813.032 78.6816 809.981 78.6816Z" fill="#222222"/>
<path d="M659.823 116.38L661.996 109.324H664.853L663.681 116.38H659.823ZM665.512 116.38L667.685 109.324H670.541L669.369 116.38H665.512ZM696.566 108.763V110.862C696.566 113.67 696.566 116.868 695.663 121.702L692.099 121.336C692.953 117.234 693.014 114.122 693.051 111.546H680.062V108.763H696.566ZM698.397 123.899V126.731H677.963V123.899H685.067V116.282H688.559V123.899H698.397ZM712.802 108.104V110.887H708.554C708.81 113.047 710.336 115.208 713.754 116.087L711.996 118.846C709.481 118.138 707.76 116.685 706.771 114.842C705.746 116.844 703.976 118.431 701.352 119.212L699.569 116.478C703.097 115.501 704.647 113.194 704.916 110.887H700.521V108.104H712.802ZM718.393 106.932V119.09H714.877V106.932H718.393ZM706.723 119.969V121.873H714.877V119.969H718.393V129.1H703.28V119.969H706.723ZM706.723 126.292H714.877V124.583H706.723V126.292ZM729.501 121.092C729.501 122.837 730.172 124.632 731.894 125.853C733.627 124.571 734.335 122.74 734.359 121.092V120.481H737.826V121.092C737.802 123.46 738.9 125.56 741.903 126.463L740.219 129.002C738.107 128.318 736.752 127.012 735.971 125.315C735.226 127.012 733.944 128.44 731.967 129.197C729.892 128.465 728.598 127.073 727.865 125.389C727.06 127.012 725.729 128.306 723.715 129.002L721.981 126.463C724.96 125.462 726.059 123.289 726.083 121.092V120.481H729.501V121.092ZM739.999 106.956V119.578H736.483V106.956H739.999ZM727.67 108.03C731.186 108.055 733.871 110.301 733.871 113.475C733.871 116.6 731.186 118.87 727.67 118.87C724.154 118.87 721.444 116.6 721.469 113.475C721.444 110.301 724.154 108.055 727.67 108.03ZM727.67 110.984C726.034 110.984 724.887 111.863 724.887 113.475C724.887 115.037 726.034 115.965 727.67 115.965C729.257 115.965 730.38 115.037 730.38 113.475C730.38 111.863 729.257 110.984 727.67 110.984ZM760.995 112.84V115.574H745.248V107.737H748.739V112.84H760.995ZM763.241 117.747V120.506H742.758V117.747H763.241ZM761.142 126.048V128.855H745.028V122.19H748.544V126.048H761.142ZM788.949 106.932V120.018H785.458V117.381H781.625V118.919H770.883V108.567H781.625V110.105H785.458V106.932H788.949ZM774.374 111.326V116.136H778.183V111.326H774.374ZM781.21 120.579C786.044 120.579 788.998 122.19 789.022 124.974C788.998 127.757 786.044 129.368 781.21 129.344C776.425 129.368 773.471 127.757 773.471 124.974C773.471 122.19 776.425 120.579 781.21 120.579ZM781.21 123.24C778.402 123.24 776.962 123.753 776.962 124.974C776.962 126.146 778.402 126.683 781.21 126.707C784.066 126.683 785.507 126.146 785.531 124.974C785.507 123.753 784.066 123.24 781.21 123.24ZM781.625 114.549H785.458V112.84H781.625V114.549ZM812.045 117.869V120.652H803.842V124.29H800.375V120.652H791.562V117.869H812.045ZM809.433 107.884V116.282H794.076V107.884H809.433ZM797.519 110.594V113.572H805.99V110.594H797.519ZM809.799 126.17V128.978H793.881V122.435H797.396V126.17H809.799ZM830.966 106.932V115.354H833.969V118.235H830.966V129.271H827.45V106.932H830.966ZM824.911 109.178C824.911 115.989 822.421 121.8 814.804 125.535L812.826 122.85C817.965 120.274 820.724 116.929 821.347 112.059H814.169V109.178H824.911ZM848.886 112.791C848.861 116.16 850.424 120.091 854.257 121.824L852.304 124.583C849.838 123.484 848.153 121.324 847.177 118.772C846.188 121.604 844.43 123.973 841.854 125.169L839.828 122.386C843.71 120.579 845.321 116.453 845.321 112.791V111.912H840.756V109.056H853.231V111.912H848.886V112.791ZM858.163 106.932V115.33H861.337V118.235H858.163V129.344H854.647V106.932H858.163ZM881.43 106.932V129.344H878.109V106.932H881.43ZM876.815 107.249V128.343H873.544V117.308H870.858V114.5H873.544V107.249H876.815ZM869.247 112.815C869.247 116.502 870.224 120.213 873.544 122.117L871.518 124.681C869.577 123.57 868.332 121.714 867.587 119.456C866.83 121.91 865.548 123.985 863.583 125.193L861.483 122.605C864.828 120.53 865.854 116.526 865.854 112.815V111.912H862.387V109.104H872.421V111.912H869.247V112.815ZM896.029 108.86V111.619H883.676V108.86H888.266V106.736H891.781V108.86H896.029ZM889.975 112.254C893.075 112.254 895.346 113.987 895.37 116.478C895.346 118.968 893.075 120.652 889.975 120.652C886.874 120.652 884.677 118.968 884.677 116.478C884.677 113.987 886.874 112.254 889.975 112.254ZM889.975 114.866C888.754 114.866 887.948 115.403 887.948 116.478C887.948 117.552 888.754 118.064 889.975 118.064C891.22 118.064 892.099 117.552 892.099 116.478C892.099 115.403 891.22 114.866 889.975 114.866ZM902.572 106.932V121.141H899.081V119.017H896.298V116.209H899.081V114.5H896.371V111.692H899.081V106.932H902.572ZM894.906 121.434C899.691 121.434 902.67 122.898 902.694 125.389C902.67 127.854 899.691 129.368 894.906 129.344C890.097 129.368 887.094 127.854 887.094 125.389C887.094 122.898 890.097 121.434 894.906 121.434ZM894.906 124.07C892.221 124.095 890.805 124.461 890.805 125.389C890.805 126.292 892.221 126.707 894.906 126.707C897.519 126.707 898.91 126.292 898.91 125.389C898.91 124.461 897.519 124.095 894.906 124.07ZM910.775 116.38L912.948 109.324H915.805L914.633 116.38H910.775ZM916.464 116.38L918.637 109.324H921.493L920.321 116.38H916.464Z" fill="black"/>
<defs>
<filter id="filter0_d_449_3" x="404.109" y="0" width="709.892" height="560" filterUnits="userSpaceOnUse" color-interpolation-filters="sRGB">
<feFlood flood-opacity="0" result="BackgroundImageFix"/>
<feColorMatrix in="SourceAlpha" type="matrix" values="0 0 0 0 0 0 0 0 0 0 0 0 0 0 0 0 0 0 127 0" result="hardAlpha"/>
<feOffset dy="4"/>
<feGaussianBlur stdDeviation="2"/>
<feComposite in2="hardAlpha" operator="out"/>
<feColorMatrix type="matrix" values="0 0 0 0 0 0 0 0 0 0 0 0 0 0 0 0 0 0 0.25 0"/>
<feBlend mode="normal" in2="BackgroundImageFix" result="effect1_dropShadow_449_3"/>
<feBlend mode="normal" in="SourceGraphic" in2="effect1_dropShadow_449_3" result="shape"/>
</filter>
</defs>
</svg>
