<svg width="1126" height="479" viewBox="0 0 1126 479" fill="none" xmlns="http://www.w3.org/2000/svg">
<path d="M22.4893 437.918V444.363H25.9756V447.762H22.4893V454.031H18.2705V437.918H22.4893ZM22.4893 455.145V464.812H18.2705V458.484H4.2373V455.145H22.4893ZM5.93652 439.617V442.986H10.7119V439.617H14.9307V452.771H1.77637V439.617H5.93652ZM5.93652 449.461H10.7119V446.238H5.93652V449.461ZM37.167 443.631C37.167 448.494 38.8662 453.328 43.3193 455.496L40.7998 458.836C37.9873 457.474 36.1416 454.998 35.0869 451.951C33.915 455.247 31.9375 457.898 28.9346 459.363L26.3564 455.936C31.1025 453.797 32.9482 448.67 32.9482 443.631V439.91H37.167V443.631ZM48.3291 437.918V448.113H52.1377V451.658H48.3291V464.812H44.1104V437.918H48.3291ZM74.2568 437.918V448.025H77.8604V451.482H74.2568V464.725H70.0381V437.918H74.2568ZM66.9912 440.613C66.9912 448.787 64.0029 455.76 54.8623 460.242L52.4893 457.02C58.6562 453.929 61.9668 449.915 62.7139 444.07H54.1006V440.613H66.9912ZM96.6982 439.061V440.789C96.6982 442.591 96.6982 444.949 95.8486 448.025H102.353C102.968 445.726 103.114 443.953 103.173 442.4H98.2217V439.061H107.245V440.877C107.216 442.796 107.216 445.11 106.571 448.025H110.058V451.424H99.833V454.559H107.04V464.49H88.4951V454.559H95.6436V451.424H85.5654V448.025H91.6006C92.2891 445.682 92.4941 443.895 92.5674 442.4H87.7041V439.061H96.6982ZM92.6553 457.811V461.209H102.851V457.811H92.6553ZM134.081 437.947V457.166H129.862V437.947H134.081ZM134.755 461.004V464.373H115.858V455.232H120.136V461.004H134.755ZM119.286 439.617C123.446 439.617 126.728 442.488 126.728 446.443C126.728 450.486 123.446 453.328 119.286 453.328C115.126 453.328 111.815 450.486 111.845 446.443C111.815 442.488 115.126 439.617 119.286 439.617ZM119.286 443.279C117.382 443.25 115.946 444.422 115.946 446.443C115.946 448.553 117.382 449.666 119.286 449.666C121.103 449.666 122.538 448.553 122.538 446.443C122.538 444.422 121.103 443.25 119.286 443.279ZM165.546 437.947V446.004H169.032V449.432H165.546V458.016H161.327V437.947H165.546ZM160.038 440.643V443.924H144.101V440.643H149.96V437.918H154.179V440.643H160.038ZM152.069 444.686C155.995 444.686 158.749 446.824 158.749 449.959C158.749 453.064 155.995 455.145 152.069 455.145C148.144 455.145 145.331 453.064 145.36 449.959C145.331 446.824 148.144 444.686 152.069 444.686ZM152.069 447.908C150.517 447.908 149.462 448.611 149.462 449.959C149.462 451.307 150.517 451.951 152.069 451.98C153.651 451.951 154.735 451.307 154.735 449.959C154.735 448.611 153.651 447.908 152.069 447.908ZM166.425 461.004V464.373H147.909V456.463H152.128V461.004H166.425ZM194.608 452.83V456.258H184.325V464.842H180.136V456.258H170.028V452.83H194.608ZM182.245 438.768C188.046 438.768 192.147 441.17 192.147 444.92C192.147 448.611 188.046 450.955 182.245 450.955C176.444 450.955 172.372 448.611 172.401 444.92C172.372 441.17 176.444 438.768 182.245 438.768ZM182.245 442.107C178.817 442.137 176.737 443.074 176.737 444.92C176.737 446.707 178.817 447.645 182.245 447.645C185.702 447.645 187.782 446.707 187.782 444.92C187.782 443.074 185.702 442.137 182.245 442.107ZM220.507 448.377V451.688H210.312V453.094H217.577V460.271H202.929V461.502H218.222V464.666H198.769V457.312H213.388V456.258H198.769V453.094H206.063V451.688H195.985V448.377H220.507ZM217.431 438.68V447.234H198.974V438.68H217.431ZM203.104 441.932V444.012H213.212V441.932H203.104ZM233.954 439.471V442.811H238.524V439.471H242.685V444.158H247.196V437.918H251.386V453.504H247.196V447.586H242.685V452.449H229.706V439.471H233.954ZM233.954 449.109H238.524V446.092H233.954V449.109ZM251.386 454.471V464.52H233.163V454.471H251.386ZM237.411 457.811V461.15H247.284V457.811H237.411ZM263.339 442.547C263.31 445.359 264.599 448.099 267.997 449.52V438.416H271.894V444.305H273.71V437.947H277.724V454.354H273.71V447.703H271.894V453.504H267.997V449.959L266.005 452.859C263.808 452.01 262.299 450.53 261.347 448.67C260.38 450.896 258.754 452.742 256.308 453.738L254.052 450.486C257.89 448.787 259.208 445.535 259.208 442.547V439.559H263.339V442.547ZM268.437 454.617C274.149 454.617 277.841 456.551 277.87 459.715C277.841 462.879 274.149 464.842 268.437 464.812C262.724 464.842 259.032 462.879 259.062 459.715C259.032 456.551 262.724 454.617 268.437 454.617ZM268.437 457.781C265.126 457.752 263.251 458.396 263.28 459.715C263.251 461.033 265.126 461.648 268.437 461.648C271.747 461.648 273.593 461.033 273.622 459.715C273.593 458.396 271.747 457.752 268.437 457.781ZM303.065 437.918V464.871H298.817V437.918H303.065ZM288.388 439.764C292.46 439.764 295.507 443.484 295.536 449.373C295.507 455.35 292.46 459.07 288.388 459.07C284.228 459.07 281.181 455.35 281.181 449.373C281.181 443.484 284.228 439.764 288.388 439.764ZM288.388 443.572C286.483 443.572 285.253 445.535 285.282 449.373C285.253 453.27 286.483 455.232 288.388 455.232C290.233 455.232 291.464 453.27 291.464 449.373C291.464 445.535 290.233 443.572 288.388 443.572ZM321.317 440.232V443.543H306.493V440.232H312.001V437.684H316.22V440.232H321.317ZM314.052 444.305C317.772 444.305 320.497 446.385 320.526 449.373C320.497 452.361 317.772 454.383 314.052 454.383C310.331 454.383 307.694 452.361 307.694 449.373C307.694 446.385 310.331 444.305 314.052 444.305ZM314.052 447.439C312.587 447.439 311.62 448.084 311.62 449.373C311.62 450.662 312.587 451.277 314.052 451.277C315.546 451.277 316.601 450.662 316.601 449.373C316.601 448.084 315.546 447.439 314.052 447.439ZM329.169 437.918V454.969H324.979V452.42H321.64V449.051H324.979V447H321.728V443.631H324.979V437.918H329.169ZM319.97 455.32C325.712 455.32 329.286 457.078 329.315 460.066C329.286 463.025 325.712 464.842 319.97 464.812C314.198 464.842 310.595 463.025 310.595 460.066C310.595 457.078 314.198 455.32 319.97 455.32ZM319.97 458.484C316.747 458.514 315.048 458.953 315.048 460.066C315.048 461.15 316.747 461.648 319.97 461.648C323.104 461.648 324.774 461.15 324.774 460.066C324.774 458.953 323.104 458.514 319.97 458.484Z" fill="#222222"/>
<path d="M275.318 140.277V377.003H48.9126V81.8955H219.856L275.318 140.277Z" fill="#D9D9D9" stroke="black" stroke-width="2" stroke-miterlimit="10"/>
<path d="M48.9126 295.763C48.9126 295.763 44.2596 310.643 34.8754 311.033C25.4913 311.424 13 302.055 13 306.739C13 311.424 30.1756 339.529 39.5441 344.213C48.9126 348.898 48.9126 342.012 48.9126 342.012" fill="#D9D9D9"/>
<path d="M48.9126 295.763C48.9126 295.763 44.2596 310.643 34.8754 311.033C25.4913 311.424 13 302.055 13 306.739C13 311.424 30.1756 339.529 39.5441 344.213C48.9126 348.898 48.9126 342.012 48.9126 342.012" stroke="black" stroke-width="2" stroke-miterlimit="10"/>
<path d="M212.86 55.3511H87.9468V80.3337H212.86V55.3511Z" fill="#FEFEFE" stroke="black" stroke-width="2" stroke-miterlimit="10"/>
<path d="M112.696 38.1753H224.806C225.977 38.1753 226.913 39.1278 226.913 40.2832V53.1805C226.913 54.3828 225.945 55.3509 224.743 55.3509H111.603C107.168 55.3509 103.562 51.744 103.562 47.3096C103.562 42.2662 107.652 38.1753 112.696 38.1753Z" fill="#969696" stroke="black" stroke-width="2" stroke-miterlimit="10"/>
<path d="M202.9 21H97.9101C96.7201 21 95.7554 21.9647 95.7554 23.1548V36.0208C95.7554 37.2109 96.7201 38.1756 97.9101 38.1756H202.9C204.09 38.1756 205.055 37.2109 205.055 36.0208V23.1548C205.055 21.9647 204.09 21 202.9 21Z" fill="#EBEBEB" stroke="black" stroke-width="2" stroke-miterlimit="10"/>
<path d="M121.519 30.3682H205.055" stroke="black" stroke-width="2" stroke-miterlimit="10" stroke-linecap="round"/>
<path d="M121.519 35.0527H205.055" stroke="black" stroke-width="2" stroke-miterlimit="10" stroke-linecap="round"/>
<path d="M121.519 25.6841H205.055" stroke="black" stroke-width="2" stroke-miterlimit="10" stroke-linecap="round"/>
<path d="M134.01 47.5439H226.915" stroke="black" stroke-width="2" stroke-miterlimit="10" stroke-linecap="round"/>
<path d="M134.01 52.2285H226.915" stroke="black" stroke-width="2" stroke-miterlimit="10" stroke-linecap="round"/>
<path d="M134.01 42.8594H226.915" stroke="black" stroke-width="2" stroke-miterlimit="10" stroke-linecap="round"/>
<path d="M119.956 66.2808H212.86" stroke="black" stroke-width="2" stroke-miterlimit="10" stroke-linecap="round"/>
<path d="M119.956 70.9648H212.86" stroke="black" stroke-width="2" stroke-miterlimit="10" stroke-linecap="round"/>
<path d="M119.956 75.6494H212.86" stroke="black" stroke-width="2" stroke-miterlimit="10" stroke-linecap="round"/>
<path d="M119.956 61.5967H212.86" stroke="black" stroke-width="2" stroke-miterlimit="10" stroke-linecap="round"/>
<path d="M114.882 221.643C135.794 221.643 152.746 204.69 152.746 183.778C152.746 162.867 135.794 145.914 114.882 145.914C93.97 145.914 77.0176 162.867 77.0176 183.778C77.0176 204.69 93.97 221.643 114.882 221.643Z" stroke="black" stroke-width="6" stroke-miterlimit="10" stroke-linecap="round"/>
<path d="M210.129 221.643C231.04 221.643 247.993 204.69 247.993 183.778C247.993 162.867 231.04 145.914 210.129 145.914C189.217 145.914 172.264 162.867 172.264 183.778C172.264 204.69 189.217 221.643 210.129 221.643Z" stroke="black" stroke-width="6" stroke-miterlimit="10" stroke-linecap="round"/>
<path d="M152.748 183.778V188.852H171.485V181.045H152.748V183.778Z" fill="black"/>
<path d="M219.856 81.8955C219.856 81.8955 212.799 137.966 219.856 145.07C226.914 152.175 255.02 133.094 275.318 140.292" fill="#F4F4F4"/>
<path d="M219.856 81.8955C219.856 81.8955 212.799 137.966 219.856 145.07C226.914 152.175 255.02 133.094 275.318 140.292" stroke="black" stroke-width="2" stroke-miterlimit="10" stroke-linecap="round"/>
<path d="M108.762 114.279C108.762 114.279 116.054 106.878 126.984 110.001" stroke="black" stroke-width="2" stroke-miterlimit="10" stroke-linecap="round"/>
<path d="M195.341 109.236C195.341 109.236 203.57 104.146 213.672 111.765" stroke="black" stroke-width="2" stroke-miterlimit="10" stroke-linecap="round"/>
<path d="M184.755 238.036C184.755 238.036 125.421 230.229 128.544 248.966C131.667 267.703 180.071 250.528 184.755 238.036Z" fill="white" stroke="black" stroke-width="2" stroke-miterlimit="10" stroke-linecap="round"/>
<path d="M143.598 330.317L148.469 342.48C149.64 345.4 152.466 347.321 155.621 347.321H169.611C172.64 347.321 175.404 345.541 176.637 342.761L181.962 330.863" fill="black"/>
<path d="M143.598 330.317L148.469 342.48C149.64 345.4 152.466 347.321 155.621 347.321H169.611C172.64 347.321 175.404 345.541 176.637 342.761L181.962 330.863" stroke="black" stroke-width="2" stroke-miterlimit="10" stroke-linecap="round"/>
<path d="M91.8508 242.721C98.3184 242.721 103.561 241.323 103.561 239.598C103.561 237.874 98.3184 236.476 91.8508 236.476C85.3832 236.476 80.1401 237.874 80.1401 239.598C80.1401 241.323 85.3832 242.721 91.8508 242.721Z" fill="white"/>
<path d="M230.816 242.721C237.284 242.721 242.527 241.323 242.527 239.598C242.527 237.874 237.284 236.476 230.816 236.476C224.348 236.476 219.105 237.874 219.105 239.598C219.105 241.323 224.348 242.721 230.816 242.721Z" fill="white"/>
<path d="M275.318 246.843C275.318 246.843 278.441 269.265 286.248 263.019C291.463 258.851 298.068 246.312 301.893 238.443C302.861 236.444 305.875 236.991 306.062 239.208C307.249 253.448 305.812 285.988 275.333 317.653" fill="#D9D9D9"/>
<path d="M275.318 246.843C275.318 246.843 278.441 269.265 286.248 263.019C291.463 258.851 298.068 246.312 301.893 238.443C302.861 236.444 305.875 236.991 306.062 239.208C307.249 253.448 305.812 285.988 275.333 317.653" stroke="black" stroke-width="2" stroke-miterlimit="10" stroke-linecap="round"/>
<path d="M116.053 205.247C122.952 205.247 128.544 195.11 128.544 182.606C128.544 170.102 122.952 159.966 116.053 159.966C109.154 159.966 103.562 170.102 103.562 182.606C103.562 195.11 109.154 205.247 116.053 205.247Z" fill="black"/>
<path d="M210.518 206.028C217.417 206.028 223.01 195.891 223.01 183.387C223.01 170.883 217.417 160.747 210.518 160.747C203.619 160.747 198.027 170.883 198.027 183.387C198.027 195.891 203.619 206.028 210.518 206.028Z" fill="black"/>
<path d="M161.741 322.728L51.2549 282.771L64.6987 302.742L95.443 309.893L120.597 339.966L161.741 322.728Z" fill="#F4F4F4" stroke="black" stroke-width="2" stroke-miterlimit="10" stroke-linecap="round"/>
<path d="M154.402 347.336L144.83 378.564C144.081 381.031 144.83 383.717 146.735 385.45L158.321 395.927C160.85 398.222 164.707 398.222 167.252 395.927L178.869 385.419C180.758 383.701 181.508 381.062 180.79 378.595L171.515 347.07L154.402 347.32V347.336Z" fill="black" stroke="black" stroke-width="2" stroke-miterlimit="10" stroke-linecap="round"/>
<path d="M144.208 330.467L161.882 322.969L181.161 331.002L144.208 330.467Z" fill="black"/>
<path d="M48.3454 300.477L50.4876 292.443L51.5587 348.14L46.7388 343.856L48.3454 300.477Z" fill="#D9D9D9"/>
<path d="M275.417 253.884L273.811 244.244L271.668 321.363L276.488 314.401L275.417 253.884Z" fill="#D9D9D9"/>
<path d="M162.491 322.728L272.977 282.771L259.533 302.742L228.789 309.893L203.635 339.966L162.491 322.728Z" fill="#F4F4F4" stroke="black" stroke-width="2" stroke-miterlimit="10" stroke-linecap="round"/>
<path d="M215.789 257.554C255.025 257.554 286.833 225.747 286.833 186.51C286.833 147.273 255.025 115.465 215.789 115.465C176.552 115.465 144.744 147.273 144.744 186.51C144.744 225.747 176.552 257.554 215.789 257.554Z" stroke="black" stroke-width="10" stroke-miterlimit="10"/>
<path d="M265.645 241.675L293.548 269.578" stroke="black" stroke-width="10" stroke-miterlimit="10" stroke-linecap="round"/>
<path d="M219.721 82.5093L274.347 139.277" stroke="black" stroke-width="2"/>
<ellipse cx="119.574" cy="171.409" rx="2.67774" ry="4.28438" fill="white"/>
<ellipse cx="213.83" cy="171.409" rx="2.67774" ry="4.28438" fill="white"/>
<g filter="url(#filter0_d_1035_870)">
<path fill-rule="evenodd" clip-rule="evenodd" d="M541.891 0C508.202 0 480.891 27.3106 480.891 61V202.9L422.154 231.423C418.399 233.246 418.399 238.595 422.154 240.418L480.891 268.941V410C480.891 443.689 508.202 471 541.891 471H1058.89C1092.58 471 1119.89 443.689 1119.89 410V61C1119.89 27.3106 1092.58 0 1058.89 0H541.891Z" fill="white"/>
</g>
<path d="M696.617 75.6406V80.625H699.475V82.043H696.617V87.0488H694.92V75.6406H696.617ZM690.473 87.4141C694.361 87.4141 696.768 88.7676 696.768 91.0449C696.768 93.3652 694.361 94.6973 690.473 94.6973C686.562 94.6973 684.135 93.3652 684.135 91.0449C684.135 88.7676 686.562 87.4141 690.473 87.4141ZM690.473 88.8105C687.594 88.7891 685.789 89.6484 685.789 91.0449C685.789 92.4629 687.594 93.3438 690.473 93.3438C693.33 93.3438 695.135 92.4629 695.135 91.0449C695.135 89.6484 693.33 88.7891 690.473 88.8105ZM691.031 77.1016V78.498H684.199V84.1055C688.066 84.084 690.301 83.9658 692.857 83.4395L693.029 84.8359C690.365 85.373 688.066 85.4805 684.027 85.4805H682.545V77.1016H691.031ZM716.447 75.6621V89.6699H714.771V75.6621H716.447ZM717.049 92.9141V94.332H704.115V88.3809H705.791V92.9141H717.049ZM707.445 78.6484C707.424 81.5488 709.422 84.1699 712.258 85.2012L711.377 86.5547C709.164 85.7061 707.445 83.9873 706.607 81.7852C705.759 84.127 704.019 86.0068 701.795 86.8984L700.871 85.5879C703.771 84.4707 705.727 81.6562 705.727 78.6484V76.7363H707.445V78.6484ZM737.094 85.7168V87.0918H719.691V85.7168H737.094ZM735.16 92.9141V94.332H721.947V88.7676H723.645V92.9141H735.16ZM728.393 76.3281C732.496 76.3066 735.139 77.7246 735.139 80.1094C735.139 82.4941 732.496 83.9121 728.393 83.9121C724.246 83.9121 721.625 82.4941 721.625 80.1094C721.625 77.7246 724.246 76.3066 728.393 76.3281ZM728.393 77.6816C725.32 77.6816 723.344 78.6055 723.365 80.1094C723.344 81.6133 725.32 82.5371 728.393 82.5371C731.443 82.5371 733.42 81.6133 733.42 80.1094C733.42 78.6055 731.443 77.6816 728.393 77.6816ZM750.006 93.2148C746.547 93.2148 744.57 90.3145 744.57 85.2227C744.57 80.1738 746.59 77.2305 750.006 77.2305C753.422 77.2305 755.441 80.1738 755.441 85.2227C755.441 90.3145 753.443 93.2148 750.006 93.2148ZM750.006 91.4961C752.24 91.4961 753.551 89.2402 753.551 85.2227C753.551 81.2051 752.24 78.9062 750.006 78.9062C747.771 78.9062 746.439 81.2051 746.439 85.2227C746.439 89.2402 747.75 91.4961 750.006 91.4961ZM763.111 93.2148C759.652 93.2148 757.676 90.3145 757.676 85.2227C757.676 80.1738 759.695 77.2305 763.111 77.2305C766.527 77.2305 768.547 80.1738 768.547 85.2227C768.547 90.3145 766.549 93.2148 763.111 93.2148ZM763.111 91.4961C765.346 91.4961 766.656 89.2402 766.656 85.2227C766.656 81.2051 765.346 78.9062 763.111 78.9062C760.877 78.9062 759.545 81.2051 759.545 85.2227C759.545 89.2402 760.855 91.4961 763.111 91.4961ZM787.904 85.7598V87.1348H780.127V90.873H778.451V87.1348H770.416V85.7598H787.904ZM785.949 92.9141V94.332H772.65V89.1113H774.326V92.9141H785.949ZM774.434 76.2637V78.7129H783.887V76.2637H785.562V83.8906H772.758V76.2637H774.434ZM774.434 82.5156H783.887V80.002H774.434V82.5156ZM794.564 77.123C797.379 77.1445 799.377 79.7227 799.398 83.7832C799.377 87.8438 797.379 90.4219 794.564 90.4219C791.729 90.4219 789.752 87.8438 789.752 83.7832C789.752 79.7227 791.729 77.1445 794.564 77.123ZM794.564 78.627C792.674 78.6484 791.342 80.668 791.342 83.7832C791.342 86.8984 792.674 88.918 794.564 88.918C796.477 88.918 797.766 86.8984 797.766 83.7832C797.766 80.668 796.477 78.6484 794.564 78.627ZM807.326 80.4531V81.8926H804.232V86.1465H807.326V87.5645H804.232V94.7402H802.557V75.6406H804.232V80.4531H807.326ZM824.836 75.6406V94.7402H823.203V75.6406H824.836ZM820.99 76.0488V93.7734H819.379V84.4922H816.93C816.747 88.209 815.168 90.5293 812.805 90.5293C810.312 90.5293 808.701 87.9512 808.701 83.8906C808.701 79.8301 810.312 77.252 812.805 77.252C815.125 77.252 816.693 79.4971 816.908 83.0957H819.379V76.0488H820.99ZM812.805 78.8418C811.258 78.8418 810.27 80.7754 810.291 83.8906C810.27 86.9844 811.258 88.9395 812.805 88.918C814.352 88.9395 815.34 86.9844 815.34 83.8906C815.34 80.7754 814.352 78.8418 812.805 78.8418ZM843.592 77.123V78.1328C843.57 79.3789 843.57 81.291 843.098 83.7832L841.4 83.6543C841.862 81.3662 841.905 79.7441 841.938 78.541H834.074V77.123H843.592ZM838.672 81.3555V85.459C840.788 85.373 842.979 85.2227 844.967 84.9434L845.074 86.1895C841.078 86.877 836.459 86.9629 833.064 86.9629L832.893 85.5664C834.128 85.5557 835.524 85.5449 836.996 85.502V81.3555H838.672ZM847.975 75.6406V81.8711H850.768V83.3105H847.975V90.0137H846.256V75.6406H847.975ZM848.598 92.9141V94.332H835.836V88.7246H837.533V92.9141H848.598ZM867.783 75.6621V86.5117H866.107V75.6621H867.783ZM867.783 87.6074V94.4824H855.365V87.6074H867.783ZM857.02 88.9824V93.1074H866.129V88.9824H857.02ZM858.781 78.2832C858.76 80.9902 860.822 83.375 863.637 84.3633L862.777 85.6523C860.564 84.8896 858.803 83.2783 857.943 81.1836C857.095 83.418 855.312 85.1797 853.023 86.0176L852.164 84.6855C855.064 83.6758 857.062 81.0977 857.062 78.2832V76.4141H858.781V78.2832ZM877.494 88.4668C877.494 90.1533 878.396 91.9473 880.223 92.9785C882.027 91.8506 882.994 89.9492 882.994 88.4668V87.4141H884.648V88.4668C884.648 90.4219 886.088 92.3984 888.537 93.2363L887.699 94.4824C885.787 93.8057 884.444 92.4736 883.789 90.873C883.198 92.4199 882.027 93.8809 880.266 94.6328C878.407 93.9238 877.226 92.5166 876.656 90.916C875.979 92.4629 874.658 93.7949 872.832 94.4824L871.973 93.2363C874.379 92.334 875.84 90.293 875.861 88.4668V87.4141H877.494V88.4668ZM886.797 75.6621V86.5762H885.121V75.6621H886.797ZM876.484 76.7793C879.385 76.7793 881.49 78.584 881.49 81.248C881.49 83.8691 879.385 85.6738 876.484 85.6738C873.584 85.6738 871.479 83.8691 871.479 81.248C871.479 78.584 873.584 76.7793 876.484 76.7793ZM876.484 78.2188C874.529 78.1973 873.111 79.4648 873.133 81.248C873.111 83.0098 874.529 84.2559 876.484 84.2773C878.418 84.2559 879.836 83.0098 879.836 81.248C879.836 79.4648 878.418 78.1973 876.484 78.2188ZM905.488 81.4414V82.7949H892.404V76.3496H894.08V81.4414H905.488ZM907.508 85.3945V86.7695H890.02V85.3945H907.508ZM905.596 92.8711V94.2676H892.297V88.7246H893.973V92.8711H905.596ZM912.191 91.5605L910.516 97.4043H908.926L910.107 91.5605H912.191Z" fill="#222222"/>
<path d="M645.269 224.455C645.269 227.721 649.007 230.643 652.337 231.266L651.563 232.684C648.685 232.018 645.645 229.966 644.409 227.141C643.174 229.955 640.145 232.007 637.255 232.684L636.481 231.266C639.79 230.621 643.507 227.742 643.507 224.455V222.994H645.269V224.455ZM653.239 236.744V238.141H635.751V236.744H653.239ZM669.997 223.596V225.959C669.997 228.773 669.997 231.373 669.202 235.24L667.505 235.09C667.924 233.253 668.139 231.663 668.257 230.17L656.591 230.814L656.354 229.418L668.321 228.924C668.354 227.914 668.354 226.937 668.364 225.959V225.014H656.87V223.596H669.997ZM672.167 236.637V238.055H654.765V236.637H672.167ZM689.999 221.662V232.232H688.388V227.57H685.702V232.039H684.134V222.006H685.702V226.217H688.388V221.662H689.999ZM679.085 233.113V235.305H688.345V233.113H689.999V240.482H677.409V233.113H679.085ZM679.085 239.107H688.345V236.68H679.085V239.107ZM681.856 222.801V227.699H676.292V230.234C678.806 230.202 680.729 230.105 682.995 229.633L683.188 231.029C680.718 231.502 678.677 231.609 675.905 231.609H674.659V226.41H680.245V224.176H674.616V222.801H681.856ZM704.78 225.186C704.78 227.721 706.649 230.041 709.485 231.029L708.626 232.34C706.445 231.566 704.78 229.998 703.964 228.021C703.147 230.191 701.396 231.878 699.151 232.705L698.249 231.395C701.106 230.385 703.104 227.914 703.126 225.186V224.369H698.765V222.994H709.077V224.369H704.78V225.186ZM713.245 221.641V226.689H716.124V228.129H713.245V233.156H711.569V221.641H713.245ZM713.245 234.166V240.74H711.569V235.541H700.741V234.166H713.245ZM723.901 224.648C723.88 227.377 725.813 229.783 728.628 230.729L727.683 232.039C725.577 231.244 723.923 229.697 723.106 227.678C722.279 229.966 720.528 231.749 718.229 232.619L717.306 231.244C720.249 230.213 722.204 227.678 722.226 224.713V222.736H723.901V224.648ZM733.161 221.641V232.963H731.464V227.141H727.21V225.744H731.464V221.641H733.161ZM726.823 233.521C730.798 233.521 733.226 234.832 733.226 237.131C733.226 239.408 730.798 240.697 726.823 240.697C722.849 240.697 720.421 239.408 720.421 237.131C720.421 234.832 722.849 233.521 726.823 233.521ZM726.823 234.854C723.901 234.854 722.075 235.713 722.097 237.131C722.075 238.506 723.901 239.344 726.823 239.344C729.745 239.344 731.55 238.506 731.55 237.131C731.55 235.713 729.745 234.854 726.823 234.854ZM745.042 222.887C749.038 222.887 752.024 224.971 752.024 228.129C752.024 231.309 749.038 233.393 745.042 233.371C741.046 233.393 738.06 231.309 738.06 228.129C738.06 224.971 741.046 222.887 745.042 222.887ZM745.042 224.262C741.97 224.24 739.649 225.852 739.671 228.129C739.649 230.449 741.97 231.996 745.042 231.996C748.093 231.996 750.392 230.449 750.392 228.129C750.392 225.852 748.093 224.24 745.042 224.262ZM753.829 236.787V238.205H736.341V236.787H753.829ZM772.843 236.959V238.377H755.354V236.959H763.218V233.35H757.546V227.463H768.976V224.455H757.503V223.059H770.63V228.838H759.222V231.953H771.081V233.35H764.872V236.959H772.843ZM794.671 221.641V229.203H797.872V230.621H794.671V240.783H792.995V221.641H794.671ZM789.644 223.51V224.906H782.403V234.574C785.862 234.574 788.312 234.413 791.147 233.887L791.362 235.348C788.376 235.885 785.862 235.992 782.231 235.992H780.728V223.51H789.644ZM816.671 224.541V225.938H813.835V228.602H816.671V230.02H813.835V232.984H812.159V221.641H813.835V224.541H816.671ZM804.274 222.801C807.175 222.779 809.28 224.627 809.302 227.291C809.28 229.955 807.175 231.76 804.274 231.781C801.374 231.76 799.247 229.955 799.269 227.291C799.247 224.627 801.374 222.779 804.274 222.801ZM804.274 224.24C802.341 224.219 800.901 225.486 800.923 227.291C800.901 229.096 802.341 230.342 804.274 230.363C806.229 230.342 807.647 229.096 807.647 227.291C807.647 225.486 806.229 224.219 804.274 224.24ZM807.712 233.564C811.601 233.586 814.007 234.875 814.007 237.152C814.007 239.387 811.601 240.697 807.712 240.697C803.802 240.697 801.374 239.387 801.374 237.152C801.374 234.875 803.802 233.586 807.712 233.564ZM807.712 234.939C804.833 234.939 803.05 235.756 803.071 237.152C803.05 238.527 804.833 239.344 807.712 239.344C810.612 239.344 812.374 238.527 812.374 237.152C812.374 235.756 810.612 234.939 807.712 234.939ZM832.849 221.662V227.957H835.728V229.375H832.849V235.971H831.173V221.662H832.849ZM829.347 224.004V225.379H817.96V224.004H822.815V221.662H824.491V224.004H829.347ZM823.653 226.432C826.382 226.432 828.229 227.828 828.251 229.998C828.229 232.146 826.382 233.521 823.653 233.521C820.903 233.521 819.034 232.146 819.056 229.998C819.034 227.828 820.903 226.432 823.653 226.432ZM823.653 227.764C821.849 227.764 820.646 228.645 820.667 229.998C820.646 231.352 821.849 232.211 823.653 232.189C825.437 232.211 826.64 231.352 826.661 229.998C826.64 228.645 825.437 227.764 823.653 227.764ZM833.729 238.914V240.332H820.903V234.832H822.558V238.914H833.729ZM859.919 231.76V233.135H852.142V236.873H850.466V233.135H842.431V231.76H859.919ZM857.964 238.914V240.332H844.665V235.111H846.341V238.914H857.964ZM846.448 222.264V224.713H855.901V222.264H857.577V229.891H844.772V222.264H846.448ZM846.448 228.516H855.901V226.002H846.448V228.516ZM866.579 223.123C869.394 223.145 871.392 225.723 871.413 229.783C871.392 233.844 869.394 236.422 866.579 236.422C863.743 236.422 861.767 233.844 861.767 229.783C861.767 225.723 863.743 223.145 866.579 223.123ZM866.579 224.627C864.688 224.648 863.356 226.668 863.356 229.783C863.356 232.898 864.688 234.918 866.579 234.918C868.491 234.918 869.78 232.898 869.78 229.783C869.78 226.668 868.491 224.648 866.579 224.627ZM879.341 226.453V227.893H876.247V232.146H879.341V233.564H876.247V240.74H874.571V221.641H876.247V226.453H879.341ZM886.731 223.037C889.739 223.037 891.866 224.863 891.866 227.527C891.866 230.191 889.739 232.018 886.731 232.018C883.724 232.018 881.554 230.191 881.575 227.527C881.554 224.863 883.724 223.037 886.731 223.037ZM886.731 224.52C884.69 224.52 883.208 225.744 883.229 227.527C883.208 229.311 884.69 230.535 886.731 230.535C888.751 230.535 890.212 229.311 890.212 227.527C890.212 225.744 888.751 224.52 886.731 224.52ZM896.142 221.641V240.783H894.466V221.641H896.142ZM880.587 235.133C884.11 235.133 888.966 235.111 893.198 234.488L893.327 235.734C888.966 236.551 884.261 236.572 880.823 236.572L880.587 235.133ZM911.847 227.506C911.847 230.75 914.21 234.037 917.024 235.262L916.079 236.594C913.845 235.573 911.911 233.371 911.03 230.729C910.128 233.532 908.205 235.971 906.024 237.066L905.015 235.734C907.743 234.424 910.128 230.814 910.149 227.506V225.014H905.638V223.617H916.401V225.014H911.847V227.506ZM920.763 221.641V240.74H919.065V221.641H920.763ZM930.796 224.412C930.774 227.205 932.794 229.676 935.63 230.664L934.771 231.996C932.558 231.19 930.807 229.536 929.958 227.42C929.109 229.687 927.337 231.47 925.103 232.34L924.222 231.008C927.079 229.955 929.077 227.291 929.077 224.412V222.586H930.796V224.412ZM939.798 234.102V240.74H938.122V235.498H926.95V234.102H939.798ZM939.798 221.641V233.156H938.122V221.641H939.798ZM951.743 221.984C955.997 221.984 958.489 223.145 958.489 225.271C958.489 227.441 955.997 228.602 951.743 228.623C947.489 228.602 944.976 227.441 944.976 225.271C944.976 223.145 947.489 221.984 951.743 221.984ZM951.743 223.252C948.563 223.252 946.716 224.025 946.737 225.271C946.716 226.604 948.563 227.334 951.743 227.334C954.901 227.334 956.771 226.604 956.771 225.271C956.771 224.025 954.901 223.252 951.743 223.252ZM960.444 229.912V231.287H943.042V229.912H960.444ZM958.21 232.941V237.217H946.866V239.193H958.79V240.525H945.19V235.971H956.556V234.23H945.147V232.941H958.21ZM629.778 252.871C629.778 255.922 631.776 259.059 634.548 260.391L633.56 261.701C631.454 260.67 629.789 258.586 629.005 256.115C628.167 258.769 626.395 260.992 624.214 262.045L623.247 260.734C626.04 259.424 628.124 256.158 628.146 252.871V251.346H623.763V249.971H628.124V247.006H629.821V249.971H634.118V251.346H629.778V252.871ZM638.2 246.641V254.482H641.401V255.922H638.2V265.74H636.524V246.641H638.2ZM659.835 255.729V257.125H642.454V255.729H649.651V251.861H651.306V255.729H659.835ZM657.622 259.316V265.74H655.903V260.713H644.302V259.316H657.622ZM657.622 247.693V249.133C657.622 250.594 657.622 252.248 657.149 254.418L655.452 254.246C655.946 252.098 655.946 250.572 655.946 249.133V249.068H644.517V247.693H657.622ZM667.806 252.871C667.806 255.922 669.804 259.059 672.575 260.391L671.587 261.701C669.481 260.67 667.816 258.586 667.032 256.115C666.194 258.769 664.422 260.992 662.241 262.045L661.274 260.734C664.067 259.424 666.151 256.158 666.173 252.871V251.346H661.79V249.971H666.151V247.006H667.849V249.971H672.146V251.346H667.806V252.871ZM676.228 246.641V254.482H679.429V255.922H676.228V265.74H674.552V246.641H676.228ZM697.862 255.729V257.125H680.481V255.729H687.679V251.861H689.333V255.729H697.862ZM695.649 259.316V265.74H693.931V260.713H682.329V259.316H695.649ZM695.649 247.693V249.133C695.649 250.594 695.649 252.248 695.177 254.418L693.479 254.246C693.974 252.098 693.974 250.572 693.974 249.133V249.068H682.544V247.693H695.649ZM720.313 246.641V250.809H722.827V252.227H720.313V256.824H718.638V246.641H720.313ZM709.442 248.789C709.442 250.196 709.84 252.42 711.333 253.902C712.751 252.463 713.159 250.271 713.159 248.811V247.479H713.524V247.457H714.728V248.789C714.728 250.809 715.565 253.279 717.778 254.418L716.854 255.621C715.361 254.837 714.47 253.473 713.997 251.947C713.557 253.483 712.751 254.966 711.312 255.836C709.851 254.944 709.034 253.387 708.626 251.84C708.121 253.365 707.229 254.805 705.769 255.621L704.845 254.418C706.993 253.193 707.831 250.594 707.853 248.789V247.457H709.442V248.789ZM721.108 257.941V259.273H707.573V257.941H713.524V256.029H715.2V257.941H721.108ZM714.362 260.176C717.864 260.176 719.927 261.164 719.927 262.926C719.927 264.752 717.864 265.697 714.362 265.697C710.796 265.697 708.733 264.752 708.755 262.926C708.733 261.164 710.796 260.176 714.362 260.176ZM714.362 261.4C711.827 261.422 710.409 261.98 710.431 262.926C710.409 263.914 711.827 264.473 714.362 264.451C716.833 264.473 718.272 263.914 718.272 262.926C718.272 261.98 716.833 261.422 714.362 261.4ZM729.122 248.123C731.937 248.145 733.935 250.723 733.956 254.783C733.935 258.844 731.937 261.422 729.122 261.422C726.286 261.422 724.31 258.844 724.31 254.783C724.31 250.723 726.286 248.145 729.122 248.123ZM729.122 249.627C727.231 249.648 725.899 251.668 725.899 254.783C725.899 257.898 727.231 259.918 729.122 259.918C731.034 259.918 732.323 257.898 732.323 254.783C732.323 251.668 731.034 249.648 729.122 249.627ZM738.79 246.641V254.268H741.991V255.729H738.79V265.74H737.114V246.641H738.79ZM760.897 254.268V255.686H757.804V265.74H756.128V246.641H757.804V254.268H760.897ZM745.493 248.531V259.467C748.286 259.456 751.133 259.241 754.28 258.586L754.495 260.025C751.208 260.691 748.243 260.885 745.343 260.885H743.817V248.531H745.493ZM776.817 246.641V254.418H779.911V255.836H776.817V265.74H775.142V246.641H776.817ZM771.876 248.703C771.876 254.117 769.341 259.037 763.11 262.109L762.165 260.777C767.106 258.317 769.792 254.644 770.179 250.121H763.046V248.703H771.876ZM796.497 252.441V253.795H783.413V247.35H785.089V252.441H796.497ZM798.517 256.395V257.77H781.028V256.395H798.517ZM796.604 263.871V265.268H783.306V259.725H784.981V263.871H796.604ZM821.419 246.662V259.596H819.722V253.451H815.532V252.033H819.722V246.662H821.419ZM815.446 248.166C815.425 253.064 812.159 256.588 806.659 258.35L805.907 256.996C810.473 255.589 813.287 252.936 813.642 249.541H806.853V248.166H815.446ZM816.048 258.801C816.048 261.594 819.099 263.678 822.472 264.279L821.763 265.633C818.948 265.085 816.359 263.613 815.231 261.379C814.061 263.624 811.439 265.117 808.593 265.676L807.905 264.344C811.278 263.764 814.372 261.615 814.394 258.801V257.92H816.048V258.801ZM840.347 246.641V265.783H838.649V246.641H840.347ZM830.185 248.123C833.021 248.145 835.062 250.723 835.062 254.783C835.062 258.844 833.021 261.422 830.185 261.422C827.327 261.422 825.308 258.844 825.308 254.783C825.308 250.723 827.327 248.145 830.185 248.123ZM830.185 249.627C828.272 249.648 826.94 251.668 826.94 254.783C826.94 257.898 828.272 259.918 830.185 259.918C832.097 259.918 833.429 257.898 833.429 254.783C833.429 251.668 832.097 249.648 830.185 249.627ZM858.651 252.334V254.59H866.601V255.986H849.112V254.59H856.997V252.334H858.651ZM864.989 247.242V248.574H858.952C859.092 250.529 862.293 251.958 865.612 252.227L865.054 253.494C861.874 253.193 858.877 251.958 857.856 249.949C856.814 251.958 853.817 253.193 850.616 253.494L850.058 252.227C853.355 251.958 856.557 250.529 856.739 248.574H850.724V247.242H864.989ZM864.946 258.521V259.854H850.767V258.521H856.997V256.717H858.673V258.521H864.946ZM857.835 260.799C861.509 260.799 863.614 261.658 863.614 263.312C863.614 264.988 861.509 265.848 857.835 265.848C854.118 265.848 852.077 264.988 852.077 263.312C852.077 261.658 854.118 260.799 857.835 260.799ZM857.835 261.98C855.257 262.002 853.774 262.432 853.774 263.312C853.774 264.193 855.257 264.688 857.835 264.666C860.435 264.688 861.874 264.193 861.896 263.312C861.874 262.432 860.435 262.002 857.835 261.98ZM876.849 246.984C881.103 246.984 883.595 248.145 883.595 250.271C883.595 252.441 881.103 253.602 876.849 253.623C872.595 253.602 870.081 252.441 870.081 250.271C870.081 248.145 872.595 246.984 876.849 246.984ZM876.849 248.252C873.669 248.252 871.821 249.025 871.843 250.271C871.821 251.604 873.669 252.334 876.849 252.334C880.007 252.334 881.876 251.604 881.876 250.271C881.876 249.025 880.007 248.252 876.849 248.252ZM885.55 254.912V256.287H868.147V254.912H885.55ZM883.315 257.941V262.217H871.972V264.193H883.896V265.525H870.296V260.971H881.661V259.23H870.253V257.941H883.315ZM908.517 246.662V259.596H906.819V253.451H902.63V252.033H906.819V246.662H908.517ZM902.544 248.166C902.522 253.064 899.257 256.588 893.757 258.35L893.005 256.996C897.57 255.589 900.385 252.936 900.739 249.541H893.95V248.166H902.544ZM903.146 258.801C903.146 261.594 906.196 263.678 909.569 264.279L908.86 265.633C906.046 265.085 903.457 263.613 902.329 261.379C901.158 263.624 898.537 265.117 895.69 265.676L895.003 264.344C898.376 263.764 901.47 261.615 901.491 258.801V257.92H903.146V258.801ZM932.149 246.641V251.109H935.028V252.506H932.149V256.867H930.474V246.641H932.149ZM927.015 247.994C926.993 252.764 923.62 255.943 917.991 257.232L917.282 255.857C922.148 254.794 924.866 252.377 925.146 249.369H918.099V247.994H927.015ZM932.235 257.727V259.016H921.751V260.906H932.021V262.195H921.751V264.172H932.687V265.482H920.054V257.727H932.235ZM941.345 248.123C944.159 248.145 946.157 250.723 946.179 254.783C946.157 258.844 944.159 261.422 941.345 261.422C938.509 261.422 936.532 258.844 936.532 254.783C936.532 250.723 938.509 248.145 941.345 248.123ZM941.345 249.627C939.454 249.648 938.122 251.668 938.122 254.783C938.122 257.898 939.454 259.918 941.345 259.918C943.257 259.918 944.546 257.898 944.546 254.783C944.546 251.668 943.257 249.648 941.345 249.627ZM951.013 246.641V254.268H954.214V255.729H951.013V265.74H949.337V246.641H951.013ZM972.733 261.873V263.291H955.245V261.873H959.585V256.717C957.952 255.868 956.964 254.493 956.964 252.764C956.964 249.799 959.864 247.865 963.946 247.844C968.028 247.865 970.929 249.799 970.929 252.764C970.929 254.461 969.973 255.825 968.394 256.674V261.873H972.733ZM963.946 249.24C960.81 249.219 958.597 250.637 958.597 252.764C958.597 254.891 960.81 256.33 963.946 256.33C967.062 256.33 969.296 254.891 969.296 252.764C969.296 250.637 967.062 249.219 963.946 249.24ZM961.239 261.873H966.696V257.318C965.869 257.544 964.945 257.662 963.946 257.662C962.969 257.662 962.056 257.555 961.239 257.34V261.873ZM977.353 248.445L977.202 259.617H975.397L975.247 248.445H977.353ZM976.3 264.129C975.548 264.129 974.903 263.506 974.925 262.732C974.903 261.98 975.548 261.357 976.3 261.357C977.052 261.357 977.675 261.98 977.675 262.732C977.675 263.506 977.052 264.129 976.3 264.129Z" fill="#222222"/>
<path d="M631.583 176.662V182.441H634.44V183.859H631.583V190.24H629.886V176.662H631.583ZM626.491 189.596C626.491 192.109 629.478 193.871 632.937 194.344L632.292 195.654C629.392 195.192 626.76 193.936 625.632 191.895C624.493 193.936 621.851 195.192 618.95 195.654L618.327 194.344C621.786 193.871 624.772 192.109 624.772 189.596V188.951H626.491V189.596ZM616.651 186.459C618.145 186.459 619.885 186.448 621.7 186.373V184.59C619.337 184.343 617.769 182.957 617.79 181.002C617.769 178.854 619.702 177.414 622.495 177.393C625.288 177.414 627.222 178.854 627.222 181.002C627.222 182.925 625.696 184.3 623.397 184.568V186.309C625.191 186.212 626.996 186.062 628.661 185.814L628.79 187.018C624.751 187.748 620.175 187.812 616.866 187.812L616.651 186.459ZM622.495 178.682C620.647 178.682 619.358 179.605 619.358 181.002C619.358 182.398 620.647 183.344 622.495 183.344C624.343 183.344 625.632 182.398 625.632 181.002C625.632 179.605 624.343 178.682 622.495 178.682ZM653.175 191.873V193.291H635.687V191.873H653.175ZM645.269 181.109C645.269 184.268 648.427 186.652 652.058 187.297L651.37 188.672C648.352 188.06 645.602 186.405 644.409 183.902C643.195 186.405 640.445 188.06 637.427 188.672L636.761 187.297C640.37 186.652 643.55 184.268 643.55 181.109H637.319V179.734H643.571V177.113H645.226V179.734H651.499V181.109H645.269ZM670.019 178.574V180.486C669.997 182.828 669.997 185.449 669.31 189.295L667.591 189.102C668.321 185.449 668.321 182.764 668.321 180.486V179.971H656.548V178.574H670.019ZM672.103 191.637V193.033H654.7V191.637H661.532V184.805H663.187V191.637H672.103ZM689.483 176.662V188.027H687.808V176.662H689.483ZM683.103 188.414C687.077 188.414 689.526 189.746 689.548 192.045C689.526 194.365 687.077 195.697 683.103 195.697C679.085 195.697 676.657 194.365 676.657 192.045C676.657 189.746 679.085 188.414 683.103 188.414ZM683.103 189.746C680.138 189.746 678.354 190.605 678.354 192.045C678.354 193.484 680.138 194.344 683.103 194.344C686.046 194.344 687.872 193.484 687.872 192.045C687.872 190.605 686.046 189.746 683.103 189.746ZM679.171 177.865C682.071 177.887 684.177 179.691 684.177 182.334C684.177 184.977 682.071 186.76 679.171 186.781C676.271 186.76 674.165 184.977 674.165 182.334C674.165 179.691 676.271 177.887 679.171 177.865ZM679.171 179.326C677.216 179.305 675.798 180.529 675.819 182.334C675.798 184.117 677.216 185.342 679.171 185.363C681.104 185.342 682.522 184.117 682.522 182.334C682.522 180.529 681.104 179.305 679.171 179.326ZM710.13 186.824V188.221H692.728V186.824H700.591V184.826C696.928 184.644 694.661 183.258 694.661 181.002C694.661 178.66 697.282 177.221 701.429 177.221C705.532 177.221 708.175 178.66 708.175 181.002C708.175 183.258 705.887 184.644 702.267 184.826V186.824H710.13ZM708.196 193.914V195.332H694.983V189.768H696.681V193.914H708.196ZM701.429 178.596C698.356 178.596 696.38 179.541 696.401 181.002C696.38 182.549 698.356 183.451 701.429 183.451C704.479 183.451 706.456 182.549 706.456 181.002C706.456 179.541 704.479 178.596 701.429 178.596ZM722.333 178.768V179.756C722.312 181.26 722.312 183.795 721.774 187.34L720.077 187.189C720.593 183.988 720.636 181.668 720.636 180.143H712.622V178.768H722.333ZM717.327 184.225V190.025C719.443 189.95 721.613 189.811 723.601 189.574L723.687 190.842C719.669 191.465 715.179 191.551 711.763 191.529L711.548 190.133C712.805 190.122 714.201 190.111 715.673 190.068V184.225H717.327ZM726.479 176.641V184.633H729.573V186.094H726.479V195.74H724.804V176.641H726.479ZM751.208 176.641V181.732H754.087V183.172H751.208V188.156H749.532V176.641H751.208ZM751.208 189.252V195.482H739.155V189.252H751.208ZM740.81 190.605V194.107H749.532V190.605H740.81ZM747.706 178.682V180.078H736.319V178.682H741.175V176.49H742.851V178.682H747.706ZM742.013 181.023C744.763 181.023 746.589 182.377 746.61 184.418C746.589 186.502 744.763 187.834 742.013 187.834C739.241 187.834 737.394 186.502 737.415 184.418C737.394 182.377 739.241 181.023 742.013 181.023ZM742.013 182.334C740.208 182.334 739.005 183.172 739.026 184.418C739.005 185.729 740.208 186.523 742.013 186.545C743.796 186.523 744.999 185.729 745.021 184.418C744.999 183.172 743.796 182.334 742.013 182.334ZM760.038 178.961C760.017 182.979 759.458 187.49 756.665 191.186L755.333 190.412C757.729 187.415 758.438 183.881 758.577 180.357H755.72V178.961H760.038ZM764.271 178.961C764.26 180.519 764.228 182.312 763.991 184.16H766.526V177.156H768.138V194.773H766.526V185.557H763.776C763.336 187.941 762.498 190.358 760.94 192.453L759.63 191.658C762.272 188.285 762.713 183.924 762.788 180.357H760.64V178.961H764.271ZM771.726 176.641V195.74H770.093V176.641H771.726ZM786.657 182.506C786.657 185.75 789.021 189.037 791.835 190.262L790.89 191.594C788.655 190.573 786.722 188.371 785.841 185.729C784.938 188.532 783.016 190.971 780.835 192.066L779.825 190.734C782.554 189.424 784.938 185.814 784.96 182.506V180.014H780.448V178.617H791.212V180.014H786.657V182.506ZM795.573 176.641V195.74H793.876V176.641H795.573ZM805.478 180.164C805.478 182.656 807.39 185.02 810.183 185.986L809.302 187.318C807.143 186.545 805.478 184.944 804.661 182.979C803.834 185.181 802.072 186.942 799.806 187.77L798.925 186.438C801.739 185.428 803.78 182.871 803.78 180.186V179.348H799.462V177.973H809.753V179.348H805.478V180.164ZM814.673 189.102V195.74H812.976V190.498H801.825V189.102H814.673ZM814.673 176.641V188.092H812.976V183.064H809.151V181.646H812.976V176.641H814.673ZM833.063 177.822V179.24H825.952V181.625H832.698V183.021H825.952V185.557C829.669 185.578 831.807 185.503 834.31 185.02L834.503 186.395C831.86 186.867 829.669 186.932 825.716 186.91H824.276V177.822H833.063ZM838.306 188.887V195.482H826.253V188.887H838.306ZM827.907 190.24V194.107H836.63V190.24H827.907ZM838.306 176.641V181.389H841.185V182.828H838.306V187.898H836.63V176.641H838.306ZM857.491 177.887V179.562C857.491 181.378 857.491 183.344 856.954 186.094H859.79V187.49H851.905V195.783H850.208V187.49H842.388V186.094H855.235C855.815 183.344 855.815 181.335 855.815 179.562V179.283H844.579V177.887H857.491ZM878.868 185.514V186.846H861.38V185.514H878.868ZM876.677 188.371V192.432H865.204V194.258H877.3V195.482H863.507V191.271H875.001V189.639H863.485V188.371H876.677ZM876.612 177.221V181.174H865.333V182.85H876.956V184.074H863.657V180.014H874.915V178.445H863.593V177.221H876.612ZM889.933 176.963V178.789H899.386V176.963H901.062V183.236H888.257V176.963H889.933ZM889.933 181.926H899.386V180.078H889.933V181.926ZM903.339 184.826V186.223H895.454V188.092H901.104V192.324H889.761V194.193H901.685V195.525H888.085V191.078H899.45V189.381H888.042V188.092H893.778V186.223H885.937V184.826H903.339ZM913.286 178.854V180.229H907.335V183.902H913.007V185.256H907.335V189.574C910.171 189.563 911.922 189.488 914.017 189.102L914.167 190.498C911.933 190.928 910.085 191.014 906.948 191.014H905.724V178.854H913.286ZM921.321 176.641V195.74H919.688V185.729H917.067V194.773H915.435V177.049H917.067V184.332H919.688V176.641H921.321ZM939.776 176.662V195.762H938.058V191.014H933.653V189.725H938.058V176.662H939.776ZM923.878 186.717C927.53 186.717 932.364 186.695 936.575 186.094L936.683 187.361C934.792 187.684 932.826 187.877 930.925 187.984V195.16H929.228V188.07C927.391 188.146 925.65 188.156 924.114 188.156L923.878 186.717ZM930.173 177.607C933.009 177.607 934.985 179.133 934.985 181.367C934.985 183.645 933.009 185.105 930.173 185.105C927.315 185.105 925.339 183.645 925.339 181.367C925.339 179.133 927.315 177.607 930.173 177.607ZM930.173 178.918C928.239 178.918 926.907 179.928 926.929 181.367C926.907 182.828 928.239 183.795 930.173 183.795C932.042 183.795 933.396 182.828 933.396 181.367C933.396 179.928 932.042 178.918 930.173 178.918ZM945.706 178.23V181.152H951.915V178.23H953.591V186.824H949.659V190.24C951.421 190.176 953.193 190.047 954.837 189.832L954.944 191.1C950.905 191.744 946.372 191.809 943.021 191.83L942.741 190.391C944.299 190.38 946.093 190.369 947.962 190.305V186.824H944.03V178.23H945.706ZM945.706 185.449H951.915V182.463H945.706V185.449ZM957.737 176.641V184.676H960.853V186.094H957.737V195.74H956.062V176.641H957.737ZM979.479 191.873V193.291H961.991V191.873H966.331V186.717C964.698 185.868 963.71 184.493 963.71 182.764C963.71 179.799 966.61 177.865 970.692 177.844C974.774 177.865 977.675 179.799 977.675 182.764C977.675 184.461 976.719 185.825 975.14 186.674V191.873H979.479ZM970.692 179.24C967.556 179.219 965.343 180.637 965.343 182.764C965.343 184.891 967.556 186.33 970.692 186.33C973.808 186.33 976.042 184.891 976.042 182.764C976.042 180.637 973.808 179.219 970.692 179.24ZM967.985 191.873H973.442V187.318C972.615 187.544 971.691 187.662 970.692 187.662C969.715 187.662 968.802 187.555 967.985 187.34V191.873ZM984.099 178.445L983.948 189.617H982.144L981.993 178.445H984.099ZM983.046 194.129C982.294 194.129 981.649 193.506 981.671 192.732C981.649 191.98 982.294 191.357 983.046 191.357C983.798 191.357 984.421 191.98 984.421 192.732C984.421 193.506 983.798 194.129 983.046 194.129Z" fill="#222222"/>
<path d="M640.812 113.38L642.985 106.324H645.841L644.669 113.38H640.812ZM646.5 113.38L648.673 106.324H651.53L650.358 113.38H646.5ZM676.798 103.932V109.303H679.704V112.135H676.798V117.359H673.283V103.932H676.798ZM676.798 118.287V126.344H673.283V121.07H661.588V118.287H676.798ZM663.004 105.348V108.155H666.984V105.348H670.5V116.31H659.538V105.348H663.004ZM663.004 113.551H666.984V110.865H663.004V113.551ZM689.03 108.692C689.03 112.745 690.446 116.773 694.157 118.58L692.057 121.363C689.713 120.228 688.175 118.165 687.296 115.626C686.32 118.373 684.672 120.582 682.169 121.803L680.021 118.946C683.976 117.164 685.514 112.892 685.514 108.692V105.592H689.03V108.692ZM698.332 103.932V112.428H701.505V115.382H698.332V126.344H694.816V103.932H698.332ZM719.938 103.932V112.354H722.941V115.235H719.938V126.271H716.422V103.932H719.938ZM713.883 106.178C713.883 112.989 711.393 118.8 703.776 122.535L701.798 119.85C706.938 117.274 709.696 113.929 710.319 109.059H703.141V106.178H713.883ZM738.639 104.884V106.324C738.639 107.826 738.639 109.791 737.931 112.354H743.351C743.864 110.438 743.986 108.961 744.035 107.667H739.909V104.884H747.428V106.397C747.404 107.997 747.404 109.925 746.867 112.354H749.772V115.187H741.251V117.799H747.257V126.075H731.803V117.799H737.76V115.187H729.362V112.354H734.391C734.965 110.401 735.136 108.912 735.197 107.667H731.144V104.884H738.639ZM735.27 120.509V123.341H743.766V120.509H735.27ZM769.792 103.956V119.972H766.276V103.956H769.792ZM770.353 123.17V125.978H754.606V118.36H758.17V123.17H770.353ZM757.462 105.348C760.929 105.348 763.664 107.74 763.664 111.036C763.664 114.405 760.929 116.773 757.462 116.773C753.996 116.773 751.237 114.405 751.261 111.036C751.237 107.74 753.996 105.348 757.462 105.348ZM757.462 108.399C755.875 108.375 754.679 109.352 754.679 111.036C754.679 112.794 755.875 113.722 757.462 113.722C758.976 113.722 760.172 112.794 760.172 111.036C760.172 109.352 758.976 108.375 757.462 108.399ZM796.012 103.956V110.67H798.917V113.526H796.012V120.68H792.497V103.956H796.012ZM791.422 106.202V108.937H778.141V106.202H783.024V103.932H786.54V106.202H791.422ZM784.782 109.571C788.053 109.571 790.348 111.354 790.348 113.966C790.348 116.554 788.053 118.287 784.782 118.287C781.51 118.287 779.167 116.554 779.191 113.966C779.167 111.354 781.51 109.571 784.782 109.571ZM784.782 112.257C783.488 112.257 782.609 112.843 782.609 113.966C782.609 115.089 783.488 115.626 784.782 115.65C786.1 115.626 787.003 115.089 787.003 113.966C787.003 112.843 786.1 112.257 784.782 112.257ZM796.745 123.17V125.978H781.315V119.386H784.831V123.17H796.745ZM820.231 116.358V119.215H811.662V126.368H808.17V119.215H799.748V116.358H820.231ZM809.928 104.64C814.762 104.64 818.18 106.642 818.18 109.767C818.18 112.843 814.762 114.796 809.928 114.796C805.094 114.796 801.701 112.843 801.725 109.767C801.701 106.642 805.094 104.64 809.928 104.64ZM809.928 107.423C807.072 107.447 805.338 108.229 805.338 109.767C805.338 111.256 807.072 112.037 809.928 112.037C812.809 112.037 814.542 111.256 814.542 109.767C814.542 108.229 812.809 107.447 809.928 107.423ZM841.813 112.647V115.406H833.317V116.578H839.372V122.56H827.165V123.585H839.909V126.222H823.698V120.094H835.88V119.215H823.698V116.578H829.777V115.406H821.378V112.647H841.813ZM839.25 104.566V111.695H823.869V104.566H839.25ZM827.311 107.276V109.01H835.734V107.276H827.311ZM853.019 105.226V108.009H856.828V105.226H860.294V109.132H864.054V103.932H867.545V116.92H864.054V111.988H860.294V116.041H849.479V105.226H853.019ZM853.019 113.258H856.828V110.743H853.019V113.258ZM867.545 117.726V126.1H852.36V117.726H867.545ZM855.9 120.509V123.292H864.127V120.509H855.9ZM877.506 107.789C877.482 110.133 878.556 112.416 881.388 113.6V104.347H884.635V109.254H886.149V103.956H889.494V117.628H886.149V112.086H884.635V116.92H881.388V113.966L879.728 116.383C877.897 115.675 876.64 114.442 875.846 112.892C875.041 114.747 873.686 116.285 871.647 117.115L869.767 114.405C872.965 112.989 874.064 110.279 874.064 107.789V105.299H877.506V107.789ZM881.754 117.848C886.515 117.848 889.591 119.459 889.616 122.096C889.591 124.732 886.515 126.368 881.754 126.344C876.994 126.368 873.917 124.732 873.942 122.096C873.917 119.459 876.994 117.848 881.754 117.848ZM881.754 120.484C878.996 120.46 877.433 120.997 877.458 122.096C877.433 123.194 878.996 123.707 881.754 123.707C884.513 123.707 886.051 123.194 886.076 122.096C886.051 120.997 884.513 120.46 881.754 120.484ZM910.612 103.932V126.393H907.072V103.932H910.612ZM898.38 105.47C901.774 105.47 904.313 108.57 904.337 113.478C904.313 118.458 901.774 121.559 898.38 121.559C894.914 121.559 892.375 118.458 892.375 113.478C892.375 108.57 894.914 105.47 898.38 105.47ZM898.38 108.644C896.793 108.644 895.768 110.279 895.792 113.478C895.768 116.725 896.793 118.36 898.38 118.36C899.918 118.36 900.944 116.725 900.944 113.478C900.944 110.279 899.918 108.644 898.38 108.644ZM925.822 105.86V108.619H913.468V105.86H918.058V103.736H921.574V105.86H925.822ZM919.767 109.254C922.868 109.254 925.138 110.987 925.163 113.478C925.138 115.968 922.868 117.652 919.767 117.652C916.667 117.652 914.469 115.968 914.469 113.478C914.469 110.987 916.667 109.254 919.767 109.254ZM919.767 111.866C918.546 111.866 917.741 112.403 917.741 113.478C917.741 114.552 918.546 115.064 919.767 115.064C921.012 115.064 921.891 114.552 921.891 113.478C921.891 112.403 921.012 111.866 919.767 111.866ZM932.365 103.932V118.141H928.874V116.017H926.09V113.209H928.874V111.5H926.164V108.692H928.874V103.932H932.365ZM924.699 118.434C929.484 118.434 932.462 119.898 932.487 122.389C932.462 124.854 929.484 126.368 924.699 126.344C919.889 126.368 916.886 124.854 916.886 122.389C916.886 119.898 919.889 118.434 924.699 118.434ZM924.699 121.07C922.013 121.095 920.597 121.461 920.597 122.389C920.597 123.292 922.013 123.707 924.699 123.707C927.311 123.707 928.703 123.292 928.703 122.389C928.703 121.461 927.311 121.095 924.699 121.07ZM940.568 113.38L942.741 106.324H945.597L944.425 113.38H940.568ZM946.256 113.38L948.429 106.324H951.286L950.114 113.38H946.256Z" fill="black"/>
<rect x="567" y="345" width="137" height="52" rx="10" fill="#B1B1B1"/>
<path d="M604.023 363.031V380H601.422V365.609H601.328L597.273 368.258V365.797L601.492 363.031H604.023ZM625.586 360.992V381.992H623.453V371.094H620.852V380.984H618.766V361.555H620.852V369.289H623.453V360.992H625.586ZM616.68 363.664C616.656 369.195 614.828 374.141 608.828 377.539L607.539 375.992C612.203 373.355 614.172 369.781 614.523 365.492H608.43V363.664H616.68ZM638.992 362.844V372.641H629.172V362.844H638.992ZM631.352 364.648V370.883H636.812V364.648H631.352ZM644.852 360.969V367.25H647.898V369.125H644.852V376.367H642.625V360.969H644.852ZM645.742 379.742V381.547H631.539V374.891H633.766V379.742H645.742ZM666.883 362.539V364.344H664.891V370.109C665.887 370.039 666.859 369.945 667.797 369.828L667.938 371.492C663.695 372.172 658.773 372.242 655.211 372.242L654.953 370.367H657.531V364.344H655.539V362.539H666.883ZM671.453 374.211V381.734H658.047V374.211H671.453ZM660.227 375.969V379.93H669.25V375.969H660.227ZM671.453 360.992V365.938H674.5V367.766H671.453V373.156H669.227V360.992H671.453ZM659.688 370.344C660.672 370.32 661.691 370.285 662.711 370.227V364.344H659.688V370.344Z" fill="white"/>
<rect x="897" y="345" width="137" height="52" rx="10" fill="#717171"/>
<path d="M946.012 362.305C946.012 367.648 942.355 371.445 936.262 373.156L935.348 371.422C940.188 370.062 943.199 367.438 943.645 364.133H936.449V362.305H946.012ZM952.668 361.016V372.898H950.441V368.117H946.105V366.266H950.441V361.016H952.668ZM952.668 373.766V381.711H938.934V373.766H952.668ZM941.113 375.547V379.93H950.465V375.547H941.113ZM962.324 364.953C962.324 367.32 963.777 369.688 966.496 370.742L965.301 372.453C963.379 371.68 962.02 370.227 961.27 368.469C960.484 370.426 959.055 372.113 957.027 372.992L955.809 371.281C958.645 370.039 960.168 367.32 960.168 364.953V362.258H962.324V364.953ZM973.809 361.016V373.695H971.699V368.211H969.238V373.578H967.176V361.367H969.238V366.359H971.699V361.016H973.809ZM973.809 374.797V381.992H971.605V376.602H959.535V374.797H973.809ZM988.48 363.195V364.977H976.668V363.195H981.59V360.805H983.793V363.195H988.48ZM982.668 365.938C985.504 365.938 987.496 367.508 987.52 369.852C987.496 372.195 985.504 373.742 982.668 373.742C979.809 373.742 977.84 372.195 977.84 369.852C977.84 367.508 979.809 365.938 982.668 365.938ZM982.668 367.625C981.004 367.625 979.926 368.492 979.926 369.852C979.926 371.211 981.004 372.055 982.668 372.055C984.309 372.055 985.434 371.211 985.457 369.852C985.434 368.492 984.309 367.625 982.668 367.625ZM994.152 360.992V374.516H991.926V371.82H988.527V370.016H991.926V367.695H988.551V365.891H991.926V360.992H994.152ZM987.168 374.727C991.574 374.727 994.27 376.039 994.27 378.336C994.27 380.609 991.574 381.969 987.168 381.945C982.738 381.969 980.043 380.609 980.043 378.336C980.043 376.039 982.738 374.727 987.168 374.727ZM987.168 376.438C984.145 376.438 982.363 377.094 982.363 378.336C982.363 379.555 984.145 380.258 987.168 380.234C990.121 380.258 991.902 379.555 991.902 378.336C991.902 377.094 990.121 376.438 987.168 376.438Z" fill="white"/>
<rect x="732" y="345" width="137" height="52" rx="10" fill="#939393"/>
<path d="M773.805 367.93V369.734H759.25V362.023H761.5V367.93H773.805ZM776.008 372.57V374.375H771.227V381.992H768.977V374.375H763.891V381.992H761.664V374.375H756.859V372.57H776.008ZM788.266 363.969C788.266 367.391 791.922 370.625 795.953 371.352L794.922 373.203C791.57 372.477 788.477 370.273 787.117 367.32C785.734 370.25 782.652 372.453 779.289 373.203L778.305 371.352C782.289 370.602 785.922 367.391 785.922 363.969V362.375H788.266V363.969ZM796.82 377.375V379.227H777.602V377.375H796.82ZM811.609 364.836C811.609 367.672 813.508 370.438 816.672 371.539L815.453 373.273C813.156 372.395 811.445 370.66 810.555 368.469C809.641 370.906 807.848 372.828 805.375 373.766L804.18 372.008C807.438 370.836 809.383 367.93 809.406 364.766V362.281H811.609V364.836ZM821.711 361.016V376.672H819.484V367.625H815.055V365.797H819.484V361.016H821.711ZM822.18 379.742V381.547H808V374.914H810.25V379.742H822.18ZM843.133 363.945V365.75H825.859V363.945H833.406V361.297H835.609V363.945H843.133ZM844.164 377.82V379.625H824.945V377.82H833.406V375.031C829.727 374.809 827.5 373.355 827.5 371.023C827.5 368.492 830.172 367.016 834.508 367.016C838.797 367.016 841.492 368.492 841.492 371.023C841.492 373.355 839.254 374.809 835.609 375.031V377.82H844.164ZM834.508 368.773C831.508 368.773 829.75 369.57 829.773 371.023C829.75 372.477 831.508 373.273 834.508 373.297C837.461 373.273 839.219 372.477 839.219 371.023C839.219 369.57 837.461 368.773 834.508 368.773Z" fill="white"/>
<defs>
<filter id="filter0_d_1035_870" x="415.338" y="0" width="708.554" height="479" filterUnits="userSpaceOnUse" color-interpolation-filters="sRGB">
<feFlood flood-opacity="0" result="BackgroundImageFix"/>
<feColorMatrix in="SourceAlpha" type="matrix" values="0 0 0 0 0 0 0 0 0 0 0 0 0 0 0 0 0 0 127 0" result="hardAlpha"/>
<feOffset dy="4"/>
<feGaussianBlur stdDeviation="2"/>
<feComposite in2="hardAlpha" operator="out"/>
<feColorMatrix type="matrix" values="0 0 0 0 0 0 0 0 0 0 0 0 0 0 0 0 0 0 0.25 0"/>
<feBlend mode="normal" in2="BackgroundImageFix" result="effect1_dropShadow_1035_870"/>
<feBlend mode="normal" in="SourceGraphic" in2="effect1_dropShadow_1035_870" result="shape"/>
</filter>
</defs>
</svg>
