<svg width="1142" height="480" viewBox="0 0 1142 480" fill="none" xmlns="http://www.w3.org/2000/svg">
<path d="M60.5957 440.412V443.781H52.041V445.451H60.0098V448.762H52.041V450.52C56.1279 450.49 58.9111 450.373 61.9141 449.787L62.3828 453.098C58.7793 453.713 55.4688 453.83 50.0781 453.801H47.7637V440.412H60.5957ZM68.2715 455.705V465.52H50.5176V455.705H68.2715ZM54.6777 458.986V462.15H64.1113V458.986H54.6777ZM68.2715 438.918V445.07H71.7578V448.557H68.2715V454.621H64.0527V438.918H68.2715ZM95.5469 438.918V455.178H91.3574V450.139H88.2227V446.711H91.3574V438.918H95.5469ZM95.5469 456.203V465.52H77.3242V456.203H95.5469ZM81.5723 459.514V462.15H91.4453V459.514H81.5723ZM88.75 441.115V444.455H72.8711V441.115H78.7305V438.713H82.8906V441.115H88.75ZM80.8105 445.188C84.6484 445.188 87.3438 447.209 87.3438 450.021C87.3438 452.951 84.6191 454.885 80.8105 454.914C77.0312 454.885 74.2773 452.951 74.2773 450.021C74.2773 447.209 77.0312 445.188 80.8105 445.188ZM80.8105 448.352C79.2578 448.322 78.3203 448.879 78.3496 450.021C78.3203 451.223 79.2578 451.809 80.8105 451.809C82.334 451.809 83.3008 451.223 83.3008 450.021C83.3008 448.879 82.334 448.322 80.8105 448.352ZM120.039 438.918V449.025H123.643V452.482H120.039V465.725H115.82V438.918H120.039ZM112.773 441.613C112.773 449.787 109.785 456.76 100.645 461.242L98.2715 458.02C104.438 454.929 107.749 450.915 108.496 445.07H99.8828V441.613H112.773ZM145.967 438.918V449.025H149.57V452.482H145.967V465.725H141.748V438.918H145.967ZM138.701 441.613C138.701 449.787 135.713 456.76 126.572 461.242L124.199 458.02C130.366 454.929 133.677 450.915 134.424 445.07H125.811V441.613H138.701ZM168.408 440.061V441.789C168.408 443.591 168.408 445.949 167.559 449.025H174.062C174.678 446.726 174.824 444.953 174.883 443.4H169.932V440.061H178.955V441.877C178.926 443.796 178.926 446.11 178.281 449.025H181.768V452.424H171.543V455.559H178.75V465.49H160.205V455.559H167.354V452.424H157.275V449.025H163.311C163.999 446.682 164.204 444.895 164.277 443.4H159.414V440.061H168.408ZM164.365 458.811V462.209H174.561V458.811H164.365ZM205.791 438.947V458.166H201.572V438.947H205.791ZM206.465 462.004V465.373H187.568V456.232H191.846V462.004H206.465ZM190.996 440.617C195.156 440.617 198.438 443.488 198.438 447.443C198.438 451.486 195.156 454.328 190.996 454.328C186.836 454.328 183.525 451.486 183.555 447.443C183.525 443.488 186.836 440.617 190.996 440.617ZM190.996 444.279C189.092 444.25 187.656 445.422 187.656 447.443C187.656 449.553 189.092 450.666 190.996 450.666C192.812 450.666 194.248 449.553 194.248 447.443C194.248 445.422 192.812 444.25 190.996 444.279ZM221.172 440.471V443.811H225.742V440.471H229.902V445.158H234.414V438.918H238.604V454.504H234.414V448.586H229.902V453.449H216.924V440.471H221.172ZM221.172 450.109H225.742V447.092H221.172V450.109ZM238.604 455.471V465.52H220.381V455.471H238.604ZM224.629 458.811V462.15H234.502V458.811H224.629ZM250.557 443.547C250.527 446.359 251.816 449.099 255.215 450.52V439.416H259.111V445.305H260.928V438.947H264.941V455.354H260.928V448.703H259.111V454.504H255.215V450.959L253.223 453.859C251.025 453.01 249.517 451.53 248.564 449.67C247.598 451.896 245.972 453.742 243.525 454.738L241.27 451.486C245.107 449.787 246.426 446.535 246.426 443.547V440.559H250.557V443.547ZM255.654 455.617C261.367 455.617 265.059 457.551 265.088 460.715C265.059 463.879 261.367 465.842 255.654 465.812C249.941 465.842 246.25 463.879 246.279 460.715C246.25 457.551 249.941 455.617 255.654 455.617ZM255.654 458.781C252.344 458.752 250.469 459.396 250.498 460.715C250.469 462.033 252.344 462.648 255.654 462.648C258.965 462.648 260.811 462.033 260.84 460.715C260.811 459.396 258.965 458.752 255.654 458.781ZM290.283 438.918V465.871H286.035V438.918H290.283ZM275.605 440.764C279.678 440.764 282.725 444.484 282.754 450.373C282.725 456.35 279.678 460.07 275.605 460.07C271.445 460.07 268.398 456.35 268.398 450.373C268.398 444.484 271.445 440.764 275.605 440.764ZM275.605 444.572C273.701 444.572 272.471 446.535 272.5 450.373C272.471 454.27 273.701 456.232 275.605 456.232C277.451 456.232 278.682 454.27 278.682 450.373C278.682 446.535 277.451 444.572 275.605 444.572ZM308.535 441.232V444.543H293.711V441.232H299.219V438.684H303.438V441.232H308.535ZM301.27 445.305C304.99 445.305 307.715 447.385 307.744 450.373C307.715 453.361 304.99 455.383 301.27 455.383C297.549 455.383 294.912 453.361 294.912 450.373C294.912 447.385 297.549 445.305 301.27 445.305ZM301.27 448.439C299.805 448.439 298.838 449.084 298.838 450.373C298.838 451.662 299.805 452.277 301.27 452.277C302.764 452.277 303.818 451.662 303.818 450.373C303.818 449.084 302.764 448.439 301.27 448.439ZM316.387 438.918V455.969H312.197V453.42H308.857V450.051H312.197V448H308.945V444.631H312.197V438.918H316.387ZM307.188 456.32C312.93 456.32 316.504 458.078 316.533 461.066C316.504 464.025 312.93 465.842 307.188 465.812C301.416 465.842 297.812 464.025 297.812 461.066C297.812 458.078 301.416 456.32 307.188 456.32ZM307.188 459.484C303.965 459.514 302.266 459.953 302.266 461.066C302.266 462.15 303.965 462.648 307.188 462.648C310.322 462.648 311.992 462.15 311.992 461.066C311.992 459.953 310.322 459.514 307.188 459.484Z" fill="#222222"/>
<path d="M20 183.842L21.5 180.684L65 167V180.684L36 187H22.5L20 183.842Z" fill="#969696"/>
<path d="M267.5 115.5L258.5 106L297 93L299.5 94L300.5 96C300.333 96.3333 299.6 97.7 298 100.5C296.4 103.3 277 111.667 267.5 115.5Z" fill="#969696"/>
<path d="M309.5 194L306 200H313L309.5 194Z" fill="black"/>
<rect x="306" y="196" width="7" height="1" fill="#E9E9E9"/>
<path d="M101.444 13.8255C100.698 11.4479 106.185 7.59387 113.724 5.20067C121.264 2.80746 127.979 2.80746 128.725 5.20067" fill="black"/>
<path d="M101.444 13.8255C100.698 11.4479 106.185 7.59387 113.724 5.20067C121.264 2.80746 127.979 2.80746 128.725 5.20067" stroke="black" stroke-width="2" stroke-miterlimit="10" stroke-linecap="round"/>
<path d="M20.3 181.614L42.7622 147.426C48.2029 138.568 51.2185 128.451 51.545 118.07L52.5554 84.8138C53.4259 55.9089 69.9189 29.4593 95.9252 16.8094C102.578 13.5771 110.242 10.7332 119.087 8.49539C127.605 5.23192 135.518 3.14952 142.824 1.96846C171.379 -2.64701 200.091 9.50551 217.438 32.645L237.398 59.2656C243.631 67.5796 251.932 74.1221 261.477 78.2247L298.846 93.4853" fill="#969696"/>
<path d="M20.3 181.614L42.7622 147.426C48.2029 138.568 51.2185 128.451 51.545 118.07L52.5554 84.8138C53.4259 55.9089 69.9189 29.4593 95.9252 16.8094C102.578 13.5771 110.242 10.7332 119.087 8.49539C127.605 5.23192 135.518 3.14952 142.824 1.96846C171.379 -2.64701 200.091 9.50551 217.438 32.645L237.398 59.2656C243.631 67.5796 251.932 74.1221 261.477 78.2247L298.846 93.4853" stroke="black" stroke-width="2" stroke-miterlimit="10" stroke-linecap="round"/>
<path d="M65.5203 180.666C51.1881 184.318 23.3008 190.472 20.2385 184.085C16.088 175.445 82.1221 141.21 155.571 119.826" stroke="black" stroke-width="2" stroke-miterlimit="10" stroke-linecap="round"/>
<path d="M267.027 116.547C281.344 110.844 302.019 101.473 300.993 95.2572C299.407 85.7932 225.709 95.7856 153.318 120.541" stroke="black" stroke-width="2" stroke-miterlimit="10" stroke-linecap="round"/>
<path d="M49.3999 132.118C49.3999 132.118 133.466 78.1002 249.461 71.3091" stroke="black" stroke-width="2" stroke-miterlimit="10" stroke-linecap="round"/>
<path d="M50.7363 126.167C65.7836 117.153 142.45 74.091 244.564 67.2222" stroke="black" stroke-width="2" stroke-miterlimit="10" stroke-linecap="round"/>
<path d="M114.394 9.70752C114.394 9.70752 68.4277 24.2688 77.2416 102.001" stroke="black" stroke-width="2" stroke-miterlimit="10" stroke-linecap="round"/>
<path d="M112.434 10.3291C112.434 10.3291 131.662 -0.471462 158.12 13.2506" stroke="black" stroke-width="2" stroke-miterlimit="10" stroke-linecap="round"/>
<path d="M162.364 16.6543C162.364 16.6543 167.587 18.1617 170.385 22.0157" stroke="black" stroke-width="2" stroke-miterlimit="10" stroke-linecap="round"/>
<path d="M247.578 96.0962L290.916 141.691V377.298H65.5176V153.518" fill="#D9D9D9"/>
<path d="M247.578 96.0962L290.916 141.691V377.298H65.5176V153.518" stroke="black" stroke-width="2" stroke-miterlimit="10"/>
<path d="M131.194 222.672C152.013 222.672 168.89 205.799 168.89 184.987C168.89 164.174 152.013 147.301 131.194 147.301C110.375 147.301 93.498 164.174 93.498 184.987C93.498 205.799 110.375 222.672 131.194 222.672Z" stroke="black" stroke-width="6" stroke-miterlimit="10" stroke-linecap="round"/>
<path d="M226.018 222.672C246.837 222.672 263.714 205.799 263.714 184.987C263.714 164.174 246.837 147.301 226.018 147.301C205.199 147.301 188.322 164.174 188.322 184.987C188.322 205.799 205.199 222.672 226.018 222.672Z" stroke="black" stroke-width="6" stroke-miterlimit="10" stroke-linecap="round"/>
<path d="M168.891 184.987V190.037H187.544V182.267H168.891V184.987Z" fill="black"/>
<path d="M234.117 98.6289C232.563 115.692 231.055 141.784 235.703 146.462C242.729 153.517 270.709 134.543 290.918 141.707" fill="#F4F4F4"/>
<path d="M234.117 98.6289C232.563 115.692 231.055 141.784 235.703 146.462C242.729 153.517 270.709 134.543 290.918 141.707" stroke="black" stroke-width="2" stroke-miterlimit="10" stroke-linecap="round"/>
<path d="M211.296 110.797C211.296 110.797 219.488 105.731 229.546 113.315" stroke="black" stroke-width="2" stroke-miterlimit="10" stroke-linecap="round"/>
<path d="M200.757 238.989C200.757 238.989 141.687 231.219 144.796 249.867C147.905 268.516 196.094 251.421 200.757 238.989Z" fill="white" stroke="black" stroke-width="2" stroke-miterlimit="10" stroke-linecap="round"/>
<path d="M108.267 243.651C114.706 243.651 119.926 242.259 119.926 240.543C119.926 238.826 114.706 237.435 108.267 237.435C101.828 237.435 96.6084 238.826 96.6084 240.543C96.6084 242.259 101.828 243.651 108.267 243.651Z" fill="white"/>
<path d="M246.616 243.651C253.055 243.651 258.274 242.259 258.274 240.543C258.274 238.826 253.055 237.435 246.616 237.435C240.177 237.435 234.957 238.826 234.957 240.543C234.957 242.259 240.177 243.651 246.616 243.651Z" fill="white"/>
<path d="M312.68 201.692H306.462V282.502H312.68V201.692Z" fill="black" stroke="black" stroke-miterlimit="10" stroke-linecap="round"/>
<path d="M132.361 206.354C139.229 206.354 144.796 196.266 144.796 183.821C144.796 171.376 139.229 161.288 132.361 161.288C125.492 161.288 119.925 171.376 119.925 183.821C119.925 196.266 125.492 206.354 132.361 206.354Z" fill="black"/>
<path d="M226.408 207.132C233.276 207.132 238.844 197.043 238.844 184.598C238.844 172.154 233.276 162.065 226.408 162.065C219.54 162.065 213.972 172.154 213.972 184.598C213.972 197.043 219.54 207.132 226.408 207.132Z" fill="black"/>
<path d="M79.6962 115.832C79.6962 115.832 81.9968 124.721 77.6443 132.134" stroke="black" stroke-width="2" stroke-miterlimit="10" stroke-linecap="round"/>
<path d="M73.2914 137.977C73.2914 137.977 71.7369 141.085 68.6279 142.639" stroke="black" stroke-width="2" stroke-miterlimit="10" stroke-linecap="round"/>
<path d="M65.7197 283.885C65.7197 283.885 65.7197 260.715 44.1902 259.052C22.6607 257.389 7.76886 262.362 2.79455 254.079C-2.17977 245.796 2.79455 285.532 22.6607 288.842C42.5269 292.153 65.7197 283.87 65.7197 283.87V283.885Z" fill="black" stroke="black" stroke-miterlimit="10" stroke-linecap="round"/>
<path d="M39.231 265.672C39.231 265.672 42.542 270.645 54.1384 273.955C65.7347 277.265 65.7347 283.885 65.7347 283.885C65.7347 283.885 55.8017 278.912 47.5163 280.575" stroke="#D9D9D9" stroke-width="2" stroke-miterlimit="10" stroke-linecap="round"/>
<path d="M65.719 283.885C65.719 283.885 108.778 320.296 188.258 315.338C267.738 310.365 290.916 293.815 290.916 293.815V320.373C290.916 320.373 198.191 384.866 171.688 388.176C145.199 391.486 65.719 325.269 60.7447 317.001C55.7704 308.734 57.4337 295.478 65.719 283.9V283.885Z" fill="black" stroke="black" stroke-miterlimit="10" stroke-linecap="round"/>
<path d="M146.519 312.001C146.519 312.001 129.949 311.674 120 324.93" stroke="#D9D9D9" stroke-width="2" stroke-miterlimit="10" stroke-linecap="round"/>
<path d="M204.215 312C204.215 312 233.688 315.108 240.31 330.011" stroke="#D9D9D9" stroke-width="2" stroke-miterlimit="10" stroke-linecap="round"/>
<path d="M203 312.125C203 312.125 217.13 316.771 220.441 326.701" stroke="#D9D9D9" stroke-width="2" stroke-miterlimit="10" stroke-linecap="round"/>
<path d="M66.3957 284.235C66.3957 284.235 48.1772 280.925 36.5964 299.138C25.0155 317.352 25 317.352 25 317.352C25 317.352 34.9331 323.972 51.4882 315.689C68.0434 307.406 66.3957 284.235 66.3957 284.235Z" fill="black" stroke="black" stroke-miterlimit="10" stroke-linecap="round"/>
<path d="M290.918 247.754C290.918 247.754 294.027 270.07 301.8 263.854C306.992 259.705 313.567 247.226 317.376 239.393C318.339 237.404 321.34 237.948 321.526 240.155C322.707 254.328 321.277 286.714 290.934 318.229" fill="#D9D9D9"/>
<path d="M290.918 247.754C290.918 247.754 294.027 270.07 301.8 263.854C306.992 259.705 313.567 247.226 317.376 239.393C318.339 237.404 321.34 237.948 321.526 240.155C322.707 254.328 321.277 286.714 290.934 318.229" stroke="black" stroke-width="2" stroke-miterlimit="10" stroke-linecap="round"/>
<ellipse cx="136.5" cy="173" rx="2.5" ry="4" fill="white"/>
<ellipse cx="229.5" cy="173" rx="2.5" ry="4" fill="white"/>
<path d="M235 99.5L248 97L288 140L235 99.5Z" fill="#F4F4F4"/>
<path d="M234.5 98.5L248 96" stroke="black" stroke-width="2"/>
<path d="M50.5 131L51.5 125.5C89 103 155.5 82.5 177 77.5C191.912 74.032 227.667 68.3333 244 67L249 71.5C172.2 72.7 84.6667 111.667 50.5 131Z" fill="black" stroke="black"/>
<path d="M291.5 257.5L289.5 245.5L286.5 295.5L291.5 293.5V257.5Z" fill="#D9D9D9"/>
<path d="M60.5957 440.412V443.781H52.041V445.451H60.0098V448.762H52.041V450.52C56.1279 450.49 58.9111 450.373 61.9141 449.787L62.3828 453.098C58.7793 453.713 55.4688 453.83 50.0781 453.801H47.7637V440.412H60.5957ZM68.2715 455.705V465.52H50.5176V455.705H68.2715ZM54.6777 458.986V462.15H64.1113V458.986H54.6777ZM68.2715 438.918V445.07H71.7578V448.557H68.2715V454.621H64.0527V438.918H68.2715ZM95.5469 438.918V455.178H91.3574V450.139H88.2227V446.711H91.3574V438.918H95.5469ZM95.5469 456.203V465.52H77.3242V456.203H95.5469ZM81.5723 459.514V462.15H91.4453V459.514H81.5723ZM88.75 441.115V444.455H72.8711V441.115H78.7305V438.713H82.8906V441.115H88.75ZM80.8105 445.188C84.6484 445.188 87.3438 447.209 87.3438 450.021C87.3438 452.951 84.6191 454.885 80.8105 454.914C77.0312 454.885 74.2773 452.951 74.2773 450.021C74.2773 447.209 77.0312 445.188 80.8105 445.188ZM80.8105 448.352C79.2578 448.322 78.3203 448.879 78.3496 450.021C78.3203 451.223 79.2578 451.809 80.8105 451.809C82.334 451.809 83.3008 451.223 83.3008 450.021C83.3008 448.879 82.334 448.322 80.8105 448.352ZM120.039 438.918V449.025H123.643V452.482H120.039V465.725H115.82V438.918H120.039ZM112.773 441.613C112.773 449.787 109.785 456.76 100.645 461.242L98.2715 458.02C104.438 454.929 107.749 450.915 108.496 445.07H99.8828V441.613H112.773ZM145.967 438.918V449.025H149.57V452.482H145.967V465.725H141.748V438.918H145.967ZM138.701 441.613C138.701 449.787 135.713 456.76 126.572 461.242L124.199 458.02C130.366 454.929 133.677 450.915 134.424 445.07H125.811V441.613H138.701ZM168.408 440.061V441.789C168.408 443.591 168.408 445.949 167.559 449.025H174.062C174.678 446.726 174.824 444.953 174.883 443.4H169.932V440.061H178.955V441.877C178.926 443.796 178.926 446.11 178.281 449.025H181.768V452.424H171.543V455.559H178.75V465.49H160.205V455.559H167.354V452.424H157.275V449.025H163.311C163.999 446.682 164.204 444.895 164.277 443.4H159.414V440.061H168.408ZM164.365 458.811V462.209H174.561V458.811H164.365ZM205.791 438.947V458.166H201.572V438.947H205.791ZM206.465 462.004V465.373H187.568V456.232H191.846V462.004H206.465ZM190.996 440.617C195.156 440.617 198.438 443.488 198.438 447.443C198.438 451.486 195.156 454.328 190.996 454.328C186.836 454.328 183.525 451.486 183.555 447.443C183.525 443.488 186.836 440.617 190.996 440.617ZM190.996 444.279C189.092 444.25 187.656 445.422 187.656 447.443C187.656 449.553 189.092 450.666 190.996 450.666C192.812 450.666 194.248 449.553 194.248 447.443C194.248 445.422 192.812 444.25 190.996 444.279ZM221.172 440.471V443.811H225.742V440.471H229.902V445.158H234.414V438.918H238.604V454.504H234.414V448.586H229.902V453.449H216.924V440.471H221.172ZM221.172 450.109H225.742V447.092H221.172V450.109ZM238.604 455.471V465.52H220.381V455.471H238.604ZM224.629 458.811V462.15H234.502V458.811H224.629ZM250.557 443.547C250.527 446.359 251.816 449.099 255.215 450.52V439.416H259.111V445.305H260.928V438.947H264.941V455.354H260.928V448.703H259.111V454.504H255.215V450.959L253.223 453.859C251.025 453.01 249.517 451.53 248.564 449.67C247.598 451.896 245.972 453.742 243.525 454.738L241.27 451.486C245.107 449.787 246.426 446.535 246.426 443.547V440.559H250.557V443.547ZM255.654 455.617C261.367 455.617 265.059 457.551 265.088 460.715C265.059 463.879 261.367 465.842 255.654 465.812C249.941 465.842 246.25 463.879 246.279 460.715C246.25 457.551 249.941 455.617 255.654 455.617ZM255.654 458.781C252.344 458.752 250.469 459.396 250.498 460.715C250.469 462.033 252.344 462.648 255.654 462.648C258.965 462.648 260.811 462.033 260.84 460.715C260.811 459.396 258.965 458.752 255.654 458.781ZM290.283 438.918V465.871H286.035V438.918H290.283ZM275.605 440.764C279.678 440.764 282.725 444.484 282.754 450.373C282.725 456.35 279.678 460.07 275.605 460.07C271.445 460.07 268.398 456.35 268.398 450.373C268.398 444.484 271.445 440.764 275.605 440.764ZM275.605 444.572C273.701 444.572 272.471 446.535 272.5 450.373C272.471 454.27 273.701 456.232 275.605 456.232C277.451 456.232 278.682 454.27 278.682 450.373C278.682 446.535 277.451 444.572 275.605 444.572ZM308.535 441.232V444.543H293.711V441.232H299.219V438.684H303.438V441.232H308.535ZM301.27 445.305C304.99 445.305 307.715 447.385 307.744 450.373C307.715 453.361 304.99 455.383 301.27 455.383C297.549 455.383 294.912 453.361 294.912 450.373C294.912 447.385 297.549 445.305 301.27 445.305ZM301.27 448.439C299.805 448.439 298.838 449.084 298.838 450.373C298.838 451.662 299.805 452.277 301.27 452.277C302.764 452.277 303.818 451.662 303.818 450.373C303.818 449.084 302.764 448.439 301.27 448.439ZM316.387 438.918V455.969H312.197V453.42H308.857V450.051H312.197V448H308.945V444.631H312.197V438.918H316.387ZM307.188 456.32C312.93 456.32 316.504 458.078 316.533 461.066C316.504 464.025 312.93 465.842 307.188 465.812C301.416 465.842 297.812 464.025 297.812 461.066C297.812 458.078 301.416 456.32 307.188 456.32ZM307.188 459.484C303.965 459.514 302.266 459.953 302.266 461.066C302.266 462.15 303.965 462.648 307.188 462.648C310.322 462.648 311.992 462.15 311.992 461.066C311.992 459.953 310.322 459.514 307.188 459.484Z" fill="#222222"/>
<g filter="url(#filter0_d_1091_2)">
<path fill-rule="evenodd" clip-rule="evenodd" d="M557.891 1C524.202 1 496.891 28.3106 496.891 62V203.9L438.154 232.423C434.399 234.246 434.399 239.595 438.154 241.418L496.891 269.941V411C496.891 444.689 524.202 472 557.891 472H1074.89C1108.58 472 1135.89 444.689 1135.89 411V62C1135.89 28.3106 1108.58 1 1074.89 1H557.891Z" fill="white"/>
</g>
<path d="M712.617 76.6406V81.625H715.475V83.043H712.617V88.0488H710.92V76.6406H712.617ZM706.473 88.4141C710.362 88.4141 712.768 89.7676 712.768 92.0449C712.768 94.3652 710.362 95.6973 706.473 95.6973C702.563 95.6973 700.135 94.3652 700.135 92.0449C700.135 89.7676 702.563 88.4141 706.473 88.4141ZM706.473 89.8105C703.594 89.7891 701.789 90.6484 701.789 92.0449C701.789 93.4629 703.594 94.3438 706.473 94.3438C709.33 94.3438 711.135 93.4629 711.135 92.0449C711.135 90.6484 709.33 89.7891 706.473 89.8105ZM707.031 78.1016V79.498H700.199V85.1055C704.067 85.084 706.301 84.9658 708.858 84.4395L709.03 85.8359C706.365 86.373 704.067 86.4805 700.028 86.4805H698.545V78.1016H707.031ZM732.448 76.6621V90.6699H730.772V76.6621H732.448ZM733.049 93.9141V95.332H720.115V89.3809H721.791V93.9141H733.049ZM723.446 79.6484C723.424 82.5488 725.422 85.1699 728.258 86.2012L727.377 87.5547C725.164 86.7061 723.446 84.9873 722.608 82.7852C721.759 85.127 720.019 87.0068 717.795 87.8984L716.871 86.5879C719.772 85.4707 721.727 82.6562 721.727 79.6484V77.7363H723.446V79.6484ZM753.094 86.7168V88.0918H735.692V86.7168H753.094ZM751.16 93.9141V95.332H737.948V89.7676H739.645V93.9141H751.16ZM744.393 77.3281C748.496 77.3066 751.139 78.7246 751.139 81.1094C751.139 83.4941 748.496 84.9121 744.393 84.9121C740.246 84.9121 737.625 83.4941 737.625 81.1094C737.625 78.7246 740.246 77.3066 744.393 77.3281ZM744.393 78.6816C741.321 78.6816 739.344 79.6055 739.365 81.1094C739.344 82.6133 741.321 83.5371 744.393 83.5371C747.444 83.5371 749.42 82.6133 749.42 81.1094C749.42 79.6055 747.444 78.6816 744.393 78.6816ZM766.006 94.2148C762.547 94.2148 760.571 91.3145 760.571 86.2227C760.571 81.1738 762.59 78.2305 766.006 78.2305C769.422 78.2305 771.442 81.1738 771.442 86.2227C771.442 91.3145 769.444 94.2148 766.006 94.2148ZM766.006 92.4961C768.24 92.4961 769.551 90.2402 769.551 86.2227C769.551 82.2051 768.24 79.9062 766.006 79.9062C763.772 79.9062 762.44 82.2051 762.44 86.2227C762.44 90.2402 763.75 92.4961 766.006 92.4961ZM779.112 94.2148C775.653 94.2148 773.676 91.3145 773.676 86.2227C773.676 81.1738 775.696 78.2305 779.112 78.2305C782.528 78.2305 784.547 81.1738 784.547 86.2227C784.547 91.3145 782.549 94.2148 779.112 94.2148ZM779.112 92.4961C781.346 92.4961 782.656 90.2402 782.656 86.2227C782.656 82.2051 781.346 79.9062 779.112 79.9062C776.877 79.9062 775.545 82.2051 775.545 86.2227C775.545 90.2402 776.856 92.4961 779.112 92.4961ZM803.905 86.7598V88.1348H796.127V91.873H794.451V88.1348H786.416V86.7598H803.905ZM801.949 93.9141V95.332H788.651V90.1113H790.326V93.9141H801.949ZM790.434 77.2637V79.7129H799.887V77.2637H801.563V84.8906H788.758V77.2637H790.434ZM790.434 83.5156H799.887V81.002H790.434V83.5156ZM810.565 78.123C813.379 78.1445 815.377 80.7227 815.399 84.7832C815.377 88.8438 813.379 91.4219 810.565 91.4219C807.729 91.4219 805.752 88.8438 805.752 84.7832C805.752 80.7227 807.729 78.1445 810.565 78.123ZM810.565 79.627C808.674 79.6484 807.342 81.668 807.342 84.7832C807.342 87.8984 808.674 89.918 810.565 89.918C812.477 89.918 813.766 87.8984 813.766 84.7832C813.766 81.668 812.477 79.6484 810.565 79.627ZM823.326 81.4531V82.8926H820.233V87.1465H823.326V88.5645H820.233V95.7402H818.557V76.6406H820.233V81.4531H823.326ZM840.836 76.6406V95.7402H839.203V76.6406H840.836ZM836.99 77.0488V94.7734H835.379V85.4922H832.93C832.747 89.209 831.168 91.5293 828.805 91.5293C826.313 91.5293 824.701 88.9512 824.701 84.8906C824.701 80.8301 826.313 78.252 828.805 78.252C831.125 78.252 832.694 80.4971 832.908 84.0957H835.379V77.0488H836.99ZM828.805 79.8418C827.258 79.8418 826.27 81.7754 826.291 84.8906C826.27 87.9844 827.258 89.9395 828.805 89.918C830.352 89.9395 831.34 87.9844 831.34 84.8906C831.34 81.7754 830.352 79.8418 828.805 79.8418ZM859.592 78.123V79.1328C859.571 80.3789 859.571 82.291 859.098 84.7832L857.401 84.6543C857.863 82.3662 857.906 80.7441 857.938 79.541H850.074V78.123H859.592ZM854.672 82.3555V86.459C856.788 86.373 858.98 86.2227 860.967 85.9434L861.074 87.1895C857.078 87.877 852.459 87.9629 849.065 87.9629L848.893 86.5664C850.128 86.5557 851.525 86.5449 852.996 86.502V82.3555H854.672ZM863.975 76.6406V82.8711H866.768V84.3105H863.975V91.0137H862.256V76.6406H863.975ZM864.598 93.9141V95.332H851.836V89.7246H853.533V93.9141H864.598ZM883.783 76.6621V87.5117H882.108V76.6621H883.783ZM883.783 88.6074V95.4824H871.365V88.6074H883.783ZM873.02 89.9824V94.1074H882.129V89.9824H873.02ZM874.781 79.2832C874.76 81.9902 876.823 84.375 879.637 85.3633L878.778 86.6523C876.565 85.8896 874.803 84.2783 873.944 82.1836C873.095 84.418 871.312 86.1797 869.024 87.0176L868.164 85.6855C871.065 84.6758 873.063 82.0977 873.063 79.2832V77.4141H874.781V79.2832ZM893.494 89.4668C893.494 91.1533 894.397 92.9473 896.223 93.9785C898.028 92.8506 898.994 90.9492 898.994 89.4668V88.4141H900.649V89.4668C900.649 91.4219 902.088 93.3984 904.537 94.2363L903.699 95.4824C901.787 94.8057 900.445 93.4736 899.789 91.873C899.198 93.4199 898.028 94.8809 896.266 95.6328C894.407 94.9238 893.226 93.5166 892.656 91.916C891.98 93.4629 890.658 94.7949 888.832 95.4824L887.973 94.2363C890.379 93.334 891.84 91.293 891.862 89.4668V88.4141H893.494V89.4668ZM902.797 76.6621V87.5762H901.121V76.6621H902.797ZM892.485 77.7793C895.385 77.7793 897.49 79.584 897.49 82.248C897.49 84.8691 895.385 86.6738 892.485 86.6738C889.584 86.6738 887.479 84.8691 887.479 82.248C887.479 79.584 889.584 77.7793 892.485 77.7793ZM892.485 79.2188C890.53 79.1973 889.112 80.4648 889.133 82.248C889.112 84.0098 890.53 85.2559 892.485 85.2773C894.418 85.2559 895.836 84.0098 895.836 82.248C895.836 80.4648 894.418 79.1973 892.485 79.2188ZM921.489 82.4414V83.7949H908.405V77.3496H910.08V82.4414H921.489ZM923.508 86.3945V87.7695H906.02V86.3945H923.508ZM921.596 93.8711V95.2676H908.297V89.7246H909.973V93.8711H921.596ZM928.192 92.5605L926.516 98.4043H924.926L926.108 92.5605H928.192Z" fill="#222222"/>
<path d="M661.269 225.455C661.269 228.721 665.007 231.643 668.337 232.266L667.563 233.684C664.685 233.018 661.645 230.966 660.409 228.141C659.174 230.955 656.145 233.007 653.255 233.684L652.481 232.266C655.79 231.621 659.507 228.742 659.507 225.455V223.994H661.269V225.455ZM669.239 237.744V239.141H651.751V237.744H669.239ZM685.997 224.596V226.959C685.997 229.773 685.997 232.373 685.202 236.24L683.505 236.09C683.924 234.253 684.139 232.663 684.257 231.17L672.591 231.814L672.354 230.418L684.321 229.924C684.354 228.914 684.354 227.937 684.364 226.959V226.014H672.87V224.596H685.997ZM688.167 237.637V239.055H670.765V237.637H688.167ZM705.999 222.662V233.232H704.388V228.57H701.702V233.039H700.134V223.006H701.702V227.217H704.388V222.662H705.999ZM695.085 234.113V236.305H704.345V234.113H705.999V241.482H693.409V234.113H695.085ZM695.085 240.107H704.345V237.68H695.085V240.107ZM697.856 223.801V228.699H692.292V231.234C694.806 231.202 696.729 231.105 698.995 230.633L699.188 232.029C696.718 232.502 694.677 232.609 691.905 232.609H690.659V227.41H696.245V225.176H690.616V223.801H697.856ZM720.78 226.186C720.78 228.721 722.649 231.041 725.485 232.029L724.626 233.34C722.445 232.566 720.78 230.998 719.964 229.021C719.147 231.191 717.396 232.878 715.151 233.705L714.249 232.395C717.106 231.385 719.104 228.914 719.126 226.186V225.369H714.765V223.994H725.077V225.369H720.78V226.186ZM729.245 222.641V227.689H732.124V229.129H729.245V234.156H727.569V222.641H729.245ZM729.245 235.166V241.74H727.569V236.541H716.741V235.166H729.245ZM739.901 225.648C739.88 228.377 741.813 230.783 744.628 231.729L743.683 233.039C741.577 232.244 739.923 230.697 739.106 228.678C738.279 230.966 736.528 232.749 734.229 233.619L733.306 232.244C736.249 231.213 738.204 228.678 738.226 225.713V223.736H739.901V225.648ZM749.161 222.641V233.963H747.464V228.141H743.21V226.744H747.464V222.641H749.161ZM742.823 234.521C746.798 234.521 749.226 235.832 749.226 238.131C749.226 240.408 746.798 241.697 742.823 241.697C738.849 241.697 736.421 240.408 736.421 238.131C736.421 235.832 738.849 234.521 742.823 234.521ZM742.823 235.854C739.901 235.854 738.075 236.713 738.097 238.131C738.075 239.506 739.901 240.344 742.823 240.344C745.745 240.344 747.55 239.506 747.55 238.131C747.55 236.713 745.745 235.854 742.823 235.854ZM761.042 223.887C765.038 223.887 768.024 225.971 768.024 229.129C768.024 232.309 765.038 234.393 761.042 234.371C757.046 234.393 754.06 232.309 754.06 229.129C754.06 225.971 757.046 223.887 761.042 223.887ZM761.042 225.262C757.97 225.24 755.649 226.852 755.671 229.129C755.649 231.449 757.97 232.996 761.042 232.996C764.093 232.996 766.392 231.449 766.392 229.129C766.392 226.852 764.093 225.24 761.042 225.262ZM769.829 237.787V239.205H752.341V237.787H769.829ZM788.843 237.959V239.377H771.354V237.959H779.218V234.35H773.546V228.463H784.976V225.455H773.503V224.059H786.63V229.838H775.222V232.953H787.081V234.35H780.872V237.959H788.843ZM810.671 222.641V230.203H813.872V231.621H810.671V241.783H808.995V222.641H810.671ZM805.644 224.51V225.906H798.403V235.574C801.862 235.574 804.312 235.413 807.147 234.887L807.362 236.348C804.376 236.885 801.862 236.992 798.231 236.992H796.728V224.51H805.644ZM832.671 225.541V226.938H829.835V229.602H832.671V231.02H829.835V233.984H828.159V222.641H829.835V225.541H832.671ZM820.274 223.801C823.175 223.779 825.28 225.627 825.302 228.291C825.28 230.955 823.175 232.76 820.274 232.781C817.374 232.76 815.247 230.955 815.269 228.291C815.247 225.627 817.374 223.779 820.274 223.801ZM820.274 225.24C818.341 225.219 816.901 226.486 816.923 228.291C816.901 230.096 818.341 231.342 820.274 231.363C822.229 231.342 823.647 230.096 823.647 228.291C823.647 226.486 822.229 225.219 820.274 225.24ZM823.712 234.564C827.601 234.586 830.007 235.875 830.007 238.152C830.007 240.387 827.601 241.697 823.712 241.697C819.802 241.697 817.374 240.387 817.374 238.152C817.374 235.875 819.802 234.586 823.712 234.564ZM823.712 235.939C820.833 235.939 819.05 236.756 819.071 238.152C819.05 239.527 820.833 240.344 823.712 240.344C826.612 240.344 828.374 239.527 828.374 238.152C828.374 236.756 826.612 235.939 823.712 235.939ZM848.849 222.662V228.957H851.728V230.375H848.849V236.971H847.173V222.662H848.849ZM845.347 225.004V226.379H833.96V225.004H838.815V222.662H840.491V225.004H845.347ZM839.653 227.432C842.382 227.432 844.229 228.828 844.251 230.998C844.229 233.146 842.382 234.521 839.653 234.521C836.903 234.521 835.034 233.146 835.056 230.998C835.034 228.828 836.903 227.432 839.653 227.432ZM839.653 228.764C837.849 228.764 836.646 229.645 836.667 230.998C836.646 232.352 837.849 233.211 839.653 233.189C841.437 233.211 842.64 232.352 842.661 230.998C842.64 229.645 841.437 228.764 839.653 228.764ZM849.729 239.914V241.332H836.903V235.832H838.558V239.914H849.729ZM875.919 232.76V234.135H868.142V237.873H866.466V234.135H858.431V232.76H875.919ZM873.964 239.914V241.332H860.665V236.111H862.341V239.914H873.964ZM862.448 223.264V225.713H871.901V223.264H873.577V230.891H860.772V223.264H862.448ZM862.448 229.516H871.901V227.002H862.448V229.516ZM882.579 224.123C885.394 224.145 887.392 226.723 887.413 230.783C887.392 234.844 885.394 237.422 882.579 237.422C879.743 237.422 877.767 234.844 877.767 230.783C877.767 226.723 879.743 224.145 882.579 224.123ZM882.579 225.627C880.688 225.648 879.356 227.668 879.356 230.783C879.356 233.898 880.688 235.918 882.579 235.918C884.491 235.918 885.78 233.898 885.78 230.783C885.78 227.668 884.491 225.648 882.579 225.627ZM895.341 227.453V228.893H892.247V233.146H895.341V234.564H892.247V241.74H890.571V222.641H892.247V227.453H895.341ZM902.731 224.037C905.739 224.037 907.866 225.863 907.866 228.527C907.866 231.191 905.739 233.018 902.731 233.018C899.724 233.018 897.554 231.191 897.575 228.527C897.554 225.863 899.724 224.037 902.731 224.037ZM902.731 225.52C900.69 225.52 899.208 226.744 899.229 228.527C899.208 230.311 900.69 231.535 902.731 231.535C904.751 231.535 906.212 230.311 906.212 228.527C906.212 226.744 904.751 225.52 902.731 225.52ZM912.142 222.641V241.783H910.466V222.641H912.142ZM896.587 236.133C900.11 236.133 904.966 236.111 909.198 235.488L909.327 236.734C904.966 237.551 900.261 237.572 896.823 237.572L896.587 236.133ZM927.847 228.506C927.847 231.75 930.21 235.037 933.024 236.262L932.079 237.594C929.845 236.573 927.911 234.371 927.03 231.729C926.128 234.532 924.205 236.971 922.024 238.066L921.015 236.734C923.743 235.424 926.128 231.814 926.149 228.506V226.014H921.638V224.617H932.401V226.014H927.847V228.506ZM936.763 222.641V241.74H935.065V222.641H936.763ZM946.796 225.412C946.774 228.205 948.794 230.676 951.63 231.664L950.771 232.996C948.558 232.19 946.807 230.536 945.958 228.42C945.109 230.687 943.337 232.47 941.103 233.34L940.222 232.008C943.079 230.955 945.077 228.291 945.077 225.412V223.586H946.796V225.412ZM955.798 235.102V241.74H954.122V236.498H942.95V235.102H955.798ZM955.798 222.641V234.156H954.122V222.641H955.798ZM967.743 222.984C971.997 222.984 974.489 224.145 974.489 226.271C974.489 228.441 971.997 229.602 967.743 229.623C963.489 229.602 960.976 228.441 960.976 226.271C960.976 224.145 963.489 222.984 967.743 222.984ZM967.743 224.252C964.563 224.252 962.716 225.025 962.737 226.271C962.716 227.604 964.563 228.334 967.743 228.334C970.901 228.334 972.771 227.604 972.771 226.271C972.771 225.025 970.901 224.252 967.743 224.252ZM976.444 230.912V232.287H959.042V230.912H976.444ZM974.21 233.941V238.217H962.866V240.193H974.79V241.525H961.19V236.971H972.556V235.23H961.147V233.941H974.21ZM645.778 253.871C645.778 256.922 647.776 260.059 650.548 261.391L649.56 262.701C647.454 261.67 645.789 259.586 645.005 257.115C644.167 259.769 642.395 261.992 640.214 263.045L639.247 261.734C642.04 260.424 644.124 257.158 644.146 253.871V252.346H639.763V250.971H644.124V248.006H645.821V250.971H650.118V252.346H645.778V253.871ZM654.2 247.641V255.482H657.401V256.922H654.2V266.74H652.524V247.641H654.2ZM675.835 256.729V258.125H658.454V256.729H665.651V252.861H667.306V256.729H675.835ZM673.622 260.316V266.74H671.903V261.713H660.302V260.316H673.622ZM673.622 248.693V250.133C673.622 251.594 673.622 253.248 673.149 255.418L671.452 255.246C671.946 253.098 671.946 251.572 671.946 250.133V250.068H660.517V248.693H673.622ZM683.806 253.871C683.806 256.922 685.804 260.059 688.575 261.391L687.587 262.701C685.481 261.67 683.816 259.586 683.032 257.115C682.194 259.769 680.422 261.992 678.241 263.045L677.274 261.734C680.067 260.424 682.151 257.158 682.173 253.871V252.346H677.79V250.971H682.151V248.006H683.849V250.971H688.146V252.346H683.806V253.871ZM692.228 247.641V255.482H695.429V256.922H692.228V266.74H690.552V247.641H692.228ZM713.862 256.729V258.125H696.481V256.729H703.679V252.861H705.333V256.729H713.862ZM711.649 260.316V266.74H709.931V261.713H698.329V260.316H711.649ZM711.649 248.693V250.133C711.649 251.594 711.649 253.248 711.177 255.418L709.479 255.246C709.974 253.098 709.974 251.572 709.974 250.133V250.068H698.544V248.693H711.649ZM736.313 247.641V251.809H738.827V253.227H736.313V257.824H734.638V247.641H736.313ZM725.442 249.789C725.442 251.196 725.84 253.42 727.333 254.902C728.751 253.463 729.159 251.271 729.159 249.811V248.479H729.524V248.457H730.728V249.789C730.728 251.809 731.565 254.279 733.778 255.418L732.854 256.621C731.361 255.837 730.47 254.473 729.997 252.947C729.557 254.483 728.751 255.966 727.312 256.836C725.851 255.944 725.034 254.387 724.626 252.84C724.121 254.365 723.229 255.805 721.769 256.621L720.845 255.418C722.993 254.193 723.831 251.594 723.853 249.789V248.457H725.442V249.789ZM737.108 258.941V260.273H723.573V258.941H729.524V257.029H731.2V258.941H737.108ZM730.362 261.176C733.864 261.176 735.927 262.164 735.927 263.926C735.927 265.752 733.864 266.697 730.362 266.697C726.796 266.697 724.733 265.752 724.755 263.926C724.733 262.164 726.796 261.176 730.362 261.176ZM730.362 262.4C727.827 262.422 726.409 262.98 726.431 263.926C726.409 264.914 727.827 265.473 730.362 265.451C732.833 265.473 734.272 264.914 734.272 263.926C734.272 262.98 732.833 262.422 730.362 262.4ZM745.122 249.123C747.937 249.145 749.935 251.723 749.956 255.783C749.935 259.844 747.937 262.422 745.122 262.422C742.286 262.422 740.31 259.844 740.31 255.783C740.31 251.723 742.286 249.145 745.122 249.123ZM745.122 250.627C743.231 250.648 741.899 252.668 741.899 255.783C741.899 258.898 743.231 260.918 745.122 260.918C747.034 260.918 748.323 258.898 748.323 255.783C748.323 252.668 747.034 250.648 745.122 250.627ZM754.79 247.641V255.268H757.991V256.729H754.79V266.74H753.114V247.641H754.79ZM776.897 255.268V256.686H773.804V266.74H772.128V247.641H773.804V255.268H776.897ZM761.493 249.531V260.467C764.286 260.456 767.133 260.241 770.28 259.586L770.495 261.025C767.208 261.691 764.243 261.885 761.343 261.885H759.817V249.531H761.493ZM792.817 247.641V255.418H795.911V256.836H792.817V266.74H791.142V247.641H792.817ZM787.876 249.703C787.876 255.117 785.341 260.037 779.11 263.109L778.165 261.777C783.106 259.317 785.792 255.644 786.179 251.121H779.046V249.703H787.876ZM812.497 253.441V254.795H799.413V248.35H801.089V253.441H812.497ZM814.517 257.395V258.77H797.028V257.395H814.517ZM812.604 264.871V266.268H799.306V260.725H800.981V264.871H812.604ZM837.419 247.662V260.596H835.722V254.451H831.532V253.033H835.722V247.662H837.419ZM831.446 249.166C831.425 254.064 828.159 257.588 822.659 259.35L821.907 257.996C826.473 256.589 829.287 253.936 829.642 250.541H822.853V249.166H831.446ZM832.048 259.801C832.048 262.594 835.099 264.678 838.472 265.279L837.763 266.633C834.948 266.085 832.359 264.613 831.231 262.379C830.061 264.624 827.439 266.117 824.593 266.676L823.905 265.344C827.278 264.764 830.372 262.615 830.394 259.801V258.92H832.048V259.801ZM856.347 247.641V266.783H854.649V247.641H856.347ZM846.185 249.123C849.021 249.145 851.062 251.723 851.062 255.783C851.062 259.844 849.021 262.422 846.185 262.422C843.327 262.422 841.308 259.844 841.308 255.783C841.308 251.723 843.327 249.145 846.185 249.123ZM846.185 250.627C844.272 250.648 842.94 252.668 842.94 255.783C842.94 258.898 844.272 260.918 846.185 260.918C848.097 260.918 849.429 258.898 849.429 255.783C849.429 252.668 848.097 250.648 846.185 250.627ZM874.651 253.334V255.59H882.601V256.986H865.112V255.59H872.997V253.334H874.651ZM880.989 248.242V249.574H874.952C875.092 251.529 878.293 252.958 881.612 253.227L881.054 254.494C877.874 254.193 874.877 252.958 873.856 250.949C872.814 252.958 869.817 254.193 866.616 254.494L866.058 253.227C869.355 252.958 872.557 251.529 872.739 249.574H866.724V248.242H880.989ZM880.946 259.521V260.854H866.767V259.521H872.997V257.717H874.673V259.521H880.946ZM873.835 261.799C877.509 261.799 879.614 262.658 879.614 264.312C879.614 265.988 877.509 266.848 873.835 266.848C870.118 266.848 868.077 265.988 868.077 264.312C868.077 262.658 870.118 261.799 873.835 261.799ZM873.835 262.98C871.257 263.002 869.774 263.432 869.774 264.312C869.774 265.193 871.257 265.688 873.835 265.666C876.435 265.688 877.874 265.193 877.896 264.312C877.874 263.432 876.435 263.002 873.835 262.98ZM892.849 247.984C897.103 247.984 899.595 249.145 899.595 251.271C899.595 253.441 897.103 254.602 892.849 254.623C888.595 254.602 886.081 253.441 886.081 251.271C886.081 249.145 888.595 247.984 892.849 247.984ZM892.849 249.252C889.669 249.252 887.821 250.025 887.843 251.271C887.821 252.604 889.669 253.334 892.849 253.334C896.007 253.334 897.876 252.604 897.876 251.271C897.876 250.025 896.007 249.252 892.849 249.252ZM901.55 255.912V257.287H884.147V255.912H901.55ZM899.315 258.941V263.217H887.972V265.193H899.896V266.525H886.296V261.971H897.661V260.23H886.253V258.941H899.315ZM924.517 247.662V260.596H922.819V254.451H918.63V253.033H922.819V247.662H924.517ZM918.544 249.166C918.522 254.064 915.257 257.588 909.757 259.35L909.005 257.996C913.57 256.589 916.385 253.936 916.739 250.541H909.95V249.166H918.544ZM919.146 259.801C919.146 262.594 922.196 264.678 925.569 265.279L924.86 266.633C922.046 266.085 919.457 264.613 918.329 262.379C917.158 264.624 914.537 266.117 911.69 266.676L911.003 265.344C914.376 264.764 917.47 262.615 917.491 259.801V258.92H919.146V259.801ZM948.149 247.641V252.109H951.028V253.506H948.149V257.867H946.474V247.641H948.149ZM943.015 248.994C942.993 253.764 939.62 256.943 933.991 258.232L933.282 256.857C938.148 255.794 940.866 253.377 941.146 250.369H934.099V248.994H943.015ZM948.235 258.727V260.016H937.751V261.906H948.021V263.195H937.751V265.172H948.687V266.482H936.054V258.727H948.235ZM957.345 249.123C960.159 249.145 962.157 251.723 962.179 255.783C962.157 259.844 960.159 262.422 957.345 262.422C954.509 262.422 952.532 259.844 952.532 255.783C952.532 251.723 954.509 249.145 957.345 249.123ZM957.345 250.627C955.454 250.648 954.122 252.668 954.122 255.783C954.122 258.898 955.454 260.918 957.345 260.918C959.257 260.918 960.546 258.898 960.546 255.783C960.546 252.668 959.257 250.648 957.345 250.627ZM967.013 247.641V255.268H970.214V256.729H967.013V266.74H965.337V247.641H967.013ZM988.733 262.873V264.291H971.245V262.873H975.585V257.717C973.952 256.868 972.964 255.493 972.964 253.764C972.964 250.799 975.864 248.865 979.946 248.844C984.028 248.865 986.929 250.799 986.929 253.764C986.929 255.461 985.973 256.825 984.394 257.674V262.873H988.733ZM979.946 250.24C976.81 250.219 974.597 251.637 974.597 253.764C974.597 255.891 976.81 257.33 979.946 257.33C983.062 257.33 985.296 255.891 985.296 253.764C985.296 251.637 983.062 250.219 979.946 250.24ZM977.239 262.873H982.696V258.318C981.869 258.544 980.945 258.662 979.946 258.662C978.969 258.662 978.056 258.555 977.239 258.34V262.873ZM993.353 249.445L993.202 260.617H991.397L991.247 249.445H993.353ZM992.3 265.129C991.548 265.129 990.903 264.506 990.925 263.732C990.903 262.98 991.548 262.357 992.3 262.357C993.052 262.357 993.675 262.98 993.675 263.732C993.675 264.506 993.052 265.129 992.3 265.129Z" fill="#222222"/>
<path d="M647.583 177.662V183.441H650.44V184.859H647.583V191.24H645.886V177.662H647.583ZM642.491 190.596C642.491 193.109 645.478 194.871 648.937 195.344L648.292 196.654C645.392 196.192 642.76 194.936 641.632 192.895C640.493 194.936 637.851 196.192 634.95 196.654L634.327 195.344C637.786 194.871 640.772 193.109 640.772 190.596V189.951H642.491V190.596ZM632.651 187.459C634.145 187.459 635.885 187.448 637.7 187.373V185.59C635.337 185.343 633.769 183.957 633.79 182.002C633.769 179.854 635.702 178.414 638.495 178.393C641.288 178.414 643.222 179.854 643.222 182.002C643.222 183.925 641.696 185.3 639.397 185.568V187.309C641.191 187.212 642.996 187.062 644.661 186.814L644.79 188.018C640.751 188.748 636.175 188.812 632.866 188.812L632.651 187.459ZM638.495 179.682C636.647 179.682 635.358 180.605 635.358 182.002C635.358 183.398 636.647 184.344 638.495 184.344C640.343 184.344 641.632 183.398 641.632 182.002C641.632 180.605 640.343 179.682 638.495 179.682ZM669.175 192.873V194.291H651.687V192.873H669.175ZM661.269 182.109C661.269 185.268 664.427 187.652 668.058 188.297L667.37 189.672C664.352 189.06 661.602 187.405 660.409 184.902C659.195 187.405 656.445 189.06 653.427 189.672L652.761 188.297C656.37 187.652 659.55 185.268 659.55 182.109H653.319V180.734H659.571V178.113H661.226V180.734H667.499V182.109H661.269ZM686.019 179.574V181.486C685.997 183.828 685.997 186.449 685.31 190.295L683.591 190.102C684.321 186.449 684.321 183.764 684.321 181.486V180.971H672.548V179.574H686.019ZM688.103 192.637V194.033H670.7V192.637H677.532V185.805H679.187V192.637H688.103ZM705.483 177.662V189.027H703.808V177.662H705.483ZM699.103 189.414C703.077 189.414 705.526 190.746 705.548 193.045C705.526 195.365 703.077 196.697 699.103 196.697C695.085 196.697 692.657 195.365 692.657 193.045C692.657 190.746 695.085 189.414 699.103 189.414ZM699.103 190.746C696.138 190.746 694.354 191.605 694.354 193.045C694.354 194.484 696.138 195.344 699.103 195.344C702.046 195.344 703.872 194.484 703.872 193.045C703.872 191.605 702.046 190.746 699.103 190.746ZM695.171 178.865C698.071 178.887 700.177 180.691 700.177 183.334C700.177 185.977 698.071 187.76 695.171 187.781C692.271 187.76 690.165 185.977 690.165 183.334C690.165 180.691 692.271 178.887 695.171 178.865ZM695.171 180.326C693.216 180.305 691.798 181.529 691.819 183.334C691.798 185.117 693.216 186.342 695.171 186.363C697.104 186.342 698.522 185.117 698.522 183.334C698.522 181.529 697.104 180.305 695.171 180.326ZM726.13 187.824V189.221H708.728V187.824H716.591V185.826C712.928 185.644 710.661 184.258 710.661 182.002C710.661 179.66 713.282 178.221 717.429 178.221C721.532 178.221 724.175 179.66 724.175 182.002C724.175 184.258 721.887 185.644 718.267 185.826V187.824H726.13ZM724.196 194.914V196.332H710.983V190.768H712.681V194.914H724.196ZM717.429 179.596C714.356 179.596 712.38 180.541 712.401 182.002C712.38 183.549 714.356 184.451 717.429 184.451C720.479 184.451 722.456 183.549 722.456 182.002C722.456 180.541 720.479 179.596 717.429 179.596ZM738.333 179.768V180.756C738.312 182.26 738.312 184.795 737.774 188.34L736.077 188.189C736.593 184.988 736.636 182.668 736.636 181.143H728.622V179.768H738.333ZM733.327 185.225V191.025C735.443 190.95 737.613 190.811 739.601 190.574L739.687 191.842C735.669 192.465 731.179 192.551 727.763 192.529L727.548 191.133C728.805 191.122 730.201 191.111 731.673 191.068V185.225H733.327ZM742.479 177.641V185.633H745.573V187.094H742.479V196.74H740.804V177.641H742.479ZM767.208 177.641V182.732H770.087V184.172H767.208V189.156H765.532V177.641H767.208ZM767.208 190.252V196.482H755.155V190.252H767.208ZM756.81 191.605V195.107H765.532V191.605H756.81ZM763.706 179.682V181.078H752.319V179.682H757.175V177.49H758.851V179.682H763.706ZM758.013 182.023C760.763 182.023 762.589 183.377 762.61 185.418C762.589 187.502 760.763 188.834 758.013 188.834C755.241 188.834 753.394 187.502 753.415 185.418C753.394 183.377 755.241 182.023 758.013 182.023ZM758.013 183.334C756.208 183.334 755.005 184.172 755.026 185.418C755.005 186.729 756.208 187.523 758.013 187.545C759.796 187.523 760.999 186.729 761.021 185.418C760.999 184.172 759.796 183.334 758.013 183.334ZM776.038 179.961C776.017 183.979 775.458 188.49 772.665 192.186L771.333 191.412C773.729 188.415 774.438 184.881 774.577 181.357H771.72V179.961H776.038ZM780.271 179.961C780.26 181.519 780.228 183.312 779.991 185.16H782.526V178.156H784.138V195.773H782.526V186.557H779.776C779.336 188.941 778.498 191.358 776.94 193.453L775.63 192.658C778.272 189.285 778.713 184.924 778.788 181.357H776.64V179.961H780.271ZM787.726 177.641V196.74H786.093V177.641H787.726ZM802.657 183.506C802.657 186.75 805.021 190.037 807.835 191.262L806.89 192.594C804.655 191.573 802.722 189.371 801.841 186.729C800.938 189.532 799.016 191.971 796.835 193.066L795.825 191.734C798.554 190.424 800.938 186.814 800.96 183.506V181.014H796.448V179.617H807.212V181.014H802.657V183.506ZM811.573 177.641V196.74H809.876V177.641H811.573ZM821.478 181.164C821.478 183.656 823.39 186.02 826.183 186.986L825.302 188.318C823.143 187.545 821.478 185.944 820.661 183.979C819.834 186.181 818.072 187.942 815.806 188.77L814.925 187.438C817.739 186.428 819.78 183.871 819.78 181.186V180.348H815.462V178.973H825.753V180.348H821.478V181.164ZM830.673 190.102V196.74H828.976V191.498H817.825V190.102H830.673ZM830.673 177.641V189.092H828.976V184.064H825.151V182.646H828.976V177.641H830.673ZM849.063 178.822V180.24H841.952V182.625H848.698V184.021H841.952V186.557C845.669 186.578 847.807 186.503 850.31 186.02L850.503 187.395C847.86 187.867 845.669 187.932 841.716 187.91H840.276V178.822H849.063ZM854.306 189.887V196.482H842.253V189.887H854.306ZM843.907 191.24V195.107H852.63V191.24H843.907ZM854.306 177.641V182.389H857.185V183.828H854.306V188.898H852.63V177.641H854.306ZM873.491 178.887V180.562C873.491 182.378 873.491 184.344 872.954 187.094H875.79V188.49H867.905V196.783H866.208V188.49H858.388V187.094H871.235C871.815 184.344 871.815 182.335 871.815 180.562V180.283H860.579V178.887H873.491ZM894.868 186.514V187.846H877.38V186.514H894.868ZM892.677 189.371V193.432H881.204V195.258H893.3V196.482H879.507V192.271H891.001V190.639H879.485V189.371H892.677ZM892.612 178.221V182.174H881.333V183.85H892.956V185.074H879.657V181.014H890.915V179.445H879.593V178.221H892.612ZM905.933 177.963V179.789H915.386V177.963H917.062V184.236H904.257V177.963H905.933ZM905.933 182.926H915.386V181.078H905.933V182.926ZM919.339 185.826V187.223H911.454V189.092H917.104V193.324H905.761V195.193H917.685V196.525H904.085V192.078H915.45V190.381H904.042V189.092H909.778V187.223H901.937V185.826H919.339ZM929.286 179.854V181.229H923.335V184.902H929.007V186.256H923.335V190.574C926.171 190.563 927.922 190.488 930.017 190.102L930.167 191.498C927.933 191.928 926.085 192.014 922.948 192.014H921.724V179.854H929.286ZM937.321 177.641V196.74H935.688V186.729H933.067V195.773H931.435V178.049H933.067V185.332H935.688V177.641H937.321ZM955.776 177.662V196.762H954.058V192.014H949.653V190.725H954.058V177.662H955.776ZM939.878 187.717C943.53 187.717 948.364 187.695 952.575 187.094L952.683 188.361C950.792 188.684 948.826 188.877 946.925 188.984V196.16H945.228V189.07C943.391 189.146 941.65 189.156 940.114 189.156L939.878 187.717ZM946.173 178.607C949.009 178.607 950.985 180.133 950.985 182.367C950.985 184.645 949.009 186.105 946.173 186.105C943.315 186.105 941.339 184.645 941.339 182.367C941.339 180.133 943.315 178.607 946.173 178.607ZM946.173 179.918C944.239 179.918 942.907 180.928 942.929 182.367C942.907 183.828 944.239 184.795 946.173 184.795C948.042 184.795 949.396 183.828 949.396 182.367C949.396 180.928 948.042 179.918 946.173 179.918ZM961.706 179.23V182.152H967.915V179.23H969.591V187.824H965.659V191.24C967.421 191.176 969.193 191.047 970.837 190.832L970.944 192.1C966.905 192.744 962.372 192.809 959.021 192.83L958.741 191.391C960.299 191.38 962.093 191.369 963.962 191.305V187.824H960.03V179.23H961.706ZM961.706 186.449H967.915V183.463H961.706V186.449ZM973.737 177.641V185.676H976.853V187.094H973.737V196.74H972.062V177.641H973.737ZM995.479 192.873V194.291H977.991V192.873H982.331V187.717C980.698 186.868 979.71 185.493 979.71 183.764C979.71 180.799 982.61 178.865 986.692 178.844C990.774 178.865 993.675 180.799 993.675 183.764C993.675 185.461 992.719 186.825 991.14 187.674V192.873H995.479ZM986.692 180.24C983.556 180.219 981.343 181.637 981.343 183.764C981.343 185.891 983.556 187.33 986.692 187.33C989.808 187.33 992.042 185.891 992.042 183.764C992.042 181.637 989.808 180.219 986.692 180.24ZM983.985 192.873H989.442V188.318C988.615 188.544 987.691 188.662 986.692 188.662C985.715 188.662 984.802 188.555 983.985 188.34V192.873ZM1000.1 179.445L999.948 190.617H998.144L997.993 179.445H1000.1ZM999.046 195.129C998.294 195.129 997.649 194.506 997.671 193.732C997.649 192.98 998.294 192.357 999.046 192.357C999.798 192.357 1000.42 192.98 1000.42 193.732C1000.42 194.506 999.798 195.129 999.046 195.129Z" fill="#222222"/>
<path d="M680.714 114.38L682.887 107.324H685.743L684.572 114.38H680.714ZM686.403 114.38L688.575 107.324H691.432L690.26 114.38H686.403ZM710.304 106.177V108.984H703.175V110.376H709.816V113.135H703.175V114.6C706.581 114.575 708.9 114.478 711.403 113.989L711.793 116.748C708.79 117.261 706.031 117.358 701.539 117.334H699.611V106.177H710.304ZM716.7 118.921V127.1H701.906V118.921H716.7ZM705.372 121.655V124.292H713.234V121.655H705.372ZM716.7 104.932V110.059H719.606V112.964H716.7V118.018H713.185V104.932H716.7ZM739.43 104.932V118.481H735.939V114.282H733.326V111.426H735.939V104.932H739.43ZM739.43 119.336V127.1H724.244V119.336H739.43ZM727.784 122.095V124.292H736.012V122.095H727.784ZM733.766 106.763V109.546H720.533V106.763H725.416V104.761H728.883V106.763H733.766ZM727.15 110.156C730.348 110.156 732.594 111.841 732.594 114.185C732.594 116.626 730.323 118.237 727.15 118.262C724 118.237 721.705 116.626 721.705 114.185C721.705 111.841 724 110.156 727.15 110.156ZM727.15 112.793C725.856 112.769 725.074 113.232 725.099 114.185C725.074 115.186 725.856 115.674 727.15 115.674C728.419 115.674 729.225 115.186 729.225 114.185C729.225 113.232 728.419 112.769 727.15 112.793ZM759.84 104.932V113.354H762.843V116.235H759.84V127.271H756.324V104.932H759.84ZM753.785 107.178C753.785 113.989 751.295 119.8 743.678 123.535L741.7 120.85C746.84 118.274 749.598 114.929 750.221 110.059H743.043V107.178H753.785ZM781.447 104.932V113.354H784.449V116.235H781.447V127.271H777.931V104.932H781.447ZM775.392 107.178C775.392 113.989 772.902 119.8 765.284 123.535L763.307 120.85C768.446 118.274 771.205 114.929 771.827 110.059H764.65V107.178H775.392ZM800.148 105.884V107.324C800.148 108.826 800.148 110.791 799.44 113.354H804.86C805.372 111.438 805.494 109.961 805.543 108.667H801.417V105.884H808.937V107.397C808.912 108.997 808.912 110.925 808.375 113.354H811.281V116.187H802.76V118.799H808.766V127.075H793.312V118.799H799.269V116.187H790.87V113.354H795.9C796.473 111.401 796.644 109.912 796.705 108.667H792.653V105.884H800.148ZM796.779 121.509V124.341H805.275V121.509H796.779ZM831.3 104.956V120.972H827.784V104.956H831.3ZM831.862 124.17V126.978H816.115V119.36H819.679V124.17H831.862ZM818.971 106.348C822.438 106.348 825.172 108.74 825.172 112.036C825.172 115.405 822.438 117.773 818.971 117.773C815.504 117.773 812.745 115.405 812.77 112.036C812.745 108.74 815.504 106.348 818.971 106.348ZM818.971 109.399C817.384 109.375 816.188 110.352 816.188 112.036C816.188 113.794 817.384 114.722 818.971 114.722C820.485 114.722 821.681 113.794 821.681 112.036C821.681 110.352 820.485 109.375 818.971 109.399ZM844.117 106.226V109.009H847.926V106.226H851.393V110.132H855.153V104.932H858.644V117.92H855.153V112.988H851.393V117.041H840.577V106.226H844.117ZM844.117 114.258H847.926V111.743H844.117V114.258ZM858.644 118.726V127.1H843.458V118.726H858.644ZM846.998 121.509V124.292H855.226V121.509H846.998ZM868.605 108.789C868.58 111.133 869.655 113.416 872.487 114.6V105.347H875.734V110.254H877.247V104.956H880.592V118.628H877.247V113.086H875.734V117.92H872.487V114.966L870.826 117.383C868.995 116.675 867.738 115.442 866.945 113.892C866.139 115.747 864.784 117.285 862.745 118.115L860.865 115.405C864.064 113.989 865.162 111.279 865.162 108.789V106.299H868.605V108.789ZM872.853 118.848C877.614 118.848 880.69 120.459 880.714 123.096C880.69 125.732 877.614 127.368 872.853 127.344C868.092 127.368 865.016 125.732 865.04 123.096C865.016 120.459 868.092 118.848 872.853 118.848ZM872.853 121.484C870.094 121.46 868.531 121.997 868.556 123.096C868.531 124.194 870.094 124.707 872.853 124.707C875.612 124.707 877.15 124.194 877.174 123.096C877.15 121.997 875.612 121.46 872.853 121.484ZM901.71 104.932V127.393H898.17V104.932H901.71ZM889.479 106.47C892.872 106.47 895.411 109.57 895.436 114.478C895.411 119.458 892.872 122.559 889.479 122.559C886.012 122.559 883.473 119.458 883.473 114.478C883.473 109.57 886.012 106.47 889.479 106.47ZM889.479 109.644C887.892 109.644 886.866 111.279 886.891 114.478C886.866 117.725 887.892 119.36 889.479 119.36C891.017 119.36 892.042 117.725 892.042 114.478C892.042 111.279 891.017 109.644 889.479 109.644ZM916.92 106.86V109.619H904.567V106.86H909.156V104.736H912.672V106.86H916.92ZM910.865 110.254C913.966 110.254 916.237 111.987 916.261 114.478C916.237 116.968 913.966 118.652 910.865 118.652C907.765 118.652 905.568 116.968 905.568 114.478C905.568 111.987 907.765 110.254 910.865 110.254ZM910.865 112.866C909.645 112.866 908.839 113.403 908.839 114.478C908.839 115.552 909.645 116.064 910.865 116.064C912.111 116.064 912.99 115.552 912.99 114.478C912.99 113.403 912.111 112.866 910.865 112.866ZM923.463 104.932V119.141H919.972V117.017H917.189V114.209H919.972V112.5H917.262V109.692H919.972V104.932H923.463ZM915.797 119.434C920.582 119.434 923.561 120.898 923.585 123.389C923.561 125.854 920.582 127.368 915.797 127.344C910.988 127.368 907.985 125.854 907.985 123.389C907.985 120.898 910.988 119.434 915.797 119.434ZM915.797 122.07C913.112 122.095 911.696 122.461 911.696 123.389C911.696 124.292 913.112 124.707 915.797 124.707C918.409 124.707 919.801 124.292 919.801 123.389C919.801 122.461 918.409 122.095 915.797 122.07ZM943.068 107.324L940.895 114.38H938.038L939.21 107.324H943.068ZM937.379 107.324L935.206 114.38H932.35L933.522 107.324H937.379Z" fill="black"/>
<rect x="583" y="346" width="137" height="52" rx="10" fill="#939393"/>
<path d="M624.805 368.93V370.734H610.25V363.023H612.5V368.93H624.805ZM627.008 373.57V375.375H622.227V382.992H619.977V375.375H614.891V382.992H612.664V375.375H607.859V373.57H627.008ZM639.266 364.969C639.266 368.391 642.922 371.625 646.953 372.352L645.922 374.203C642.57 373.477 639.477 371.273 638.117 368.32C636.734 371.25 633.652 373.453 630.289 374.203L629.305 372.352C633.289 371.602 636.922 368.391 636.922 364.969V363.375H639.266V364.969ZM647.82 378.375V380.227H628.602V378.375H647.82ZM662.609 365.836C662.609 368.672 664.508 371.438 667.672 372.539L666.453 374.273C664.156 373.395 662.445 371.66 661.555 369.469C660.641 371.906 658.848 373.828 656.375 374.766L655.18 373.008C658.438 371.836 660.383 368.93 660.406 365.766V363.281H662.609V365.836ZM672.711 362.016V377.672H670.484V368.625H666.055V366.797H670.484V362.016H672.711ZM673.18 380.742V382.547H659V375.914H661.25V380.742H673.18ZM694.133 364.945V366.75H676.859V364.945H684.406V362.297H686.609V364.945H694.133ZM695.164 378.82V380.625H675.945V378.82H684.406V376.031C680.727 375.809 678.5 374.355 678.5 372.023C678.5 369.492 681.172 368.016 685.508 368.016C689.797 368.016 692.492 369.492 692.492 372.023C692.492 374.355 690.254 375.809 686.609 376.031V378.82H695.164ZM685.508 369.773C682.508 369.773 680.75 370.57 680.773 372.023C680.75 373.477 682.508 374.273 685.508 374.297C688.461 374.273 690.219 373.477 690.219 372.023C690.219 370.57 688.461 369.773 685.508 369.773Z" fill="white"/>
<rect x="913" y="346" width="137" height="52" rx="10" fill="#504F4F"/>
<path d="M968.176 371.672V373.453H961.824V378.586H970.379V380.414H951.16V378.586H959.621V373.453H953.551V363.609H967.988V365.414H955.777V371.672H968.176ZM989.41 362.016V377.391H987.184V369.492H983.176V367.688H987.184V362.016H989.41ZM989.973 380.742V382.547H975.77V376.008H977.996V380.742H989.973ZM979.426 366.258C979.426 368.883 981.324 371.508 984.488 372.562L983.34 374.344C980.984 373.512 979.238 371.824 978.324 369.75C977.41 372.059 975.57 373.922 973.074 374.812L971.926 373.008C975.16 371.906 977.152 369.141 977.152 366.258V365.438H972.605V363.609H983.926V365.438H979.426V366.258ZM1004.48 364.195V365.977H992.668V364.195H997.59V361.805H999.793V364.195H1004.48ZM998.668 366.938C1001.5 366.938 1003.5 368.508 1003.52 370.852C1003.5 373.195 1001.5 374.742 998.668 374.742C995.809 374.742 993.84 373.195 993.84 370.852C993.84 368.508 995.809 366.938 998.668 366.938ZM998.668 368.625C997.004 368.625 995.926 369.492 995.926 370.852C995.926 372.211 997.004 373.055 998.668 373.055C1000.31 373.055 1001.43 372.211 1001.46 370.852C1001.43 369.492 1000.31 368.625 998.668 368.625ZM1010.15 361.992V375.516H1007.93V372.82H1004.53V371.016H1007.93V368.695H1004.55V366.891H1007.93V361.992H1010.15ZM1003.17 375.727C1007.57 375.727 1010.27 377.039 1010.27 379.336C1010.27 381.609 1007.57 382.969 1003.17 382.945C998.738 382.969 996.043 381.609 996.043 379.336C996.043 377.039 998.738 375.727 1003.17 375.727ZM1003.17 377.438C1000.14 377.438 998.363 378.094 998.363 379.336C998.363 380.555 1000.14 381.258 1003.17 381.234C1006.12 381.258 1007.9 380.555 1007.9 379.336C1007.9 378.094 1006.12 377.438 1003.17 377.438Z" fill="white"/>
<rect x="748" y="346" width="137" height="52" rx="10" fill="#717171"/>
<path d="M797.012 363.305C797.012 368.648 793.355 372.445 787.262 374.156L786.348 372.422C791.188 371.062 794.199 368.438 794.645 365.133H787.449V363.305H797.012ZM803.668 362.016V373.898H801.441V369.117H797.105V367.266H801.441V362.016H803.668ZM803.668 374.766V382.711H789.934V374.766H803.668ZM792.113 376.547V380.93H801.465V376.547H792.113ZM813.324 365.953C813.324 368.32 814.777 370.688 817.496 371.742L816.301 373.453C814.379 372.68 813.02 371.227 812.27 369.469C811.484 371.426 810.055 373.113 808.027 373.992L806.809 372.281C809.645 371.039 811.168 368.32 811.168 365.953V363.258H813.324V365.953ZM824.809 362.016V374.695H822.699V369.211H820.238V374.578H818.176V362.367H820.238V367.359H822.699V362.016H824.809ZM824.809 375.797V382.992H822.605V377.602H810.535V375.797H824.809ZM839.48 364.195V365.977H827.668V364.195H832.59V361.805H834.793V364.195H839.48ZM833.668 366.938C836.504 366.938 838.496 368.508 838.52 370.852C838.496 373.195 836.504 374.742 833.668 374.742C830.809 374.742 828.84 373.195 828.84 370.852C828.84 368.508 830.809 366.938 833.668 366.938ZM833.668 368.625C832.004 368.625 830.926 369.492 830.926 370.852C830.926 372.211 832.004 373.055 833.668 373.055C835.309 373.055 836.434 372.211 836.457 370.852C836.434 369.492 835.309 368.625 833.668 368.625ZM845.152 361.992V375.516H842.926V372.82H839.527V371.016H842.926V368.695H839.551V366.891H842.926V361.992H845.152ZM838.168 375.727C842.574 375.727 845.27 377.039 845.27 379.336C845.27 381.609 842.574 382.969 838.168 382.945C833.738 382.969 831.043 381.609 831.043 379.336C831.043 377.039 833.738 375.727 838.168 375.727ZM838.168 377.438C835.145 377.438 833.363 378.094 833.363 379.336C833.363 380.555 835.145 381.258 838.168 381.234C841.121 381.258 842.902 380.555 842.902 379.336C842.902 378.094 841.121 377.438 838.168 377.438Z" fill="white"/>
<defs>
<filter id="filter0_d_1091_2" x="431.338" y="1" width="708.553" height="479" filterUnits="userSpaceOnUse" color-interpolation-filters="sRGB">
<feFlood flood-opacity="0" result="BackgroundImageFix"/>
<feColorMatrix in="SourceAlpha" type="matrix" values="0 0 0 0 0 0 0 0 0 0 0 0 0 0 0 0 0 0 127 0" result="hardAlpha"/>
<feOffset dy="4"/>
<feGaussianBlur stdDeviation="2"/>
<feComposite in2="hardAlpha" operator="out"/>
<feColorMatrix type="matrix" values="0 0 0 0 0 0 0 0 0 0 0 0 0 0 0 0 0 0 0.25 0"/>
<feBlend mode="normal" in2="BackgroundImageFix" result="effect1_dropShadow_1091_2"/>
<feBlend mode="normal" in="SourceGraphic" in2="effect1_dropShadow_1091_2" result="shape"/>
</filter>
</defs>
</svg>
