<svg width="1167" height="510" viewBox="0 0 1167 510" fill="none" xmlns="http://www.w3.org/2000/svg">
<path d="M135.869 470.061V471.994C135.869 473.898 135.869 476.418 135.371 479.729H138.682V483.098H114.102V479.729H131.123C131.533 477.136 131.621 475.085 131.65 473.4H117.061V470.061H135.869ZM135.898 485.939V495.783H131.68V489.25H116.68V485.939H135.898ZM162.617 468.947V484.094H158.398V468.947H162.617ZM162.617 485.236V495.52H144.453V485.236H162.617ZM148.584 488.547V492.15H158.486V488.547H148.584ZM150.576 472.492C150.547 475.598 152.246 478.645 156.699 479.963L154.678 483.186C151.631 482.321 149.595 480.578 148.408 478.322C147.178 480.783 145.054 482.731 141.875 483.684L139.824 480.373C144.482 479.025 146.182 475.656 146.182 472.492V469.914H150.576V472.492ZM187.373 468.947V477.004H190.859V480.432H187.373V489.016H183.154V468.947H187.373ZM181.865 471.643V474.924H165.928V471.643H171.787V468.918H176.006V471.643H181.865ZM173.896 475.686C177.822 475.686 180.576 477.824 180.576 480.959C180.576 484.064 177.822 486.145 173.896 486.145C169.971 486.145 167.158 484.064 167.188 480.959C167.158 477.824 169.971 475.686 173.896 475.686ZM173.896 478.908C172.344 478.908 171.289 479.611 171.289 480.959C171.289 482.307 172.344 482.951 173.896 482.98C175.479 482.951 176.562 482.307 176.562 480.959C176.562 479.611 175.479 478.908 173.896 478.908ZM188.252 492.004V495.373H169.736V487.463H173.955V492.004H188.252ZM220.566 480.783V484.094H212.92V489.426H223.174V492.854H198.594V489.426H208.76V484.094H201.406V470.734H220.391V474.074H205.625V480.783H220.566ZM239.814 471.262V474.631H237.588V485.939C238.569 485.866 239.536 485.764 240.459 485.646L240.664 488.664C235.244 489.66 229.18 489.777 224.609 489.777L224.17 486.379L227.041 486.35V474.631H224.844V471.262H239.814ZM245.85 468.918V478.996H249.658V482.395H245.85V495.812H241.631V468.918H245.85ZM231.113 486.262L233.545 486.203V474.631H231.113V486.262ZM265.068 471.027V484.123H251.797V471.027H265.068ZM255.957 474.338V480.812H260.908V474.338H255.957ZM273.037 468.947V488.02H268.818V468.947H273.037ZM273.711 491.945V495.314H254.814V486.262H259.092V491.945H273.711ZM291.289 471.232V474.543H276.465V471.232H281.973V468.684H286.191V471.232H291.289ZM284.023 475.305C287.744 475.305 290.469 477.385 290.498 480.373C290.469 483.361 287.744 485.383 284.023 485.383C280.303 485.383 277.666 483.361 277.666 480.373C277.666 477.385 280.303 475.305 284.023 475.305ZM284.023 478.439C282.559 478.439 281.592 479.084 281.592 480.373C281.592 481.662 282.559 482.277 284.023 482.277C285.518 482.277 286.572 481.662 286.572 480.373C286.572 479.084 285.518 478.439 284.023 478.439ZM299.141 468.918V485.969H294.951V483.42H291.611V480.051H294.951V478H291.699V474.631H294.951V468.918H299.141ZM289.941 486.32C295.684 486.32 299.258 488.078 299.287 491.066C299.258 494.025 295.684 495.842 289.941 495.812C284.17 495.842 280.566 494.025 280.566 491.066C280.566 488.078 284.17 486.32 289.941 486.32ZM289.941 489.484C286.719 489.514 285.02 489.953 285.02 491.066C285.02 492.15 286.719 492.648 289.941 492.648C293.076 492.648 294.746 492.15 294.746 491.066C294.746 489.953 293.076 489.514 289.941 489.484Z" fill="#222222"/>
<g filter="url(#filter0_d_1091_7)">
<path fill-rule="evenodd" clip-rule="evenodd" d="M582.891 31C549.202 31 521.891 58.3106 521.891 92V233.9L463.154 262.423C459.399 264.246 459.399 269.595 463.154 271.418L521.891 299.941V441C521.891 474.689 549.202 502 582.891 502H1099.89C1133.58 502 1160.89 474.689 1160.89 441V92C1160.89 58.3106 1133.58 31 1099.89 31H582.891Z" fill="white"/>
</g>
<path d="M737.617 106.641V111.625H740.475V113.043H737.617V118.049H735.92V106.641H737.617ZM731.473 118.414C735.361 118.414 737.768 119.768 737.768 122.045C737.768 124.365 735.361 125.697 731.473 125.697C727.562 125.697 725.135 124.365 725.135 122.045C725.135 119.768 727.562 118.414 731.473 118.414ZM731.473 119.811C728.594 119.789 726.789 120.648 726.789 122.045C726.789 123.463 728.594 124.344 731.473 124.344C734.33 124.344 736.135 123.463 736.135 122.045C736.135 120.648 734.33 119.789 731.473 119.811ZM732.031 108.102V109.498H725.199V115.105C729.066 115.084 731.301 114.966 733.857 114.439L734.029 115.836C731.365 116.373 729.066 116.48 725.027 116.48H723.545V108.102H732.031ZM757.447 106.662V120.67H755.771V106.662H757.447ZM758.049 123.914V125.332H745.115V119.381H746.791V123.914H758.049ZM748.445 109.648C748.424 112.549 750.422 115.17 753.258 116.201L752.377 117.555C750.164 116.706 748.445 114.987 747.607 112.785C746.759 115.127 745.019 117.007 742.795 117.898L741.871 116.588C744.771 115.471 746.727 112.656 746.727 109.648V107.736H748.445V109.648ZM778.094 116.717V118.092H760.691V116.717H778.094ZM776.16 123.914V125.332H762.947V119.768H764.645V123.914H776.16ZM769.393 107.328C773.496 107.307 776.139 108.725 776.139 111.109C776.139 113.494 773.496 114.912 769.393 114.912C765.246 114.912 762.625 113.494 762.625 111.109C762.625 108.725 765.246 107.307 769.393 107.328ZM769.393 108.682C766.32 108.682 764.344 109.605 764.365 111.109C764.344 112.613 766.32 113.537 769.393 113.537C772.443 113.537 774.42 112.613 774.42 111.109C774.42 109.605 772.443 108.682 769.393 108.682ZM791.006 124.215C787.547 124.215 785.57 121.314 785.57 116.223C785.57 111.174 787.59 108.23 791.006 108.23C794.422 108.23 796.441 111.174 796.441 116.223C796.441 121.314 794.443 124.215 791.006 124.215ZM791.006 122.496C793.24 122.496 794.551 120.24 794.551 116.223C794.551 112.205 793.24 109.906 791.006 109.906C788.771 109.906 787.439 112.205 787.439 116.223C787.439 120.24 788.75 122.496 791.006 122.496ZM804.111 124.215C800.652 124.215 798.676 121.314 798.676 116.223C798.676 111.174 800.695 108.23 804.111 108.23C807.527 108.23 809.547 111.174 809.547 116.223C809.547 121.314 807.549 124.215 804.111 124.215ZM804.111 122.496C806.346 122.496 807.656 120.24 807.656 116.223C807.656 112.205 806.346 109.906 804.111 109.906C801.877 109.906 800.545 112.205 800.545 116.223C800.545 120.24 801.855 122.496 804.111 122.496ZM828.904 116.76V118.135H821.127V121.873H819.451V118.135H811.416V116.76H828.904ZM826.949 123.914V125.332H813.65V120.111H815.326V123.914H826.949ZM815.434 107.264V109.713H824.887V107.264H826.562V114.891H813.758V107.264H815.434ZM815.434 113.516H824.887V111.002H815.434V113.516ZM835.564 108.123C838.379 108.145 840.377 110.723 840.398 114.783C840.377 118.844 838.379 121.422 835.564 121.422C832.729 121.422 830.752 118.844 830.752 114.783C830.752 110.723 832.729 108.145 835.564 108.123ZM835.564 109.627C833.674 109.648 832.342 111.668 832.342 114.783C832.342 117.898 833.674 119.918 835.564 119.918C837.477 119.918 838.766 117.898 838.766 114.783C838.766 111.668 837.477 109.648 835.564 109.627ZM848.326 111.453V112.893H845.232V117.146H848.326V118.564H845.232V125.74H843.557V106.641H845.232V111.453H848.326ZM865.836 106.641V125.74H864.203V106.641H865.836ZM861.99 107.049V124.773H860.379V115.492H857.93C857.747 119.209 856.168 121.529 853.805 121.529C851.312 121.529 849.701 118.951 849.701 114.891C849.701 110.83 851.312 108.252 853.805 108.252C856.125 108.252 857.693 110.497 857.908 114.096H860.379V107.049H861.99ZM853.805 109.842C852.258 109.842 851.27 111.775 851.291 114.891C851.27 117.984 852.258 119.939 853.805 119.918C855.352 119.939 856.34 117.984 856.34 114.891C856.34 111.775 855.352 109.842 853.805 109.842ZM884.592 108.123V109.133C884.57 110.379 884.57 112.291 884.098 114.783L882.4 114.654C882.862 112.366 882.905 110.744 882.938 109.541H875.074V108.123H884.592ZM879.672 112.355V116.459C881.788 116.373 883.979 116.223 885.967 115.943L886.074 117.189C882.078 117.877 877.459 117.963 874.064 117.963L873.893 116.566C875.128 116.556 876.524 116.545 877.996 116.502V112.355H879.672ZM888.975 106.641V112.871H891.768V114.311H888.975V121.014H887.256V106.641H888.975ZM889.598 123.914V125.332H876.836V119.725H878.533V123.914H889.598ZM908.783 106.662V117.512H907.107V106.662H908.783ZM908.783 118.607V125.482H896.365V118.607H908.783ZM898.02 119.982V124.107H907.129V119.982H898.02ZM899.781 109.283C899.76 111.99 901.822 114.375 904.637 115.363L903.777 116.652C901.564 115.89 899.803 114.278 898.943 112.184C898.095 114.418 896.312 116.18 894.023 117.018L893.164 115.686C896.064 114.676 898.062 112.098 898.062 109.283V107.414H899.781V109.283ZM918.494 119.467C918.494 121.153 919.396 122.947 921.223 123.979C923.027 122.851 923.994 120.949 923.994 119.467V118.414H925.648V119.467C925.648 121.422 927.088 123.398 929.537 124.236L928.699 125.482C926.787 124.806 925.444 123.474 924.789 121.873C924.198 123.42 923.027 124.881 921.266 125.633C919.407 124.924 918.226 123.517 917.656 121.916C916.979 123.463 915.658 124.795 913.832 125.482L912.973 124.236C915.379 123.334 916.84 121.293 916.861 119.467V118.414H918.494V119.467ZM927.797 106.662V117.576H926.121V106.662H927.797ZM917.484 107.779C920.385 107.779 922.49 109.584 922.49 112.248C922.49 114.869 920.385 116.674 917.484 116.674C914.584 116.674 912.479 114.869 912.479 112.248C912.479 109.584 914.584 107.779 917.484 107.779ZM917.484 109.219C915.529 109.197 914.111 110.465 914.133 112.248C914.111 114.01 915.529 115.256 917.484 115.277C919.418 115.256 920.836 114.01 920.836 112.248C920.836 110.465 919.418 109.197 917.484 109.219ZM946.488 112.441V113.795H933.404V107.35H935.08V112.441H946.488ZM948.508 116.395V117.77H931.02V116.395H948.508ZM946.596 123.871V125.268H933.297V119.725H934.973V123.871H946.596ZM953.191 122.561L951.516 128.404H949.926L951.107 122.561H953.191Z" fill="#222222"/>
<path d="M770.605 255.455C770.605 258.721 774.344 261.643 777.674 262.266L776.9 263.684C774.021 263.018 770.981 260.966 769.746 258.141C768.511 260.955 765.481 263.007 762.592 263.684L761.818 262.266C765.127 261.621 768.844 258.742 768.844 255.455V253.994H770.605V255.455ZM778.576 267.744V269.141H761.088V267.744H778.576ZM795.334 254.596V256.959C795.334 259.773 795.334 262.373 794.539 266.24L792.842 266.09C793.261 264.253 793.476 262.663 793.594 261.17L781.928 261.814L781.691 260.418L793.658 259.924C793.69 258.914 793.69 257.937 793.701 256.959V256.014H782.207V254.596H795.334ZM797.504 267.637V269.055H780.102V267.637H797.504ZM815.336 252.662V263.232H813.725V258.57H811.039V263.039H809.471V253.006H811.039V257.217H813.725V252.662H815.336ZM804.422 264.113V266.305H813.682V264.113H815.336V271.482H802.746V264.113H804.422ZM804.422 270.107H813.682V267.68H804.422V270.107ZM807.193 253.801V258.699H801.629V261.234C804.143 261.202 806.065 261.105 808.332 260.633L808.525 262.029C806.055 262.502 804.014 262.609 801.242 262.609H799.996V257.41H805.582V255.176H799.953V253.801H807.193ZM830.117 256.186C830.117 258.721 831.986 261.041 834.822 262.029L833.963 263.34C831.782 262.566 830.117 260.998 829.301 259.021C828.484 261.191 826.733 262.878 824.488 263.705L823.586 262.395C826.443 261.385 828.441 258.914 828.463 256.186V255.369H824.102V253.994H834.414V255.369H830.117V256.186ZM838.582 252.641V257.689H841.461V259.129H838.582V264.156H836.906V252.641H838.582ZM838.582 265.166V271.74H836.906V266.541H826.078V265.166H838.582ZM849.238 255.648C849.217 258.377 851.15 260.783 853.965 261.729L853.02 263.039C850.914 262.244 849.26 260.697 848.443 258.678C847.616 260.966 845.865 262.749 843.566 263.619L842.643 262.244C845.586 261.213 847.541 258.678 847.562 255.713V253.736H849.238V255.648ZM858.498 252.641V263.963H856.801V258.141H852.547V256.744H856.801V252.641H858.498ZM852.16 264.521C856.135 264.521 858.562 265.832 858.562 268.131C858.562 270.408 856.135 271.697 852.16 271.697C848.186 271.697 845.758 270.408 845.758 268.131C845.758 265.832 848.186 264.521 852.16 264.521ZM852.16 265.854C849.238 265.854 847.412 266.713 847.434 268.131C847.412 269.506 849.238 270.344 852.16 270.344C855.082 270.344 856.887 269.506 856.887 268.131C856.887 266.713 855.082 265.854 852.16 265.854ZM872.27 254.768V255.756C872.248 257.26 872.248 259.795 871.711 263.34L870.014 263.189C870.529 259.988 870.572 257.668 870.572 256.143H862.559V254.768H872.27ZM867.264 260.225V266.025C869.38 265.95 871.55 265.811 873.537 265.574L873.623 266.842C869.605 267.465 865.115 267.551 861.699 267.529L861.484 266.133C862.741 266.122 864.138 266.111 865.609 266.068V260.225H867.264ZM876.416 252.641V260.633H879.51V262.094H876.416V271.74H874.74V252.641H876.416ZM901.145 252.641V257.732H904.023V259.172H901.145V264.156H899.469V252.641H901.145ZM901.145 265.252V271.482H889.092V265.252H901.145ZM890.746 266.605V270.107H899.469V266.605H890.746ZM897.643 254.682V256.078H886.256V254.682H891.111V252.49H892.787V254.682H897.643ZM891.949 257.023C894.699 257.023 896.525 258.377 896.547 260.418C896.525 262.502 894.699 263.834 891.949 263.834C889.178 263.834 887.33 262.502 887.352 260.418C887.33 258.377 889.178 257.023 891.949 257.023ZM891.949 258.334C890.145 258.334 888.941 259.172 888.963 260.418C888.941 261.729 890.145 262.523 891.949 262.545C893.732 262.523 894.936 261.729 894.957 260.418C894.936 259.172 893.732 258.334 891.949 258.334ZM909.975 254.961C909.953 258.979 909.395 263.49 906.602 267.186L905.27 266.412C907.665 263.415 908.374 259.881 908.514 256.357H905.656V254.961H909.975ZM914.207 254.961C914.196 256.519 914.164 258.312 913.928 260.16H916.463V253.156H918.074V270.773H916.463V261.557H913.713C913.272 263.941 912.435 266.358 910.877 268.453L909.566 267.658C912.209 264.285 912.649 259.924 912.725 256.357H910.576V254.961H914.207ZM921.662 252.641V271.74H920.029V252.641H921.662ZM746.221 279.467V280.885H739.152V290.617C742.59 290.617 744.867 290.499 747.51 289.994L747.725 291.391C744.91 291.928 742.59 292.057 738.916 292.057H737.455V279.467H746.221ZM752.344 277.641V296.783H750.646V285.998H745.082V284.602H750.646V277.641H752.344ZM775.955 277.641V281.959H778.834V283.377H775.955V287.438H774.279V277.641H775.955ZM770.67 278.908V286.686H761.84V278.908H770.67ZM763.494 280.283V285.332H769.037V280.283H763.494ZM764.697 289.156V294.828C765.804 294.796 767.275 294.635 768.629 294.184L768.887 295.537C767.018 296.16 765.213 296.225 763.967 296.225H763.064V289.156H764.697ZM777.867 289.35V290.639H768.221V289.35H772.238V287.652H773.893V289.35H777.867ZM773.033 291.326C775.117 291.348 776.6 292.357 776.621 294.012C776.6 295.666 775.117 296.697 773.033 296.697C770.928 296.697 769.467 295.666 769.488 294.012C769.467 292.357 770.928 291.348 773.033 291.326ZM773.033 292.529C771.852 292.529 770.992 293.109 770.992 294.012C770.992 294.914 771.852 295.516 773.033 295.494C774.236 295.516 775.074 294.914 775.074 294.012C775.074 293.109 774.236 292.529 773.033 292.529ZM797.439 287.717V289.092H780.037V287.717H797.439ZM795.506 294.914V296.332H782.293V290.768H783.99V294.914H795.506ZM788.738 278.328C792.842 278.307 795.484 279.725 795.484 282.109C795.484 284.494 792.842 285.912 788.738 285.912C784.592 285.912 781.971 284.494 781.971 282.109C781.971 279.725 784.592 278.307 788.738 278.328ZM788.738 279.682C785.666 279.682 783.689 280.605 783.711 282.109C783.689 283.613 785.666 284.537 788.738 284.537C791.789 284.537 793.766 283.613 793.766 282.109C793.766 280.605 791.789 279.682 788.738 279.682ZM813.273 290.832C817.463 290.832 819.826 291.842 819.848 293.775C819.826 295.709 817.463 296.719 813.273 296.74C809.041 296.719 806.678 295.709 806.678 293.775C806.678 291.842 809.041 290.832 813.273 290.832ZM813.273 292.078C810.158 292.078 808.396 292.701 808.396 293.775C808.396 294.871 810.158 295.451 813.273 295.451C816.367 295.451 818.129 294.871 818.129 293.775C818.129 292.701 816.367 292.078 813.273 292.078ZM820.965 279.295V280.605H805.475V279.295H812.436V277.361H814.111V279.295H820.965ZM813.273 281.4C817.227 281.4 819.461 282.367 819.461 284.172C819.461 285.977 817.227 286.922 813.273 286.922C809.32 286.922 807.064 285.977 807.064 284.172C807.064 282.367 809.32 281.4 813.273 281.4ZM813.273 282.582C810.459 282.582 808.848 283.162 808.869 284.172C808.848 285.16 810.459 285.719 813.273 285.719C816.066 285.719 817.678 285.16 817.678 284.172C817.678 283.162 816.066 282.582 813.273 282.582ZM821.975 288.189V289.521H804.572V288.189H821.975ZM833.533 279.531V291.949H824.703V279.531H833.533ZM826.357 280.885V290.574H831.879V280.885H826.357ZM839.334 277.641V296.783H837.637V277.641H839.334ZM860.066 286.514V287.846H842.578V286.514H860.066ZM857.875 289.371V293.432H846.402V295.258H858.498V296.482H844.705V292.271H856.199V290.639H844.684V289.371H857.875ZM857.811 278.221V282.174H846.531V283.85H858.154V285.074H844.855V281.014H856.113V279.445H844.791V278.221H857.811ZM882.604 282.582V283.936H876.674V286.363H884.537V287.76H867.135V286.363H874.998V283.936H869.52V278.07H871.195V282.582H882.604ZM882.625 289.672V291.025H879.66V295.107H882.775V296.482H868.918V295.107H872.033V291.025H869.09V289.672H882.625ZM873.709 295.107H878.006V291.025H873.709V295.107ZM891.283 279.123C893.034 279.134 894.452 280.154 895.279 281.916H900.307V277.641H901.982V296.783H900.307V289.371H895.408C894.603 291.305 893.131 292.422 891.283 292.422C888.469 292.422 886.492 289.844 886.492 285.783C886.492 281.723 888.469 279.145 891.283 279.123ZM891.283 280.627C889.393 280.648 888.104 282.668 888.104 285.783C888.104 288.898 889.393 290.918 891.283 290.918C893.152 290.918 894.463 288.898 894.463 285.783C894.463 282.668 893.152 280.648 891.283 280.627ZM895.773 283.334C895.945 284.075 896.053 284.892 896.053 285.783C896.053 286.567 895.967 287.309 895.838 287.975H900.307V283.334H895.773ZM907.891 279.23V282.152H914.1V279.23H915.775V287.824H911.844V291.24C913.605 291.176 915.378 291.047 917.021 290.832L917.129 292.1C913.09 292.744 908.557 292.809 905.205 292.83L904.926 291.391C906.483 291.38 908.277 291.369 910.146 291.305V287.824H906.215V279.23H907.891ZM907.891 286.449H914.1V283.463H907.891V286.449ZM919.922 277.641V285.676H923.037V287.094H919.922V296.74H918.246V277.641H919.922ZM941.664 292.873V294.291H924.176V292.873H928.516V287.717C926.883 286.868 925.895 285.493 925.895 283.764C925.895 280.799 928.795 278.865 932.877 278.844C936.959 278.865 939.859 280.799 939.859 283.764C939.859 285.461 938.903 286.825 937.324 287.674V292.873H941.664ZM932.877 280.24C929.74 280.219 927.527 281.637 927.527 283.764C927.527 285.891 929.74 287.33 932.877 287.33C935.992 287.33 938.227 285.891 938.227 283.764C938.227 281.637 935.992 280.219 932.877 280.24ZM930.17 292.873H935.627V288.318C934.8 288.544 933.876 288.662 932.877 288.662C931.899 288.662 930.986 288.555 930.17 288.34V292.873ZM946.283 279.445L946.133 290.617H944.328L944.178 279.445H946.283ZM945.23 295.129C944.479 295.129 943.834 294.506 943.855 293.732C943.834 292.98 944.479 292.357 945.23 292.357C945.982 292.357 946.605 292.98 946.605 293.732C946.605 294.506 945.982 295.129 945.23 295.129Z" fill="#222222"/>
<path d="M684.851 207.662V213.441H687.708V214.859H684.851V221.24H683.153V207.662H684.851ZM679.759 220.596C679.759 223.109 682.745 224.871 686.204 225.344L685.56 226.654C682.659 226.192 680.027 224.936 678.899 222.895C677.761 224.936 675.118 226.192 672.218 226.654L671.595 225.344C675.054 224.871 678.04 223.109 678.04 220.596V219.951H679.759V220.596ZM669.919 217.459C671.412 217.459 673.152 217.448 674.968 217.373V215.59C672.604 215.343 671.036 213.957 671.058 212.002C671.036 209.854 672.97 208.414 675.763 208.393C678.556 208.414 680.489 209.854 680.489 212.002C680.489 213.925 678.964 215.3 676.665 215.568V217.309C678.459 217.212 680.264 217.062 681.929 216.814L682.058 218.018C678.019 218.748 673.442 218.812 670.134 218.812L669.919 217.459ZM675.763 209.682C673.915 209.682 672.626 210.605 672.626 212.002C672.626 213.398 673.915 214.344 675.763 214.344C677.61 214.344 678.899 213.398 678.899 212.002C678.899 210.605 677.61 209.682 675.763 209.682ZM706.442 222.873V224.291H688.954V222.873H706.442ZM698.536 212.109C698.536 215.268 701.694 217.652 705.325 218.297L704.638 219.672C701.619 219.06 698.869 217.405 697.677 214.902C696.463 217.405 693.713 219.06 690.694 219.672L690.028 218.297C693.638 217.652 696.817 215.268 696.817 212.109H690.587V210.734H696.839V208.113H698.493V210.734H704.767V212.109H698.536ZM723.286 209.574V211.486C723.265 213.828 723.265 216.449 722.577 220.295L720.858 220.102C721.589 216.449 721.589 213.764 721.589 211.486V210.971H709.815V209.574H723.286ZM725.37 222.637V224.033H707.968V222.637H714.8V215.805H716.454V222.637H725.37ZM742.751 207.662V219.027H741.075V207.662H742.751ZM736.37 219.414C740.345 219.414 742.794 220.746 742.815 223.045C742.794 225.365 740.345 226.697 736.37 226.697C732.353 226.697 729.925 225.365 729.925 223.045C729.925 220.746 732.353 219.414 736.37 219.414ZM736.37 220.746C733.405 220.746 731.622 221.605 731.622 223.045C731.622 224.484 733.405 225.344 736.37 225.344C739.313 225.344 741.14 224.484 741.14 223.045C741.14 221.605 739.313 220.746 736.37 220.746ZM732.438 208.865C735.339 208.887 737.444 210.691 737.444 213.334C737.444 215.977 735.339 217.76 732.438 217.781C729.538 217.76 727.433 215.977 727.433 213.334C727.433 210.691 729.538 208.887 732.438 208.865ZM732.438 210.326C730.483 210.305 729.065 211.529 729.087 213.334C729.065 215.117 730.483 216.342 732.438 216.363C734.372 216.342 735.79 215.117 735.79 213.334C735.79 211.529 734.372 210.305 732.438 210.326ZM763.397 217.824V219.221H745.995V217.824H753.858V215.826C750.195 215.644 747.929 214.258 747.929 212.002C747.929 209.66 750.55 208.221 754.696 208.221C758.8 208.221 761.442 209.66 761.442 212.002C761.442 214.258 759.154 215.644 755.534 215.826V217.824H763.397ZM761.464 224.914V226.332H748.251V220.768H749.948V224.914H761.464ZM754.696 209.596C751.624 209.596 749.647 210.541 749.669 212.002C749.647 213.549 751.624 214.451 754.696 214.451C757.747 214.451 759.724 213.549 759.724 212.002C759.724 210.541 757.747 209.596 754.696 209.596ZM775.601 209.768V210.756C775.579 212.26 775.579 214.795 775.042 218.34L773.345 218.189C773.86 214.988 773.903 212.668 773.903 211.143H765.89V209.768H775.601ZM770.595 215.225V221.025C772.711 220.95 774.881 220.811 776.868 220.574L776.954 221.842C772.937 222.465 768.446 222.551 765.03 222.529L764.815 221.133C766.072 221.122 767.469 221.111 768.94 221.068V215.225H770.595ZM779.747 207.641V215.633H782.841V217.094H779.747V226.74H778.071V207.641H779.747ZM804.476 207.641V212.732H807.354V214.172H804.476V219.156H802.8V207.641H804.476ZM804.476 220.252V226.482H792.423V220.252H804.476ZM794.077 221.605V225.107H802.8V221.605H794.077ZM800.974 209.682V211.078H789.587V209.682H794.442V207.49H796.118V209.682H800.974ZM795.28 212.023C798.03 212.023 799.856 213.377 799.878 215.418C799.856 217.502 798.03 218.834 795.28 218.834C792.509 218.834 790.661 217.502 790.683 215.418C790.661 213.377 792.509 212.023 795.28 212.023ZM795.28 213.334C793.476 213.334 792.272 214.172 792.294 215.418C792.272 216.729 793.476 217.523 795.28 217.545C797.063 217.523 798.267 216.729 798.288 215.418C798.267 214.172 797.063 213.334 795.28 213.334ZM813.306 209.961C813.284 213.979 812.726 218.49 809.933 222.186L808.601 221.412C810.996 218.415 811.705 214.881 811.845 211.357H808.987V209.961H813.306ZM817.538 209.961C817.527 211.519 817.495 213.312 817.259 215.16H819.794V208.156H821.405V225.773H819.794V216.557H817.044C816.604 218.941 815.766 221.358 814.208 223.453L812.897 222.658C815.54 219.285 815.98 214.924 816.056 211.357H813.907V209.961H817.538ZM824.993 207.641V226.74H823.36V207.641H824.993ZM843.685 209.123V210.133C843.663 211.379 843.663 213.291 843.19 215.783L841.493 215.654C841.955 213.366 841.998 211.744 842.03 210.541H834.167V209.123H843.685ZM838.765 213.355V217.459C840.881 217.373 843.072 217.223 845.06 216.943L845.167 218.189C841.171 218.877 836.552 218.963 833.157 218.963L832.985 217.566C834.221 217.556 835.617 217.545 837.089 217.502V213.355H838.765ZM848.067 207.641V213.871H850.86V215.311H848.067V222.014H846.349V207.641H848.067ZM848.69 224.914V226.332H835.929V220.725H837.626V224.914H848.69ZM867.876 207.662V218.512H866.2V207.662H867.876ZM867.876 219.607V226.482H855.458V219.607H867.876ZM857.112 220.982V225.107H866.222V220.982H857.112ZM858.874 210.283C858.853 212.99 860.915 215.375 863.729 216.363L862.87 217.652C860.657 216.89 858.896 215.278 858.036 213.184C857.188 215.418 855.404 217.18 853.116 218.018L852.257 216.686C855.157 215.676 857.155 213.098 857.155 210.283V208.414H858.874V210.283ZM888.587 217.76V219.135H880.81V222.873H879.134V219.135H871.099V217.76H888.587ZM886.632 224.914V226.332H873.333V221.111H875.009V224.914H886.632ZM875.116 208.264V210.713H884.569V208.264H886.245V215.891H873.44V208.264H875.116ZM875.116 214.516H884.569V212.002H875.116V214.516ZM895.247 209.123C898.062 209.145 900.06 211.723 900.081 215.783C900.06 219.844 898.062 222.422 895.247 222.422C892.411 222.422 890.435 219.844 890.435 215.783C890.435 211.723 892.411 209.145 895.247 209.123ZM895.247 210.627C893.356 210.648 892.024 212.668 892.024 215.783C892.024 218.898 893.356 220.918 895.247 220.918C897.159 220.918 898.448 218.898 898.448 215.783C898.448 212.668 897.159 210.648 895.247 210.627ZM908.009 212.453V213.893H904.915V218.146H908.009V219.564H904.915V226.74H903.239V207.641H904.915V212.453H908.009ZM926.614 216.514V217.846H909.126V216.514H926.614ZM924.423 219.371V223.432H912.95V225.258H925.046V226.482H911.253V222.271H922.747V220.639H911.231V219.371H924.423ZM924.358 208.221V212.174H913.079V213.85H924.702V215.074H911.403V211.014H922.661V209.445H911.339V208.221H924.358ZM936.519 208.629V215.418C939.505 215.407 942.029 215.257 944.812 214.688L945.069 216.105C942.062 216.686 939.462 216.836 936.282 216.836H934.821V208.629H936.519ZM949.517 207.641V217.824H947.819V212.238H942.319V210.842H947.819V207.641H949.517ZM944.919 218.533V221.047H947.97V218.533H949.517V226.525H943.372V218.533H944.919ZM944.919 225.172H947.97V222.379H944.919V225.172ZM942.19 218.77V223.109H937.7V225.193C939.773 225.183 940.998 225.14 942.62 224.871L942.771 226.16C940.987 226.482 939.591 226.525 937.034 226.525H936.046V221.863H940.558V220.059H936.003V218.77H942.19ZM963.997 210.713V212.109H952.696V210.713H957.53V207.855H959.249V210.713H963.997ZM958.39 213.699C960.968 213.699 962.837 215.504 962.858 218.082C962.837 220.66 960.968 222.465 958.39 222.465C955.79 222.465 953.921 220.66 953.942 218.082C953.921 215.504 955.79 213.699 958.39 213.699ZM958.39 215.139C956.692 215.16 955.446 216.385 955.468 218.082C955.446 219.801 956.692 221.025 958.39 221.004C960.087 221.025 961.333 219.801 961.333 218.082C961.333 216.385 960.087 215.16 958.39 215.139ZM968.53 207.641V226.74H966.854V220.145H963.632V218.748H966.854V215.396H963.632V214H966.854V207.641H968.53ZM974.438 209.23V212.152H980.647V209.23H982.323V217.824H978.392V221.24C980.153 221.176 981.926 221.047 983.569 220.832L983.677 222.1C979.638 222.744 975.104 222.809 971.753 222.83L971.474 221.391C973.031 221.38 974.825 221.369 976.694 221.305V217.824H972.763V209.23H974.438ZM974.438 216.449H980.647V213.463H974.438V216.449ZM986.47 207.641V215.676H989.585V217.094H986.47V226.74H984.794V207.641H986.47ZM1008.21 222.873V224.291H990.724V222.873H995.063V217.717C993.431 216.868 992.442 215.493 992.442 213.764C992.442 210.799 995.343 208.865 999.425 208.844C1003.51 208.865 1006.41 210.799 1006.41 213.764C1006.41 215.461 1005.45 216.825 1003.87 217.674V222.873H1008.21ZM999.425 210.24C996.288 210.219 994.075 211.637 994.075 213.764C994.075 215.891 996.288 217.33 999.425 217.33C1002.54 217.33 1004.77 215.891 1004.77 213.764C1004.77 211.637 1002.54 210.219 999.425 210.24ZM996.718 222.873H1002.17V218.318C1001.35 218.544 1000.42 218.662 999.425 218.662C998.447 218.662 997.534 218.555 996.718 218.34V222.873ZM1012.83 209.445L1012.68 220.617H1010.88L1010.73 209.445H1012.83ZM1011.78 225.129C1011.03 225.129 1010.38 224.506 1010.4 223.732C1010.38 222.98 1011.03 222.357 1011.78 222.357C1012.53 222.357 1013.15 222.98 1013.15 223.732C1013.15 224.506 1012.53 225.129 1011.78 225.129Z" fill="#222222"/>
<path d="M740.919 144.38L743.092 137.324H745.948L744.776 144.38H740.919ZM746.607 144.38L748.78 137.324H751.637L750.465 144.38H746.607ZM777.198 135.884V137.495C777.198 139.082 777.198 141.182 776.783 143.94H779.542V146.748H759.059V143.94H773.243C773.585 141.78 773.658 140.071 773.683 138.667H761.524V135.884H777.198ZM777.223 149.116V157.319H773.707V151.875H761.207V149.116H777.223ZM799.488 134.956V147.578H795.973V134.956H799.488ZM799.488 148.53V157.1H784.352V148.53H799.488ZM787.794 151.289V154.292H796.046V151.289H787.794ZM789.454 137.91C789.43 140.498 790.846 143.037 794.557 144.136L792.872 146.821C790.333 146.101 788.636 144.648 787.647 142.769C786.622 144.819 784.852 146.443 782.203 147.236L780.494 144.478C784.376 143.354 785.792 140.547 785.792 137.91V135.762H789.454V137.91ZM820.118 134.956V141.67H823.023V144.526H820.118V151.68H816.603V134.956H820.118ZM815.528 137.202V139.937H802.247V137.202H807.13V134.932H810.646V137.202H815.528ZM808.888 140.571C812.159 140.571 814.454 142.354 814.454 144.966C814.454 147.554 812.159 149.287 808.888 149.287C805.616 149.287 803.272 147.554 803.297 144.966C803.272 142.354 805.616 140.571 808.888 140.571ZM808.888 143.257C807.594 143.257 806.715 143.843 806.715 144.966C806.715 146.089 807.594 146.626 808.888 146.65C810.206 146.626 811.109 146.089 811.109 144.966C811.109 143.843 810.206 143.257 808.888 143.257ZM820.851 154.17V156.978H805.421V150.386H808.937V154.17H820.851ZM847.779 144.819V147.578H841.407V152.021H849.952V154.878H829.469V152.021H837.94V147.578H831.812V136.445H847.633V139.229H835.328V144.819H847.779ZM863.819 136.885V139.692H861.964V149.116C862.782 149.055 863.587 148.97 864.356 148.872L864.527 151.387C860.011 152.217 854.957 152.314 851.148 152.314L850.782 149.482L853.175 149.458V139.692H851.344V136.885H863.819ZM868.849 134.932V143.33H872.022V146.162H868.849V157.344H865.333V134.932H868.849ZM856.568 149.385L858.595 149.336V139.692H856.568V149.385ZM884.864 136.689V147.603H873.805V136.689H884.864ZM877.271 139.448V144.844H881.397V139.448H877.271ZM891.505 134.956V150.85H887.989V134.956H891.505ZM892.066 154.121V156.929H876.319V149.385H879.884V154.121H892.066ZM906.715 136.86V139.619H894.361V136.86H898.951V134.736H902.467V136.86H906.715ZM900.66 140.254C903.761 140.254 906.031 141.987 906.056 144.478C906.031 146.968 903.761 148.652 900.66 148.652C897.56 148.652 895.362 146.968 895.362 144.478C895.362 141.987 897.56 140.254 900.66 140.254ZM900.66 142.866C899.439 142.866 898.634 143.403 898.634 144.478C898.634 145.552 899.439 146.064 900.66 146.064C901.905 146.064 902.784 145.552 902.784 144.478C902.784 143.403 901.905 142.866 900.66 142.866ZM913.258 134.932V149.141H909.767V147.017H906.983V144.209H909.767V142.5H907.057V139.692H909.767V134.932H913.258ZM905.592 149.434C910.377 149.434 913.355 150.898 913.38 153.389C913.355 155.854 910.377 157.368 905.592 157.344C900.782 157.368 897.779 155.854 897.779 153.389C897.779 150.898 900.782 149.434 905.592 149.434ZM905.592 152.07C902.906 152.095 901.49 152.461 901.49 153.389C901.49 154.292 902.906 154.707 905.592 154.707C908.204 154.707 909.596 154.292 909.596 153.389C909.596 152.461 908.204 152.095 905.592 152.07ZM921.461 144.38L923.634 137.324H926.49L925.318 144.38H921.461ZM927.149 144.38L929.322 137.324H932.179L931.007 144.38H927.149Z" fill="black"/>
<rect x="608" y="376" width="137" height="52" rx="10" fill="#C4C4C4"/>
<path d="M654.984 404.039V405.844H646.406V412.969H644.227V405.844H635.766V404.039H654.984ZM652.57 393.117V401.367H638.18V393.117H652.57ZM640.359 394.898V399.633H650.344V394.898H640.359ZM673.031 391.992V396.938H676.078V398.789H673.031V403.852H670.805V391.992H673.031ZM667.242 393.305C667.219 398.695 663.586 402.469 657.328 404.156L656.438 402.375C661.453 401.051 664.418 398.414 664.828 395.133H657.422V393.305H667.242ZM673.031 404.742V412.711H659.578V404.742H673.031ZM661.805 406.594V410.93H670.828V406.594H661.805ZM693.773 391.992V397.172H696.82V399.047H693.773V404.273H691.547V391.992H693.773ZM687.961 393.281C687.961 398.695 684.305 402.469 678.07 404.086L677.156 402.375C682.195 401.062 685.184 398.402 685.57 395.086H678.164V393.281H687.961ZM693.773 405.188V412.992H691.547V406.992H679.898V405.188H693.773ZM709.852 394.195V395.977H698.039V394.195H702.961V391.805H705.164V394.195H709.852ZM704.039 396.938C706.875 396.938 708.867 398.508 708.891 400.852C708.867 403.195 706.875 404.742 704.039 404.742C701.18 404.742 699.211 403.195 699.211 400.852C699.211 398.508 701.18 396.938 704.039 396.938ZM704.039 398.625C702.375 398.625 701.297 399.492 701.297 400.852C701.297 402.211 702.375 403.055 704.039 403.055C705.68 403.055 706.805 402.211 706.828 400.852C706.805 399.492 705.68 398.625 704.039 398.625ZM715.523 391.992V405.516H713.297V402.82H709.898V401.016H713.297V398.695H709.922V396.891H713.297V391.992H715.523ZM708.539 405.727C712.945 405.727 715.641 407.039 715.641 409.336C715.641 411.609 712.945 412.969 708.539 412.945C704.109 412.969 701.414 411.609 701.414 409.336C701.414 407.039 704.109 405.727 708.539 405.727ZM708.539 407.438C705.516 407.438 703.734 408.094 703.734 409.336C703.734 410.555 705.516 411.258 708.539 411.234C711.492 411.258 713.273 410.555 713.273 409.336C713.273 408.094 711.492 407.438 708.539 407.438Z" fill="white"/>
<rect x="938" y="376" width="137" height="52" rx="10" fill="#313131"/>
<path d="M982.805 401.672V403.453H976.453V408.586H985.008V410.414H965.789V408.586H974.25V403.453H968.18V393.609H982.617V395.414H970.406V401.672H982.805ZM998.555 394.148V395.977H996.398V405.75C997.441 405.691 998.461 405.586 999.445 405.469L999.562 407.086C995.156 407.812 990.211 407.883 986.531 407.906L986.273 406.055L988.945 406.031V395.977H986.789V394.148H998.555ZM1002.89 391.992V400.266H1006.27V402.094H1002.89V412.992H1000.66V391.992H1002.89ZM991.102 405.984C992.133 405.973 993.188 405.938 994.242 405.891V395.977H991.102V405.984ZM1018.36 393.773V403.641H1008.38V393.773H1018.36ZM1010.55 395.578V401.859H1016.16V395.578H1010.55ZM1024.69 392.016V407.062H1022.46V392.016H1024.69ZM1025.32 410.531V412.359H1010.95V405.609H1013.2V410.531H1025.32ZM1039.85 394.195V395.977H1028.04V394.195H1032.96V391.805H1035.16V394.195H1039.85ZM1034.04 396.938C1036.88 396.938 1038.87 398.508 1038.89 400.852C1038.87 403.195 1036.88 404.742 1034.04 404.742C1031.18 404.742 1029.21 403.195 1029.21 400.852C1029.21 398.508 1031.18 396.938 1034.04 396.938ZM1034.04 398.625C1032.38 398.625 1031.3 399.492 1031.3 400.852C1031.3 402.211 1032.38 403.055 1034.04 403.055C1035.68 403.055 1036.8 402.211 1036.83 400.852C1036.8 399.492 1035.68 398.625 1034.04 398.625ZM1045.52 391.992V405.516H1043.3V402.82H1039.9V401.016H1043.3V398.695H1039.92V396.891H1043.3V391.992H1045.52ZM1038.54 405.727C1042.95 405.727 1045.64 407.039 1045.64 409.336C1045.64 411.609 1042.95 412.969 1038.54 412.945C1034.11 412.969 1031.41 411.609 1031.41 409.336C1031.41 407.039 1034.11 405.727 1038.54 405.727ZM1038.54 407.438C1035.52 407.438 1033.73 408.094 1033.73 409.336C1033.73 410.555 1035.52 411.258 1038.54 411.234C1041.49 411.258 1043.27 410.555 1043.27 409.336C1043.27 408.094 1041.49 407.438 1038.54 407.438Z" fill="white"/>
<rect x="773" y="376" width="137" height="52" rx="10" fill="#B1B1B1"/>
<path d="M810.023 394.031V411H807.422V396.609H807.328L803.273 399.258V396.797L807.492 394.031H810.023ZM831.586 391.992V412.992H829.453V402.094H826.852V411.984H824.766V392.555H826.852V400.289H829.453V391.992H831.586ZM822.68 394.664C822.656 400.195 820.828 405.141 814.828 408.539L813.539 406.992C818.203 404.355 820.172 400.781 820.523 396.492H814.43V394.664H822.68ZM844.992 393.844V403.641H835.172V393.844H844.992ZM837.352 395.648V401.883H842.812V395.648H837.352ZM850.852 391.969V398.25H853.898V400.125H850.852V407.367H848.625V391.969H850.852ZM851.742 410.742V412.547H837.539V405.891H839.766V410.742H851.742ZM872.883 393.539V395.344H870.891V401.109C871.887 401.039 872.859 400.945 873.797 400.828L873.938 402.492C869.695 403.172 864.773 403.242 861.211 403.242L860.953 401.367H863.531V395.344H861.539V393.539H872.883ZM877.453 405.211V412.734H864.047V405.211H877.453ZM866.227 406.969V410.93H875.25V406.969H866.227ZM877.453 391.992V396.938H880.5V398.766H877.453V404.156H875.227V391.992H877.453ZM865.688 401.344C866.672 401.32 867.691 401.285 868.711 401.227V395.344H865.688V401.344Z" fill="white"/>
<path d="M81.3844 271.722L86.3574 153.624L149.944 92.1641L337.635 100.033L329.318 297.668C329.245 299.556 329.274 301.443 329.405 303.331C330.51 318.038 335.6 385.262 337.635 394.511C339.918 404.921 322.949 411.774 307.405 411.774C291.861 411.774 281.581 396.355 266.124 399.781C250.682 403.208 226.661 422.054 206.071 398.068C185.481 374.082 165.459 392.072 165.459 392.072C165.459 392.072 134.371 418.627 105.871 391.215C105.871 391.215 104.272 378.496 80.5265 383.142C56.7816 387.788 56.8834 375.796 58.5555 370.656C59.6606 367.229 69.0394 333.371 75.1901 311.142C78.738 298.278 80.8174 285.051 81.3844 271.722Z" fill="#D9D9D9" stroke="black" stroke-width="2" stroke-miterlimit="10"/>
<path d="M149.593 92.1641C149.593 92.1641 154.772 153.955 146.675 161.401C138.579 168.847 108.499 146.654 85.8008 153.606" fill="#F4F4F4"/>
<path d="M149.593 92.1641C149.593 92.1641 154.772 153.955 146.675 161.401C138.579 168.847 108.499 146.654 85.8008 153.606" stroke="black" stroke-width="2" stroke-miterlimit="10" stroke-linecap="round"/>
<path d="M82.5826 228.879C82.5826 228.879 67.0397 222.169 65.3858 215.344C63.732 208.518 57.0608 241.401 81.069 265.911" fill="#D9D9D9"/>
<path d="M82.5826 228.879C82.5826 228.879 67.0397 222.169 65.3858 215.344C63.732 208.518 57.0608 241.401 81.069 265.911" stroke="black" stroke-width="2" stroke-miterlimit="10" stroke-linecap="round"/>
<path d="M331.528 241.357C331.528 241.357 349.687 231.999 351.368 225.172C353.05 218.345 369.399 243.83 329.262 295.942" fill="#D9D9D9"/>
<path d="M331.528 241.357C331.528 241.357 349.687 231.999 351.368 225.172C353.05 218.345 369.399 243.83 329.262 295.942" stroke="black" stroke-width="2" stroke-miterlimit="10" stroke-linecap="round"/>
<path d="M288.506 406.411C288.506 406.411 272.218 363.287 272.42 316.32" stroke="black" stroke-width="2" stroke-miterlimit="10" stroke-linecap="round"/>
<path d="M96.5254 382.816C96.5254 382.816 123.338 350.387 123.338 313.103" stroke="black" stroke-width="2" stroke-miterlimit="10" stroke-linecap="round"/>
<path d="M198.415 390.324C198.415 390.324 186.266 356.677 192.988 324.09C199.711 291.504 181.124 337.099 176.965 386.341" fill="#B2B2B2"/>
<path d="M198.415 390.324C198.415 390.324 186.266 356.677 192.988 324.09C199.711 291.504 181.124 337.099 176.965 386.341" stroke="black" stroke-width="2" stroke-miterlimit="10" stroke-linecap="round"/>
<path d="M176.964 209.068C184.072 209.068 189.834 199.705 189.834 188.154C189.834 176.604 184.072 167.24 176.964 167.24C169.856 167.24 164.094 176.604 164.094 188.154C164.094 199.705 169.856 209.068 176.964 209.068Z" fill="black"/>
<path d="M85.8335 409.809C85.8335 409.809 59.8 400.142 51.1123 432.548C42.4246 464.954 -1.43452 438.531 4.49429 423.473C10.4231 408.416 27.227 418.307 24.1136 426.3C21.187 433.815 13.8341 428.449 13.8341 428.449" stroke="black" stroke-width="2" stroke-miterlimit="10" stroke-linecap="round"/>
<path d="M257.403 244.531C257.403 244.531 250.838 256.882 218.743 251.069C186.647 245.257 191.024 217.648 191.024 217.648C191.024 217.648 169.14 236.539 170.599 246.71C172.058 256.882 198.318 255.429 202.695 256.882C207.071 258.335 209.989 262.694 217.284 262.694C224.578 262.694 231.873 255.429 231.873 255.429" fill="#F4F4F4"/>
<path d="M257.403 244.531C257.403 244.531 250.838 256.882 218.743 251.069C186.647 245.257 191.024 217.648 191.024 217.648C191.024 217.648 169.14 236.539 170.599 246.71C172.058 256.882 198.318 255.429 202.695 256.882C207.071 258.335 209.989 262.694 217.284 262.694C224.578 262.694 231.873 255.429 231.873 255.429" stroke="black" stroke-width="2" stroke-miterlimit="10" stroke-linecap="round"/>
<path d="M183.401 204.778C183.401 204.778 175.557 219.816 157.66 212.353" stroke="black" stroke-width="2" stroke-miterlimit="10" stroke-linecap="round"/>
<path d="M298.174 197.521C300.52 186.392 296.782 176.183 289.827 174.717C282.871 173.251 275.332 181.084 272.987 192.213C270.641 203.342 274.379 213.551 281.334 215.017C288.29 216.483 295.829 208.65 298.174 197.521Z" fill="black"/>
<path d="M275.637 210.141C275.637 210.141 280.119 226.123 299.232 222.467" stroke="black" stroke-width="2" stroke-miterlimit="10" stroke-linecap="round"/>
<path d="M298.16 76.0762V108.252" stroke="black" stroke-width="2" stroke-miterlimit="10" stroke-linecap="round"/>
<path d="M306.74 65.3511V131.847" stroke="black" stroke-width="2" stroke-miterlimit="10" stroke-linecap="round"/>
<path d="M324.973 58.916V140.427" stroke="black" stroke-width="2" stroke-miterlimit="10" stroke-linecap="round"/>
<path d="M329.262 68.5684V122.194" stroke="black" stroke-width="2" stroke-miterlimit="10" stroke-linecap="round"/>
<path d="M316.393 40.6831V170.458" stroke="black" stroke-width="2" stroke-miterlimit="10" stroke-linecap="round"/>
<path d="M381.91 122.355C380.255 123.19 401.041 111.555 408.298 114.435C415.556 117.315 421.362 130.276 422.813 127.395C424.265 124.515 432.291 121.03 444.978 127.813C457.664 134.596 485.329 97.5281 469.073 75.6677C468.318 74.6596 467.316 73.8532 466.155 73.3636C465.168 72.9459 463.847 72.4419 462.396 72.0243C459.739 71.2466 457.765 69.0577 457.388 66.336C456.459 59.5676 452.627 48.1909 437.328 48.1909C417.37 48.1909 409.604 61.4973 409.575 74.818C409.575 77.1222 408.298 79.2391 406.353 80.5064C402.274 83.1561 395.743 87.9948 393.783 92.8335C391.562 98.349 400.518 112.995 381.91 122.355Z" fill="white" stroke="black" stroke-width="2" stroke-miterlimit="10" stroke-linecap="round"/>
<path d="M351.225 69.6411C351.225 69.6411 367.268 52.1574 374.56 53.6143C381.852 55.0713 408.103 56.5283 405.186 34.6737C405.186 34.6737 403.83 31.7743 402.269 28.8458C400.432 25.3927 400.811 20.7304 400.811 16.8257C400.811 12.4548 397.894 6.99114 386.227 2.62021C362.892 -6.12163 359.976 23.0179 359.976 30.3027C359.976 37.5876 348.308 40.5016 349.767 43.4155C351.225 46.3295 355.6 59.4422 351.225 69.6411Z" fill="#EDECEC" stroke="black" stroke-width="2" stroke-miterlimit="10" stroke-linecap="round"/>
<path d="M21.1901 124.554C21.1901 124.554 21.1901 138.956 31.2678 138.956C41.3454 138.956 42.7851 131.755 49.9834 133.195C57.1818 134.636 60.0611 144.717 60.0611 144.717C60.0611 144.717 55.7421 127.435 51.4231 123.114C47.1041 118.793 49.9834 102.331 40.6256 103.368C31.2678 104.405 31.2678 94.3091 24.0694 94.3091C16.8711 94.3091 -7.60327 111.592 21.1901 124.554Z" fill="#EDECEC" stroke="black" stroke-width="2" stroke-miterlimit="10" stroke-linecap="round"/>
<ellipse cx="183.401" cy="182.791" rx="2.14503" ry="3.75381" fill="white"/>
<ellipse cx="292.557" cy="188.606" rx="2.18144" ry="3.63573" transform="rotate(1.57894 292.557 188.606)" fill="white"/>
<path d="M175.893 386.569C180.54 385.854 192.409 385.712 198.415 390.86" stroke="black" stroke-width="2"/>
<path d="M85.8008 153.297L149.616 92.1641" stroke="black" stroke-width="2" stroke-linecap="round"/>
<path d="M331.943 242.853L330.334 241.244L326.58 298.087L330.334 292.725L331.943 242.853Z" fill="#D9D9D9"/>
<path d="M85.2638 231.055L82.0463 229.982L80.4375 263.23L83.655 266.984L85.2638 231.055Z" fill="#D9D9D9"/>
<defs>
<filter id="filter0_d_1091_7" x="456.338" y="31" width="708.553" height="479" filterUnits="userSpaceOnUse" color-interpolation-filters="sRGB">
<feFlood flood-opacity="0" result="BackgroundImageFix"/>
<feColorMatrix in="SourceAlpha" type="matrix" values="0 0 0 0 0 0 0 0 0 0 0 0 0 0 0 0 0 0 127 0" result="hardAlpha"/>
<feOffset dy="4"/>
<feGaussianBlur stdDeviation="2"/>
<feComposite in2="hardAlpha" operator="out"/>
<feColorMatrix type="matrix" values="0 0 0 0 0 0 0 0 0 0 0 0 0 0 0 0 0 0 0.25 0"/>
<feBlend mode="normal" in2="BackgroundImageFix" result="effect1_dropShadow_1091_7"/>
<feBlend mode="normal" in="SourceGraphic" in2="effect1_dropShadow_1091_7" result="shape"/>
</filter>
</defs>
</svg>
