<svg width="1142" height="560" viewBox="0 0 1142 560" fill="none" xmlns="http://www.w3.org/2000/svg">
<g filter="url(#filter0_d_444_5)">
<path fill-rule="evenodd" clip-rule="evenodd" d="M558 0C524.311 0 497 27.3106 497 61V237.794L436.636 272.147C433.267 274.065 433.267 278.921 436.636 280.838L497 315.192V491C497 524.689 524.311 552 558 552H1075C1108.69 552 1136 524.689 1136 491V61C1136 27.3106 1108.69 0 1075 0H558Z" fill="white"/>
</g>
<path d="M661.378 224.455C661.378 227.721 665.116 230.643 668.446 231.266L667.673 232.684C664.794 232.018 661.754 229.966 660.519 227.141C659.283 229.955 656.254 232.007 653.364 232.684L652.591 231.266C655.899 230.621 659.616 227.742 659.616 224.455V222.994H661.378V224.455ZM669.349 236.744V238.141H651.86V236.744H669.349ZM686.106 223.596V225.959C686.106 228.773 686.106 231.373 685.312 235.24L683.614 235.09C684.033 233.253 684.248 231.663 684.366 230.17L672.7 230.814L672.464 229.418L684.431 228.924C684.463 227.914 684.463 226.937 684.474 225.959V225.014H672.979V223.596H686.106ZM688.276 236.637V238.055H670.874V236.637H688.276ZM706.108 221.662V232.232H704.497V227.57H701.812V232.039H700.243V222.006H701.812V226.217H704.497V221.662H706.108ZM695.194 233.113V235.305H704.454V233.113H706.108V240.482H693.519V233.113H695.194ZM695.194 239.107H704.454V236.68H695.194V239.107ZM697.966 222.801V227.699H692.401V230.234C694.915 230.202 696.838 230.105 699.104 229.633L699.298 231.029C696.827 231.502 694.786 231.609 692.015 231.609H690.769V226.41H696.354V224.176H690.726V222.801H697.966ZM720.89 225.186C720.89 227.721 722.759 230.041 725.595 231.029L724.735 232.34C722.555 231.566 720.89 229.998 720.073 228.021C719.257 230.191 717.506 231.878 715.261 232.705L714.358 231.395C717.216 230.385 719.214 227.914 719.235 225.186V224.369H714.874V222.994H725.187V224.369H720.89V225.186ZM729.354 221.641V226.689H732.233V228.129H729.354V233.156H727.679V221.641H729.354ZM729.354 234.166V240.74H727.679V235.541H716.851V234.166H729.354ZM740.011 224.648C739.989 227.377 741.923 229.783 744.737 230.729L743.792 232.039C741.687 231.244 740.032 229.697 739.216 227.678C738.389 229.966 736.638 231.749 734.339 232.619L733.415 231.244C736.358 230.213 738.313 227.678 738.335 224.713V222.736H740.011V224.648ZM749.271 221.641V232.963H747.573V227.141H743.319V225.744H747.573V221.641H749.271ZM742.933 233.521C746.907 233.521 749.335 234.832 749.335 237.131C749.335 239.408 746.907 240.697 742.933 240.697C738.958 240.697 736.53 239.408 736.53 237.131C736.53 234.832 738.958 233.521 742.933 233.521ZM742.933 234.854C740.011 234.854 738.185 235.713 738.206 237.131C738.185 238.506 740.011 239.344 742.933 239.344C745.854 239.344 747.659 238.506 747.659 237.131C747.659 235.713 745.854 234.854 742.933 234.854ZM761.151 222.887C765.147 222.887 768.134 224.971 768.134 228.129C768.134 231.309 765.147 233.393 761.151 233.371C757.155 233.393 754.169 231.309 754.169 228.129C754.169 224.971 757.155 222.887 761.151 222.887ZM761.151 224.262C758.079 224.24 755.759 225.852 755.78 228.129C755.759 230.449 758.079 231.996 761.151 231.996C764.202 231.996 766.501 230.449 766.501 228.129C766.501 225.852 764.202 224.24 761.151 224.262ZM769.938 236.787V238.205H752.45V236.787H769.938ZM788.952 236.959V238.377H771.464V236.959H779.327V233.35H773.655V227.463H785.085V224.455H773.612V223.059H786.739V228.838H775.331V231.953H787.19V233.35H780.981V236.959H788.952ZM810.78 221.641V229.203H813.981V230.621H810.78V240.783H809.104V221.641H810.78ZM805.753 223.51V224.906H798.513V234.574C801.972 234.574 804.421 234.413 807.257 233.887L807.472 235.348C804.485 235.885 801.972 235.992 798.341 235.992H796.837V223.51H805.753ZM832.78 224.541V225.938H829.944V228.602H832.78V230.02H829.944V232.984H828.269V221.641H829.944V224.541H832.78ZM820.384 222.801C823.284 222.779 825.39 224.627 825.411 227.291C825.39 229.955 823.284 231.76 820.384 231.781C817.483 231.76 815.356 229.955 815.378 227.291C815.356 224.627 817.483 222.779 820.384 222.801ZM820.384 224.24C818.45 224.219 817.011 225.486 817.032 227.291C817.011 229.096 818.45 230.342 820.384 230.363C822.339 230.342 823.757 229.096 823.757 227.291C823.757 225.486 822.339 224.219 820.384 224.24ZM823.821 233.564C827.71 233.586 830.116 234.875 830.116 237.152C830.116 239.387 827.71 240.697 823.821 240.697C819.911 240.697 817.483 239.387 817.483 237.152C817.483 234.875 819.911 233.586 823.821 233.564ZM823.821 234.939C820.942 234.939 819.159 235.756 819.181 237.152C819.159 238.527 820.942 239.344 823.821 239.344C826.722 239.344 828.483 238.527 828.483 237.152C828.483 235.756 826.722 234.939 823.821 234.939ZM848.958 221.662V227.957H851.837V229.375H848.958V235.971H847.282V221.662H848.958ZM845.456 224.004V225.379H834.069V224.004H838.925V221.662H840.601V224.004H845.456ZM839.763 226.432C842.491 226.432 844.339 227.828 844.36 229.998C844.339 232.146 842.491 233.521 839.763 233.521C837.013 233.521 835.144 232.146 835.165 229.998C835.144 227.828 837.013 226.432 839.763 226.432ZM839.763 227.764C837.958 227.764 836.755 228.645 836.776 229.998C836.755 231.352 837.958 232.211 839.763 232.189C841.546 232.211 842.749 231.352 842.771 229.998C842.749 228.645 841.546 227.764 839.763 227.764ZM849.839 238.914V240.332H837.013V234.832H838.667V238.914H849.839ZM876.028 231.76V233.135H868.251V236.873H866.575V233.135H858.54V231.76H876.028ZM874.073 238.914V240.332H860.774V235.111H862.45V238.914H874.073ZM862.558 222.264V224.713H872.011V222.264H873.687V229.891H860.882V222.264H862.558ZM862.558 228.516H872.011V226.002H862.558V228.516ZM882.688 223.123C885.503 223.145 887.501 225.723 887.522 229.783C887.501 233.844 885.503 236.422 882.688 236.422C879.853 236.422 877.876 233.844 877.876 229.783C877.876 225.723 879.853 223.145 882.688 223.123ZM882.688 224.627C880.798 224.648 879.466 226.668 879.466 229.783C879.466 232.898 880.798 234.918 882.688 234.918C884.601 234.918 885.89 232.898 885.89 229.783C885.89 226.668 884.601 224.648 882.688 224.627ZM895.45 226.453V227.893H892.356V232.146H895.45V233.564H892.356V240.74H890.681V221.641H892.356V226.453H895.45ZM902.841 223.037C905.849 223.037 907.976 224.863 907.976 227.527C907.976 230.191 905.849 232.018 902.841 232.018C899.833 232.018 897.663 230.191 897.685 227.527C897.663 224.863 899.833 223.037 902.841 223.037ZM902.841 224.52C900.8 224.52 899.317 225.744 899.339 227.527C899.317 229.311 900.8 230.535 902.841 230.535C904.86 230.535 906.321 229.311 906.321 227.527C906.321 225.744 904.86 224.52 902.841 224.52ZM912.251 221.641V240.783H910.575V221.641H912.251ZM896.696 235.133C900.22 235.133 905.075 235.111 909.308 234.488L909.437 235.734C905.075 236.551 900.37 236.572 896.933 236.572L896.696 235.133ZM927.956 227.506C927.956 230.75 930.319 234.037 933.134 235.262L932.188 236.594C929.954 235.573 928.021 233.371 927.14 230.729C926.237 233.532 924.314 235.971 922.134 237.066L921.124 235.734C923.853 234.424 926.237 230.814 926.259 227.506V225.014H921.747V223.617H932.511V225.014H927.956V227.506ZM936.872 221.641V240.74H935.175V221.641H936.872ZM946.905 224.412C946.884 227.205 948.903 229.676 951.739 230.664L950.88 231.996C948.667 231.19 946.916 229.536 946.067 227.42C945.219 229.687 943.446 231.47 941.212 232.34L940.331 231.008C943.188 229.955 945.187 227.291 945.187 224.412V222.586H946.905V224.412ZM955.907 234.102V240.74H954.231V235.498H943.06V234.102H955.907ZM955.907 221.641V233.156H954.231V221.641H955.907ZM967.853 221.984C972.106 221.984 974.599 223.145 974.599 225.271C974.599 227.441 972.106 228.602 967.853 228.623C963.599 228.602 961.085 227.441 961.085 225.271C961.085 223.145 963.599 221.984 967.853 221.984ZM967.853 223.252C964.673 223.252 962.825 224.025 962.847 225.271C962.825 226.604 964.673 227.334 967.853 227.334C971.011 227.334 972.88 226.604 972.88 225.271C972.88 224.025 971.011 223.252 967.853 223.252ZM976.554 229.912V231.287H959.151V229.912H976.554ZM974.319 232.941V237.217H962.976V239.193H974.899V240.525H961.3V235.971H972.665V234.23H961.257V232.941H974.319ZM645.888 252.871C645.888 255.922 647.886 259.059 650.657 260.391L649.669 261.701C647.563 260.67 645.898 258.586 645.114 256.115C644.276 258.769 642.504 260.992 640.323 262.045L639.356 260.734C642.149 259.424 644.233 256.158 644.255 252.871V251.346H639.872V249.971H644.233V247.006H645.931V249.971H650.228V251.346H645.888V252.871ZM654.31 246.641V254.482H657.511V255.922H654.31V265.74H652.634V246.641H654.31ZM675.944 255.729V257.125H658.563V255.729H665.761V251.861H667.415V255.729H675.944ZM673.731 259.316V265.74H672.013V260.713H660.411V259.316H673.731ZM673.731 247.693V249.133C673.731 250.594 673.731 252.248 673.259 254.418L671.562 254.246C672.056 252.098 672.056 250.572 672.056 249.133V249.068H660.626V247.693H673.731ZM683.915 252.871C683.915 255.922 685.913 259.059 688.685 260.391L687.696 261.701C685.591 260.67 683.926 258.586 683.142 256.115C682.304 258.769 680.531 260.992 678.351 262.045L677.384 260.734C680.177 259.424 682.261 256.158 682.282 252.871V251.346H677.899V249.971H682.261V247.006H683.958V249.971H688.255V251.346H683.915V252.871ZM692.337 246.641V254.482H695.538V255.922H692.337V265.74H690.661V246.641H692.337ZM713.972 255.729V257.125H696.591V255.729H703.788V251.861H705.442V255.729H713.972ZM711.759 259.316V265.74H710.04V260.713H698.438V259.316H711.759ZM711.759 247.693V249.133C711.759 250.594 711.759 252.248 711.286 254.418L709.589 254.246C710.083 252.098 710.083 250.572 710.083 249.133V249.068H698.653V247.693H711.759ZM736.423 246.641V250.809H738.937V252.227H736.423V256.824H734.747V246.641H736.423ZM725.552 248.789C725.552 250.196 725.949 252.42 727.442 253.902C728.86 252.463 729.269 250.271 729.269 248.811V247.479H729.634V247.457H730.837V248.789C730.837 250.809 731.675 253.279 733.888 254.418L732.964 255.621C731.471 254.837 730.579 253.473 730.106 251.947C729.666 253.483 728.86 254.966 727.421 255.836C725.96 254.944 725.144 253.387 724.735 251.84C724.23 253.365 723.339 254.805 721.878 255.621L720.954 254.418C723.103 253.193 723.94 250.594 723.962 248.789V247.457H725.552V248.789ZM737.218 257.941V259.273H723.683V257.941H729.634V256.029H731.31V257.941H737.218ZM730.472 260.176C733.974 260.176 736.036 261.164 736.036 262.926C736.036 264.752 733.974 265.697 730.472 265.697C726.905 265.697 724.843 264.752 724.864 262.926C724.843 261.164 726.905 260.176 730.472 260.176ZM730.472 261.4C727.937 261.422 726.519 261.98 726.54 262.926C726.519 263.914 727.937 264.473 730.472 264.451C732.942 264.473 734.382 263.914 734.382 262.926C734.382 261.98 732.942 261.422 730.472 261.4ZM745.231 248.123C748.046 248.145 750.044 250.723 750.065 254.783C750.044 258.844 748.046 261.422 745.231 261.422C742.396 261.422 740.419 258.844 740.419 254.783C740.419 250.723 742.396 248.145 745.231 248.123ZM745.231 249.627C743.341 249.648 742.009 251.668 742.009 254.783C742.009 257.898 743.341 259.918 745.231 259.918C747.144 259.918 748.433 257.898 748.433 254.783C748.433 251.668 747.144 249.648 745.231 249.627ZM754.899 246.641V254.268H758.101V255.729H754.899V265.74H753.224V246.641H754.899ZM777.007 254.268V255.686H773.913V265.74H772.237V246.641H773.913V254.268H777.007ZM761.603 248.531V259.467C764.396 259.456 767.242 259.241 770.39 258.586L770.604 260.025C767.317 260.691 764.353 260.885 761.452 260.885H759.927V248.531H761.603ZM792.927 246.641V254.418H796.021V255.836H792.927V265.74H791.251V246.641H792.927ZM787.985 248.703C787.985 254.117 785.45 259.037 779.22 262.109L778.274 260.777C783.216 258.317 785.901 254.644 786.288 250.121H779.155V248.703H787.985ZM812.606 252.441V253.795H799.522V247.35H801.198V252.441H812.606ZM814.626 256.395V257.77H797.138V256.395H814.626ZM812.714 263.871V265.268H799.415V259.725H801.091V263.871H812.714ZM837.528 246.662V259.596H835.831V253.451H831.642V252.033H835.831V246.662H837.528ZM831.556 248.166C831.534 253.064 828.269 256.588 822.769 258.35L822.017 256.996C826.582 255.589 829.396 252.936 829.751 249.541H822.962V248.166H831.556ZM832.157 258.801C832.157 261.594 835.208 263.678 838.581 264.279L837.872 265.633C835.058 265.085 832.469 263.613 831.341 261.379C830.17 263.624 827.549 265.117 824.702 265.676L824.015 264.344C827.388 263.764 830.481 261.615 830.503 258.801V257.92H832.157V258.801ZM856.456 246.641V265.783H854.759V246.641H856.456ZM846.294 248.123C849.13 248.145 851.171 250.723 851.171 254.783C851.171 258.844 849.13 261.422 846.294 261.422C843.437 261.422 841.417 258.844 841.417 254.783C841.417 250.723 843.437 248.145 846.294 248.123ZM846.294 249.627C844.382 249.648 843.05 251.668 843.05 254.783C843.05 257.898 844.382 259.918 846.294 259.918C848.206 259.918 849.538 257.898 849.538 254.783C849.538 251.668 848.206 249.648 846.294 249.627ZM874.761 252.334V254.59H882.71V255.986H865.222V254.59H873.106V252.334H874.761ZM881.099 247.242V248.574H875.062C875.201 250.529 878.402 251.958 881.722 252.227L881.163 253.494C877.983 253.193 874.986 251.958 873.966 249.949C872.924 251.958 869.927 253.193 866.726 253.494L866.167 252.227C869.465 251.958 872.666 250.529 872.849 248.574H866.833V247.242H881.099ZM881.056 258.521V259.854H866.876V258.521H873.106V256.717H874.782V258.521H881.056ZM873.944 260.799C877.618 260.799 879.724 261.658 879.724 263.312C879.724 264.988 877.618 265.848 873.944 265.848C870.228 265.848 868.187 264.988 868.187 263.312C868.187 261.658 870.228 260.799 873.944 260.799ZM873.944 261.98C871.366 262.002 869.884 262.432 869.884 263.312C869.884 264.193 871.366 264.688 873.944 264.666C876.544 264.688 877.983 264.193 878.005 263.312C877.983 262.432 876.544 262.002 873.944 261.98ZM892.958 246.984C897.212 246.984 899.704 248.145 899.704 250.271C899.704 252.441 897.212 253.602 892.958 253.623C888.704 253.602 886.19 252.441 886.19 250.271C886.19 248.145 888.704 246.984 892.958 246.984ZM892.958 248.252C889.778 248.252 887.931 249.025 887.952 250.271C887.931 251.604 889.778 252.334 892.958 252.334C896.116 252.334 897.985 251.604 897.985 250.271C897.985 249.025 896.116 248.252 892.958 248.252ZM901.659 254.912V256.287H884.257V254.912H901.659ZM899.425 257.941V262.217H888.081V264.193H900.005V265.525H886.405V260.971H897.771V259.23H886.362V257.941H899.425ZM924.626 246.662V259.596H922.929V253.451H918.739V252.033H922.929V246.662H924.626ZM918.653 248.166C918.632 253.064 915.366 256.588 909.866 258.35L909.114 256.996C913.68 255.589 916.494 252.936 916.849 249.541H910.06V248.166H918.653ZM919.255 258.801C919.255 261.594 922.306 263.678 925.679 264.279L924.97 265.633C922.155 265.085 919.566 263.613 918.438 261.379C917.268 263.624 914.646 265.117 911.8 265.676L911.112 264.344C914.485 263.764 917.579 261.615 917.601 258.801V257.92H919.255V258.801ZM948.259 246.641V251.109H951.138V252.506H948.259V256.867H946.583V246.641H948.259ZM943.124 247.994C943.103 252.764 939.729 255.943 934.101 257.232L933.392 255.857C938.258 254.794 940.976 252.377 941.255 249.369H934.208V247.994H943.124ZM948.345 257.727V259.016H937.86V260.906H948.13V262.195H937.86V264.172H948.796V265.482H936.163V257.727H948.345ZM957.454 248.123C960.269 248.145 962.267 250.723 962.288 254.783C962.267 258.844 960.269 261.422 957.454 261.422C954.618 261.422 952.642 258.844 952.642 254.783C952.642 250.723 954.618 248.145 957.454 248.123ZM957.454 249.627C955.563 249.648 954.231 251.668 954.231 254.783C954.231 257.898 955.563 259.918 957.454 259.918C959.366 259.918 960.655 257.898 960.655 254.783C960.655 251.668 959.366 249.648 957.454 249.627ZM967.122 246.641V254.268H970.323V255.729H967.122V265.74H965.446V246.641H967.122ZM988.843 261.873V263.291H971.354V261.873H975.694V256.717C974.062 255.868 973.073 254.493 973.073 252.764C973.073 249.799 975.974 247.865 980.056 247.844C984.138 247.865 987.038 249.799 987.038 252.764C987.038 254.461 986.082 255.825 984.503 256.674V261.873H988.843ZM980.056 249.24C976.919 249.219 974.706 250.637 974.706 252.764C974.706 254.891 976.919 256.33 980.056 256.33C983.171 256.33 985.405 254.891 985.405 252.764C985.405 250.637 983.171 249.219 980.056 249.24ZM977.349 261.873H982.806V257.318C981.979 257.544 981.055 257.662 980.056 257.662C979.078 257.662 978.165 257.555 977.349 257.34V261.873ZM993.462 248.445L993.312 259.617H991.507L991.356 248.445H993.462ZM992.409 264.129C991.657 264.129 991.013 263.506 991.034 262.732C991.013 261.98 991.657 261.357 992.409 261.357C993.161 261.357 993.784 261.98 993.784 262.732C993.784 263.506 993.161 264.129 992.409 264.129Z" fill="#222222"/>
<path d="M647.692 176.662V182.441H650.55V183.859H647.692V190.24H645.995V176.662H647.692ZM642.601 189.596C642.601 192.109 645.587 193.871 649.046 194.344L648.401 195.654C645.501 195.192 642.869 193.936 641.741 191.895C640.603 193.936 637.96 195.192 635.06 195.654L634.437 194.344C637.896 193.871 640.882 192.109 640.882 189.596V188.951H642.601V189.596ZM632.761 186.459C634.254 186.459 635.994 186.448 637.81 186.373V184.59C635.446 184.343 633.878 182.957 633.899 181.002C633.878 178.854 635.812 177.414 638.604 177.393C641.397 177.414 643.331 178.854 643.331 181.002C643.331 182.925 641.806 184.3 639.507 184.568V186.309C641.301 186.212 643.105 186.062 644.771 185.814L644.899 187.018C640.86 187.748 636.284 187.812 632.976 187.812L632.761 186.459ZM638.604 178.682C636.757 178.682 635.468 179.605 635.468 181.002C635.468 182.398 636.757 183.344 638.604 183.344C640.452 183.344 641.741 182.398 641.741 181.002C641.741 179.605 640.452 178.682 638.604 178.682ZM669.284 191.873V193.291H651.796V191.873H669.284ZM661.378 181.109C661.378 184.268 664.536 186.652 668.167 187.297L667.479 188.672C664.461 188.06 661.711 186.405 660.519 183.902C659.305 186.405 656.555 188.06 653.536 188.672L652.87 187.297C656.479 186.652 659.659 184.268 659.659 181.109H653.429V179.734H659.681V177.113H661.335V179.734H667.608V181.109H661.378ZM686.128 178.574V180.486C686.106 182.828 686.106 185.449 685.419 189.295L683.7 189.102C684.431 185.449 684.431 182.764 684.431 180.486V179.971H672.657V178.574H686.128ZM688.212 191.637V193.033H670.81V191.637H677.642V184.805H679.296V191.637H688.212ZM705.593 176.662V188.027H703.917V176.662H705.593ZM699.212 188.414C703.187 188.414 705.636 189.746 705.657 192.045C705.636 194.365 703.187 195.697 699.212 195.697C695.194 195.697 692.767 194.365 692.767 192.045C692.767 189.746 695.194 188.414 699.212 188.414ZM699.212 189.746C696.247 189.746 694.464 190.605 694.464 192.045C694.464 193.484 696.247 194.344 699.212 194.344C702.155 194.344 703.981 193.484 703.981 192.045C703.981 190.605 702.155 189.746 699.212 189.746ZM695.28 177.865C698.181 177.887 700.286 179.691 700.286 182.334C700.286 184.977 698.181 186.76 695.28 186.781C692.38 186.76 690.274 184.977 690.274 182.334C690.274 179.691 692.38 177.887 695.28 177.865ZM695.28 179.326C693.325 179.305 691.907 180.529 691.929 182.334C691.907 184.117 693.325 185.342 695.28 185.363C697.214 185.342 698.632 184.117 698.632 182.334C698.632 180.529 697.214 179.305 695.28 179.326ZM726.239 186.824V188.221H708.837V186.824H716.7V184.826C713.037 184.644 710.771 183.258 710.771 181.002C710.771 178.66 713.392 177.221 717.538 177.221C721.642 177.221 724.284 178.66 724.284 181.002C724.284 183.258 721.996 184.644 718.376 184.826V186.824H726.239ZM724.306 193.914V195.332H711.093V189.768H712.79V193.914H724.306ZM717.538 178.596C714.466 178.596 712.489 179.541 712.511 181.002C712.489 182.549 714.466 183.451 717.538 183.451C720.589 183.451 722.565 182.549 722.565 181.002C722.565 179.541 720.589 178.596 717.538 178.596ZM738.442 178.768V179.756C738.421 181.26 738.421 183.795 737.884 187.34L736.187 187.189C736.702 183.988 736.745 181.668 736.745 180.143H728.731V178.768H738.442ZM733.437 184.225V190.025C735.553 189.95 737.723 189.811 739.71 189.574L739.796 190.842C735.778 191.465 731.288 191.551 727.872 191.529L727.657 190.133C728.914 190.122 730.311 190.111 731.782 190.068V184.225H733.437ZM742.589 176.641V184.633H745.683V186.094H742.589V195.74H740.913V176.641H742.589ZM767.317 176.641V181.732H770.196V183.172H767.317V188.156H765.642V176.641H767.317ZM767.317 189.252V195.482H755.265V189.252H767.317ZM756.919 190.605V194.107H765.642V190.605H756.919ZM763.815 178.682V180.078H752.429V178.682H757.284V176.49H758.96V178.682H763.815ZM758.122 181.023C760.872 181.023 762.698 182.377 762.72 184.418C762.698 186.502 760.872 187.834 758.122 187.834C755.351 187.834 753.503 186.502 753.524 184.418C753.503 182.377 755.351 181.023 758.122 181.023ZM758.122 182.334C756.317 182.334 755.114 183.172 755.136 184.418C755.114 185.729 756.317 186.523 758.122 186.545C759.905 186.523 761.108 185.729 761.13 184.418C761.108 183.172 759.905 182.334 758.122 182.334ZM776.147 178.961C776.126 182.979 775.567 187.49 772.774 191.186L771.442 190.412C773.838 187.415 774.547 183.881 774.687 180.357H771.829V178.961H776.147ZM780.38 178.961C780.369 180.519 780.337 182.312 780.101 184.16H782.636V177.156H784.247V194.773H782.636V185.557H779.886C779.445 187.941 778.607 190.358 777.05 192.453L775.739 191.658C778.382 188.285 778.822 183.924 778.897 180.357H776.749V178.961H780.38ZM787.835 176.641V195.74H786.202V176.641H787.835ZM802.767 182.506C802.767 185.75 805.13 189.037 807.944 190.262L806.999 191.594C804.765 190.573 802.831 188.371 801.95 185.729C801.048 188.532 799.125 190.971 796.944 192.066L795.935 190.734C798.663 189.424 801.048 185.814 801.069 182.506V180.014H796.558V178.617H807.321V180.014H802.767V182.506ZM811.683 176.641V195.74H809.985V176.641H811.683ZM821.587 180.164C821.587 182.656 823.499 185.02 826.292 185.986L825.411 187.318C823.252 186.545 821.587 184.944 820.771 182.979C819.943 185.181 818.182 186.942 815.915 187.77L815.034 186.438C817.849 185.428 819.89 182.871 819.89 180.186V179.348H815.571V177.973H825.862V179.348H821.587V180.164ZM830.782 189.102V195.74H829.085V190.498H817.935V189.102H830.782ZM830.782 176.641V188.092H829.085V183.064H825.261V181.646H829.085V176.641H830.782ZM849.173 177.822V179.24H842.062V181.625H848.808V183.021H842.062V185.557C845.778 185.578 847.916 185.503 850.419 185.02L850.612 186.395C847.97 186.867 845.778 186.932 841.825 186.91H840.386V177.822H849.173ZM854.415 188.887V195.482H842.362V188.887H854.415ZM844.017 190.24V194.107H852.739V190.24H844.017ZM854.415 176.641V181.389H857.294V182.828H854.415V187.898H852.739V176.641H854.415ZM873.601 177.887V179.562C873.601 181.378 873.601 183.344 873.063 186.094H875.899V187.49H868.015V195.783H866.317V187.49H858.497V186.094H871.345C871.925 183.344 871.925 181.335 871.925 179.562V179.283H860.688V177.887H873.601ZM894.978 185.514V186.846H877.489V185.514H894.978ZM892.786 188.371V192.432H881.313V194.258H893.409V195.482H879.616V191.271H891.11V189.639H879.595V188.371H892.786ZM892.722 177.221V181.174H881.442V182.85H893.065V184.074H879.767V180.014H891.024V178.445H879.702V177.221H892.722ZM906.042 176.963V178.789H915.495V176.963H917.171V183.236H904.366V176.963H906.042ZM906.042 181.926H915.495V180.078H906.042V181.926ZM919.448 184.826V186.223H911.563V188.092H917.214V192.324H905.87V194.193H917.794V195.525H904.194V191.078H915.56V189.381H904.151V188.092H909.888V186.223H902.046V184.826H919.448ZM929.396 178.854V180.229H923.444V183.902H929.116V185.256H923.444V189.574C926.28 189.563 928.031 189.488 930.126 189.102L930.276 190.498C928.042 190.928 926.194 191.014 923.058 191.014H921.833V178.854H929.396ZM937.431 176.641V195.74H935.798V185.729H933.177V194.773H931.544V177.049H933.177V184.332H935.798V176.641H937.431ZM955.886 176.662V195.762H954.167V191.014H949.763V189.725H954.167V176.662H955.886ZM939.987 186.717C943.64 186.717 948.474 186.695 952.685 186.094L952.792 187.361C950.901 187.684 948.936 187.877 947.034 187.984V195.16H945.337V188.07C943.5 188.146 941.76 188.156 940.224 188.156L939.987 186.717ZM946.282 177.607C949.118 177.607 951.095 179.133 951.095 181.367C951.095 183.645 949.118 185.105 946.282 185.105C943.425 185.105 941.448 183.645 941.448 181.367C941.448 179.133 943.425 177.607 946.282 177.607ZM946.282 178.918C944.349 178.918 943.017 179.928 943.038 181.367C943.017 182.828 944.349 183.795 946.282 183.795C948.151 183.795 949.505 182.828 949.505 181.367C949.505 179.928 948.151 178.918 946.282 178.918ZM961.815 178.23V181.152H968.024V178.23H969.7V186.824H965.769V190.24C967.53 190.176 969.303 190.047 970.946 189.832L971.054 191.1C967.015 191.744 962.481 191.809 959.13 191.83L958.851 190.391C960.408 190.38 962.202 190.369 964.071 190.305V186.824H960.14V178.23H961.815ZM961.815 185.449H968.024V182.463H961.815V185.449ZM973.847 176.641V184.676H976.962V186.094H973.847V195.74H972.171V176.641H973.847ZM995.589 191.873V193.291H978.101V191.873H982.44V186.717C980.808 185.868 979.819 184.493 979.819 182.764C979.819 179.799 982.72 177.865 986.802 177.844C990.884 177.865 993.784 179.799 993.784 182.764C993.784 184.461 992.828 185.825 991.249 186.674V191.873H995.589ZM986.802 179.24C983.665 179.219 981.452 180.637 981.452 182.764C981.452 184.891 983.665 186.33 986.802 186.33C989.917 186.33 992.151 184.891 992.151 182.764C992.151 180.637 989.917 179.219 986.802 179.24ZM984.095 191.873H989.552V187.318C988.725 187.544 987.801 187.662 986.802 187.662C985.824 187.662 984.911 187.555 984.095 187.34V191.873ZM1000.21 178.445L1000.06 189.617H998.253L998.103 178.445H1000.21ZM999.155 194.129C998.403 194.129 997.759 193.506 997.78 192.732C997.759 191.98 998.403 191.357 999.155 191.357C999.907 191.357 1000.53 191.98 1000.53 192.732C1000.53 193.506 999.907 194.129 999.155 194.129Z" fill="#222222"/>
<path d="M60.5957 458.412V461.781H52.041V463.451H60.0098V466.762H52.041V468.52C56.1279 468.49 58.9111 468.373 61.9141 467.787L62.3828 471.098C58.7793 471.713 55.4688 471.83 50.0781 471.801H47.7637V458.412H60.5957ZM68.2715 473.705V483.52H50.5176V473.705H68.2715ZM54.6777 476.986V480.15H64.1113V476.986H54.6777ZM68.2715 456.918V463.07H71.7578V466.557H68.2715V472.621H64.0527V456.918H68.2715ZM95.5469 456.918V473.178H91.3574V468.139H88.2227V464.711H91.3574V456.918H95.5469ZM95.5469 474.203V483.52H77.3242V474.203H95.5469ZM81.5723 477.514V480.15H91.4453V477.514H81.5723ZM88.75 459.115V462.455H72.8711V459.115H78.7305V456.713H82.8906V459.115H88.75ZM80.8105 463.188C84.6484 463.188 87.3438 465.209 87.3438 468.021C87.3438 470.951 84.6191 472.885 80.8105 472.914C77.0312 472.885 74.2773 470.951 74.2773 468.021C74.2773 465.209 77.0312 463.188 80.8105 463.188ZM80.8105 466.352C79.2578 466.322 78.3203 466.879 78.3496 468.021C78.3203 469.223 79.2578 469.809 80.8105 469.809C82.334 469.809 83.3008 469.223 83.3008 468.021C83.3008 466.879 82.334 466.322 80.8105 466.352ZM120.039 456.918V467.025H123.643V470.482H120.039V483.725H115.82V456.918H120.039ZM112.773 459.613C112.773 467.787 109.785 474.76 100.645 479.242L98.2715 476.02C104.438 472.929 107.749 468.915 108.496 463.07H99.8828V459.613H112.773ZM145.967 456.918V467.025H149.57V470.482H145.967V483.725H141.748V456.918H145.967ZM138.701 459.613C138.701 467.787 135.713 474.76 126.572 479.242L124.199 476.02C130.366 472.929 133.677 468.915 134.424 463.07H125.811V459.613H138.701ZM168.408 458.061V459.789C168.408 461.591 168.408 463.949 167.559 467.025H174.062C174.678 464.726 174.824 462.953 174.883 461.4H169.932V458.061H178.955V459.877C178.926 461.796 178.926 464.11 178.281 467.025H181.768V470.424H171.543V473.559H178.75V483.49H160.205V473.559H167.354V470.424H157.275V467.025H163.311C163.999 464.682 164.204 462.895 164.277 461.4H159.414V458.061H168.408ZM164.365 476.811V480.209H174.561V476.811H164.365ZM205.791 456.947V476.166H201.572V456.947H205.791ZM206.465 480.004V483.373H187.568V474.232H191.846V480.004H206.465ZM190.996 458.617C195.156 458.617 198.438 461.488 198.438 465.443C198.438 469.486 195.156 472.328 190.996 472.328C186.836 472.328 183.525 469.486 183.555 465.443C183.525 461.488 186.836 458.617 190.996 458.617ZM190.996 462.279C189.092 462.25 187.656 463.422 187.656 465.443C187.656 467.553 189.092 468.666 190.996 468.666C192.812 468.666 194.248 467.553 194.248 465.443C194.248 463.422 192.812 462.25 190.996 462.279ZM221.172 458.471V461.811H225.742V458.471H229.902V463.158H234.414V456.918H238.604V472.504H234.414V466.586H229.902V471.449H216.924V458.471H221.172ZM221.172 468.109H225.742V465.092H221.172V468.109ZM238.604 473.471V483.52H220.381V473.471H238.604ZM224.629 476.811V480.15H234.502V476.811H224.629ZM250.557 461.547C250.527 464.359 251.816 467.099 255.215 468.52V457.416H259.111V463.305H260.928V456.947H264.941V473.354H260.928V466.703H259.111V472.504H255.215V468.959L253.223 471.859C251.025 471.01 249.517 469.53 248.564 467.67C247.598 469.896 245.972 471.742 243.525 472.738L241.27 469.486C245.107 467.787 246.426 464.535 246.426 461.547V458.559H250.557V461.547ZM255.654 473.617C261.367 473.617 265.059 475.551 265.088 478.715C265.059 481.879 261.367 483.842 255.654 483.812C249.941 483.842 246.25 481.879 246.279 478.715C246.25 475.551 249.941 473.617 255.654 473.617ZM255.654 476.781C252.344 476.752 250.469 477.396 250.498 478.715C250.469 480.033 252.344 480.648 255.654 480.648C258.965 480.648 260.811 480.033 260.84 478.715C260.811 477.396 258.965 476.752 255.654 476.781ZM290.283 456.918V483.871H286.035V456.918H290.283ZM275.605 458.764C279.678 458.764 282.725 462.484 282.754 468.373C282.725 474.35 279.678 478.07 275.605 478.07C271.445 478.07 268.398 474.35 268.398 468.373C268.398 462.484 271.445 458.764 275.605 458.764ZM275.605 462.572C273.701 462.572 272.471 464.535 272.5 468.373C272.471 472.27 273.701 474.232 275.605 474.232C277.451 474.232 278.682 472.27 278.682 468.373C278.682 464.535 277.451 462.572 275.605 462.572ZM308.535 459.232V462.543H293.711V459.232H299.219V456.684H303.438V459.232H308.535ZM301.27 463.305C304.99 463.305 307.715 465.385 307.744 468.373C307.715 471.361 304.99 473.383 301.27 473.383C297.549 473.383 294.912 471.361 294.912 468.373C294.912 465.385 297.549 463.305 301.27 463.305ZM301.27 466.439C299.805 466.439 298.838 467.084 298.838 468.373C298.838 469.662 299.805 470.277 301.27 470.277C302.764 470.277 303.818 469.662 303.818 468.373C303.818 467.084 302.764 466.439 301.27 466.439ZM316.387 456.918V473.969H312.197V471.42H308.857V468.051H312.197V466H308.945V462.631H312.197V456.918H316.387ZM307.188 474.32C312.93 474.32 316.504 476.078 316.533 479.066C316.504 482.025 312.93 483.842 307.188 483.812C301.416 483.842 297.812 482.025 297.812 479.066C297.812 476.078 301.416 474.32 307.188 474.32ZM307.188 477.484C303.965 477.514 302.266 477.953 302.266 479.066C302.266 480.15 303.965 480.648 307.188 480.648C310.322 480.648 311.992 480.15 311.992 479.066C311.992 477.953 310.322 477.514 307.188 477.484Z" fill="#222222"/>
<path d="M594.135 352.107V353.504H580.986V346.629H582.705V352.107H594.135ZM596.176 356.275V357.672H591.643V364.74H589.967V357.672H585.004V364.74H583.328V357.672H578.773V356.275H596.176ZM607.305 348.455C607.305 351.721 611.043 354.643 614.373 355.266L613.6 356.684C610.721 356.018 607.681 353.966 606.445 351.141C605.21 353.955 602.181 356.007 599.291 356.684L598.518 355.266C601.826 354.621 605.543 351.742 605.543 348.455V346.994H607.305V348.455ZM615.275 360.744V362.141H597.787V360.744H615.275ZM628.854 349.25C628.854 351.914 630.787 354.428 633.58 355.438L632.635 356.748C630.54 355.91 628.875 354.245 628.059 352.172C627.242 354.481 625.502 356.318 623.246 357.221L622.344 355.846C625.201 354.793 627.178 352.129 627.199 349.186V346.822H628.854V349.25ZM638.156 345.662V359.971H636.459V351.57H632.205V350.152H636.459V345.662H638.156ZM638.586 362.914V364.332H625.803V358.338H627.5V362.914H638.586ZM657.836 348.477V349.873H642.195V348.477H649.199V345.963H650.854V348.477H657.836ZM658.824 361.109V362.506H641.336V361.109H649.199V358.424C645.805 358.241 643.742 356.92 643.764 354.771C643.742 352.494 646.148 351.162 650.037 351.184C653.883 351.162 656.311 352.494 656.311 354.771C656.311 356.92 654.227 358.241 650.854 358.424V361.109H658.824ZM650.037 352.516C647.18 352.516 645.439 353.354 645.461 354.771C645.439 356.232 647.18 357.049 650.037 357.07C652.852 357.049 654.592 356.232 654.592 354.771C654.592 353.354 652.852 352.516 650.037 352.516Z" fill="#222222"/>
<path d="M594.199 404.6V405.975H588.291V410.916H596.262V412.334H578.773V410.916H586.637V405.975H581.008V397.209H594.006V398.584H582.705V404.6H594.199ZM613.621 395.662V409.67H611.924V402.344H607.992V400.947H611.924V395.662H613.621ZM614.158 412.914V414.332H601.354V408.402H603.051V412.914H614.158ZM604.426 399.594C604.426 402.064 606.338 404.471 609.131 405.416L608.25 406.77C606.091 405.996 604.426 404.385 603.609 402.408C602.782 404.61 601.021 406.372 598.754 407.221L597.873 405.846C600.688 404.857 602.729 402.344 602.729 399.594V398.605H598.41V397.209H608.701V398.605H604.426V399.594ZM627.629 397.789V399.164H616.822V397.789H621.463V395.49H623.139V397.789H627.629ZM622.279 400.152C624.836 400.152 626.641 401.549 626.641 403.676C626.641 405.824 624.836 407.221 622.279 407.221C619.701 407.221 617.939 405.824 617.961 403.676C617.939 401.549 619.701 400.152 622.279 400.152ZM622.279 401.42C620.625 401.441 619.529 402.344 619.529 403.676C619.529 405.029 620.625 405.91 622.279 405.91C623.934 405.91 625.051 405.029 625.072 403.676C625.051 402.344 623.934 401.441 622.279 401.42ZM632.635 395.641V407.994H630.938V405.352H627.607V403.955H630.938V401.635H627.629V400.238H630.938V395.641H632.635ZM626.34 408.188C630.314 408.188 632.742 409.369 632.742 411.453C632.742 413.494 630.314 414.697 626.34 414.697C622.322 414.697 619.916 413.494 619.916 411.453C619.916 409.369 622.322 408.188 626.34 408.188ZM626.34 409.498C623.439 409.498 621.656 410.207 621.656 411.453C621.656 412.656 623.439 413.387 626.34 413.387C629.197 413.387 630.959 412.656 630.959 411.453C630.959 410.207 629.197 409.498 626.34 409.498Z" fill="#222222"/>
<path d="M588.635 448.887C588.613 453.678 585.197 457.115 579.697 458.684L578.988 457.352C583.554 456.062 586.465 453.527 586.83 450.283H579.977V448.887H588.635ZM594.607 447.662V458.555H592.91V454H588.678V452.582H592.91V447.662H594.607ZM594.607 459.371V466.482H582.211V459.371H594.607ZM583.844 460.725V465.107H592.932V460.725H583.844ZM603.48 451.379C603.48 453.549 604.941 455.74 607.391 456.707L606.488 458.018C604.684 457.266 603.362 455.869 602.686 454.172C601.977 456.03 600.602 457.652 598.732 458.49L597.809 457.18C600.322 456.062 601.869 453.549 601.869 451.379V448.822H603.48V451.379ZM614.008 447.662V459.199H612.396V454.064H609.861V459.092H608.271V448.006H609.861V452.646H612.396V447.662H614.008ZM614.008 460.252V466.74H612.354V461.648H601.139V460.252H614.008ZM627.629 449.789V451.164H616.822V449.789H621.463V447.49H623.139V449.789H627.629ZM622.279 452.152C624.836 452.152 626.641 453.549 626.641 455.676C626.641 457.824 624.836 459.221 622.279 459.221C619.701 459.221 617.939 457.824 617.961 455.676C617.939 453.549 619.701 452.152 622.279 452.152ZM622.279 453.42C620.625 453.441 619.529 454.344 619.529 455.676C619.529 457.029 620.625 457.91 622.279 457.91C623.934 457.91 625.051 457.029 625.072 455.676C625.051 454.344 623.934 453.441 622.279 453.42ZM632.635 447.641V459.994H630.938V457.352H627.607V455.955H630.938V453.635H627.629V452.238H630.938V447.641H632.635ZM626.34 460.188C630.314 460.188 632.742 461.369 632.742 463.453C632.742 465.494 630.314 466.697 626.34 466.697C622.322 466.697 619.916 465.494 619.916 463.453C619.916 461.369 622.322 460.188 626.34 460.188ZM626.34 461.498C623.439 461.498 621.656 462.207 621.656 463.453C621.656 464.656 623.439 465.387 626.34 465.387C629.197 465.387 630.959 464.656 630.959 463.453C630.959 462.207 629.197 461.498 626.34 461.498Z" fill="#222222"/>
<rect x="680" y="343" width="375" height="24" rx="12" fill="#E6E6E6"/>
<rect x="680" y="395" width="375" height="24" rx="12" fill="#E6E6E6"/>
<rect x="680" y="447" width="375" height="24" rx="12" fill="#E6E6E6"/>
<rect x="680" y="343" width="292" height="24" rx="12" fill="#8F8F8F"/>
<rect x="680" y="395" width="349" height="24" rx="12" fill="#8F8F8F"/>
<rect x="680" y="447" width="243" height="24" rx="12" fill="#8F8F8F"/>
<path d="M20 201.842L21.5 198.684L65 185V198.684L36 205H22.5L20 201.842Z" fill="#969696"/>
<path d="M267.5 133.5L258.5 124L297 111L299.5 112L300.5 114C300.333 114.333 299.6 115.7 298 118.5C296.4 121.3 277 129.667 267.5 133.5Z" fill="#969696"/>
<path d="M309.5 212L306 218H313L309.5 212Z" fill="black"/>
<rect x="306" y="214" width="7" height="1" fill="#E9E9E9"/>
<path d="M101.444 31.826C100.698 29.4484 106.185 25.5944 113.724 23.2012C121.264 20.8079 127.979 20.8079 128.725 23.2012" fill="black"/>
<path d="M101.444 31.826C100.698 29.4484 106.185 25.5944 113.724 23.2012C121.264 20.8079 127.979 20.8079 128.725 23.2012" stroke="black" stroke-width="2" stroke-miterlimit="10" stroke-linecap="round"/>
<path d="M20.3 199.614L42.7622 165.426C48.2029 156.568 51.2185 146.451 51.545 136.07L52.5554 102.814C53.4259 73.9089 69.9189 47.4593 95.9252 34.8094C102.578 31.5771 110.242 28.7332 119.087 26.4954C127.605 23.2319 135.518 21.1495 142.824 19.9685C171.379 15.353 200.091 27.5055 217.438 50.645L237.398 77.2656C243.631 85.5796 251.932 92.1221 261.477 96.2247L298.846 111.485" fill="#969696"/>
<path d="M20.3 199.614L42.7622 165.426C48.2029 156.568 51.2185 146.451 51.545 136.07L52.5554 102.814C53.4259 73.9089 69.9189 47.4593 95.9252 34.8094C102.578 31.5771 110.242 28.7332 119.087 26.4954C127.605 23.2319 135.518 21.1495 142.824 19.9685C171.379 15.353 200.091 27.5055 217.438 50.645L237.398 77.2656C243.631 85.5796 251.932 92.1221 261.477 96.2247L298.846 111.485" stroke="black" stroke-width="2" stroke-miterlimit="10" stroke-linecap="round"/>
<path d="M65.5203 198.666C51.1881 202.318 23.3008 208.472 20.2385 202.085C16.088 193.445 82.1221 159.21 155.571 137.826" stroke="black" stroke-width="2" stroke-miterlimit="10" stroke-linecap="round"/>
<path d="M267.027 134.548C281.344 128.845 302.019 119.474 300.993 113.258C299.407 103.794 225.709 113.786 153.318 138.542" stroke="black" stroke-width="2" stroke-miterlimit="10" stroke-linecap="round"/>
<path d="M49.3999 150.118C49.3999 150.118 133.466 96.0997 249.461 89.3086" stroke="black" stroke-width="2" stroke-miterlimit="10" stroke-linecap="round"/>
<path d="M50.7363 144.167C65.7836 135.154 142.45 92.0915 244.564 85.2227" stroke="black" stroke-width="2" stroke-miterlimit="10" stroke-linecap="round"/>
<path d="M114.394 27.707C114.394 27.707 68.4277 42.2683 77.2416 120.001" stroke="black" stroke-width="2" stroke-miterlimit="10" stroke-linecap="round"/>
<path d="M112.434 28.33C112.434 28.33 131.662 17.5295 158.12 31.2516" stroke="black" stroke-width="2" stroke-miterlimit="10" stroke-linecap="round"/>
<path d="M162.364 34.6543C162.364 34.6543 167.587 36.1617 170.385 40.0157" stroke="black" stroke-width="2" stroke-miterlimit="10" stroke-linecap="round"/>
<path d="M247.578 114.096L290.916 159.691V395.298H65.5176V171.517" fill="#D9D9D9"/>
<path d="M247.578 114.096L290.916 159.691V395.298H65.5176V171.517" stroke="black" stroke-width="2" stroke-miterlimit="10"/>
<path d="M131.194 240.671C152.013 240.671 168.89 223.799 168.89 202.986C168.89 182.173 152.013 165.301 131.194 165.301C110.375 165.301 93.498 182.173 93.498 202.986C93.498 223.799 110.375 240.671 131.194 240.671Z" stroke="black" stroke-width="6" stroke-miterlimit="10" stroke-linecap="round"/>
<path d="M226.018 240.671C246.837 240.671 263.714 223.799 263.714 202.986C263.714 182.173 246.837 165.301 226.018 165.301C205.199 165.301 188.322 182.173 188.322 202.986C188.322 223.799 205.199 240.671 226.018 240.671Z" stroke="black" stroke-width="6" stroke-miterlimit="10" stroke-linecap="round"/>
<path d="M168.891 202.987V208.038H187.544V200.268H168.891V202.987Z" fill="black"/>
<path d="M234.117 116.629C232.563 133.692 231.055 159.784 235.703 164.462C242.729 171.517 270.709 152.543 290.918 159.707" fill="#F4F4F4"/>
<path d="M234.117 116.629C232.563 133.692 231.055 159.784 235.703 164.462C242.729 171.517 270.709 152.543 290.918 159.707" stroke="black" stroke-width="2" stroke-miterlimit="10" stroke-linecap="round"/>
<path d="M211.296 128.798C211.296 128.798 219.488 123.732 229.546 131.315" stroke="black" stroke-width="2" stroke-miterlimit="10" stroke-linecap="round"/>
<path d="M200.757 256.988C200.757 256.988 141.687 249.218 144.796 267.866C147.905 286.515 196.094 269.42 200.757 256.988Z" fill="white" stroke="black" stroke-width="2" stroke-miterlimit="10" stroke-linecap="round"/>
<path d="M108.267 261.652C114.706 261.652 119.926 260.26 119.926 258.544C119.926 256.827 114.706 255.436 108.267 255.436C101.828 255.436 96.6084 256.827 96.6084 258.544C96.6084 260.26 101.828 261.652 108.267 261.652Z" fill="white"/>
<path d="M246.616 261.652C253.055 261.652 258.274 260.26 258.274 258.544C258.274 256.827 253.055 255.436 246.616 255.436C240.177 255.436 234.957 256.827 234.957 258.544C234.957 260.26 240.177 261.652 246.616 261.652Z" fill="white"/>
<path d="M312.68 219.691H306.462V300.501H312.68V219.691Z" fill="black" stroke="black" stroke-miterlimit="10" stroke-linecap="round"/>
<path d="M132.361 224.354C139.229 224.354 144.796 214.265 144.796 201.821C144.796 189.376 139.229 179.287 132.361 179.287C125.492 179.287 119.925 189.376 119.925 201.821C119.925 214.265 125.492 224.354 132.361 224.354Z" fill="black"/>
<path d="M226.408 225.131C233.276 225.131 238.844 215.043 238.844 202.598C238.844 190.153 233.276 180.064 226.408 180.064C219.54 180.064 213.972 190.153 213.972 202.598C213.972 215.043 219.54 225.131 226.408 225.131Z" fill="black"/>
<path d="M79.6962 133.832C79.6962 133.832 81.9968 142.721 77.6443 150.134" stroke="black" stroke-width="2" stroke-miterlimit="10" stroke-linecap="round"/>
<path d="M73.2914 155.977C73.2914 155.977 71.7369 159.085 68.6279 160.639" stroke="black" stroke-width="2" stroke-miterlimit="10" stroke-linecap="round"/>
<path d="M65.7197 301.885C65.7197 301.885 65.7197 278.714 44.1902 277.051C22.6607 275.388 7.76886 280.361 2.79455 272.078C-2.17977 263.795 2.79455 303.532 22.6607 306.842C42.5269 310.152 65.7197 301.869 65.7197 301.869V301.885Z" fill="black" stroke="black" stroke-miterlimit="10" stroke-linecap="round"/>
<path d="M39.231 283.672C39.231 283.672 42.542 288.645 54.1384 291.955C65.7347 295.265 65.7347 301.885 65.7347 301.885C65.7347 301.885 55.8017 296.912 47.5163 298.575" stroke="#D9D9D9" stroke-width="2" stroke-miterlimit="10" stroke-linecap="round"/>
<path d="M65.719 301.885C65.719 301.885 108.778 338.296 188.258 333.338C267.738 328.365 290.916 311.815 290.916 311.815V338.373C290.916 338.373 198.191 402.866 171.688 406.176C145.199 409.486 65.719 343.269 60.7447 335.001C55.7704 326.734 57.4337 313.478 65.719 301.9V301.885Z" fill="black" stroke="black" stroke-miterlimit="10" stroke-linecap="round"/>
<path d="M146.519 330.001C146.519 330.001 129.949 329.674 120 342.93" stroke="#D9D9D9" stroke-width="2" stroke-miterlimit="10" stroke-linecap="round"/>
<path d="M204.215 330C204.215 330 233.688 333.108 240.31 348.011" stroke="#D9D9D9" stroke-width="2" stroke-miterlimit="10" stroke-linecap="round"/>
<path d="M203 330.125C203 330.125 217.13 334.772 220.441 344.702" stroke="#D9D9D9" stroke-width="2" stroke-miterlimit="10" stroke-linecap="round"/>
<path d="M66.3957 302.235C66.3957 302.235 48.1772 298.925 36.5964 317.138C25.0155 335.352 25 335.352 25 335.352C25 335.352 34.9331 341.972 51.4882 333.689C68.0434 325.406 66.3957 302.235 66.3957 302.235Z" fill="black" stroke="black" stroke-miterlimit="10" stroke-linecap="round"/>
<path d="M290.918 265.753C290.918 265.753 294.027 288.069 301.8 281.853C306.992 277.704 313.567 265.225 317.376 257.393C318.339 255.403 321.34 255.947 321.526 258.154C322.707 272.327 321.277 304.713 290.934 336.228" fill="#D9D9D9"/>
<path d="M290.918 265.753C290.918 265.753 294.027 288.069 301.8 281.853C306.992 277.704 313.567 265.225 317.376 257.393C318.339 255.403 321.34 255.947 321.526 258.154C322.707 272.327 321.277 304.713 290.934 336.228" stroke="black" stroke-width="2" stroke-miterlimit="10" stroke-linecap="round"/>
<ellipse cx="136.5" cy="191" rx="2.5" ry="4" fill="white"/>
<ellipse cx="229.5" cy="191" rx="2.5" ry="4" fill="white"/>
<path d="M235 117.5L248 115L288 158L235 117.5Z" fill="#F4F4F4"/>
<path d="M234.5 116.5L248 114" stroke="black" stroke-width="2"/>
<path d="M50.5 149L51.5 143.5C89 121 155.5 100.5 177 95.5C191.912 92.032 227.667 86.3333 244 85L249 89.5C172.2 90.7 84.6667 129.667 50.5 149Z" fill="black" stroke="black"/>
<path d="M291.5 275.5L289.5 263.5L286.5 313.5L291.5 311.5V275.5Z" fill="#D9D9D9"/>
<path d="M804.206 76.6406V81.625H807.063V83.043H804.206V88.0488H802.509V76.6406H804.206ZM798.062 88.4141C801.95 88.4141 804.356 89.7676 804.356 92.0449C804.356 94.3652 801.95 95.6973 798.062 95.6973C794.151 95.6973 791.724 94.3652 791.724 92.0449C791.724 89.7676 794.151 88.4141 798.062 88.4141ZM798.062 89.8105C795.183 89.7891 793.378 90.6484 793.378 92.0449C793.378 93.4629 795.183 94.3438 798.062 94.3438C800.919 94.3438 802.724 93.4629 802.724 92.0449C802.724 90.6484 800.919 89.7891 798.062 89.8105ZM798.62 78.1016V79.498H791.788V85.1055C795.655 85.084 797.89 84.9658 800.446 84.4395L800.618 85.8359C797.954 86.373 795.655 86.4805 791.616 86.4805H790.134V78.1016H798.62ZM824.036 76.6621V90.6699H822.36V76.6621H824.036ZM824.638 93.9141V95.332H811.704V89.3809H813.38V93.9141H824.638ZM815.034 79.6484C815.013 82.5488 817.011 85.1699 819.847 86.2012L818.966 87.5547C816.753 86.7061 815.034 84.9873 814.196 82.7852C813.348 85.127 811.607 87.0068 809.384 87.8984L808.46 86.5879C811.36 85.4707 813.315 82.6562 813.315 79.6484V77.7363H815.034V79.6484ZM844.683 86.7168V88.0918H827.28V86.7168H844.683ZM842.749 93.9141V95.332H829.536V89.7676H831.233V93.9141H842.749ZM835.981 77.3281C840.085 77.3066 842.728 78.7246 842.728 81.1094C842.728 83.4941 840.085 84.9121 835.981 84.9121C831.835 84.9121 829.214 83.4941 829.214 81.1094C829.214 78.7246 831.835 77.3066 835.981 77.3281ZM835.981 78.6816C832.909 78.6816 830.933 79.6055 830.954 81.1094C830.933 82.6133 832.909 83.5371 835.981 83.5371C839.032 83.5371 841.009 82.6133 841.009 81.1094C841.009 79.6055 839.032 78.6816 835.981 78.6816Z" fill="#222222"/>
<path d="M685.823 116.38L687.996 109.324H690.853L689.681 116.38H685.823ZM691.512 116.38L693.685 109.324H696.541L695.369 116.38H691.512ZM715.413 108.177V110.984H708.284V112.376H714.925V115.135H708.284V116.6C711.69 116.575 714.009 116.478 716.512 115.989L716.902 118.748C713.899 119.261 711.141 119.358 706.648 119.334H704.72V108.177H715.413ZM721.81 120.921V129.1H707.015V120.921H721.81ZM710.481 123.655V126.292H718.343V123.655H710.481ZM721.81 106.932V112.059H724.715V114.964H721.81V120.018H718.294V106.932H721.81ZM744.539 106.932V120.481H741.048V116.282H738.436V113.426H741.048V106.932H744.539ZM744.539 121.336V129.1H729.354V121.336H744.539ZM732.894 124.095V126.292H741.121V124.095H732.894ZM738.875 108.763V111.546H725.643V108.763H730.525V106.761H733.992V108.763H738.875ZM732.259 112.156C735.457 112.156 737.703 113.841 737.703 116.185C737.703 118.626 735.433 120.237 732.259 120.262C729.109 120.237 726.814 118.626 726.814 116.185C726.814 113.841 729.109 112.156 732.259 112.156ZM732.259 114.793C730.965 114.769 730.184 115.232 730.208 116.185C730.184 117.186 730.965 117.674 732.259 117.674C733.528 117.674 734.334 117.186 734.334 116.185C734.334 115.232 733.528 114.769 732.259 114.793ZM764.949 106.932V115.354H767.952V118.235H764.949V129.271H761.434V106.932H764.949ZM758.895 109.178C758.895 115.989 756.404 121.8 748.787 125.535L746.81 122.85C751.949 120.274 754.708 116.929 755.33 112.059H748.152V109.178H758.895ZM786.556 106.932V115.354H789.559V118.235H786.556V129.271H783.04V106.932H786.556ZM780.501 109.178C780.501 115.989 778.011 121.8 770.394 125.535L768.416 122.85C773.555 120.274 776.314 116.929 776.937 112.059H769.759V109.178H780.501ZM805.257 107.884V109.324C805.257 110.826 805.257 112.791 804.549 115.354H809.969C810.481 113.438 810.604 111.961 810.652 110.667H806.526V107.884H814.046V109.397C814.021 110.997 814.021 112.925 813.484 115.354H816.39V118.187H807.869V120.799H813.875V129.075H798.421V120.799H804.378V118.187H795.979V115.354H801.009C801.583 113.401 801.753 111.912 801.814 110.667H797.762V107.884H805.257ZM801.888 123.509V126.341H810.384V123.509H801.888ZM836.409 106.956V122.972H832.894V106.956H836.409ZM836.971 126.17V128.978H821.224V121.36H824.788V126.17H836.971ZM824.08 108.348C827.547 108.348 830.281 110.74 830.281 114.036C830.281 117.405 827.547 119.773 824.08 119.773C820.613 119.773 817.854 117.405 817.879 114.036C817.854 110.74 820.613 108.348 824.08 108.348ZM824.08 111.399C822.493 111.375 821.297 112.352 821.297 114.036C821.297 115.794 822.493 116.722 824.08 116.722C825.594 116.722 826.79 115.794 826.79 114.036C826.79 112.352 825.594 111.375 824.08 111.399ZM849.227 108.226V111.009H853.035V108.226H856.502V112.132H860.262V106.932H863.753V119.92H860.262V114.988H856.502V119.041H845.687V108.226H849.227ZM849.227 116.258H853.035V113.743H849.227V116.258ZM863.753 120.726V129.1H848.567V120.726H863.753ZM852.107 123.509V126.292H860.335V123.509H852.107ZM873.714 110.789C873.689 113.133 874.764 115.416 877.596 116.6V107.347H880.843V112.254H882.356V106.956H885.701V120.628H882.356V115.086H880.843V119.92H877.596V116.966L875.936 119.383C874.104 118.675 872.847 117.442 872.054 115.892C871.248 117.747 869.893 119.285 867.854 120.115L865.975 117.405C869.173 115.989 870.271 113.279 870.271 110.789V108.299H873.714V110.789ZM877.962 120.848C882.723 120.848 885.799 122.459 885.823 125.096C885.799 127.732 882.723 129.368 877.962 129.344C873.201 129.368 870.125 127.732 870.149 125.096C870.125 122.459 873.201 120.848 877.962 120.848ZM877.962 123.484C875.203 123.46 873.641 123.997 873.665 125.096C873.641 126.194 875.203 126.707 877.962 126.707C880.721 126.707 882.259 126.194 882.283 125.096C882.259 123.997 880.721 123.46 877.962 123.484ZM906.819 106.932V129.393H903.279V106.932H906.819ZM894.588 108.47C897.981 108.47 900.521 111.57 900.545 116.478C900.521 121.458 897.981 124.559 894.588 124.559C891.121 124.559 888.582 121.458 888.582 116.478C888.582 111.57 891.121 108.47 894.588 108.47ZM894.588 111.644C893.001 111.644 891.976 113.279 892 116.478C891.976 119.725 893.001 121.36 894.588 121.36C896.126 121.36 897.151 119.725 897.151 116.478C897.151 113.279 896.126 111.644 894.588 111.644ZM922.029 108.86V111.619H909.676V108.86H914.266V106.736H917.781V108.86H922.029ZM915.975 112.254C919.075 112.254 921.346 113.987 921.37 116.478C921.346 118.968 919.075 120.652 915.975 120.652C912.874 120.652 910.677 118.968 910.677 116.478C910.677 113.987 912.874 112.254 915.975 112.254ZM915.975 114.866C914.754 114.866 913.948 115.403 913.948 116.478C913.948 117.552 914.754 118.064 915.975 118.064C917.22 118.064 918.099 117.552 918.099 116.478C918.099 115.403 917.22 114.866 915.975 114.866ZM928.572 106.932V121.141H925.081V119.017H922.298V116.209H925.081V114.5H922.371V111.692H925.081V106.932H928.572ZM920.906 121.434C925.691 121.434 928.67 122.898 928.694 125.389C928.67 127.854 925.691 129.368 920.906 129.344C916.097 129.368 913.094 127.854 913.094 125.389C913.094 122.898 916.097 121.434 920.906 121.434ZM920.906 124.07C918.221 124.095 916.805 124.461 916.805 125.389C916.805 126.292 918.221 126.707 920.906 126.707C923.519 126.707 924.91 126.292 924.91 125.389C924.91 124.461 923.519 124.095 920.906 124.07ZM936.775 116.38L938.948 109.324H941.805L940.633 116.38H936.775ZM942.464 116.38L944.637 109.324H947.493L946.321 116.38H942.464Z" fill="black"/>
<defs>
<filter id="filter0_d_444_5" x="430.109" y="0" width="709.891" height="560" filterUnits="userSpaceOnUse" color-interpolation-filters="sRGB">
<feFlood flood-opacity="0" result="BackgroundImageFix"/>
<feColorMatrix in="SourceAlpha" type="matrix" values="0 0 0 0 0 0 0 0 0 0 0 0 0 0 0 0 0 0 127 0" result="hardAlpha"/>
<feOffset dy="4"/>
<feGaussianBlur stdDeviation="2"/>
<feComposite in2="hardAlpha" operator="out"/>
<feColorMatrix type="matrix" values="0 0 0 0 0 0 0 0 0 0 0 0 0 0 0 0 0 0 0.25 0"/>
<feBlend mode="normal" in2="BackgroundImageFix" result="effect1_dropShadow_444_5"/>
<feBlend mode="normal" in="SourceGraphic" in2="effect1_dropShadow_444_5" result="shape"/>
</filter>
</defs>
</svg>
