<svg width="1170" height="479" viewBox="0 0 1170 479" fill="none" xmlns="http://www.w3.org/2000/svg">
<path d="M95.0977 439.061V440.789C95.0977 442.591 95.0977 444.949 94.248 448.025H100.752C101.367 445.726 101.514 443.953 101.572 442.4H96.6211V439.061H105.645V440.877C105.615 442.796 105.615 445.11 104.971 448.025H108.457V451.424H98.2324V454.559H105.439V464.49H86.8945V454.559H94.043V451.424H83.9648V448.025H90C90.6885 445.682 90.8936 443.895 90.9668 442.4H86.1035V439.061H95.0977ZM91.0547 457.811V461.209H101.25V457.811H91.0547ZM138.018 437.918V443.426H141.504V446.883H138.018V451.219H133.799V437.918H138.018ZM130.342 439.588V450.867H117.305V439.588H130.342ZM121.465 442.84V447.557H126.182V442.84H121.465ZM122.988 453.387V460.652C124.38 460.55 125.625 460.345 126.855 459.949L127.441 463.201C125.303 463.992 123.252 464.109 120.439 464.109H118.857V453.387H122.988ZM140.039 453.68V456.668H126.533V453.68H131.279V451.863H135.381V453.68H140.039ZM133.271 457.254C136.377 457.254 138.516 458.689 138.545 461.033C138.516 463.348 136.377 464.783 133.271 464.783C130.107 464.783 127.998 463.348 127.998 461.033C127.998 458.689 130.107 457.254 133.271 457.254ZM133.271 460.066C132.393 460.096 131.748 460.359 131.748 461.033C131.748 461.736 132.393 462 133.271 462C134.121 462 134.766 461.736 134.766 461.033C134.766 460.359 134.121 460.096 133.271 460.066ZM167.051 451.541V454.852H142.529V451.541H167.051ZM164.238 461.004V464.373H145.43V456.492H149.648V461.004H164.238ZM154.775 438.709C160.693 438.709 164.619 440.818 164.648 444.246C164.619 447.732 160.693 449.871 154.775 449.9C148.828 449.871 144.902 447.732 144.902 444.246C144.902 440.818 148.828 438.709 154.775 438.709ZM154.775 442.02C151.23 442.049 149.268 442.781 149.297 444.246C149.268 445.799 151.23 446.473 154.775 446.473C158.291 446.473 160.283 445.799 160.283 444.246C160.283 442.781 158.291 442.049 154.775 442.02ZM197.93 437.918V453.621H193.74V450.457H189.141V452.303H176.25V439.881H189.141V441.727H193.74V437.918H197.93ZM180.439 443.191V448.963H185.01V443.191H180.439ZM188.643 454.295C194.443 454.295 197.988 456.229 198.018 459.568C197.988 462.908 194.443 464.842 188.643 464.812C182.9 464.842 179.355 462.908 179.355 459.568C179.355 456.229 182.9 454.295 188.643 454.295ZM188.643 457.488C185.273 457.488 183.545 458.104 183.545 459.568C183.545 460.975 185.273 461.619 188.643 461.648C192.07 461.619 193.799 460.975 193.828 459.568C193.799 458.104 192.07 457.488 188.643 457.488ZM189.141 447.059H193.74V445.008H189.141V447.059ZM225.645 451.043V454.383H215.801V458.748H211.641V454.383H201.064V451.043H225.645ZM222.51 439.061V449.139H204.082V439.061H222.51ZM208.213 442.312V445.887H218.379V442.312H208.213ZM222.949 461.004V464.373H203.848V456.521H208.066V461.004H222.949ZM248.35 437.918V448.025H251.953V451.482H248.35V464.725H244.131V437.918H248.35ZM241.084 440.613C241.084 448.787 238.096 455.76 228.955 460.242L226.582 457.02C232.749 453.929 236.06 449.915 236.807 444.07H228.193V440.613H241.084ZM269.854 444.949C269.824 448.992 271.699 453.709 276.299 455.789L273.955 459.1C270.996 457.781 268.975 455.188 267.803 452.127C266.616 455.525 264.507 458.367 261.416 459.803L258.984 456.463C263.643 454.295 265.576 449.344 265.576 444.949V443.895H260.098V440.467H275.068V443.895H269.854V444.949ZM280.986 437.918V447.996H284.795V451.482H280.986V464.812H276.768V437.918H280.986ZM308.906 437.918V464.812H304.922V437.918H308.906ZM303.369 438.299V463.611H299.443V450.369H296.221V447H299.443V438.299H303.369ZM294.287 444.979C294.287 449.402 295.459 453.855 299.443 456.141L297.012 459.217C294.683 457.884 293.188 455.657 292.295 452.947C291.387 455.892 289.849 458.382 287.49 459.832L284.971 456.727C288.984 454.236 290.215 449.432 290.215 444.979V443.895H286.055V440.525H298.096V443.895H294.287V444.979ZM326.426 440.232V443.543H311.602V440.232H317.109V437.684H321.328V440.232H326.426ZM319.16 444.305C322.881 444.305 325.605 446.385 325.635 449.373C325.605 452.361 322.881 454.383 319.16 454.383C315.439 454.383 312.803 452.361 312.803 449.373C312.803 446.385 315.439 444.305 319.16 444.305ZM319.16 447.439C317.695 447.439 316.729 448.084 316.729 449.373C316.729 450.662 317.695 451.277 319.16 451.277C320.654 451.277 321.709 450.662 321.709 449.373C321.709 448.084 320.654 447.439 319.16 447.439ZM334.277 437.918V454.969H330.088V452.42H326.748V449.051H330.088V447H326.836V443.631H330.088V437.918H334.277ZM325.078 455.32C330.82 455.32 334.395 457.078 334.424 460.066C334.395 463.025 330.82 464.842 325.078 464.812C319.307 464.842 315.703 463.025 315.703 460.066C315.703 457.078 319.307 455.32 325.078 455.32ZM325.078 458.484C321.855 458.514 320.156 458.953 320.156 460.066C320.156 461.15 321.855 461.648 325.078 461.648C328.213 461.648 329.883 461.15 329.883 460.066C329.883 458.953 328.213 458.514 325.078 458.484Z" fill="#222222"/>
<g filter="url(#filter0_d_1035_872)">
<path fill-rule="evenodd" clip-rule="evenodd" d="M585.891 0C552.202 0 524.891 27.3106 524.891 61V202.9L466.154 231.423C462.399 233.246 462.399 238.595 466.154 240.418L524.891 268.941V410C524.891 443.689 552.202 471 585.891 471H1102.89C1136.58 471 1163.89 443.689 1163.89 410V61C1163.89 27.3106 1136.58 0 1102.89 0H585.891Z" fill="white"/>
</g>
<path d="M740.617 75.6406V80.625H743.475V82.043H740.617V87.0488H738.92V75.6406H740.617ZM734.473 87.4141C738.361 87.4141 740.768 88.7676 740.768 91.0449C740.768 93.3652 738.361 94.6973 734.473 94.6973C730.562 94.6973 728.135 93.3652 728.135 91.0449C728.135 88.7676 730.562 87.4141 734.473 87.4141ZM734.473 88.8105C731.594 88.7891 729.789 89.6484 729.789 91.0449C729.789 92.4629 731.594 93.3438 734.473 93.3438C737.33 93.3438 739.135 92.4629 739.135 91.0449C739.135 89.6484 737.33 88.7891 734.473 88.8105ZM735.031 77.1016V78.498H728.199V84.1055C732.066 84.084 734.301 83.9658 736.857 83.4395L737.029 84.8359C734.365 85.373 732.066 85.4805 728.027 85.4805H726.545V77.1016H735.031ZM760.447 75.6621V89.6699H758.771V75.6621H760.447ZM761.049 92.9141V94.332H748.115V88.3809H749.791V92.9141H761.049ZM751.445 78.6484C751.424 81.5488 753.422 84.1699 756.258 85.2012L755.377 86.5547C753.164 85.7061 751.445 83.9873 750.607 81.7852C749.759 84.127 748.019 86.0068 745.795 86.8984L744.871 85.5879C747.771 84.4707 749.727 81.6562 749.727 78.6484V76.7363H751.445V78.6484ZM781.094 85.7168V87.0918H763.691V85.7168H781.094ZM779.16 92.9141V94.332H765.947V88.7676H767.645V92.9141H779.16ZM772.393 76.3281C776.496 76.3066 779.139 77.7246 779.139 80.1094C779.139 82.4941 776.496 83.9121 772.393 83.9121C768.246 83.9121 765.625 82.4941 765.625 80.1094C765.625 77.7246 768.246 76.3066 772.393 76.3281ZM772.393 77.6816C769.32 77.6816 767.344 78.6055 767.365 80.1094C767.344 81.6133 769.32 82.5371 772.393 82.5371C775.443 82.5371 777.42 81.6133 777.42 80.1094C777.42 78.6055 775.443 77.6816 772.393 77.6816ZM794.006 93.2148C790.547 93.2148 788.57 90.3145 788.57 85.2227C788.57 80.1738 790.59 77.2305 794.006 77.2305C797.422 77.2305 799.441 80.1738 799.441 85.2227C799.441 90.3145 797.443 93.2148 794.006 93.2148ZM794.006 91.4961C796.24 91.4961 797.551 89.2402 797.551 85.2227C797.551 81.2051 796.24 78.9062 794.006 78.9062C791.771 78.9062 790.439 81.2051 790.439 85.2227C790.439 89.2402 791.75 91.4961 794.006 91.4961ZM807.111 93.2148C803.652 93.2148 801.676 90.3145 801.676 85.2227C801.676 80.1738 803.695 77.2305 807.111 77.2305C810.527 77.2305 812.547 80.1738 812.547 85.2227C812.547 90.3145 810.549 93.2148 807.111 93.2148ZM807.111 91.4961C809.346 91.4961 810.656 89.2402 810.656 85.2227C810.656 81.2051 809.346 78.9062 807.111 78.9062C804.877 78.9062 803.545 81.2051 803.545 85.2227C803.545 89.2402 804.855 91.4961 807.111 91.4961ZM831.904 85.7598V87.1348H824.127V90.873H822.451V87.1348H814.416V85.7598H831.904ZM829.949 92.9141V94.332H816.65V89.1113H818.326V92.9141H829.949ZM818.434 76.2637V78.7129H827.887V76.2637H829.562V83.8906H816.758V76.2637H818.434ZM818.434 82.5156H827.887V80.002H818.434V82.5156ZM838.564 77.123C841.379 77.1445 843.377 79.7227 843.398 83.7832C843.377 87.8438 841.379 90.4219 838.564 90.4219C835.729 90.4219 833.752 87.8438 833.752 83.7832C833.752 79.7227 835.729 77.1445 838.564 77.123ZM838.564 78.627C836.674 78.6484 835.342 80.668 835.342 83.7832C835.342 86.8984 836.674 88.918 838.564 88.918C840.477 88.918 841.766 86.8984 841.766 83.7832C841.766 80.668 840.477 78.6484 838.564 78.627ZM851.326 80.4531V81.8926H848.232V86.1465H851.326V87.5645H848.232V94.7402H846.557V75.6406H848.232V80.4531H851.326ZM868.836 75.6406V94.7402H867.203V75.6406H868.836ZM864.99 76.0488V93.7734H863.379V84.4922H860.93C860.747 88.209 859.168 90.5293 856.805 90.5293C854.312 90.5293 852.701 87.9512 852.701 83.8906C852.701 79.8301 854.312 77.252 856.805 77.252C859.125 77.252 860.693 79.4971 860.908 83.0957H863.379V76.0488H864.99ZM856.805 78.8418C855.258 78.8418 854.27 80.7754 854.291 83.8906C854.27 86.9844 855.258 88.9395 856.805 88.918C858.352 88.9395 859.34 86.9844 859.34 83.8906C859.34 80.7754 858.352 78.8418 856.805 78.8418ZM887.592 77.123V78.1328C887.57 79.3789 887.57 81.291 887.098 83.7832L885.4 83.6543C885.862 81.3662 885.905 79.7441 885.938 78.541H878.074V77.123H887.592ZM882.672 81.3555V85.459C884.788 85.373 886.979 85.2227 888.967 84.9434L889.074 86.1895C885.078 86.877 880.459 86.9629 877.064 86.9629L876.893 85.5664C878.128 85.5557 879.524 85.5449 880.996 85.502V81.3555H882.672ZM891.975 75.6406V81.8711H894.768V83.3105H891.975V90.0137H890.256V75.6406H891.975ZM892.598 92.9141V94.332H879.836V88.7246H881.533V92.9141H892.598ZM911.783 75.6621V86.5117H910.107V75.6621H911.783ZM911.783 87.6074V94.4824H899.365V87.6074H911.783ZM901.02 88.9824V93.1074H910.129V88.9824H901.02ZM902.781 78.2832C902.76 80.9902 904.822 83.375 907.637 84.3633L906.777 85.6523C904.564 84.8896 902.803 83.2783 901.943 81.1836C901.095 83.418 899.312 85.1797 897.023 86.0176L896.164 84.6855C899.064 83.6758 901.062 81.0977 901.062 78.2832V76.4141H902.781V78.2832ZM921.494 88.4668C921.494 90.1533 922.396 91.9473 924.223 92.9785C926.027 91.8506 926.994 89.9492 926.994 88.4668V87.4141H928.648V88.4668C928.648 90.4219 930.088 92.3984 932.537 93.2363L931.699 94.4824C929.787 93.8057 928.444 92.4736 927.789 90.873C927.198 92.4199 926.027 93.8809 924.266 94.6328C922.407 93.9238 921.226 92.5166 920.656 90.916C919.979 92.4629 918.658 93.7949 916.832 94.4824L915.973 93.2363C918.379 92.334 919.84 90.293 919.861 88.4668V87.4141H921.494V88.4668ZM930.797 75.6621V86.5762H929.121V75.6621H930.797ZM920.484 76.7793C923.385 76.7793 925.49 78.584 925.49 81.248C925.49 83.8691 923.385 85.6738 920.484 85.6738C917.584 85.6738 915.479 83.8691 915.479 81.248C915.479 78.584 917.584 76.7793 920.484 76.7793ZM920.484 78.2188C918.529 78.1973 917.111 79.4648 917.133 81.248C917.111 83.0098 918.529 84.2559 920.484 84.2773C922.418 84.2559 923.836 83.0098 923.836 81.248C923.836 79.4648 922.418 78.1973 920.484 78.2188ZM949.488 81.4414V82.7949H936.404V76.3496H938.08V81.4414H949.488ZM951.508 85.3945V86.7695H934.02V85.3945H951.508ZM949.596 92.8711V94.2676H936.297V88.7246H937.973V92.8711H949.596ZM956.191 91.5605L954.516 97.4043H952.926L954.107 91.5605H956.191Z" fill="#222222"/>
<path d="M751.831 224.455C751.831 227.721 755.569 230.643 758.899 231.266L758.126 232.684C755.247 232.018 752.207 229.966 750.972 227.141C749.736 229.955 746.707 232.007 743.817 232.684L743.044 231.266C746.353 230.621 750.069 227.742 750.069 224.455V222.994H751.831V224.455ZM759.802 236.744V238.141H742.313V236.744H759.802ZM776.56 223.596V225.959C776.56 228.773 776.56 231.373 775.765 235.24L774.067 235.09C774.486 233.253 774.701 231.663 774.819 230.17L763.153 230.814L762.917 229.418L774.884 228.924C774.916 227.914 774.916 226.937 774.927 225.959V225.014H763.433V223.596H776.56ZM778.729 236.637V238.055H761.327V236.637H778.729ZM796.562 221.662V232.232H794.95V227.57H792.265V232.039H790.696V222.006H792.265V226.217H794.95V221.662H796.562ZM785.647 233.113V235.305H794.907V233.113H796.562V240.482H783.972V233.113H785.647ZM785.647 239.107H794.907V236.68H785.647V239.107ZM788.419 222.801V227.699H782.854V230.234C785.368 230.202 787.291 230.105 789.558 229.633L789.751 231.029C787.28 231.502 785.239 231.609 782.468 231.609H781.222V226.41H786.808V224.176H781.179V222.801H788.419ZM811.343 225.186C811.343 227.721 813.212 230.041 816.048 231.029L815.188 232.34C813.008 231.566 811.343 229.998 810.526 228.021C809.71 230.191 807.959 231.878 805.714 232.705L804.812 231.395C807.669 230.385 809.667 227.914 809.688 225.186V224.369H805.327V222.994H815.64V224.369H811.343V225.186ZM819.808 221.641V226.689H822.687V228.129H819.808V233.156H818.132V221.641H819.808ZM819.808 234.166V240.74H818.132V235.541H807.304V234.166H819.808ZM830.464 224.648C830.442 227.377 832.376 229.783 835.19 230.729L834.245 232.039C832.14 231.244 830.485 229.697 829.669 227.678C828.842 229.966 827.091 231.749 824.792 232.619L823.868 231.244C826.812 230.213 828.767 227.678 828.788 224.713V222.736H830.464V224.648ZM839.724 221.641V232.963H838.026V227.141H833.772V225.744H838.026V221.641H839.724ZM833.386 233.521C837.36 233.521 839.788 234.832 839.788 237.131C839.788 239.408 837.36 240.697 833.386 240.697C829.411 240.697 826.983 239.408 826.983 237.131C826.983 234.832 829.411 233.521 833.386 233.521ZM833.386 234.854C830.464 234.854 828.638 235.713 828.659 237.131C828.638 238.506 830.464 239.344 833.386 239.344C836.308 239.344 838.112 238.506 838.112 237.131C838.112 235.713 836.308 234.854 833.386 234.854ZM858.329 230.6V231.975H852.421V236.916H860.392V238.334H842.903V236.916H850.767V231.975H845.138V223.209H858.136V224.584H846.835V230.6H858.329ZM882.37 221.641V226.109H885.249V227.506H882.37V231.867H880.694V221.641H882.37ZM877.235 222.994C877.214 227.764 873.841 230.943 868.212 232.232L867.503 230.857C872.369 229.794 875.087 227.377 875.366 224.369H868.319V222.994H877.235ZM882.456 232.727V234.016H871.972V235.906H882.241V237.195H871.972V239.172H882.907V240.482H870.274V232.727H882.456ZM902.2 221.641V240.783H900.503V221.641H902.2ZM892.038 223.123C894.874 223.145 896.915 225.723 896.915 229.783C896.915 233.844 894.874 236.422 892.038 236.422C889.181 236.422 887.161 233.844 887.161 229.783C887.161 225.723 889.181 223.145 892.038 223.123ZM892.038 224.627C890.126 224.648 888.794 226.668 888.794 229.783C888.794 232.898 890.126 234.918 892.038 234.918C893.95 234.918 895.282 232.898 895.282 229.783C895.282 226.668 893.95 224.648 892.038 224.627ZM920.526 224.949V226.324H910.944V224.949H914.919V222.221H916.595V224.949H920.526ZM915.735 227.613C918.142 227.613 919.86 229.418 919.882 231.953C919.86 234.51 918.142 236.336 915.735 236.336C913.351 236.336 911.632 234.51 911.632 231.953C911.632 229.418 913.351 227.613 915.735 227.613ZM915.735 229.031C914.231 229.053 913.136 230.277 913.136 231.953C913.136 233.65 914.231 234.875 915.735 234.854C917.261 234.875 918.378 233.65 918.378 231.953C918.378 230.277 917.261 229.053 915.735 229.031ZM927.251 221.641V240.74H925.64V231.094H923.104V239.795H921.515V222.113H923.104V229.697H925.64V221.641H927.251ZM936.726 226.775C936.726 230.234 938.938 233.715 941.71 234.982L940.7 236.357C938.53 235.24 936.736 232.952 935.888 230.234C935.039 233.092 933.245 235.541 931.075 236.701L929.979 235.348C932.772 233.973 935.007 230.299 935.007 226.775V223.295H936.726V226.775ZM945.835 221.641V240.783H944.159V229.547H939.626V228.172H944.159V221.641H945.835ZM715.039 252.506C715.039 255.75 717.402 259.037 720.217 260.262L719.271 261.594C717.037 260.573 715.104 258.371 714.223 255.729C713.32 258.532 711.397 260.971 709.217 262.066L708.207 260.734C710.936 259.424 713.32 255.814 713.342 252.506V250.014H708.83V248.617H719.594V250.014H715.039V252.506ZM723.955 246.641V265.74H722.258V246.641H723.955ZM733.988 249.412C733.967 252.205 735.986 254.676 738.822 255.664L737.963 256.996C735.75 256.19 733.999 254.536 733.15 252.42C732.302 254.687 730.529 256.47 728.295 257.34L727.414 256.008C730.271 254.955 732.27 252.291 732.27 249.412V247.586H733.988V249.412ZM742.99 259.102V265.74H741.314V260.498H730.143V259.102H742.99ZM742.99 246.641V258.156H741.314V246.641H742.99ZM754.936 246.984C759.189 246.984 761.682 248.145 761.682 250.271C761.682 252.441 759.189 253.602 754.936 253.623C750.682 253.602 748.168 252.441 748.168 250.271C748.168 248.145 750.682 246.984 754.936 246.984ZM754.936 248.252C751.756 248.252 749.908 249.025 749.93 250.271C749.908 251.604 751.756 252.334 754.936 252.334C758.094 252.334 759.963 251.604 759.963 250.271C759.963 249.025 758.094 248.252 754.936 248.252ZM763.637 254.912V256.287H746.234V254.912H763.637ZM761.402 257.941V262.217H750.059V264.193H761.982V265.525H748.383V260.971H759.748V259.23H748.34V257.941H761.402ZM777.129 252.871C777.129 255.922 779.127 259.059 781.898 260.391L780.91 261.701C778.805 260.67 777.14 258.586 776.355 256.115C775.518 258.769 773.745 260.992 771.564 262.045L770.598 260.734C773.391 259.424 775.475 256.158 775.496 252.871V251.346H771.113V249.971H775.475V247.006H777.172V249.971H781.469V251.346H777.129V252.871ZM785.551 246.641V254.482H788.752V255.922H785.551V265.74H783.875V246.641H785.551ZM807.186 255.729V257.125H789.805V255.729H797.002V251.861H798.656V255.729H807.186ZM804.973 259.316V265.74H803.254V260.713H791.652V259.316H804.973ZM804.973 247.693V249.133C804.973 250.594 804.973 252.248 804.5 254.418L802.803 254.246C803.297 252.098 803.297 250.572 803.297 249.133V249.068H791.867V247.693H804.973ZM820.678 252.871C820.678 255.922 822.676 259.059 825.447 260.391L824.459 261.701C822.354 260.67 820.688 258.586 819.904 256.115C819.066 258.769 817.294 260.992 815.113 262.045L814.146 260.734C816.939 259.424 819.023 256.158 819.045 252.871V251.346H814.662V249.971H819.023V247.006H820.721V249.971H825.018V251.346H820.678V252.871ZM829.1 246.641V254.482H832.301V255.922H829.1V265.74H827.424V246.641H829.1ZM850.734 255.729V257.125H833.354V255.729H840.551V251.861H842.205V255.729H850.734ZM848.521 259.316V265.74H846.803V260.713H835.201V259.316H848.521ZM848.521 247.693V249.133C848.521 250.594 848.521 252.248 848.049 254.418L846.352 254.246C846.846 252.098 846.846 250.572 846.846 249.133V249.068H835.416V247.693H848.521ZM873.186 246.641V250.809H875.699V252.227H873.186V256.824H871.51V246.641H873.186ZM862.314 248.789C862.314 250.196 862.712 252.42 864.205 253.902C865.623 252.463 866.031 250.271 866.031 248.811V247.479H866.396V247.457H867.6V248.789C867.6 250.809 868.438 253.279 870.65 254.418L869.727 255.621C868.233 254.837 867.342 253.473 866.869 251.947C866.429 253.483 865.623 254.966 864.184 255.836C862.723 254.944 861.906 253.387 861.498 251.84C860.993 253.365 860.102 254.805 858.641 255.621L857.717 254.418C859.865 253.193 860.703 250.594 860.725 248.789V247.457H862.314V248.789ZM873.98 257.941V259.273H860.445V257.941H866.396V256.029H868.072V257.941H873.98ZM867.234 260.176C870.736 260.176 872.799 261.164 872.799 262.926C872.799 264.752 870.736 265.697 867.234 265.697C863.668 265.697 861.605 264.752 861.627 262.926C861.605 261.164 863.668 260.176 867.234 260.176ZM867.234 261.4C864.699 261.422 863.281 261.98 863.303 262.926C863.281 263.914 864.699 264.473 867.234 264.451C869.705 264.473 871.145 263.914 871.145 262.926C871.145 261.98 869.705 261.422 867.234 261.4ZM881.994 248.123C884.809 248.145 886.807 250.723 886.828 254.783C886.807 258.844 884.809 261.422 881.994 261.422C879.158 261.422 877.182 258.844 877.182 254.783C877.182 250.723 879.158 248.145 881.994 248.123ZM881.994 249.627C880.104 249.648 878.771 251.668 878.771 254.783C878.771 257.898 880.104 259.918 881.994 259.918C883.906 259.918 885.195 257.898 885.195 254.783C885.195 251.668 883.906 249.648 881.994 249.627ZM891.662 246.641V254.268H894.863V255.729H891.662V265.74H889.986V246.641H891.662ZM913.77 254.268V255.686H910.676V265.74H909V246.641H910.676V254.268H913.77ZM898.365 248.531V259.467C901.158 259.456 904.005 259.241 907.152 258.586L907.367 260.025C904.08 260.691 901.115 260.885 898.215 260.885H896.689V248.531H898.365ZM929.689 246.641V254.418H932.783V255.836H929.689V265.74H928.014V246.641H929.689ZM924.748 248.703C924.748 254.117 922.213 259.037 915.982 262.109L915.037 260.777C919.979 258.317 922.664 254.644 923.051 250.121H915.918V248.703H924.748ZM942.172 248.23V251.152H948.381V248.23H950.057V256.824H946.125V260.24C947.887 260.176 949.659 260.047 951.303 259.832L951.41 261.1C947.371 261.744 942.838 261.809 939.486 261.83L939.207 260.391C940.765 260.38 942.559 260.369 944.428 260.305V256.824H940.496V248.23H942.172ZM942.172 255.449H948.381V252.463H942.172V255.449ZM954.203 246.641V254.676H957.318V256.094H954.203V265.74H952.527V246.641H954.203ZM975.945 261.873V263.291H958.457V261.873H962.797V256.717C961.164 255.868 960.176 254.493 960.176 252.764C960.176 249.799 963.076 247.865 967.158 247.844C971.24 247.865 974.141 249.799 974.141 252.764C974.141 254.461 973.185 255.825 971.605 256.674V261.873H975.945ZM967.158 249.24C964.021 249.219 961.809 250.637 961.809 252.764C961.809 254.891 964.021 256.33 967.158 256.33C970.273 256.33 972.508 254.891 972.508 252.764C972.508 250.637 970.273 249.219 967.158 249.24ZM964.451 261.873H969.908V257.318C969.081 257.544 968.157 257.662 967.158 257.662C966.181 257.662 965.268 257.555 964.451 257.34V261.873ZM980.564 248.445L980.414 259.617H978.609L978.459 248.445H980.564ZM979.512 264.129C978.76 264.129 978.115 263.506 978.137 262.732C978.115 261.98 978.76 261.357 979.512 261.357C980.264 261.357 980.887 261.98 980.887 262.732C980.887 263.506 980.264 264.129 979.512 264.129Z" fill="#222222"/>
<path d="M644.302 176.662V182.441H647.159V183.859H644.302V190.24H642.604V176.662H644.302ZM639.21 189.596C639.21 192.109 642.196 193.871 645.655 194.344L645.011 195.654C642.11 195.192 639.479 193.936 638.351 191.895C637.212 193.936 634.569 195.192 631.669 195.654L631.046 194.344C634.505 193.871 637.491 192.109 637.491 189.596V188.951H639.21V189.596ZM629.37 186.459C630.863 186.459 632.604 186.448 634.419 186.373V184.59C632.056 184.343 630.487 182.957 630.509 181.002C630.487 178.854 632.421 177.414 635.214 177.393C638.007 177.414 639.94 178.854 639.94 181.002C639.94 182.925 638.415 184.3 636.116 184.568V186.309C637.91 186.212 639.715 186.062 641.38 185.814L641.509 187.018C637.47 187.748 632.894 187.812 629.585 187.812L629.37 186.459ZM635.214 178.682C633.366 178.682 632.077 179.605 632.077 181.002C632.077 182.398 633.366 183.344 635.214 183.344C637.062 183.344 638.351 182.398 638.351 181.002C638.351 179.605 637.062 178.682 635.214 178.682ZM665.894 191.873V193.291H648.405V191.873H665.894ZM657.987 181.109C657.987 184.268 661.146 186.652 664.776 187.297L664.089 188.672C661.07 188.06 658.32 186.405 657.128 183.902C655.914 186.405 653.164 188.06 650.146 188.672L649.479 187.297C653.089 186.652 656.269 184.268 656.269 181.109H650.038V179.734H656.29V177.113H657.944V179.734H664.218V181.109H657.987ZM682.737 178.574V180.486C682.716 182.828 682.716 185.449 682.028 189.295L680.31 189.102C681.04 185.449 681.04 182.764 681.04 180.486V179.971H669.267V178.574H682.737ZM684.821 191.637V193.033H667.419V191.637H674.251V184.805H675.905V191.637H684.821ZM702.202 176.662V188.027H700.526V176.662H702.202ZM695.821 188.414C699.796 188.414 702.245 189.746 702.267 192.045C702.245 194.365 699.796 195.697 695.821 195.697C691.804 195.697 689.376 194.365 689.376 192.045C689.376 189.746 691.804 188.414 695.821 188.414ZM695.821 189.746C692.856 189.746 691.073 190.605 691.073 192.045C691.073 193.484 692.856 194.344 695.821 194.344C698.765 194.344 700.591 193.484 700.591 192.045C700.591 190.605 698.765 189.746 695.821 189.746ZM691.89 177.865C694.79 177.887 696.896 179.691 696.896 182.334C696.896 184.977 694.79 186.76 691.89 186.781C688.989 186.76 686.884 184.977 686.884 182.334C686.884 179.691 688.989 177.887 691.89 177.865ZM691.89 179.326C689.935 179.305 688.517 180.529 688.538 182.334C688.517 184.117 689.935 185.342 691.89 185.363C693.823 185.342 695.241 184.117 695.241 182.334C695.241 180.529 693.823 179.305 691.89 179.326ZM722.849 186.824V188.221H705.446V186.824H713.31V184.826C709.646 184.644 707.38 183.258 707.38 181.002C707.38 178.66 710.001 177.221 714.147 177.221C718.251 177.221 720.894 178.66 720.894 181.002C720.894 183.258 718.605 184.644 714.985 184.826V186.824H722.849ZM720.915 193.914V195.332H707.702V189.768H709.399V193.914H720.915ZM714.147 178.596C711.075 178.596 709.099 179.541 709.12 181.002C709.099 182.549 711.075 183.451 714.147 183.451C717.198 183.451 719.175 182.549 719.175 181.002C719.175 179.541 717.198 178.596 714.147 178.596ZM740.208 176.641V195.783H738.511V176.641H740.208ZM730.046 178.123C732.882 178.145 734.923 180.723 734.923 184.783C734.923 188.844 732.882 191.422 730.046 191.422C727.188 191.422 725.169 188.844 725.169 184.783C725.169 180.723 727.188 178.145 730.046 178.123ZM730.046 179.627C728.134 179.648 726.802 181.668 726.802 184.783C726.802 187.898 728.134 189.918 730.046 189.918C731.958 189.918 733.29 187.898 733.29 184.783C733.29 181.668 731.958 179.648 730.046 179.627ZM763.948 176.641V181.625H766.806V183.043H763.948V188.049H762.251V176.641H763.948ZM757.804 188.414C761.692 188.414 764.099 189.768 764.099 192.045C764.099 194.365 761.692 195.697 757.804 195.697C753.894 195.697 751.466 194.365 751.466 192.045C751.466 189.768 753.894 188.414 757.804 188.414ZM757.804 189.811C754.925 189.789 753.12 190.648 753.12 192.045C753.12 193.463 754.925 194.344 757.804 194.344C760.661 194.344 762.466 193.463 762.466 192.045C762.466 190.648 760.661 189.789 757.804 189.811ZM758.362 178.102V179.498H751.53V185.105C755.397 185.084 757.632 184.966 760.188 184.439L760.36 185.836C757.696 186.373 755.397 186.48 751.358 186.48H749.876V178.102H758.362ZM783.778 176.662V190.67H782.103V176.662H783.778ZM784.38 193.914V195.332H771.446V189.381H773.122V193.914H784.38ZM774.776 179.648C774.755 182.549 776.753 185.17 779.589 186.201L778.708 187.555C776.495 186.706 774.776 184.987 773.938 182.785C773.09 185.127 771.35 187.007 769.126 187.898L768.202 186.588C771.103 185.471 773.058 182.656 773.058 179.648V177.736H774.776V179.648ZM795.724 176.984C799.978 176.984 802.47 178.145 802.47 180.271C802.47 182.441 799.978 183.602 795.724 183.623C791.47 183.602 788.956 182.441 788.956 180.271C788.956 178.145 791.47 176.984 795.724 176.984ZM795.724 178.252C792.544 178.252 790.696 179.025 790.718 180.271C790.696 181.604 792.544 182.334 795.724 182.334C798.882 182.334 800.751 181.604 800.751 180.271C800.751 179.025 798.882 178.252 795.724 178.252ZM804.425 184.912V186.287H787.022V184.912H804.425ZM802.19 187.941V192.217H790.847V194.193H802.771V195.525H789.171V190.971H800.536V189.23H789.128V187.941H802.19ZM817.853 177.586C820.71 177.564 822.751 179.133 822.751 181.475C822.751 183.795 820.71 185.406 817.853 185.385C814.995 185.406 812.954 183.795 812.954 181.475C812.954 179.133 814.995 177.564 817.853 177.586ZM817.853 178.961C815.94 178.939 814.587 179.992 814.608 181.475C814.587 182.979 815.94 184.01 817.853 183.988C819.786 184.01 821.14 182.979 821.14 181.475C821.14 179.992 819.786 178.939 817.853 178.961ZM827.306 176.662V195.762H825.651V176.662H827.306ZM811.515 187.018C815.103 187.018 820.001 186.953 824.255 186.33L824.362 187.598C822.536 187.931 820.635 188.135 818.798 188.242V195.16H817.122V188.35C815.178 188.436 813.341 188.446 811.751 188.457L811.515 187.018ZM840.11 179.949V181.324H830.528V179.949H834.503V177.221H836.179V179.949H840.11ZM835.319 182.613C837.726 182.613 839.444 184.418 839.466 186.953C839.444 189.51 837.726 191.336 835.319 191.336C832.935 191.336 831.216 189.51 831.216 186.953C831.216 184.418 832.935 182.613 835.319 182.613ZM835.319 184.031C833.815 184.053 832.72 185.277 832.72 186.953C832.72 188.65 833.815 189.875 835.319 189.854C836.845 189.875 837.962 188.65 837.962 186.953C837.962 185.277 836.845 184.053 835.319 184.031ZM846.835 176.641V195.74H845.224V186.094H842.688V194.795H841.099V177.113H842.688V184.697H845.224V176.641H846.835ZM866.536 178.811V180.164H855.149V178.811H860.005V176.512H861.681V178.811H866.536ZM860.843 181.195C863.593 181.195 865.419 182.549 865.44 184.633C865.419 186.717 863.593 188.07 860.843 188.07C858.093 188.07 856.224 186.717 856.245 184.633C856.224 182.549 858.093 181.195 860.843 181.195ZM860.843 182.506C859.038 182.506 857.835 183.344 857.856 184.633C857.835 185.922 859.038 186.738 860.843 186.738C862.626 186.738 863.829 185.922 863.851 184.633C863.829 183.344 862.626 182.506 860.843 182.506ZM870.038 176.641V182.205H872.917V183.645H870.038V190.025H868.362V176.641H870.038ZM865.075 189.273C865.054 191.895 868.169 193.828 871.563 194.365L870.919 195.654C868.062 195.171 865.387 193.796 864.259 191.637C863.099 193.796 860.445 195.171 857.577 195.654L856.933 194.365C860.306 193.828 863.399 191.895 863.399 189.273V188.951H865.075V189.273ZM895.39 176.641V195.783H893.692V176.641H895.39ZM885.228 178.123C888.063 178.145 890.104 180.723 890.104 184.783C890.104 188.844 888.063 191.422 885.228 191.422C882.37 191.422 880.351 188.844 880.351 184.783C880.351 180.723 882.37 178.145 885.228 178.123ZM885.228 179.627C883.315 179.648 881.983 181.668 881.983 184.783C881.983 187.898 883.315 189.918 885.228 189.918C887.14 189.918 888.472 187.898 888.472 184.783C888.472 181.668 887.14 179.648 885.228 179.627ZM916.122 187.576V188.973H911.653V195.891H909.978V188.973H904.8V195.891H903.124V188.973H898.634V187.576H916.122ZM908.237 178.424C908.237 181.131 911.782 183.494 915.177 183.988L914.511 185.385C911.557 184.858 908.624 183.193 907.399 180.83C906.164 183.226 903.231 184.858 900.245 185.385L899.558 183.988C902.995 183.494 906.497 181.174 906.497 178.424V177.328H908.237V178.424ZM935.136 185.514V186.846H917.647V185.514H935.136ZM932.944 188.371V192.432H921.472V194.258H933.567V195.482H919.774V191.271H931.269V189.639H919.753V188.371H932.944ZM932.88 177.221V181.174H921.601V182.85H933.224V184.074H919.925V180.014H931.183V178.445H919.86V177.221H932.88ZM957.136 176.641V180.787H960.015V182.205H957.136V186.373H955.46V176.641H957.136ZM957.136 187.275V191.938H946.651V194.129H957.845V195.482H944.997V190.648H955.46V188.629H944.954V187.275H957.136ZM947.532 177.35C950.411 177.371 952.495 179.09 952.495 181.582C952.495 184.096 950.411 185.836 947.532 185.836C944.675 185.836 942.548 184.096 942.569 181.582C942.548 179.09 944.675 177.371 947.532 177.35ZM947.532 178.768C945.62 178.746 944.202 179.928 944.224 181.582C944.202 183.258 945.62 184.461 947.532 184.461C949.444 184.461 950.841 183.258 950.841 181.582C950.841 179.928 949.444 178.746 947.532 178.768ZM977.03 176.641V195.783H975.354V187.641H971.38V186.223H975.354V182.42H971.53V181.002H975.354V176.641H977.03ZM970.284 178.381V185.17H963.624V189.875C966.492 189.864 968.866 189.757 971.767 189.316L971.917 190.734C968.866 191.207 966.417 191.314 963.366 191.314H961.948V183.795H968.63V179.777H961.884V178.381H970.284ZM995.657 185.836V187.232H982.466V178.424H995.464V179.82H984.142V185.836H995.657ZM997.72 191.723V193.141H980.231V191.723H997.72ZM1008.98 177.586V182.248H1001.89V184.611C1005.51 184.611 1007.96 184.515 1010.95 184.053L1011.1 185.363C1008.03 185.857 1005.52 185.965 1001.76 185.965H1000.21V181.002H1007.32V178.896H1000.15V177.586H1008.98ZM1015.01 187.555V192.045H1004.32V194.172H1015.7V195.525H1002.64V190.777H1013.3V188.887H1002.6V187.555H1015.01ZM1015.01 176.641V186.717H1013.34V176.641H1015.01ZM1034.61 176.641V195.74H1033V176.641H1034.61ZM1030.59 177.156V194.773H1028.98V185.857H1024.94C1023.77 188.081 1021.93 190.047 1019.27 191.615L1018.28 190.391C1022.44 187.931 1024.52 184.482 1024.83 180.486H1019.1V179.09H1026.51C1026.5 180.97 1026.2 182.785 1025.56 184.482H1028.98V177.156H1030.59ZM1054.76 191.873V193.291H1037.27V191.873H1041.61V186.717C1039.98 185.868 1038.99 184.493 1038.99 182.764C1038.99 179.799 1041.89 177.865 1045.97 177.844C1050.06 177.865 1052.96 179.799 1052.96 182.764C1052.96 184.461 1052 185.825 1050.42 186.674V191.873H1054.76ZM1045.97 179.24C1042.84 179.219 1040.62 180.637 1040.62 182.764C1040.62 184.891 1042.84 186.33 1045.97 186.33C1049.09 186.33 1051.32 184.891 1051.32 182.764C1051.32 180.637 1049.09 179.219 1045.97 179.24ZM1043.27 191.873H1048.72V187.318C1047.9 187.544 1046.97 187.662 1045.97 187.662C1045 187.662 1044.08 187.555 1043.27 187.34V191.873ZM1059.38 178.445L1059.23 189.617H1057.42L1057.27 178.445H1059.38ZM1058.33 194.129C1057.58 194.129 1056.93 193.506 1056.95 192.732C1056.93 191.98 1057.58 191.357 1058.33 191.357C1059.08 191.357 1059.7 191.98 1059.7 192.732C1059.7 193.506 1059.08 194.129 1058.33 194.129Z" fill="#222222"/>
<path d="M719.908 113.38L722.081 106.324H724.937L723.765 113.38H719.908ZM741.343 104.884V106.324C741.343 107.826 741.343 109.791 740.635 112.354H746.055C746.568 110.438 746.69 108.961 746.739 107.667H742.613V104.884H750.132V106.397C750.108 107.997 750.108 109.925 749.571 112.354H752.476V115.187H743.956V117.799H749.961V126.075H734.507V117.799H740.464V115.187H732.066V112.354H737.095C737.669 110.401 737.84 108.912 737.901 107.667H733.848V104.884H741.343ZM737.974 120.509V123.341H746.47V120.509H737.974ZM777.11 103.932V108.521H780.015V111.402H777.11V115.016H773.594V103.932H777.11ZM770.713 105.323V114.723H759.849V105.323H770.713ZM763.316 108.033V111.964H767.247V108.033H763.316ZM764.585 116.822V122.877C765.745 122.792 766.783 122.621 767.808 122.291L768.296 125.001C766.514 125.66 764.805 125.758 762.461 125.758H761.143V116.822H764.585ZM778.794 117.066V119.557H767.54V117.066H771.495V115.553H774.913V117.066H778.794ZM773.155 120.045C775.743 120.045 777.525 121.241 777.549 123.194C777.525 125.123 775.743 126.319 773.155 126.319C770.518 126.319 768.76 125.123 768.76 123.194C768.76 121.241 770.518 120.045 773.155 120.045ZM773.155 122.389C772.422 122.413 771.885 122.633 771.885 123.194C771.885 123.78 772.422 124 773.155 124C773.863 124 774.4 123.78 774.4 123.194C774.4 122.633 773.863 122.413 773.155 122.389ZM801.304 115.284V118.043H780.87V115.284H801.304ZM798.96 123.17V125.978H783.287V119.41H786.802V123.17H798.96ZM791.075 104.591C796.006 104.591 799.278 106.349 799.302 109.205C799.278 112.11 796.006 113.893 791.075 113.917C786.119 113.893 782.847 112.11 782.847 109.205C782.847 106.349 786.119 104.591 791.075 104.591ZM791.075 107.35C788.121 107.374 786.485 107.984 786.509 109.205C786.485 110.499 788.121 111.061 791.075 111.061C794.004 111.061 795.665 110.499 795.665 109.205C795.665 107.984 794.004 107.374 791.075 107.35ZM827.037 103.932V117.018H823.545V114.381H819.712V115.919H808.97V105.567H819.712V107.105H823.545V103.932H827.037ZM812.461 108.326V113.136H816.27V108.326H812.461ZM819.297 117.579C824.131 117.579 827.085 119.19 827.11 121.974C827.085 124.757 824.131 126.368 819.297 126.344C814.512 126.368 811.558 124.757 811.558 121.974C811.558 119.19 814.512 117.579 819.297 117.579ZM819.297 120.24C816.49 120.24 815.049 120.753 815.049 121.974C815.049 123.146 816.49 123.683 819.297 123.707C822.154 123.683 823.594 123.146 823.619 121.974C823.594 120.753 822.154 120.24 819.297 120.24ZM819.712 111.549H823.545V109.84H819.712V111.549ZM850.132 114.869V117.652H841.929V121.29H838.462V117.652H829.649V114.869H850.132ZM847.52 104.884V113.282H832.164V104.884H847.52ZM835.606 107.594V110.572H844.078V107.594H835.606ZM847.886 123.17V125.978H831.968V119.435H835.484V123.17H847.886ZM869.053 103.932V112.354H872.056V115.235H869.053V126.271H865.538V103.932H869.053ZM862.999 106.178C862.999 112.989 860.508 118.8 852.891 122.535L850.914 119.85C856.053 117.274 858.812 113.929 859.434 109.059H852.256V106.178H862.999ZM886.973 109.791C886.949 113.16 888.511 117.091 892.344 118.824L890.391 121.583C887.925 120.484 886.241 118.324 885.264 115.772C884.275 118.604 882.518 120.973 879.942 122.169L877.916 119.386C881.797 117.579 883.409 113.453 883.409 109.791V108.912H878.843V106.056H891.319V108.912H886.973V109.791ZM896.25 103.932V112.33H899.424V115.235H896.25V126.344H892.735V103.932H896.25ZM919.517 103.932V126.344H916.197V103.932H919.517ZM914.903 104.249V125.343H911.631V114.308H908.946V111.5H911.631V104.249H914.903ZM907.334 109.815C907.334 113.502 908.311 117.213 911.631 119.117L909.605 121.681C907.664 120.57 906.419 118.714 905.674 116.456C904.917 118.91 903.636 120.985 901.67 122.193L899.571 119.605C902.916 117.53 903.941 113.526 903.941 109.815V108.912H900.474V106.104H910.508V108.912H907.334V109.815ZM934.117 105.86V108.619H921.763V105.86H926.353V103.736H929.869V105.86H934.117ZM928.062 109.254C931.163 109.254 933.433 110.987 933.458 113.478C933.433 115.968 931.163 117.652 928.062 117.652C924.961 117.652 922.764 115.968 922.764 113.478C922.764 110.987 924.961 109.254 928.062 109.254ZM928.062 111.866C926.841 111.866 926.036 112.403 926.036 113.478C926.036 114.552 926.841 115.064 928.062 115.064C929.307 115.064 930.186 114.552 930.186 113.478C930.186 112.403 929.307 111.866 928.062 111.866ZM940.66 103.932V118.141H937.168V116.017H934.385V113.209H937.168V111.5H934.458V108.692H937.168V103.932H940.66ZM932.994 118.434C937.779 118.434 940.757 119.898 940.782 122.389C940.757 124.854 937.779 126.368 932.994 126.344C928.184 126.368 925.181 124.854 925.181 122.389C925.181 119.898 928.184 118.434 932.994 118.434ZM932.994 121.07C930.308 121.095 928.892 121.461 928.892 122.389C928.892 123.292 930.308 123.707 932.994 123.707C935.606 123.707 936.998 123.292 936.998 122.389C936.998 121.461 935.606 121.095 932.994 121.07ZM948.863 113.38L951.036 106.324H953.892L952.72 113.38H948.863ZM954.551 113.38L956.724 106.324H959.581L958.409 113.38H954.551Z" fill="black"/>
<rect x="611" y="345" width="137" height="52" rx="10" fill="#C4C4C4"/>
<path d="M657.984 373.039V374.844H649.406V381.969H647.227V374.844H638.766V373.039H657.984ZM655.57 362.117V370.367H641.18V362.117H655.57ZM643.359 363.898V368.633H653.344V363.898H643.359ZM676.031 360.992V365.938H679.078V367.789H676.031V372.852H673.805V360.992H676.031ZM670.242 362.305C670.219 367.695 666.586 371.469 660.328 373.156L659.438 371.375C664.453 370.051 667.418 367.414 667.828 364.133H660.422V362.305H670.242ZM676.031 373.742V381.711H662.578V373.742H676.031ZM664.805 375.594V379.93H673.828V375.594H664.805ZM696.773 360.992V366.172H699.82V368.047H696.773V373.273H694.547V360.992H696.773ZM690.961 362.281C690.961 367.695 687.305 371.469 681.07 373.086L680.156 371.375C685.195 370.062 688.184 367.402 688.57 364.086H681.164V362.281H690.961ZM696.773 374.188V381.992H694.547V375.992H682.898V374.188H696.773ZM712.852 363.195V364.977H701.039V363.195H705.961V360.805H708.164V363.195H712.852ZM707.039 365.938C709.875 365.938 711.867 367.508 711.891 369.852C711.867 372.195 709.875 373.742 707.039 373.742C704.18 373.742 702.211 372.195 702.211 369.852C702.211 367.508 704.18 365.938 707.039 365.938ZM707.039 367.625C705.375 367.625 704.297 368.492 704.297 369.852C704.297 371.211 705.375 372.055 707.039 372.055C708.68 372.055 709.805 371.211 709.828 369.852C709.805 368.492 708.68 367.625 707.039 367.625ZM718.523 360.992V374.516H716.297V371.82H712.898V370.016H716.297V367.695H712.922V365.891H716.297V360.992H718.523ZM711.539 374.727C715.945 374.727 718.641 376.039 718.641 378.336C718.641 380.609 715.945 381.969 711.539 381.945C707.109 381.969 704.414 380.609 704.414 378.336C704.414 376.039 707.109 374.727 711.539 374.727ZM711.539 376.438C708.516 376.438 706.734 377.094 706.734 378.336C706.734 379.555 708.516 380.258 711.539 380.234C714.492 380.258 716.273 379.555 716.273 378.336C716.273 377.094 714.492 376.438 711.539 376.438Z" fill="white"/>
<rect x="941" y="345" width="137" height="52" rx="10" fill="#504F4F"/>
<path d="M996.176 370.672V372.453H989.824V377.586H998.379V379.414H979.16V377.586H987.621V372.453H981.551V362.609H995.988V364.414H983.777V370.672H996.176ZM1017.41 361.016V376.391H1015.18V368.492H1011.18V366.688H1015.18V361.016H1017.41ZM1017.97 379.742V381.547H1003.77V375.008H1006V379.742H1017.97ZM1007.43 365.258C1007.43 367.883 1009.32 370.508 1012.49 371.562L1011.34 373.344C1008.98 372.512 1007.24 370.824 1006.32 368.75C1005.41 371.059 1003.57 372.922 1001.07 373.812L999.926 372.008C1003.16 370.906 1005.15 368.141 1005.15 365.258V364.438H1000.61V362.609H1011.93V364.438H1007.43V365.258ZM1032.48 363.195V364.977H1020.67V363.195H1025.59V360.805H1027.79V363.195H1032.48ZM1026.67 365.938C1029.5 365.938 1031.5 367.508 1031.52 369.852C1031.5 372.195 1029.5 373.742 1026.67 373.742C1023.81 373.742 1021.84 372.195 1021.84 369.852C1021.84 367.508 1023.81 365.938 1026.67 365.938ZM1026.67 367.625C1025 367.625 1023.93 368.492 1023.93 369.852C1023.93 371.211 1025 372.055 1026.67 372.055C1028.31 372.055 1029.43 371.211 1029.46 369.852C1029.43 368.492 1028.31 367.625 1026.67 367.625ZM1038.15 360.992V374.516H1035.93V371.82H1032.53V370.016H1035.93V367.695H1032.55V365.891H1035.93V360.992H1038.15ZM1031.17 374.727C1035.57 374.727 1038.27 376.039 1038.27 378.336C1038.27 380.609 1035.57 381.969 1031.17 381.945C1026.74 381.969 1024.04 380.609 1024.04 378.336C1024.04 376.039 1026.74 374.727 1031.17 374.727ZM1031.17 376.438C1028.14 376.438 1026.36 377.094 1026.36 378.336C1026.36 379.555 1028.14 380.258 1031.17 380.234C1034.12 380.258 1035.9 379.555 1035.9 378.336C1035.9 377.094 1034.12 376.438 1031.17 376.438Z" fill="white"/>
<rect x="776" y="345" width="137" height="52" rx="10" fill="#939393"/>
<path d="M817.805 367.93V369.734H803.25V362.023H805.5V367.93H817.805ZM820.008 372.57V374.375H815.227V381.992H812.977V374.375H807.891V381.992H805.664V374.375H800.859V372.57H820.008ZM832.266 363.969C832.266 367.391 835.922 370.625 839.953 371.352L838.922 373.203C835.57 372.477 832.477 370.273 831.117 367.32C829.734 370.25 826.652 372.453 823.289 373.203L822.305 371.352C826.289 370.602 829.922 367.391 829.922 363.969V362.375H832.266V363.969ZM840.82 377.375V379.227H821.602V377.375H840.82ZM855.609 364.836C855.609 367.672 857.508 370.438 860.672 371.539L859.453 373.273C857.156 372.395 855.445 370.66 854.555 368.469C853.641 370.906 851.848 372.828 849.375 373.766L848.18 372.008C851.438 370.836 853.383 367.93 853.406 364.766V362.281H855.609V364.836ZM865.711 361.016V376.672H863.484V367.625H859.055V365.797H863.484V361.016H865.711ZM866.18 379.742V381.547H852V374.914H854.25V379.742H866.18ZM887.133 363.945V365.75H869.859V363.945H877.406V361.297H879.609V363.945H887.133ZM888.164 377.82V379.625H868.945V377.82H877.406V375.031C873.727 374.809 871.5 373.355 871.5 371.023C871.5 368.492 874.172 367.016 878.508 367.016C882.797 367.016 885.492 368.492 885.492 371.023C885.492 373.355 883.254 374.809 879.609 375.031V377.82H888.164ZM878.508 368.773C875.508 368.773 873.75 369.57 873.773 371.023C873.75 372.477 875.508 373.273 878.508 373.297C881.461 373.273 883.219 372.477 883.219 371.023C883.219 369.57 881.461 368.773 878.508 368.773Z" fill="white"/>
<path d="M319.797 142.031V377.463H94.8965V83.9683H264.704L319.797 142.031Z" fill="#D9D9D9" stroke="black" stroke-width="2" stroke-miterlimit="10"/>
<path d="M108.39 83.9682L136.027 48.4059C137.232 46.8537 139.519 46.6539 140.971 47.991L151.383 57.5193C152.882 58.9025 155.276 58.6259 156.435 56.9507L178.017 25.8145C179.376 23.8627 182.296 23.8934 183.609 25.8759L203.893 56.6741C205.068 58.4568 207.57 58.7027 209.084 57.212L220.053 46.3158C221.428 44.948 223.683 45.0249 224.965 46.4849L257.948 83.9529H108.405L108.39 83.9682Z" fill="white" stroke="black" stroke-width="2" stroke-miterlimit="10"/>
<path d="M136.502 42.3618C138.365 42.3618 139.875 40.8514 139.875 38.9883C139.875 37.1251 138.365 35.6147 136.502 35.6147C134.639 35.6147 133.128 37.1251 133.128 38.9883C133.128 40.8514 134.639 42.3618 136.502 42.3618Z" fill="white" stroke="black" stroke-width="2" stroke-miterlimit="10"/>
<path d="M221.965 41.2368C223.828 41.2368 225.338 39.7264 225.338 37.8633C225.338 36.0001 223.828 34.4897 221.965 34.4897C220.102 34.4897 218.591 36.0001 218.591 37.8633C218.591 39.7264 220.102 41.2368 221.965 41.2368Z" fill="white" stroke="black" stroke-width="2" stroke-miterlimit="10"/>
<path d="M180.358 18.747C182.222 18.747 183.732 17.2366 183.732 15.3735C183.732 13.5104 182.222 12 180.358 12C178.495 12 176.985 13.5104 176.985 15.3735C176.985 17.2366 178.495 18.747 180.358 18.747Z" fill="white" stroke="black" stroke-width="2" stroke-miterlimit="10"/>
<path d="M196.101 124.406C196.101 124.406 169.671 84.0407 140.131 117.44C140.131 117.44 133.912 121.296 130.802 150.839C127.693 180.382 95.0435 206.815 70.1677 185.047C45.2919 163.278 73.2771 152.394 79.4961 158.613C85.715 164.833 81.0508 175.717 74.8319 171.053" stroke="black" stroke-width="2" stroke-miterlimit="10" stroke-linecap="round"/>
<path d="M206.221 124.406C206.221 124.406 232.433 84.0407 261.729 117.44C261.729 117.44 267.896 121.296 270.98 150.839C274.064 180.382 306.443 206.815 331.114 185.047C355.784 163.278 328.03 152.394 321.862 158.613C315.695 164.833 320.32 175.717 326.488 171.053" stroke="black" stroke-width="2" stroke-miterlimit="10" stroke-linecap="round"/>
<path d="M167.989 149.189H151.121V181.8H167.989V149.189Z" fill="black"/>
<path d="M259.073 150.314H241.081V182.925H259.073V150.314Z" fill="black"/>
<path d="M167.988 149.189H147.747" stroke="black" stroke-width="2" stroke-miterlimit="10"/>
<path d="M167.988 181.8H147.747" stroke="black" stroke-width="2" stroke-miterlimit="10"/>
<path d="M259.074 150.314H238.833" stroke="black" stroke-width="2" stroke-miterlimit="10"/>
<path d="M259.074 182.924H238.833" stroke="black" stroke-width="2" stroke-miterlimit="10"/>
<path d="M319.796 231.179C319.796 231.179 341.57 210.477 346.236 215.077C350.902 219.678 324.245 280.756 324.245 280.756H319.796V231.179Z" fill="#D9D9D9" stroke="black" stroke-width="2" stroke-miterlimit="10"/>
<path d="M94.8958 231.463C94.8958 231.463 73.1217 210.41 68.4558 215.089C63.7899 219.767 90.4476 281.88 90.4476 281.88H94.8958V231.463Z" fill="#D9D9D9" stroke="black" stroke-width="2" stroke-miterlimit="10"/>
<path d="M203.973 166.057C203.973 166.057 207.025 183.184 210.076 184.741C213.128 186.298 219.094 183.184 220.696 184.741C222.298 186.298 210.076 206.539 210.076 206.539" stroke="black" stroke-width="2" stroke-miterlimit="10" stroke-linecap="round"/>
<path d="M196.662 242.523C200.699 242.523 203.972 236.985 203.972 230.154C203.972 223.322 200.699 217.784 196.662 217.784C192.625 217.784 189.353 223.322 189.353 230.154C189.353 236.985 192.625 242.523 196.662 242.523Z" fill="white" stroke="black" stroke-width="2" stroke-miterlimit="10"/>
<path d="M160.579 153.333C160.579 153.333 159.152 159.291 155.754 159.492C155.754 159.492 160.579 163.061 160.579 166.582" fill="white"/>
<path d="M160.627 153.333C160.627 153.333 162.055 159.291 165.452 159.492C165.452 159.492 160.627 163.061 160.627 166.582" fill="white"/>
<path d="M252.116 153.333C252.116 153.333 250.689 159.291 247.291 159.492C247.291 159.492 252.116 163.061 252.116 166.582" fill="white"/>
<path d="M252.164 153.333C252.164 153.333 253.591 159.291 256.989 159.492C256.989 159.492 252.164 163.061 252.164 166.582" fill="white"/>
<path d="M48.2407 109.97C44.3931 100.227 33.3623 95.4334 23.6193 99.2809C13.8762 103.129 9.08228 114.159 12.9299 123.902C15.0864 129.348 19.4769 133.257 24.6432 134.949C24.6432 134.949 27.7306 136.64 30.0888 140.549C30.9731 142.023 32.7883 142.659 34.4018 142.023L45.0912 137.803C46.6582 137.183 47.5735 135.538 47.2477 133.894C46.7668 131.411 46.3324 127.905 47.2477 126.028C49.8542 121.249 50.3972 115.4 48.2562 109.955L48.2407 109.97Z" fill="#EDECEC" stroke="black" stroke-width="2" stroke-miterlimit="10"/>
<path d="M46.5512 140.334L34.4734 145.104C33.8598 145.347 33.5588 146.04 33.8011 146.654L33.8068 146.669C34.0491 147.282 34.7431 147.583 35.3567 147.341L47.4345 142.571C48.0482 142.329 48.3492 141.635 48.1068 141.021L48.1011 141.007C47.8588 140.393 47.1649 140.092 46.5512 140.334Z" fill="black" stroke="black" stroke-miterlimit="10"/>
<path d="M46.8686 146.192L38.4992 149.497C37.9733 149.705 37.7153 150.3 37.923 150.826L38.0541 151.158C38.2618 151.684 38.8566 151.942 39.3825 151.734L47.7519 148.429C48.2779 148.221 48.5359 147.626 48.3282 147.1L48.1971 146.768C47.9894 146.242 47.3946 145.984 46.8686 146.192Z" fill="black" stroke="black" stroke-miterlimit="10"/>
<path d="M25.5889 106.262C25.5889 106.262 36.1387 101.577 41.4446 112.406" stroke="black" stroke-width="2" stroke-miterlimit="10" stroke-linecap="round"/>
<path d="M20.3931 89.1963L22.5185 94.5488" stroke="black" stroke-width="2" stroke-miterlimit="10" stroke-linecap="round"/>
<path d="M6.98633 97.6362L11.7803 100.817" stroke="black" stroke-width="2" stroke-miterlimit="10" stroke-linecap="round"/>
<path d="M1 111.506L6.66276 112.499" stroke="black" stroke-width="2" stroke-miterlimit="10" stroke-linecap="round"/>
<path d="M2.20898 126.85L7.56146 124.74" stroke="black" stroke-width="2" stroke-miterlimit="10" stroke-linecap="round"/>
<path d="M35.7035 86.2798L34.3848 91.8805" stroke="black" stroke-width="2" stroke-miterlimit="10" stroke-linecap="round"/>
<path d="M49.5608 92.3301L46.1011 96.9223" stroke="black" stroke-width="2" stroke-miterlimit="10" stroke-linecap="round"/>
<path d="M59.147 104.37L53.8101 106.48" stroke="black" stroke-width="2" stroke-miterlimit="10" stroke-linecap="round"/>
<path d="M342.628 95.8324C342.628 95.8324 326.939 93.7892 328.975 78.0363C331.012 62.2991 347.665 65.824 347.665 65.824C347.665 65.824 351.63 61.1293 357.959 63.3129C357.959 63.3129 365.469 53.83 379.432 58.0723C393.395 62.3147 394.67 72.3591 394.67 72.3591C394.67 72.3591 402.476 73.5912 405.834 79.83C409.193 86.0687 406.799 89.3909 406.799 89.3909C406.799 89.3909 413.656 95.0993 409.597 102.321C405.539 109.542 398.418 105.066 398.418 105.066C398.418 105.066 393.224 111.632 385.73 110.899C378.25 110.166 371.875 104.13 371.875 104.13C371.875 104.13 368.75 106.875 364.287 105.924C359.825 104.972 358.13 102.913 358.13 102.913C358.13 102.913 352.797 106.048 347.774 103.709C342.752 101.369 342.643 95.8168 342.643 95.8168L342.628 95.8324Z" fill="white" stroke="black" stroke-width="2" stroke-miterlimit="10" stroke-linecap="round"/>
<path d="M296.444 57.7794C296.444 57.7794 288.625 58.0785 288.319 50.4211C288.014 42.7636 296.428 43.0927 296.428 43.0927C296.428 43.0927 297.971 40.5352 301.239 41.0736C301.239 41.0736 304.125 35.9587 311.272 36.8411C318.419 37.7235 319.885 42.4047 319.885 42.4047C319.885 42.4047 323.795 42.3598 325.933 45.0519C328.071 47.744 327.185 49.5237 327.185 49.5237C327.185 49.5237 331.003 51.6923 329.613 55.4463C328.223 59.2002 324.39 57.6598 324.39 57.6598C324.39 57.6598 322.39 61.2043 318.694 61.4586C314.998 61.7128 311.379 59.3647 311.379 59.3647C311.379 59.3647 310.081 60.9202 307.821 60.8304C305.561 60.7407 304.568 59.9031 304.568 59.9031C304.568 59.9031 302.231 61.8175 299.589 61.1146C296.948 60.4117 296.444 57.7645 296.444 57.7645V57.7794Z" fill="#EDECEC" stroke="black" stroke-width="2" stroke-miterlimit="10" stroke-linecap="round"/>
<path d="M212.969 263.361C212.969 263.361 222.75 366.689 250.651 385.335C250.651 385.335 261.501 376.012 295.602 372.904C329.704 369.797 332.804 349.597 343.654 349.597C354.504 349.597 359.155 349.597 359.155 349.597C359.155 349.597 321.953 308.468 318.853 245.896" fill="#EDECEC"/>
<path d="M212.969 263.361C212.969 263.361 222.75 366.689 250.651 385.335C250.651 385.335 261.501 376.012 295.602 372.904C329.704 369.797 332.804 349.597 343.654 349.597C354.504 349.597 359.155 349.597 359.155 349.597C359.155 349.597 321.953 308.468 318.853 245.896" stroke="black" stroke-width="2" stroke-miterlimit="10"/>
<path d="M301.909 225.655C301.909 225.655 322.07 241.031 328.274 241.031C334.477 241.031 283.299 257.945 269.341 276.396C255.383 294.847 232.121 300.997 232.121 300.997C232.121 300.997 215.65 261.02 213.029 263.326C210.409 265.632 294.155 231.806 301.909 225.655Z" fill="white" stroke="black" stroke-width="2" stroke-miterlimit="10"/>
<path d="M200.6 263.361C200.6 263.361 190.819 366.689 162.918 385.335C162.918 385.335 152.068 376.012 117.967 372.904C83.8655 369.797 80.7654 349.597 69.9151 349.597H54.4146C54.4146 349.597 91.6158 308.468 94.7159 245.896" fill="#EDECEC"/>
<path d="M200.6 263.361C200.6 263.361 190.819 366.689 162.918 385.335C162.918 385.335 152.068 376.012 117.967 372.904C83.8655 369.797 80.7654 349.597 69.9151 349.597H54.4146C54.4146 349.597 91.6158 308.468 94.7159 245.896" stroke="black" stroke-width="2" stroke-miterlimit="10"/>
<path d="M111.659 225.655C111.659 225.655 91.4979 241.031 85.2944 241.031C79.091 241.031 130.269 257.945 144.227 276.396C158.185 294.847 181.448 300.997 181.448 300.997C181.448 300.997 197.918 261.02 200.539 263.326C203.16 265.632 119.413 231.806 111.659 225.655Z" fill="white" stroke="black" stroke-width="2" stroke-miterlimit="10"/>
<path d="M264.452 83.9683C264.452 83.9683 257.41 140.413 264.452 147.564C271.495 154.716 299.541 135.508 319.796 142.755" fill="#F4F4F4"/>
<path d="M264.452 83.9683C264.452 83.9683 257.41 140.413 264.452 147.564C271.495 154.716 299.541 135.508 319.796 142.755" stroke="black" stroke-width="2" stroke-miterlimit="10" stroke-linecap="round"/>
<path d="M265 84.5L320 142.5" stroke="black" stroke-width="2"/>
<defs>
<filter id="filter0_d_1035_872" x="459.338" y="0" width="708.554" height="479" filterUnits="userSpaceOnUse" color-interpolation-filters="sRGB">
<feFlood flood-opacity="0" result="BackgroundImageFix"/>
<feColorMatrix in="SourceAlpha" type="matrix" values="0 0 0 0 0 0 0 0 0 0 0 0 0 0 0 0 0 0 127 0" result="hardAlpha"/>
<feOffset dy="4"/>
<feGaussianBlur stdDeviation="2"/>
<feComposite in2="hardAlpha" operator="out"/>
<feColorMatrix type="matrix" values="0 0 0 0 0 0 0 0 0 0 0 0 0 0 0 0 0 0 0.25 0"/>
<feBlend mode="normal" in2="BackgroundImageFix" result="effect1_dropShadow_1035_872"/>
<feBlend mode="normal" in="SourceGraphic" in2="effect1_dropShadow_1035_872" result="shape"/>
</filter>
</defs>
</svg>
