<svg width="1164" height="560" viewBox="0 0 1164 560" fill="none" xmlns="http://www.w3.org/2000/svg">
<path d="M132.869 458.061V459.994C132.869 461.898 132.869 464.418 132.371 467.729H135.682V471.098H111.102V467.729H128.123C128.533 465.136 128.621 463.085 128.65 461.4H114.061V458.061H132.869ZM132.898 473.939V483.783H128.68V477.25H113.68V473.939H132.898ZM159.617 456.947V472.094H155.398V456.947H159.617ZM159.617 473.236V483.52H141.453V473.236H159.617ZM145.584 476.547V480.15H155.486V476.547H145.584ZM147.576 460.492C147.547 463.598 149.246 466.645 153.699 467.963L151.678 471.186C148.631 470.321 146.595 468.578 145.408 466.322C144.178 468.783 142.054 470.731 138.875 471.684L136.824 468.373C141.482 467.025 143.182 463.656 143.182 460.492V457.914H147.576V460.492ZM184.373 456.947V465.004H187.859V468.432H184.373V477.016H180.154V456.947H184.373ZM178.865 459.643V462.924H162.928V459.643H168.787V456.918H173.006V459.643H178.865ZM170.896 463.686C174.822 463.686 177.576 465.824 177.576 468.959C177.576 472.064 174.822 474.145 170.896 474.145C166.971 474.145 164.158 472.064 164.188 468.959C164.158 465.824 166.971 463.686 170.896 463.686ZM170.896 466.908C169.344 466.908 168.289 467.611 168.289 468.959C168.289 470.307 169.344 470.951 170.896 470.98C172.479 470.951 173.562 470.307 173.562 468.959C173.562 467.611 172.479 466.908 170.896 466.908ZM185.252 480.004V483.373H166.736V475.463H170.955V480.004H185.252ZM217.566 468.783V472.094H209.92V477.426H220.174V480.854H195.594V477.426H205.76V472.094H198.406V458.734H217.391V462.074H202.625V468.783H217.566ZM236.814 459.262V462.631H234.588V473.939C235.569 473.866 236.536 473.764 237.459 473.646L237.664 476.664C232.244 477.66 226.18 477.777 221.609 477.777L221.17 474.379L224.041 474.35V462.631H221.844V459.262H236.814ZM242.85 456.918V466.996H246.658V470.395H242.85V483.812H238.631V456.918H242.85ZM228.113 474.262L230.545 474.203V462.631H228.113V474.262ZM262.068 459.027V472.123H248.797V459.027H262.068ZM252.957 462.338V468.812H257.908V462.338H252.957ZM270.037 456.947V476.02H265.818V456.947H270.037ZM270.711 479.945V483.314H251.814V474.262H256.092V479.945H270.711ZM288.289 459.232V462.543H273.465V459.232H278.973V456.684H283.191V459.232H288.289ZM281.023 463.305C284.744 463.305 287.469 465.385 287.498 468.373C287.469 471.361 284.744 473.383 281.023 473.383C277.303 473.383 274.666 471.361 274.666 468.373C274.666 465.385 277.303 463.305 281.023 463.305ZM281.023 466.439C279.559 466.439 278.592 467.084 278.592 468.373C278.592 469.662 279.559 470.277 281.023 470.277C282.518 470.277 283.572 469.662 283.572 468.373C283.572 467.084 282.518 466.439 281.023 466.439ZM296.141 456.918V473.969H291.951V471.42H288.611V468.051H291.951V466H288.699V462.631H291.951V456.918H296.141ZM286.941 474.32C292.684 474.32 296.258 476.078 296.287 479.066C296.258 482.025 292.684 483.842 286.941 483.812C281.17 483.842 277.566 482.025 277.566 479.066C277.566 476.078 281.17 474.32 286.941 474.32ZM286.941 477.484C283.719 477.514 282.02 477.953 282.02 479.066C282.02 480.15 283.719 480.648 286.941 480.648C290.076 480.648 291.746 480.15 291.746 479.066C291.746 477.953 290.076 477.514 286.941 477.484Z" fill="#222222"/>
<g filter="url(#filter0_d_444_12)">
<path fill-rule="evenodd" clip-rule="evenodd" d="M580 0C546.311 0 519 27.3106 519 61V237.794L458.636 272.147C455.267 274.065 455.267 278.921 458.636 280.838L519 315.192V491C519 524.689 546.311 552 580 552H1097C1130.69 552 1158 524.689 1158 491V61C1158 27.3106 1130.69 0 1097 0H580Z" fill="white"/>
</g>
<path d="M767.715 224.455C767.715 227.721 771.453 230.643 774.783 231.266L774.01 232.684C771.131 232.018 768.091 229.966 766.855 227.141C765.62 229.955 762.591 232.007 759.701 232.684L758.928 231.266C762.236 230.621 765.953 227.742 765.953 224.455V222.994H767.715V224.455ZM775.686 236.744V238.141H758.197V236.744H775.686ZM792.443 223.596V225.959C792.443 228.773 792.443 231.373 791.648 235.24L789.951 235.09C790.37 233.253 790.585 231.663 790.703 230.17L779.037 230.814L778.801 229.418L790.768 228.924C790.8 227.914 790.8 226.937 790.811 225.959V225.014H779.316V223.596H792.443ZM794.613 236.637V238.055H777.211V236.637H794.613ZM812.445 221.662V232.232H810.834V227.57H808.148V232.039H806.58V222.006H808.148V226.217H810.834V221.662H812.445ZM801.531 233.113V235.305H810.791V233.113H812.445V240.482H799.855V233.113H801.531ZM801.531 239.107H810.791V236.68H801.531V239.107ZM804.303 222.801V227.699H798.738V230.234C801.252 230.202 803.175 230.105 805.441 229.633L805.635 231.029C803.164 231.502 801.123 231.609 798.352 231.609H797.105V226.41H802.691V224.176H797.062V222.801H804.303ZM827.227 225.186C827.227 227.721 829.096 230.041 831.932 231.029L831.072 232.34C828.892 231.566 827.227 229.998 826.41 228.021C825.594 230.191 823.843 231.878 821.598 232.705L820.695 231.395C823.553 230.385 825.551 227.914 825.572 225.186V224.369H821.211V222.994H831.523V224.369H827.227V225.186ZM835.691 221.641V226.689H838.57V228.129H835.691V233.156H834.016V221.641H835.691ZM835.691 234.166V240.74H834.016V235.541H823.188V234.166H835.691ZM846.348 224.648C846.326 227.377 848.26 229.783 851.074 230.729L850.129 232.039C848.023 231.244 846.369 229.697 845.553 227.678C844.726 229.966 842.975 231.749 840.676 232.619L839.752 231.244C842.695 230.213 844.65 227.678 844.672 224.713V222.736H846.348V224.648ZM855.607 221.641V232.963H853.91V227.141H849.656V225.744H853.91V221.641H855.607ZM849.27 233.521C853.244 233.521 855.672 234.832 855.672 237.131C855.672 239.408 853.244 240.697 849.27 240.697C845.295 240.697 842.867 239.408 842.867 237.131C842.867 234.832 845.295 233.521 849.27 233.521ZM849.27 234.854C846.348 234.854 844.521 235.713 844.543 237.131C844.521 238.506 846.348 239.344 849.27 239.344C852.191 239.344 853.996 238.506 853.996 237.131C853.996 235.713 852.191 234.854 849.27 234.854ZM869.379 223.768V224.756C869.357 226.26 869.357 228.795 868.82 232.34L867.123 232.189C867.639 228.988 867.682 226.668 867.682 225.143H859.668V223.768H869.379ZM864.373 229.225V235.025C866.489 234.95 868.659 234.811 870.646 234.574L870.732 235.842C866.715 236.465 862.225 236.551 858.809 236.529L858.594 235.133C859.851 235.122 861.247 235.111 862.719 235.068V229.225H864.373ZM873.525 221.641V229.633H876.619V231.094H873.525V240.74H871.85V221.641H873.525ZM898.254 221.641V226.732H901.133V228.172H898.254V233.156H896.578V221.641H898.254ZM898.254 234.252V240.482H886.201V234.252H898.254ZM887.855 235.605V239.107H896.578V235.605H887.855ZM894.752 223.682V225.078H883.365V223.682H888.221V221.49H889.896V223.682H894.752ZM889.059 226.023C891.809 226.023 893.635 227.377 893.656 229.418C893.635 231.502 891.809 232.834 889.059 232.834C886.287 232.834 884.439 231.502 884.461 229.418C884.439 227.377 886.287 226.023 889.059 226.023ZM889.059 227.334C887.254 227.334 886.051 228.172 886.072 229.418C886.051 230.729 887.254 231.523 889.059 231.545C890.842 231.523 892.045 230.729 892.066 229.418C892.045 228.172 890.842 227.334 889.059 227.334ZM907.084 223.961C907.062 227.979 906.504 232.49 903.711 236.186L902.379 235.412C904.774 232.415 905.483 228.881 905.623 225.357H902.766V223.961H907.084ZM911.316 223.961C911.306 225.519 911.273 227.312 911.037 229.16H913.572V222.156H915.184V239.773H913.572V230.557H910.822C910.382 232.941 909.544 235.358 907.986 237.453L906.676 236.658C909.318 233.285 909.759 228.924 909.834 225.357H907.686V223.961H911.316ZM918.771 221.641V240.74H917.139V221.641H918.771ZM743.33 248.467V249.885H736.262V259.617C739.699 259.617 741.977 259.499 744.619 258.994L744.834 260.391C742.02 260.928 739.699 261.057 736.025 261.057H734.564V248.467H743.33ZM749.453 246.641V265.783H747.756V254.998H742.191V253.602H747.756V246.641H749.453ZM773.064 246.641V250.959H775.943V252.377H773.064V256.438H771.389V246.641H773.064ZM767.779 247.908V255.686H758.949V247.908H767.779ZM760.604 249.283V254.332H766.146V249.283H760.604ZM761.807 258.156V263.828C762.913 263.796 764.385 263.635 765.738 263.184L765.996 264.537C764.127 265.16 762.322 265.225 761.076 265.225H760.174V258.156H761.807ZM774.977 258.35V259.639H765.33V258.35H769.348V256.652H771.002V258.35H774.977ZM770.143 260.326C772.227 260.348 773.709 261.357 773.73 263.012C773.709 264.666 772.227 265.697 770.143 265.697C768.037 265.697 766.576 264.666 766.598 263.012C766.576 261.357 768.037 260.348 770.143 260.326ZM770.143 261.529C768.961 261.529 768.102 262.109 768.102 263.012C768.102 263.914 768.961 264.516 770.143 264.494C771.346 264.516 772.184 263.914 772.184 263.012C772.184 262.109 771.346 261.529 770.143 261.529ZM794.549 256.717V258.092H777.146V256.717H794.549ZM792.615 263.914V265.332H779.402V259.768H781.1V263.914H792.615ZM785.848 247.328C789.951 247.307 792.594 248.725 792.594 251.109C792.594 253.494 789.951 254.912 785.848 254.912C781.701 254.912 779.08 253.494 779.08 251.109C779.08 248.725 781.701 247.307 785.848 247.328ZM785.848 248.682C782.775 248.682 780.799 249.605 780.82 251.109C780.799 252.613 782.775 253.537 785.848 253.537C788.898 253.537 790.875 252.613 790.875 251.109C790.875 249.605 788.898 248.682 785.848 248.682ZM810.383 259.832C814.572 259.832 816.936 260.842 816.957 262.775C816.936 264.709 814.572 265.719 810.383 265.74C806.15 265.719 803.787 264.709 803.787 262.775C803.787 260.842 806.15 259.832 810.383 259.832ZM810.383 261.078C807.268 261.078 805.506 261.701 805.506 262.775C805.506 263.871 807.268 264.451 810.383 264.451C813.477 264.451 815.238 263.871 815.238 262.775C815.238 261.701 813.477 261.078 810.383 261.078ZM818.074 248.295V249.605H802.584V248.295H809.545V246.361H811.221V248.295H818.074ZM810.383 250.4C814.336 250.4 816.57 251.367 816.57 253.172C816.57 254.977 814.336 255.922 810.383 255.922C806.43 255.922 804.174 254.977 804.174 253.172C804.174 251.367 806.43 250.4 810.383 250.4ZM810.383 251.582C807.568 251.582 805.957 252.162 805.979 253.172C805.957 254.16 807.568 254.719 810.383 254.719C813.176 254.719 814.787 254.16 814.787 253.172C814.787 252.162 813.176 251.582 810.383 251.582ZM819.084 257.189V258.521H801.682V257.189H819.084ZM830.643 248.531V260.949H821.812V248.531H830.643ZM823.467 249.885V259.574H828.988V249.885H823.467ZM836.443 246.641V265.783H834.746V246.641H836.443ZM857.176 255.514V256.846H839.688V255.514H857.176ZM854.984 258.371V262.432H843.512V264.258H855.607V265.482H841.814V261.271H853.309V259.639H841.793V258.371H854.984ZM854.92 247.221V251.174H843.641V252.85H855.264V254.074H841.965V250.014H853.223V248.445H841.9V247.221H854.92ZM879.713 251.582V252.936H873.783V255.363H881.646V256.76H864.244V255.363H872.107V252.936H866.629V247.07H868.305V251.582H879.713ZM879.734 258.672V260.025H876.77V264.107H879.885V265.482H866.027V264.107H869.143V260.025H866.199V258.672H879.734ZM870.818 264.107H875.115V260.025H870.818V264.107ZM888.393 248.123C890.144 248.134 891.562 249.154 892.389 250.916H897.416V246.641H899.092V265.783H897.416V258.371H892.518C891.712 260.305 890.24 261.422 888.393 261.422C885.578 261.422 883.602 258.844 883.602 254.783C883.602 250.723 885.578 248.145 888.393 248.123ZM888.393 249.627C886.502 249.648 885.213 251.668 885.213 254.783C885.213 257.898 886.502 259.918 888.393 259.918C890.262 259.918 891.572 257.898 891.572 254.783C891.572 251.668 890.262 249.648 888.393 249.627ZM892.883 252.334C893.055 253.075 893.162 253.892 893.162 254.783C893.162 255.567 893.076 256.309 892.947 256.975H897.416V252.334H892.883ZM905 248.23V251.152H911.209V248.23H912.885V256.824H908.953V260.24C910.715 260.176 912.487 260.047 914.131 259.832L914.238 261.1C910.199 261.744 905.666 261.809 902.314 261.83L902.035 260.391C903.593 260.38 905.387 260.369 907.256 260.305V256.824H903.324V248.23H905ZM905 255.449H911.209V252.463H905V255.449ZM917.031 246.641V254.676H920.146V256.094H917.031V265.74H915.355V246.641H917.031ZM938.773 261.873V263.291H921.285V261.873H925.625V256.717C923.992 255.868 923.004 254.493 923.004 252.764C923.004 249.799 925.904 247.865 929.986 247.844C934.068 247.865 936.969 249.799 936.969 252.764C936.969 254.461 936.013 255.825 934.434 256.674V261.873H938.773ZM929.986 249.24C926.85 249.219 924.637 250.637 924.637 252.764C924.637 254.891 926.85 256.33 929.986 256.33C933.102 256.33 935.336 254.891 935.336 252.764C935.336 250.637 933.102 249.219 929.986 249.24ZM927.279 261.873H932.736V257.318C931.909 257.544 930.985 257.662 929.986 257.662C929.009 257.662 928.096 257.555 927.279 257.34V261.873ZM943.393 248.445L943.242 259.617H941.438L941.287 248.445H943.393ZM942.34 264.129C941.588 264.129 940.943 263.506 940.965 262.732C940.943 261.98 941.588 261.357 942.34 261.357C943.092 261.357 943.715 261.98 943.715 262.732C943.715 263.506 943.092 264.129 942.34 264.129Z" fill="#222222"/>
<path d="M681.96 176.662V182.441H684.817V183.859H681.96V190.24H680.263V176.662H681.96ZM676.868 189.596C676.868 192.109 679.854 193.871 683.313 194.344L682.669 195.654C679.769 195.192 677.137 193.936 676.009 191.895C674.87 193.936 672.228 195.192 669.327 195.654L668.704 194.344C672.163 193.871 675.149 192.109 675.149 189.596V188.951H676.868V189.596ZM667.028 186.459C668.521 186.459 670.262 186.448 672.077 186.373V184.59C669.714 184.343 668.146 182.957 668.167 181.002C668.146 178.854 670.079 177.414 672.872 177.393C675.665 177.414 677.599 178.854 677.599 181.002C677.599 182.925 676.073 184.3 673.774 184.568V186.309C675.568 186.212 677.373 186.062 679.038 185.814L679.167 187.018C675.128 187.748 670.552 187.812 667.243 187.812L667.028 186.459ZM672.872 178.682C671.024 178.682 669.735 179.605 669.735 181.002C669.735 182.398 671.024 183.344 672.872 183.344C674.72 183.344 676.009 182.398 676.009 181.002C676.009 179.605 674.72 178.682 672.872 178.682ZM703.552 191.873V193.291H686.063V191.873H703.552ZM695.646 181.109C695.646 184.268 698.804 186.652 702.435 187.297L701.747 188.672C698.729 188.06 695.979 186.405 694.786 183.902C693.572 186.405 690.822 188.06 687.804 188.672L687.138 187.297C690.747 186.652 693.927 184.268 693.927 181.109H687.696V179.734H693.948V177.113H695.603V179.734H701.876V181.109H695.646ZM720.396 178.574V180.486C720.374 182.828 720.374 185.449 719.687 189.295L717.968 189.102C718.698 185.449 718.698 182.764 718.698 180.486V179.971H706.925V178.574H720.396ZM722.479 191.637V193.033H705.077V191.637H711.909V184.805H713.563V191.637H722.479ZM739.86 176.662V188.027H738.185V176.662H739.86ZM733.479 188.414C737.454 188.414 739.903 189.746 739.925 192.045C739.903 194.365 737.454 195.697 733.479 195.697C729.462 195.697 727.034 194.365 727.034 192.045C727.034 189.746 729.462 188.414 733.479 188.414ZM733.479 189.746C730.515 189.746 728.731 190.605 728.731 192.045C728.731 193.484 730.515 194.344 733.479 194.344C736.423 194.344 738.249 193.484 738.249 192.045C738.249 190.605 736.423 189.746 733.479 189.746ZM729.548 177.865C732.448 177.887 734.554 179.691 734.554 182.334C734.554 184.977 732.448 186.76 729.548 186.781C726.647 186.76 724.542 184.977 724.542 182.334C724.542 179.691 726.647 177.887 729.548 177.865ZM729.548 179.326C727.593 179.305 726.175 180.529 726.196 182.334C726.175 184.117 727.593 185.342 729.548 185.363C731.481 185.342 732.899 184.117 732.899 182.334C732.899 180.529 731.481 179.305 729.548 179.326ZM760.507 186.824V188.221H743.104V186.824H750.968V184.826C747.305 184.644 745.038 183.258 745.038 181.002C745.038 178.66 747.659 177.221 751.806 177.221C755.909 177.221 758.552 178.66 758.552 181.002C758.552 183.258 756.264 184.644 752.644 184.826V186.824H760.507ZM758.573 193.914V195.332H745.36V189.768H747.058V193.914H758.573ZM751.806 178.596C748.733 178.596 746.757 179.541 746.778 181.002C746.757 182.549 748.733 183.451 751.806 183.451C754.856 183.451 756.833 182.549 756.833 181.002C756.833 179.541 754.856 178.596 751.806 178.596ZM772.71 178.768V179.756C772.688 181.26 772.688 183.795 772.151 187.34L770.454 187.189C770.97 183.988 771.013 181.668 771.013 180.143H762.999V178.768H772.71ZM767.704 184.225V190.025C769.82 189.95 771.99 189.811 773.978 189.574L774.063 190.842C770.046 191.465 765.556 191.551 762.14 191.529L761.925 190.133C763.182 190.122 764.578 190.111 766.05 190.068V184.225H767.704ZM776.856 176.641V184.633H779.95V186.094H776.856V195.74H775.181V176.641H776.856ZM801.585 176.641V181.732H804.464V183.172H801.585V188.156H799.909V176.641H801.585ZM801.585 189.252V195.482H789.532V189.252H801.585ZM791.187 190.605V194.107H799.909V190.605H791.187ZM798.083 178.682V180.078H786.696V178.682H791.552V176.49H793.228V178.682H798.083ZM792.39 181.023C795.14 181.023 796.966 182.377 796.987 184.418C796.966 186.502 795.14 187.834 792.39 187.834C789.618 187.834 787.771 186.502 787.792 184.418C787.771 182.377 789.618 181.023 792.39 181.023ZM792.39 182.334C790.585 182.334 789.382 183.172 789.403 184.418C789.382 185.729 790.585 186.523 792.39 186.545C794.173 186.523 795.376 185.729 795.397 184.418C795.376 183.172 794.173 182.334 792.39 182.334ZM810.415 178.961C810.394 182.979 809.835 187.49 807.042 191.186L805.71 190.412C808.105 187.415 808.814 183.881 808.954 180.357H806.097V178.961H810.415ZM814.647 178.961C814.637 180.519 814.604 182.312 814.368 184.16H816.903V177.156H818.515V194.773H816.903V185.557H814.153C813.713 187.941 812.875 190.358 811.317 192.453L810.007 191.658C812.649 188.285 813.09 183.924 813.165 180.357H811.017V178.961H814.647ZM822.103 176.641V195.74H820.47V176.641H822.103ZM840.794 178.123V179.133C840.772 180.379 840.772 182.291 840.3 184.783L838.603 184.654C839.064 182.366 839.107 180.744 839.14 179.541H831.276V178.123H840.794ZM835.874 182.355V186.459C837.99 186.373 840.182 186.223 842.169 185.943L842.276 187.189C838.28 187.877 833.661 187.963 830.267 187.963L830.095 186.566C831.33 186.556 832.727 186.545 834.198 186.502V182.355H835.874ZM845.177 176.641V182.871H847.97V184.311H845.177V191.014H843.458V176.641H845.177ZM845.8 193.914V195.332H833.038V189.725H834.735V193.914H845.8ZM864.985 176.662V187.512H863.31V176.662H864.985ZM864.985 188.607V195.482H852.567V188.607H864.985ZM854.222 189.982V194.107H863.331V189.982H854.222ZM855.983 179.283C855.962 181.99 858.024 184.375 860.839 185.363L859.979 186.652C857.767 185.89 856.005 184.278 855.146 182.184C854.297 184.418 852.514 186.18 850.226 187.018L849.366 185.686C852.267 184.676 854.265 182.098 854.265 179.283V177.414H855.983V179.283ZM885.696 186.76V188.135H877.919V191.873H876.243V188.135H868.208V186.76H885.696ZM883.741 193.914V195.332H870.442V190.111H872.118V193.914H883.741ZM872.226 177.264V179.713H881.679V177.264H883.354V184.891H870.55V177.264H872.226ZM872.226 183.516H881.679V181.002H872.226V183.516ZM892.356 178.123C895.171 178.145 897.169 180.723 897.19 184.783C897.169 188.844 895.171 191.422 892.356 191.422C889.521 191.422 887.544 188.844 887.544 184.783C887.544 180.723 889.521 178.145 892.356 178.123ZM892.356 179.627C890.466 179.648 889.134 181.668 889.134 184.783C889.134 187.898 890.466 189.918 892.356 189.918C894.269 189.918 895.558 187.898 895.558 184.783C895.558 181.668 894.269 179.648 892.356 179.627ZM905.118 181.453V182.893H902.024V187.146H905.118V188.564H902.024V195.74H900.349V176.641H902.024V181.453H905.118ZM923.724 185.514V186.846H906.235V185.514H923.724ZM921.532 188.371V192.432H910.06V194.258H922.155V195.482H908.362V191.271H919.856V189.639H908.341V188.371H921.532ZM921.468 177.221V181.174H910.188V182.85H921.812V184.074H908.513V180.014H919.771V178.445H908.448V177.221H921.468ZM933.628 177.629V184.418C936.614 184.407 939.139 184.257 941.921 183.688L942.179 185.105C939.171 185.686 936.571 185.836 933.392 185.836H931.931V177.629H933.628ZM946.626 176.641V186.824H944.929V181.238H939.429V179.842H944.929V176.641H946.626ZM942.028 187.533V190.047H945.079V187.533H946.626V195.525H940.481V187.533H942.028ZM942.028 194.172H945.079V191.379H942.028V194.172ZM939.3 187.77V192.109H934.81V194.193C936.883 194.183 938.107 194.14 939.729 193.871L939.88 195.16C938.097 195.482 936.7 195.525 934.144 195.525H933.155V190.863H937.667V189.059H933.112V187.77H939.3ZM961.106 179.713V181.109H949.806V179.713H954.64V176.855H956.358V179.713H961.106ZM955.499 182.699C958.077 182.699 959.946 184.504 959.968 187.082C959.946 189.66 958.077 191.465 955.499 191.465C952.899 191.465 951.03 189.66 951.052 187.082C951.03 184.504 952.899 182.699 955.499 182.699ZM955.499 184.139C953.802 184.16 952.556 185.385 952.577 187.082C952.556 188.801 953.802 190.025 955.499 190.004C957.196 190.025 958.442 188.801 958.442 187.082C958.442 185.385 957.196 184.16 955.499 184.139ZM965.64 176.641V195.74H963.964V189.145H960.741V187.748H963.964V184.396H960.741V183H963.964V176.641H965.64ZM971.548 178.23V181.152H977.757V178.23H979.433V186.824H975.501V190.24C977.263 190.176 979.035 190.047 980.679 189.832L980.786 191.1C976.747 191.744 972.214 191.809 968.862 191.83L968.583 190.391C970.141 190.38 971.935 190.369 973.804 190.305V186.824H969.872V178.23H971.548ZM971.548 185.449H977.757V182.463H971.548V185.449ZM983.579 176.641V184.676H986.694V186.094H983.579V195.74H981.903V176.641H983.579ZM1005.32 191.873V193.291H987.833V191.873H992.173V186.717C990.54 185.868 989.552 184.493 989.552 182.764C989.552 179.799 992.452 177.865 996.534 177.844C1000.62 177.865 1003.52 179.799 1003.52 182.764C1003.52 184.461 1002.56 185.825 1000.98 186.674V191.873H1005.32ZM996.534 179.24C993.397 179.219 991.185 180.637 991.185 182.764C991.185 184.891 993.397 186.33 996.534 186.33C999.649 186.33 1001.88 184.891 1001.88 182.764C1001.88 180.637 999.649 179.219 996.534 179.24ZM993.827 191.873H999.284V187.318C998.457 187.544 997.533 187.662 996.534 187.662C995.557 187.662 994.644 187.555 993.827 187.34V191.873ZM1009.94 178.445L1009.79 189.617H1007.99L1007.83 178.445H1009.94ZM1008.89 194.129C1008.14 194.129 1007.49 193.506 1007.51 192.732C1007.49 191.98 1008.14 191.357 1008.89 191.357C1009.64 191.357 1010.26 191.98 1010.26 192.732C1010.26 193.506 1009.64 194.129 1008.89 194.129Z" fill="#222222"/>
<path d="M616.199 354.6V355.975H610.291V360.916H618.262V362.334H600.773V360.916H608.637V355.975H603.008V347.209H616.006V348.584H604.705V354.6H616.199ZM630.766 347.725V349.121H628.639V358.316C629.67 358.241 630.69 358.155 631.668 358.037L631.754 359.283C627.715 359.928 623.139 359.992 619.766 360.014L619.551 358.574L622.129 358.553V349.121H620.023V347.725H630.766ZM634.568 345.641V353.311H637.77V354.729H634.568V364.74H632.893V345.641H634.568ZM623.762 358.531C624.825 358.51 625.932 358.467 627.027 358.402V349.121H623.762V358.531ZM648.77 347.316V356.168H639.811V347.316H648.77ZM641.465 348.713V354.814H647.115V348.713H641.465ZM654.57 345.662V359.391H652.895V345.662H654.57ZM655.172 362.699V364.096H642.238V358.059H643.914V362.699H655.172ZM668.643 347.789V349.164H657.836V347.789H662.477V345.49H664.152V347.789H668.643ZM663.293 350.152C665.85 350.152 667.654 351.549 667.654 353.676C667.654 355.824 665.85 357.221 663.293 357.221C660.715 357.221 658.953 355.824 658.975 353.676C658.953 351.549 660.715 350.152 663.293 350.152ZM663.293 351.42C661.639 351.441 660.543 352.344 660.543 353.676C660.543 355.029 661.639 355.91 663.293 355.91C664.947 355.91 666.064 355.029 666.086 353.676C666.064 352.344 664.947 351.441 663.293 351.42ZM673.648 345.641V357.994H671.951V355.352H668.621V353.955H671.951V351.635H668.643V350.238H671.951V345.641H673.648ZM667.354 358.188C671.328 358.188 673.756 359.369 673.756 361.453C673.756 363.494 671.328 364.697 667.354 364.697C663.336 364.697 660.93 363.494 660.93 361.453C660.93 359.369 663.336 358.188 667.354 358.188ZM667.354 359.498C664.453 359.498 662.67 360.207 662.67 361.453C662.67 362.656 664.453 363.387 667.354 363.387C670.211 363.387 671.973 362.656 671.973 361.453C671.973 360.207 670.211 359.498 667.354 359.498Z" fill="#222222"/>
<path d="M606.961 397.445V413H605.006V399.465H604.92L601.139 401.979V400.023L605.006 397.445H606.961ZM626.727 395.641V414.74H625.072V404.75H622.43V413.795H620.818V396.156H622.43V403.354H625.072V395.641H626.727ZM618.648 398.133C618.627 402.988 616.93 407.586 611.43 410.637L610.441 409.455C614.878 406.984 616.715 403.482 616.994 399.529H611.172V398.133H618.648ZM639.08 397.381V406.168H630.25V397.381H639.08ZM631.904 398.756V404.814H637.447V398.756H631.904ZM644.365 395.641V401.463H647.244V402.881H644.365V409.648H642.689V395.641H644.365ZM645.246 412.914V414.332H632.42V408.316H634.074V412.914H645.246ZM664.883 397.102V398.498H662.928V404.041C663.905 403.987 664.872 403.901 665.785 403.783L665.914 405.072C662.025 405.674 657.492 405.717 654.227 405.738L654.033 404.299L656.504 404.277V398.498H654.57V397.102H664.883ZM668.9 407.736V414.482H656.848V407.736H668.9ZM658.502 409.09V413.107H667.225V409.09H658.502ZM668.9 395.641V400.238H671.779V401.656H668.9V406.727H667.225V395.641H668.9ZM658.158 404.256C659.179 404.234 660.221 404.202 661.273 404.148V398.498H658.158V404.256Z" fill="#222222"/>
<path d="M618.24 458.748V460.145H610.27V466.74H608.615V460.145H600.752V458.748H618.24ZM615.963 448.715V456.148H603.008V448.715H615.963ZM604.662 450.09V454.816H614.287V450.09H604.662ZM634.719 447.641V452.324H637.598V453.721H634.719V458.49H633.043V447.641H634.719ZM629.498 448.887C629.477 453.699 626.104 457.137 620.453 458.684L619.766 457.33C624.471 456.062 627.339 453.517 627.693 450.283H620.625V448.887H629.498ZM634.719 459.371V466.482H622.623V459.371H634.719ZM624.299 460.768V465.107H633.043V460.768H624.299ZM653.732 447.641V452.496H656.611V453.936H653.732V458.855H652.057V447.641H653.732ZM648.49 448.865C648.49 453.699 645.117 457.137 639.467 458.641L638.779 457.33C643.463 456.062 646.353 453.506 646.707 450.262H639.639V448.865H648.49ZM653.732 459.736V466.74H652.057V461.111H641.229V459.736H653.732ZM668.643 449.789V451.164H657.836V449.789H662.477V447.49H664.152V449.789H668.643ZM663.293 452.152C665.85 452.152 667.654 453.549 667.654 455.676C667.654 457.824 665.85 459.221 663.293 459.221C660.715 459.221 658.953 457.824 658.975 455.676C658.953 453.549 660.715 452.152 663.293 452.152ZM663.293 453.42C661.639 453.441 660.543 454.344 660.543 455.676C660.543 457.029 661.639 457.91 663.293 457.91C664.947 457.91 666.064 457.029 666.086 455.676C666.064 454.344 664.947 453.441 663.293 453.42ZM673.648 447.641V459.994H671.951V457.352H668.621V455.955H671.951V453.635H668.643V452.238H671.951V447.641H673.648ZM667.354 460.188C671.328 460.188 673.756 461.369 673.756 463.453C673.756 465.494 671.328 466.697 667.354 466.697C663.336 466.697 660.93 465.494 660.93 463.453C660.93 461.369 663.336 460.188 667.354 460.188ZM667.354 461.498C664.453 461.498 662.67 462.207 662.67 463.453C662.67 464.656 664.453 465.387 667.354 465.387C670.211 465.387 671.973 464.656 671.973 463.453C671.973 462.207 670.211 461.498 667.354 461.498Z" fill="#222222"/>
<rect x="702" y="343" width="375" height="24" rx="12" fill="#E6E6E6"/>
<rect x="702" y="395" width="375" height="24" rx="12" fill="#E6E6E6"/>
<rect x="702" y="447" width="375" height="24" rx="12" fill="#E6E6E6"/>
<rect x="702" y="343" width="375" height="24" rx="12" fill="#8F8F8F"/>
<rect x="702" y="395" width="201" height="24" rx="12" fill="#8F8F8F"/>
<rect x="702" y="447" width="330" height="24" rx="12" fill="#8F8F8F"/>
<path d="M75.8816 270.418L80.5183 160.304L139.806 103L314.806 110.337L307.052 294.609C306.984 296.369 307.011 298.129 307.133 299.889C308.163 313.602 312.908 376.281 314.806 384.904C316.935 394.61 301.113 401 286.62 401C272.127 401 262.542 386.623 248.13 389.818C233.732 393.013 211.335 410.585 192.138 388.221C172.94 365.857 154.271 382.63 154.271 382.63C154.271 382.63 125.285 407.39 98.7126 381.831C98.7126 381.831 97.2212 369.972 75.0817 374.304C52.9423 378.636 53.0372 367.454 54.5963 362.662C55.6267 359.467 64.3713 327.898 70.1061 307.172C73.4142 295.178 75.3529 282.845 75.8816 270.418Z" fill="#D9D9D9" stroke="black" stroke-width="2" stroke-miterlimit="10"/>
<path d="M139.479 103C139.479 103 144.307 160.613 136.759 167.556C129.21 174.498 101.164 153.805 80 160.288" fill="#F4F4F4"/>
<path d="M139.479 103C139.479 103 144.307 160.613 136.759 167.556C129.21 174.498 101.164 153.805 80 160.288" stroke="black" stroke-width="2" stroke-miterlimit="10" stroke-linecap="round"/>
<path d="M77 230.471C77 230.471 62.5079 224.215 60.9659 217.851C59.424 211.488 53.2037 242.147 75.5887 265" fill="#D9D9D9"/>
<path d="M77 230.471C77 230.471 62.5079 224.215 60.9659 217.851C59.424 211.488 53.2037 242.147 75.5887 265" stroke="black" stroke-width="2" stroke-miterlimit="10" stroke-linecap="round"/>
<path d="M309.113 242.105C309.113 242.105 326.044 233.38 327.612 227.015C329.18 220.65 344.423 244.411 307 293" fill="#D9D9D9"/>
<path d="M309.113 242.105C309.113 242.105 326.044 233.38 327.612 227.015C329.18 220.65 344.423 244.411 307 293" stroke="black" stroke-width="2" stroke-miterlimit="10" stroke-linecap="round"/>
<path d="M269 396C269 396 253.814 355.792 254.002 312" stroke="black" stroke-width="2" stroke-miterlimit="10" stroke-linecap="round"/>
<path d="M90 374C90 374 115 343.763 115 309" stroke="black" stroke-width="2" stroke-miterlimit="10" stroke-linecap="round"/>
<path d="M185 381C185 381 173.672 349.628 179.94 319.245C186.209 288.862 168.878 331.374 165 377.287" fill="#B2B2B2"/>
<path d="M185 381C185 381 173.672 349.628 179.94 319.245C186.209 288.862 168.878 331.374 165 377.287" stroke="black" stroke-width="2" stroke-miterlimit="10" stroke-linecap="round"/>
<path d="M165 212C171.627 212 177 203.27 177 192.5C177 181.73 171.627 173 165 173C158.373 173 153 181.73 153 192.5C153 203.27 158.373 212 165 212Z" fill="black"/>
<path d="M80.0309 399.168C80.0309 399.168 55.7576 390.155 47.6574 420.37C39.5571 450.584 -1.33662 425.948 4.19132 411.909C9.71926 397.87 25.387 407.091 22.4841 414.545C19.7554 421.551 12.8996 416.548 12.8996 416.548" stroke="black" stroke-width="2" stroke-miterlimit="10" stroke-linecap="round"/>
<path d="M240 245.065C240 245.065 233.879 256.581 203.953 251.161C174.028 245.742 178.109 220 178.109 220C178.109 220 157.705 237.613 159.065 247.097C160.425 256.581 184.91 255.226 188.991 256.581C193.071 257.935 195.792 262 202.593 262C209.394 262 216.196 255.226 216.196 255.226" fill="#F4F4F4"/>
<path d="M240 245.065C240 245.065 233.879 256.581 203.953 251.161C174.028 245.742 178.109 220 178.109 220C178.109 220 157.705 237.613 159.065 247.097C160.425 256.581 184.91 255.226 188.991 256.581C193.071 257.935 195.792 262 202.593 262C209.394 262 216.196 255.226 216.196 255.226" stroke="black" stroke-width="2" stroke-miterlimit="10" stroke-linecap="round"/>
<path d="M171 208C171 208 163.687 222.021 147 215.063" stroke="black" stroke-width="2" stroke-miterlimit="10" stroke-linecap="round"/>
<path d="M278.014 201.233C280.201 190.857 276.716 181.338 270.231 179.971C263.746 178.605 256.716 185.908 254.53 196.284C252.343 206.661 255.828 216.18 262.313 217.547C268.798 218.913 275.828 211.61 278.014 201.233Z" fill="black"/>
<path d="M257 213C257 213 261.179 227.902 279 224.493" stroke="black" stroke-width="2" stroke-miterlimit="10" stroke-linecap="round"/>
<path d="M278 88V118" stroke="black" stroke-width="2" stroke-miterlimit="10" stroke-linecap="round"/>
<path d="M286 78V140" stroke="black" stroke-width="2" stroke-miterlimit="10" stroke-linecap="round"/>
<path d="M303 72V148" stroke="black" stroke-width="2" stroke-miterlimit="10" stroke-linecap="round"/>
<path d="M307 81V131" stroke="black" stroke-width="2" stroke-miterlimit="10" stroke-linecap="round"/>
<path d="M295 55V176" stroke="black" stroke-width="2" stroke-miterlimit="10" stroke-linecap="round"/>
<path d="M356.087 131.15C354.544 131.929 373.924 121.079 380.691 123.765C387.458 126.45 392.871 138.535 394.225 135.849C395.578 133.164 403.062 129.914 414.891 136.239C426.719 142.563 452.514 108.001 437.356 87.619C436.653 86.6791 435.719 85.9272 434.636 85.4706C433.716 85.0812 432.484 84.6113 431.131 84.2219C428.654 83.4968 426.814 81.4559 426.462 78.9182C425.596 72.6074 422.023 62 407.758 62C389.15 62 381.909 74.4067 381.882 86.8268C381.882 88.9751 380.691 90.9489 378.878 92.1305C375.075 94.6011 368.985 99.1126 367.158 103.624C365.087 108.767 373.437 122.422 356.087 131.15Z" fill="white" stroke="black" stroke-width="2" stroke-miterlimit="10" stroke-linecap="round"/>
<path d="M327.477 82C327.477 82 342.435 65.6984 349.234 67.0569C356.033 68.4154 380.51 69.7738 377.79 49.3969C377.79 49.3969 376.525 46.6935 375.07 43.963C373.357 40.7435 373.711 36.3964 373.711 32.7557C373.711 28.6803 370.991 23.5861 360.113 19.5107C338.356 11.3599 335.636 38.5292 335.636 45.3215C335.636 52.1138 324.758 54.8307 326.118 57.5477C327.477 60.2646 331.557 72.4908 327.477 82Z" fill="#EDECEC" stroke="black" stroke-width="2" stroke-miterlimit="10" stroke-linecap="round"/>
<path d="M19.7572 133.2C19.7572 133.2 19.7572 146.629 29.1535 146.629C38.5497 146.629 39.8921 139.914 46.6037 141.257C53.3153 142.6 56 152 56 152C56 152 51.973 135.886 47.946 131.857C43.9191 127.829 46.6037 112.48 37.8786 113.447C29.1535 114.413 29.1535 105 22.4418 105C15.7302 105 -7.08937 121.114 19.7572 133.2Z" fill="#EDECEC" stroke="black" stroke-width="2" stroke-miterlimit="10" stroke-linecap="round"/>
<ellipse cx="171" cy="187.5" rx="2" ry="3.5" fill="white"/>
<ellipse cx="272.776" cy="192.921" rx="2.03394" ry="3.38991" transform="rotate(1.57894 272.776 192.921)" fill="white"/>
<path d="M164 377.5C168.333 376.833 179.4 376.701 185 381.501" stroke="black" stroke-width="2"/>
<path d="M80 160L139.5 103" stroke="black" stroke-width="2" stroke-linecap="round"/>
<path d="M309.5 243.5L308 242L304.5 295L308 290L309.5 243.5Z" fill="#D9D9D9"/>
<path d="M79.5 232.5L76.5 231.5L75 262.5L78 266L79.5 232.5Z" fill="#D9D9D9"/>
<path d="M826.206 76.6406V81.625H829.063V83.043H826.206V88.0488H824.509V76.6406H826.206ZM820.062 88.4141C823.95 88.4141 826.356 89.7676 826.356 92.0449C826.356 94.3652 823.95 95.6973 820.062 95.6973C816.151 95.6973 813.724 94.3652 813.724 92.0449C813.724 89.7676 816.151 88.4141 820.062 88.4141ZM820.062 89.8105C817.183 89.7891 815.378 90.6484 815.378 92.0449C815.378 93.4629 817.183 94.3438 820.062 94.3438C822.919 94.3438 824.724 93.4629 824.724 92.0449C824.724 90.6484 822.919 89.7891 820.062 89.8105ZM820.62 78.1016V79.498H813.788V85.1055C817.655 85.084 819.89 84.9658 822.446 84.4395L822.618 85.8359C819.954 86.373 817.655 86.4805 813.616 86.4805H812.134V78.1016H820.62ZM846.036 76.6621V90.6699H844.36V76.6621H846.036ZM846.638 93.9141V95.332H833.704V89.3809H835.38V93.9141H846.638ZM837.034 79.6484C837.013 82.5488 839.011 85.1699 841.847 86.2012L840.966 87.5547C838.753 86.7061 837.034 84.9873 836.196 82.7852C835.348 85.127 833.607 87.0068 831.384 87.8984L830.46 86.5879C833.36 85.4707 835.315 82.6562 835.315 79.6484V77.7363H837.034V79.6484ZM866.683 86.7168V88.0918H849.28V86.7168H866.683ZM864.749 93.9141V95.332H851.536V89.7676H853.233V93.9141H864.749ZM857.981 77.3281C862.085 77.3066 864.728 78.7246 864.728 81.1094C864.728 83.4941 862.085 84.9121 857.981 84.9121C853.835 84.9121 851.214 83.4941 851.214 81.1094C851.214 78.7246 853.835 77.3066 857.981 77.3281ZM857.981 78.6816C854.909 78.6816 852.933 79.6055 852.954 81.1094C852.933 82.6133 854.909 83.5371 857.981 83.5371C861.032 83.5371 863.009 82.6133 863.009 81.1094C863.009 79.6055 861.032 78.6816 857.981 78.6816Z" fill="#222222"/>
<path d="M743.028 116.38L745.201 109.324H748.058L746.886 116.38H743.028ZM748.717 116.38L750.89 109.324H753.746L752.574 116.38H748.717ZM779.308 107.884V109.495C779.308 111.082 779.308 113.182 778.893 115.94H781.651V118.748H761.168V115.94H775.353C775.694 113.78 775.768 112.071 775.792 110.667H763.634V107.884H779.308ZM779.332 121.116V129.319H775.816V123.875H763.316V121.116H779.332ZM801.598 106.956V119.578H798.082V106.956H801.598ZM801.598 120.53V129.1H786.461V120.53H801.598ZM789.903 123.289V126.292H798.155V123.289H789.903ZM791.563 109.91C791.539 112.498 792.955 115.037 796.666 116.136L794.981 118.821C792.442 118.101 790.746 116.648 789.757 114.769C788.731 116.819 786.961 118.443 784.312 119.236L782.604 116.478C786.485 115.354 787.901 112.547 787.901 109.91V107.762H791.563V109.91ZM822.228 106.956V113.67H825.133V116.526H822.228V123.68H818.712V106.956H822.228ZM817.638 109.202V111.937H804.356V109.202H809.239V106.932H812.755V109.202H817.638ZM810.997 112.571C814.269 112.571 816.563 114.354 816.563 116.966C816.563 119.554 814.269 121.287 810.997 121.287C807.726 121.287 805.382 119.554 805.406 116.966C805.382 114.354 807.726 112.571 810.997 112.571ZM810.997 115.257C809.703 115.257 808.824 115.843 808.824 116.966C808.824 118.089 809.703 118.626 810.997 118.65C812.315 118.626 813.219 118.089 813.219 116.966C813.219 115.843 812.315 115.257 810.997 115.257ZM822.96 126.17V128.978H807.53V122.386H811.046V126.17H822.96ZM849.889 116.819V119.578H843.517V124.021H852.062V126.878H831.578V124.021H840.05V119.578H833.922V108.445H849.742V111.229H837.438V116.819H849.889ZM865.929 108.885V111.692H864.073V121.116C864.891 121.055 865.697 120.97 866.466 120.872L866.637 123.387C862.12 124.217 857.066 124.314 853.258 124.314L852.892 121.482L855.284 121.458V111.692H853.453V108.885H865.929ZM870.958 106.932V115.33H874.132V118.162H870.958V129.344H867.442V106.932H870.958ZM858.678 121.385L860.704 121.336V111.692H858.678V121.385ZM886.974 108.689V119.603H875.914V108.689H886.974ZM879.381 111.448V116.844H883.507V111.448H879.381ZM893.614 106.956V122.85H890.099V106.956H893.614ZM894.176 126.121V128.929H878.429V121.385H881.993V126.121H894.176ZM908.824 108.86V111.619H896.471V108.86H901.061V106.736H904.576V108.86H908.824ZM902.77 112.254C905.87 112.254 908.141 113.987 908.165 116.478C908.141 118.968 905.87 120.652 902.77 120.652C899.669 120.652 897.472 118.968 897.472 116.478C897.472 113.987 899.669 112.254 902.77 112.254ZM902.77 114.866C901.549 114.866 900.743 115.403 900.743 116.478C900.743 117.552 901.549 118.064 902.77 118.064C904.015 118.064 904.894 117.552 904.894 116.478C904.894 115.403 904.015 114.866 902.77 114.866ZM915.367 106.932V121.141H911.876V119.017H909.093V116.209H911.876V114.5H909.166V111.692H911.876V106.932H915.367ZM907.701 121.434C912.486 121.434 915.465 122.898 915.489 125.389C915.465 127.854 912.486 129.368 907.701 129.344C902.892 129.368 899.889 127.854 899.889 125.389C899.889 122.898 902.892 121.434 907.701 121.434ZM907.701 124.07C905.016 124.095 903.6 124.461 903.6 125.389C903.6 126.292 905.016 126.707 907.701 126.707C910.313 126.707 911.705 126.292 911.705 125.389C911.705 124.461 910.313 124.095 907.701 124.07ZM923.57 116.38L925.743 109.324H928.6L927.428 116.38H923.57ZM929.259 116.38L931.432 109.324H934.288L933.116 116.38H929.259Z" fill="black"/>
<defs>
<filter id="filter0_d_444_12" x="452.109" y="0" width="709.891" height="560" filterUnits="userSpaceOnUse" color-interpolation-filters="sRGB">
<feFlood flood-opacity="0" result="BackgroundImageFix"/>
<feColorMatrix in="SourceAlpha" type="matrix" values="0 0 0 0 0 0 0 0 0 0 0 0 0 0 0 0 0 0 127 0" result="hardAlpha"/>
<feOffset dy="4"/>
<feGaussianBlur stdDeviation="2"/>
<feComposite in2="hardAlpha" operator="out"/>
<feColorMatrix type="matrix" values="0 0 0 0 0 0 0 0 0 0 0 0 0 0 0 0 0 0 0.25 0"/>
<feBlend mode="normal" in2="BackgroundImageFix" result="effect1_dropShadow_444_12"/>
<feBlend mode="normal" in="SourceGraphic" in2="effect1_dropShadow_444_12" result="shape"/>
</filter>
</defs>
</svg>
