<svg width="1108" height="479" viewBox="0 0 1108 479" fill="none" xmlns="http://www.w3.org/2000/svg">
<path d="M65.6045 441.141V444.48H43.1338V441.141H52.2451V438.152H56.4639V441.141H65.6045ZM66.7178 458.836V462.205H42.1377V458.836H52.2451V455.936C47.748 455.511 45.0381 453.636 45.0381 450.721C45.0381 447.41 48.6123 445.447 54.3545 445.447C60.0088 445.447 63.6123 447.41 63.6123 450.721C63.6123 453.621 60.8877 455.511 56.4639 455.936V458.836H66.7178ZM54.3545 448.729C51.0439 448.729 49.4033 449.314 49.4033 450.721C49.4033 452.156 51.0439 452.713 54.3545 452.713C57.5771 452.713 59.2764 452.156 59.2764 450.721C59.2764 449.314 57.5771 448.729 54.3545 448.729ZM90.7705 437.918V464.812H86.4932V437.918H90.7705ZM82.6846 440.701C82.6846 448.992 80.0479 455.73 70.2627 460.33L68.0654 456.99C74.9062 453.753 77.7773 449.783 78.3779 443.982H69.5889V440.701H82.6846ZM116.581 437.947V453.094H112.362V437.947H116.581ZM116.581 454.236V464.52H98.417V454.236H116.581ZM102.548 457.547V461.15H112.45V457.547H102.548ZM104.54 441.492C104.511 444.598 106.21 447.645 110.663 448.963L108.642 452.186C105.595 451.321 103.559 449.578 102.372 447.322C101.142 449.783 99.0176 451.731 95.8389 452.684L93.7881 449.373C98.4463 448.025 100.146 444.656 100.146 441.492V438.914H104.54V441.492ZM141.571 437.947V444.568H144.823V448.055H141.571V454.734H137.353V437.947H141.571ZM132.401 455.086C138.114 455.086 141.63 456.873 141.659 459.979C141.63 462.967 138.114 464.842 132.401 464.812C126.659 464.842 123.085 462.967 123.085 459.979C123.085 456.873 126.659 455.086 132.401 455.086ZM132.401 458.25C129.003 458.25 127.245 458.777 127.274 459.979C127.245 461.092 129.003 461.619 132.401 461.648C135.712 461.619 137.47 461.092 137.47 459.979C137.47 458.777 135.712 458.25 132.401 458.25ZM119.833 450.604C121.635 450.604 123.715 450.604 125.897 450.545V448.875C123.056 448.274 121.181 446.37 121.181 443.865C121.181 440.818 123.993 438.65 127.978 438.65C131.933 438.65 134.745 440.818 134.774 443.865C134.745 446.341 132.929 448.23 130.146 448.875V450.398C132.123 450.296 134.086 450.135 135.917 449.9L136.298 452.771C130.819 453.738 124.755 453.826 120.243 453.855L119.833 450.604ZM127.978 441.785C126.22 441.785 125.077 442.459 125.106 443.865C125.077 445.271 126.22 446.062 127.978 446.062C129.677 446.062 130.819 445.271 130.819 443.865C130.819 442.459 129.677 441.785 127.978 441.785ZM174.53 449.783V453.094H166.884V458.426H177.138V461.854H152.558V458.426H162.724V453.094H155.37V439.734H174.354V443.074H159.589V449.783H174.53ZM191.464 439.764V448.611H183.671V451.219C187.025 451.189 189.486 451.028 192.196 450.545L192.665 453.943C189.237 454.529 186.19 454.617 181.562 454.617H179.452V445.506H187.216V443.104H179.452V439.764H191.464ZM201.249 437.947V457.811H197.06V451.307H192.929V447.938H197.06V445.213H192.929V441.873H197.06V437.947H201.249ZM201.894 460.945V464.373H183.056V456.258H187.245V460.945H201.894ZM226.972 437.918V452.947H222.782V437.918H226.972ZM210.126 439.471V448.348C214.081 448.304 217.348 448.025 220.731 447.293L221.2 450.691C217.157 451.57 213.173 451.863 208.28 451.893H205.907V439.471H210.126ZM226.972 454.002V464.49H208.866V454.002H226.972ZM212.997 457.283V461.209H222.841V457.283H212.997ZM245.253 440.232V443.543H230.429V440.232H235.937V437.684H240.155V440.232H245.253ZM237.987 444.305C241.708 444.305 244.433 446.385 244.462 449.373C244.433 452.361 241.708 454.383 237.987 454.383C234.267 454.383 231.63 452.361 231.63 449.373C231.63 446.385 234.267 444.305 237.987 444.305ZM237.987 447.439C236.522 447.439 235.556 448.084 235.556 449.373C235.556 450.662 236.522 451.277 237.987 451.277C239.481 451.277 240.536 450.662 240.536 449.373C240.536 448.084 239.481 447.439 237.987 447.439ZM253.104 437.918V454.969H248.915V452.42H245.575V449.051H248.915V447H245.663V443.631H248.915V437.918H253.104ZM243.905 455.32C249.647 455.32 253.222 457.078 253.251 460.066C253.222 463.025 249.647 464.842 243.905 464.812C238.134 464.842 234.53 463.025 234.53 460.066C234.53 457.078 238.134 455.32 243.905 455.32ZM243.905 458.484C240.683 458.514 238.983 458.953 238.983 460.066C238.983 461.15 240.683 461.648 243.905 461.648C247.04 461.648 248.71 461.15 248.71 460.066C248.71 458.953 247.04 458.514 243.905 458.484Z" fill="#222222"/>
<g filter="url(#filter0_d_1091_4)">
<path fill-rule="evenodd" clip-rule="evenodd" d="M523.891 0C490.202 0 462.891 27.3106 462.891 61V202.9L404.154 231.423C400.399 233.246 400.399 238.595 404.154 240.418L462.891 268.941V410C462.891 443.689 490.202 471 523.891 471H1040.89C1074.58 471 1101.89 443.689 1101.89 410V61C1101.89 27.3106 1074.58 0 1040.89 0H523.891Z" fill="white"/>
</g>
<path d="M678.617 75.6406V80.625H681.475V82.043H678.617V87.0488H676.92V75.6406H678.617ZM672.473 87.4141C676.361 87.4141 678.768 88.7676 678.768 91.0449C678.768 93.3652 676.361 94.6973 672.473 94.6973C668.562 94.6973 666.135 93.3652 666.135 91.0449C666.135 88.7676 668.562 87.4141 672.473 87.4141ZM672.473 88.8105C669.594 88.7891 667.789 89.6484 667.789 91.0449C667.789 92.4629 669.594 93.3438 672.473 93.3438C675.33 93.3438 677.135 92.4629 677.135 91.0449C677.135 89.6484 675.33 88.7891 672.473 88.8105ZM673.031 77.1016V78.498H666.199V84.1055C670.066 84.084 672.301 83.9658 674.857 83.4395L675.029 84.8359C672.365 85.373 670.066 85.4805 666.027 85.4805H664.545V77.1016H673.031ZM698.447 75.6621V89.6699H696.771V75.6621H698.447ZM699.049 92.9141V94.332H686.115V88.3809H687.791V92.9141H699.049ZM689.445 78.6484C689.424 81.5488 691.422 84.1699 694.258 85.2012L693.377 86.5547C691.164 85.7061 689.445 83.9873 688.607 81.7852C687.759 84.127 686.019 86.0068 683.795 86.8984L682.871 85.5879C685.771 84.4707 687.727 81.6562 687.727 78.6484V76.7363H689.445V78.6484ZM719.094 85.7168V87.0918H701.691V85.7168H719.094ZM717.16 92.9141V94.332H703.947V88.7676H705.645V92.9141H717.16ZM710.393 76.3281C714.496 76.3066 717.139 77.7246 717.139 80.1094C717.139 82.4941 714.496 83.9121 710.393 83.9121C706.246 83.9121 703.625 82.4941 703.625 80.1094C703.625 77.7246 706.246 76.3066 710.393 76.3281ZM710.393 77.6816C707.32 77.6816 705.344 78.6055 705.365 80.1094C705.344 81.6133 707.32 82.5371 710.393 82.5371C713.443 82.5371 715.42 81.6133 715.42 80.1094C715.42 78.6055 713.443 77.6816 710.393 77.6816ZM732.006 93.2148C728.547 93.2148 726.57 90.3145 726.57 85.2227C726.57 80.1738 728.59 77.2305 732.006 77.2305C735.422 77.2305 737.441 80.1738 737.441 85.2227C737.441 90.3145 735.443 93.2148 732.006 93.2148ZM732.006 91.4961C734.24 91.4961 735.551 89.2402 735.551 85.2227C735.551 81.2051 734.24 78.9062 732.006 78.9062C729.771 78.9062 728.439 81.2051 728.439 85.2227C728.439 89.2402 729.75 91.4961 732.006 91.4961ZM745.111 93.2148C741.652 93.2148 739.676 90.3145 739.676 85.2227C739.676 80.1738 741.695 77.2305 745.111 77.2305C748.527 77.2305 750.547 80.1738 750.547 85.2227C750.547 90.3145 748.549 93.2148 745.111 93.2148ZM745.111 91.4961C747.346 91.4961 748.656 89.2402 748.656 85.2227C748.656 81.2051 747.346 78.9062 745.111 78.9062C742.877 78.9062 741.545 81.2051 741.545 85.2227C741.545 89.2402 742.855 91.4961 745.111 91.4961ZM769.904 85.7598V87.1348H762.127V90.873H760.451V87.1348H752.416V85.7598H769.904ZM767.949 92.9141V94.332H754.65V89.1113H756.326V92.9141H767.949ZM756.434 76.2637V78.7129H765.887V76.2637H767.562V83.8906H754.758V76.2637H756.434ZM756.434 82.5156H765.887V80.002H756.434V82.5156ZM776.564 77.123C779.379 77.1445 781.377 79.7227 781.398 83.7832C781.377 87.8438 779.379 90.4219 776.564 90.4219C773.729 90.4219 771.752 87.8438 771.752 83.7832C771.752 79.7227 773.729 77.1445 776.564 77.123ZM776.564 78.627C774.674 78.6484 773.342 80.668 773.342 83.7832C773.342 86.8984 774.674 88.918 776.564 88.918C778.477 88.918 779.766 86.8984 779.766 83.7832C779.766 80.668 778.477 78.6484 776.564 78.627ZM789.326 80.4531V81.8926H786.232V86.1465H789.326V87.5645H786.232V94.7402H784.557V75.6406H786.232V80.4531H789.326ZM806.836 75.6406V94.7402H805.203V75.6406H806.836ZM802.99 76.0488V93.7734H801.379V84.4922H798.93C798.747 88.209 797.168 90.5293 794.805 90.5293C792.312 90.5293 790.701 87.9512 790.701 83.8906C790.701 79.8301 792.312 77.252 794.805 77.252C797.125 77.252 798.693 79.4971 798.908 83.0957H801.379V76.0488H802.99ZM794.805 78.8418C793.258 78.8418 792.27 80.7754 792.291 83.8906C792.27 86.9844 793.258 88.9395 794.805 88.918C796.352 88.9395 797.34 86.9844 797.34 83.8906C797.34 80.7754 796.352 78.8418 794.805 78.8418ZM825.592 77.123V78.1328C825.57 79.3789 825.57 81.291 825.098 83.7832L823.4 83.6543C823.862 81.3662 823.905 79.7441 823.938 78.541H816.074V77.123H825.592ZM820.672 81.3555V85.459C822.788 85.373 824.979 85.2227 826.967 84.9434L827.074 86.1895C823.078 86.877 818.459 86.9629 815.064 86.9629L814.893 85.5664C816.128 85.5557 817.524 85.5449 818.996 85.502V81.3555H820.672ZM829.975 75.6406V81.8711H832.768V83.3105H829.975V90.0137H828.256V75.6406H829.975ZM830.598 92.9141V94.332H817.836V88.7246H819.533V92.9141H830.598ZM849.783 75.6621V86.5117H848.107V75.6621H849.783ZM849.783 87.6074V94.4824H837.365V87.6074H849.783ZM839.02 88.9824V93.1074H848.129V88.9824H839.02ZM840.781 78.2832C840.76 80.9902 842.822 83.375 845.637 84.3633L844.777 85.6523C842.564 84.8896 840.803 83.2783 839.943 81.1836C839.095 83.418 837.312 85.1797 835.023 86.0176L834.164 84.6855C837.064 83.6758 839.062 81.0977 839.062 78.2832V76.4141H840.781V78.2832ZM859.494 88.4668C859.494 90.1533 860.396 91.9473 862.223 92.9785C864.027 91.8506 864.994 89.9492 864.994 88.4668V87.4141H866.648V88.4668C866.648 90.4219 868.088 92.3984 870.537 93.2363L869.699 94.4824C867.787 93.8057 866.444 92.4736 865.789 90.873C865.198 92.4199 864.027 93.8809 862.266 94.6328C860.407 93.9238 859.226 92.5166 858.656 90.916C857.979 92.4629 856.658 93.7949 854.832 94.4824L853.973 93.2363C856.379 92.334 857.84 90.293 857.861 88.4668V87.4141H859.494V88.4668ZM868.797 75.6621V86.5762H867.121V75.6621H868.797ZM858.484 76.7793C861.385 76.7793 863.49 78.584 863.49 81.248C863.49 83.8691 861.385 85.6738 858.484 85.6738C855.584 85.6738 853.479 83.8691 853.479 81.248C853.479 78.584 855.584 76.7793 858.484 76.7793ZM858.484 78.2188C856.529 78.1973 855.111 79.4648 855.133 81.248C855.111 83.0098 856.529 84.2559 858.484 84.2773C860.418 84.2559 861.836 83.0098 861.836 81.248C861.836 79.4648 860.418 78.1973 858.484 78.2188ZM887.488 81.4414V82.7949H874.404V76.3496H876.08V81.4414H887.488ZM889.508 85.3945V86.7695H872.02V85.3945H889.508ZM887.596 92.8711V94.2676H874.297V88.7246H875.973V92.8711H887.596ZM894.191 91.5605L892.516 97.4043H890.926L892.107 91.5605H894.191Z" fill="#222222"/>
<path d="M658.55 224.455C658.55 227.721 662.288 230.643 665.618 231.266L664.845 232.684C661.966 232.018 658.926 229.966 657.69 227.141C656.455 229.955 653.426 232.007 650.536 232.684L649.763 231.266C653.071 230.621 656.788 227.742 656.788 224.455V222.994H658.55V224.455ZM666.521 236.744V238.141H649.032V236.744H666.521ZM683.278 223.596V225.959C683.278 228.773 683.278 231.373 682.483 235.24L680.786 235.09C681.205 233.253 681.42 231.663 681.538 230.17L669.872 230.814L669.636 229.418L681.603 228.924C681.635 227.914 681.635 226.937 681.646 225.959V225.014H670.151V223.596H683.278ZM685.448 236.637V238.055H668.046V236.637H685.448ZM703.28 221.662V232.232H701.669V227.57H698.983V232.039H697.415V222.006H698.983V226.217H701.669V221.662H703.28ZM692.366 233.113V235.305H701.626V233.113H703.28V240.482H690.69V233.113H692.366ZM692.366 239.107H701.626V236.68H692.366V239.107ZM695.138 222.801V227.699H689.573V230.234C692.087 230.202 694.01 230.105 696.276 229.633L696.47 231.029C693.999 231.502 691.958 231.609 689.187 231.609H687.94V226.41H693.526V224.176H687.897V222.801H695.138ZM718.062 225.186C718.062 227.721 719.931 230.041 722.767 231.029L721.907 232.34C719.727 231.566 718.062 229.998 717.245 228.021C716.429 230.191 714.678 231.878 712.433 232.705L711.53 231.395C714.388 230.385 716.386 227.914 716.407 225.186V224.369H712.046V222.994H722.358V224.369H718.062V225.186ZM726.526 221.641V226.689H729.405V228.129H726.526V233.156H724.851V221.641H726.526ZM726.526 234.166V240.74H724.851V235.541H714.022V234.166H726.526ZM737.183 224.648C737.161 227.377 739.095 229.783 741.909 230.729L740.964 232.039C738.858 231.244 737.204 229.697 736.388 227.678C735.561 229.966 733.81 231.749 731.511 232.619L730.587 231.244C733.53 230.213 735.485 227.678 735.507 224.713V222.736H737.183V224.648ZM746.442 221.641V232.963H744.745V227.141H740.491V225.744H744.745V221.641H746.442ZM740.104 233.521C744.079 233.521 746.507 234.832 746.507 237.131C746.507 239.408 744.079 240.697 740.104 240.697C736.13 240.697 733.702 239.408 733.702 237.131C733.702 234.832 736.13 233.521 740.104 233.521ZM740.104 234.854C737.183 234.854 735.356 235.713 735.378 237.131C735.356 238.506 737.183 239.344 740.104 239.344C743.026 239.344 744.831 238.506 744.831 237.131C744.831 235.713 743.026 234.854 740.104 234.854ZM760.214 223.768V224.756C760.192 226.26 760.192 228.795 759.655 232.34L757.958 232.189C758.474 228.988 758.517 226.668 758.517 225.143H750.503V223.768H760.214ZM755.208 229.225V235.025C757.324 234.95 759.494 234.811 761.481 234.574L761.567 235.842C757.55 236.465 753.06 236.551 749.644 236.529L749.429 235.133C750.686 235.122 752.082 235.111 753.554 235.068V229.225H755.208ZM764.36 221.641V229.633H767.454V231.094H764.36V240.74H762.685V221.641H764.36ZM789.089 221.641V226.732H791.968V228.172H789.089V233.156H787.413V221.641H789.089ZM789.089 234.252V240.482H777.036V234.252H789.089ZM778.69 235.605V239.107H787.413V235.605H778.69ZM785.587 223.682V225.078H774.2V223.682H779.056V221.49H780.731V223.682H785.587ZM779.894 226.023C782.644 226.023 784.47 227.377 784.491 229.418C784.47 231.502 782.644 232.834 779.894 232.834C777.122 232.834 775.274 231.502 775.296 229.418C775.274 227.377 777.122 226.023 779.894 226.023ZM779.894 227.334C778.089 227.334 776.886 228.172 776.907 229.418C776.886 230.729 778.089 231.523 779.894 231.545C781.677 231.523 782.88 230.729 782.901 229.418C782.88 228.172 781.677 227.334 779.894 227.334ZM797.919 223.961C797.897 227.979 797.339 232.49 794.546 236.186L793.214 235.412C795.609 232.415 796.318 228.881 796.458 225.357H793.601V223.961H797.919ZM802.151 223.961C802.141 225.519 802.108 227.312 801.872 229.16H804.407V222.156H806.019V239.773H804.407V230.557H801.657C801.217 232.941 800.379 235.358 798.821 237.453L797.511 236.658C800.153 233.285 800.594 228.924 800.669 225.357H798.521V223.961H802.151ZM809.606 221.641V240.74H807.974V221.641H809.606ZM833.132 230.6V231.975H827.224V236.916H835.194V238.334H817.706V236.916H825.569V231.975H819.94V223.209H832.938V224.584H821.638V230.6H833.132ZM852.554 221.662V235.67H850.856V228.344H846.925V226.947H850.856V221.662H852.554ZM853.091 238.914V240.332H840.286V234.402H841.983V238.914H853.091ZM843.358 225.594C843.358 228.064 845.271 230.471 848.063 231.416L847.183 232.77C845.023 231.996 843.358 230.385 842.542 228.408C841.715 230.61 839.953 232.372 837.687 233.221L836.806 231.846C839.62 230.857 841.661 228.344 841.661 225.594V224.605H837.343V223.209H847.634V224.605H843.358V225.594ZM864.435 221.984C868.688 221.984 871.181 223.145 871.181 225.271C871.181 227.441 868.688 228.602 864.435 228.623C860.181 228.602 857.667 227.441 857.667 225.271C857.667 223.145 860.181 221.984 864.435 221.984ZM864.435 223.252C861.255 223.252 859.407 224.025 859.429 225.271C859.407 226.604 861.255 227.334 864.435 227.334C867.593 227.334 869.462 226.604 869.462 225.271C869.462 224.025 867.593 223.252 864.435 223.252ZM873.136 229.912V231.287H855.733V229.912H873.136ZM870.901 232.941V237.217H859.558V239.193H871.481V240.525H857.882V235.971H869.247V234.23H857.839V232.941H870.901ZM895.05 221.641V229.525H898.251V230.922H895.05V240.74H893.374V221.641H895.05ZM891.526 224.713V226.109H880.161V224.713H885.081V221.877H886.757V224.713H891.526ZM885.94 227.699C888.647 227.699 890.603 229.504 890.624 232.082C890.603 234.66 888.647 236.465 885.94 236.465C883.212 236.465 881.235 234.66 881.257 232.082C881.235 229.504 883.212 227.699 885.94 227.699ZM885.94 229.117C884.157 229.117 882.847 230.363 882.868 232.082C882.847 233.822 884.157 235.047 885.94 235.025C887.702 235.047 888.991 233.822 889.013 232.082C888.991 230.363 887.702 229.117 885.94 229.117ZM908.757 223.553V226.238H913.44V221.641H915.116V240.783H913.44V232.898H908.757V235.906H900.056V223.553H908.757ZM901.731 224.885V234.553H907.124V224.885H901.731ZM908.757 231.502H913.44V227.635H908.757V231.502ZM677.714 248.467V249.885H670.646V259.617C674.083 259.617 676.36 259.499 679.003 258.994L679.218 260.391C676.403 260.928 674.083 261.057 670.409 261.057H668.948V248.467H677.714ZM683.837 246.641V265.783H682.14V254.998H676.575V253.602H682.14V246.641H683.837ZM695.353 247.629V254.418C698.339 254.407 700.863 254.257 703.646 253.688L703.903 255.105C700.896 255.686 698.296 255.836 695.116 255.836H693.655V247.629H695.353ZM708.351 246.641V256.824H706.653V251.238H701.153V249.842H706.653V246.641H708.351ZM703.753 257.533V260.047H706.804V257.533H708.351V265.525H702.206V257.533H703.753ZM703.753 264.172H706.804V261.379H703.753V264.172ZM701.024 257.77V262.109H696.534V264.193C698.607 264.183 699.832 264.14 701.454 263.871L701.604 265.16C699.821 265.482 698.425 265.525 695.868 265.525H694.88V260.863H699.392V259.059H694.837V257.77H701.024ZM728.933 256.717V258.092H711.53V256.717H728.933ZM726.999 263.914V265.332H713.786V259.768H715.483V263.914H726.999ZM720.231 247.328C724.335 247.307 726.978 248.725 726.978 251.109C726.978 253.494 724.335 254.912 720.231 254.912C716.085 254.912 713.464 253.494 713.464 251.109C713.464 248.725 716.085 247.307 720.231 247.328ZM720.231 248.682C717.159 248.682 715.183 249.605 715.204 251.109C715.183 252.613 717.159 253.537 720.231 253.537C723.282 253.537 725.259 252.613 725.259 251.109C725.259 249.605 723.282 248.682 720.231 248.682ZM741.737 252.076C741.737 255.105 743.22 258.393 745.755 259.896L744.788 261.207C742.951 260.09 741.63 258.049 740.964 255.729C740.255 258.264 738.837 260.444 736.925 261.615L735.851 260.348C738.493 258.801 740.104 255.406 740.104 252.141V248.445H741.737V252.076ZM752.437 246.641V265.74H750.804V246.641H752.437ZM748.483 247.049V264.773H746.894V254.934H743.649V253.494H746.894V247.049H748.483ZM761.46 249.734C761.46 252.334 763.437 254.719 766.208 255.664L765.284 256.996C763.168 256.223 761.503 254.644 760.665 252.656C759.849 254.901 758.151 256.674 755.917 257.533L755.015 256.18C757.872 255.105 759.784 252.549 759.806 249.605V247.629H761.46V249.734ZM770.011 246.641V251.625H772.89V253.043H770.011V258.264H768.335V246.641H770.011ZM763.888 258.758C767.819 258.758 770.183 260.025 770.183 262.217C770.183 264.451 767.819 265.697 763.888 265.697C759.956 265.697 757.55 264.451 757.55 262.217C757.55 260.025 759.956 258.758 763.888 258.758ZM763.888 260.111C761.009 260.111 759.226 260.906 759.247 262.217C759.226 263.57 761.009 264.344 763.888 264.365C766.788 264.344 768.55 263.57 768.55 262.217C768.55 260.906 766.788 260.111 763.888 260.111ZM782.794 246.984C787.048 246.984 789.54 248.145 789.54 250.271C789.54 252.441 787.048 253.602 782.794 253.623C778.54 253.602 776.026 252.441 776.026 250.271C776.026 248.145 778.54 246.984 782.794 246.984ZM782.794 248.252C779.614 248.252 777.767 249.025 777.788 250.271C777.767 251.604 779.614 252.334 782.794 252.334C785.952 252.334 787.821 251.604 787.821 250.271C787.821 249.025 785.952 248.252 782.794 248.252ZM791.495 254.912V256.287H774.093V254.912H791.495ZM789.261 257.941V262.217H777.917V264.193H789.841V265.525H776.241V260.971H787.606V259.23H776.198V257.941H789.261ZM814.462 246.641V256.867H812.765V253.988H809.563V252.613H812.765V250.809H809.563V249.455H812.765V246.641H814.462ZM809.349 247.887V249.262H807.394V254.611C808.285 254.558 809.155 254.482 809.972 254.396L810.058 255.643C806.384 256.201 802.065 256.244 798.864 256.244L798.671 254.805L801.142 254.783V249.262H799.208V247.887H809.349ZM814.462 257.77V262.152H803.784V264.172H815.171V265.525H802.13V260.863H812.786V259.102H802.087V257.77H814.462ZM802.774 254.762C803.752 254.762 804.762 254.729 805.761 254.697V249.262H802.774V254.762ZM833.454 246.641V265.783H831.778V258.092H827.847V256.695H831.778V254.117H827.847V252.699H831.778V246.641H833.454ZM824.237 252.871C824.237 256.029 826.386 259.145 829.222 260.412L828.255 261.723C826.085 260.724 824.28 258.629 823.442 256.094C822.604 258.769 820.821 260.992 818.651 262.045L817.685 260.734C820.478 259.424 822.583 256.158 822.583 252.871V251.346H818.2V249.971H822.583V247.006H824.259V249.971H828.577V251.346H824.237V252.871ZM854.144 261.895V263.291H836.655V261.895H844.519V257.77H838.718V247.994H840.415V251.453H850.341V247.994H851.995V257.77H846.173V261.895H854.144ZM840.415 256.395H850.341V252.828H840.415V256.395ZM861.341 252.076C861.341 255.105 862.823 258.393 865.358 259.896L864.392 261.207C862.555 260.09 861.233 258.049 860.567 255.729C859.858 258.264 858.44 260.444 856.528 261.615L855.454 260.348C858.097 258.801 859.708 255.406 859.708 252.141V248.445H861.341V252.076ZM872.04 246.641V265.74H870.407V246.641H872.04ZM868.087 247.049V264.773H866.497V254.934H863.253V253.494H866.497V247.049H868.087ZM892.171 261.873V263.291H874.683V261.873H879.022V256.717C877.39 255.868 876.401 254.493 876.401 252.764C876.401 249.799 879.302 247.865 883.384 247.844C887.466 247.865 890.366 249.799 890.366 252.764C890.366 254.461 889.41 255.825 887.831 256.674V261.873H892.171ZM883.384 249.24C880.247 249.219 878.034 250.637 878.034 252.764C878.034 254.891 880.247 256.33 883.384 256.33C886.499 256.33 888.733 254.891 888.733 252.764C888.733 250.637 886.499 249.219 883.384 249.24ZM880.677 261.873H886.134V257.318C885.307 257.544 884.383 257.662 883.384 257.662C882.406 257.662 881.493 257.555 880.677 257.34V261.873ZM896.79 248.445L896.64 259.617H894.835L894.685 248.445H896.79ZM895.737 264.129C894.985 264.129 894.341 263.506 894.362 262.732C894.341 261.98 894.985 261.357 895.737 261.357C896.489 261.357 897.112 261.98 897.112 262.732C897.112 263.506 896.489 264.129 895.737 264.129Z" fill="#222222"/>
<path d="M632.597 176.662V182.441H635.454V183.859H632.597V190.24H630.899V176.662H632.597ZM627.505 189.596C627.505 192.109 630.491 193.871 633.95 194.344L633.306 195.654C630.405 195.192 627.773 193.936 626.646 191.895C625.507 193.936 622.864 195.192 619.964 195.654L619.341 194.344C622.8 193.871 625.786 192.109 625.786 189.596V188.951H627.505V189.596ZM617.665 186.459C619.158 186.459 620.898 186.448 622.714 186.373V184.59C620.351 184.343 618.782 182.957 618.804 181.002C618.782 178.854 620.716 177.414 623.509 177.393C626.302 177.414 628.235 178.854 628.235 181.002C628.235 182.925 626.71 184.3 624.411 184.568V186.309C626.205 186.212 628.01 186.062 629.675 185.814L629.804 187.018C625.765 187.748 621.188 187.812 617.88 187.812L617.665 186.459ZM623.509 178.682C621.661 178.682 620.372 179.605 620.372 181.002C620.372 182.398 621.661 183.344 623.509 183.344C625.356 183.344 626.646 182.398 626.646 181.002C626.646 179.605 625.356 178.682 623.509 178.682ZM654.188 191.873V193.291H636.7V191.873H654.188ZM646.282 181.109C646.282 184.268 649.44 186.652 653.071 187.297L652.384 188.672C649.365 188.06 646.615 186.405 645.423 183.902C644.209 186.405 641.459 188.06 638.44 188.672L637.774 187.297C641.384 186.652 644.563 184.268 644.563 181.109H638.333V179.734H644.585V177.113H646.239V179.734H652.513V181.109H646.282ZM671.032 178.574V180.486C671.011 182.828 671.011 185.449 670.323 189.295L668.604 189.102C669.335 185.449 669.335 182.764 669.335 180.486V179.971H657.562V178.574H671.032ZM673.116 191.637V193.033H655.714V191.637H662.546V184.805H664.2V191.637H673.116ZM690.497 176.662V188.027H688.821V176.662H690.497ZM684.116 188.414C688.091 188.414 690.54 189.746 690.562 192.045C690.54 194.365 688.091 195.697 684.116 195.697C680.099 195.697 677.671 194.365 677.671 192.045C677.671 189.746 680.099 188.414 684.116 188.414ZM684.116 189.746C681.151 189.746 679.368 190.605 679.368 192.045C679.368 193.484 681.151 194.344 684.116 194.344C687.06 194.344 688.886 193.484 688.886 192.045C688.886 190.605 687.06 189.746 684.116 189.746ZM680.185 177.865C683.085 177.887 685.19 179.691 685.19 182.334C685.19 184.977 683.085 186.76 680.185 186.781C677.284 186.76 675.179 184.977 675.179 182.334C675.179 179.691 677.284 177.887 680.185 177.865ZM680.185 179.326C678.229 179.305 676.812 180.529 676.833 182.334C676.812 184.117 678.229 185.342 680.185 185.363C682.118 185.342 683.536 184.117 683.536 182.334C683.536 180.529 682.118 179.305 680.185 179.326ZM711.144 186.824V188.221H693.741V186.824H701.604V184.826C697.941 184.644 695.675 183.258 695.675 181.002C695.675 178.66 698.296 177.221 702.442 177.221C706.546 177.221 709.188 178.66 709.188 181.002C709.188 183.258 706.9 184.644 703.28 184.826V186.824H711.144ZM709.21 193.914V195.332H695.997V189.768H697.694V193.914H709.21ZM702.442 178.596C699.37 178.596 697.394 179.541 697.415 181.002C697.394 182.549 699.37 183.451 702.442 183.451C705.493 183.451 707.47 182.549 707.47 181.002C707.47 179.541 705.493 178.596 702.442 178.596ZM723.347 178.768V179.756C723.325 181.26 723.325 183.795 722.788 187.34L721.091 187.189C721.606 183.988 721.649 181.668 721.649 180.143H713.636V178.768H723.347ZM718.341 184.225V190.025C720.457 189.95 722.627 189.811 724.614 189.574L724.7 190.842C720.683 191.465 716.192 191.551 712.776 191.529L712.562 190.133C713.818 190.122 715.215 190.111 716.687 190.068V184.225H718.341ZM727.493 176.641V184.633H730.587V186.094H727.493V195.74H725.817V176.641H727.493ZM752.222 176.641V181.732H755.101V183.172H752.222V188.156H750.546V176.641H752.222ZM752.222 189.252V195.482H740.169V189.252H752.222ZM741.823 190.605V194.107H750.546V190.605H741.823ZM748.72 178.682V180.078H737.333V178.682H742.188V176.49H743.864V178.682H748.72ZM743.026 181.023C745.776 181.023 747.603 182.377 747.624 184.418C747.603 186.502 745.776 187.834 743.026 187.834C740.255 187.834 738.407 186.502 738.429 184.418C738.407 182.377 740.255 181.023 743.026 181.023ZM743.026 182.334C741.222 182.334 740.019 183.172 740.04 184.418C740.019 185.729 741.222 186.523 743.026 186.545C744.81 186.523 746.013 185.729 746.034 184.418C746.013 183.172 744.81 182.334 743.026 182.334ZM761.052 178.961C761.03 182.979 760.472 187.49 757.679 191.186L756.347 190.412C758.742 187.415 759.451 183.881 759.591 180.357H756.733V178.961H761.052ZM765.284 178.961C765.273 180.519 765.241 182.312 765.005 184.16H767.54V177.156H769.151V194.773H767.54V185.557H764.79C764.35 187.941 763.512 190.358 761.954 192.453L760.644 191.658C763.286 188.285 763.727 183.924 763.802 180.357H761.653V178.961H765.284ZM772.739 176.641V195.74H771.106V176.641H772.739ZM786.511 182.076C786.511 185.105 787.993 188.393 790.528 189.896L789.562 191.207C787.725 190.09 786.403 188.049 785.737 185.729C785.028 188.264 783.61 190.444 781.698 191.615L780.624 190.348C783.267 188.801 784.878 185.406 784.878 182.141V178.445H786.511V182.076ZM797.21 176.641V195.74H795.577V176.641H797.21ZM793.257 177.049V194.773H791.667V184.934H788.423V183.494H791.667V177.049H793.257ZM816.202 176.641V195.74H814.591V176.641H816.202ZM812.335 177.156V194.773H810.724V188.156H807.179V186.76H810.724V183.365H807.501C806.566 186.599 804.472 189.456 800.862 191.615L799.831 190.391C803.988 187.931 806.072 184.482 806.405 180.486H800.69V179.09H808.081C808.081 180.067 807.995 181.034 807.823 181.969H810.724V177.156H812.335ZM836.333 185.514V186.846H818.845V185.514H836.333ZM834.142 188.371V192.432H822.669V194.258H834.765V195.482H820.972V191.271H832.466V189.639H820.95V188.371H834.142ZM834.077 177.221V181.174H822.798V182.85H834.421V184.074H821.122V180.014H832.38V178.445H821.058V177.221H834.077ZM853.091 177.822V179.24H845.979V181.625H852.726V183.021H845.979V185.557C849.696 185.578 851.834 185.503 854.337 185.02L854.53 186.395C851.888 186.867 849.696 186.932 845.743 186.91H844.304V177.822H853.091ZM858.333 188.887V195.482H846.28V188.887H858.333ZM847.935 190.24V194.107H856.657V190.24H847.935ZM858.333 176.641V181.389H861.212V182.828H858.333V187.898H856.657V176.641H858.333ZM878.249 176.641V188.221H876.552V183.859H873.308V182.463H876.552V176.641H878.249ZM878.249 189.252V195.482H865.767V189.252H878.249ZM867.442 190.605V194.107H876.595V190.605H867.442ZM873.587 178.66V180.035H862.437V178.66H867.185V176.469H868.839V178.66H873.587ZM868.001 181.023C870.601 181.023 872.427 182.42 872.448 184.418C872.427 186.48 870.601 187.834 868.001 187.834C865.401 187.834 863.575 186.48 863.575 184.418C863.575 182.42 865.401 181.023 868.001 181.023ZM868.001 182.334C866.347 182.334 865.187 183.193 865.187 184.418C865.187 185.686 866.347 186.523 868.001 186.545C869.655 186.523 870.815 185.686 870.815 184.418C870.815 183.193 869.655 182.334 868.001 182.334ZM890.968 179.949V181.324H881.386V179.949H885.36V177.221H887.036V179.949H890.968ZM886.177 182.613C888.583 182.613 890.302 184.418 890.323 186.953C890.302 189.51 888.583 191.336 886.177 191.336C883.792 191.336 882.073 189.51 882.073 186.953C882.073 184.418 883.792 182.613 886.177 182.613ZM886.177 184.031C884.673 184.053 883.577 185.277 883.577 186.953C883.577 188.65 884.673 189.875 886.177 189.854C887.702 189.875 888.819 188.65 888.819 186.953C888.819 185.277 887.702 184.053 886.177 184.031ZM897.692 176.641V195.74H896.081V186.094H893.546V194.795H891.956V177.113H893.546V184.697H896.081V176.641H897.692ZM908.692 178.23V181.152H914.901V178.23H916.577V186.824H912.646V190.24C914.407 190.176 916.18 190.047 917.823 189.832L917.931 191.1C913.892 191.744 909.358 191.809 906.007 191.83L905.728 190.391C907.285 190.38 909.079 190.369 910.948 190.305V186.824H907.017V178.23H908.692ZM908.692 185.449H914.901V182.463H908.692V185.449ZM920.724 176.641V184.676H923.839V186.094H920.724V195.74H919.048V176.641H920.724ZM942.466 191.873V193.291H924.978V191.873H929.317V186.717C927.685 185.868 926.696 184.493 926.696 182.764C926.696 179.799 929.597 177.865 933.679 177.844C937.761 177.865 940.661 179.799 940.661 182.764C940.661 184.461 939.705 185.825 938.126 186.674V191.873H942.466ZM933.679 179.24C930.542 179.219 928.329 180.637 928.329 182.764C928.329 184.891 930.542 186.33 933.679 186.33C936.794 186.33 939.028 184.891 939.028 182.764C939.028 180.637 936.794 179.219 933.679 179.24ZM930.972 191.873H936.429V187.318C935.602 187.544 934.678 187.662 933.679 187.662C932.701 187.662 931.788 187.555 930.972 187.34V191.873ZM947.085 178.445L946.935 189.617H945.13L944.979 178.445H947.085ZM946.032 194.129C945.28 194.129 944.636 193.506 944.657 192.732C944.636 191.98 945.28 191.357 946.032 191.357C946.784 191.357 947.407 191.98 947.407 192.732C947.407 193.506 946.784 194.129 946.032 194.129Z" fill="#222222"/>
<path d="M671.616 113.38L673.789 106.324H676.645L675.473 113.38H671.616ZM677.304 113.38L679.477 106.324H682.333L681.162 113.38H677.304ZM709.311 106.617V109.4H690.585V106.617H698.178V104.127H701.694V106.617H709.311ZM710.239 121.363V124.171H689.755V121.363H698.178V118.946C694.431 118.592 692.172 117.03 692.172 114.601C692.172 111.842 695.151 110.206 699.936 110.206C704.648 110.206 707.651 111.842 707.651 114.601C707.651 117.018 705.38 118.592 701.694 118.946V121.363H710.239ZM699.936 112.94C697.177 112.94 695.81 113.429 695.81 114.601C695.81 115.797 697.177 116.261 699.936 116.261C702.622 116.261 704.038 115.797 704.038 114.601C704.038 113.429 702.622 112.94 699.936 112.94ZM730.283 103.932V126.344H726.718V103.932H730.283ZM723.544 106.251C723.544 113.16 721.347 118.775 713.193 122.608L711.362 119.825C717.062 117.127 719.455 113.819 719.956 108.985H712.631V106.251H723.544ZM751.792 103.956V116.578H748.276V103.956H751.792ZM751.792 117.53V126.1H736.655V117.53H751.792ZM740.097 120.289V123.292H748.349V120.289H740.097ZM741.757 106.91C741.733 109.498 743.149 112.037 746.86 113.136L745.175 115.821C742.636 115.101 740.939 113.648 739.951 111.769C738.925 113.819 737.155 115.443 734.506 116.236L732.797 113.478C736.679 112.354 738.095 109.547 738.095 106.91V104.762H741.757V106.91ZM772.617 103.956V109.474H775.327V112.379H772.617V117.945H769.101V103.956H772.617ZM764.975 118.238C769.736 118.238 772.666 119.728 772.69 122.315C772.666 124.806 769.736 126.368 764.975 126.344C760.19 126.368 757.211 124.806 757.211 122.315C757.211 119.728 760.19 118.238 764.975 118.238ZM764.975 120.875C762.143 120.875 760.678 121.314 760.703 122.315C760.678 123.243 762.143 123.683 764.975 123.707C767.734 123.683 769.199 123.243 769.199 122.315C769.199 121.314 767.734 120.875 764.975 120.875ZM754.501 114.503C756.003 114.503 757.736 114.503 759.555 114.454V113.062C757.187 112.562 755.625 110.975 755.625 108.888C755.625 106.349 757.968 104.542 761.289 104.542C764.584 104.542 766.928 106.349 766.953 108.888C766.928 110.951 765.415 112.525 763.095 113.062V114.332C764.743 114.247 766.379 114.112 767.905 113.917L768.222 116.31C763.657 117.115 758.603 117.188 754.843 117.213L754.501 114.503ZM761.289 107.154C759.824 107.154 758.872 107.716 758.896 108.888C758.872 110.06 759.824 110.719 761.289 110.719C762.705 110.719 763.657 110.06 763.657 108.888C763.657 107.716 762.705 107.154 761.289 107.154ZM800.083 113.819V116.578H793.71V121.021H802.255V123.878H781.772V121.021H790.244V116.578H784.116V105.445H799.936V108.229H787.631V113.819H800.083ZM814.194 105.47V112.843H807.7V115.016C810.495 114.991 812.546 114.857 814.804 114.454L815.195 117.286C812.338 117.774 809.799 117.848 805.942 117.848H804.184V110.255H810.654V108.253H804.184V105.47H814.194ZM822.348 103.956V120.509H818.857V115.089H815.415V112.281H818.857V110.011H815.415V107.228H818.857V103.956H822.348ZM822.885 123.121V125.978H807.187V119.215H810.678V123.121H822.885ZM843.784 103.932V116.456H840.292V103.932H843.784ZM829.746 105.226V112.623C833.042 112.586 835.764 112.354 838.583 111.744L838.974 114.576C835.605 115.309 832.285 115.553 828.208 115.577H826.23V105.226H829.746ZM843.784 117.335V126.075H828.696V117.335H843.784ZM832.138 120.069V123.341H840.341V120.069H832.138ZM859.018 105.86V108.619H846.665V105.86H851.254V103.736H854.77V105.86H859.018ZM852.963 109.254C856.064 109.254 858.334 110.987 858.359 113.478C858.334 115.968 856.064 117.652 852.963 117.652C849.863 117.652 847.666 115.968 847.666 113.478C847.666 110.987 849.863 109.254 852.963 109.254ZM852.963 111.866C851.743 111.866 850.937 112.403 850.937 113.478C850.937 114.552 851.743 115.064 852.963 115.064C854.208 115.064 855.087 114.552 855.087 113.478C855.087 112.403 854.208 111.866 852.963 111.866ZM865.561 103.932V118.141H862.07V116.017H859.287V113.209H862.07V111.5H859.36V108.692H862.07V103.932H865.561ZM857.895 118.434C862.68 118.434 865.659 119.898 865.683 122.389C865.659 124.854 862.68 126.368 857.895 126.344C853.085 126.368 850.083 124.854 850.083 122.389C850.083 119.898 853.085 118.434 857.895 118.434ZM857.895 121.07C855.209 121.095 853.793 121.461 853.793 122.389C853.793 123.292 855.209 123.707 857.895 123.707C860.507 123.707 861.899 123.292 861.899 122.389C861.899 121.461 860.507 121.095 857.895 121.07ZM873.764 113.38L875.937 106.324H878.793L877.622 113.38H873.764ZM879.453 113.38L881.625 106.324H884.482L883.31 113.38H879.453Z" fill="black"/>
<rect x="549" y="345" width="137" height="52" rx="10" fill="#717171"/>
<path d="M598.012 362.305C598.012 367.648 594.355 371.445 588.262 373.156L587.348 371.422C592.188 370.062 595.199 367.438 595.645 364.133H588.449V362.305H598.012ZM604.668 361.016V372.898H602.441V368.117H598.105V366.266H602.441V361.016H604.668ZM604.668 373.766V381.711H590.934V373.766H604.668ZM593.113 375.547V379.93H602.465V375.547H593.113ZM614.324 364.953C614.324 367.32 615.777 369.688 618.496 370.742L617.301 372.453C615.379 371.68 614.02 370.227 613.27 368.469C612.484 370.426 611.055 372.113 609.027 372.992L607.809 371.281C610.645 370.039 612.168 367.32 612.168 364.953V362.258H614.324V364.953ZM625.809 361.016V373.695H623.699V368.211H621.238V373.578H619.176V361.367H621.238V366.359H623.699V361.016H625.809ZM625.809 374.797V381.992H623.605V376.602H611.535V374.797H625.809ZM640.48 363.195V364.977H628.668V363.195H633.59V360.805H635.793V363.195H640.48ZM634.668 365.938C637.504 365.938 639.496 367.508 639.52 369.852C639.496 372.195 637.504 373.742 634.668 373.742C631.809 373.742 629.84 372.195 629.84 369.852C629.84 367.508 631.809 365.938 634.668 365.938ZM634.668 367.625C633.004 367.625 631.926 368.492 631.926 369.852C631.926 371.211 633.004 372.055 634.668 372.055C636.309 372.055 637.434 371.211 637.457 369.852C637.434 368.492 636.309 367.625 634.668 367.625ZM646.152 360.992V374.516H643.926V371.82H640.527V370.016H643.926V367.695H640.551V365.891H643.926V360.992H646.152ZM639.168 374.727C643.574 374.727 646.27 376.039 646.27 378.336C646.27 380.609 643.574 381.969 639.168 381.945C634.738 381.969 632.043 380.609 632.043 378.336C632.043 376.039 634.738 374.727 639.168 374.727ZM639.168 376.438C636.145 376.438 634.363 377.094 634.363 378.336C634.363 379.555 636.145 380.258 639.168 380.234C642.121 380.258 643.902 379.555 643.902 378.336C643.902 377.094 642.121 376.438 639.168 376.438Z" fill="white"/>
<rect x="879" y="345" width="137" height="52" rx="10" fill="#313131"/>
<path d="M923.805 370.672V372.453H917.453V377.586H926.008V379.414H906.789V377.586H915.25V372.453H909.18V362.609H923.617V364.414H911.406V370.672H923.805ZM939.555 363.148V364.977H937.398V374.75C938.441 374.691 939.461 374.586 940.445 374.469L940.562 376.086C936.156 376.812 931.211 376.883 927.531 376.906L927.273 375.055L929.945 375.031V364.977H927.789V363.148H939.555ZM943.891 360.992V369.266H947.266V371.094H943.891V381.992H941.664V360.992H943.891ZM932.102 374.984C933.133 374.973 934.188 374.938 935.242 374.891V364.977H932.102V374.984ZM959.359 362.773V372.641H949.375V362.773H959.359ZM951.555 364.578V370.859H957.156V364.578H951.555ZM965.688 361.016V376.062H963.461V361.016H965.688ZM966.32 379.531V381.359H951.953V374.609H954.203V379.531H966.32ZM980.852 363.195V364.977H969.039V363.195H973.961V360.805H976.164V363.195H980.852ZM975.039 365.938C977.875 365.938 979.867 367.508 979.891 369.852C979.867 372.195 977.875 373.742 975.039 373.742C972.18 373.742 970.211 372.195 970.211 369.852C970.211 367.508 972.18 365.938 975.039 365.938ZM975.039 367.625C973.375 367.625 972.297 368.492 972.297 369.852C972.297 371.211 973.375 372.055 975.039 372.055C976.68 372.055 977.805 371.211 977.828 369.852C977.805 368.492 976.68 367.625 975.039 367.625ZM986.523 360.992V374.516H984.297V371.82H980.898V370.016H984.297V367.695H980.922V365.891H984.297V360.992H986.523ZM979.539 374.727C983.945 374.727 986.641 376.039 986.641 378.336C986.641 380.609 983.945 381.969 979.539 381.945C975.109 381.969 972.414 380.609 972.414 378.336C972.414 376.039 975.109 374.727 979.539 374.727ZM979.539 376.438C976.516 376.438 974.734 377.094 974.734 378.336C974.734 379.555 976.516 380.258 979.539 380.234C982.492 380.258 984.273 379.555 984.273 378.336C984.273 377.094 982.492 376.438 979.539 376.438Z" fill="white"/>
<rect x="714" y="345" width="137" height="52" rx="10" fill="#504F4F"/>
<path d="M769.176 370.672V372.453H762.824V377.586H771.379V379.414H752.16V377.586H760.621V372.453H754.551V362.609H768.988V364.414H756.777V370.672H769.176ZM790.41 361.016V376.391H788.184V368.492H784.176V366.688H788.184V361.016H790.41ZM790.973 379.742V381.547H776.77V375.008H778.996V379.742H790.973ZM780.426 365.258C780.426 367.883 782.324 370.508 785.488 371.562L784.34 373.344C781.984 372.512 780.238 370.824 779.324 368.75C778.41 371.059 776.57 372.922 774.074 373.812L772.926 372.008C776.16 370.906 778.152 368.141 778.152 365.258V364.438H773.605V362.609H784.926V364.438H780.426V365.258ZM805.48 363.195V364.977H793.668V363.195H798.59V360.805H800.793V363.195H805.48ZM799.668 365.938C802.504 365.938 804.496 367.508 804.52 369.852C804.496 372.195 802.504 373.742 799.668 373.742C796.809 373.742 794.84 372.195 794.84 369.852C794.84 367.508 796.809 365.938 799.668 365.938ZM799.668 367.625C798.004 367.625 796.926 368.492 796.926 369.852C796.926 371.211 798.004 372.055 799.668 372.055C801.309 372.055 802.434 371.211 802.457 369.852C802.434 368.492 801.309 367.625 799.668 367.625ZM811.152 360.992V374.516H808.926V371.82H805.527V370.016H808.926V367.695H805.551V365.891H808.926V360.992H811.152ZM804.168 374.727C808.574 374.727 811.27 376.039 811.27 378.336C811.27 380.609 808.574 381.969 804.168 381.945C799.738 381.969 797.043 380.609 797.043 378.336C797.043 376.039 799.738 374.727 804.168 374.727ZM804.168 376.438C801.145 376.438 799.363 377.094 799.363 378.336C799.363 379.555 801.145 380.258 804.168 380.234C807.121 380.258 808.902 379.555 808.902 378.336C808.902 377.094 807.121 376.438 804.168 376.438Z" fill="white"/>
<path d="M270.32 124.97V376.24H30V63H211.45L270.32 124.97Z" fill="#D9D9D9" stroke="black" stroke-width="2" stroke-miterlimit="10"/>
<path d="M210.63 63.4707C210.63 63.4707 203.14 122.991 210.63 130.521C218.12 138.051 247.96 117.811 269.5 125.441" fill="#F4F4F4"/>
<path d="M210.63 63.4707C210.63 63.4707 203.14 122.991 210.63 130.521C218.12 138.051 247.96 117.811 269.5 125.441" stroke="black" stroke-width="2" stroke-miterlimit="10" stroke-linecap="round"/>
<path d="M46.0006 113.321C45.1206 114.371 73.2706 94.5405 88.6406 93.3705C89.8106 93.2805 90.5506 91.9805 89.9306 90.9905C87.2306 86.6905 72.4006 81.9705 46.0006 113.321Z" fill="#222222" stroke="black" stroke-miterlimit="10" stroke-linecap="round"/>
<path d="M242.15 115.19C243.08 116.3 213.42 95.3997 197.22 94.1697C195.99 94.0797 195.21 92.7097 195.86 91.6597C198.7 87.1297 214.33 82.1597 242.14 115.19H242.15Z" fill="#222222" stroke="black" stroke-miterlimit="10" stroke-linecap="round"/>
<path d="M92.95 191.34C100.102 191.34 105.9 180.815 105.9 167.83C105.9 154.846 100.102 144.32 92.95 144.32C85.7979 144.32 80 154.846 80 167.83C80 180.815 85.7979 191.34 92.95 191.34Z" fill="black"/>
<path d="M98 147.321C98 147.321 85.5 133.821 72.5 157.821" stroke="black" stroke-width="2" stroke-miterlimit="10" stroke-linecap="round"/>
<path d="M205.95 191.34C213.102 191.34 218.9 180.815 218.9 167.83C218.9 154.846 213.102 144.32 205.95 144.32C198.798 144.32 193 154.846 193 167.83C193 180.815 198.798 191.34 205.95 191.34Z" fill="black"/>
<path d="M211 147.321C211 147.321 198.5 133.821 185.5 157.821" stroke="black" stroke-width="2" stroke-miterlimit="10" stroke-linecap="round"/>
<path d="M68 201C73.5228 201 78 198.985 78 196.5C78 194.015 73.5228 192 68 192C62.4772 192 58 194.015 58 196.5C58 198.985 62.4772 201 68 201Z" fill="white"/>
<path d="M229 201C234.523 201 239 198.985 239 196.5C239 194.015 234.523 192 229 192C223.477 192 219 194.015 219 196.5C219 198.985 223.477 201 229 201Z" fill="white"/>
<path d="M174 197C174 197 183.67 197 185.67 205" stroke="black" stroke-width="2" stroke-miterlimit="10" stroke-linecap="round"/>
<path d="M142.999 285.32C142.999 285.32 141.999 249.55 142.999 246.94C143.999 244.33 151.659 232.68 164.329 234C176.999 235.32 170.999 282.32 170.999 284.32C170.999 286.32 162.999 296.32 147.999 290.32" fill="white"/>
<path d="M142.999 285.32C142.999 285.32 141.999 249.55 142.999 246.94C143.999 244.33 151.659 232.68 164.329 234C176.999 235.32 170.999 282.32 170.999 284.32C170.999 286.32 162.999 296.32 147.999 290.32" stroke="black" stroke-width="2" stroke-miterlimit="10" stroke-linecap="round"/>
<path d="M29 290L1.3692 338.536C-0.0819399 341.088 2.99752 343.793 6.20354 342.783L29 335.575" fill="#D9D9D9"/>
<path d="M29 290L1.3692 338.536C-0.08194 341.088 2.99752 343.793 6.20354 342.783L29 335.575" stroke="black" stroke-width="2" stroke-miterlimit="10" stroke-linecap="round"/>
<path d="M271 290L298.631 338.536C300.082 341.088 297.002 343.793 293.796 342.783L271 335.575" fill="#D9D9D9"/>
<path d="M271 290L298.631 338.536C300.082 341.088 297.002 343.793 293.796 342.783L271 335.575" stroke="black" stroke-width="2" stroke-miterlimit="10" stroke-linecap="round"/>
<path d="M147.927 350.948C147.927 350.948 122.23 363.771 119.895 362.963C117.56 362.156 116 355.754 116 350.948C116 346.142 148 348.658 148 348.658" fill="black"/>
<path d="M147.927 350.948C147.927 350.948 122.23 363.771 119.895 362.963C117.56 362.156 116 355.754 116 350.948C116 346.142 148 348.658 148 348.658" stroke="black" stroke-width="2" stroke-miterlimit="10" stroke-linecap="round"/>
<path d="M148.01 348.668V351.324C148.01 351.697 148.313 352 148.687 352H151.323C151.697 352 152 351.697 152 351.324V348.89C152 348.537 151.727 348.244 151.374 348.214L148.737 348.002C148.343 347.972 148 348.285 148 348.678L148.01 348.668Z" fill="black" stroke="black" stroke-miterlimit="10" stroke-linecap="round"/>
<path d="M152 348.793C152 348.793 173.022 340.08 174.567 344.025C175.696 346.908 174.35 352.748 173.546 355.677C173.275 356.657 172.282 357.211 171.333 356.925L152 351.029" fill="black"/>
<path d="M152 348.793C152 348.793 173.022 340.08 174.567 344.025C175.696 346.908 174.35 352.748 173.546 355.677C173.275 356.657 172.282 357.211 171.333 356.925L152 351.029" stroke="black" stroke-width="2" stroke-miterlimit="10" stroke-linecap="round"/>
<path d="M148.809 352C148.809 352 132.602 369.193 126.066 396.614C125.793 397.754 126.384 398.929 127.457 399.418L132.575 401.769C134.111 402.475 135.892 401.489 136.101 399.816C137.383 389.288 143.473 359.199 150 352" fill="black"/>
<path d="M148.809 352C148.809 352 132.602 369.193 126.066 396.614C125.793 397.754 126.384 398.929 127.457 399.418L132.575 401.769C134.111 402.475 135.892 401.489 136.101 399.816C137.383 389.288 143.473 359.199 150 352" stroke="black" stroke-width="2" stroke-miterlimit="10" stroke-linecap="round"/>
<path d="M150 352C150 352 159.954 370.877 159.725 381.448C159.716 381.965 160.377 382.201 160.698 381.793L164.886 376.48C164.996 376.335 165.033 376.153 164.968 375.981C164.114 373.488 157.447 354.647 150.909 352" fill="black"/>
<path d="M150 352C150 352 159.954 370.877 159.725 381.448C159.716 381.965 160.377 382.201 160.698 381.793L164.886 376.48C164.996 376.335 165.033 376.153 164.968 375.981C164.114 373.488 157.447 354.647 150.909 352" stroke="black" stroke-width="2" stroke-miterlimit="10" stroke-linecap="round"/>
<path d="M152 349C152 349 170.442 339.514 171 332" stroke="black" stroke-width="2" stroke-miterlimit="10" stroke-linecap="round"/>
<path d="M172 333C172 333 170.814 341.265 160 345" stroke="black" stroke-width="2" stroke-miterlimit="10" stroke-linecap="round"/>
<path d="M124 339C124 339 132.602 347.421 146 349" stroke="black" stroke-width="2" stroke-miterlimit="10" stroke-linecap="round"/>
<path d="M122 339C122 339 128.759 346.591 136 348" stroke="black" stroke-width="2" stroke-miterlimit="10" stroke-linecap="round"/>
<path d="M196 38.6074C196 38.6074 209 13.8174 224 30.8174C224 30.8174 234 1.81738 268 7.81738C302 13.8174 285 49.8174 285 49.8174C285 49.8174 305 42.8174 310 56.8174C315 70.8174 300 76.8174 300 76.8174C300 76.8174 306 79.8174 306 83.8174C306 87.8174 302 90.8174 299 90.8174" stroke="black" stroke-width="2" stroke-miterlimit="10" stroke-linecap="round"/>
<path d="M138 325.53C138 325.53 149.34 319.05 161.5 325.53" stroke="black" stroke-width="2" stroke-miterlimit="10" stroke-linecap="round"/>
<path d="M158.91 323.189L194.39 352.999C196.04 354.379 198.53 353.959 199.63 352.119C205.03 343.069 219.41 319.489 224.93 315.549C231.78 310.659 235.69 303.809 238.62 302.839C241.05 302.029 261.61 293.159 268.59 290.149C269.44 289.779 269.4 288.579 268.54 288.249C262.61 286.029 247.24 280.539 242.54 281.319C236.67 282.299 222 290.119 218.09 290.119C214.6 290.119 171.09 305.939 158.78 316.879C156.89 318.559 156.98 321.549 158.92 323.179L158.91 323.189Z" fill="#EDECEC" stroke="black" stroke-width="2" stroke-miterlimit="10" stroke-linecap="round"/>
<path d="M140.25 323.189L104.77 352.999C103.12 354.379 100.63 353.959 99.5298 352.119C94.1298 343.069 79.7498 319.489 74.2298 315.549C67.3798 310.659 63.4698 303.809 60.5398 302.839C58.1098 302.029 37.5498 293.159 30.5698 290.149C29.7198 289.779 29.7598 288.579 30.6198 288.249C36.5498 286.029 51.9198 280.539 56.6198 281.319C62.4898 282.299 77.1598 290.119 81.0698 290.119C84.5598 290.119 128.07 305.939 140.38 316.879C142.27 318.559 142.18 321.549 140.24 323.179L140.25 323.189Z" fill="#EDECEC" stroke="black" stroke-width="2" stroke-miterlimit="10" stroke-linecap="round"/>
<defs>
<filter id="filter0_d_1091_4" x="397.338" y="0" width="708.554" height="479" filterUnits="userSpaceOnUse" color-interpolation-filters="sRGB">
<feFlood flood-opacity="0" result="BackgroundImageFix"/>
<feColorMatrix in="SourceAlpha" type="matrix" values="0 0 0 0 0 0 0 0 0 0 0 0 0 0 0 0 0 0 127 0" result="hardAlpha"/>
<feOffset dy="4"/>
<feGaussianBlur stdDeviation="2"/>
<feComposite in2="hardAlpha" operator="out"/>
<feColorMatrix type="matrix" values="0 0 0 0 0 0 0 0 0 0 0 0 0 0 0 0 0 0 0.25 0"/>
<feBlend mode="normal" in2="BackgroundImageFix" result="effect1_dropShadow_1091_4"/>
<feBlend mode="normal" in="SourceGraphic" in2="effect1_dropShadow_1091_4" result="shape"/>
</filter>
</defs>
</svg>
