<svg width="1167" height="492" viewBox="0 0 1167 492" fill="none" xmlns="http://www.w3.org/2000/svg">
<path d="M124.604 454.141V457.48H102.134V454.141H111.245V451.152H115.464V454.141H124.604ZM125.718 471.836V475.205H101.138V471.836H111.245V468.936C106.748 468.511 104.038 466.636 104.038 463.721C104.038 460.41 107.612 458.447 113.354 458.447C119.009 458.447 122.612 460.41 122.612 463.721C122.612 466.621 119.888 468.511 115.464 468.936V471.836H125.718ZM113.354 461.729C110.044 461.729 108.403 462.314 108.403 463.721C108.403 465.156 110.044 465.713 113.354 465.713C116.577 465.713 118.276 465.156 118.276 463.721C118.276 462.314 116.577 461.729 113.354 461.729ZM149.771 450.918V477.812H145.493V450.918H149.771ZM141.685 453.701C141.685 461.992 139.048 468.73 129.263 473.33L127.065 469.99C133.906 466.753 136.777 462.783 137.378 456.982H128.589V453.701H141.685ZM175.581 450.947V466.094H171.362V450.947H175.581ZM175.581 467.236V477.52H157.417V467.236H175.581ZM161.548 470.547V474.15H171.45V470.547H161.548ZM163.54 454.492C163.511 457.598 165.21 460.645 169.663 461.963L167.642 465.186C164.595 464.321 162.559 462.578 161.372 460.322C160.142 462.783 158.018 464.731 154.839 465.684L152.788 462.373C157.446 461.025 159.146 457.656 159.146 454.492V451.914H163.54V454.492ZM200.571 450.947V457.568H203.823V461.055H200.571V467.734H196.353V450.947H200.571ZM191.401 468.086C197.114 468.086 200.63 469.873 200.659 472.979C200.63 475.967 197.114 477.842 191.401 477.812C185.659 477.842 182.085 475.967 182.085 472.979C182.085 469.873 185.659 468.086 191.401 468.086ZM191.401 471.25C188.003 471.25 186.245 471.777 186.274 472.979C186.245 474.092 188.003 474.619 191.401 474.648C194.712 474.619 196.47 474.092 196.47 472.979C196.47 471.777 194.712 471.25 191.401 471.25ZM178.833 463.604C180.635 463.604 182.715 463.604 184.897 463.545V461.875C182.056 461.274 180.181 459.37 180.181 456.865C180.181 453.818 182.993 451.65 186.978 451.65C190.933 451.65 193.745 453.818 193.774 456.865C193.745 459.341 191.929 461.23 189.146 461.875V463.398C191.123 463.296 193.086 463.135 194.917 462.9L195.298 465.771C189.819 466.738 183.755 466.826 179.243 466.855L178.833 463.604ZM186.978 454.785C185.22 454.785 184.077 455.459 184.106 456.865C184.077 458.271 185.22 459.062 186.978 459.062C188.677 459.062 189.819 458.271 189.819 456.865C189.819 455.459 188.677 454.785 186.978 454.785ZM233.53 462.783V466.094H225.884V471.426H236.138V474.854H211.558V471.426H221.724V466.094H214.37V452.734H233.354V456.074H218.589V462.783H233.53ZM252.778 453.262V456.631H250.552V467.939C251.533 467.866 252.5 467.764 253.423 467.646L253.628 470.664C248.208 471.66 242.144 471.777 237.573 471.777L237.134 468.379L240.005 468.35V456.631H237.808V453.262H252.778ZM258.813 450.918V460.996H262.622V464.395H258.813V477.812H254.595V450.918H258.813ZM244.077 468.262L246.509 468.203V456.631H244.077V468.262ZM278.032 453.027V466.123H264.761V453.027H278.032ZM268.921 456.338V462.812H273.872V456.338H268.921ZM286.001 450.947V470.02H281.782V450.947H286.001ZM286.675 473.945V477.314H267.778V468.262H272.056V473.945H286.675ZM304.253 453.232V456.543H289.429V453.232H294.937V450.684H299.155V453.232H304.253ZM296.987 457.305C300.708 457.305 303.433 459.385 303.462 462.373C303.433 465.361 300.708 467.383 296.987 467.383C293.267 467.383 290.63 465.361 290.63 462.373C290.63 459.385 293.267 457.305 296.987 457.305ZM296.987 460.439C295.522 460.439 294.556 461.084 294.556 462.373C294.556 463.662 295.522 464.277 296.987 464.277C298.481 464.277 299.536 463.662 299.536 462.373C299.536 461.084 298.481 460.439 296.987 460.439ZM312.104 450.918V467.969H307.915V465.42H304.575V462.051H307.915V460H304.663V456.631H307.915V450.918H312.104ZM302.905 468.32C308.647 468.32 312.222 470.078 312.251 473.066C312.222 476.025 308.647 477.842 302.905 477.812C297.134 477.842 293.53 476.025 293.53 473.066C293.53 470.078 297.134 468.32 302.905 468.32ZM302.905 471.484C299.683 471.514 297.983 471.953 297.983 473.066C297.983 474.15 299.683 474.648 302.905 474.648C306.04 474.648 307.71 474.15 307.71 473.066C307.71 471.953 306.04 471.514 302.905 471.484Z" fill="#222222"/>
<g filter="url(#filter0_d_1091_6)">
<path fill-rule="evenodd" clip-rule="evenodd" d="M582.891 13C549.202 13 521.891 40.3106 521.891 74V215.9L463.154 244.423C459.399 246.246 459.399 251.595 463.154 253.418L521.891 281.941V423C521.891 456.689 549.202 484 582.891 484H1099.89C1133.58 484 1160.89 456.689 1160.89 423V74C1160.89 40.3106 1133.58 13 1099.89 13H582.891Z" fill="white"/>
</g>
<path d="M737.617 88.6406V93.625H740.475V95.043H737.617V100.049H735.92V88.6406H737.617ZM731.473 100.414C735.361 100.414 737.768 101.768 737.768 104.045C737.768 106.365 735.361 107.697 731.473 107.697C727.562 107.697 725.135 106.365 725.135 104.045C725.135 101.768 727.562 100.414 731.473 100.414ZM731.473 101.811C728.594 101.789 726.789 102.648 726.789 104.045C726.789 105.463 728.594 106.344 731.473 106.344C734.33 106.344 736.135 105.463 736.135 104.045C736.135 102.648 734.33 101.789 731.473 101.811ZM732.031 90.1016V91.498H725.199V97.1055C729.066 97.084 731.301 96.9658 733.857 96.4395L734.029 97.8359C731.365 98.373 729.066 98.4805 725.027 98.4805H723.545V90.1016H732.031ZM757.447 88.6621V102.67H755.771V88.6621H757.447ZM758.049 105.914V107.332H745.115V101.381H746.791V105.914H758.049ZM748.445 91.6484C748.424 94.5488 750.422 97.1699 753.258 98.2012L752.377 99.5547C750.164 98.7061 748.445 96.9873 747.607 94.7852C746.759 97.127 745.019 99.0068 742.795 99.8984L741.871 98.5879C744.771 97.4707 746.727 94.6562 746.727 91.6484V89.7363H748.445V91.6484ZM778.094 98.7168V100.092H760.691V98.7168H778.094ZM776.16 105.914V107.332H762.947V101.768H764.645V105.914H776.16ZM769.393 89.3281C773.496 89.3066 776.139 90.7246 776.139 93.1094C776.139 95.4941 773.496 96.9121 769.393 96.9121C765.246 96.9121 762.625 95.4941 762.625 93.1094C762.625 90.7246 765.246 89.3066 769.393 89.3281ZM769.393 90.6816C766.32 90.6816 764.344 91.6055 764.365 93.1094C764.344 94.6133 766.32 95.5371 769.393 95.5371C772.443 95.5371 774.42 94.6133 774.42 93.1094C774.42 91.6055 772.443 90.6816 769.393 90.6816ZM791.006 106.215C787.547 106.215 785.57 103.314 785.57 98.2227C785.57 93.1738 787.59 90.2305 791.006 90.2305C794.422 90.2305 796.441 93.1738 796.441 98.2227C796.441 103.314 794.443 106.215 791.006 106.215ZM791.006 104.496C793.24 104.496 794.551 102.24 794.551 98.2227C794.551 94.2051 793.24 91.9062 791.006 91.9062C788.771 91.9062 787.439 94.2051 787.439 98.2227C787.439 102.24 788.75 104.496 791.006 104.496ZM804.111 106.215C800.652 106.215 798.676 103.314 798.676 98.2227C798.676 93.1738 800.695 90.2305 804.111 90.2305C807.527 90.2305 809.547 93.1738 809.547 98.2227C809.547 103.314 807.549 106.215 804.111 106.215ZM804.111 104.496C806.346 104.496 807.656 102.24 807.656 98.2227C807.656 94.2051 806.346 91.9062 804.111 91.9062C801.877 91.9062 800.545 94.2051 800.545 98.2227C800.545 102.24 801.855 104.496 804.111 104.496ZM828.904 98.7598V100.135H821.127V103.873H819.451V100.135H811.416V98.7598H828.904ZM826.949 105.914V107.332H813.65V102.111H815.326V105.914H826.949ZM815.434 89.2637V91.7129H824.887V89.2637H826.562V96.8906H813.758V89.2637H815.434ZM815.434 95.5156H824.887V93.002H815.434V95.5156ZM835.564 90.123C838.379 90.1445 840.377 92.7227 840.398 96.7832C840.377 100.844 838.379 103.422 835.564 103.422C832.729 103.422 830.752 100.844 830.752 96.7832C830.752 92.7227 832.729 90.1445 835.564 90.123ZM835.564 91.627C833.674 91.6484 832.342 93.668 832.342 96.7832C832.342 99.8984 833.674 101.918 835.564 101.918C837.477 101.918 838.766 99.8984 838.766 96.7832C838.766 93.668 837.477 91.6484 835.564 91.627ZM848.326 93.4531V94.8926H845.232V99.1465H848.326V100.564H845.232V107.74H843.557V88.6406H845.232V93.4531H848.326ZM865.836 88.6406V107.74H864.203V88.6406H865.836ZM861.99 89.0488V106.773H860.379V97.4922H857.93C857.747 101.209 856.168 103.529 853.805 103.529C851.312 103.529 849.701 100.951 849.701 96.8906C849.701 92.8301 851.312 90.252 853.805 90.252C856.125 90.252 857.693 92.4971 857.908 96.0957H860.379V89.0488H861.99ZM853.805 91.8418C852.258 91.8418 851.27 93.7754 851.291 96.8906C851.27 99.9844 852.258 101.939 853.805 101.918C855.352 101.939 856.34 99.9844 856.34 96.8906C856.34 93.7754 855.352 91.8418 853.805 91.8418ZM884.592 90.123V91.1328C884.57 92.3789 884.57 94.291 884.098 96.7832L882.4 96.6543C882.862 94.3662 882.905 92.7441 882.938 91.541H875.074V90.123H884.592ZM879.672 94.3555V98.459C881.788 98.373 883.979 98.2227 885.967 97.9434L886.074 99.1895C882.078 99.877 877.459 99.9629 874.064 99.9629L873.893 98.5664C875.128 98.5557 876.524 98.5449 877.996 98.502V94.3555H879.672ZM888.975 88.6406V94.8711H891.768V96.3105H888.975V103.014H887.256V88.6406H888.975ZM889.598 105.914V107.332H876.836V101.725H878.533V105.914H889.598ZM908.783 88.6621V99.5117H907.107V88.6621H908.783ZM908.783 100.607V107.482H896.365V100.607H908.783ZM898.02 101.982V106.107H907.129V101.982H898.02ZM899.781 91.2832C899.76 93.9902 901.822 96.375 904.637 97.3633L903.777 98.6523C901.564 97.8896 899.803 96.2783 898.943 94.1836C898.095 96.418 896.312 98.1797 894.023 99.0176L893.164 97.6855C896.064 96.6758 898.062 94.0977 898.062 91.2832V89.4141H899.781V91.2832ZM918.494 101.467C918.494 103.153 919.396 104.947 921.223 105.979C923.027 104.851 923.994 102.949 923.994 101.467V100.414H925.648V101.467C925.648 103.422 927.088 105.398 929.537 106.236L928.699 107.482C926.787 106.806 925.444 105.474 924.789 103.873C924.198 105.42 923.027 106.881 921.266 107.633C919.407 106.924 918.226 105.517 917.656 103.916C916.979 105.463 915.658 106.795 913.832 107.482L912.973 106.236C915.379 105.334 916.84 103.293 916.861 101.467V100.414H918.494V101.467ZM927.797 88.6621V99.5762H926.121V88.6621H927.797ZM917.484 89.7793C920.385 89.7793 922.49 91.584 922.49 94.248C922.49 96.8691 920.385 98.6738 917.484 98.6738C914.584 98.6738 912.479 96.8691 912.479 94.248C912.479 91.584 914.584 89.7793 917.484 89.7793ZM917.484 91.2188C915.529 91.1973 914.111 92.4648 914.133 94.248C914.111 96.0098 915.529 97.2559 917.484 97.2773C919.418 97.2559 920.836 96.0098 920.836 94.248C920.836 92.4648 919.418 91.1973 917.484 91.2188ZM946.488 94.4414V95.7949H933.404V89.3496H935.08V94.4414H946.488ZM948.508 98.3945V99.7695H931.02V98.3945H948.508ZM946.596 105.871V107.268H933.297V101.725H934.973V105.871H946.596ZM953.191 104.561L951.516 110.404H949.926L951.107 104.561H953.191Z" fill="#222222"/>
<path d="M770.605 237.455C770.605 240.721 774.344 243.643 777.674 244.266L776.9 245.684C774.021 245.018 770.981 242.966 769.746 240.141C768.511 242.955 765.481 245.007 762.592 245.684L761.818 244.266C765.127 243.621 768.844 240.742 768.844 237.455V235.994H770.605V237.455ZM778.576 249.744V251.141H761.088V249.744H778.576ZM795.334 236.596V238.959C795.334 241.773 795.334 244.373 794.539 248.24L792.842 248.09C793.261 246.253 793.476 244.663 793.594 243.17L781.928 243.814L781.691 242.418L793.658 241.924C793.69 240.914 793.69 239.937 793.701 238.959V238.014H782.207V236.596H795.334ZM797.504 249.637V251.055H780.102V249.637H797.504ZM815.336 234.662V245.232H813.725V240.57H811.039V245.039H809.471V235.006H811.039V239.217H813.725V234.662H815.336ZM804.422 246.113V248.305H813.682V246.113H815.336V253.482H802.746V246.113H804.422ZM804.422 252.107H813.682V249.68H804.422V252.107ZM807.193 235.801V240.699H801.629V243.234C804.143 243.202 806.065 243.105 808.332 242.633L808.525 244.029C806.055 244.502 804.014 244.609 801.242 244.609H799.996V239.41H805.582V237.176H799.953V235.801H807.193ZM830.117 238.186C830.117 240.721 831.986 243.041 834.822 244.029L833.963 245.34C831.782 244.566 830.117 242.998 829.301 241.021C828.484 243.191 826.733 244.878 824.488 245.705L823.586 244.395C826.443 243.385 828.441 240.914 828.463 238.186V237.369H824.102V235.994H834.414V237.369H830.117V238.186ZM838.582 234.641V239.689H841.461V241.129H838.582V246.156H836.906V234.641H838.582ZM838.582 247.166V253.74H836.906V248.541H826.078V247.166H838.582ZM849.238 237.648C849.217 240.377 851.15 242.783 853.965 243.729L853.02 245.039C850.914 244.244 849.26 242.697 848.443 240.678C847.616 242.966 845.865 244.749 843.566 245.619L842.643 244.244C845.586 243.213 847.541 240.678 847.562 237.713V235.736H849.238V237.648ZM858.498 234.641V245.963H856.801V240.141H852.547V238.744H856.801V234.641H858.498ZM852.16 246.521C856.135 246.521 858.562 247.832 858.562 250.131C858.562 252.408 856.135 253.697 852.16 253.697C848.186 253.697 845.758 252.408 845.758 250.131C845.758 247.832 848.186 246.521 852.16 246.521ZM852.16 247.854C849.238 247.854 847.412 248.713 847.434 250.131C847.412 251.506 849.238 252.344 852.16 252.344C855.082 252.344 856.887 251.506 856.887 250.131C856.887 248.713 855.082 247.854 852.16 247.854ZM872.27 236.768V237.756C872.248 239.26 872.248 241.795 871.711 245.34L870.014 245.189C870.529 241.988 870.572 239.668 870.572 238.143H862.559V236.768H872.27ZM867.264 242.225V248.025C869.38 247.95 871.55 247.811 873.537 247.574L873.623 248.842C869.605 249.465 865.115 249.551 861.699 249.529L861.484 248.133C862.741 248.122 864.138 248.111 865.609 248.068V242.225H867.264ZM876.416 234.641V242.633H879.51V244.094H876.416V253.74H874.74V234.641H876.416ZM901.145 234.641V239.732H904.023V241.172H901.145V246.156H899.469V234.641H901.145ZM901.145 247.252V253.482H889.092V247.252H901.145ZM890.746 248.605V252.107H899.469V248.605H890.746ZM897.643 236.682V238.078H886.256V236.682H891.111V234.49H892.787V236.682H897.643ZM891.949 239.023C894.699 239.023 896.525 240.377 896.547 242.418C896.525 244.502 894.699 245.834 891.949 245.834C889.178 245.834 887.33 244.502 887.352 242.418C887.33 240.377 889.178 239.023 891.949 239.023ZM891.949 240.334C890.145 240.334 888.941 241.172 888.963 242.418C888.941 243.729 890.145 244.523 891.949 244.545C893.732 244.523 894.936 243.729 894.957 242.418C894.936 241.172 893.732 240.334 891.949 240.334ZM909.975 236.961C909.953 240.979 909.395 245.49 906.602 249.186L905.27 248.412C907.665 245.415 908.374 241.881 908.514 238.357H905.656V236.961H909.975ZM914.207 236.961C914.196 238.519 914.164 240.312 913.928 242.16H916.463V235.156H918.074V252.773H916.463V243.557H913.713C913.272 245.941 912.435 248.358 910.877 250.453L909.566 249.658C912.209 246.285 912.649 241.924 912.725 238.357H910.576V236.961H914.207ZM921.662 234.641V253.74H920.029V234.641H921.662ZM746.221 261.467V262.885H739.152V272.617C742.59 272.617 744.867 272.499 747.51 271.994L747.725 273.391C744.91 273.928 742.59 274.057 738.916 274.057H737.455V261.467H746.221ZM752.344 259.641V278.783H750.646V267.998H745.082V266.602H750.646V259.641H752.344ZM775.955 259.641V263.959H778.834V265.377H775.955V269.438H774.279V259.641H775.955ZM770.67 260.908V268.686H761.84V260.908H770.67ZM763.494 262.283V267.332H769.037V262.283H763.494ZM764.697 271.156V276.828C765.804 276.796 767.275 276.635 768.629 276.184L768.887 277.537C767.018 278.16 765.213 278.225 763.967 278.225H763.064V271.156H764.697ZM777.867 271.35V272.639H768.221V271.35H772.238V269.652H773.893V271.35H777.867ZM773.033 273.326C775.117 273.348 776.6 274.357 776.621 276.012C776.6 277.666 775.117 278.697 773.033 278.697C770.928 278.697 769.467 277.666 769.488 276.012C769.467 274.357 770.928 273.348 773.033 273.326ZM773.033 274.529C771.852 274.529 770.992 275.109 770.992 276.012C770.992 276.914 771.852 277.516 773.033 277.494C774.236 277.516 775.074 276.914 775.074 276.012C775.074 275.109 774.236 274.529 773.033 274.529ZM797.439 269.717V271.092H780.037V269.717H797.439ZM795.506 276.914V278.332H782.293V272.768H783.99V276.914H795.506ZM788.738 260.328C792.842 260.307 795.484 261.725 795.484 264.109C795.484 266.494 792.842 267.912 788.738 267.912C784.592 267.912 781.971 266.494 781.971 264.109C781.971 261.725 784.592 260.307 788.738 260.328ZM788.738 261.682C785.666 261.682 783.689 262.605 783.711 264.109C783.689 265.613 785.666 266.537 788.738 266.537C791.789 266.537 793.766 265.613 793.766 264.109C793.766 262.605 791.789 261.682 788.738 261.682ZM813.273 272.832C817.463 272.832 819.826 273.842 819.848 275.775C819.826 277.709 817.463 278.719 813.273 278.74C809.041 278.719 806.678 277.709 806.678 275.775C806.678 273.842 809.041 272.832 813.273 272.832ZM813.273 274.078C810.158 274.078 808.396 274.701 808.396 275.775C808.396 276.871 810.158 277.451 813.273 277.451C816.367 277.451 818.129 276.871 818.129 275.775C818.129 274.701 816.367 274.078 813.273 274.078ZM820.965 261.295V262.605H805.475V261.295H812.436V259.361H814.111V261.295H820.965ZM813.273 263.4C817.227 263.4 819.461 264.367 819.461 266.172C819.461 267.977 817.227 268.922 813.273 268.922C809.32 268.922 807.064 267.977 807.064 266.172C807.064 264.367 809.32 263.4 813.273 263.4ZM813.273 264.582C810.459 264.582 808.848 265.162 808.869 266.172C808.848 267.16 810.459 267.719 813.273 267.719C816.066 267.719 817.678 267.16 817.678 266.172C817.678 265.162 816.066 264.582 813.273 264.582ZM821.975 270.189V271.521H804.572V270.189H821.975ZM833.533 261.531V273.949H824.703V261.531H833.533ZM826.357 262.885V272.574H831.879V262.885H826.357ZM839.334 259.641V278.783H837.637V259.641H839.334ZM860.066 268.514V269.846H842.578V268.514H860.066ZM857.875 271.371V275.432H846.402V277.258H858.498V278.482H844.705V274.271H856.199V272.639H844.684V271.371H857.875ZM857.811 260.221V264.174H846.531V265.85H858.154V267.074H844.855V263.014H856.113V261.445H844.791V260.221H857.811ZM882.604 264.582V265.936H876.674V268.363H884.537V269.76H867.135V268.363H874.998V265.936H869.52V260.07H871.195V264.582H882.604ZM882.625 271.672V273.025H879.66V277.107H882.775V278.482H868.918V277.107H872.033V273.025H869.09V271.672H882.625ZM873.709 277.107H878.006V273.025H873.709V277.107ZM891.283 261.123C893.034 261.134 894.452 262.154 895.279 263.916H900.307V259.641H901.982V278.783H900.307V271.371H895.408C894.603 273.305 893.131 274.422 891.283 274.422C888.469 274.422 886.492 271.844 886.492 267.783C886.492 263.723 888.469 261.145 891.283 261.123ZM891.283 262.627C889.393 262.648 888.104 264.668 888.104 267.783C888.104 270.898 889.393 272.918 891.283 272.918C893.152 272.918 894.463 270.898 894.463 267.783C894.463 264.668 893.152 262.648 891.283 262.627ZM895.773 265.334C895.945 266.075 896.053 266.892 896.053 267.783C896.053 268.567 895.967 269.309 895.838 269.975H900.307V265.334H895.773ZM907.891 261.23V264.152H914.1V261.23H915.775V269.824H911.844V273.24C913.605 273.176 915.378 273.047 917.021 272.832L917.129 274.1C913.09 274.744 908.557 274.809 905.205 274.83L904.926 273.391C906.483 273.38 908.277 273.369 910.146 273.305V269.824H906.215V261.23H907.891ZM907.891 268.449H914.1V265.463H907.891V268.449ZM919.922 259.641V267.676H923.037V269.094H919.922V278.74H918.246V259.641H919.922ZM941.664 274.873V276.291H924.176V274.873H928.516V269.717C926.883 268.868 925.895 267.493 925.895 265.764C925.895 262.799 928.795 260.865 932.877 260.844C936.959 260.865 939.859 262.799 939.859 265.764C939.859 267.461 938.903 268.825 937.324 269.674V274.873H941.664ZM932.877 262.24C929.74 262.219 927.527 263.637 927.527 265.764C927.527 267.891 929.74 269.33 932.877 269.33C935.992 269.33 938.227 267.891 938.227 265.764C938.227 263.637 935.992 262.219 932.877 262.24ZM930.17 274.873H935.627V270.318C934.8 270.544 933.876 270.662 932.877 270.662C931.899 270.662 930.986 270.555 930.17 270.34V274.873ZM946.283 261.445L946.133 272.617H944.328L944.178 261.445H946.283ZM945.23 277.129C944.479 277.129 943.834 276.506 943.855 275.732C943.834 274.98 944.479 274.357 945.23 274.357C945.982 274.357 946.605 274.98 946.605 275.732C946.605 276.506 945.982 277.129 945.23 277.129Z" fill="#222222"/>
<path d="M684.851 189.662V195.441H687.708V196.859H684.851V203.24H683.153V189.662H684.851ZM679.759 202.596C679.759 205.109 682.745 206.871 686.204 207.344L685.56 208.654C682.659 208.192 680.027 206.936 678.899 204.895C677.761 206.936 675.118 208.192 672.218 208.654L671.595 207.344C675.054 206.871 678.04 205.109 678.04 202.596V201.951H679.759V202.596ZM669.919 199.459C671.412 199.459 673.152 199.448 674.968 199.373V197.59C672.604 197.343 671.036 195.957 671.058 194.002C671.036 191.854 672.97 190.414 675.763 190.393C678.556 190.414 680.489 191.854 680.489 194.002C680.489 195.925 678.964 197.3 676.665 197.568V199.309C678.459 199.212 680.264 199.062 681.929 198.814L682.058 200.018C678.019 200.748 673.442 200.812 670.134 200.812L669.919 199.459ZM675.763 191.682C673.915 191.682 672.626 192.605 672.626 194.002C672.626 195.398 673.915 196.344 675.763 196.344C677.61 196.344 678.899 195.398 678.899 194.002C678.899 192.605 677.61 191.682 675.763 191.682ZM706.442 204.873V206.291H688.954V204.873H706.442ZM698.536 194.109C698.536 197.268 701.694 199.652 705.325 200.297L704.638 201.672C701.619 201.06 698.869 199.405 697.677 196.902C696.463 199.405 693.713 201.06 690.694 201.672L690.028 200.297C693.638 199.652 696.817 197.268 696.817 194.109H690.587V192.734H696.839V190.113H698.493V192.734H704.767V194.109H698.536ZM723.286 191.574V193.486C723.265 195.828 723.265 198.449 722.577 202.295L720.858 202.102C721.589 198.449 721.589 195.764 721.589 193.486V192.971H709.815V191.574H723.286ZM725.37 204.637V206.033H707.968V204.637H714.8V197.805H716.454V204.637H725.37ZM742.751 189.662V201.027H741.075V189.662H742.751ZM736.37 201.414C740.345 201.414 742.794 202.746 742.815 205.045C742.794 207.365 740.345 208.697 736.37 208.697C732.353 208.697 729.925 207.365 729.925 205.045C729.925 202.746 732.353 201.414 736.37 201.414ZM736.37 202.746C733.405 202.746 731.622 203.605 731.622 205.045C731.622 206.484 733.405 207.344 736.37 207.344C739.313 207.344 741.14 206.484 741.14 205.045C741.14 203.605 739.313 202.746 736.37 202.746ZM732.438 190.865C735.339 190.887 737.444 192.691 737.444 195.334C737.444 197.977 735.339 199.76 732.438 199.781C729.538 199.76 727.433 197.977 727.433 195.334C727.433 192.691 729.538 190.887 732.438 190.865ZM732.438 192.326C730.483 192.305 729.065 193.529 729.087 195.334C729.065 197.117 730.483 198.342 732.438 198.363C734.372 198.342 735.79 197.117 735.79 195.334C735.79 193.529 734.372 192.305 732.438 192.326ZM763.397 199.824V201.221H745.995V199.824H753.858V197.826C750.195 197.644 747.929 196.258 747.929 194.002C747.929 191.66 750.55 190.221 754.696 190.221C758.8 190.221 761.442 191.66 761.442 194.002C761.442 196.258 759.154 197.644 755.534 197.826V199.824H763.397ZM761.464 206.914V208.332H748.251V202.768H749.948V206.914H761.464ZM754.696 191.596C751.624 191.596 749.647 192.541 749.669 194.002C749.647 195.549 751.624 196.451 754.696 196.451C757.747 196.451 759.724 195.549 759.724 194.002C759.724 192.541 757.747 191.596 754.696 191.596ZM775.601 191.768V192.756C775.579 194.26 775.579 196.795 775.042 200.34L773.345 200.189C773.86 196.988 773.903 194.668 773.903 193.143H765.89V191.768H775.601ZM770.595 197.225V203.025C772.711 202.95 774.881 202.811 776.868 202.574L776.954 203.842C772.937 204.465 768.446 204.551 765.03 204.529L764.815 203.133C766.072 203.122 767.469 203.111 768.94 203.068V197.225H770.595ZM779.747 189.641V197.633H782.841V199.094H779.747V208.74H778.071V189.641H779.747ZM804.476 189.641V194.732H807.354V196.172H804.476V201.156H802.8V189.641H804.476ZM804.476 202.252V208.482H792.423V202.252H804.476ZM794.077 203.605V207.107H802.8V203.605H794.077ZM800.974 191.682V193.078H789.587V191.682H794.442V189.49H796.118V191.682H800.974ZM795.28 194.023C798.03 194.023 799.856 195.377 799.878 197.418C799.856 199.502 798.03 200.834 795.28 200.834C792.509 200.834 790.661 199.502 790.683 197.418C790.661 195.377 792.509 194.023 795.28 194.023ZM795.28 195.334C793.476 195.334 792.272 196.172 792.294 197.418C792.272 198.729 793.476 199.523 795.28 199.545C797.063 199.523 798.267 198.729 798.288 197.418C798.267 196.172 797.063 195.334 795.28 195.334ZM813.306 191.961C813.284 195.979 812.726 200.49 809.933 204.186L808.601 203.412C810.996 200.415 811.705 196.881 811.845 193.357H808.987V191.961H813.306ZM817.538 191.961C817.527 193.519 817.495 195.312 817.259 197.16H819.794V190.156H821.405V207.773H819.794V198.557H817.044C816.604 200.941 815.766 203.358 814.208 205.453L812.897 204.658C815.54 201.285 815.98 196.924 816.056 193.357H813.907V191.961H817.538ZM824.993 189.641V208.74H823.36V189.641H824.993ZM843.685 191.123V192.133C843.663 193.379 843.663 195.291 843.19 197.783L841.493 197.654C841.955 195.366 841.998 193.744 842.03 192.541H834.167V191.123H843.685ZM838.765 195.355V199.459C840.881 199.373 843.072 199.223 845.06 198.943L845.167 200.189C841.171 200.877 836.552 200.963 833.157 200.963L832.985 199.566C834.221 199.556 835.617 199.545 837.089 199.502V195.355H838.765ZM848.067 189.641V195.871H850.86V197.311H848.067V204.014H846.349V189.641H848.067ZM848.69 206.914V208.332H835.929V202.725H837.626V206.914H848.69ZM867.876 189.662V200.512H866.2V189.662H867.876ZM867.876 201.607V208.482H855.458V201.607H867.876ZM857.112 202.982V207.107H866.222V202.982H857.112ZM858.874 192.283C858.853 194.99 860.915 197.375 863.729 198.363L862.87 199.652C860.657 198.89 858.896 197.278 858.036 195.184C857.188 197.418 855.404 199.18 853.116 200.018L852.257 198.686C855.157 197.676 857.155 195.098 857.155 192.283V190.414H858.874V192.283ZM888.587 199.76V201.135H880.81V204.873H879.134V201.135H871.099V199.76H888.587ZM886.632 206.914V208.332H873.333V203.111H875.009V206.914H886.632ZM875.116 190.264V192.713H884.569V190.264H886.245V197.891H873.44V190.264H875.116ZM875.116 196.516H884.569V194.002H875.116V196.516ZM895.247 191.123C898.062 191.145 900.06 193.723 900.081 197.783C900.06 201.844 898.062 204.422 895.247 204.422C892.411 204.422 890.435 201.844 890.435 197.783C890.435 193.723 892.411 191.145 895.247 191.123ZM895.247 192.627C893.356 192.648 892.024 194.668 892.024 197.783C892.024 200.898 893.356 202.918 895.247 202.918C897.159 202.918 898.448 200.898 898.448 197.783C898.448 194.668 897.159 192.648 895.247 192.627ZM908.009 194.453V195.893H904.915V200.146H908.009V201.564H904.915V208.74H903.239V189.641H904.915V194.453H908.009ZM926.614 198.514V199.846H909.126V198.514H926.614ZM924.423 201.371V205.432H912.95V207.258H925.046V208.482H911.253V204.271H922.747V202.639H911.231V201.371H924.423ZM924.358 190.221V194.174H913.079V195.85H924.702V197.074H911.403V193.014H922.661V191.445H911.339V190.221H924.358ZM936.519 190.629V197.418C939.505 197.407 942.029 197.257 944.812 196.688L945.069 198.105C942.062 198.686 939.462 198.836 936.282 198.836H934.821V190.629H936.519ZM949.517 189.641V199.824H947.819V194.238H942.319V192.842H947.819V189.641H949.517ZM944.919 200.533V203.047H947.97V200.533H949.517V208.525H943.372V200.533H944.919ZM944.919 207.172H947.97V204.379H944.919V207.172ZM942.19 200.77V205.109H937.7V207.193C939.773 207.183 940.998 207.14 942.62 206.871L942.771 208.16C940.987 208.482 939.591 208.525 937.034 208.525H936.046V203.863H940.558V202.059H936.003V200.77H942.19ZM963.997 192.713V194.109H952.696V192.713H957.53V189.855H959.249V192.713H963.997ZM958.39 195.699C960.968 195.699 962.837 197.504 962.858 200.082C962.837 202.66 960.968 204.465 958.39 204.465C955.79 204.465 953.921 202.66 953.942 200.082C953.921 197.504 955.79 195.699 958.39 195.699ZM958.39 197.139C956.692 197.16 955.446 198.385 955.468 200.082C955.446 201.801 956.692 203.025 958.39 203.004C960.087 203.025 961.333 201.801 961.333 200.082C961.333 198.385 960.087 197.16 958.39 197.139ZM968.53 189.641V208.74H966.854V202.145H963.632V200.748H966.854V197.396H963.632V196H966.854V189.641H968.53ZM974.438 191.23V194.152H980.647V191.23H982.323V199.824H978.392V203.24C980.153 203.176 981.926 203.047 983.569 202.832L983.677 204.1C979.638 204.744 975.104 204.809 971.753 204.83L971.474 203.391C973.031 203.38 974.825 203.369 976.694 203.305V199.824H972.763V191.23H974.438ZM974.438 198.449H980.647V195.463H974.438V198.449ZM986.47 189.641V197.676H989.585V199.094H986.47V208.74H984.794V189.641H986.47ZM1008.21 204.873V206.291H990.724V204.873H995.063V199.717C993.431 198.868 992.442 197.493 992.442 195.764C992.442 192.799 995.343 190.865 999.425 190.844C1003.51 190.865 1006.41 192.799 1006.41 195.764C1006.41 197.461 1005.45 198.825 1003.87 199.674V204.873H1008.21ZM999.425 192.24C996.288 192.219 994.075 193.637 994.075 195.764C994.075 197.891 996.288 199.33 999.425 199.33C1002.54 199.33 1004.77 197.891 1004.77 195.764C1004.77 193.637 1002.54 192.219 999.425 192.24ZM996.718 204.873H1002.17V200.318C1001.35 200.544 1000.42 200.662 999.425 200.662C998.447 200.662 997.534 200.555 996.718 200.34V204.873ZM1012.83 191.445L1012.68 202.617H1010.88L1010.73 191.445H1012.83ZM1011.78 207.129C1011.03 207.129 1010.38 206.506 1010.4 205.732C1010.38 204.98 1011.03 204.357 1011.78 204.357C1012.53 204.357 1013.15 204.98 1013.15 205.732C1013.15 206.506 1012.53 207.129 1011.78 207.129Z" fill="#222222"/>
<path d="M730.616 126.38L732.789 119.324H735.645L734.473 126.38H730.616ZM736.304 126.38L738.477 119.324H741.333L740.162 126.38H736.304ZM768.311 119.617V122.4H749.585V119.617H757.178V117.127H760.694V119.617H768.311ZM769.239 134.363V137.171H748.755V134.363H757.178V131.946C753.431 131.592 751.172 130.03 751.172 127.601C751.172 124.842 754.151 123.206 758.936 123.206C763.648 123.206 766.651 124.842 766.651 127.601C766.651 130.018 764.38 131.592 760.694 131.946V134.363H769.239ZM758.936 125.94C756.177 125.94 754.81 126.429 754.81 127.601C754.81 128.797 756.177 129.261 758.936 129.261C761.622 129.261 763.038 128.797 763.038 127.601C763.038 126.429 761.622 125.94 758.936 125.94ZM789.283 116.932V139.344H785.718V116.932H789.283ZM782.544 119.251C782.544 126.16 780.347 131.775 772.193 135.608L770.362 132.825C776.062 130.127 778.455 126.819 778.956 121.985H771.631V119.251H782.544ZM810.792 116.956V129.578H807.276V116.956H810.792ZM810.792 130.53V139.1H795.655V130.53H810.792ZM799.097 133.289V136.292H807.349V133.289H799.097ZM800.757 119.91C800.733 122.498 802.149 125.037 805.86 126.136L804.175 128.821C801.636 128.101 799.939 126.648 798.951 124.769C797.925 126.819 796.155 128.443 793.506 129.236L791.797 126.478C795.679 125.354 797.095 122.547 797.095 119.91V117.762H800.757V119.91ZM831.617 116.956V122.474H834.327V125.379H831.617V130.945H828.101V116.956H831.617ZM823.975 131.238C828.736 131.238 831.666 132.728 831.69 135.315C831.666 137.806 828.736 139.368 823.975 139.344C819.19 139.368 816.211 137.806 816.211 135.315C816.211 132.728 819.19 131.238 823.975 131.238ZM823.975 133.875C821.143 133.875 819.678 134.314 819.703 135.315C819.678 136.243 821.143 136.683 823.975 136.707C826.734 136.683 828.199 136.243 828.199 135.315C828.199 134.314 826.734 133.875 823.975 133.875ZM813.501 127.503C815.003 127.503 816.736 127.503 818.555 127.454V126.062C816.187 125.562 814.625 123.975 814.625 121.888C814.625 119.349 816.968 117.542 820.289 117.542C823.584 117.542 825.928 119.349 825.953 121.888C825.928 123.951 824.415 125.525 822.095 126.062V127.332C823.743 127.247 825.379 127.112 826.905 126.917L827.222 129.31C822.657 130.115 817.603 130.188 813.843 130.213L813.501 127.503ZM820.289 120.154C818.824 120.154 817.872 120.716 817.896 121.888C817.872 123.06 818.824 123.719 820.289 123.719C821.705 123.719 822.657 123.06 822.657 121.888C822.657 120.716 821.705 120.154 820.289 120.154ZM859.083 126.819V129.578H852.71V134.021H861.255V136.878H840.772V134.021H849.244V129.578H843.116V118.445H858.936V121.229H846.631V126.819H859.083ZM875.123 118.885V121.692H873.267V131.116C874.085 131.055 874.891 130.97 875.66 130.872L875.831 133.387C871.314 134.217 866.26 134.314 862.452 134.314L862.085 131.482L864.478 131.458V121.692H862.647V118.885H875.123ZM880.152 116.932V125.33H883.326V128.162H880.152V139.344H876.636V116.932H880.152ZM867.872 131.385L869.898 131.336V121.692H867.872V131.385ZM896.167 118.689V129.603H885.108V118.689H896.167ZM888.575 121.448V126.844H892.701V121.448H888.575ZM902.808 116.956V132.85H899.292V116.956H902.808ZM903.37 136.121V138.929H887.623V131.385H891.187V136.121H903.37ZM918.018 118.86V121.619H905.665V118.86H910.254V116.736H913.77V118.86H918.018ZM911.963 122.254C915.064 122.254 917.334 123.987 917.359 126.478C917.334 128.968 915.064 130.652 911.963 130.652C908.863 130.652 906.666 128.968 906.666 126.478C906.666 123.987 908.863 122.254 911.963 122.254ZM911.963 124.866C910.743 124.866 909.937 125.403 909.937 126.478C909.937 127.552 910.743 128.064 911.963 128.064C913.208 128.064 914.087 127.552 914.087 126.478C914.087 125.403 913.208 124.866 911.963 124.866ZM924.561 116.932V131.141H921.07V129.017H918.287V126.209H921.07V124.5H918.36V121.692H921.07V116.932H924.561ZM916.895 131.434C921.68 131.434 924.659 132.898 924.683 135.389C924.659 137.854 921.68 139.368 916.895 139.344C912.085 139.368 909.083 137.854 909.083 135.389C909.083 132.898 912.085 131.434 916.895 131.434ZM916.895 134.07C914.209 134.095 912.793 134.461 912.793 135.389C912.793 136.292 914.209 136.707 916.895 136.707C919.507 136.707 920.899 136.292 920.899 135.389C920.899 134.461 919.507 134.095 916.895 134.07ZM932.764 126.38L934.937 119.324H937.793L936.622 126.38H932.764ZM938.453 126.38L940.625 119.324H943.482L942.31 126.38H938.453Z" fill="black"/>
<rect x="608" y="358" width="137" height="52" rx="10" fill="#B1B1B1"/>
<path d="M645.023 376.031V393H642.422V378.609H642.328L638.273 381.258V378.797L642.492 376.031H645.023ZM666.586 373.992V394.992H664.453V384.094H661.852V393.984H659.766V374.555H661.852V382.289H664.453V373.992H666.586ZM657.68 376.664C657.656 382.195 655.828 387.141 649.828 390.539L648.539 388.992C653.203 386.355 655.172 382.781 655.523 378.492H649.43V376.664H657.68ZM679.992 375.844V385.641H670.172V375.844H679.992ZM672.352 377.648V383.883H677.812V377.648H672.352ZM685.852 373.969V380.25H688.898V382.125H685.852V389.367H683.625V373.969H685.852ZM686.742 392.742V394.547H672.539V387.891H674.766V392.742H686.742ZM707.883 375.539V377.344H705.891V383.109C706.887 383.039 707.859 382.945 708.797 382.828L708.938 384.492C704.695 385.172 699.773 385.242 696.211 385.242L695.953 383.367H698.531V377.344H696.539V375.539H707.883ZM712.453 387.211V394.734H699.047V387.211H712.453ZM701.227 388.969V392.93H710.25V388.969H701.227ZM712.453 373.992V378.938H715.5V380.766H712.453V386.156H710.227V373.992H712.453ZM700.688 383.344C701.672 383.32 702.691 383.285 703.711 383.227V377.344H700.688V383.344Z" fill="white"/>
<rect x="938" y="358" width="137" height="52" rx="10" fill="#313131"/>
<path d="M982.805 383.672V385.453H976.453V390.586H985.008V392.414H965.789V390.586H974.25V385.453H968.18V375.609H982.617V377.414H970.406V383.672H982.805ZM998.555 376.148V377.977H996.398V387.75C997.441 387.691 998.461 387.586 999.445 387.469L999.562 389.086C995.156 389.812 990.211 389.883 986.531 389.906L986.273 388.055L988.945 388.031V377.977H986.789V376.148H998.555ZM1002.89 373.992V382.266H1006.27V384.094H1002.89V394.992H1000.66V373.992H1002.89ZM991.102 387.984C992.133 387.973 993.188 387.938 994.242 387.891V377.977H991.102V387.984ZM1018.36 375.773V385.641H1008.38V375.773H1018.36ZM1010.55 377.578V383.859H1016.16V377.578H1010.55ZM1024.69 374.016V389.062H1022.46V374.016H1024.69ZM1025.32 392.531V394.359H1010.95V387.609H1013.2V392.531H1025.32ZM1039.85 376.195V377.977H1028.04V376.195H1032.96V373.805H1035.16V376.195H1039.85ZM1034.04 378.938C1036.88 378.938 1038.87 380.508 1038.89 382.852C1038.87 385.195 1036.88 386.742 1034.04 386.742C1031.18 386.742 1029.21 385.195 1029.21 382.852C1029.21 380.508 1031.18 378.938 1034.04 378.938ZM1034.04 380.625C1032.38 380.625 1031.3 381.492 1031.3 382.852C1031.3 384.211 1032.38 385.055 1034.04 385.055C1035.68 385.055 1036.8 384.211 1036.83 382.852C1036.8 381.492 1035.68 380.625 1034.04 380.625ZM1045.52 373.992V387.516H1043.3V384.82H1039.9V383.016H1043.3V380.695H1039.92V378.891H1043.3V373.992H1045.52ZM1038.54 387.727C1042.95 387.727 1045.64 389.039 1045.64 391.336C1045.64 393.609 1042.95 394.969 1038.54 394.945C1034.11 394.969 1031.41 393.609 1031.41 391.336C1031.41 389.039 1034.11 387.727 1038.54 387.727ZM1038.54 389.438C1035.52 389.438 1033.73 390.094 1033.73 391.336C1033.73 392.555 1035.52 393.258 1038.54 393.234C1041.49 393.258 1043.27 392.555 1043.27 391.336C1043.27 390.094 1041.49 389.438 1038.54 389.438Z" fill="white"/>
<rect x="773" y="358" width="137" height="52" rx="10" fill="#717171"/>
<path d="M822.012 375.305C822.012 380.648 818.355 384.445 812.262 386.156L811.348 384.422C816.188 383.062 819.199 380.438 819.645 377.133H812.449V375.305H822.012ZM828.668 374.016V385.898H826.441V381.117H822.105V379.266H826.441V374.016H828.668ZM828.668 386.766V394.711H814.934V386.766H828.668ZM817.113 388.547V392.93H826.465V388.547H817.113ZM838.324 377.953C838.324 380.32 839.777 382.688 842.496 383.742L841.301 385.453C839.379 384.68 838.02 383.227 837.27 381.469C836.484 383.426 835.055 385.113 833.027 385.992L831.809 384.281C834.645 383.039 836.168 380.32 836.168 377.953V375.258H838.324V377.953ZM849.809 374.016V386.695H847.699V381.211H845.238V386.578H843.176V374.367H845.238V379.359H847.699V374.016H849.809ZM849.809 387.797V394.992H847.605V389.602H835.535V387.797H849.809ZM864.48 376.195V377.977H852.668V376.195H857.59V373.805H859.793V376.195H864.48ZM858.668 378.938C861.504 378.938 863.496 380.508 863.52 382.852C863.496 385.195 861.504 386.742 858.668 386.742C855.809 386.742 853.84 385.195 853.84 382.852C853.84 380.508 855.809 378.938 858.668 378.938ZM858.668 380.625C857.004 380.625 855.926 381.492 855.926 382.852C855.926 384.211 857.004 385.055 858.668 385.055C860.309 385.055 861.434 384.211 861.457 382.852C861.434 381.492 860.309 380.625 858.668 380.625ZM870.152 373.992V387.516H867.926V384.82H864.527V383.016H867.926V380.695H864.551V378.891H867.926V373.992H870.152ZM863.168 387.727C867.574 387.727 870.27 389.039 870.27 391.336C870.27 393.609 867.574 394.969 863.168 394.945C858.738 394.969 856.043 393.609 856.043 391.336C856.043 389.039 858.738 387.727 863.168 387.727ZM863.168 389.438C860.145 389.438 858.363 390.094 858.363 391.336C858.363 392.555 860.145 393.258 863.168 393.234C866.121 393.258 867.902 392.555 867.902 391.336C867.902 390.094 866.121 389.438 863.168 389.438Z" fill="white"/>
<path d="M83.1847 253.112L88.1334 134.384L151.433 72.5938L338.273 80.5044L329.993 279.202C329.912 281.094 329.939 283 330.089 284.892C331.176 299.671 336.247 367.248 338.273 376.57C340.543 387.031 323.644 393.927 308.186 393.927C292.729 393.927 282.478 378.421 267.102 381.876C251.725 385.331 227.811 404.264 207.323 380.149C186.821 356.033 166.891 374.116 166.891 374.116C166.891 374.116 135.948 400.81 107.575 373.253C107.575 373.253 105.984 360.461 82.3554 365.136C58.7268 369.811 58.822 357.747 60.4806 352.578C61.5818 349.137 70.9218 315.095 77.026 292.748C80.5608 279.819 82.6273 266.521 83.1847 253.112Z" fill="#D9D9D9" stroke="black" stroke-width="2" stroke-miterlimit="10"/>
<path d="M150.06 72.5938C150.06 72.5938 155.131 135.017 147.203 142.551C139.276 150.086 109.818 127.648 87.6045 134.673" fill="#F4F4F4"/>
<path d="M150.06 72.5938C150.06 72.5938 155.131 135.017 147.203 142.551C139.276 150.086 109.818 127.648 87.6045 134.673" stroke="black" stroke-width="2" stroke-miterlimit="10" stroke-linecap="round"/>
<path d="M84.4015 210.035C84.4015 210.035 68.9399 203.217 67.2889 196.288C65.6379 189.36 58.9946 222.774 82.8946 247.672" fill="#D9D9D9"/>
<path d="M84.4015 210.035C84.4015 210.035 68.9399 203.217 67.2889 196.288C65.6379 189.36 58.9946 222.774 82.8946 247.672" stroke="black" stroke-width="2" stroke-miterlimit="10" stroke-linecap="round"/>
<path d="M333.259 222.158C333.259 222.158 351.329 212.856 353.008 206.055C354.687 199.254 370.958 224.632 331.007 276.496" fill="#D9D9D9"/>
<path d="M333.259 222.158C333.259 222.158 351.329 212.856 353.008 206.055C354.687 199.254 370.958 224.632 331.007 276.496" stroke="black" stroke-width="2" stroke-miterlimit="10" stroke-linecap="round"/>
<path d="M289.372 386.454C289.372 386.454 274.239 344.04 274.428 297.847" stroke="black" stroke-width="2" stroke-miterlimit="10" stroke-linecap="round"/>
<path d="M98.2803 365.103C98.2803 365.103 124.969 332.328 124.969 294.645" stroke="black" stroke-width="2" stroke-miterlimit="10" stroke-linecap="round"/>
<path d="M198.63 372.576C198.63 372.576 186.529 339.09 193.233 306.651C199.936 274.211 181.411 319.602 177.279 368.622" fill="#B2B2B2"/>
<path d="M198.63 372.576C198.63 372.576 186.529 339.09 193.233 306.651C199.936 274.211 181.411 319.602 177.279 368.622" stroke="black" stroke-width="2" stroke-miterlimit="10" stroke-linecap="round"/>
<path d="M239.265 259.415C239.265 263.993 238.219 268.088 236.579 271.003C234.922 273.95 232.788 275.496 230.657 275.496C228.525 275.496 226.392 273.95 224.735 271.003C223.095 268.088 222.049 263.993 222.049 259.415C222.049 254.838 223.095 250.743 224.735 247.828C226.392 244.881 228.525 243.334 230.657 243.334C232.788 243.334 234.922 244.881 236.579 247.828C238.219 250.743 239.265 254.838 239.265 259.415Z" fill="white" stroke="black" stroke-width="2"/>
<path d="M285.102 195.362C292.177 195.362 297.912 186.042 297.912 174.545C297.912 163.048 292.177 153.728 285.102 153.728C278.027 153.728 272.291 163.048 272.291 174.545C272.291 186.042 278.027 195.362 285.102 195.362Z" fill="black"/>
<path d="M178.88 190.024C185.661 190.024 191.157 180.704 191.157 169.207C191.157 157.71 185.661 148.39 178.88 148.39C172.1 148.39 166.604 157.71 166.604 169.207C166.604 180.704 172.1 190.024 178.88 190.024Z" fill="black"/>
<path d="M291.507 208.173C297.992 208.173 303.25 206.739 303.25 204.97C303.25 203.201 297.992 201.768 291.507 201.768C285.021 201.768 279.764 203.201 279.764 204.97C279.764 206.739 285.021 208.173 291.507 208.173Z" fill="white"/>
<path d="M164.469 201.768C170.954 201.768 176.212 200.334 176.212 198.565C176.212 196.796 170.954 195.362 164.469 195.362C157.983 195.362 152.726 196.796 152.726 198.565C152.726 200.334 157.983 201.768 164.469 201.768Z" fill="white"/>
<path d="M355.664 62.0869C355.664 62.0869 353.547 47.149 368.485 45.0462C374.357 44.2133 378.453 45.9747 381.252 48.4052C386.618 53.0477 387.779 60.8443 384.747 67.2619C383.737 69.4193 380.542 73.2834 378.33 74.9902C375.818 76.9292 376.323 78.3902 377.046 81.4761L378.48 87.5795" stroke="black" stroke-width="5" stroke-miterlimit="10" stroke-linecap="round"/>
<path d="M381.976 105.262C383.861 105.262 385.39 103.733 385.39 101.848C385.39 99.9629 383.861 98.4346 381.976 98.4346C380.091 98.4346 378.562 99.9629 378.562 101.848C378.562 103.733 380.091 105.262 381.976 105.262Z" fill="black"/>
<path d="M58.4135 86.8588C58.4135 86.8588 57.2226 76.8392 67.2422 75.6483C71.1831 75.1738 73.8894 76.4066 75.7398 78.0829C79.2628 81.265 79.9218 86.5011 77.802 90.755C77.0893 92.1811 74.9021 94.7169 73.3983 95.8351C71.6886 97.0969 72.0114 98.0839 72.445 100.159L73.3217 104.255" stroke="black" stroke-width="4" stroke-miterlimit="10" stroke-linecap="round"/>
<path d="M76.6394 116.805C77.8791 117.027 79.0637 116.202 79.2853 114.962C79.507 113.722 78.6817 112.537 77.442 112.316C76.2022 112.094 75.0176 112.92 74.796 114.159C74.5743 115.399 75.3996 116.584 76.6394 116.805Z" fill="black"/>
<path d="M105.94 66.9388C105.652 67.4824 104.596 67.2785 104.692 66.6942C106.654 53.1329 114.611 4.32284 128.604 0.2191C142.818 -3.95258 113.527 52.6573 105.954 66.9388H105.94Z" fill="black"/>
<path d="M100.415 83.2689C102.773 83.2689 104.685 81.3571 104.685 78.9987C104.685 76.6404 102.773 74.7285 100.415 74.7285C98.0564 74.7285 96.1445 76.6404 96.1445 78.9987C96.1445 81.3571 98.0564 83.2689 100.415 83.2689Z" fill="black"/>
<path d="M334.743 222.585L329.939 224.186L326.202 281.834L332.607 272.226L334.743 222.585Z" fill="#D9D9D9"/>
<path d="M88.1387 212.443L83.8685 210.842L81.7334 244.47L86.0036 249.807L88.1387 212.443Z" fill="#D9D9D9"/>
<ellipse cx="184.751" cy="162.802" rx="2.13511" ry="3.73644" fill="white"/>
<ellipse cx="291.507" cy="168.14" rx="2.13511" ry="3.73644" fill="white"/>
<path d="M286.169 230.592C320.365 230.592 348.087 202.631 348.087 168.14C348.087 133.649 320.365 105.688 286.169 105.688C251.973 105.688 224.251 133.649 224.251 168.14C224.251 202.631 251.973 230.592 286.169 230.592Z" stroke="black" stroke-width="10" stroke-miterlimit="10"/>
<path d="M331.007 216.713L354.493 241.267" stroke="black" stroke-width="10" stroke-miterlimit="10" stroke-linecap="round"/>
<path d="M88.1387 134.512L150.591 72.5938" stroke="black" stroke-width="2" stroke-linecap="round"/>
<path d="M176.745 368.84C182.617 368.484 195.534 368.84 200.231 373.11" stroke="black" stroke-width="2" stroke-linecap="round"/>
<path d="M85.4364 393.039C85.4364 393.039 59.5234 383.417 50.876 415.673C42.2285 447.929 -1.42771 421.628 4.47366 406.64C10.375 391.653 27.1011 401.497 24.0022 409.454C21.0891 416.934 13.7702 411.593 13.7702 411.593" stroke="black" stroke-width="2" stroke-miterlimit="10" stroke-linecap="round"/>
<defs>
<filter id="filter0_d_1091_6" x="456.338" y="13" width="708.554" height="479" filterUnits="userSpaceOnUse" color-interpolation-filters="sRGB">
<feFlood flood-opacity="0" result="BackgroundImageFix"/>
<feColorMatrix in="SourceAlpha" type="matrix" values="0 0 0 0 0 0 0 0 0 0 0 0 0 0 0 0 0 0 127 0" result="hardAlpha"/>
<feOffset dy="4"/>
<feGaussianBlur stdDeviation="2"/>
<feComposite in2="hardAlpha" operator="out"/>
<feColorMatrix type="matrix" values="0 0 0 0 0 0 0 0 0 0 0 0 0 0 0 0 0 0 0.25 0"/>
<feBlend mode="normal" in2="BackgroundImageFix" result="effect1_dropShadow_1091_6"/>
<feBlend mode="normal" in="SourceGraphic" in2="effect1_dropShadow_1091_6" result="shape"/>
</filter>
</defs>
</svg>
