<svg width="1140" height="560" viewBox="0 0 1140 560" fill="none" xmlns="http://www.w3.org/2000/svg">
<path d="M97.6045 460.141V463.48H75.1338V460.141H84.2451V457.152H88.4639V460.141H97.6045ZM98.7178 477.836V481.205H74.1377V477.836H84.2451V474.936C79.748 474.511 77.0381 472.636 77.0381 469.721C77.0381 466.41 80.6123 464.447 86.3545 464.447C92.0088 464.447 95.6123 466.41 95.6123 469.721C95.6123 472.621 92.8877 474.511 88.4639 474.936V477.836H98.7178ZM86.3545 467.729C83.0439 467.729 81.4033 468.314 81.4033 469.721C81.4033 471.156 83.0439 471.713 86.3545 471.713C89.5771 471.713 91.2764 471.156 91.2764 469.721C91.2764 468.314 89.5771 467.729 86.3545 467.729ZM122.771 456.918V483.812H118.493V456.918H122.771ZM114.685 459.701C114.685 467.992 112.048 474.73 102.263 479.33L100.065 475.99C106.906 472.753 109.777 468.783 110.378 462.982H101.589V459.701H114.685ZM148.581 456.947V472.094H144.362V456.947H148.581ZM148.581 473.236V483.52H130.417V473.236H148.581ZM134.548 476.547V480.15H144.45V476.547H134.548ZM136.54 460.492C136.511 463.598 138.21 466.645 142.663 467.963L140.642 471.186C137.595 470.321 135.559 468.578 134.372 466.322C133.142 468.783 131.018 470.731 127.839 471.684L125.788 468.373C130.446 467.025 132.146 463.656 132.146 460.492V457.914H136.54V460.492ZM173.571 456.947V463.568H176.823V467.055H173.571V473.734H169.353V456.947H173.571ZM164.401 474.086C170.114 474.086 173.63 475.873 173.659 478.979C173.63 481.967 170.114 483.842 164.401 483.812C158.659 483.842 155.085 481.967 155.085 478.979C155.085 475.873 158.659 474.086 164.401 474.086ZM164.401 477.25C161.003 477.25 159.245 477.777 159.274 478.979C159.245 480.092 161.003 480.619 164.401 480.648C167.712 480.619 169.47 480.092 169.47 478.979C169.47 477.777 167.712 477.25 164.401 477.25ZM151.833 469.604C153.635 469.604 155.715 469.604 157.897 469.545V467.875C155.056 467.274 153.181 465.37 153.181 462.865C153.181 459.818 155.993 457.65 159.978 457.65C163.933 457.65 166.745 459.818 166.774 462.865C166.745 465.341 164.929 467.23 162.146 467.875V469.398C164.123 469.296 166.086 469.135 167.917 468.9L168.298 471.771C162.819 472.738 156.755 472.826 152.243 472.855L151.833 469.604ZM159.978 460.785C158.22 460.785 157.077 461.459 157.106 462.865C157.077 464.271 158.22 465.062 159.978 465.062C161.677 465.062 162.819 464.271 162.819 462.865C162.819 461.459 161.677 460.785 159.978 460.785ZM206.53 468.783V472.094H198.884V477.426H209.138V480.854H184.558V477.426H194.724V472.094H187.37V458.734H206.354V462.074H191.589V468.783H206.53ZM225.778 459.262V462.631H223.552V473.939C224.533 473.866 225.5 473.764 226.423 473.646L226.628 476.664C221.208 477.66 215.144 477.777 210.573 477.777L210.134 474.379L213.005 474.35V462.631H210.808V459.262H225.778ZM231.813 456.918V466.996H235.622V470.395H231.813V483.812H227.595V456.918H231.813ZM217.077 474.262L219.509 474.203V462.631H217.077V474.262ZM251.032 459.027V472.123H237.761V459.027H251.032ZM241.921 462.338V468.812H246.872V462.338H241.921ZM259.001 456.947V476.02H254.782V456.947H259.001ZM259.675 479.945V483.314H240.778V474.262H245.056V479.945H259.675ZM277.253 459.232V462.543H262.429V459.232H267.937V456.684H272.155V459.232H277.253ZM269.987 463.305C273.708 463.305 276.433 465.385 276.462 468.373C276.433 471.361 273.708 473.383 269.987 473.383C266.267 473.383 263.63 471.361 263.63 468.373C263.63 465.385 266.267 463.305 269.987 463.305ZM269.987 466.439C268.522 466.439 267.556 467.084 267.556 468.373C267.556 469.662 268.522 470.277 269.987 470.277C271.481 470.277 272.536 469.662 272.536 468.373C272.536 467.084 271.481 466.439 269.987 466.439ZM285.104 456.918V473.969H280.915V471.42H277.575V468.051H280.915V466H277.663V462.631H280.915V456.918H285.104ZM275.905 474.32C281.647 474.32 285.222 476.078 285.251 479.066C285.222 482.025 281.647 483.842 275.905 483.812C270.134 483.842 266.53 482.025 266.53 479.066C266.53 476.078 270.134 474.32 275.905 474.32ZM275.905 477.484C272.683 477.514 270.983 477.953 270.983 479.066C270.983 480.15 272.683 480.648 275.905 480.648C279.04 480.648 280.71 480.15 280.71 479.066C280.71 477.953 279.04 477.514 275.905 477.484Z" fill="#222222"/>
<g filter="url(#filter0_d_444_11)">
<path fill-rule="evenodd" clip-rule="evenodd" d="M556 0C522.311 0 495 27.3106 495 61V237.794L434.636 272.147C431.267 274.065 431.267 278.921 434.636 280.838L495 315.192V491C495 524.689 522.311 552 556 552H1073C1106.69 552 1134 524.689 1134 491V61C1134 27.3106 1106.69 0 1073 0H556Z" fill="white"/>
</g>
<path d="M743.715 224.455C743.715 227.721 747.453 230.643 750.783 231.266L750.01 232.684C747.131 232.018 744.091 229.966 742.855 227.141C741.62 229.955 738.591 232.007 735.701 232.684L734.928 231.266C738.236 230.621 741.953 227.742 741.953 224.455V222.994H743.715V224.455ZM751.686 236.744V238.141H734.197V236.744H751.686ZM768.443 223.596V225.959C768.443 228.773 768.443 231.373 767.648 235.24L765.951 235.09C766.37 233.253 766.585 231.663 766.703 230.17L755.037 230.814L754.801 229.418L766.768 228.924C766.8 227.914 766.8 226.937 766.811 225.959V225.014H755.316V223.596H768.443ZM770.613 236.637V238.055H753.211V236.637H770.613ZM788.445 221.662V232.232H786.834V227.57H784.148V232.039H782.58V222.006H784.148V226.217H786.834V221.662H788.445ZM777.531 233.113V235.305H786.791V233.113H788.445V240.482H775.855V233.113H777.531ZM777.531 239.107H786.791V236.68H777.531V239.107ZM780.303 222.801V227.699H774.738V230.234C777.252 230.202 779.175 230.105 781.441 229.633L781.635 231.029C779.164 231.502 777.123 231.609 774.352 231.609H773.105V226.41H778.691V224.176H773.062V222.801H780.303ZM803.227 225.186C803.227 227.721 805.096 230.041 807.932 231.029L807.072 232.34C804.892 231.566 803.227 229.998 802.41 228.021C801.594 230.191 799.843 231.878 797.598 232.705L796.695 231.395C799.553 230.385 801.551 227.914 801.572 225.186V224.369H797.211V222.994H807.523V224.369H803.227V225.186ZM811.691 221.641V226.689H814.57V228.129H811.691V233.156H810.016V221.641H811.691ZM811.691 234.166V240.74H810.016V235.541H799.188V234.166H811.691ZM822.348 224.648C822.326 227.377 824.26 229.783 827.074 230.729L826.129 232.039C824.023 231.244 822.369 229.697 821.553 227.678C820.726 229.966 818.975 231.749 816.676 232.619L815.752 231.244C818.695 230.213 820.65 227.678 820.672 224.713V222.736H822.348V224.648ZM831.607 221.641V232.963H829.91V227.141H825.656V225.744H829.91V221.641H831.607ZM825.27 233.521C829.244 233.521 831.672 234.832 831.672 237.131C831.672 239.408 829.244 240.697 825.27 240.697C821.295 240.697 818.867 239.408 818.867 237.131C818.867 234.832 821.295 233.521 825.27 233.521ZM825.27 234.854C822.348 234.854 820.521 235.713 820.543 237.131C820.521 238.506 822.348 239.344 825.27 239.344C828.191 239.344 829.996 238.506 829.996 237.131C829.996 235.713 828.191 234.854 825.27 234.854ZM845.379 223.768V224.756C845.357 226.26 845.357 228.795 844.82 232.34L843.123 232.189C843.639 228.988 843.682 226.668 843.682 225.143H835.668V223.768H845.379ZM840.373 229.225V235.025C842.489 234.95 844.659 234.811 846.646 234.574L846.732 235.842C842.715 236.465 838.225 236.551 834.809 236.529L834.594 235.133C835.851 235.122 837.247 235.111 838.719 235.068V229.225H840.373ZM849.525 221.641V229.633H852.619V231.094H849.525V240.74H847.85V221.641H849.525ZM874.254 221.641V226.732H877.133V228.172H874.254V233.156H872.578V221.641H874.254ZM874.254 234.252V240.482H862.201V234.252H874.254ZM863.855 235.605V239.107H872.578V235.605H863.855ZM870.752 223.682V225.078H859.365V223.682H864.221V221.49H865.896V223.682H870.752ZM865.059 226.023C867.809 226.023 869.635 227.377 869.656 229.418C869.635 231.502 867.809 232.834 865.059 232.834C862.287 232.834 860.439 231.502 860.461 229.418C860.439 227.377 862.287 226.023 865.059 226.023ZM865.059 227.334C863.254 227.334 862.051 228.172 862.072 229.418C862.051 230.729 863.254 231.523 865.059 231.545C866.842 231.523 868.045 230.729 868.066 229.418C868.045 228.172 866.842 227.334 865.059 227.334ZM883.084 223.961C883.062 227.979 882.504 232.49 879.711 236.186L878.379 235.412C880.774 232.415 881.483 228.881 881.623 225.357H878.766V223.961H883.084ZM887.316 223.961C887.306 225.519 887.273 227.312 887.037 229.16H889.572V222.156H891.184V239.773H889.572V230.557H886.822C886.382 232.941 885.544 235.358 883.986 237.453L882.676 236.658C885.318 233.285 885.759 228.924 885.834 225.357H883.686V223.961H887.316ZM894.771 221.641V240.74H893.139V221.641H894.771ZM719.33 248.467V249.885H712.262V259.617C715.699 259.617 717.977 259.499 720.619 258.994L720.834 260.391C718.02 260.928 715.699 261.057 712.025 261.057H710.564V248.467H719.33ZM725.453 246.641V265.783H723.756V254.998H718.191V253.602H723.756V246.641H725.453ZM749.064 246.641V250.959H751.943V252.377H749.064V256.438H747.389V246.641H749.064ZM743.779 247.908V255.686H734.949V247.908H743.779ZM736.604 249.283V254.332H742.146V249.283H736.604ZM737.807 258.156V263.828C738.913 263.796 740.385 263.635 741.738 263.184L741.996 264.537C740.127 265.16 738.322 265.225 737.076 265.225H736.174V258.156H737.807ZM750.977 258.35V259.639H741.33V258.35H745.348V256.652H747.002V258.35H750.977ZM746.143 260.326C748.227 260.348 749.709 261.357 749.73 263.012C749.709 264.666 748.227 265.697 746.143 265.697C744.037 265.697 742.576 264.666 742.598 263.012C742.576 261.357 744.037 260.348 746.143 260.326ZM746.143 261.529C744.961 261.529 744.102 262.109 744.102 263.012C744.102 263.914 744.961 264.516 746.143 264.494C747.346 264.516 748.184 263.914 748.184 263.012C748.184 262.109 747.346 261.529 746.143 261.529ZM770.549 256.717V258.092H753.146V256.717H770.549ZM768.615 263.914V265.332H755.402V259.768H757.1V263.914H768.615ZM761.848 247.328C765.951 247.307 768.594 248.725 768.594 251.109C768.594 253.494 765.951 254.912 761.848 254.912C757.701 254.912 755.08 253.494 755.08 251.109C755.08 248.725 757.701 247.307 761.848 247.328ZM761.848 248.682C758.775 248.682 756.799 249.605 756.82 251.109C756.799 252.613 758.775 253.537 761.848 253.537C764.898 253.537 766.875 252.613 766.875 251.109C766.875 249.605 764.898 248.682 761.848 248.682ZM786.383 259.832C790.572 259.832 792.936 260.842 792.957 262.775C792.936 264.709 790.572 265.719 786.383 265.74C782.15 265.719 779.787 264.709 779.787 262.775C779.787 260.842 782.15 259.832 786.383 259.832ZM786.383 261.078C783.268 261.078 781.506 261.701 781.506 262.775C781.506 263.871 783.268 264.451 786.383 264.451C789.477 264.451 791.238 263.871 791.238 262.775C791.238 261.701 789.477 261.078 786.383 261.078ZM794.074 248.295V249.605H778.584V248.295H785.545V246.361H787.221V248.295H794.074ZM786.383 250.4C790.336 250.4 792.57 251.367 792.57 253.172C792.57 254.977 790.336 255.922 786.383 255.922C782.43 255.922 780.174 254.977 780.174 253.172C780.174 251.367 782.43 250.4 786.383 250.4ZM786.383 251.582C783.568 251.582 781.957 252.162 781.979 253.172C781.957 254.16 783.568 254.719 786.383 254.719C789.176 254.719 790.787 254.16 790.787 253.172C790.787 252.162 789.176 251.582 786.383 251.582ZM795.084 257.189V258.521H777.682V257.189H795.084ZM806.643 248.531V260.949H797.812V248.531H806.643ZM799.467 249.885V259.574H804.988V249.885H799.467ZM812.443 246.641V265.783H810.746V246.641H812.443ZM833.176 255.514V256.846H815.688V255.514H833.176ZM830.984 258.371V262.432H819.512V264.258H831.607V265.482H817.814V261.271H829.309V259.639H817.793V258.371H830.984ZM830.92 247.221V251.174H819.641V252.85H831.264V254.074H817.965V250.014H829.223V248.445H817.9V247.221H830.92ZM855.713 251.582V252.936H849.783V255.363H857.646V256.76H840.244V255.363H848.107V252.936H842.629V247.07H844.305V251.582H855.713ZM855.734 258.672V260.025H852.77V264.107H855.885V265.482H842.027V264.107H845.143V260.025H842.199V258.672H855.734ZM846.818 264.107H851.115V260.025H846.818V264.107ZM864.393 248.123C866.144 248.134 867.562 249.154 868.389 250.916H873.416V246.641H875.092V265.783H873.416V258.371H868.518C867.712 260.305 866.24 261.422 864.393 261.422C861.578 261.422 859.602 258.844 859.602 254.783C859.602 250.723 861.578 248.145 864.393 248.123ZM864.393 249.627C862.502 249.648 861.213 251.668 861.213 254.783C861.213 257.898 862.502 259.918 864.393 259.918C866.262 259.918 867.572 257.898 867.572 254.783C867.572 251.668 866.262 249.648 864.393 249.627ZM868.883 252.334C869.055 253.075 869.162 253.892 869.162 254.783C869.162 255.567 869.076 256.309 868.947 256.975H873.416V252.334H868.883ZM881 248.23V251.152H887.209V248.23H888.885V256.824H884.953V260.24C886.715 260.176 888.487 260.047 890.131 259.832L890.238 261.1C886.199 261.744 881.666 261.809 878.314 261.83L878.035 260.391C879.593 260.38 881.387 260.369 883.256 260.305V256.824H879.324V248.23H881ZM881 255.449H887.209V252.463H881V255.449ZM893.031 246.641V254.676H896.146V256.094H893.031V265.74H891.355V246.641H893.031ZM914.773 261.873V263.291H897.285V261.873H901.625V256.717C899.992 255.868 899.004 254.493 899.004 252.764C899.004 249.799 901.904 247.865 905.986 247.844C910.068 247.865 912.969 249.799 912.969 252.764C912.969 254.461 912.013 255.825 910.434 256.674V261.873H914.773ZM905.986 249.24C902.85 249.219 900.637 250.637 900.637 252.764C900.637 254.891 902.85 256.33 905.986 256.33C909.102 256.33 911.336 254.891 911.336 252.764C911.336 250.637 909.102 249.219 905.986 249.24ZM903.279 261.873H908.736V257.318C907.909 257.544 906.985 257.662 905.986 257.662C905.009 257.662 904.096 257.555 903.279 257.34V261.873ZM919.393 248.445L919.242 259.617H917.438L917.287 248.445H919.393ZM918.34 264.129C917.588 264.129 916.943 263.506 916.965 262.732C916.943 261.98 917.588 261.357 918.34 261.357C919.092 261.357 919.715 261.98 919.715 262.732C919.715 263.506 919.092 264.129 918.34 264.129Z" fill="#222222"/>
<path d="M657.96 176.662V182.441H660.817V183.859H657.96V190.24H656.263V176.662H657.96ZM652.868 189.596C652.868 192.109 655.854 193.871 659.313 194.344L658.669 195.654C655.769 195.192 653.137 193.936 652.009 191.895C650.87 193.936 648.228 195.192 645.327 195.654L644.704 194.344C648.163 193.871 651.149 192.109 651.149 189.596V188.951H652.868V189.596ZM643.028 186.459C644.521 186.459 646.262 186.448 648.077 186.373V184.59C645.714 184.343 644.146 182.957 644.167 181.002C644.146 178.854 646.079 177.414 648.872 177.393C651.665 177.414 653.599 178.854 653.599 181.002C653.599 182.925 652.073 184.3 649.774 184.568V186.309C651.568 186.212 653.373 186.062 655.038 185.814L655.167 187.018C651.128 187.748 646.552 187.812 643.243 187.812L643.028 186.459ZM648.872 178.682C647.024 178.682 645.735 179.605 645.735 181.002C645.735 182.398 647.024 183.344 648.872 183.344C650.72 183.344 652.009 182.398 652.009 181.002C652.009 179.605 650.72 178.682 648.872 178.682ZM679.552 191.873V193.291H662.063V191.873H679.552ZM671.646 181.109C671.646 184.268 674.804 186.652 678.435 187.297L677.747 188.672C674.729 188.06 671.979 186.405 670.786 183.902C669.572 186.405 666.822 188.06 663.804 188.672L663.138 187.297C666.747 186.652 669.927 184.268 669.927 181.109H663.696V179.734H669.948V177.113H671.603V179.734H677.876V181.109H671.646ZM696.396 178.574V180.486C696.374 182.828 696.374 185.449 695.687 189.295L693.968 189.102C694.698 185.449 694.698 182.764 694.698 180.486V179.971H682.925V178.574H696.396ZM698.479 191.637V193.033H681.077V191.637H687.909V184.805H689.563V191.637H698.479ZM715.86 176.662V188.027H714.185V176.662H715.86ZM709.479 188.414C713.454 188.414 715.903 189.746 715.925 192.045C715.903 194.365 713.454 195.697 709.479 195.697C705.462 195.697 703.034 194.365 703.034 192.045C703.034 189.746 705.462 188.414 709.479 188.414ZM709.479 189.746C706.515 189.746 704.731 190.605 704.731 192.045C704.731 193.484 706.515 194.344 709.479 194.344C712.423 194.344 714.249 193.484 714.249 192.045C714.249 190.605 712.423 189.746 709.479 189.746ZM705.548 177.865C708.448 177.887 710.554 179.691 710.554 182.334C710.554 184.977 708.448 186.76 705.548 186.781C702.647 186.76 700.542 184.977 700.542 182.334C700.542 179.691 702.647 177.887 705.548 177.865ZM705.548 179.326C703.593 179.305 702.175 180.529 702.196 182.334C702.175 184.117 703.593 185.342 705.548 185.363C707.481 185.342 708.899 184.117 708.899 182.334C708.899 180.529 707.481 179.305 705.548 179.326ZM736.507 186.824V188.221H719.104V186.824H726.968V184.826C723.305 184.644 721.038 183.258 721.038 181.002C721.038 178.66 723.659 177.221 727.806 177.221C731.909 177.221 734.552 178.66 734.552 181.002C734.552 183.258 732.264 184.644 728.644 184.826V186.824H736.507ZM734.573 193.914V195.332H721.36V189.768H723.058V193.914H734.573ZM727.806 178.596C724.733 178.596 722.757 179.541 722.778 181.002C722.757 182.549 724.733 183.451 727.806 183.451C730.856 183.451 732.833 182.549 732.833 181.002C732.833 179.541 730.856 178.596 727.806 178.596ZM748.71 178.768V179.756C748.688 181.26 748.688 183.795 748.151 187.34L746.454 187.189C746.97 183.988 747.013 181.668 747.013 180.143H738.999V178.768H748.71ZM743.704 184.225V190.025C745.82 189.95 747.99 189.811 749.978 189.574L750.063 190.842C746.046 191.465 741.556 191.551 738.14 191.529L737.925 190.133C739.182 190.122 740.578 190.111 742.05 190.068V184.225H743.704ZM752.856 176.641V184.633H755.95V186.094H752.856V195.74H751.181V176.641H752.856ZM777.585 176.641V181.732H780.464V183.172H777.585V188.156H775.909V176.641H777.585ZM777.585 189.252V195.482H765.532V189.252H777.585ZM767.187 190.605V194.107H775.909V190.605H767.187ZM774.083 178.682V180.078H762.696V178.682H767.552V176.49H769.228V178.682H774.083ZM768.39 181.023C771.14 181.023 772.966 182.377 772.987 184.418C772.966 186.502 771.14 187.834 768.39 187.834C765.618 187.834 763.771 186.502 763.792 184.418C763.771 182.377 765.618 181.023 768.39 181.023ZM768.39 182.334C766.585 182.334 765.382 183.172 765.403 184.418C765.382 185.729 766.585 186.523 768.39 186.545C770.173 186.523 771.376 185.729 771.397 184.418C771.376 183.172 770.173 182.334 768.39 182.334ZM786.415 178.961C786.394 182.979 785.835 187.49 783.042 191.186L781.71 190.412C784.105 187.415 784.814 183.881 784.954 180.357H782.097V178.961H786.415ZM790.647 178.961C790.637 180.519 790.604 182.312 790.368 184.16H792.903V177.156H794.515V194.773H792.903V185.557H790.153C789.713 187.941 788.875 190.358 787.317 192.453L786.007 191.658C788.649 188.285 789.09 183.924 789.165 180.357H787.017V178.961H790.647ZM798.103 176.641V195.74H796.47V176.641H798.103ZM816.794 178.123V179.133C816.772 180.379 816.772 182.291 816.3 184.783L814.603 184.654C815.064 182.366 815.107 180.744 815.14 179.541H807.276V178.123H816.794ZM811.874 182.355V186.459C813.99 186.373 816.182 186.223 818.169 185.943L818.276 187.189C814.28 187.877 809.661 187.963 806.267 187.963L806.095 186.566C807.33 186.556 808.727 186.545 810.198 186.502V182.355H811.874ZM821.177 176.641V182.871H823.97V184.311H821.177V191.014H819.458V176.641H821.177ZM821.8 193.914V195.332H809.038V189.725H810.735V193.914H821.8ZM840.985 176.662V187.512H839.31V176.662H840.985ZM840.985 188.607V195.482H828.567V188.607H840.985ZM830.222 189.982V194.107H839.331V189.982H830.222ZM831.983 179.283C831.962 181.99 834.024 184.375 836.839 185.363L835.979 186.652C833.767 185.89 832.005 184.278 831.146 182.184C830.297 184.418 828.514 186.18 826.226 187.018L825.366 185.686C828.267 184.676 830.265 182.098 830.265 179.283V177.414H831.983V179.283ZM861.696 186.76V188.135H853.919V191.873H852.243V188.135H844.208V186.76H861.696ZM859.741 193.914V195.332H846.442V190.111H848.118V193.914H859.741ZM848.226 177.264V179.713H857.679V177.264H859.354V184.891H846.55V177.264H848.226ZM848.226 183.516H857.679V181.002H848.226V183.516ZM868.356 178.123C871.171 178.145 873.169 180.723 873.19 184.783C873.169 188.844 871.171 191.422 868.356 191.422C865.521 191.422 863.544 188.844 863.544 184.783C863.544 180.723 865.521 178.145 868.356 178.123ZM868.356 179.627C866.466 179.648 865.134 181.668 865.134 184.783C865.134 187.898 866.466 189.918 868.356 189.918C870.269 189.918 871.558 187.898 871.558 184.783C871.558 181.668 870.269 179.648 868.356 179.627ZM881.118 181.453V182.893H878.024V187.146H881.118V188.564H878.024V195.74H876.349V176.641H878.024V181.453H881.118ZM899.724 185.514V186.846H882.235V185.514H899.724ZM897.532 188.371V192.432H886.06V194.258H898.155V195.482H884.362V191.271H895.856V189.639H884.341V188.371H897.532ZM897.468 177.221V181.174H886.188V182.85H897.812V184.074H884.513V180.014H895.771V178.445H884.448V177.221H897.468ZM909.628 177.629V184.418C912.614 184.407 915.139 184.257 917.921 183.688L918.179 185.105C915.171 185.686 912.571 185.836 909.392 185.836H907.931V177.629H909.628ZM922.626 176.641V186.824H920.929V181.238H915.429V179.842H920.929V176.641H922.626ZM918.028 187.533V190.047H921.079V187.533H922.626V195.525H916.481V187.533H918.028ZM918.028 194.172H921.079V191.379H918.028V194.172ZM915.3 187.77V192.109H910.81V194.193C912.883 194.183 914.107 194.14 915.729 193.871L915.88 195.16C914.097 195.482 912.7 195.525 910.144 195.525H909.155V190.863H913.667V189.059H909.112V187.77H915.3ZM937.106 179.713V181.109H925.806V179.713H930.64V176.855H932.358V179.713H937.106ZM931.499 182.699C934.077 182.699 935.946 184.504 935.968 187.082C935.946 189.66 934.077 191.465 931.499 191.465C928.899 191.465 927.03 189.66 927.052 187.082C927.03 184.504 928.899 182.699 931.499 182.699ZM931.499 184.139C929.802 184.16 928.556 185.385 928.577 187.082C928.556 188.801 929.802 190.025 931.499 190.004C933.196 190.025 934.442 188.801 934.442 187.082C934.442 185.385 933.196 184.16 931.499 184.139ZM941.64 176.641V195.74H939.964V189.145H936.741V187.748H939.964V184.396H936.741V183H939.964V176.641H941.64ZM947.548 178.23V181.152H953.757V178.23H955.433V186.824H951.501V190.24C953.263 190.176 955.035 190.047 956.679 189.832L956.786 191.1C952.747 191.744 948.214 191.809 944.862 191.83L944.583 190.391C946.141 190.38 947.935 190.369 949.804 190.305V186.824H945.872V178.23H947.548ZM947.548 185.449H953.757V182.463H947.548V185.449ZM959.579 176.641V184.676H962.694V186.094H959.579V195.74H957.903V176.641H959.579ZM981.321 191.873V193.291H963.833V191.873H968.173V186.717C966.54 185.868 965.552 184.493 965.552 182.764C965.552 179.799 968.452 177.865 972.534 177.844C976.616 177.865 979.517 179.799 979.517 182.764C979.517 184.461 978.561 185.825 976.981 186.674V191.873H981.321ZM972.534 179.24C969.397 179.219 967.185 180.637 967.185 182.764C967.185 184.891 969.397 186.33 972.534 186.33C975.649 186.33 977.884 184.891 977.884 182.764C977.884 180.637 975.649 179.219 972.534 179.24ZM969.827 191.873H975.284V187.318C974.457 187.544 973.533 187.662 972.534 187.662C971.557 187.662 970.644 187.555 969.827 187.34V191.873ZM985.94 178.445L985.79 189.617H983.985L983.835 178.445H985.94ZM984.888 194.129C984.136 194.129 983.491 193.506 983.513 192.732C983.491 191.98 984.136 191.357 984.888 191.357C985.64 191.357 986.263 191.98 986.263 192.732C986.263 193.506 985.64 194.129 984.888 194.129Z" fill="#222222"/>
<path d="M592.199 354.6V355.975H586.291V360.916H594.262V362.334H576.773V360.916H584.637V355.975H579.008V347.209H592.006V348.584H580.705V354.6H592.199ZM606.766 347.725V349.121H604.639V358.316C605.67 358.241 606.69 358.155 607.668 358.037L607.754 359.283C603.715 359.928 599.139 359.992 595.766 360.014L595.551 358.574L598.129 358.553V349.121H596.023V347.725H606.766ZM610.568 345.641V353.311H613.77V354.729H610.568V364.74H608.893V345.641H610.568ZM599.762 358.531C600.825 358.51 601.932 358.467 603.027 358.402V349.121H599.762V358.531ZM624.77 347.316V356.168H615.811V347.316H624.77ZM617.465 348.713V354.814H623.115V348.713H617.465ZM630.57 345.662V359.391H628.895V345.662H630.57ZM631.172 362.699V364.096H618.238V358.059H619.914V362.699H631.172ZM644.643 347.789V349.164H633.836V347.789H638.477V345.49H640.152V347.789H644.643ZM639.293 350.152C641.85 350.152 643.654 351.549 643.654 353.676C643.654 355.824 641.85 357.221 639.293 357.221C636.715 357.221 634.953 355.824 634.975 353.676C634.953 351.549 636.715 350.152 639.293 350.152ZM639.293 351.42C637.639 351.441 636.543 352.344 636.543 353.676C636.543 355.029 637.639 355.91 639.293 355.91C640.947 355.91 642.064 355.029 642.086 353.676C642.064 352.344 640.947 351.441 639.293 351.42ZM649.648 345.641V357.994H647.951V355.352H644.621V353.955H647.951V351.635H644.643V350.238H647.951V345.641H649.648ZM643.354 358.188C647.328 358.188 649.756 359.369 649.756 361.453C649.756 363.494 647.328 364.697 643.354 364.697C639.336 364.697 636.93 363.494 636.93 361.453C636.93 359.369 639.336 358.188 643.354 358.188ZM643.354 359.498C640.453 359.498 638.67 360.207 638.67 361.453C638.67 362.656 640.453 363.387 643.354 363.387C646.211 363.387 647.973 362.656 647.973 361.453C647.973 360.207 646.211 359.498 643.354 359.498Z" fill="#222222"/>
<path d="M582.961 397.445V413H581.006V399.465H580.92L577.139 401.979V400.023L581.006 397.445H582.961ZM602.727 395.641V414.74H601.072V404.75H598.43V413.795H596.818V396.156H598.43V403.354H601.072V395.641H602.727ZM594.648 398.133C594.627 402.988 592.93 407.586 587.43 410.637L586.441 409.455C590.878 406.984 592.715 403.482 592.994 399.529H587.172V398.133H594.648ZM615.08 397.381V406.168H606.25V397.381H615.08ZM607.904 398.756V404.814H613.447V398.756H607.904ZM620.365 395.641V401.463H623.244V402.881H620.365V409.648H618.689V395.641H620.365ZM621.246 412.914V414.332H608.42V408.316H610.074V412.914H621.246ZM640.883 397.102V398.498H638.928V404.041C639.905 403.987 640.872 403.901 641.785 403.783L641.914 405.072C638.025 405.674 633.492 405.717 630.227 405.738L630.033 404.299L632.504 404.277V398.498H630.57V397.102H640.883ZM644.9 407.736V414.482H632.848V407.736H644.9ZM634.502 409.09V413.107H643.225V409.09H634.502ZM644.9 395.641V400.238H647.779V401.656H644.9V406.727H643.225V395.641H644.9ZM634.158 404.256C635.179 404.234 636.221 404.202 637.273 404.148V398.498H634.158V404.256Z" fill="#222222"/>
<path d="M586.635 448.887C586.613 453.678 583.197 457.115 577.697 458.684L576.988 457.352C581.554 456.062 584.465 453.527 584.83 450.283H577.977V448.887H586.635ZM592.607 447.662V458.555H590.91V454H586.678V452.582H590.91V447.662H592.607ZM592.607 459.371V466.482H580.211V459.371H592.607ZM581.844 460.725V465.107H590.932V460.725H581.844ZM601.48 451.379C601.48 453.549 602.941 455.74 605.391 456.707L604.488 458.018C602.684 457.266 601.362 455.869 600.686 454.172C599.977 456.03 598.602 457.652 596.732 458.49L595.809 457.18C598.322 456.062 599.869 453.549 599.869 451.379V448.822H601.48V451.379ZM612.008 447.662V459.199H610.396V454.064H607.861V459.092H606.271V448.006H607.861V452.646H610.396V447.662H612.008ZM612.008 460.252V466.74H610.354V461.648H599.139V460.252H612.008ZM625.629 449.789V451.164H614.822V449.789H619.463V447.49H621.139V449.789H625.629ZM620.279 452.152C622.836 452.152 624.641 453.549 624.641 455.676C624.641 457.824 622.836 459.221 620.279 459.221C617.701 459.221 615.939 457.824 615.961 455.676C615.939 453.549 617.701 452.152 620.279 452.152ZM620.279 453.42C618.625 453.441 617.529 454.344 617.529 455.676C617.529 457.029 618.625 457.91 620.279 457.91C621.934 457.91 623.051 457.029 623.072 455.676C623.051 454.344 621.934 453.441 620.279 453.42ZM630.635 447.641V459.994H628.938V457.352H625.607V455.955H628.938V453.635H625.629V452.238H628.938V447.641H630.635ZM624.34 460.188C628.314 460.188 630.742 461.369 630.742 463.453C630.742 465.494 628.314 466.697 624.34 466.697C620.322 466.697 617.916 465.494 617.916 463.453C617.916 461.369 620.322 460.188 624.34 460.188ZM624.34 461.498C621.439 461.498 619.656 462.207 619.656 463.453C619.656 464.656 621.439 465.387 624.34 465.387C627.197 465.387 628.959 464.656 628.959 463.453C628.959 462.207 627.197 461.498 624.34 461.498Z" fill="#222222"/>
<rect x="678" y="343" width="375" height="24" rx="12" fill="#E6E6E6"/>
<rect x="678" y="395" width="375" height="24" rx="12" fill="#E6E6E6"/>
<rect x="678" y="447" width="375" height="24" rx="12" fill="#E6E6E6"/>
<rect x="678" y="343" width="317" height="24" rx="12" fill="#8F8F8F"/>
<rect x="678" y="395" width="250" height="24" rx="12" fill="#8F8F8F"/>
<rect x="678" y="447" width="363" height="24" rx="12" fill="#8F8F8F"/>
<path d="M77.9218 270.096L82.5574 158.881L141.851 101L316.868 108.41L309.113 294.535C309.036 296.307 309.062 298.092 309.202 299.864C310.221 313.709 314.971 377.009 316.868 385.742C318.995 395.54 303.166 402 288.686 402C274.206 402 264.604 387.475 250.201 390.712C235.797 393.948 213.397 411.683 194.205 389.093C175.001 366.504 156.331 383.443 156.331 383.443C156.331 383.443 127.346 408.447 100.768 382.634C100.768 382.634 99.2784 370.652 77.145 375.031C55.0116 379.41 55.1007 368.109 56.6544 363.267C57.6859 360.044 66.4349 328.156 72.1529 307.223C75.464 295.113 77.3997 282.656 77.9218 270.096Z" fill="#D9D9D9" stroke="black" stroke-width="2" stroke-miterlimit="10"/>
<path d="M140.565 101C140.565 101 145.315 159.473 137.889 166.531C130.463 173.588 102.87 152.571 82.0615 159.151" fill="#F4F4F4"/>
<path d="M140.565 101C140.565 101 145.315 159.473 137.889 166.531C130.463 173.588 102.87 152.571 82.0615 159.151" stroke="black" stroke-width="2" stroke-miterlimit="10" stroke-linecap="round"/>
<path d="M79.0615 229.744C79.0615 229.744 64.5783 223.358 63.0318 216.867C61.4853 210.377 55.2624 241.677 77.65 265" fill="#D9D9D9"/>
<path d="M79.0615 229.744C79.0615 229.744 64.5783 223.358 63.0318 216.867C61.4853 210.377 55.2624 241.677 77.65 265" stroke="black" stroke-width="2" stroke-miterlimit="10" stroke-linecap="round"/>
<path d="M312.171 241.1C312.171 241.1 329.097 232.387 330.67 226.016C332.243 219.646 347.484 243.418 310.062 292" fill="#D9D9D9"/>
<path d="M312.171 241.1C312.171 241.1 329.097 232.387 330.67 226.016C332.243 219.646 347.484 243.418 310.062 292" stroke="black" stroke-width="2" stroke-miterlimit="10" stroke-linecap="round"/>
<path d="M271.062 395C271.062 395 256.887 355.27 257.063 312" stroke="black" stroke-width="2" stroke-miterlimit="10" stroke-linecap="round"/>
<path d="M92.0615 375C92.0615 375 117.062 344.299 117.062 309" stroke="black" stroke-width="2" stroke-miterlimit="10" stroke-linecap="round"/>
<path d="M186.062 382C186.062 382 174.726 350.633 181.005 320.246C187.285 289.859 169.932 332.378 166.062 378.296" fill="#B2B2B2"/>
<path d="M186.062 382C186.062 382 174.726 350.633 181.005 320.246C187.285 289.859 169.932 332.378 166.062 378.296" stroke="black" stroke-width="2" stroke-miterlimit="10" stroke-linecap="round"/>
<path d="M224.062 276C224.062 280.279 223.084 284.104 221.554 286.823C220.006 289.575 218.025 291 216.062 291C214.098 291 212.117 289.575 210.569 286.823C209.039 284.104 208.062 280.279 208.062 276C208.062 271.721 209.039 267.896 210.569 265.177C212.117 262.425 214.098 261 216.062 261C218.025 261 220.006 262.425 221.554 265.177C223.084 267.896 224.062 271.721 224.062 276Z" fill="white" stroke="black" stroke-width="2"/>
<path d="M267.062 216C273.689 216 279.062 207.27 279.062 196.5C279.062 185.73 273.689 177 267.062 177C260.434 177 255.062 185.73 255.062 196.5C255.062 207.27 260.434 216 267.062 216Z" fill="black"/>
<path d="M167.562 211C173.913 211 179.062 202.27 179.062 191.5C179.062 180.73 173.913 172 167.562 172C161.21 172 156.062 180.73 156.062 191.5C156.062 202.27 161.21 211 167.562 211Z" fill="black"/>
<path d="M273.062 228C279.137 228 284.062 226.657 284.062 225C284.062 223.343 279.137 222 273.062 222C266.986 222 262.062 223.343 262.062 225C262.062 226.657 266.986 228 273.062 228Z" fill="white"/>
<path d="M154.062 222C160.137 222 165.062 220.657 165.062 219C165.062 217.343 160.137 216 154.062 216C147.986 216 143.062 217.343 143.062 219C143.062 220.657 147.986 222 154.062 222Z" fill="white"/>
<path d="M333.158 91.1584C333.158 91.1584 331.176 77.1658 345.168 75.1961C350.668 74.4159 354.505 76.0658 357.127 78.3425C362.154 82.6912 363.241 89.9945 360.402 96.0059C359.455 98.0268 356.462 101.646 354.39 103.245C352.037 105.061 352.51 106.43 353.188 109.321L354.531 115.038" stroke="black" stroke-width="5" stroke-miterlimit="10" stroke-linecap="round"/>
<path d="M357.806 131.602C359.572 131.602 361.004 130.171 361.004 128.405C361.004 126.639 359.572 125.207 357.806 125.207C356.04 125.207 354.608 126.639 354.608 128.405C354.608 130.171 356.04 131.602 357.806 131.602Z" fill="black"/>
<path d="M54.7176 114.363C54.7176 114.363 53.602 104.977 62.9876 103.861C66.6791 103.417 69.2142 104.572 70.9474 106.142C74.2475 109.123 74.8649 114.028 72.8792 118.012C72.2116 119.348 70.1628 121.723 68.7542 122.771C67.1526 123.953 67.4551 124.877 67.8612 126.821L68.6824 130.658" stroke="black" stroke-width="4" stroke-miterlimit="10" stroke-linecap="round"/>
<path d="M71.7903 142.413C72.9515 142.621 74.0612 141.848 74.2688 140.686C74.4764 139.525 73.7034 138.416 72.5421 138.208C71.3808 138 70.2712 138.773 70.0635 139.935C69.8559 141.096 70.629 142.206 71.7903 142.413Z" fill="black"/>
<path d="M99.2367 95.703C98.9669 96.2122 97.9773 96.0213 98.0673 95.4739C99.905 82.7707 107.359 37.0493 120.467 33.2052C133.781 29.2975 106.343 82.3252 99.2496 95.703H99.2367Z" fill="black"/>
<path d="M94.0615 111C96.2707 111 98.0615 109.209 98.0615 107C98.0615 104.791 96.2707 103 94.0615 103C91.8524 103 90.0615 104.791 90.0615 107C90.0615 109.209 91.8524 111 94.0615 111Z" fill="black"/>
<path d="M313.562 241.5L309.062 243L305.562 297L311.562 288L313.562 241.5Z" fill="#D9D9D9"/>
<path d="M82.5615 232L78.5615 230.5L76.5615 262L80.5615 267L82.5615 232Z" fill="#D9D9D9"/>
<ellipse cx="173.062" cy="185.5" rx="2" ry="3.5" fill="white"/>
<ellipse cx="273.062" cy="190.5" rx="2" ry="3.5" fill="white"/>
<path d="M268.062 249C300.094 249 326.062 222.809 326.062 190.5C326.062 158.191 300.094 132 268.062 132C236.029 132 210.062 158.191 210.062 190.5C210.062 222.809 236.029 249 268.062 249Z" stroke="black" stroke-width="10" stroke-miterlimit="10"/>
<path d="M310.062 236L332.062 259" stroke="black" stroke-width="10" stroke-miterlimit="10" stroke-linecap="round"/>
<path d="M82.5615 159L141.062 101" stroke="black" stroke-width="2" stroke-linecap="round"/>
<path d="M165.562 378.5C171.062 378.167 183.162 378.5 187.562 382.5" stroke="black" stroke-width="2" stroke-linecap="round"/>
<path d="M80.0309 401.168C80.0309 401.168 55.7576 392.155 47.6574 422.37C39.5571 452.584 -1.33662 427.948 4.19132 413.909C9.71926 399.87 25.387 409.091 22.4841 416.545C19.7554 423.551 12.8996 418.548 12.8996 418.548" stroke="black" stroke-width="2" stroke-miterlimit="10" stroke-linecap="round"/>
<path d="M802.206 76.6406V81.625H805.063V83.043H802.206V88.0488H800.509V76.6406H802.206ZM796.062 88.4141C799.95 88.4141 802.356 89.7676 802.356 92.0449C802.356 94.3652 799.95 95.6973 796.062 95.6973C792.151 95.6973 789.724 94.3652 789.724 92.0449C789.724 89.7676 792.151 88.4141 796.062 88.4141ZM796.062 89.8105C793.183 89.7891 791.378 90.6484 791.378 92.0449C791.378 93.4629 793.183 94.3438 796.062 94.3438C798.919 94.3438 800.724 93.4629 800.724 92.0449C800.724 90.6484 798.919 89.7891 796.062 89.8105ZM796.62 78.1016V79.498H789.788V85.1055C793.655 85.084 795.89 84.9658 798.446 84.4395L798.618 85.8359C795.954 86.373 793.655 86.4805 789.616 86.4805H788.134V78.1016H796.62ZM822.036 76.6621V90.6699H820.36V76.6621H822.036ZM822.638 93.9141V95.332H809.704V89.3809H811.38V93.9141H822.638ZM813.034 79.6484C813.013 82.5488 815.011 85.1699 817.847 86.2012L816.966 87.5547C814.753 86.7061 813.034 84.9873 812.196 82.7852C811.348 85.127 809.607 87.0068 807.384 87.8984L806.46 86.5879C809.36 85.4707 811.315 82.6562 811.315 79.6484V77.7363H813.034V79.6484ZM842.683 86.7168V88.0918H825.28V86.7168H842.683ZM840.749 93.9141V95.332H827.536V89.7676H829.233V93.9141H840.749ZM833.981 77.3281C838.085 77.3066 840.728 78.7246 840.728 81.1094C840.728 83.4941 838.085 84.9121 833.981 84.9121C829.835 84.9121 827.214 83.4941 827.214 81.1094C827.214 78.7246 829.835 77.3066 833.981 77.3281ZM833.981 78.6816C830.909 78.6816 828.933 79.6055 828.954 81.1094C828.933 82.6133 830.909 83.5371 833.981 83.5371C837.032 83.5371 839.009 82.6133 839.009 81.1094C839.009 79.6055 837.032 78.6816 833.981 78.6816Z" fill="#222222"/>
<path d="M708.725 116.38L710.898 109.324H713.754L712.583 116.38H708.725ZM714.414 116.38L716.586 109.324H719.443L718.271 116.38H714.414ZM746.42 109.617V112.4H727.695V109.617H735.288V107.127H738.803V109.617H746.42ZM747.348 124.363V127.171H726.865V124.363H735.288V121.946C731.54 121.592 729.282 120.03 729.282 117.601C729.282 114.842 732.26 113.206 737.045 113.206C741.757 113.206 744.76 114.842 744.76 117.601C744.76 120.018 742.49 121.592 738.803 121.946V124.363H747.348ZM737.045 115.94C734.287 115.94 732.919 116.429 732.919 117.601C732.919 118.797 734.287 119.261 737.045 119.261C739.731 119.261 741.147 118.797 741.147 117.601C741.147 116.429 739.731 115.94 737.045 115.94ZM767.392 106.932V129.344H763.828V106.932H767.392ZM760.654 109.251C760.654 116.16 758.457 121.775 750.302 125.608L748.471 122.825C754.172 120.127 756.564 116.819 757.065 111.985H749.741V109.251H760.654ZM788.901 106.956V119.578H785.385V106.956H788.901ZM788.901 120.53V129.1H773.764V120.53H788.901ZM777.207 123.289V126.292H785.458V123.289H777.207ZM778.867 109.91C778.842 112.498 780.258 115.037 783.969 116.136L782.285 118.821C779.746 118.101 778.049 116.648 777.06 114.769C776.035 116.819 774.265 118.443 771.616 119.236L769.907 116.478C773.789 115.354 775.205 112.547 775.205 109.91V107.762H778.867V109.91ZM809.726 106.956V112.474H812.436V115.379H809.726V120.945H806.21V106.956H809.726ZM802.084 121.238C806.845 121.238 809.775 122.728 809.799 125.315C809.775 127.806 806.845 129.368 802.084 129.344C797.299 129.368 794.321 127.806 794.321 125.315C794.321 122.728 797.299 121.238 802.084 121.238ZM802.084 123.875C799.252 123.875 797.788 124.314 797.812 125.315C797.788 126.243 799.252 126.683 802.084 126.707C804.843 126.683 806.308 126.243 806.308 125.315C806.308 124.314 804.843 123.875 802.084 123.875ZM791.611 117.503C793.112 117.503 794.846 117.503 796.665 117.454V116.062C794.296 115.562 792.734 113.975 792.734 111.888C792.734 109.349 795.078 107.542 798.398 107.542C801.694 107.542 804.038 109.349 804.062 111.888C804.038 113.951 802.524 115.525 800.205 116.062V117.332C801.853 117.247 803.488 117.112 805.014 116.917L805.332 119.31C800.766 120.115 795.712 120.188 791.953 120.213L791.611 117.503ZM798.398 110.154C796.933 110.154 795.981 110.716 796.005 111.888C795.981 113.06 796.933 113.719 798.398 113.719C799.814 113.719 800.766 113.06 800.766 111.888C800.766 110.716 799.814 110.154 798.398 110.154ZM837.192 116.819V119.578H830.82V124.021H839.365V126.878H818.881V124.021H827.353V119.578H821.225V108.445H837.045V111.229H824.741V116.819H837.192ZM853.232 108.885V111.692H851.376V121.116C852.194 121.055 853 120.97 853.769 120.872L853.94 123.387C849.423 124.217 844.37 124.314 840.561 124.314L840.195 121.482L842.587 121.458V111.692H840.756V108.885H853.232ZM858.261 106.932V115.33H861.435V118.162H858.261V129.344H854.746V106.932H858.261ZM845.981 121.385L848.007 121.336V111.692H845.981V121.385ZM874.277 108.689V119.603H863.217V108.689H874.277ZM866.684 111.448V116.844H870.81V111.448H866.684ZM880.917 106.956V122.85H877.402V106.956H880.917ZM881.479 126.121V128.929H865.732V121.385H869.296V126.121H881.479ZM896.127 108.86V111.619H883.774V108.86H888.364V106.736H891.879V108.86H896.127ZM890.073 112.254C893.173 112.254 895.444 113.987 895.468 116.478C895.444 118.968 893.173 120.652 890.073 120.652C886.972 120.652 884.775 118.968 884.775 116.478C884.775 113.987 886.972 112.254 890.073 112.254ZM890.073 114.866C888.852 114.866 888.046 115.403 888.046 116.478C888.046 117.552 888.852 118.064 890.073 118.064C891.318 118.064 892.197 117.552 892.197 116.478C892.197 115.403 891.318 114.866 890.073 114.866ZM902.67 106.932V121.141H899.179V119.017H896.396V116.209H899.179V114.5H896.469V111.692H899.179V106.932H902.67ZM895.004 121.434C899.79 121.434 902.768 122.898 902.792 125.389C902.768 127.854 899.79 129.368 895.004 129.344C890.195 129.368 887.192 127.854 887.192 125.389C887.192 122.898 890.195 121.434 895.004 121.434ZM895.004 124.07C892.319 124.095 890.903 124.461 890.903 125.389C890.903 126.292 892.319 126.707 895.004 126.707C897.617 126.707 899.008 126.292 899.008 125.389C899.008 124.461 897.617 124.095 895.004 124.07ZM910.874 116.38L913.046 109.324H915.903L914.731 116.38H910.874ZM916.562 116.38L918.735 109.324H921.591L920.419 116.38H916.562Z" fill="black"/>
<defs>
<filter id="filter0_d_444_11" x="428.109" y="0" width="709.891" height="560" filterUnits="userSpaceOnUse" color-interpolation-filters="sRGB">
<feFlood flood-opacity="0" result="BackgroundImageFix"/>
<feColorMatrix in="SourceAlpha" type="matrix" values="0 0 0 0 0 0 0 0 0 0 0 0 0 0 0 0 0 0 127 0" result="hardAlpha"/>
<feOffset dy="4"/>
<feGaussianBlur stdDeviation="2"/>
<feComposite in2="hardAlpha" operator="out"/>
<feColorMatrix type="matrix" values="0 0 0 0 0 0 0 0 0 0 0 0 0 0 0 0 0 0 0.25 0"/>
<feBlend mode="normal" in2="BackgroundImageFix" result="effect1_dropShadow_444_11"/>
<feBlend mode="normal" in="SourceGraphic" in2="effect1_dropShadow_444_11" result="shape"/>
</filter>
</defs>
</svg>
