<svg width="1109" height="560" viewBox="0 0 1109 560" fill="none" xmlns="http://www.w3.org/2000/svg">
<path d="M66.6045 460.141V463.48H44.1338V460.141H53.2451V457.152H57.4639V460.141H66.6045ZM67.7178 477.836V481.205H43.1377V477.836H53.2451V474.936C48.748 474.511 46.0381 472.636 46.0381 469.721C46.0381 466.41 49.6123 464.447 55.3545 464.447C61.0088 464.447 64.6123 466.41 64.6123 469.721C64.6123 472.621 61.8877 474.511 57.4639 474.936V477.836H67.7178ZM55.3545 467.729C52.0439 467.729 50.4033 468.314 50.4033 469.721C50.4033 471.156 52.0439 471.713 55.3545 471.713C58.5771 471.713 60.2764 471.156 60.2764 469.721C60.2764 468.314 58.5771 467.729 55.3545 467.729ZM91.7705 456.918V483.812H87.4932V456.918H91.7705ZM83.6846 459.701C83.6846 467.992 81.0479 474.73 71.2627 479.33L69.0654 475.99C75.9062 472.753 78.7773 468.783 79.3779 462.982H70.5889V459.701H83.6846ZM117.581 456.947V472.094H113.362V456.947H117.581ZM117.581 473.236V483.52H99.417V473.236H117.581ZM103.548 476.547V480.15H113.45V476.547H103.548ZM105.54 460.492C105.511 463.598 107.21 466.645 111.663 467.963L109.642 471.186C106.595 470.321 104.559 468.578 103.372 466.322C102.142 468.783 100.018 470.731 96.8389 471.684L94.7881 468.373C99.4463 467.025 101.146 463.656 101.146 460.492V457.914H105.54V460.492ZM142.571 456.947V463.568H145.823V467.055H142.571V473.734H138.353V456.947H142.571ZM133.401 474.086C139.114 474.086 142.63 475.873 142.659 478.979C142.63 481.967 139.114 483.842 133.401 483.812C127.659 483.842 124.085 481.967 124.085 478.979C124.085 475.873 127.659 474.086 133.401 474.086ZM133.401 477.25C130.003 477.25 128.245 477.777 128.274 478.979C128.245 480.092 130.003 480.619 133.401 480.648C136.712 480.619 138.47 480.092 138.47 478.979C138.47 477.777 136.712 477.25 133.401 477.25ZM120.833 469.604C122.635 469.604 124.715 469.604 126.897 469.545V467.875C124.056 467.274 122.181 465.37 122.181 462.865C122.181 459.818 124.993 457.65 128.978 457.65C132.933 457.65 135.745 459.818 135.774 462.865C135.745 465.341 133.929 467.23 131.146 467.875V469.398C133.123 469.296 135.086 469.135 136.917 468.9L137.298 471.771C131.819 472.738 125.755 472.826 121.243 472.855L120.833 469.604ZM128.978 460.785C127.22 460.785 126.077 461.459 126.106 462.865C126.077 464.271 127.22 465.062 128.978 465.062C130.677 465.062 131.819 464.271 131.819 462.865C131.819 461.459 130.677 460.785 128.978 460.785ZM175.53 468.783V472.094H167.884V477.426H178.138V480.854H153.558V477.426H163.724V472.094H156.37V458.734H175.354V462.074H160.589V468.783H175.53ZM192.464 458.764V467.611H184.671V470.219C188.025 470.189 190.486 470.028 193.196 469.545L193.665 472.943C190.237 473.529 187.19 473.617 182.562 473.617H180.452V464.506H188.216V462.104H180.452V458.764H192.464ZM202.249 456.947V476.811H198.06V470.307H193.929V466.938H198.06V464.213H193.929V460.873H198.06V456.947H202.249ZM202.894 479.945V483.373H184.056V475.258H188.245V479.945H202.894ZM227.972 456.918V471.947H223.782V456.918H227.972ZM211.126 458.471V467.348C215.081 467.304 218.348 467.025 221.731 466.293L222.2 469.691C218.157 470.57 214.173 470.863 209.28 470.893H206.907V458.471H211.126ZM227.972 473.002V483.49H209.866V473.002H227.972ZM213.997 476.283V480.209H223.841V476.283H213.997ZM246.253 459.232V462.543H231.429V459.232H236.937V456.684H241.155V459.232H246.253ZM238.987 463.305C242.708 463.305 245.433 465.385 245.462 468.373C245.433 471.361 242.708 473.383 238.987 473.383C235.267 473.383 232.63 471.361 232.63 468.373C232.63 465.385 235.267 463.305 238.987 463.305ZM238.987 466.439C237.522 466.439 236.556 467.084 236.556 468.373C236.556 469.662 237.522 470.277 238.987 470.277C240.481 470.277 241.536 469.662 241.536 468.373C241.536 467.084 240.481 466.439 238.987 466.439ZM254.104 456.918V473.969H249.915V471.42H246.575V468.051H249.915V466H246.663V462.631H249.915V456.918H254.104ZM244.905 474.32C250.647 474.32 254.222 476.078 254.251 479.066C254.222 482.025 250.647 483.842 244.905 483.812C239.134 483.842 235.53 482.025 235.53 479.066C235.53 476.078 239.134 474.32 244.905 474.32ZM244.905 477.484C241.683 477.514 239.983 477.953 239.983 479.066C239.983 480.15 241.683 480.648 244.905 480.648C248.04 480.648 249.71 480.15 249.71 479.066C249.71 477.953 248.04 477.514 244.905 477.484Z" fill="#222222"/>
<g filter="url(#filter0_d_444_9)">
<path fill-rule="evenodd" clip-rule="evenodd" d="M525 0C491.311 0 464 27.3106 464 61V237.794L403.636 272.147C400.267 274.065 400.267 278.921 403.636 280.838L464 315.192V491C464 524.689 491.311 552 525 552H1042C1075.69 552 1103 524.689 1103 491V61C1103 27.3106 1075.69 0 1042 0H525Z" fill="white"/>
</g>
<path d="M659.659 224.455C659.659 227.721 663.397 230.643 666.728 231.266L665.954 232.684C663.075 232.018 660.035 229.966 658.8 227.141C657.564 229.955 654.535 232.007 651.646 232.684L650.872 231.266C654.181 230.621 657.897 227.742 657.897 224.455V222.994H659.659V224.455ZM667.63 236.744V238.141H650.142V236.744H667.63ZM684.388 223.596V225.959C684.388 228.773 684.388 231.373 683.593 235.24L681.896 235.09C682.314 233.253 682.529 231.663 682.647 230.17L670.981 230.814L670.745 229.418L682.712 228.924C682.744 227.914 682.744 226.937 682.755 225.959V225.014H671.261V223.596H684.388ZM686.558 236.637V238.055H669.155V236.637H686.558ZM704.39 221.662V232.232H702.778V227.57H700.093V232.039H698.524V222.006H700.093V226.217H702.778V221.662H704.39ZM693.476 233.113V235.305H702.735V233.113H704.39V240.482H691.8V233.113H693.476ZM693.476 239.107H702.735V236.68H693.476V239.107ZM696.247 222.801V227.699H690.683V230.234C693.196 230.202 695.119 230.105 697.386 229.633L697.579 231.029C695.108 231.502 693.067 231.609 690.296 231.609H689.05V226.41H694.636V224.176H689.007V222.801H696.247ZM719.171 225.186C719.171 227.721 721.04 230.041 723.876 231.029L723.017 232.34C720.836 231.566 719.171 229.998 718.354 228.021C717.538 230.191 715.787 231.878 713.542 232.705L712.64 231.395C715.497 230.385 717.495 227.914 717.517 225.186V224.369H713.155V222.994H723.468V224.369H719.171V225.186ZM727.636 221.641V226.689H730.515V228.129H727.636V233.156H725.96V221.641H727.636ZM727.636 234.166V240.74H725.96V235.541H715.132V234.166H727.636ZM738.292 224.648C738.271 227.377 740.204 229.783 743.019 230.729L742.073 232.039C739.968 231.244 738.313 229.697 737.497 227.678C736.67 229.966 734.919 231.749 732.62 232.619L731.696 231.244C734.64 230.213 736.595 227.678 736.616 224.713V222.736H738.292V224.648ZM747.552 221.641V232.963H745.854V227.141H741.601V225.744H745.854V221.641H747.552ZM741.214 233.521C745.188 233.521 747.616 234.832 747.616 237.131C747.616 239.408 745.188 240.697 741.214 240.697C737.239 240.697 734.812 239.408 734.812 237.131C734.812 234.832 737.239 233.521 741.214 233.521ZM741.214 234.854C738.292 234.854 736.466 235.713 736.487 237.131C736.466 238.506 738.292 239.344 741.214 239.344C744.136 239.344 745.94 238.506 745.94 237.131C745.94 235.713 744.136 234.854 741.214 234.854ZM761.323 223.768V224.756C761.302 226.26 761.302 228.795 760.765 232.34L759.067 232.189C759.583 228.988 759.626 226.668 759.626 225.143H751.612V223.768H761.323ZM756.317 229.225V235.025C758.434 234.95 760.604 234.811 762.591 234.574L762.677 235.842C758.659 236.465 754.169 236.551 750.753 236.529L750.538 235.133C751.795 235.122 753.191 235.111 754.663 235.068V229.225H756.317ZM765.47 221.641V229.633H768.563V231.094H765.47V240.74H763.794V221.641H765.47ZM790.198 221.641V226.732H793.077V228.172H790.198V233.156H788.522V221.641H790.198ZM790.198 234.252V240.482H778.146V234.252H790.198ZM779.8 235.605V239.107H788.522V235.605H779.8ZM786.696 223.682V225.078H775.31V223.682H780.165V221.49H781.841V223.682H786.696ZM781.003 226.023C783.753 226.023 785.579 227.377 785.601 229.418C785.579 231.502 783.753 232.834 781.003 232.834C778.231 232.834 776.384 231.502 776.405 229.418C776.384 227.377 778.231 226.023 781.003 226.023ZM781.003 227.334C779.198 227.334 777.995 228.172 778.017 229.418C777.995 230.729 779.198 231.523 781.003 231.545C782.786 231.523 783.989 230.729 784.011 229.418C783.989 228.172 782.786 227.334 781.003 227.334ZM799.028 223.961C799.007 227.979 798.448 232.49 795.655 236.186L794.323 235.412C796.719 232.415 797.428 228.881 797.567 225.357H794.71V223.961H799.028ZM803.261 223.961C803.25 225.519 803.218 227.312 802.981 229.16H805.517V222.156H807.128V239.773H805.517V230.557H802.767C802.326 232.941 801.488 235.358 799.931 237.453L798.62 236.658C801.263 233.285 801.703 228.924 801.778 225.357H799.63V223.961H803.261ZM810.716 221.641V240.74H809.083V221.641H810.716ZM834.241 230.6V231.975H828.333V236.916H836.304V238.334H818.815V236.916H826.679V231.975H821.05V223.209H834.048V224.584H822.747V230.6H834.241ZM853.663 221.662V235.67H851.966V228.344H848.034V226.947H851.966V221.662H853.663ZM854.2 238.914V240.332H841.396V234.402H843.093V238.914H854.2ZM844.468 225.594C844.468 228.064 846.38 230.471 849.173 231.416L848.292 232.77C846.133 231.996 844.468 230.385 843.651 228.408C842.824 230.61 841.062 232.372 838.796 233.221L837.915 231.846C840.729 230.857 842.771 228.344 842.771 225.594V224.605H838.452V223.209H848.743V224.605H844.468V225.594ZM865.544 221.984C869.798 221.984 872.29 223.145 872.29 225.271C872.29 227.441 869.798 228.602 865.544 228.623C861.29 228.602 858.776 227.441 858.776 225.271C858.776 223.145 861.29 221.984 865.544 221.984ZM865.544 223.252C862.364 223.252 860.517 224.025 860.538 225.271C860.517 226.604 862.364 227.334 865.544 227.334C868.702 227.334 870.571 226.604 870.571 225.271C870.571 224.025 868.702 223.252 865.544 223.252ZM874.245 229.912V231.287H856.843V229.912H874.245ZM872.011 232.941V237.217H860.667V239.193H872.591V240.525H858.991V235.971H870.356V234.23H858.948V232.941H872.011ZM896.159 221.641V229.525H899.36V230.922H896.159V240.74H894.483V221.641H896.159ZM892.636 224.713V226.109H881.271V224.713H886.19V221.877H887.866V224.713H892.636ZM887.05 227.699C889.757 227.699 891.712 229.504 891.733 232.082C891.712 234.66 889.757 236.465 887.05 236.465C884.321 236.465 882.345 234.66 882.366 232.082C882.345 229.504 884.321 227.699 887.05 227.699ZM887.05 229.117C885.267 229.117 883.956 230.363 883.978 232.082C883.956 233.822 885.267 235.047 887.05 235.025C888.812 235.047 890.101 233.822 890.122 232.082C890.101 230.363 888.812 229.117 887.05 229.117ZM909.866 223.553V226.238H914.55V221.641H916.226V240.783H914.55V232.898H909.866V235.906H901.165V223.553H909.866ZM902.841 224.885V234.553H908.233V224.885H902.841ZM909.866 231.502H914.55V227.635H909.866V231.502ZM678.823 248.467V249.885H671.755V259.617C675.192 259.617 677.47 259.499 680.112 258.994L680.327 260.391C677.513 260.928 675.192 261.057 671.519 261.057H670.058V248.467H678.823ZM684.946 246.641V265.783H683.249V254.998H677.685V253.602H683.249V246.641H684.946ZM696.462 247.629V254.418C699.448 254.407 701.973 254.257 704.755 253.688L705.013 255.105C702.005 255.686 699.405 255.836 696.226 255.836H694.765V247.629H696.462ZM709.46 246.641V256.824H707.763V251.238H702.263V249.842H707.763V246.641H709.46ZM704.862 257.533V260.047H707.913V257.533H709.46V265.525H703.315V257.533H704.862ZM704.862 264.172H707.913V261.379H704.862V264.172ZM702.134 257.77V262.109H697.644V264.193C699.717 264.183 700.941 264.14 702.563 263.871L702.714 265.16C700.931 265.482 699.534 265.525 696.978 265.525H695.989V260.863H700.501V259.059H695.946V257.77H702.134ZM730.042 256.717V258.092H712.64V256.717H730.042ZM728.108 263.914V265.332H714.896V259.768H716.593V263.914H728.108ZM721.341 247.328C725.444 247.307 728.087 248.725 728.087 251.109C728.087 253.494 725.444 254.912 721.341 254.912C717.194 254.912 714.573 253.494 714.573 251.109C714.573 248.725 717.194 247.307 721.341 247.328ZM721.341 248.682C718.269 248.682 716.292 249.605 716.313 251.109C716.292 252.613 718.269 253.537 721.341 253.537C724.392 253.537 726.368 252.613 726.368 251.109C726.368 249.605 724.392 248.682 721.341 248.682ZM742.847 252.076C742.847 255.105 744.329 258.393 746.864 259.896L745.897 261.207C744.061 260.09 742.739 258.049 742.073 255.729C741.364 258.264 739.946 260.444 738.034 261.615L736.96 260.348C739.603 258.801 741.214 255.406 741.214 252.141V248.445H742.847V252.076ZM753.546 246.641V265.74H751.913V246.641H753.546ZM749.593 247.049V264.773H748.003V254.934H744.759V253.494H748.003V247.049H749.593ZM762.569 249.734C762.569 252.334 764.546 254.719 767.317 255.664L766.394 256.996C764.277 256.223 762.612 254.644 761.774 252.656C760.958 254.901 759.261 256.674 757.026 257.533L756.124 256.18C758.981 255.105 760.894 252.549 760.915 249.605V247.629H762.569V249.734ZM771.12 246.641V251.625H773.999V253.043H771.12V258.264H769.444V246.641H771.12ZM764.997 258.758C768.929 258.758 771.292 260.025 771.292 262.217C771.292 264.451 768.929 265.697 764.997 265.697C761.065 265.697 758.659 264.451 758.659 262.217C758.659 260.025 761.065 258.758 764.997 258.758ZM764.997 260.111C762.118 260.111 760.335 260.906 760.356 262.217C760.335 263.57 762.118 264.344 764.997 264.365C767.897 264.344 769.659 263.57 769.659 262.217C769.659 260.906 767.897 260.111 764.997 260.111ZM783.903 246.984C788.157 246.984 790.649 248.145 790.649 250.271C790.649 252.441 788.157 253.602 783.903 253.623C779.649 253.602 777.136 252.441 777.136 250.271C777.136 248.145 779.649 246.984 783.903 246.984ZM783.903 248.252C780.724 248.252 778.876 249.025 778.897 250.271C778.876 251.604 780.724 252.334 783.903 252.334C787.062 252.334 788.931 251.604 788.931 250.271C788.931 249.025 787.062 248.252 783.903 248.252ZM792.604 254.912V256.287H775.202V254.912H792.604ZM790.37 257.941V262.217H779.026V264.193H790.95V265.525H777.351V260.971H788.716V259.23H777.308V257.941H790.37ZM815.571 246.641V256.867H813.874V253.988H810.673V252.613H813.874V250.809H810.673V249.455H813.874V246.641H815.571ZM810.458 247.887V249.262H808.503V254.611C809.395 254.558 810.265 254.482 811.081 254.396L811.167 255.643C807.493 256.201 803.175 256.244 799.974 256.244L799.78 254.805L802.251 254.783V249.262H800.317V247.887H810.458ZM815.571 257.77V262.152H804.894V264.172H816.28V265.525H803.239V260.863H813.896V259.102H803.196V257.77H815.571ZM803.884 254.762C804.861 254.762 805.871 254.729 806.87 254.697V249.262H803.884V254.762ZM834.563 246.641V265.783H832.888V258.092H828.956V256.695H832.888V254.117H828.956V252.699H832.888V246.641H834.563ZM825.347 252.871C825.347 256.029 827.495 259.145 830.331 260.412L829.364 261.723C827.194 260.724 825.39 258.629 824.552 256.094C823.714 258.769 821.931 260.992 819.761 262.045L818.794 260.734C821.587 259.424 823.692 256.158 823.692 252.871V251.346H819.31V249.971H823.692V247.006H825.368V249.971H829.687V251.346H825.347V252.871ZM855.253 261.895V263.291H837.765V261.895H845.628V257.77H839.827V247.994H841.524V251.453H851.45V247.994H853.104V257.77H847.282V261.895H855.253ZM841.524 256.395H851.45V252.828H841.524V256.395ZM862.45 252.076C862.45 255.105 863.933 258.393 866.468 259.896L865.501 261.207C863.664 260.09 862.343 258.049 861.677 255.729C860.968 258.264 859.55 260.444 857.638 261.615L856.563 260.348C859.206 258.801 860.817 255.406 860.817 252.141V248.445H862.45V252.076ZM873.149 246.641V265.74H871.517V246.641H873.149ZM869.196 247.049V264.773H867.606V254.934H864.362V253.494H867.606V247.049H869.196ZM893.28 261.873V263.291H875.792V261.873H880.132V256.717C878.499 255.868 877.511 254.493 877.511 252.764C877.511 249.799 880.411 247.865 884.493 247.844C888.575 247.865 891.476 249.799 891.476 252.764C891.476 254.461 890.52 255.825 888.94 256.674V261.873H893.28ZM884.493 249.24C881.356 249.219 879.144 250.637 879.144 252.764C879.144 254.891 881.356 256.33 884.493 256.33C887.608 256.33 889.843 254.891 889.843 252.764C889.843 250.637 887.608 249.219 884.493 249.24ZM881.786 261.873H887.243V257.318C886.416 257.544 885.492 257.662 884.493 257.662C883.516 257.662 882.603 257.555 881.786 257.34V261.873ZM897.899 248.445L897.749 259.617H895.944L895.794 248.445H897.899ZM896.847 264.129C896.095 264.129 895.45 263.506 895.472 262.732C895.45 261.98 896.095 261.357 896.847 261.357C897.599 261.357 898.222 261.98 898.222 262.732C898.222 263.506 897.599 264.129 896.847 264.129Z" fill="#222222"/>
<path d="M636.467 176.662V182.441H639.324V183.859H636.467V190.24H634.77V176.662H636.467ZM631.375 189.596C631.375 192.109 634.361 193.871 637.82 194.344L637.176 195.654C634.275 195.192 631.644 193.936 630.516 191.895C629.377 193.936 626.734 195.192 623.834 195.654L623.211 194.344C626.67 193.871 629.656 192.109 629.656 189.596V188.951H631.375V189.596ZM621.535 186.459C623.028 186.459 624.769 186.448 626.584 186.373V184.59C624.221 184.343 622.652 182.957 622.674 181.002C622.652 178.854 624.586 177.414 627.379 177.393C630.172 177.414 632.105 178.854 632.105 181.002C632.105 182.925 630.58 184.3 628.281 184.568V186.309C630.075 186.212 631.88 186.062 633.545 185.814L633.674 187.018C629.635 187.748 625.059 187.812 621.75 187.812L621.535 186.459ZM627.379 178.682C625.531 178.682 624.242 179.605 624.242 181.002C624.242 182.398 625.531 183.344 627.379 183.344C629.227 183.344 630.516 182.398 630.516 181.002C630.516 179.605 629.227 178.682 627.379 178.682ZM658.059 191.873V193.291H640.57V191.873H658.059ZM650.152 181.109C650.152 184.268 653.311 186.652 656.941 187.297L656.254 188.672C653.235 188.06 650.485 186.405 649.293 183.902C648.079 186.405 645.329 188.06 642.311 188.672L641.645 187.297C645.254 186.652 648.434 184.268 648.434 181.109H642.203V179.734H648.455V177.113H650.109V179.734H656.383V181.109H650.152ZM674.902 178.574V180.486C674.881 182.828 674.881 185.449 674.193 189.295L672.475 189.102C673.205 185.449 673.205 182.764 673.205 180.486V179.971H661.432V178.574H674.902ZM676.986 191.637V193.033H659.584V191.637H666.416V184.805H668.07V191.637H676.986ZM694.367 176.662V188.027H692.691V176.662H694.367ZM687.986 188.414C691.961 188.414 694.41 189.746 694.432 192.045C694.41 194.365 691.961 195.697 687.986 195.697C683.969 195.697 681.541 194.365 681.541 192.045C681.541 189.746 683.969 188.414 687.986 188.414ZM687.986 189.746C685.021 189.746 683.238 190.605 683.238 192.045C683.238 193.484 685.021 194.344 687.986 194.344C690.93 194.344 692.756 193.484 692.756 192.045C692.756 190.605 690.93 189.746 687.986 189.746ZM684.055 177.865C686.955 177.887 689.061 179.691 689.061 182.334C689.061 184.977 686.955 186.76 684.055 186.781C681.154 186.76 679.049 184.977 679.049 182.334C679.049 179.691 681.154 177.887 684.055 177.865ZM684.055 179.326C682.1 179.305 680.682 180.529 680.703 182.334C680.682 184.117 682.1 185.342 684.055 185.363C685.988 185.342 687.406 184.117 687.406 182.334C687.406 180.529 685.988 179.305 684.055 179.326ZM715.014 186.824V188.221H697.611V186.824H705.475V184.826C701.812 184.644 699.545 183.258 699.545 181.002C699.545 178.66 702.166 177.221 706.312 177.221C710.416 177.221 713.059 178.66 713.059 181.002C713.059 183.258 710.771 184.644 707.15 184.826V186.824H715.014ZM713.08 193.914V195.332H699.867V189.768H701.564V193.914H713.08ZM706.312 178.596C703.24 178.596 701.264 179.541 701.285 181.002C701.264 182.549 703.24 183.451 706.312 183.451C709.363 183.451 711.34 182.549 711.34 181.002C711.34 179.541 709.363 178.596 706.312 178.596ZM727.217 178.768V179.756C727.195 181.26 727.195 183.795 726.658 187.34L724.961 187.189C725.477 183.988 725.52 181.668 725.52 180.143H717.506V178.768H727.217ZM722.211 184.225V190.025C724.327 189.95 726.497 189.811 728.484 189.574L728.57 190.842C724.553 191.465 720.062 191.551 716.646 191.529L716.432 190.133C717.688 190.122 719.085 190.111 720.557 190.068V184.225H722.211ZM731.363 176.641V184.633H734.457V186.094H731.363V195.74H729.688V176.641H731.363ZM756.092 176.641V181.732H758.971V183.172H756.092V188.156H754.416V176.641H756.092ZM756.092 189.252V195.482H744.039V189.252H756.092ZM745.693 190.605V194.107H754.416V190.605H745.693ZM752.59 178.682V180.078H741.203V178.682H746.059V176.49H747.734V178.682H752.59ZM746.896 181.023C749.646 181.023 751.473 182.377 751.494 184.418C751.473 186.502 749.646 187.834 746.896 187.834C744.125 187.834 742.277 186.502 742.299 184.418C742.277 182.377 744.125 181.023 746.896 181.023ZM746.896 182.334C745.092 182.334 743.889 183.172 743.91 184.418C743.889 185.729 745.092 186.523 746.896 186.545C748.68 186.523 749.883 185.729 749.904 184.418C749.883 183.172 748.68 182.334 746.896 182.334ZM764.922 178.961C764.9 182.979 764.342 187.49 761.549 191.186L760.217 190.412C762.612 187.415 763.321 183.881 763.461 180.357H760.604V178.961H764.922ZM769.154 178.961C769.144 180.519 769.111 182.312 768.875 184.16H771.41V177.156H773.021V194.773H771.41V185.557H768.66C768.22 187.941 767.382 190.358 765.824 192.453L764.514 191.658C767.156 188.285 767.597 183.924 767.672 180.357H765.523V178.961H769.154ZM776.609 176.641V195.74H774.977V176.641H776.609ZM790.381 182.076C790.381 185.105 791.863 188.393 794.398 189.896L793.432 191.207C791.595 190.09 790.273 188.049 789.607 185.729C788.898 188.264 787.48 190.444 785.568 191.615L784.494 190.348C787.137 188.801 788.748 185.406 788.748 182.141V178.445H790.381V182.076ZM801.08 176.641V195.74H799.447V176.641H801.08ZM797.127 177.049V194.773H795.537V184.934H792.293V183.494H795.537V177.049H797.127ZM820.072 176.641V195.74H818.461V176.641H820.072ZM816.205 177.156V194.773H814.594V188.156H811.049V186.76H814.594V183.365H811.371C810.437 186.599 808.342 189.456 804.732 191.615L803.701 190.391C807.858 187.931 809.942 184.482 810.275 180.486H804.561V179.09H811.951C811.951 180.067 811.865 181.034 811.693 181.969H814.594V177.156H816.205ZM840.203 185.514V186.846H822.715V185.514H840.203ZM838.012 188.371V192.432H826.539V194.258H838.635V195.482H824.842V191.271H836.336V189.639H824.82V188.371H838.012ZM837.947 177.221V181.174H826.668V182.85H838.291V184.074H824.992V180.014H836.25V178.445H824.928V177.221H837.947ZM856.961 177.822V179.24H849.85V181.625H856.596V183.021H849.85V185.557C853.566 185.578 855.704 185.503 858.207 185.02L858.4 186.395C855.758 186.867 853.566 186.932 849.613 186.91H848.174V177.822H856.961ZM862.203 188.887V195.482H850.15V188.887H862.203ZM851.805 190.24V194.107H860.527V190.24H851.805ZM862.203 176.641V181.389H865.082V182.828H862.203V187.898H860.527V176.641H862.203ZM882.119 176.641V188.221H880.422V183.859H877.178V182.463H880.422V176.641H882.119ZM882.119 189.252V195.482H869.637V189.252H882.119ZM871.312 190.605V194.107H880.465V190.605H871.312ZM877.457 178.66V180.035H866.307V178.66H871.055V176.469H872.709V178.66H877.457ZM871.871 181.023C874.471 181.023 876.297 182.42 876.318 184.418C876.297 186.48 874.471 187.834 871.871 187.834C869.271 187.834 867.445 186.48 867.445 184.418C867.445 182.42 869.271 181.023 871.871 181.023ZM871.871 182.334C870.217 182.334 869.057 183.193 869.057 184.418C869.057 185.686 870.217 186.523 871.871 186.545C873.525 186.523 874.686 185.686 874.686 184.418C874.686 183.193 873.525 182.334 871.871 182.334ZM894.838 179.949V181.324H885.256V179.949H889.23V177.221H890.906V179.949H894.838ZM890.047 182.613C892.453 182.613 894.172 184.418 894.193 186.953C894.172 189.51 892.453 191.336 890.047 191.336C887.662 191.336 885.943 189.51 885.943 186.953C885.943 184.418 887.662 182.613 890.047 182.613ZM890.047 184.031C888.543 184.053 887.447 185.277 887.447 186.953C887.447 188.65 888.543 189.875 890.047 189.854C891.572 189.875 892.689 188.65 892.689 186.953C892.689 185.277 891.572 184.053 890.047 184.031ZM901.562 176.641V195.74H899.951V186.094H897.416V194.795H895.826V177.113H897.416V184.697H899.951V176.641H901.562ZM907.041 178.23V181.152H913.25V178.23H914.926V186.824H910.994V190.24C912.756 190.176 914.528 190.047 916.172 189.832L916.279 191.1C912.24 191.744 907.707 191.809 904.355 191.83L904.076 190.391C905.634 190.38 907.428 190.369 909.297 190.305V186.824H905.365V178.23H907.041ZM907.041 185.449H913.25V182.463H907.041V185.449ZM919.072 176.641V184.676H922.188V186.094H919.072V195.74H917.396V176.641H919.072ZM940.814 191.873V193.291H923.326V191.873H927.666V186.717C926.033 185.868 925.045 184.493 925.045 182.764C925.045 179.799 927.945 177.865 932.027 177.844C936.109 177.865 939.01 179.799 939.01 182.764C939.01 184.461 938.054 185.825 936.475 186.674V191.873H940.814ZM932.027 179.24C928.891 179.219 926.678 180.637 926.678 182.764C926.678 184.891 928.891 186.33 932.027 186.33C935.143 186.33 937.377 184.891 937.377 182.764C937.377 180.637 935.143 179.219 932.027 179.24ZM929.32 191.873H934.777V187.318C933.95 187.544 933.026 187.662 932.027 187.662C931.05 187.662 930.137 187.555 929.32 187.34V191.873ZM945.434 178.445L945.283 189.617H943.479L943.328 178.445H945.434ZM944.381 194.129C943.629 194.129 942.984 193.506 943.006 192.732C942.984 191.98 943.629 191.357 944.381 191.357C945.133 191.357 945.756 191.98 945.756 192.732C945.756 193.506 945.133 194.129 944.381 194.129Z" fill="#222222"/>
<path d="M561.199 354.6V355.975H555.291V360.916H563.262V362.334H545.773V360.916H553.637V355.975H548.008V347.209H561.006V348.584H549.705V354.6H561.199ZM575.766 347.725V349.121H573.639V358.316C574.67 358.241 575.69 358.155 576.668 358.037L576.754 359.283C572.715 359.928 568.139 359.992 564.766 360.014L564.551 358.574L567.129 358.553V349.121H565.023V347.725H575.766ZM579.568 345.641V353.311H582.77V354.729H579.568V364.74H577.893V345.641H579.568ZM568.762 358.531C569.825 358.51 570.932 358.467 572.027 358.402V349.121H568.762V358.531ZM593.77 347.316V356.168H584.811V347.316H593.77ZM586.465 348.713V354.814H592.115V348.713H586.465ZM599.57 345.662V359.391H597.895V345.662H599.57ZM600.172 362.699V364.096H587.238V358.059H588.914V362.699H600.172ZM613.643 347.789V349.164H602.836V347.789H607.477V345.49H609.152V347.789H613.643ZM608.293 350.152C610.85 350.152 612.654 351.549 612.654 353.676C612.654 355.824 610.85 357.221 608.293 357.221C605.715 357.221 603.953 355.824 603.975 353.676C603.953 351.549 605.715 350.152 608.293 350.152ZM608.293 351.42C606.639 351.441 605.543 352.344 605.543 353.676C605.543 355.029 606.639 355.91 608.293 355.91C609.947 355.91 611.064 355.029 611.086 353.676C611.064 352.344 609.947 351.441 608.293 351.42ZM618.648 345.641V357.994H616.951V355.352H613.621V353.955H616.951V351.635H613.643V350.238H616.951V345.641H618.648ZM612.354 358.188C616.328 358.188 618.756 359.369 618.756 361.453C618.756 363.494 616.328 364.697 612.354 364.697C608.336 364.697 605.93 363.494 605.93 361.453C605.93 359.369 608.336 358.188 612.354 358.188ZM612.354 359.498C609.453 359.498 607.67 360.207 607.67 361.453C607.67 362.656 609.453 363.387 612.354 363.387C615.211 363.387 616.973 362.656 616.973 361.453C616.973 360.207 615.211 359.498 612.354 359.498Z" fill="#222222"/>
<path d="M561.199 404.6V405.975H555.291V410.916H563.262V412.334H545.773V410.916H553.637V405.975H548.008V397.209H561.006V398.584H549.705V404.6H561.199ZM580.621 395.662V409.67H578.924V402.344H574.992V400.947H578.924V395.662H580.621ZM581.158 412.914V414.332H568.354V408.402H570.051V412.914H581.158ZM571.426 399.594C571.426 402.064 573.338 404.471 576.131 405.416L575.25 406.77C573.091 405.996 571.426 404.385 570.609 402.408C569.782 404.61 568.021 406.372 565.754 407.221L564.873 405.846C567.688 404.857 569.729 402.344 569.729 399.594V398.605H565.41V397.209H575.701V398.605H571.426V399.594ZM594.629 397.789V399.164H583.822V397.789H588.463V395.49H590.139V397.789H594.629ZM589.279 400.152C591.836 400.152 593.641 401.549 593.641 403.676C593.641 405.824 591.836 407.221 589.279 407.221C586.701 407.221 584.939 405.824 584.961 403.676C584.939 401.549 586.701 400.152 589.279 400.152ZM589.279 401.42C587.625 401.441 586.529 402.344 586.529 403.676C586.529 405.029 587.625 405.91 589.279 405.91C590.934 405.91 592.051 405.029 592.072 403.676C592.051 402.344 590.934 401.441 589.279 401.42ZM599.635 395.641V407.994H597.938V405.352H594.607V403.955H597.938V401.635H594.629V400.238H597.938V395.641H599.635ZM593.34 408.188C597.314 408.188 599.742 409.369 599.742 411.453C599.742 413.494 597.314 414.697 593.34 414.697C589.322 414.697 586.916 413.494 586.916 411.453C586.916 409.369 589.322 408.188 593.34 408.188ZM593.34 409.498C590.439 409.498 588.656 410.207 588.656 411.453C588.656 412.656 590.439 413.387 593.34 413.387C596.197 413.387 597.959 412.656 597.959 411.453C597.959 410.207 596.197 409.498 593.34 409.498Z" fill="#222222"/>
<path d="M555.635 448.887C555.613 453.678 552.197 457.115 546.697 458.684L545.988 457.352C550.554 456.062 553.465 453.527 553.83 450.283H546.977V448.887H555.635ZM561.607 447.662V458.555H559.91V454H555.678V452.582H559.91V447.662H561.607ZM561.607 459.371V466.482H549.211V459.371H561.607ZM550.844 460.725V465.107H559.932V460.725H550.844ZM570.48 451.379C570.48 453.549 571.941 455.74 574.391 456.707L573.488 458.018C571.684 457.266 570.362 455.869 569.686 454.172C568.977 456.03 567.602 457.652 565.732 458.49L564.809 457.18C567.322 456.062 568.869 453.549 568.869 451.379V448.822H570.48V451.379ZM581.008 447.662V459.199H579.396V454.064H576.861V459.092H575.271V448.006H576.861V452.646H579.396V447.662H581.008ZM581.008 460.252V466.74H579.354V461.648H568.139V460.252H581.008ZM594.629 449.789V451.164H583.822V449.789H588.463V447.49H590.139V449.789H594.629ZM589.279 452.152C591.836 452.152 593.641 453.549 593.641 455.676C593.641 457.824 591.836 459.221 589.279 459.221C586.701 459.221 584.939 457.824 584.961 455.676C584.939 453.549 586.701 452.152 589.279 452.152ZM589.279 453.42C587.625 453.441 586.529 454.344 586.529 455.676C586.529 457.029 587.625 457.91 589.279 457.91C590.934 457.91 592.051 457.029 592.072 455.676C592.051 454.344 590.934 453.441 589.279 453.42ZM599.635 447.641V459.994H597.938V457.352H594.607V455.955H597.938V453.635H594.629V452.238H597.938V447.641H599.635ZM593.34 460.188C597.314 460.188 599.742 461.369 599.742 463.453C599.742 465.494 597.314 466.697 593.34 466.697C589.322 466.697 586.916 465.494 586.916 463.453C586.916 461.369 589.322 460.188 593.34 460.188ZM593.34 461.498C590.439 461.498 588.656 462.207 588.656 463.453C588.656 464.656 590.439 465.387 593.34 465.387C596.197 465.387 597.959 464.656 597.959 463.453C597.959 462.207 596.197 461.498 593.34 461.498Z" fill="#222222"/>
<rect x="647" y="343" width="375" height="24" rx="12" fill="#E6E6E6"/>
<rect x="647" y="395" width="375" height="24" rx="12" fill="#E6E6E6"/>
<rect x="647" y="447" width="375" height="24" rx="12" fill="#E6E6E6"/>
<rect x="647" y="343" width="257" height="24" rx="12" fill="#8F8F8F"/>
<rect x="647" y="395" width="335" height="24" rx="12" fill="#8F8F8F"/>
<rect x="647" y="447" width="359" height="24" rx="12" fill="#8F8F8F"/>
<path d="M270.32 141.97V393.24H30V80H211.45L270.32 141.97Z" fill="#D9D9D9" stroke="black" stroke-width="2" stroke-miterlimit="10"/>
<path d="M210.63 80.4707C210.63 80.4707 203.14 139.991 210.63 147.521C218.12 155.051 247.96 134.811 269.5 142.441" fill="#F4F4F4"/>
<path d="M210.63 80.4707C210.63 80.4707 203.14 139.991 210.63 147.521C218.12 155.051 247.96 134.811 269.5 142.441" stroke="black" stroke-width="2" stroke-miterlimit="10" stroke-linecap="round"/>
<path d="M46.0006 130.321C45.1206 131.371 73.2706 111.541 88.6406 110.371C89.8106 110.281 90.5506 108.981 89.9306 107.991C87.2306 103.691 72.4006 98.9705 46.0006 130.321Z" fill="#222222" stroke="black" stroke-miterlimit="10" stroke-linecap="round"/>
<path d="M242.15 132.19C243.08 133.3 213.42 112.4 197.22 111.17C195.99 111.08 195.21 109.71 195.86 108.66C198.7 104.13 214.33 99.1597 242.14 132.19H242.15Z" fill="#222222" stroke="black" stroke-miterlimit="10" stroke-linecap="round"/>
<path d="M92.95 208.34C100.102 208.34 105.9 197.815 105.9 184.83C105.9 171.846 100.102 161.32 92.95 161.32C85.7979 161.32 80 171.846 80 184.83C80 197.815 85.7979 208.34 92.95 208.34Z" fill="black"/>
<path d="M98 164.321C98 164.321 85.5 150.821 72.5 174.821" stroke="black" stroke-width="2" stroke-miterlimit="10" stroke-linecap="round"/>
<path d="M205.95 208.34C213.102 208.34 218.9 197.815 218.9 184.83C218.9 171.846 213.102 161.32 205.95 161.32C198.798 161.32 193 171.846 193 184.83C193 197.815 198.798 208.34 205.95 208.34Z" fill="black"/>
<path d="M211 164.321C211 164.321 198.5 150.821 185.5 174.821" stroke="black" stroke-width="2" stroke-miterlimit="10" stroke-linecap="round"/>
<path d="M68 218C73.5228 218 78 215.985 78 213.5C78 211.015 73.5228 209 68 209C62.4772 209 58 211.015 58 213.5C58 215.985 62.4772 218 68 218Z" fill="white"/>
<path d="M229 218C234.523 218 239 215.985 239 213.5C239 211.015 234.523 209 229 209C223.477 209 219 211.015 219 213.5C219 215.985 223.477 218 229 218Z" fill="white"/>
<path d="M174 214C174 214 183.67 214 185.67 222" stroke="black" stroke-width="2" stroke-miterlimit="10" stroke-linecap="round"/>
<path d="M142.999 302.32C142.999 302.32 141.999 266.55 142.999 263.94C143.999 261.33 151.659 249.68 164.329 251C176.999 252.32 170.999 299.32 170.999 301.32C170.999 303.32 162.999 313.32 147.999 307.32" fill="white"/>
<path d="M142.999 302.32C142.999 302.32 141.999 266.55 142.999 263.94C143.999 261.33 151.659 249.68 164.329 251C176.999 252.32 170.999 299.32 170.999 301.32C170.999 303.32 162.999 313.32 147.999 307.32" stroke="black" stroke-width="2" stroke-miterlimit="10" stroke-linecap="round"/>
<path d="M29 307L1.3692 355.536C-0.0819399 358.088 2.99752 360.793 6.20354 359.783L29 352.575" fill="#D9D9D9"/>
<path d="M29 307L1.3692 355.536C-0.08194 358.088 2.99752 360.793 6.20354 359.783L29 352.575" stroke="black" stroke-width="2" stroke-miterlimit="10" stroke-linecap="round"/>
<path d="M271 307L298.631 355.536C300.082 358.088 297.002 360.793 293.796 359.783L271 352.575" fill="#D9D9D9"/>
<path d="M271 307L298.631 355.536C300.082 358.088 297.002 360.793 293.796 359.783L271 352.575" stroke="black" stroke-width="2" stroke-miterlimit="10" stroke-linecap="round"/>
<path d="M147.927 367.948C147.927 367.948 122.23 380.771 119.895 379.963C117.56 379.156 116 372.754 116 367.948C116 363.142 148 365.658 148 365.658" fill="black"/>
<path d="M147.927 367.948C147.927 367.948 122.23 380.771 119.895 379.963C117.56 379.156 116 372.754 116 367.948C116 363.142 148 365.658 148 365.658" stroke="black" stroke-width="2" stroke-miterlimit="10" stroke-linecap="round"/>
<path d="M148.01 365.668V368.324C148.01 368.697 148.313 369 148.687 369H151.323C151.697 369 152 368.697 152 368.324V365.89C152 365.537 151.727 365.244 151.374 365.214L148.737 365.002C148.343 364.972 148 365.285 148 365.678L148.01 365.668Z" fill="black" stroke="black" stroke-miterlimit="10" stroke-linecap="round"/>
<path d="M152 365.793C152 365.793 173.022 357.08 174.567 361.025C175.696 363.908 174.35 369.748 173.546 372.677C173.275 373.657 172.282 374.211 171.333 373.925L152 368.029" fill="black"/>
<path d="M152 365.793C152 365.793 173.022 357.08 174.567 361.025C175.696 363.908 174.35 369.748 173.546 372.677C173.275 373.657 172.282 374.211 171.333 373.925L152 368.029" stroke="black" stroke-width="2" stroke-miterlimit="10" stroke-linecap="round"/>
<path d="M148.809 369C148.809 369 132.602 386.193 126.066 413.614C125.793 414.754 126.384 415.929 127.457 416.418L132.575 418.769C134.111 419.475 135.892 418.489 136.101 416.816C137.383 406.288 143.473 376.199 150 369" fill="black"/>
<path d="M148.809 369C148.809 369 132.602 386.193 126.066 413.614C125.793 414.754 126.384 415.929 127.457 416.418L132.575 418.769C134.111 419.475 135.892 418.489 136.101 416.816C137.383 406.288 143.473 376.199 150 369" stroke="black" stroke-width="2" stroke-miterlimit="10" stroke-linecap="round"/>
<path d="M150 369C150 369 159.954 387.877 159.725 398.448C159.716 398.965 160.377 399.201 160.698 398.793L164.886 393.48C164.996 393.335 165.033 393.153 164.968 392.981C164.114 390.488 157.447 371.647 150.909 369" fill="black"/>
<path d="M150 369C150 369 159.954 387.877 159.725 398.448C159.716 398.965 160.377 399.201 160.698 398.793L164.886 393.48C164.996 393.335 165.033 393.153 164.968 392.981C164.114 390.488 157.447 371.647 150.909 369" stroke="black" stroke-width="2" stroke-miterlimit="10" stroke-linecap="round"/>
<path d="M152 366C152 366 170.442 356.514 171 349" stroke="black" stroke-width="2" stroke-miterlimit="10" stroke-linecap="round"/>
<path d="M172 350C172 350 170.814 358.265 160 362" stroke="black" stroke-width="2" stroke-miterlimit="10" stroke-linecap="round"/>
<path d="M124 356C124 356 132.602 364.421 146 366" stroke="black" stroke-width="2" stroke-miterlimit="10" stroke-linecap="round"/>
<path d="M122 356C122 356 128.759 363.591 136 365" stroke="black" stroke-width="2" stroke-miterlimit="10" stroke-linecap="round"/>
<path d="M196 55.6074C196 55.6074 209 30.8174 224 47.8174C224 47.8174 234 18.8174 268 24.8174C302 30.8174 285 66.8174 285 66.8174C285 66.8174 305 59.8174 310 73.8174C315 87.8174 300 93.8174 300 93.8174C300 93.8174 306 96.8174 306 100.817C306 104.817 302 107.817 299 107.817" stroke="black" stroke-width="2" stroke-miterlimit="10" stroke-linecap="round"/>
<path d="M138 342.53C138 342.53 149.34 336.05 161.5 342.53" stroke="black" stroke-width="2" stroke-miterlimit="10" stroke-linecap="round"/>
<path d="M158.91 340.189L194.39 369.999C196.04 371.379 198.53 370.959 199.63 369.119C205.03 360.069 219.41 336.489 224.93 332.549C231.78 327.659 235.69 320.809 238.62 319.839C241.05 319.029 261.61 310.159 268.59 307.149C269.44 306.779 269.4 305.579 268.54 305.249C262.61 303.029 247.24 297.539 242.54 298.319C236.67 299.299 222 307.119 218.09 307.119C214.6 307.119 171.09 322.939 158.78 333.879C156.89 335.559 156.98 338.549 158.92 340.179L158.91 340.189Z" fill="#EDECEC" stroke="black" stroke-width="2" stroke-miterlimit="10" stroke-linecap="round"/>
<path d="M140.25 340.189L104.77 369.999C103.12 371.379 100.63 370.959 99.5298 369.119C94.1298 360.069 79.7498 336.489 74.2298 332.549C67.3798 327.659 63.4698 320.809 60.5398 319.839C58.1098 319.029 37.5498 310.159 30.5698 307.149C29.7198 306.779 29.7598 305.579 30.6198 305.249C36.5498 303.029 51.9198 297.539 56.6198 298.319C62.4898 299.299 77.1598 307.119 81.0698 307.119C84.5598 307.119 128.07 322.939 140.38 333.879C142.27 335.559 142.18 338.549 140.24 340.179L140.25 340.189Z" fill="#EDECEC" stroke="black" stroke-width="2" stroke-miterlimit="10" stroke-linecap="round"/>
<path d="M771.206 76.6406V81.625H774.063V83.043H771.206V88.0488H769.509V76.6406H771.206ZM765.062 88.4141C768.95 88.4141 771.356 89.7676 771.356 92.0449C771.356 94.3652 768.95 95.6973 765.062 95.6973C761.151 95.6973 758.724 94.3652 758.724 92.0449C758.724 89.7676 761.151 88.4141 765.062 88.4141ZM765.062 89.8105C762.183 89.7891 760.378 90.6484 760.378 92.0449C760.378 93.4629 762.183 94.3438 765.062 94.3438C767.919 94.3438 769.724 93.4629 769.724 92.0449C769.724 90.6484 767.919 89.7891 765.062 89.8105ZM765.62 78.1016V79.498H758.788V85.1055C762.655 85.084 764.89 84.9658 767.446 84.4395L767.618 85.8359C764.954 86.373 762.655 86.4805 758.616 86.4805H757.134V78.1016H765.62ZM791.036 76.6621V90.6699H789.36V76.6621H791.036ZM791.638 93.9141V95.332H778.704V89.3809H780.38V93.9141H791.638ZM782.034 79.6484C782.013 82.5488 784.011 85.1699 786.847 86.2012L785.966 87.5547C783.753 86.7061 782.034 84.9873 781.196 82.7852C780.348 85.127 778.607 87.0068 776.384 87.8984L775.46 86.5879C778.36 85.4707 780.315 82.6562 780.315 79.6484V77.7363H782.034V79.6484ZM811.683 86.7168V88.0918H794.28V86.7168H811.683ZM809.749 93.9141V95.332H796.536V89.7676H798.233V93.9141H809.749ZM802.981 77.3281C807.085 77.3066 809.728 78.7246 809.728 81.1094C809.728 83.4941 807.085 84.9121 802.981 84.9121C798.835 84.9121 796.214 83.4941 796.214 81.1094C796.214 78.7246 798.835 77.3066 802.981 77.3281ZM802.981 78.6816C799.909 78.6816 797.933 79.6055 797.954 81.1094C797.933 82.6133 799.909 83.5371 802.981 83.5371C806.032 83.5371 808.009 82.6133 808.009 81.1094C808.009 79.6055 806.032 78.6816 802.981 78.6816Z" fill="#222222"/>
<path d="M677.725 116.38L679.898 109.324H682.754L681.583 116.38H677.725ZM683.414 116.38L685.586 109.324H688.443L687.271 116.38H683.414ZM715.42 109.617V112.4H696.695V109.617H704.288V107.127H707.803V109.617H715.42ZM716.348 124.363V127.171H695.865V124.363H704.288V121.946C700.54 121.592 698.282 120.03 698.282 117.601C698.282 114.842 701.26 113.206 706.045 113.206C710.757 113.206 713.76 114.842 713.76 117.601C713.76 120.018 711.49 121.592 707.803 121.946V124.363H716.348ZM706.045 115.94C703.287 115.94 701.919 116.429 701.919 117.601C701.919 118.797 703.287 119.261 706.045 119.261C708.731 119.261 710.147 118.797 710.147 117.601C710.147 116.429 708.731 115.94 706.045 115.94ZM736.392 106.932V129.344H732.828V106.932H736.392ZM729.654 109.251C729.654 116.16 727.457 121.775 719.302 125.608L717.471 122.825C723.172 120.127 725.564 116.819 726.065 111.985H718.741V109.251H729.654ZM757.901 106.956V119.578H754.385V106.956H757.901ZM757.901 120.53V129.1H742.764V120.53H757.901ZM746.207 123.289V126.292H754.458V123.289H746.207ZM747.867 109.91C747.842 112.498 749.258 115.037 752.969 116.136L751.285 118.821C748.746 118.101 747.049 116.648 746.06 114.769C745.035 116.819 743.265 118.443 740.616 119.236L738.907 116.478C742.789 115.354 744.205 112.547 744.205 109.91V107.762H747.867V109.91ZM778.726 106.956V112.474H781.436V115.379H778.726V120.945H775.21V106.956H778.726ZM771.084 121.238C775.845 121.238 778.775 122.728 778.799 125.315C778.775 127.806 775.845 129.368 771.084 129.344C766.299 129.368 763.321 127.806 763.321 125.315C763.321 122.728 766.299 121.238 771.084 121.238ZM771.084 123.875C768.252 123.875 766.788 124.314 766.812 125.315C766.788 126.243 768.252 126.683 771.084 126.707C773.843 126.683 775.308 126.243 775.308 125.315C775.308 124.314 773.843 123.875 771.084 123.875ZM760.611 117.503C762.112 117.503 763.846 117.503 765.665 117.454V116.062C763.296 115.562 761.734 113.975 761.734 111.888C761.734 109.349 764.078 107.542 767.398 107.542C770.694 107.542 773.038 109.349 773.062 111.888C773.038 113.951 771.524 115.525 769.205 116.062V117.332C770.853 117.247 772.488 117.112 774.014 116.917L774.332 119.31C769.766 120.115 764.712 120.188 760.953 120.213L760.611 117.503ZM767.398 110.154C765.933 110.154 764.981 110.716 765.005 111.888C764.981 113.06 765.933 113.719 767.398 113.719C768.814 113.719 769.766 113.06 769.766 111.888C769.766 110.716 768.814 110.154 767.398 110.154ZM806.192 116.819V119.578H799.82V124.021H808.365V126.878H787.881V124.021H796.353V119.578H790.225V108.445H806.045V111.229H793.741V116.819H806.192ZM820.303 108.47V115.843H813.809V118.016C816.604 117.991 818.655 117.857 820.914 117.454L821.304 120.286C818.448 120.774 815.909 120.848 812.051 120.848H810.293V113.255H816.763V111.253H810.293V108.47H820.303ZM828.458 106.956V123.509H824.966V118.089H821.524V115.281H824.966V113.011H821.524V110.228H824.966V106.956H828.458ZM828.995 126.121V128.978H813.296V122.215H816.788V126.121H828.995ZM849.893 106.932V119.456H846.402V106.932H849.893ZM835.855 108.226V115.623C839.151 115.586 841.873 115.354 844.693 114.744L845.083 117.576C841.714 118.309 838.394 118.553 834.317 118.577H832.339V108.226H835.855ZM849.893 120.335V129.075H834.805V120.335H849.893ZM838.248 123.069V126.341H846.451V123.069H838.248ZM865.127 108.86V111.619H852.774V108.86H857.364V106.736H860.879V108.86H865.127ZM859.073 112.254C862.173 112.254 864.444 113.987 864.468 116.478C864.444 118.968 862.173 120.652 859.073 120.652C855.972 120.652 853.775 118.968 853.775 116.478C853.775 113.987 855.972 112.254 859.073 112.254ZM859.073 114.866C857.852 114.866 857.046 115.403 857.046 116.478C857.046 117.552 857.852 118.064 859.073 118.064C860.318 118.064 861.197 117.552 861.197 116.478C861.197 115.403 860.318 114.866 859.073 114.866ZM871.67 106.932V121.141H868.179V119.017H865.396V116.209H868.179V114.5H865.469V111.692H868.179V106.932H871.67ZM864.004 121.434C868.79 121.434 871.768 122.898 871.792 125.389C871.768 127.854 868.79 129.368 864.004 129.344C859.195 129.368 856.192 127.854 856.192 125.389C856.192 122.898 859.195 121.434 864.004 121.434ZM864.004 124.07C861.319 124.095 859.903 124.461 859.903 125.389C859.903 126.292 861.319 126.707 864.004 126.707C866.617 126.707 868.008 126.292 868.008 125.389C868.008 124.461 866.617 124.095 864.004 124.07ZM879.874 116.38L882.046 109.324H884.903L883.731 116.38H879.874ZM885.562 116.38L887.735 109.324H890.591L889.419 116.38H885.562Z" fill="black"/>
<defs>
<filter id="filter0_d_444_9" x="397.109" y="0" width="709.892" height="560" filterUnits="userSpaceOnUse" color-interpolation-filters="sRGB">
<feFlood flood-opacity="0" result="BackgroundImageFix"/>
<feColorMatrix in="SourceAlpha" type="matrix" values="0 0 0 0 0 0 0 0 0 0 0 0 0 0 0 0 0 0 127 0" result="hardAlpha"/>
<feOffset dy="4"/>
<feGaussianBlur stdDeviation="2"/>
<feComposite in2="hardAlpha" operator="out"/>
<feColorMatrix type="matrix" values="0 0 0 0 0 0 0 0 0 0 0 0 0 0 0 0 0 0 0.25 0"/>
<feBlend mode="normal" in2="BackgroundImageFix" result="effect1_dropShadow_444_9"/>
<feBlend mode="normal" in="SourceGraphic" in2="effect1_dropShadow_444_9" result="shape"/>
</filter>
</defs>
</svg>
