<svg width="305" height="77" viewBox="0 0 305 77" fill="none" xmlns="http://www.w3.org/2000/svg">
<rect x="0.5" y="0.5" width="304" height="76" rx="14.5" fill="white" stroke="black"/>
<path d="M92.4287 27.1025V35.4766H95.8223V37.6982H92.4287V49.1973H89.7188V27.1025H92.4287ZM86.374 29.2021V31.3994H78.7568V41.5312C82.187 41.5312 84.897 41.3604 87.9365 40.8232L88.2539 43.1182C84.8359 43.7041 81.8574 43.8018 77.8779 43.8018H76.0469V29.2021H86.374ZM105.1 32.4004C105.075 36.4531 107.199 40.5059 110.788 42.0439L109.177 44.2168C106.638 43.0449 104.77 40.7012 103.757 37.8203C102.744 40.9331 100.852 43.4722 98.166 44.7295L96.5059 42.459C100.192 40.8721 102.341 36.6484 102.341 32.4004V28.8848H105.1V32.4004ZM115.109 27.1025V49.1973H112.375V27.1025H115.109ZM133.273 29.6416V31.79H127.609V35.5742H132.346V37.6738H127.609V41.9463C130.234 41.9219 132.041 41.7998 134.201 41.4336L134.445 43.6064C131.906 44.0947 129.807 44.1436 126.462 44.1436H125.021V29.6416H133.273ZM143.332 27.1025V49.1729H140.695V27.1025H143.332ZM138.693 27.542V48.0986H136.154V37.4541H133.42V35.2568H136.154V27.542H138.693ZM157.297 30.1299C157.297 33.5479 160.642 36.9658 165.256 37.7715L164.035 40.042C160.336 39.2607 157.309 37.0269 155.881 34.0605C154.416 37.0024 151.389 39.2485 147.702 40.042L146.506 37.7715C151.071 36.9414 154.392 33.5234 154.416 30.1299V28.4941H157.297V30.1299ZM166.062 44.1191V46.3652H145.896V44.1191H166.062ZM185.446 38.6748V40.8232H169.968V28.8359H185.251V31.0332H172.727V33.6943H184.738V35.8184H172.727V38.6748H185.446ZM187.668 44.2656V46.4873H167.502V44.2656H187.668ZM206.394 27.1025V35.8916H209.787V38.1377H206.394V49.1729H203.708V27.1025H206.394ZM201.999 30.4961V32.6689H188.986V30.4961H194.211V27.4199H196.921V30.4961H201.999ZM195.578 34.1094C198.752 34.1094 201.12 36.2578 201.12 39.3096C201.12 42.3613 198.752 44.4854 195.578 44.4854C192.355 44.4854 189.987 42.3613 190.012 39.3096C189.987 36.2578 192.355 34.1094 195.578 34.1094ZM195.578 36.3311C193.845 36.3311 192.6 37.5029 192.6 39.3096C192.6 41.1162 193.845 42.2637 195.578 42.2393C197.263 42.2637 198.508 41.1162 198.532 39.3096C198.508 37.5029 197.263 36.3311 195.578 36.3311ZM229.147 27.1025V49.1729H226.413V27.1025H229.147ZM222.556 29.4463C222.556 36.0137 220.017 41.6045 212.277 45.2666L210.861 43.0938C216.635 40.3472 219.321 36.6118 219.797 31.5947H211.984V29.4463H222.556Z" fill="#222222"/>
</svg>
