<svg width="327" height="51" viewBox="0 0 327 51" fill="none" xmlns="http://www.w3.org/2000/svg">
<rect x="70" width="188" height="51" rx="15" fill="#222222" fill-opacity="0.5"/>
<rect x="70.5" y="0.5" width="187" height="50" rx="14.5" stroke="#222222" stroke-opacity="0.5"/>
<path d="M107.68 19.6211C107.66 22.0234 109.066 24.2109 111.84 25.0898L110.668 26.7891C108.744 26.1152 107.396 24.8359 106.645 23.1562C105.863 25.0801 104.389 26.5938 102.25 27.3359L101.098 25.5781C104.027 24.6211 105.492 22.2578 105.492 19.7188V18.0391H107.68V19.6211ZM116 17.082V27.4727H113.832V22.2773H110.316V20.5H113.832V17.082H116ZM110.023 27.9414C113.773 27.9414 116.059 29.1914 116.059 31.3398C116.059 33.4883 113.773 34.7188 110.023 34.7188C106.293 34.7188 104.008 33.4883 104.027 31.3398C104.008 29.1914 106.293 27.9414 110.023 27.9414ZM110.023 29.6211C107.562 29.6211 106.176 30.2266 106.176 31.3398C106.176 32.4141 107.562 33.0195 110.023 33.0195C112.484 33.0195 113.891 32.4141 113.891 31.3398C113.891 30.2266 112.484 29.6211 110.023 29.6211ZM134.828 19.8359V21.6133H132.426V23.625H134.828V25.4023H132.426V28.3516H130.258V17.082H132.426V19.8359H134.828ZM126.723 28.5078C130.336 28.5078 132.621 29.6602 132.621 31.6133C132.621 33.5469 130.336 34.7188 126.723 34.7188C123.051 34.7188 120.805 33.5469 120.824 31.6133C120.805 29.6602 123.051 28.5078 126.723 28.5078ZM126.723 30.168C124.301 30.168 122.953 30.6367 122.973 31.6133C122.953 32.5508 124.301 33.0781 126.723 33.0781C129.105 33.0781 130.453 32.5508 130.453 31.6133C130.453 30.6367 129.105 30.168 126.723 30.168ZM128.988 18.8789V20.5781H118.52V18.8789H122.68V16.9648H124.848V18.8789H128.988ZM123.754 21.2812C126.312 21.2812 128.051 22.5508 128.07 24.4453C128.051 26.3398 126.312 27.5898 123.754 27.5898C121.176 27.5898 119.418 26.3398 119.418 24.4453C119.418 22.5508 121.176 21.2812 123.754 21.2812ZM123.754 22.8828C122.406 22.8828 121.527 23.4688 121.527 24.4453C121.527 25.4023 122.406 25.9492 123.754 25.9492C125.102 25.9492 126 25.4023 126 24.4453C126 23.4688 125.102 22.8828 123.754 22.8828ZM155.844 17.082V34.7383H153.773V25.793H151.957V33.8789H149.906V17.3945H151.957V23.9961H153.773V17.082H155.844ZM146.02 21.5938C146.02 24.7383 147.074 27.6289 149.691 28.9766L148.422 30.6367C146.742 29.7383 145.639 28.1855 145.023 26.2617C144.418 28.459 143.314 30.2266 141.566 31.2617L140.238 29.6016C142.855 28.1172 143.91 25.0312 143.91 21.5938V20.7539H140.766V19.0156H148.91V20.7539H146.02V21.5938ZM166.957 18.1562C166.938 22.707 163.949 25.8906 158.812 27.3359L157.934 25.6367C161.889 24.5527 164.232 22.4922 164.633 19.9141H158.891V18.1562H166.957ZM172.602 17.1016V27.043H170.434V23.1953H167.035V21.418H170.434V17.1016H172.602ZM172.602 27.7461V34.5039H160.98V27.7461H172.602ZM163.109 29.4648V32.7852H170.453V29.4648H163.109ZM181.41 21.3203C181.391 24.4648 182.973 27.668 185.707 28.9766L184.379 30.7148C182.465 29.748 181.088 27.8828 180.336 25.6367C179.564 28.0391 178.119 30.0312 176.098 31.0469L174.77 29.3086C177.602 27.9609 179.223 24.582 179.242 21.3203V18.5078H181.41V21.3203ZM188.93 17.082V23.9961H191.645V25.8516H188.93V34.7383H186.762V17.082H188.93ZM206.215 17.082V24.1133H208.93V25.9102H206.215V34.7383H204.066V17.082H206.215ZM202.699 19.7969V21.5352H192.289V19.7969H196.469V17.3359H198.637V19.7969H202.699ZM197.562 22.6875C200.102 22.6875 201.996 24.4062 201.996 26.8477C201.996 29.2891 200.102 30.9883 197.562 30.9883C194.984 30.9883 193.09 29.2891 193.109 26.8477C193.09 24.4062 194.984 22.6875 197.562 22.6875ZM197.562 24.4648C196.176 24.4648 195.18 25.4023 195.18 26.8477C195.18 28.293 196.176 29.2109 197.562 29.1914C198.91 29.2109 199.906 28.293 199.926 26.8477C199.906 25.4023 198.91 24.4648 197.562 24.4648ZM224.418 17.082V34.7383H222.23V17.082H224.418ZM219.145 18.957C219.145 24.2109 217.113 28.6836 210.922 31.6133L209.789 29.875C214.408 27.6777 216.557 24.6895 216.938 20.6758H210.688V18.957H219.145Z" fill="white" fill-opacity="0.9"/>
</svg>
