<svg width="492" height="85" viewBox="0 0 492 85" fill="none" xmlns="http://www.w3.org/2000/svg">
<g filter="url(#filter0_d_1270_2)">
<rect width="484" height="77" rx="15" fill="#F4F4F4"/>
</g>
<path fill-rule="evenodd" clip-rule="evenodd" d="M458.281 40.2808C458.395 40.2191 458.502 40.1401 458.598 40.0438C459.134 39.508 459.134 38.6393 458.598 38.1035L448.897 28.4019C448.361 27.866 447.492 27.866 446.956 28.4019C446.42 28.9377 446.42 29.8064 446.956 30.3422L455.688 39.0737L446.402 48.3595C445.866 48.8953 445.866 49.764 446.402 50.2998C446.938 50.8356 447.806 50.8356 448.342 50.2998L458.044 40.5982C458.14 40.5018 458.219 40.3947 458.281 40.2808Z" fill="#A4A4A4"/>
<path d="M83.6484 30.8047C83.6484 34.0859 86.8594 37.3672 91.2891 38.1406L90.1172 40.3203C86.5664 39.5703 83.6602 37.4258 82.2891 34.5781C80.8828 37.4023 77.9766 39.5586 74.4375 40.3203L73.2891 38.1406C77.6719 37.3438 80.8594 34.0625 80.8828 30.8047V29.2344H83.6484V30.8047ZM92.0625 44.2344V46.3906H72.7031V44.2344H92.0625ZM110.625 29.8672V32.3984C110.625 35.4688 110.625 38.3984 109.688 42.875L107.086 42.6406C107.52 40.7891 107.766 39.1602 107.906 37.6484L95.4141 38.3047L95.0625 36.1953L108.023 35.7031C108.07 34.5664 108.07 33.4766 108.07 32.3984V31.9766H95.6953V29.8672H110.625ZM112.758 44.2578V46.3906H93.4453V44.2578H112.758ZM132.305 27.9219V39.6641H129.82V34.8125H127.617V39.5H125.18V28.2734H127.617V32.75H129.82V27.9219H132.305ZM120.586 40.5781V42.5703H129.727V40.5781H132.305V48.8281H118.008V40.5781H120.586ZM120.586 46.7188H129.727V44.6094H120.586V46.7188ZM123.117 29.0703V34.8828H117.609V36.9219C120.07 36.8984 121.945 36.8164 124.102 36.3828L124.336 38.4688C121.781 38.9375 119.625 39.0312 116.531 39.0312H115.078V32.9609H120.609V31.1328H115.055V29.0703H123.117ZM157.477 28.7656V36.125H151.57V38.3516H159.938V40.4609H140.625V38.3516H148.945V36.125H143.062V28.7656H157.477ZM145.594 30.8047V34.0625H154.898V30.8047H145.594ZM157.57 42.2422V49.0859H154.969V44.3047H142.758V42.2422H157.57ZM180.703 39.3594V41.4688H161.344V39.3594H169.734V37.6016H163.805V31.9766H175.711V30.4062H163.734V28.3672H178.312V33.875H166.383V35.5625H178.734V37.6016H172.312V39.3594H180.703ZM178.43 42.8047V48.9453H175.805V44.8672H163.5V42.8047H178.43Z" fill="#222222"/>
<defs>
<filter id="filter0_d_1270_2" x="0" y="0" width="492" height="85" filterUnits="userSpaceOnUse" color-interpolation-filters="sRGB">
<feFlood flood-opacity="0" result="BackgroundImageFix"/>
<feColorMatrix in="SourceAlpha" type="matrix" values="0 0 0 0 0 0 0 0 0 0 0 0 0 0 0 0 0 0 127 0" result="hardAlpha"/>
<feOffset dx="4" dy="4"/>
<feGaussianBlur stdDeviation="2"/>
<feComposite in2="hardAlpha" operator="out"/>
<feColorMatrix type="matrix" values="0 0 0 0 0 0 0 0 0 0 0 0 0 0 0 0 0 0 0.25 0"/>
<feBlend mode="normal" in2="BackgroundImageFix" result="effect1_dropShadow_1270_2"/>
<feBlend mode="normal" in="SourceGraphic" in2="effect1_dropShadow_1270_2" result="shape"/>
</filter>
</defs>
</svg>
