<svg width="397" height="77" viewBox="0 0 397 77" fill="none" xmlns="http://www.w3.org/2000/svg">
<path d="M0 15C0 6.71573 6.71573 0 15 0H397V77H15C6.71573 77 0 70.2843 0 62V15Z" fill="#F4F4F4"/>
<path d="M83.6484 32.8047C83.6484 36.0859 86.8594 39.3672 91.2891 40.1406L90.1172 42.3203C86.5664 41.5703 83.6602 39.4258 82.2891 36.5781C80.8828 39.4023 77.9766 41.5586 74.4375 42.3203L73.2891 40.1406C77.6719 39.3438 80.8594 36.0625 80.8828 32.8047V31.2344H83.6484V32.8047ZM92.0625 46.2344V48.3906H72.7031V46.2344H92.0625ZM110.625 31.8672V34.3984C110.625 37.4688 110.625 40.3984 109.688 44.875L107.086 44.6406C107.52 42.7891 107.766 41.1602 107.906 39.6484L95.4141 40.3047L95.0625 38.1953L108.023 37.7031C108.07 36.5664 108.07 35.4766 108.07 34.3984V33.9766H95.6953V31.8672H110.625ZM112.758 46.2578V48.3906H93.4453V46.2578H112.758ZM132.305 29.9219V41.6641H129.82V36.8125H127.617V41.5H125.18V30.2734H127.617V34.75H129.82V29.9219H132.305ZM120.586 42.5781V44.5703H129.727V42.5781H132.305V50.8281H118.008V42.5781H120.586ZM120.586 48.7188H129.727V46.6094H120.586V48.7188ZM123.117 31.0703V36.8828H117.609V38.9219C120.07 38.8984 121.945 38.8164 124.102 38.3828L124.336 40.4688C121.781 40.9375 119.625 41.0312 116.531 41.0312H115.078V34.9609H120.609V33.1328H115.055V31.0703H123.117ZM157.477 30.7656V38.125H151.57V40.3516H159.938V42.4609H140.625V40.3516H148.945V38.125H143.062V30.7656H157.477ZM145.594 32.8047V36.0625H154.898V32.8047H145.594ZM157.57 44.2422V51.0859H154.969V46.3047H142.758V44.2422H157.57ZM180.703 41.3594V43.4688H161.344V41.3594H169.734V39.6016H163.805V33.9766H175.711V32.4062H163.734V30.3672H178.312V35.875H166.383V37.5625H178.734V39.6016H172.312V41.3594H180.703ZM178.43 44.8047V50.9453H175.805V46.8672H163.5V44.8047H178.43Z" fill="#888888"/>
</svg>
