<svg width="356" height="77" viewBox="0 0 356 77" fill="none" xmlns="http://www.w3.org/2000/svg">
<rect x="0.5" y="0.5" width="355" height="76" rx="14.5" fill="white" stroke="black"/>
<path d="M46.4819 35.623V37.8447H43.2104V49.124H40.5005V27.1025H43.2104V35.623H46.4819ZM29.3921 29.251V41.4336C32.334 41.3848 35.4712 41.1284 38.7915 40.4326L39.0845 42.7275C35.3735 43.46 31.8335 43.6797 28.562 43.6797H26.7065V29.251H29.3921ZM58.7378 29.0068V39.4316H48.2886V29.0068H58.7378ZM50.9497 31.1797V37.2832H56.0767V31.1797H50.9497ZM64.939 27.1025V33.5723H68.0151V35.8428H64.939V43.2158H62.229V27.1025H64.939ZM65.8179 46.5361V48.7334H50.8032V41.6533H53.5132V46.5361H65.8179ZM76.2915 28.6406C79.7827 28.6162 82.3462 30.8379 82.3706 33.9629C82.3462 37.1123 79.7827 39.3096 76.2915 39.3096C72.8247 39.3096 70.2368 37.1123 70.2368 33.9629C70.2368 30.8379 72.8247 28.6162 76.2915 28.6406ZM76.2915 30.9844C74.3628 30.9844 72.9224 32.1318 72.9224 33.9629C72.9224 35.8184 74.3628 36.9414 76.2915 36.9414C78.2446 36.9414 79.7095 35.8184 79.7095 33.9629C79.7095 32.1318 78.2446 30.9844 76.2915 30.9844ZM87.522 27.1025V49.1973H84.812V27.1025H87.522ZM69.2358 42.3613C73.2153 42.3613 78.7329 42.3125 83.4937 41.6289L83.7134 43.6064C78.7573 44.5586 73.4595 44.583 69.5776 44.583L69.2358 42.3613ZM114.5 34.2314V36.4287H99.1675V28.1523H101.877V34.2314H114.5ZM116.794 39.1387V41.3359H111.96V49.1729H109.226V41.3359H104.246V49.1729H101.536V41.3359H96.6772V39.1387H116.794ZM129.685 30.1299C129.685 33.5479 133.03 36.9658 137.644 37.7715L136.423 40.042C132.725 39.2607 129.697 37.0269 128.269 34.0605C126.804 37.0024 123.777 39.2485 120.09 40.042L118.894 37.7715C123.459 36.9414 126.78 33.5234 126.804 30.1299V28.4941H129.685V30.1299ZM138.45 44.1191V46.3652H118.284V44.1191H138.45ZM164.988 27.1025V49.1729H162.4V27.1025H164.988ZM160.593 27.5664V48.0742H158.005V37.6738H155.564V35.2568H158.005V27.5664H160.593ZM156.125 29.7148V31.9121H154.563V41.4336C155.259 41.3726 155.918 41.2993 156.541 41.2139L156.711 43.1914C153.245 43.8994 148.704 43.9727 145.896 43.9727L145.579 41.7266L147.581 41.7021V31.9121H146.018V29.7148H156.125ZM150.022 41.6533L152.073 41.5801V31.9121H150.022V41.6533ZM185.789 27.1025V49.1973H183.054V27.1025H185.789ZM173.899 28.7139C177.219 28.7139 179.636 31.7412 179.661 36.502C179.636 41.3115 177.219 44.3145 173.899 44.3145C170.554 44.3145 168.137 41.3115 168.137 36.502C168.137 31.7412 170.554 28.7139 173.899 28.7139ZM173.899 31.1553C172.019 31.1553 170.75 33.1328 170.75 36.502C170.75 39.8955 172.019 41.873 173.899 41.873C175.754 41.873 177.024 39.8955 177.024 36.502C177.024 33.1328 175.754 31.1553 173.899 31.1553ZM197.361 33.377C197.361 36.9902 199.485 40.7988 203.049 42.2881L201.56 44.4365C198.948 43.3135 197.043 40.9941 196.042 38.1865C195.017 41.2139 193.088 43.7529 190.5 44.9736L188.938 42.8496C192.429 41.2383 194.602 37.1367 194.602 33.377V31.5215H189.744V29.2754H202.195V31.5215H197.361V33.377ZM207.395 27.1025V49.1729H204.661V27.1025H207.395ZM227.781 29.0068V39.4316H217.332V29.0068H227.781ZM219.993 31.1797V37.2832H225.12V31.1797H219.993ZM233.982 27.1025V33.5723H237.058V35.8428H233.982V43.2158H231.272V27.1025H233.982ZM234.861 46.5361V48.7334H219.846V41.6533H222.556V46.5361H234.861ZM258.323 35.9404V38.0889H238.181V35.9404H258.323ZM255.93 32.376V34.5244H240.745V27.6641H255.735V29.8369H243.455V32.376H255.93ZM255.784 39.6025V45.1445H243.235V46.8291H256.394V48.9531H240.574V43.1914H253.123V41.6533H240.549V39.6025H255.784ZM278.269 27.1025V49.1973H275.559V37.4541H271.775V35.2324H275.559V27.1025H278.269ZM270.505 29.0312V37.1123H263.279V41.751C266.55 41.7388 269.199 41.6289 272.166 41.0918L272.385 43.3135C269.089 43.8994 266.16 44.0215 262.351 44.0215H260.593V34.915H267.844V31.2285H260.52V29.0312H270.505ZM304.612 27.1025V35.7207H307.883V37.9912H304.612V49.124H301.902V27.1025H304.612ZM298.777 29.3975C298.777 35.8916 296.091 41.5801 288.743 45.1934L287.205 43.0938C292.576 40.4204 295.481 36.6606 296.042 31.6436H288.401V29.3975H298.777ZM327.366 27.1025V49.1729H324.631V27.1025H327.366ZM320.774 29.4463C320.774 36.0137 318.235 41.6045 310.496 45.2666L309.08 43.0938C314.854 40.3472 317.539 36.6118 318.015 31.5947H310.203V29.4463H320.774Z" fill="#222222"/>
</svg>
