<svg width="195" height="54" viewBox="0 0 195 54" fill="none" xmlns="http://www.w3.org/2000/svg">
<rect x="13" width="169" height="54" rx="10" fill="#CFCFCF"/>
<path d="M58.1934 18.2188V35.582H56.6504V18.2188H58.1934ZM53.0566 20.1133C53.0371 25.1133 50.7129 29.5273 44.8926 32.3203L44.0527 31.0703C48.75 28.8438 51.1426 25.5137 51.4941 21.3633H44.8535V20.1133H53.0566ZM66.9434 22.8867C66.9434 25.9531 68.9746 29.0977 71.4355 30.3086L70.498 31.5391C68.584 30.5332 66.9824 28.4824 66.2207 26.0703C65.4395 28.6387 63.7988 30.8262 61.8457 31.8711L60.8691 30.6406C63.4082 29.3906 65.4199 26.0508 65.4395 22.8867V19.7227H66.9434V22.8867ZM74.5605 18.2188V25.2695H77.4707V26.5977H74.5605V35.582H73.0371V18.2188H74.5605ZM91.2793 29.1953C95.0098 29.1953 97.373 30.3672 97.373 32.3789C97.373 34.3711 95.0098 35.543 91.2793 35.543C87.5684 35.543 85.2051 34.3711 85.2051 32.3789C85.2051 30.3672 87.5684 29.1953 91.2793 29.1953ZM91.2793 30.3672C88.5059 30.3867 86.709 31.1484 86.7285 32.3789C86.709 33.5898 88.5059 34.332 91.2793 34.332C94.0527 34.332 95.8301 33.5898 95.8496 32.3789C95.8301 31.1484 94.0527 30.3867 91.2793 30.3672ZM97.2363 19.1172V20.582C97.2363 21.9883 97.2363 23.3945 96.748 25.1914L95.2441 25.0156C95.7129 23.2188 95.7129 21.9492 95.7129 20.582V20.3672H85.3223V19.1172H97.2363ZM99.248 26.3242V27.5742H83.4473V26.3242H89.9902V22.9648H91.4941V26.3242H99.248ZM116.592 28.5312V29.7812H109.346V35.582H107.842V29.7812H100.693V28.5312H116.592ZM104.248 18.9414V21.3438H112.998V18.9414H114.541V26.4219H102.725V18.9414H104.248ZM104.248 25.1719H112.998V22.5938H104.248V25.1719ZM131.436 18.2188V25.3867H134.346V26.6562H131.436V35.582H129.912V18.2188H131.436ZM128.232 21.0117V22.2812H117.9V21.0117H122.373V18.4336H123.896V21.0117H128.232ZM123.154 23.7266C125.615 23.7266 127.393 25.3672 127.412 27.7109C127.393 30.0547 125.615 31.6953 123.154 31.6953C120.674 31.6953 118.877 30.0547 118.896 27.7109C118.877 25.3672 120.674 23.7266 123.154 23.7266ZM123.154 25.0156C121.533 25.0156 120.342 26.1484 120.361 27.7109C120.342 29.293 121.533 30.4062 123.154 30.3867C124.756 30.4062 125.928 29.293 125.947 27.7109C125.928 26.1484 124.756 25.0156 123.154 25.0156ZM149.639 18.2188V35.582H148.096V18.2188H149.639ZM144.502 20.1133C144.482 25.1133 142.158 29.5273 136.338 32.3203L135.498 31.0703C140.195 28.8438 142.588 25.5137 142.939 21.3633H136.299V20.1133H144.502Z" fill="#222222"/>
</svg>
