<svg width="72" height="18" viewBox="0 0 72 18" fill="none" xmlns="http://www.w3.org/2000/svg">
<circle cx="1.5" cy="8.5" r="1.5" fill="#222222" fill-opacity="0.7"/>
<circle cx="8.5" cy="8.5" r="1.5" fill="#222222" fill-opacity="0.7"/>
<circle cx="15.5" cy="8.5" r="1.5" fill="#222222" fill-opacity="0.7"/>
<path d="M35.1182 3.99707V5.09277H29.6562V12.6133C32.3125 12.6133 34.0723 12.522 36.1143 12.1318L36.2803 13.2109C34.1055 13.626 32.3125 13.7256 29.4736 13.7256H28.3447V3.99707H35.1182ZM39.8496 2.58594V17.3779H38.5381V9.04395H34.2383V7.96484H38.5381V2.58594H39.8496ZM55.8037 14.373V15.4521H42.29V14.373H48.3662V11.1855H43.8838V3.63184H45.1953V6.30469H52.8652V3.63184H54.1436V11.1855H49.6445V14.373H55.8037ZM45.1953 10.123H52.8652V7.36719H45.1953V10.123ZM69.1846 2.58594V17.3447H67.873V2.58594H69.1846ZM64.8184 4.19629C64.8018 8.44629 62.8262 12.1982 57.8789 14.5723L57.165 13.5098C61.1577 11.6172 63.1914 8.78662 63.4902 5.25879H57.8457V4.19629H64.8184Z" fill="#222222" fill-opacity="0.7"/>
</svg>
