<svg width="23" height="26" viewBox="0 0 42 47" fill="none" xmlns="http://www.w3.org/2000/svg">
    <path d="M20.6627 0C9.25045 0 0 9.25045 0 20.6627C0 32.075 8.53979 40.5909 19.331 41.2777C19.331 41.2777 20.6687 41.63 20.6687 42.6751V45.3983C20.6687 46.4851 21.7257 47.2555 22.7589 46.9211C28.0081 45.2311 41.3314 39.1158 41.3314 20.6567C41.3195 9.25045 32.069 0 20.6627 0Z" fill="#222222"/>
    <path d="M14.7213 32C14.5373 32 14.3763 31.908 14.3303 31.724L8.39627 15.532C8.30427 15.302 8.41927 15.118 8.69527 15.118H12.8353C13.0423 15.118 13.2033 15.21 13.2493 15.417L16.2623 24.893L19.2063 15.417C19.2753 15.21 19.4133 15.118 19.6203 15.118H22.4723C22.6563 15.118 22.7943 15.21 22.8633 15.417L26.0373 24.916L28.8203 15.417C28.8893 15.21 29.0273 15.118 29.2343 15.118H33.3053C33.5583 15.118 33.6963 15.302 33.6043 15.532L27.6703 31.724C27.6013 31.908 27.4633 32 27.2563 32H24.3813C24.1973 32 24.0593 31.908 23.9903 31.701L21.0003 22.041L17.9873 31.701C17.9413 31.908 17.8033 32 17.5963 32H14.7213Z" fill="#E9E9E9"/>
</svg>