<svg width="401.6" height="53" viewBox="0 0 502 66" fill="none" xmlns="http://www.w3.org/2000/svg">
<rect x="0.5" y="0.5" width="501" height="65" rx="9.5" fill="white" stroke="#222222"/>
<path d="M227.403 22.1025V44.1729H224.693V22.1025H227.403ZM209.117 38.0449C210.875 38.0327 212.865 38.0327 214.952 37.9717V35.9453C212.462 35.5547 210.851 34.0288 210.851 31.9414C210.851 29.4512 213.048 27.791 216.271 27.791C219.518 27.791 221.764 29.4512 221.764 31.9414C221.764 34.0166 220.14 35.5303 217.662 35.9209V37.874C219.603 37.7886 221.556 37.6299 223.399 37.3857L223.595 39.4121C218.736 40.2422 213.487 40.291 209.508 40.291L209.117 38.0449ZM223.009 24.6416V26.79H209.581V24.6416H214.952V22.1758H217.662V24.6416H223.009ZM216.271 29.8662C214.61 29.8906 213.414 30.6475 213.438 31.9414C213.414 33.2109 214.61 33.9678 216.271 33.9434C218.004 33.9678 219.151 33.2109 219.151 31.9414C219.151 30.6475 218.004 29.8906 216.271 29.8662ZM249.132 22.127V38.8262H246.397V36.8975H242.076V34.9932H246.397V22.127H249.132ZM249.645 41.5361V43.7334H233.458V37.2148H236.168V41.5361H249.645ZM230.528 32.0391C234.605 32.0146 240.074 31.9658 244.762 31.3799L244.908 33.333C243.089 33.6382 241.209 33.8457 239.342 33.9678V38.2158H236.632V34.1143C234.569 34.1997 232.604 34.2119 230.87 34.2119L230.528 32.0391ZM237.73 22.9326C240.953 22.9326 243.199 24.5195 243.224 26.8389C243.199 29.207 240.953 30.7207 237.73 30.7207C234.459 30.7207 232.213 29.207 232.213 26.8389C232.213 24.5195 234.459 22.9326 237.73 22.9326ZM237.73 24.9346C235.973 24.9346 234.776 25.6426 234.776 26.8389C234.776 28.0352 235.973 28.7432 237.73 28.7432C239.415 28.7432 240.611 28.0352 240.636 26.8389C240.611 25.6426 239.415 24.9346 237.73 24.9346ZM269.518 22.1025V30.7207H272.789V32.9912H269.518V44.124H266.808V22.1025H269.518ZM263.683 24.3975C263.683 30.8916 260.997 36.5801 253.648 40.1934L252.11 38.0938C257.481 35.4204 260.387 31.6606 260.948 26.6436H253.307V24.3975H263.683ZM292.223 22.1025V33.9434H289.488V22.1025H292.223ZM280.309 34.9688V37.2393H289.513V34.9688H292.223V43.9043H277.623V34.9688H280.309ZM280.309 41.707H289.513V39.3633H280.309V41.707ZM280.187 23.0791C283.58 23.0547 286.119 25.1787 286.119 28.2549C286.119 31.2578 283.58 33.3818 280.187 33.3818C276.769 33.3818 274.229 31.2578 274.229 28.2549C274.229 25.1787 276.769 23.0547 280.187 23.0791ZM280.187 25.3496C278.258 25.3496 276.866 26.4727 276.891 28.2549C276.866 30.0127 278.258 31.1357 280.187 31.1602C282.091 31.1357 283.458 30.0127 283.458 28.2549C283.458 26.4727 282.091 25.3496 280.187 25.3496Z" fill="#222222"/>
</svg>
