<svg width="737" height="186" viewBox="0 0 1106 279" fill="none" xmlns="http://www.w3.org/2000/svg">
<path d="M554.127 0C532.517 0 515 17.5168 515 39.1273C515 60.7378 531.171 76.8636 551.605 78.1641C551.605 78.1641 554.139 78.8313 554.139 80.8103V85.9669C554.139 88.0251 556.14 89.4839 558.097 88.8506C568.037 85.6503 593.266 74.0704 593.266 39.116C593.243 17.5168 575.726 0 554.127 0Z" fill="#222222"/>
<path d="M543.58 58C543.26 58 542.98 57.84 542.9 57.52L532.58 29.36C532.42 28.96 532.62 28.64 533.1 28.64H540.3C540.66 28.64 540.94 28.8 541.02 29.16L546.26 45.64L551.38 29.16C551.5 28.8 551.74 28.64 552.1 28.64H557.06C557.38 28.64 557.62 28.8 557.74 29.16L563.26 45.68L568.1 29.16C568.22 28.8 568.46 28.64 568.82 28.64H575.9C576.34 28.64 576.58 28.96 576.42 29.36L566.1 57.52C565.98 57.84 565.74 58 565.38 58H560.38C560.06 58 559.82 57.84 559.7 57.48L554.5 40.68L549.26 57.48C549.18 57.84 548.94 58 548.58 58H543.58Z" fill="#E9E9E9"/>
<path d="M31.1474 208C30.2674 208 29.4974 207.56 29.2774 206.68L0.897437 129.24C0.457437 128.14 1.00744 127.26 2.32744 127.26H22.1274C23.1174 127.26 23.8874 127.7 24.1074 128.69L38.5174 174.01L52.5974 128.69C52.9274 127.7 53.5874 127.26 54.5774 127.26H68.2174C69.0974 127.26 69.7574 127.7 70.0874 128.69L85.2674 174.12L98.5774 128.69C98.9074 127.7 99.5674 127.26 100.557 127.26H120.027C121.237 127.26 121.897 128.14 121.457 129.24L93.0774 206.68C92.7474 207.56 92.0874 208 91.0974 208H77.3474C76.4674 208 75.8074 207.56 75.4774 206.57L61.1774 160.37L46.7674 206.57C46.5474 207.56 45.8874 208 44.8974 208H31.1474ZM134.875 208C133.775 208 133.115 207.34 133.115 206.24V129.02C133.115 127.92 133.775 127.26 134.875 127.26H151.925C153.025 127.26 153.685 127.92 153.685 129.02V157.07H183.495V129.02C183.495 127.92 184.155 127.26 185.255 127.26H202.305C203.295 127.26 204.065 127.92 204.065 129.02V206.24C204.065 207.34 203.295 208 202.305 208H185.255C184.155 208 183.495 207.34 183.495 206.24V176.43H153.685V206.24C153.685 207.34 153.025 208 151.925 208H134.875ZM217.167 208C215.847 208 215.297 207.12 215.737 206.02L247.527 128.58C247.857 127.7 248.627 127.26 249.507 127.26H263.367C264.357 127.26 265.017 127.7 265.347 128.58L297.137 206.02C297.577 207.12 297.027 208 295.817 208H277.337C276.347 208 275.687 207.56 275.357 206.57L270.957 194.14H241.587L237.187 206.57C236.857 207.56 236.197 208 235.207 208H217.167ZM247.417 177.42H265.017L256.107 152.56L247.417 177.42ZM318.497 208C317.397 208 316.737 207.34 316.737 206.24V146.51H293.527C292.427 146.51 291.877 145.85 291.877 144.86V129.02C291.877 127.92 292.427 127.26 293.527 127.26H360.407C361.507 127.26 362.167 127.92 362.167 129.02V144.86C362.167 145.85 361.507 146.51 360.407 146.51H337.307V206.24C337.307 207.34 336.647 208 335.547 208H318.497ZM375.951 160.26C374.741 160.26 374.081 159.38 374.521 158.17L379.471 144.2C375.951 142.66 373.751 139.47 373.751 135.29C373.751 129.68 378.041 125.72 384.091 125.72C390.031 125.72 394.321 129.68 394.321 135.29C394.321 138.7 393.221 142.11 388.711 151.9L385.301 158.94C384.971 159.82 384.201 160.26 383.321 160.26H375.951ZM435.89 209.54C420.6 209.54 409.27 201.95 404.76 188.09C404.43 186.99 404.87 186.22 405.97 185.89L421.26 182.15C422.25 181.93 423.02 182.26 423.46 183.25C425.88 189.08 429.95 191.5 436.44 191.5C441.72 191.5 445.35 189.74 445.35 186C445.35 181.93 441.83 179.95 435.12 177.53L426.76 174.56C414.44 170.27 406.63 162.24 406.63 150.25C406.63 135.84 419.5 125.72 435.56 125.72C449.09 125.72 459.87 131.88 464.38 145.63C464.82 146.73 464.27 147.61 463.28 147.83L447.22 152.12C446.12 152.45 445.46 152.01 445.02 151.02C442.6 145.3 439.3 143.76 435.23 143.76C430.83 143.76 427.53 145.74 427.53 149.15C427.53 152.56 430.5 154.87 438.75 157.62L444.8 159.6C459.1 164.44 466.14 171.7 466.14 185.01C466.14 199.31 453.71 209.54 435.89 209.54ZM542.637 209.54C518.217 209.54 501.827 192.6 501.827 167.63C501.827 142.66 519.427 125.72 542.967 125.72C560.567 125.72 573.437 133.64 578.827 147.72C579.267 148.82 578.827 149.7 577.727 149.92L560.897 154.54C559.907 154.76 559.247 154.43 558.697 153.55C555.507 148.38 549.787 145.52 543.297 145.52C530.977 145.52 523.057 153.77 523.057 167.74C523.057 181.71 531.197 189.85 543.297 189.85C552.647 189.85 559.577 185.56 560.677 177.75H545.167C544.067 177.75 543.407 177.09 543.407 175.99V164.22C543.407 163.12 544.067 162.46 545.167 162.46H579.597C580.587 162.46 581.357 163.12 581.357 164.22V173.68C581.357 193.92 567.717 209.54 542.637 209.54ZM636.274 209.54C612.294 209.54 594.584 192.6 594.584 167.63C594.584 142.66 612.294 125.72 636.274 125.72C660.254 125.72 677.964 142.66 677.964 167.63C677.964 192.6 660.254 209.54 636.274 209.54ZM636.274 189.63C648.484 189.63 656.734 180.61 656.734 167.63C656.734 154.65 648.484 145.63 636.274 145.63C624.064 145.63 615.814 154.65 615.814 167.63C615.814 180.61 624.064 189.63 636.274 189.63ZM695.385 208C694.285 208 693.625 207.34 693.625 206.24V129.02C693.625 127.92 694.285 127.26 695.385 127.26H712.435C713.535 127.26 714.195 127.92 714.195 129.02V206.24C714.195 207.34 713.535 208 712.435 208H695.385ZM733.786 208C732.686 208 732.026 207.34 732.026 206.24V129.02C732.026 127.92 732.686 127.26 733.786 127.26H751.606C752.596 127.26 753.146 127.7 753.696 128.47L782.516 176.43V129.02C782.516 127.92 783.176 127.26 784.276 127.26H800.446C801.546 127.26 802.206 127.92 802.206 129.02V206.24C802.206 207.34 801.546 208 800.446 208H782.736C781.746 208 781.086 207.56 780.646 206.79L751.716 158.61V206.24C751.716 207.34 751.056 208 749.956 208H733.786ZM858.556 209.54C834.136 209.54 817.746 192.6 817.746 167.63C817.746 142.66 835.346 125.72 858.886 125.72C876.486 125.72 889.356 133.64 894.746 147.72C895.186 148.82 894.746 149.7 893.646 149.92L876.816 154.54C875.826 154.76 875.166 154.43 874.616 153.55C871.426 148.38 865.706 145.52 859.216 145.52C846.896 145.52 838.976 153.77 838.976 167.74C838.976 181.71 847.116 189.85 859.216 189.85C868.566 189.85 875.496 185.56 876.596 177.75H861.086C859.986 177.75 859.326 177.09 859.326 175.99V164.22C859.326 163.12 859.986 162.46 861.086 162.46H895.516C896.506 162.46 897.276 163.12 897.276 164.22V173.68C897.276 193.92 883.636 209.54 858.556 209.54ZM977.381 209.54C953.401 209.54 935.691 192.6 935.691 167.63C935.691 142.66 953.401 125.72 977.381 125.72C1001.36 125.72 1019.07 142.66 1019.07 167.63C1019.07 192.6 1001.36 209.54 977.381 209.54ZM977.381 189.63C989.591 189.63 997.841 180.61 997.841 167.63C997.841 154.65 989.591 145.63 977.381 145.63C965.171 145.63 956.921 154.65 956.921 167.63C956.921 180.61 965.171 189.63 977.381 189.63ZM1036.49 208C1035.39 208 1034.73 207.34 1034.73 206.24V129.02C1034.73 127.92 1035.39 127.26 1036.49 127.26H1054.31C1055.3 127.26 1055.85 127.7 1056.4 128.47L1085.22 176.43V129.02C1085.22 127.92 1085.88 127.26 1086.98 127.26H1103.15C1104.25 127.26 1104.91 127.92 1104.91 129.02V206.24C1104.91 207.34 1104.25 208 1103.15 208H1085.44C1084.45 208 1083.79 207.56 1083.35 206.79L1054.42 158.61V206.24C1054.42 207.34 1053.76 208 1052.66 208H1036.49Z" fill="#222222"/>
<path d="M340.748 253.268V254.686H337.654V264.74H335.979V245.641H337.654V253.268H340.748ZM325.344 247.531V258.467C328.137 258.456 330.983 258.241 334.131 257.586L334.346 259.025C331.059 259.691 328.094 259.885 325.193 259.885H323.668V247.531H325.344ZM351.533 247.381V256.168H342.703V247.381H351.533ZM344.357 248.756V254.814H349.9V248.756H344.357ZM356.818 245.641V251.463H359.697V252.881H356.818V259.648H355.143V245.641H356.818ZM357.699 262.914V264.332H344.873V258.316H346.527V262.914H357.699ZM367.152 247.037C370.16 247.037 372.287 248.863 372.287 251.527C372.287 254.191 370.16 256.018 367.152 256.018C364.145 256.018 361.975 254.191 361.996 251.527C361.975 248.863 364.145 247.037 367.152 247.037ZM367.152 248.52C365.111 248.52 363.629 249.744 363.65 251.527C363.629 253.311 365.111 254.535 367.152 254.535C369.172 254.535 370.633 253.311 370.633 251.527C370.633 249.744 369.172 248.52 367.152 248.52ZM376.563 245.641V264.783H374.887V245.641H376.563ZM361.008 259.133C364.531 259.133 369.387 259.111 373.619 258.488L373.748 259.734C369.387 260.551 364.682 260.572 361.244 260.572L361.008 259.133ZM400.797 252.107V253.504H387.648V246.629H389.367V252.107H400.797ZM402.838 256.275V257.672H398.305V264.74H396.629V257.672H391.666V264.74H389.99V257.672H385.436V256.275H402.838ZM413.967 248.455C413.967 251.721 417.705 254.643 421.035 255.266L420.262 256.684C417.383 256.018 414.343 253.966 413.107 251.141C411.872 253.955 408.843 256.007 405.953 256.684L405.18 255.266C408.488 254.621 412.205 251.742 412.205 248.455V246.994H413.967V248.455ZM421.938 260.744V262.141H404.449V260.744H421.938ZM440.951 260.959V262.377H423.463V260.959H431.326V257.35H425.654V251.463H437.084V248.455H425.611V247.059H438.738V252.838H427.33V255.953H439.19V257.35H432.981V260.959H440.951ZM456.635 257.715C460.738 257.715 463.338 259.004 463.338 261.217C463.338 263.408 460.738 264.697 456.635 264.697C452.553 264.697 449.953 263.408 449.953 261.217C449.953 259.004 452.553 257.715 456.635 257.715ZM456.635 259.004C453.584 259.025 451.607 259.863 451.629 261.217C451.607 262.549 453.584 263.365 456.635 263.365C459.686 263.365 461.641 262.549 461.662 261.217C461.641 259.863 459.686 259.025 456.635 259.004ZM463.188 246.629V248.24C463.188 249.787 463.188 251.334 462.65 253.311L460.996 253.117C461.512 251.141 461.512 249.744 461.512 248.24V248.004H450.082V246.629H463.188ZM465.4 254.557V255.932H448.02V254.557H455.217V250.861H456.871V254.557H465.4ZM484.479 256.984V258.359H476.508V264.74H474.854V258.359H466.99V256.984H484.479ZM470.9 246.436V249.078H480.525V246.436H482.223V254.664H469.225V246.436H470.9ZM470.9 253.289H480.525V250.453H470.9V253.289ZM500.807 245.641V253.525H504.008V254.922H500.807V264.74H499.131V245.641H500.807ZM497.283 248.713V250.109H485.918V248.713H490.838V245.877H492.514V248.713H497.283ZM491.697 251.699C494.404 251.699 496.359 253.504 496.381 256.082C496.359 258.66 494.404 260.465 491.697 260.465C488.969 260.465 486.992 258.66 487.014 256.082C486.992 253.504 488.969 251.699 491.697 251.699ZM491.697 253.117C489.914 253.117 488.604 254.363 488.625 256.082C488.604 257.822 489.914 259.047 491.697 259.025C493.459 259.047 494.748 257.822 494.77 256.082C494.748 254.363 493.459 253.117 491.697 253.117ZM520.83 245.641V264.74H519.133V245.641H520.83ZM515.18 247.725C515.158 253.225 512.602 258.08 506.199 261.152L505.275 259.777C510.442 257.328 513.074 253.665 513.461 249.1H506.156V247.725H515.18ZM527.19 261.561L525.514 267.404H523.924L525.106 261.561H527.19ZM550.113 245.662V251.441H552.971V252.859H550.113V259.24H548.416V245.662H550.113ZM545.022 258.596C545.022 261.109 548.008 262.871 551.467 263.344L550.822 264.654C547.922 264.192 545.29 262.936 544.162 260.895C543.023 262.936 540.381 264.192 537.481 264.654L536.857 263.344C540.316 262.871 543.303 261.109 543.303 258.596V257.951H545.022V258.596ZM535.182 255.459C536.675 255.459 538.415 255.448 540.231 255.373V253.59C537.867 253.343 536.299 251.957 536.32 250.002C536.299 247.854 538.232 246.414 541.025 246.393C543.818 246.414 545.752 247.854 545.752 250.002C545.752 251.925 544.227 253.3 541.928 253.568V255.309C543.722 255.212 545.526 255.062 547.191 254.814L547.32 256.018C543.281 256.748 538.705 256.812 535.397 256.812L535.182 255.459ZM541.025 247.682C539.178 247.682 537.889 248.605 537.889 250.002C537.889 251.398 539.178 252.344 541.025 252.344C542.873 252.344 544.162 251.398 544.162 250.002C544.162 248.605 542.873 247.682 541.025 247.682ZM571.705 260.873V262.291H554.217V260.873H571.705ZM563.799 250.109C563.799 253.268 566.957 255.652 570.588 256.297L569.9 257.672C566.882 257.06 564.132 255.405 562.94 252.902C561.726 255.405 558.976 257.06 555.957 257.672L555.291 256.297C558.9 255.652 562.08 253.268 562.08 250.109H555.85V248.734H562.102V246.113H563.756V248.734H570.029V250.109H563.799ZM594.07 247.574V249.486C594.049 251.828 594.049 254.449 593.361 258.295L591.643 258.102C592.373 254.449 592.373 251.764 592.373 249.486V248.971H580.6V247.574H594.07ZM596.154 260.637V262.033H578.752V260.637H585.584V253.805H587.238V260.637H596.154ZM613.535 245.662V257.027H611.859V245.662H613.535ZM607.154 257.414C611.129 257.414 613.578 258.746 613.6 261.045C613.578 263.365 611.129 264.697 607.154 264.697C603.137 264.697 600.709 263.365 600.709 261.045C600.709 258.746 603.137 257.414 607.154 257.414ZM607.154 258.746C604.19 258.746 602.406 259.605 602.406 261.045C602.406 262.484 604.19 263.344 607.154 263.344C610.098 263.344 611.924 262.484 611.924 261.045C611.924 259.605 610.098 258.746 607.154 258.746ZM603.223 246.865C606.123 246.887 608.229 248.691 608.229 251.334C608.229 253.977 606.123 255.76 603.223 255.781C600.322 255.76 598.217 253.977 598.217 251.334C598.217 248.691 600.322 246.887 603.223 246.865ZM603.223 248.326C601.268 248.305 599.85 249.529 599.871 251.334C599.85 253.117 601.268 254.342 603.223 254.363C605.156 254.342 606.574 253.117 606.574 251.334C606.574 249.529 605.156 248.305 603.223 248.326ZM639.703 255.824V257.221H622.301V255.824H630.164V253.826C626.501 253.644 624.234 252.258 624.234 250.002C624.234 247.66 626.856 246.221 631.002 246.221C635.106 246.221 637.748 247.66 637.748 250.002C637.748 252.258 635.46 253.644 631.84 253.826V255.824H639.703ZM637.77 262.914V264.332H624.557V258.768H626.254V262.914H637.77ZM631.002 247.596C627.93 247.596 625.953 248.541 625.975 250.002C625.953 251.549 627.93 252.451 631.002 252.451C634.053 252.451 636.029 251.549 636.029 250.002C636.029 248.541 634.053 247.596 631.002 247.596ZM653.668 251.506C653.668 254.75 656.031 258.037 658.846 259.262L657.9 260.594C655.666 259.573 653.732 257.371 652.852 254.729C651.949 257.532 650.026 259.971 647.846 261.066L646.836 259.734C649.565 258.424 651.949 254.814 651.971 251.506V249.014H647.459V247.617H658.223V249.014H653.668V251.506ZM662.584 245.641V264.74H660.887V245.641H662.584ZM681.039 246.672V248.09C681.039 249.572 681.039 251.312 680.545 253.697H683.338V255.094H665.85V253.697H678.848C679.363 251.302 679.363 249.572 679.363 248.09V248.068H668.063V246.672H681.039ZM681.125 257.736V264.482H667.998V257.736H681.125ZM669.674 259.068V263.107H679.449V259.068H669.674ZM697.174 250.775C697.152 254.256 699.537 257.779 702.352 259.047L701.32 260.379C699.15 259.315 697.271 257.07 696.357 254.342C695.466 257.231 693.586 259.638 691.352 260.766L690.277 259.348C693.113 258.037 695.477 254.406 695.498 250.775V247.295H697.174V250.775ZM706.133 245.641V264.783H704.436V245.641H706.133ZM715.865 249.186C715.865 251.721 717.734 254.041 720.57 255.029L719.711 256.34C717.53 255.566 715.865 253.998 715.049 252.021C714.232 254.191 712.482 255.878 710.236 256.705L709.334 255.395C712.191 254.385 714.19 251.914 714.211 249.186V248.369H709.85V246.994H720.162V248.369H715.865V249.186ZM724.33 245.641V250.689H727.209V252.129H724.33V257.156H722.654V245.641H724.33ZM724.33 258.166V264.74H722.654V259.541H711.826V258.166H724.33ZM743.193 245.641V253.525H746.395V254.922H743.193V264.74H741.518V245.641H743.193ZM739.67 248.713V250.109H728.305V248.713H733.225V245.877H734.9V248.713H739.67ZM734.084 251.699C736.791 251.699 738.746 253.504 738.768 256.082C738.746 258.66 736.791 260.465 734.084 260.465C731.356 260.465 729.379 258.66 729.4 256.082C729.379 253.504 731.356 251.699 734.084 251.699ZM734.084 253.117C732.301 253.117 730.99 254.363 731.012 256.082C730.99 257.822 732.301 259.047 734.084 259.025C735.846 259.047 737.135 257.822 737.156 256.082C737.135 254.363 735.846 253.117 734.084 253.117ZM753.098 251.076C753.098 254.105 754.58 257.393 757.115 258.896L756.148 260.207C754.312 259.09 752.99 257.049 752.324 254.729C751.615 257.264 750.197 259.444 748.285 260.615L747.211 259.348C749.854 257.801 751.465 254.406 751.465 251.141V247.445H753.098V251.076ZM763.797 245.641V264.74H762.164V245.641H763.797ZM759.844 246.049V263.773H758.254V253.934H755.01V252.494H758.254V246.049H759.844ZM783.928 260.873V262.291H766.44V260.873H770.779V255.717C769.147 254.868 768.158 253.493 768.158 251.764C768.158 248.799 771.059 246.865 775.141 246.844C779.223 246.865 782.123 248.799 782.123 251.764C782.123 253.461 781.167 254.825 779.588 255.674V260.873H783.928ZM775.141 248.24C772.004 248.219 769.791 249.637 769.791 251.764C769.791 253.891 772.004 255.33 775.141 255.33C778.256 255.33 780.49 253.891 780.49 251.764C780.49 249.637 778.256 248.219 775.141 248.24ZM772.434 260.873H777.891V256.318C777.064 256.544 776.14 256.662 775.141 256.662C774.163 256.662 773.25 256.555 772.434 256.34V260.873ZM788.547 247.445L788.397 258.617H786.592L786.441 247.445H788.547ZM787.494 263.129C786.742 263.129 786.098 262.506 786.119 261.732C786.098 260.98 786.742 260.357 787.494 260.357C788.246 260.357 788.869 260.98 788.869 261.732C788.869 262.506 788.246 263.129 787.494 263.129Z" fill="#222222"/>
</svg>
