<svg width="940" height="77" viewBox="0 0 940 77" fill="none" xmlns="http://www.w3.org/2000/svg">
<rect x="30.5" y="0.5" width="879" height="76" rx="14.5" fill="current" stroke="black"/>
<path d="M220.671 47H217.278L223.503 29.3242H227.41L233.66 47H230.266L228.801 42.6299H222.136L220.671 47ZM222.991 40.0664H227.947L225.53 32.9375H225.383L222.991 40.0664ZM237.542 47.1953C236.492 47.1953 235.637 46.3408 235.637 45.291C235.637 44.2656 236.492 43.4111 237.542 43.4111C238.542 43.4111 239.421 44.2656 239.421 45.291C239.421 46.3408 238.542 47.1953 237.542 47.1953ZM254.875 41.458C254.875 43.2891 255.718 45.2178 257.61 46.4141C259.526 45.1323 260.417 43.1304 260.442 41.458V40.5547H263.103V41.458C263.079 43.7773 264.446 45.9258 267.351 46.8535L266.033 48.8311C263.884 48.1108 262.456 46.707 261.687 44.9492C260.979 46.6826 259.673 48.2329 257.683 49.0264C255.583 48.2695 254.265 46.7803 253.582 45.0225C252.788 46.7192 251.384 48.0986 249.333 48.8311L247.991 46.8535C250.847 45.8525 252.214 43.6064 252.239 41.458V40.5547H254.875V41.458ZM265.422 27.127V39.627H262.688V27.127H265.422ZM253.386 28.2988C256.78 28.2988 259.319 30.4473 259.319 33.5479C259.319 36.624 256.78 38.7725 253.386 38.7725C249.968 38.7725 247.429 36.624 247.429 33.5479C247.429 30.4473 249.968 28.2988 253.386 28.2988ZM253.386 30.5938C251.458 30.5938 250.066 31.7412 250.09 33.5479C250.066 35.3545 251.458 36.5264 253.386 36.5264C255.291 36.5264 256.658 35.3545 256.658 33.5479C256.658 31.7412 255.291 30.5938 253.386 30.5938ZM285.93 27.1025V35.4766H289.324V37.6982H285.93V49.1973H283.22V27.1025H285.93ZM279.875 29.2021V31.3994H272.258V41.5312C275.688 41.5312 278.398 41.3604 281.438 40.8232L281.755 43.1182C278.337 43.7041 275.359 43.8018 271.379 43.8018H269.548V29.2021H279.875ZM302.727 47.2686C298.87 47.2686 296.379 44.5342 296.379 40.4326C296.379 36.3066 298.87 33.5723 302.727 33.5723C306.609 33.5723 309.075 36.3066 309.075 40.4326C309.075 44.5342 306.609 47.2686 302.727 47.2686ZM302.751 44.7783C304.875 44.7783 305.925 42.8496 305.925 40.4082C305.925 37.9912 304.875 36.0381 302.751 36.0381C300.579 36.0381 299.529 37.9912 299.529 40.4082C299.529 42.8496 300.579 44.7783 302.751 44.7783ZM311.492 47V33.7432H314.519V35.9404H314.666C315.129 34.4268 316.423 33.5479 317.937 33.5479C318.279 33.5479 318.767 33.5723 319.06 33.6211V36.502C318.792 36.4043 318.132 36.3066 317.62 36.3066C315.886 36.3066 314.617 37.5029 314.617 39.1875V47H311.492ZM331.096 40.0176V42.3857H334.001V40.0176H336.516V47.0244C339.104 45.938 340.3 43.7041 340.3 41.6045V39.8467H343.01V41.6045C343.01 43.8994 344.182 46.1211 346.917 47.0488L345.525 49.0752C343.584 48.3794 342.327 47.0366 341.643 45.3643C340.898 46.9878 339.641 48.3306 337.81 49.0752L336.516 47.1465V48.9043H328.557V40.0176H331.096ZM331.096 46.8291H334.001V44.4121H331.096V46.8291ZM332.219 28.0059C335.063 28.0059 337.31 29.5928 337.883 31.9854H341.863V27.1025H344.573V38.7969H341.863V34.2314H337.883C337.346 36.6851 335.076 38.3086 332.219 38.3086C328.826 38.3086 326.384 36.1846 326.384 33.1328C326.384 30.1055 328.826 28.0059 332.219 28.0059ZM332.219 30.252C330.315 30.252 328.972 31.375 328.972 33.1328C328.972 34.915 330.315 36.0869 332.219 36.0869C334.075 36.0869 335.393 34.915 335.417 33.1328C335.393 31.375 334.075 30.252 332.219 30.252ZM356.023 33.377C356.023 36.9902 358.147 40.7988 361.711 42.2881L360.222 44.4365C357.61 43.3135 355.706 40.9941 354.705 38.1865C353.679 41.2139 351.75 43.7529 349.163 44.9736L347.6 42.8496C351.091 41.2383 353.264 37.1367 353.264 33.377V31.5215H348.406V29.2754H360.857V31.5215H356.023V33.377ZM366.057 27.1025V49.1729H363.323V27.1025H366.057ZM380.51 29.0068V39.4316H370.061V29.0068H380.51ZM372.722 31.1797V37.2832H377.849V31.1797H372.722ZM386.711 27.1025V33.5723H389.788V35.8428H386.711V43.2158H384.001V27.1025H386.711ZM387.59 46.5361V48.7334H372.576V41.6533H375.286V46.5361H387.59ZM414.788 36.7949V38.9922H408.269V44.3389H417.009V46.5361H396.843V44.3389H405.535V38.9922H399.163V28.8604H401.946V36.7949H414.788ZM428.997 28.4209V35.0615H422.039V37.7715C425.579 37.7837 427.617 37.6738 429.949 37.2344L430.217 39.4316C427.581 39.8711 425.286 39.9443 420.964 39.9443H419.353V33.0352H426.287V30.5693H419.304V28.4209H428.997ZM436.931 27.127V40.7012H434.221V37.0635H430.315V34.8906H434.221V32.4248H430.315V30.252H434.221V27.127H436.931ZM436.931 41.751V49.1729H434.221V43.9238H421.843V41.751H436.931ZM460.173 38.5039V40.6768H440.056V38.5039H460.173ZM457.903 46.5361V48.7334H442.546V42.3125H445.256V46.5361H457.903ZM450.09 27.8105C454.9 27.8105 458.025 29.4951 458.049 32.2783C458.025 35.0859 454.9 36.7949 450.09 36.7949C445.281 36.7949 442.131 35.0859 442.131 32.2783C442.131 29.4951 445.281 27.8105 450.09 27.8105ZM450.09 29.9834C446.892 29.9834 444.939 30.8135 444.963 32.2783C444.939 33.7676 446.892 34.5977 450.09 34.5732C453.313 34.5977 455.242 33.7676 455.242 32.2783C455.242 30.8135 453.313 29.9834 450.09 29.9834ZM478.362 30.6182V32.791H467.546V30.6182H471.648V27.7373H474.333V30.6182H478.362ZM472.991 33.9629C475.798 33.9629 477.8 36.0869 477.8 39.0898C477.8 42.1416 475.798 44.29 472.991 44.29C470.208 44.29 468.157 42.1416 468.181 39.0898C468.157 36.0869 470.208 33.9629 472.991 33.9629ZM472.991 36.209C471.55 36.209 470.549 37.3564 470.574 39.0898C470.549 40.8721 471.55 41.9951 472.991 41.9707C474.407 41.9951 475.408 40.8721 475.408 39.0898C475.408 37.3564 474.407 36.209 472.991 36.209ZM486.565 27.1025V49.1729H483.977V38.3818H481.829V48.1719H479.29V27.5664H481.829V36.1846H483.977V27.1025H486.565ZM494.5 27.9326V30.3252H504.021V27.9326H506.707V36.8926H500.603V38.9189H509.319V41.1162H489.202V38.9189H497.869V36.8926H491.814V27.9326H494.5ZM494.5 34.7197H504.021V32.4248H494.5V34.7197ZM507.048 46.5361V48.7334H491.692V42.5322H494.402V46.5361H507.048ZM524.846 30.8867C524.846 33.5723 526.628 36.2822 530.046 37.4297L528.679 39.5293C526.213 38.7236 524.468 37.0513 523.503 34.9883C522.539 37.2954 520.696 39.1509 518.083 40.0176L516.692 37.8691C520.208 36.7217 522.087 33.792 522.087 30.9111V30.6182H517.498V28.4453H529.412V30.6182H524.846V30.8867ZM535.222 41.3115V49.1729H532.512V43.4844H520.183V41.3115H535.222ZM535.222 27.1025V40.2617H532.512V34.793H528.752V32.5713H532.512V27.1025H535.222ZM556.707 27.1025V49.1973H553.972V27.1025H556.707ZM544.817 28.7139C548.137 28.7139 550.554 31.7412 550.579 36.502C550.554 41.3115 548.137 44.3145 544.817 44.3145C541.472 44.3145 539.055 41.3115 539.055 36.502C539.055 31.7412 541.472 28.7139 544.817 28.7139ZM544.817 31.1553C542.937 31.1553 541.667 33.1328 541.667 36.502C541.667 39.8955 542.937 41.873 544.817 41.873C546.672 41.873 547.942 39.8955 547.942 36.502C547.942 33.1328 546.672 31.1553 544.817 31.1553ZM573.723 41.458C573.723 43.2891 574.565 45.2178 576.458 46.4141C578.374 45.1323 579.265 43.1304 579.29 41.458V40.5547H581.951V41.458C581.926 43.7773 583.293 45.9258 586.199 46.8535L584.88 48.8311C582.732 48.1108 581.304 46.707 580.535 44.9492C579.827 46.6826 578.521 48.2329 576.531 49.0264C574.431 48.2695 573.113 46.7803 572.429 45.0225C571.636 46.7192 570.232 48.0986 568.181 48.8311L566.838 46.8535C569.695 45.8525 571.062 43.6064 571.086 41.458V40.5547H573.723V41.458ZM584.27 27.127V39.627H581.536V27.127H584.27ZM572.234 28.2988C575.627 28.2988 578.167 30.4473 578.167 33.5479C578.167 36.624 575.627 38.7725 572.234 38.7725C568.816 38.7725 566.277 36.624 566.277 33.5479C566.277 30.4473 568.816 28.2988 572.234 28.2988ZM572.234 30.5938C570.305 30.5938 568.914 31.7412 568.938 33.5479C568.914 35.3545 570.305 36.5264 572.234 36.5264C574.138 36.5264 575.505 35.3545 575.505 33.5479C575.505 31.7412 574.138 30.5938 572.234 30.5938ZM597.527 28.3477C602.19 28.3477 605.754 30.8135 605.754 34.5732C605.754 38.3818 602.19 40.8477 597.527 40.8477C592.888 40.8477 589.324 38.3818 589.348 34.5732C589.324 30.8135 592.888 28.3477 597.527 28.3477ZM597.527 30.5449C594.329 30.5205 591.96 32.1318 591.96 34.5732C591.96 37.0635 594.329 38.626 597.527 38.626C600.75 38.626 603.093 37.0635 603.093 34.5732C603.093 32.1318 600.75 30.5205 597.527 30.5449ZM607.659 44.168V46.3896H587.493V44.168H607.659ZM629.656 35.623V37.8447H626.384V49.124H623.674V27.1025H626.384V35.623H629.656ZM612.566 29.251V41.4336C615.508 41.3848 618.645 41.1284 621.965 40.4326L622.258 42.7275C618.547 43.46 615.007 43.6797 611.736 43.6797H609.88V29.251H612.566ZM642.668 28.7139C645.659 28.7139 647.869 31.2041 648.259 35.2324H652.458V27.1025H655.144V49.1973H652.458V37.4297H648.284C647.991 41.6899 645.745 44.3145 642.668 44.3145C639.348 44.3145 637.004 41.3115 637.004 36.502C637.004 31.7412 639.348 28.7139 642.668 28.7139ZM642.668 31.1553C640.837 31.1553 639.592 33.1328 639.617 36.502C639.592 39.8955 640.837 41.873 642.668 41.873C644.5 41.873 645.72 39.8955 645.745 36.502C645.72 33.1328 644.5 31.1553 642.668 31.1553ZM676.726 27.1025V49.1973H674.016V40.1396H669.988V37.918H674.016V34.1338H670.061V31.9121H674.016V27.1025H676.726ZM668.816 29.0068V37.2588H661.736V41.9463C664.653 41.9219 667.192 41.7998 670.159 41.3604L670.378 43.582C666.985 44.1191 664.177 44.1924 660.759 44.1924H659.05V35.1348H666.155V31.1797H658.977V29.0068H668.816ZM698.357 27.127V40.9209H695.623V39.9443H691.423V38.0645H695.623V27.127H698.357ZM679.753 35.5498C683.757 35.5254 689.275 35.4766 693.987 34.8174L694.133 36.7217C692.205 37.0513 690.178 37.271 688.201 37.4053V40.8721H685.466V37.5518C683.525 37.6372 681.67 37.6494 680.046 37.6494L679.753 35.5498ZM686.956 27.542C690.251 27.542 692.424 28.8604 692.449 31.0088C692.424 33.1572 690.251 34.4756 686.956 34.4756C683.586 34.4756 681.438 33.1572 681.438 31.0088C681.438 28.8604 683.586 27.542 686.956 27.542ZM686.956 29.4463C685.1 29.4463 683.953 30.0566 683.977 31.0088C683.953 32.0098 685.1 32.5713 686.956 32.5713C688.738 32.5713 689.885 32.0098 689.885 31.0088C689.885 30.0566 688.738 29.4463 686.956 29.4463ZM687.712 42.0684C687.712 43.7041 688.579 45.4741 690.471 46.5605C692.351 45.4497 693.254 43.6553 693.254 42.0684V41.7266H695.916V42.0684C695.916 44.168 697.307 46.0967 700.237 46.9023L698.943 48.9043C696.758 48.2329 695.317 46.939 694.548 45.2666C693.84 46.9146 692.534 48.3428 690.471 49.0996C688.433 48.3794 687.139 46.9878 686.443 45.3398C685.637 46.9634 684.185 48.2573 682.073 48.9043L680.803 46.9023C683.635 46.0723 685.076 44.0703 685.1 42.0684V41.7266H687.712V42.0684ZM718.743 27.1025V35.4766H722.136V37.6982H718.743V49.1973H716.033V27.1025H718.743ZM712.688 29.2021V31.3994H705.071V41.5312C708.501 41.5312 711.211 41.3604 714.25 40.8232L714.568 43.1182C711.15 43.7041 708.171 43.8018 704.192 43.8018H702.361V29.2021H712.688ZM725.75 47.1953C724.7 47.1953 723.845 46.3408 723.845 45.291C723.845 44.2656 724.7 43.4111 725.75 43.4111C726.75 43.4111 727.629 44.2656 727.629 45.291C727.629 46.3408 726.75 47.1953 725.75 47.1953Z" fill="black"/>
</svg>
