<svg width="880" height="77" viewBox="0 0 880 77" fill="none" xmlns="http://www.w3.org/2000/svg">
<rect x="0.5" y="0.5" width="879" height="76" rx="14.5" fill="current" stroke="black"/>
<path d="M148.044 47V29.3242H154.807C158.64 29.3242 160.544 31.2773 160.544 33.9141C160.544 36.0625 159.177 37.2588 157.444 37.6738V37.8447C159.324 37.9424 161.228 39.5049 161.228 42.1904C161.228 44.9492 159.25 47 155.198 47H148.044ZM154.709 44.3389C157.029 44.3389 158.005 43.3379 158.005 41.9463C158.005 40.3594 156.76 39.1387 154.783 39.1387H151.218V44.3389H154.709ZM154.417 36.8438C156.101 36.8438 157.371 35.8672 157.371 34.3047C157.371 32.9375 156.394 31.9609 154.49 31.9609H151.218V36.8438H154.417ZM165.598 47.1953C164.548 47.1953 163.694 46.3408 163.694 45.291C163.694 44.2656 164.548 43.4111 165.598 43.4111C166.599 43.4111 167.478 44.2656 167.478 45.291C167.478 46.3408 166.599 47.1953 165.598 47.1953ZM180.1 40.0176V42.3857H183.005V40.0176H185.52V47.0244C188.108 45.938 189.304 43.7041 189.304 41.6045V39.8467H192.014V41.6045C192.014 43.8994 193.186 46.1211 195.92 47.0488L194.529 49.0752C192.588 48.3794 191.331 47.0366 190.647 45.3643C189.902 46.9878 188.645 48.3306 186.814 49.0752L185.52 47.1465V48.9043H177.561V40.0176H180.1ZM180.1 46.8291H183.005V44.4121H180.1V46.8291ZM181.223 28.0059C184.067 28.0059 186.313 29.5928 186.887 31.9854H190.867V27.1025H193.577V38.7969H190.867V34.2314H186.887C186.35 36.6851 184.08 38.3086 181.223 38.3086C177.83 38.3086 175.388 36.1846 175.388 33.1328C175.388 30.1055 177.83 28.0059 181.223 28.0059ZM181.223 30.252C179.319 30.252 177.976 31.375 177.976 33.1328C177.976 34.915 179.319 36.0869 181.223 36.0869C183.079 36.0869 184.397 34.915 184.421 33.1328C184.397 31.375 183.079 30.252 181.223 30.252ZM213.987 27.1025V35.4766H217.38V37.6982H213.987V49.1973H211.277V27.1025H213.987ZM207.932 29.2021V31.3994H200.315V41.5312C203.745 41.5312 206.455 41.3604 209.495 40.8232L209.812 43.1182C206.394 43.7041 203.416 43.8018 199.436 43.8018H197.605V29.2021H207.932ZM220.994 47.1953C219.944 47.1953 219.089 46.3408 219.089 45.291C219.089 44.2656 219.944 43.4111 220.994 43.4111C221.995 43.4111 222.874 44.2656 222.874 45.291C222.874 46.3408 221.995 47.1953 220.994 47.1953ZM248.923 27.1025V49.1729H246.189V27.1025H248.923ZM242.332 29.4463C242.332 36.0137 239.792 41.6045 232.053 45.2666L230.637 43.0938C236.411 40.3472 239.097 36.6118 239.573 31.5947H231.76V29.4463H242.332ZM259.983 32.4004C259.958 36.3311 261.936 40.335 265.354 41.9707L263.694 44.1436C261.301 42.9351 259.58 40.6035 258.64 37.7959C257.676 40.7988 255.869 43.2891 253.342 44.5586L251.682 42.3857C255.222 40.7012 257.249 36.4775 257.273 32.4004V28.8848H259.983V32.4004ZM269.382 27.1025V35.7451H272.776V38.0645H269.382V49.1729H266.672V27.1025H269.382ZM287.546 33.377C287.546 36.7949 289.573 40.6768 293.064 42.2881L291.55 44.4365C289.06 43.2646 287.217 40.8965 286.228 38.1377C285.227 41.165 283.298 43.7529 280.759 44.9736L279.172 42.8496C282.688 41.1895 284.812 37.0391 284.836 33.377V31.5215H280.027V29.2754H292.161V31.5215H287.546V33.377ZM296.921 27.1025V35.6963H300.315V37.9668H296.921V49.1729H294.211V27.1025H296.921ZM307.981 33.8408C307.981 37.2588 309.397 40.7012 312.473 42.3613L310.959 44.3633C308.909 43.2769 307.517 41.3359 306.736 39.0166C305.955 41.519 304.563 43.6553 302.488 44.876L300.901 42.8252C304.026 41.0186 305.417 37.332 305.417 33.8408V33.1572H301.658V30.96H305.417V27.8838H307.981V30.96H311.667V33.1572H307.981V33.8408ZM320.237 27.1025V49.1729H317.649V27.1025H320.237ZM315.745 27.5176V48.0986H313.181V37.8203H310.3V35.5742H313.181V27.5176H315.745ZM340.769 37.1367V39.2852H334.226V44.3389H343.015V46.5605H322.849V44.3389H331.541V39.2852H325.291V28.7383H340.598V30.9111H328V37.1367H340.769ZM356.418 28.7139C359.409 28.7139 361.619 31.2041 362.009 35.2324H366.208V27.1025H368.894V49.1973H366.208V37.4297H362.034C361.741 41.6899 359.495 44.3145 356.418 44.3145C353.098 44.3145 350.754 41.3115 350.754 36.502C350.754 31.7412 353.098 28.7139 356.418 28.7139ZM356.418 31.1553C354.587 31.1553 353.342 33.1328 353.367 36.502C353.342 39.8955 354.587 41.873 356.418 41.873C358.25 41.873 359.47 39.8955 359.495 36.502C359.47 33.1328 358.25 31.1553 356.418 31.1553ZM390.476 27.1025V49.1973H387.766V40.1396H383.738V37.918H387.766V34.1338H383.811V31.9121H387.766V27.1025H390.476ZM382.566 29.0068V37.2588H375.486V41.9463C378.403 41.9219 380.942 41.7998 383.909 41.3604L384.128 43.582C380.735 44.1191 377.927 44.1924 374.509 44.1924H372.8V35.1348H379.905V31.1797H372.727V29.0068H382.566ZM413.743 38.0156V40.1885H405.222V44.2412H402.463V40.1885H393.577V38.0156H413.743ZM411.521 46.5117V48.7334H396.042V42.1904H398.777V46.5117H411.521ZM403.635 27.5908C408.396 27.5908 411.545 29.3242 411.545 32.1074C411.545 34.8906 408.396 36.5996 403.635 36.5996C398.875 36.5996 395.725 34.8906 395.725 32.1074C395.725 29.3242 398.875 27.5908 403.635 27.5908ZM403.635 29.7393C400.608 29.7393 398.63 30.5938 398.655 32.1074C398.63 33.5723 400.608 34.4268 403.635 34.4268C406.687 34.4268 408.64 33.5723 408.64 32.1074C408.64 30.5938 406.687 29.7393 403.635 29.7393ZM434.25 27.1025V49.1729H431.614V27.1025H434.25ZM429.612 27.542V48.0986H427.073V37.5029H422.825V35.2812H427.073V27.542H429.612ZM424.338 29.6904V31.8633H418.601V41.8486C421.213 41.8242 423.081 41.7144 425.242 41.2627L425.461 43.4844C422.971 43.9971 420.774 44.0947 417.429 44.1191H415.94V29.6904H424.338ZM454.124 34.9883V37.7959H462.864V39.9932H442.747V37.7959H451.438V34.9883H454.124ZM452.781 41.4092C457.566 41.4092 460.398 42.7764 460.422 45.2666C460.398 47.7568 457.566 49.1484 452.781 49.1484C447.971 49.1484 445.09 47.7568 445.09 45.2666C445.09 42.7764 447.971 41.4092 452.781 41.4092ZM452.781 43.4844C449.534 43.4844 447.825 44.0947 447.849 45.2666C447.825 46.4873 449.534 47.0977 452.781 47.0977C455.955 47.0977 457.688 46.4873 457.712 45.2666C457.688 44.0947 455.955 43.4844 452.781 43.4844ZM461.057 28.0791V30.252H454.709C455.149 32.0464 457.798 33.6577 461.912 34.0605L460.935 36.1846C456.931 35.7817 453.977 34.2192 452.781 31.9854C451.584 34.2192 448.655 35.7817 444.651 36.1846L443.699 34.0605C447.776 33.6577 450.425 32.0586 450.876 30.252H444.578V28.0791H461.057ZM482.712 27.1025V49.1973H479.978V27.1025H482.712ZM470.823 28.7139C474.143 28.7139 476.56 31.7412 476.584 36.502C476.56 41.3115 474.143 44.3145 470.823 44.3145C467.478 44.3145 465.061 41.3115 465.061 36.502C465.061 31.7412 467.478 28.7139 470.823 28.7139ZM470.823 31.1553C468.943 31.1553 467.673 33.1328 467.673 36.502C467.673 39.8955 468.943 41.873 470.823 41.873C472.678 41.873 473.948 39.8955 473.948 36.502C473.948 33.1328 472.678 31.1553 470.823 31.1553ZM510.276 27.127V43.2402H507.542V27.127H510.276ZM510.886 46.5361V48.7334H495.676V41.7021H498.411V46.5361H510.886ZM500.12 30.4961C500.12 33.5723 501.926 36.4775 505.417 37.6494L504.026 39.7979C501.511 38.9189 499.717 37.1611 498.752 34.915C497.751 37.3198 495.933 39.2485 493.333 40.1885L491.917 38.04C495.505 36.7705 497.312 33.6699 497.312 30.4961V28.3477H500.12V30.4961ZM533.64 38.1377V40.3105H525.12V44.3633H522.434V40.3105H513.474V38.1377H533.64ZM531.052 28.1035V36.0869H516.038V28.1035H531.052ZM518.674 30.2275V33.9629H528.367V30.2275H518.674ZM531.418 46.5361V48.7334H515.916V42.3369H518.625V46.5361H531.418ZM555.222 38.5039V40.6768H535.105V38.5039H555.222ZM552.952 46.5361V48.7334H537.595V42.3125H540.305V46.5361H552.952ZM545.139 27.8105C549.949 27.8105 553.074 29.4951 553.098 32.2783C553.074 35.0859 549.949 36.7949 545.139 36.7949C540.33 36.7949 537.18 35.0859 537.18 32.2783C537.18 29.4951 540.33 27.8105 545.139 27.8105ZM545.139 29.9834C541.941 29.9834 539.988 30.8135 540.012 32.2783C539.988 33.7676 541.941 34.5977 545.139 34.5732C548.362 34.5977 550.291 33.7676 550.291 32.2783C550.291 30.8135 548.362 29.9834 545.139 29.9834ZM581.174 27.1025V49.1973H578.464V36.2822H572.141V34.085H578.464V27.1025H581.174ZM566.526 29.5195V41.7021C569.492 41.6533 572.434 41.4214 575.535 40.8232L575.852 43.0449C572.288 43.7773 568.992 43.9727 565.623 43.9727H563.816V29.5195H566.526ZM604.392 39.6025V41.7998H595.603V49.1484H592.917V41.7998H584.226V39.6025H604.392ZM601.926 28.2256V37.0146H586.692V28.2256H601.926ZM589.353 30.3984V34.8906H599.216V30.3984H589.353ZM631.931 39.9443V42.0928H623.142V49.1729H620.457V42.0928H611.765V39.9443H631.931ZM616.892 27.9814V30.6914H626.755V27.9814H629.49V37.6494H614.207V27.9814H616.892ZM616.892 35.4521H626.755V32.8398H616.892V35.4521ZM650.803 27.1025V32.2295H653.879V34.4756H650.803V39.5293H648.093V27.1025H650.803ZM644.138 28.5186V30.7158H637.009V36.3555C641.16 36.3555 643.467 36.1968 646.091 35.6719L646.384 37.8203C643.503 38.4551 640.916 38.5527 636.106 38.5527H634.324V28.5186H644.138ZM650.803 40.5303V48.8799H636.545V40.5303H650.803ZM639.231 42.7031V46.7314H648.118V42.7031H639.231ZM666.404 30.1299C666.404 33.5479 669.749 36.9658 674.363 37.7715L673.142 40.042C669.443 39.2607 666.416 37.0269 664.988 34.0605C663.523 37.0024 660.496 39.2485 656.809 40.042L655.613 37.7715C660.178 36.9414 663.499 33.5234 663.523 30.1299V28.4941H666.404V30.1299ZM675.168 44.1191V46.3652H655.002V44.1191H675.168ZM695.09 27.1025V49.1973H692.38V37.4541H688.596V35.2324H692.38V27.1025H695.09ZM687.327 29.0312V37.1123H680.1V41.751C683.372 41.7388 686.021 41.6289 688.987 41.0918L689.207 43.3135C685.911 43.8994 682.981 44.0215 679.172 44.0215H677.415V34.915H684.666V31.2285H677.341V29.0312H687.327ZM716.843 27.127V49.1484H714.084V44.0947H709.397V42.0439H714.084V27.127H716.843ZM698.118 38.4551C702.268 38.4551 707.786 38.4307 712.571 37.7715L712.742 39.7734C710.715 40.1274 708.628 40.335 706.589 40.457V48.4893H703.855V40.6035C701.926 40.6646 700.095 40.6768 698.459 40.6768L698.118 38.4551ZM705.369 28.0791C708.616 28.0791 710.984 29.9102 710.984 32.5469C710.984 35.2324 708.616 36.9902 705.369 36.9902C702.048 36.9902 699.705 35.2324 699.705 32.5469C699.705 29.9102 702.048 28.0791 705.369 28.0791ZM705.369 30.1543C703.513 30.1543 702.268 31.1064 702.268 32.5469C702.268 34.0361 703.513 34.915 705.369 34.915C707.126 34.915 708.396 34.0361 708.396 32.5469C708.396 31.1064 707.126 30.1543 705.369 30.1543ZM722.507 47.1953C721.458 47.1953 720.603 46.3408 720.603 45.291C720.603 44.2656 721.458 43.4111 722.507 43.4111C723.508 43.4111 724.387 44.2656 724.387 45.291C724.387 46.3408 723.508 47.1953 722.507 47.1953ZM729.319 47.1953C728.269 47.1953 727.415 46.3408 727.415 45.291C727.415 44.2656 728.269 43.4111 729.319 43.4111C730.32 43.4111 731.199 44.2656 731.199 45.291C731.199 46.3408 730.32 47.1953 729.319 47.1953ZM736.13 47.1953C735.081 47.1953 734.226 46.3408 734.226 45.291C734.226 44.2656 735.081 43.4111 736.13 43.4111C737.131 43.4111 738.01 44.2656 738.01 45.291C738.01 46.3408 737.131 47.1953 736.13 47.1953Z" fill="black"/>
</svg>
