<svg width="631" height="356" viewBox="0 0 631 356" fill="none" xmlns="http://www.w3.org/2000/svg">
<path d="M287.195 72.9062H293.711L295.914 75.625C297.203 73.9141 297.93 71.3359 297.93 68.0312C297.93 61.2812 294.93 57.625 289.961 57.625C284.992 57.625 281.992 61.2812 281.992 68.0312C281.992 74.7812 284.992 78.4375 289.961 78.4375C290.43 78.4375 290.898 78.4141 291.367 78.3438L287.195 72.9062ZM306.086 68.0312C306.086 74.0078 304.094 78.5547 300.836 81.5312L305.805 87.6719H298.539L295.914 84.4844C294.086 85.1406 292.07 85.4688 289.961 85.4688C280.82 85.4688 273.836 79.1875 273.836 68.0312C273.836 56.8281 280.82 50.5938 289.961 50.5938C299.055 50.5938 306.086 56.8281 306.086 68.0312ZM313.117 85.4688C310.773 85.4688 308.852 83.5938 308.898 81.2031C308.852 78.9062 310.773 77.0312 313.117 77.0312C315.367 77.0312 317.336 78.9062 317.383 81.2031C317.336 83.5938 315.367 85.4688 313.117 85.4688ZM344.617 85.4688C336.648 85.4688 330.883 81.3438 330.883 75.8125C330.883 71.5938 334.211 68.1719 338.523 67.5156V67.2812C334.773 66.5781 332.148 63.5312 332.148 59.7812C332.148 54.4844 337.398 50.5938 344.617 50.5938C351.742 50.5938 357.039 54.4844 357.039 59.7812C357.039 63.5312 354.32 66.5781 350.664 67.2812V67.5156C354.883 68.1719 358.305 71.5938 358.305 75.8125C358.305 81.3438 352.539 85.4688 344.617 85.4688ZM344.617 79.5625C347.758 79.5625 349.914 77.6406 349.914 74.9688C349.914 72.2969 347.664 70.3281 344.617 70.3281C341.523 70.3281 339.227 72.2969 339.273 74.9688C339.227 77.6406 341.43 79.5625 344.617 79.5625ZM344.617 64.8438C347.289 64.8438 349.211 63.1094 349.211 60.625C349.211 58.2344 347.289 56.5 344.617 56.5C341.852 56.5 339.977 58.1875 339.977 60.625C339.977 63.0625 341.898 64.8438 344.617 64.8438Z" fill="black"/>
<path d="M128.296 134.982V137.915H123.978V152.804H120.4V123.735H123.978V134.982H128.296ZM105.737 126.571V142.652C109.621 142.588 113.762 142.25 118.145 141.331L118.531 144.36C113.633 145.327 108.96 145.617 104.642 145.617H102.192V126.571H105.737ZM153.271 131.985V134.821H133.098V124.799H136.643V131.985H153.271ZM156.269 138.205V141.041H129.649V138.205H156.269ZM153.465 149.291V152.191H132.84V143.619H136.417V149.291H153.465ZM177.022 132.018C177.022 136.787 179.826 141.814 184.531 143.78L182.565 146.616C179.117 145.134 176.604 142.072 175.282 138.366C173.929 142.362 171.383 145.714 167.967 147.325L165.904 144.521C170.513 142.395 173.381 136.98 173.381 132.018V129.568H166.968V126.604H183.403V129.568H177.022V132.018ZM190.268 123.735V152.868H186.658V123.735H190.268ZM217.918 125.153V127.409C217.918 129.665 217.918 132.243 217.209 135.691H221.173V138.592H194.554V135.691H213.6C214.276 132.549 214.341 130.148 214.341 128.021H197.841V125.153H217.918ZM217.886 141.976V152.514H197.744V141.976H217.886ZM201.257 144.779V149.613H214.341V144.779H201.257ZM246.31 123.735V135.369H250.338V138.334H246.31V152.868H242.7V123.735H246.31ZM231.808 126.797C231.775 134.435 230.712 140.88 225.459 146.552L222.655 144.521C226.764 140.171 228.102 135.562 228.392 129.729H223.815V126.797H231.808ZM239.864 126.797C239.832 134.628 239.026 142.104 233.773 148.421L230.905 146.455C235.062 141.508 236.223 136.046 236.48 129.729H232.774V126.797H239.864ZM262.584 132.018C262.584 136.787 265.388 141.814 270.093 143.78L268.127 146.616C264.679 145.134 262.165 142.072 260.844 138.366C259.49 142.362 256.944 145.714 253.528 147.325L251.466 144.521C256.074 142.395 258.942 136.98 258.942 132.018V129.568H252.529V126.604H268.965V129.568H262.584V132.018ZM275.829 123.735V152.868H272.22V123.735H275.829ZM298.323 126.765C298.291 130.438 300.676 133.758 305.188 135.111L303.351 137.883C300.128 136.868 297.856 134.821 296.615 132.179C295.31 135.208 292.861 137.528 289.396 138.656L287.624 135.82C292.297 134.338 294.714 130.761 294.746 126.765V124.767H298.323V126.765ZM310.924 123.735V129.665H314.984V132.598H310.924V138.785H307.347V123.735H310.924ZM310.924 139.978V147.486H295.455V149.774H311.826V152.61H291.91V144.876H307.347V142.749H291.878V139.978H310.924ZM331.42 126.185V128.505H337.285V123.768H340.862V144.973H337.285V137.625H331.42V140.139H317.724V126.185H331.42ZM321.301 129.021V137.335H327.875V129.021H321.301ZM341.507 149.388V152.288H321.655V143.007H325.297V149.388H341.507ZM331.42 134.757H337.285V131.438H331.42V134.757ZM355.751 130.729C355.751 136.143 358.329 141.46 362.97 143.49L360.811 146.358C357.507 144.747 355.187 141.653 353.946 137.851C352.673 141.863 350.305 145.198 346.953 146.906L344.697 144.006C349.435 141.782 352.077 136.175 352.109 130.729V126.088H355.751V130.729ZM369.415 123.735V152.9H365.87V136.046H359.747V133.146H365.87V123.735H369.415ZM404.316 123.768V132.92H408.377V135.885H404.316V145.521H400.739V123.768H404.316ZM398.645 126.99V129.858H381.371V126.99H388.235V123.735H391.812V126.99H398.645ZM390.008 131.051C394.197 131.051 397.098 133.274 397.13 136.626C397.098 139.945 394.197 142.137 390.008 142.137C385.786 142.137 382.854 139.945 382.854 136.626C382.854 133.274 385.786 131.051 390.008 131.051ZM390.008 133.822C387.784 133.822 386.334 134.854 386.334 136.626C386.334 138.366 387.784 139.397 390.008 139.365C392.231 139.397 393.714 138.366 393.714 136.626C393.714 134.854 392.231 133.822 390.008 133.822ZM405.477 149.388V152.288H385.657V143.812H389.234V149.388H405.477ZM442.086 123.768V145.263H438.509V134.531H432.644V140.525H419.012V125.669H422.589V130.374H429.099V125.669H432.644V131.631H438.509V123.768H442.086ZM442.73 149.388V152.288H422.879V143.136H426.521V149.388H442.73ZM422.589 137.689H429.099V133.146H422.589V137.689ZM470.445 123.735V152.9H466.836V123.735H470.445ZM454.751 125.862C459.134 125.862 462.324 129.858 462.356 136.143C462.324 142.491 459.134 146.455 454.751 146.455C450.336 146.455 447.146 142.491 447.146 136.143C447.146 129.858 450.336 125.862 454.751 125.862ZM454.751 129.085C452.27 129.085 450.594 131.695 450.594 136.143C450.594 140.622 452.27 143.232 454.751 143.232C457.2 143.232 458.876 140.622 458.876 136.143C458.876 131.695 457.2 129.085 454.751 129.085ZM497.548 123.735V134.918H502.027V137.915H497.548V152.9H494.003V123.735H497.548ZM489.298 126.281V137.271H479.501V143.071C484.109 143.039 487.703 142.846 491.779 142.137L492.102 145.037C487.622 145.843 483.626 146.036 478.341 146.036H475.956V134.402H485.721V129.182H475.892V126.281H489.298ZM526.906 136.98V139.816H518.27V146.487H529.871V149.42H503.252V146.487H514.725V139.816H506.475V125.895H526.681V128.763H510.052V136.98H526.906ZM126.233 173.145V176.851H137.771V179.751H111.216V176.851H122.688V173.145H126.233ZM124.461 181.62C130.777 181.62 134.516 183.425 134.548 186.712C134.516 189.999 130.777 191.836 124.461 191.836C118.112 191.836 114.31 189.999 114.31 186.712C114.31 183.425 118.112 181.62 124.461 181.62ZM124.461 184.359C120.175 184.359 117.919 185.165 117.951 186.712C117.919 188.323 120.175 189.129 124.461 189.129C128.65 189.129 130.938 188.323 130.971 186.712C130.938 185.165 128.65 184.359 124.461 184.359ZM135.386 164.024V166.893H127.007C127.587 169.261 131.083 171.388 136.514 171.92L135.225 174.724C129.939 174.192 126.04 172.129 124.461 169.181C122.882 172.129 119.015 174.192 113.729 174.724L112.473 171.92C117.854 171.388 121.351 169.277 121.947 166.893H113.633V164.024H135.386ZM163.971 162.735V191.9H160.361V162.735H163.971ZM148.276 164.862C152.659 164.862 155.85 168.858 155.882 175.143C155.85 181.491 152.659 185.455 148.276 185.455C143.861 185.455 140.671 181.491 140.671 175.143C140.671 168.858 143.861 164.862 148.276 164.862ZM148.276 168.085C145.795 168.085 144.119 170.695 144.119 175.143C144.119 179.622 145.795 182.232 148.276 182.232C150.726 182.232 152.401 179.622 152.401 175.143C152.401 170.695 150.726 168.085 148.276 168.085ZM200.354 162.768V184.037H196.745V162.768H200.354ZM201.16 188.388V191.288H181.083V182.007H184.692V188.388H201.16ZM186.948 167.215C186.948 171.275 189.333 175.11 193.941 176.657L192.104 179.493C188.785 178.333 186.417 176.013 185.144 173.048C183.822 176.222 181.421 178.768 177.989 180.009L176.12 177.173C180.857 175.497 183.242 171.404 183.242 167.215V164.379H186.948V167.215ZM231.195 177.302V180.17H219.948V185.52H216.403V180.17H204.576V177.302H231.195ZM227.779 164.057V174.595H207.96V164.057H227.779ZM211.44 166.86V171.791H224.234V166.86H211.44ZM228.263 188.388V191.288H207.799V182.845H211.376V188.388H228.263ZM265.355 162.768V184.037H261.778V173.37H256.622V170.47H261.778V162.768H265.355ZM266.097 188.388V191.288H246.245V182.168H249.822V188.388H266.097ZM251.659 168.568C251.659 172.081 254.012 175.69 258.523 177.173L256.719 180.041C253.464 178.929 251.16 176.722 249.887 173.95C248.598 177.028 246.165 179.461 242.732 180.653L240.896 177.753C245.536 176.238 248.018 172.403 248.018 168.536V167.763H241.959V164.862H257.686V167.763H251.659V168.568ZM278.375 171.63C278.375 176.142 280.244 180.686 284.305 182.877L282.307 185.52C279.6 184.085 277.763 181.523 276.731 178.462C275.7 181.765 273.863 184.585 271.124 186.196L269.029 183.489C273.154 181.104 274.991 176.238 274.991 171.63V170.728H270.028V167.827H274.991V163.767H278.375V167.827H283.241V170.728H278.375V171.63ZM294.553 162.735V191.868H291.137V162.735H294.553ZM288.623 163.283V190.45H285.239V176.883H281.437V173.918H285.239V163.283H288.623ZM324.588 175.948V178.655H297.969V175.948H324.588ZM321.365 180.396V187.034H304.672V189.064H322.235V191.546H301.095V184.714H317.82V182.909H301.062V180.396H321.365ZM321.301 163.38V169.954H304.897V171.855H321.816V174.305H301.353V167.634H317.724V165.861H301.256V163.38H321.301ZM358.555 162.735V177.979H355.01V162.735H358.555ZM347.791 179.171V186.454H341.346V188.839C344.81 188.807 347.001 188.678 349.596 188.194L349.95 190.837C346.856 191.449 344.311 191.514 339.734 191.514H337.865V183.94H344.278V181.846H337.865V179.171H347.791ZM358.555 179.171V191.707H355.074V182.039H348.951V179.171H358.555ZM342.603 163.992C347.018 163.96 350.305 166.731 350.337 170.599C350.305 174.498 347.018 177.237 342.603 177.237C338.155 177.237 334.868 174.498 334.868 170.599C334.868 166.731 338.155 163.96 342.603 163.992ZM342.603 166.925C340.153 166.925 338.349 168.343 338.349 170.599C338.349 172.822 340.153 174.337 342.603 174.337C345.052 174.337 346.856 172.822 346.856 170.599C346.856 168.343 345.052 166.925 342.603 166.925ZM370.833 164.862C374.781 164.862 377.697 168.149 378.213 173.467H383.756V162.735H387.301V191.9H383.756V176.367H378.245C377.858 181.991 374.894 185.455 370.833 185.455C366.45 185.455 363.356 181.491 363.356 175.143C363.356 168.858 366.45 164.862 370.833 164.862ZM370.833 168.085C368.416 168.085 366.772 170.695 366.805 175.143C366.772 179.622 368.416 182.232 370.833 182.232C373.25 182.232 374.861 179.622 374.894 175.143C374.861 170.695 373.25 168.085 370.833 168.085ZM406.218 163.831V166.989H418.786V163.831H422.331V175.658H414.274V178.333H425.779V181.233H399.225V178.333H410.665V175.658H402.673V163.831H406.218ZM406.218 172.79H418.786V169.761H406.218V172.79ZM422.782 188.388V191.288H402.512V183.103H406.089V188.388H422.782ZM446.275 167.73C446.275 171.275 448.628 174.853 453.14 176.367L451.335 179.139C448.08 178.075 445.776 175.868 444.503 173.145C443.23 176.19 440.797 178.639 437.349 179.783L435.512 176.947C440.152 175.433 442.634 171.565 442.634 167.763V167.376H436.575V164.508H452.302V167.376H446.275V167.73ZM459.972 181.491V191.868H456.395V184.359H440.12V181.491H459.972ZM459.972 162.735V180.105H456.395V172.887H451.432V169.954H456.395V162.735H459.972ZM488.331 162.735V191.9H484.722V162.735H488.331ZM472.637 164.862C477.02 164.862 480.21 168.858 480.242 175.143C480.21 181.491 477.02 185.455 472.637 185.455C468.222 185.455 465.031 181.491 465.031 175.143C465.031 168.858 468.222 164.862 472.637 164.862ZM472.637 168.085C470.155 168.085 468.479 170.695 468.479 175.143C468.479 179.622 470.155 182.232 472.637 182.232C475.086 182.232 476.762 179.622 476.762 175.143C476.762 170.695 475.086 168.085 472.637 168.085ZM502.575 176.464C503.639 175.304 504.992 174.691 506.475 174.691C509.053 174.691 511.276 176.496 513.854 176.496C515.337 176.496 516.626 175.884 517.657 174.659V178.172C516.594 179.364 515.24 179.944 513.758 179.944C511.18 179.944 508.924 178.14 506.378 178.14C504.896 178.14 503.606 178.752 502.575 179.977V176.464Z" fill="black"/>
<rect width="631" height="13" rx="6.5" fill="#222222" fill-opacity="0.2"/>
<rect width="574" height="13" rx="6.5" fill="#222222" fill-opacity="0.39"/>
<path d="M318 264.875V354L380 336.727V247L318 264.875Z" stroke="#222222" stroke-width="2" stroke-miterlimit="10" stroke-linecap="round"/>
<path d="M316 264.875V354L255 336.727V247L316 264.875Z" stroke="#222222" stroke-width="2" stroke-miterlimit="10" stroke-linecap="round"/>
<path d="M325 324.53V346L373 331.607V310L325 324.53Z" stroke="#222222" stroke-width="2" stroke-miterlimit="10" stroke-linecap="round"/>
<path d="M339 253L366 236V251.241" stroke="#222222" stroke-width="2" stroke-miterlimit="10" stroke-linecap="round"/>
<path d="M268 250.904V240L317.243 265L335 254.709" stroke="#222222" stroke-width="2" stroke-miterlimit="10" stroke-linecap="round"/>
<path d="M352 263.281V283L373 276.365V257L352 263.281Z" stroke="#222222" stroke-width="2" stroke-miterlimit="10" stroke-linecap="round"/>
<path d="M261 287V307.138L283 313V293.193L261 287Z" stroke="#222222" stroke-width="2" stroke-miterlimit="10" stroke-linecap="round"/>
<path d="M312 323.926V346L287 339.001V317L312 323.926Z" stroke="#222222" stroke-width="2" stroke-miterlimit="10" stroke-linecap="round"/>
<path d="M260 256V267.477L311 282V270.243L260 256Z" stroke="#222222" stroke-width="2" stroke-miterlimit="10" stroke-linecap="round"/>
<path d="M330.076 268.293L347.181 263.666" stroke="#222222" stroke-width="2" stroke-miterlimit="10" stroke-linecap="round"/>
<path d="M324.043 276.172L347.955 269.829" stroke="#222222" stroke-width="2" stroke-miterlimit="10" stroke-linecap="round"/>
<path d="M324.089 283.336L347.91 276.664" stroke="#222222" stroke-width="2" stroke-miterlimit="10" stroke-linecap="round"/>
<path d="M324 290L348 283" stroke="#222222" stroke-width="2" stroke-miterlimit="10" stroke-linecap="round"/>
<path d="M324.846 316.526L348.154 309.476" stroke="#222222" stroke-width="2" stroke-miterlimit="10" stroke-linecap="round"/>
<path d="M329 296L374 283" stroke="#222222" stroke-width="2" stroke-miterlimit="10" stroke-linecap="round"/>
<path d="M323 304L374 289" stroke="#222222" stroke-width="2" stroke-miterlimit="10" stroke-linecap="round"/>
<path d="M323 310L374 296" stroke="#222222" stroke-width="2" stroke-miterlimit="10" stroke-linecap="round"/>
<path d="M307.03 300.895L286.969 295.105" stroke="#222222" stroke-width="2" stroke-miterlimit="10" stroke-linecap="round"/>
<path d="M311.985 307.9L286.209 301" stroke="#222222" stroke-width="2" stroke-miterlimit="10" stroke-linecap="round"/>
<path d="M311.968 314.301L286.303 307" stroke="#222222" stroke-width="2" stroke-miterlimit="10" stroke-linecap="round"/>
<path d="M286.932 312.337L306.102 317.768" stroke="#222222" stroke-width="2" stroke-miterlimit="10" stroke-linecap="round"/>
<path d="M276 281L296 287" stroke="#222222" stroke-width="2" stroke-miterlimit="10" stroke-linecap="round"/>
<path d="M260 313L283 320" stroke="#222222" stroke-width="2" stroke-miterlimit="10" stroke-linecap="round"/>
<path d="M260.049 319.824L281.95 326.176" stroke="#222222" stroke-width="2" stroke-miterlimit="10" stroke-linecap="round"/>
<path d="M260 327L282 333" stroke="#222222" stroke-width="2" stroke-miterlimit="10" stroke-linecap="round"/>
<path d="M259.994 332.021L275.005 335.979" stroke="#222222" stroke-width="2" stroke-miterlimit="10" stroke-linecap="round"/>
</svg>
