<svg width="195" height="54" viewBox="0 0 195 54" fill="none" xmlns="http://www.w3.org/2000/svg">
<rect x="13" width="169" height="54" rx="10" fill="#CFCFCF"/>
<path d="M78.0273 18.2188V35.6211H76.4844V25.8164H72.6758V24.5469H76.4844V18.2188H78.0273ZM69.6484 23.375C69.6484 26.2656 71.7188 29.4102 74.2578 30.5625L73.3398 31.793C71.3574 30.8262 69.6875 28.7266 68.9062 26.3047C68.1055 28.873 66.3965 31.0996 64.4141 32.1445L63.4766 30.9531C65.9961 29.7227 68.0859 26.4609 68.1055 23.375V21.2852H64.1406V20.0156H73.6328V21.2852H69.6484V23.375ZM86.7969 21.5195C86.7969 23.7852 88.4961 25.8164 91.0547 26.6562L90.332 27.8672C88.3301 27.2129 86.8164 25.8262 86.0742 24.0781C85.3223 26.0703 83.7207 27.623 81.6406 28.375L80.8594 27.1445C83.457 26.2656 85.2734 24.0195 85.293 21.5195V20.7773H81.3281V19.5078H90.7031V20.7773H86.7969V21.5195ZM94.4922 18.2188V22.6523H97.1094V23.9414H94.4922V28.707H92.9688V18.2188H94.4922ZM88.9258 29.1758C92.5 29.1758 94.6484 30.3477 94.6484 32.3398C94.6484 34.3711 92.5 35.543 88.9258 35.543C85.3516 35.543 83.1641 34.3711 83.1641 32.3398C83.1641 30.3477 85.3516 29.1758 88.9258 29.1758ZM88.9258 30.4062C86.3086 30.4062 84.6875 31.1289 84.707 32.3398C84.6875 33.5898 86.3086 34.3125 88.9258 34.3125C91.5625 34.3125 93.1641 33.5898 93.1641 32.3398C93.1641 31.1289 91.5625 30.4062 88.9258 30.4062ZM111.641 18.2188V25.3867H114.551V26.6562H111.641V35.582H110.117V18.2188H111.641ZM108.438 21.0117V22.2812H98.1055V21.0117H102.578V18.4336H104.102V21.0117H108.438ZM103.359 23.7266C105.82 23.7266 107.598 25.3672 107.617 27.7109C107.598 30.0547 105.82 31.6953 103.359 31.6953C100.879 31.6953 99.082 30.0547 99.1016 27.7109C99.082 25.3672 100.879 23.7266 103.359 23.7266ZM103.359 25.0156C101.738 25.0156 100.547 26.1484 100.566 27.7109C100.547 29.293 101.738 30.4062 103.359 30.3867C104.961 30.4062 106.133 29.293 106.152 27.7109C106.133 26.1484 104.961 25.0156 103.359 25.0156ZM129.844 18.2188V35.582H128.301V18.2188H129.844ZM124.707 20.1133C124.688 25.1133 122.363 29.5273 116.543 32.3203L115.703 31.0703C120.4 28.8438 122.793 25.5137 123.145 21.3633H116.504V20.1133H124.707Z" fill="#222222"/>
</svg>
