<svg width="292.8" height="150" viewBox="0 0 488 250" fill="none" xmlns="http://www.w3.org/2000/svg">
<path d="M260.07 88.3645H226.934C225.058 88.3645 223.486 86.9847 223.294 85.1698L217.578 31.1523H269.426L263.71 85.1698C263.517 86.9847 261.946 88.3645 260.07 88.3645Z" stroke="#FF4545" stroke-width="3.5" stroke-miterlimit="10"/>
<path d="M236.129 24H252.662C254.02 24 255.123 25.1204 255.123 26.4996V31.1515H233.668V26.4996C233.668 25.1204 234.771 24 236.129 24Z" stroke="#FF4545" stroke-width="3.5" stroke-miterlimit="10"/>
<path d="M244.396 40.0898V81.2111" stroke="#FF4545" stroke-width="3.5" stroke-miterlimit="10" stroke-linecap="round"/>
<path d="M258.702 40.0898L255.126 81.2111" stroke="#FF4545" stroke-width="3.5" stroke-miterlimit="10" stroke-linecap="round"/>
<path d="M228.302 40.0898L231.878 81.2111" stroke="#FF4545" stroke-width="3.5" stroke-miterlimit="10" stroke-linecap="round"/>
<path d="M214 31.1562H273" stroke="#FF4545" stroke-width="3.5" stroke-miterlimit="10" stroke-linecap="round"/>
<circle cx="244" cy="56" r="56" fill="#FF4545" fill-opacity="0.3"/>
<path d="M18.9561 172.342V174.949H5.97754V172.342H10.8994V168.885H14.1221V172.342H18.9561ZM12.5107 176.355C15.8799 176.355 18.2822 178.904 18.2822 182.508C18.2822 186.17 15.8799 188.748 12.5107 188.748C9.1709 188.748 6.70996 186.17 6.73926 182.508C6.70996 178.904 9.1709 176.355 12.5107 176.355ZM12.5107 179.051C10.7822 179.051 9.58105 180.428 9.61035 182.508C9.58105 184.646 10.7822 185.994 12.5107 185.965C14.21 185.994 15.4111 184.646 15.4111 182.508C15.4111 180.428 14.21 179.051 12.5107 179.051ZM28.7998 168.123V194.607H25.6943V181.658H23.1162V193.406H20.0693V168.68H23.1162V179.021H25.6943V168.123H28.7998ZM52.8818 168.123V174.627H56.5439V177.293H52.8818V183.592H49.6006V168.123H52.8818ZM44.2393 184.09C49.6592 184.09 53.0869 186.023 53.1162 189.305C53.0869 192.645 49.6592 194.578 44.2393 194.578C38.7607 194.578 35.2744 192.645 35.2744 189.305C35.2744 186.023 38.7607 184.09 44.2393 184.09ZM44.2393 186.697C40.6064 186.697 38.4678 187.605 38.4971 189.305C38.4678 191.033 40.6064 191.971 44.2393 191.971C47.8135 191.971 49.9521 191.033 49.9521 189.305C49.9521 187.605 47.8135 186.697 44.2393 186.697ZM44.8545 169.998V172.635H36.2119V179.285C41.2803 179.271 44.1074 179.124 47.2275 178.465L47.5498 181.072C44.1221 181.805 40.9873 181.922 35.1279 181.922H32.9893V169.998H44.8545ZM78.6924 171.756C78.6924 175.857 82.7061 179.959 88.2432 180.926L86.7783 183.65C82.3398 182.713 78.707 180.032 76.9932 176.473C75.2354 180.003 71.6025 182.698 67.1787 183.65L65.7432 180.926C71.2217 179.93 75.2061 175.828 75.2354 171.756V169.793H78.6924V171.756ZM89.21 188.543V191.238H65.0107V188.543H89.21ZM112.413 170.584V173.748C112.413 177.586 112.413 181.248 111.241 186.844L107.989 186.551C108.531 184.236 108.839 182.2 109.015 180.311L93.3994 181.131L92.96 178.494L109.161 177.879C109.22 176.458 109.22 175.096 109.22 173.748V173.221H93.751V170.584H112.413ZM115.079 188.572V191.238H90.9385V188.572H115.079ZM139.513 168.152V182.83H136.407V176.766H133.653V182.625H130.606V168.592H133.653V174.188H136.407V168.152H139.513ZM124.864 183.973V186.463H136.29V183.973H139.513V194.285H121.642V183.973H124.864ZM124.864 191.648H136.29V189.012H124.864V191.648ZM128.028 169.588V176.854H121.144V179.402C124.22 179.373 126.563 179.271 129.259 178.729L129.552 181.336C126.358 181.922 123.663 182.039 119.796 182.039H117.979V174.451H124.894V172.166H117.95V169.588H128.028ZM172.911 168.123V194.607H169.806V168.123H172.911ZM167.638 168.68V193.289H164.532V180.809H161.603V177.908H164.532V168.68H167.638ZM162.276 171.258V173.895H160.401V185.32C161.236 185.247 162.027 185.159 162.774 185.057L162.979 187.43C158.819 188.279 153.37 188.367 150.001 188.367L149.62 185.672L152.022 185.643V173.895H150.147V171.258H162.276ZM154.952 185.584L157.413 185.496V173.895H154.952V185.584ZM197.872 168.123V194.637H194.591V168.123H197.872ZM183.604 170.057C187.589 170.057 190.489 173.689 190.519 179.402C190.489 185.174 187.589 188.777 183.604 188.777C179.591 188.777 176.69 185.174 176.69 179.402C176.69 173.689 179.591 170.057 183.604 170.057ZM183.604 172.986C181.349 172.986 179.825 175.359 179.825 179.402C179.825 183.475 181.349 185.848 183.604 185.848C185.831 185.848 187.354 183.475 187.354 179.402C187.354 175.359 185.831 172.986 183.604 172.986ZM211.759 175.652C211.759 179.988 214.308 184.559 218.585 186.346L216.798 188.924C213.663 187.576 211.378 184.793 210.177 181.424C208.946 185.057 206.632 188.104 203.526 189.568L201.651 187.02C205.841 185.086 208.448 180.164 208.448 175.652V173.426H202.618V170.73H217.56V173.426H211.759V175.652ZM223.8 168.123V194.607H220.519V168.123H223.8ZM251.866 180.135V182.596H227.667V180.135H251.866ZM248.937 184.178V190.213H233.761V192.059H249.728V194.314H230.509V188.104H245.714V186.463H230.479V184.178H248.937ZM248.878 168.709V174.686H233.966V176.414H249.347V178.641H230.743V172.576H245.626V170.965H230.655V168.709H248.878ZM270.235 172.312C270.206 175.623 272.345 178.787 276.476 180.105L274.835 182.654C271.847 181.702 269.752 179.71 268.624 177.176C267.452 179.9 265.299 182.024 262.208 183.064L260.538 180.486C264.815 179.08 266.954 175.682 266.954 172.049V169.5H270.235V172.312ZM281.632 168.123V174.773H285.323V177.498H281.632V184.148H278.38V168.123H281.632ZM281.632 185.32V194.607H278.38V187.928H263.995V185.32H281.632ZM309.464 168.123V194.607H306.358V168.123H309.464ZM304.073 168.621V193.318H300.997V179.988H297.188V177.352H300.997V168.621H304.073ZM294.845 175.359C294.845 179.842 296.456 184.324 300.235 186.492L298.302 188.895C295.855 187.43 294.229 184.91 293.321 181.893C292.384 185.159 290.699 187.942 288.194 189.51L286.202 187.078C290.04 184.764 291.71 179.959 291.71 175.359V173.602H287.11V170.965H299.122V173.602H294.845V175.359ZM333.341 168.123V178.67H337.413V181.365H333.341V194.607H330.118V168.123H333.341ZM328.067 172.195V174.803H312.452V172.195H318.722V168.504H321.974V172.195H328.067ZM320.362 176.531C324.171 176.531 327.013 179.109 327.013 182.771C327.013 186.434 324.171 188.982 320.362 188.982C316.495 188.982 313.653 186.434 313.683 182.771C313.653 179.109 316.495 176.531 320.362 176.531ZM320.362 179.197C318.282 179.197 316.788 180.604 316.788 182.771C316.788 184.939 318.282 186.316 320.362 186.287C322.384 186.316 323.878 184.939 323.907 182.771C323.878 180.604 322.384 179.197 320.362 179.197ZM348.546 174.48C348.517 179.344 351.065 184.207 355.372 186.053L353.438 188.66C350.392 187.254 348.15 184.441 346.935 180.984C345.719 184.72 343.448 187.767 340.226 189.275L338.233 186.551C342.657 184.646 345.235 179.578 345.235 174.48V170.262H348.546V174.48ZM360.558 168.123V194.637H357.276V168.123H360.558ZM376.173 169.998C376.173 171.917 375.895 173.675 375.323 175.271H378.575V168.68H381.651V182.918H378.575V177.879H374.034C372.394 180.428 369.786 182.449 366.183 183.973L364.571 181.541C369.625 179.563 372.247 176.59 372.804 172.635H365.831V169.998H376.173ZM387.101 168.152V183.299H383.995V168.152H387.101ZM374.063 185.525C374.034 187.737 375.045 190.037 377.315 191.502C379.615 189.92 380.655 187.503 380.685 185.525V184.119H383.878V185.525C383.878 188.279 385.519 190.945 389.005 192.029L387.423 194.432C384.83 193.538 383.131 191.824 382.208 189.686C381.358 191.795 379.806 193.655 377.374 194.637C374.869 193.699 373.302 191.883 372.481 189.744C371.544 191.81 369.874 193.523 367.413 194.432L365.772 192.029C369.229 190.857 370.929 188.104 370.929 185.525V184.119H374.063V185.525ZM396.505 184.002V186.521H408.165V184.002H411.417V194.285H393.282V184.002H396.505ZM396.505 191.707H408.165V189.012H396.505V191.707ZM414.522 179.842V182.508H390.382V179.842H414.522ZM404.122 169.412C404.122 172.254 407.755 175.242 413.233 175.887L412.091 178.465C407.652 177.864 404.151 175.901 402.452 173.221C400.738 175.916 397.223 177.864 392.813 178.465L391.612 175.887C397.149 175.213 400.753 172.342 400.782 169.412V168.416H404.122V169.412ZM438.399 168.123V194.607H435.177V168.123H438.399ZM421.056 170.701V185.174C424.776 185.115 428.731 184.778 432.804 183.973L433.214 186.697C428.556 187.664 424.22 187.957 420.118 187.957H417.833V170.701H421.056ZM463.36 168.123V178.699H467.022V181.395H463.36V194.607H460.079V168.123H463.36ZM450.177 170.906C450.147 177.85 449.181 183.709 444.405 188.865L441.856 187.02C445.592 183.064 446.808 178.875 447.071 173.572H442.911V170.906H450.177ZM457.501 170.906C457.472 178.025 456.739 184.822 451.964 190.564L449.356 188.777C453.136 184.28 454.19 179.314 454.425 173.572H451.056V170.906H457.501ZM472.647 185.496C472.677 181.775 473.731 180.633 475.577 179.49C476.837 178.699 477.774 177.703 477.774 176.238C477.774 174.598 476.515 173.543 474.903 173.543C473.438 173.543 472.032 174.48 471.944 176.443H468.282C468.37 172.518 471.329 170.496 474.933 170.496C478.888 170.496 481.612 172.693 481.612 176.18C481.612 178.553 480.411 180.105 478.507 181.248C476.808 182.273 476.104 183.299 476.075 185.496V185.76H472.647V185.496ZM474.464 192.234C473.204 192.234 472.179 191.209 472.179 189.949C472.179 188.719 473.204 187.693 474.464 187.693C475.665 187.693 476.72 188.719 476.72 189.949C476.72 191.209 475.665 192.234 474.464 192.234Z" fill="#222222"/>
<path d="M73.9077 227.765C73.8833 230.719 76.1294 233.429 79.3276 234.527L78.3267 236.041C75.873 235.162 73.9565 233.319 73.0044 231.012C72.0889 233.563 70.1357 235.528 67.5601 236.48L66.5591 234.942C69.8306 233.771 72.0034 230.938 72.0278 227.643V225.396H73.9077V227.765ZM83.5757 224.273V230.035H86.8472V231.671H83.5757V237.433H81.6714V224.273H83.5757ZM83.5757 238.507V245.978H81.6714V240.069H69.3667V238.507H83.5757ZM106.769 224.273V245.978H104.938V224.273H106.769ZM102.375 224.811V244.854H100.568V233.673H96.9058V232.11H100.568V224.811H102.375ZM94.5864 230.475C94.5864 234.234 96.271 237.97 99.2739 239.703L98.1021 241.119C95.9658 239.837 94.4521 237.494 93.7075 234.723C92.9141 237.713 91.3394 240.265 89.1665 241.632L87.9458 240.191C90.9731 238.385 92.731 234.43 92.731 230.475V228.424H88.5562V226.837H98.5659V228.424H94.5864V230.475ZM126.618 224.273V233.233H130.255V234.82H126.618V245.978H124.713V224.273H126.618ZM122.614 227.765V229.352H109.699V227.765H115.29V224.542H117.194V227.765H122.614ZM116.266 231.158C119.342 231.158 121.564 233.209 121.588 236.139C121.564 239.068 119.342 241.119 116.266 241.119C113.166 241.119 110.919 239.068 110.944 236.139C110.919 233.209 113.166 231.158 116.266 231.158ZM116.266 232.77C114.24 232.77 112.75 234.186 112.775 236.139C112.75 238.116 114.24 239.508 116.266 239.483C118.268 239.508 119.733 238.116 119.757 236.139C119.733 234.186 118.268 232.77 116.266 232.77ZM149.323 224.273V235.528H147.443V224.273H149.323ZM149.347 236.627V241.827H137.165V244.171H150.128V245.733H135.285V240.338H147.443V238.165H135.236V236.627H149.347ZM139.118 226.568C139.093 229.645 141.437 232.354 144.66 233.404L143.708 234.894C141.168 234.027 139.142 232.208 138.166 229.864C137.189 232.391 135.15 234.381 132.575 235.309L131.574 233.795C134.845 232.647 137.165 229.767 137.165 226.568V224.908H139.118V226.568ZM177.301 224.298V237.335H175.373V234.405H169.611V232.818H175.373V229.889H169.831C168.402 233.38 165.045 235.907 160.407 237.286L159.601 235.772C164.85 234.21 168.109 231.28 168.512 227.521H160.7V225.909H170.587C170.587 226.764 170.49 227.582 170.319 228.351H175.373V224.298H177.301ZM170.197 237.555C174.591 237.555 177.423 239.117 177.423 241.705C177.423 244.317 174.591 245.88 170.197 245.88C165.753 245.88 162.946 244.317 162.946 241.705C162.946 239.117 165.753 237.555 170.197 237.555ZM170.197 239.093C166.925 239.068 164.826 240.069 164.826 241.705C164.826 243.341 166.925 244.317 170.197 244.317C173.419 244.317 175.495 243.341 175.519 241.705C175.495 240.069 173.419 239.068 170.197 239.093ZM200.763 236.725V238.336H191.706V245.978H189.826V238.336H180.89V236.725H200.763ZM190.778 225.152C195.343 225.152 198.419 226.983 198.419 229.938C198.419 232.818 195.343 234.649 190.778 234.649C186.212 234.649 183.136 232.818 183.136 229.938C183.136 226.983 186.212 225.152 190.778 225.152ZM190.778 226.715C187.384 226.715 185.089 227.984 185.114 229.938C185.089 231.866 187.384 233.111 190.778 233.111C194.147 233.111 196.466 231.866 196.466 229.938C196.466 227.984 194.147 226.715 190.778 226.715ZM228.571 235.504V237.091H208.795V235.504H217.731V232.892H211.432V224.786H213.336V227.301H224.079V224.786H225.983V232.892H219.635V235.504H228.571ZM226.129 239.239V245.978H224.201V240.777H210.993V239.239H226.129ZM213.336 231.354H224.079V228.766H213.336V231.354ZM247.565 225.689V227.594C247.565 229.657 247.565 231.891 246.955 235.016H250.177V236.603H241.217V246.026H239.289V236.603H230.402V235.016H245.001C245.661 231.891 245.661 229.608 245.661 227.594V227.276H232.892V225.689H247.565ZM268.805 224.273V233.233H272.443V234.82H268.805V245.978H266.901V224.273H268.805ZM264.801 227.765V229.352H251.886V227.765H257.477V224.542H259.381V227.765H264.801ZM258.454 231.158C261.53 231.158 263.751 233.209 263.776 236.139C263.751 239.068 261.53 241.119 258.454 241.119C255.353 241.119 253.107 239.068 253.131 236.139C253.107 233.209 255.353 231.158 258.454 231.158ZM258.454 232.77C256.427 232.77 254.938 234.186 254.962 236.139C254.938 238.116 256.427 239.508 258.454 239.483C260.456 239.508 261.92 238.116 261.945 236.139C261.92 234.186 260.456 232.77 258.454 232.77ZM291.51 224.273V235.528H289.63V224.273H291.51ZM291.535 236.627V241.827H279.352V244.171H292.316V245.733H277.472V240.338H289.63V238.165H277.423V236.627H291.535ZM281.305 226.568C281.281 229.645 283.625 232.354 286.847 233.404L285.895 234.894C283.356 234.027 281.33 232.208 280.353 229.864C279.376 232.391 277.338 234.381 274.762 235.309L273.761 233.795C277.033 232.647 279.352 229.767 279.352 226.568V224.908H281.305V226.568ZM312.384 226.3C312.384 229.352 316.388 232.013 320.294 232.55L319.513 234.112C316.144 233.551 312.812 231.683 311.408 229.01C310.016 231.695 306.671 233.551 303.302 234.112L302.521 232.55C306.427 232.013 310.407 229.4 310.407 226.3V225.055H312.384V226.3ZM321.271 236.505V238.116H312.287V245.978H310.407V238.116H301.496V236.505H321.271ZM333.698 237.018V239.728H337.653V237.018H339.435V245.685H331.891V237.018H333.698ZM333.698 244.171H337.653V241.192H333.698V244.171ZM345.636 238.727C345.612 241.021 346.979 243.414 349.64 244.391L348.639 245.855C346.637 245.05 345.319 243.524 344.66 241.705C343.964 243.487 342.646 245.025 340.729 245.855L339.728 244.391C342.34 243.316 343.732 240.924 343.732 238.727V236.871H345.636V238.727ZM335.358 225.25C338.263 225.25 340.485 226.898 340.9 229.4H345.441V224.273H347.37V235.772H345.441V230.987H340.924C340.534 233.551 338.3 235.235 335.358 235.235C332.062 235.235 329.718 233.209 329.718 230.23C329.718 227.276 332.062 225.25 335.358 225.25ZM335.358 226.861C333.136 226.861 331.549 228.253 331.549 230.23C331.549 232.232 333.136 233.648 335.358 233.648C337.555 233.648 339.118 232.232 339.118 230.23C339.118 228.253 337.555 226.861 335.358 226.861ZM355.402 237.311V239.85H366.242V237.311H368.17V245.685H353.498V237.311H355.402ZM355.402 244.146H366.242V241.363H355.402V244.146ZM370.758 234.186V235.772H350.983V234.186H370.758ZM361.872 225.543C361.872 228.229 365.827 230.621 369.635 231.109L368.927 232.647C365.558 232.147 362.262 230.426 360.895 227.984C359.503 230.438 356.183 232.147 352.838 232.647L352.106 231.109C355.963 230.597 359.894 228.302 359.894 225.543V224.518H361.872V225.543ZM390.485 224.273V245.978H388.581V224.273H390.485ZM375.885 226.422V238.727C379.193 238.714 382.624 238.446 386.261 237.677L386.53 239.312C382.672 240.118 379.23 240.387 375.763 240.387H374.005V226.422H375.885ZM410.993 224.273V232.867H414.63V234.479H410.993V246.026H409.088V224.273H410.993ZM405.28 226.397V227.984H397.052V238.971C400.983 238.971 403.766 238.788 406.989 238.189L407.233 239.85C403.839 240.46 400.983 240.582 396.857 240.582H395.148V226.397H405.28ZM418.097 244.146C417.243 244.146 416.51 243.438 416.535 242.56C416.51 241.705 417.243 240.997 418.097 240.997C418.952 240.997 419.66 241.705 419.66 242.56C419.66 243.438 418.952 244.146 418.097 244.146Z" fill="#222222" fill-opacity="0.5"/>
</svg>
