<svg width="300" height="200" viewBox="0 0 488 290" fill="none" xmlns="http://www.w3.org/2000/svg">
<circle cx="244" cy="56" r="56" fill="#8F8F8F" fill-opacity="0.3"/>
<path d="M232.112 42.1055V47.7648C232.112 48.7298 233.317 49.5135 234.801 49.5135H249.796C251.279 49.5135 252.484 48.7298 252.484 47.7648V42.1055" stroke="#8F8F8F" stroke-width="5" stroke-miterlimit="10" stroke-linecap="round"/>
<path d="M221 34.8832V77.1167C221 78.1569 221.845 78.9999 222.887 78.9999H265.112C266.154 78.9999 266.999 78.1569 266.999 77.1167V45.6C266.999 45.0997 266.802 44.6236 266.446 44.2688L255.792 33.6399C255.439 33.2881 254.962 33.091 254.464 33.088L222.89 33C221.848 32.997 221 33.84 221 34.8832Z" stroke="#8F8F8F" stroke-width="5" stroke-miterlimit="10"/>
<path d="M128.087 170.994V177.879H131.163V168.592H134.269V193.318H131.163V180.516H128.087V187.781H117.687V170.994H128.087ZM120.733 173.572V185.203H125.04V173.572H120.733ZM139.718 168.123V194.607H136.583V168.123H139.718ZM166.993 188.719V191.385H142.794V188.719H153.224V182.947H145.46V170.174H164.21V182.947H156.446V188.719H166.993ZM148.653 172.781V180.398H160.987V172.781H148.653ZM192.892 180.135V182.596H168.692V180.135H192.892ZM189.962 184.178V190.213H174.786V192.059H190.753V194.314H171.534V188.104H186.739V186.463H171.505V184.178H189.962ZM189.903 168.709V174.686H174.991V176.414H190.372V178.641H171.769V172.576H186.651V170.965H171.681V168.709H189.903ZM223.976 168.123V194.637H220.724V180.164H215.626V177.498H220.724V168.123H223.976ZM211.495 175.154C211.495 179.725 213.956 184.588 218.233 186.434L216.3 189.041C213.224 187.576 211.026 184.632 209.884 181.131C208.697 184.866 206.456 188.016 203.38 189.568L201.417 187.02C205.665 185.027 208.155 179.988 208.185 175.154V173.396H202.501V170.73H217.179V173.396H211.495V175.154ZM237.188 172.898C237.188 176.15 239.298 179.197 243.429 180.457L241.876 183.006C238.902 182.083 236.793 180.193 235.636 177.791C234.464 180.574 232.223 182.786 229.044 183.855L227.403 181.277C231.681 179.871 233.907 176.443 233.907 172.928V172.605H228.312V169.969H242.696V172.605H237.188V172.898ZM248.585 168.123V174.48H252.276V177.146H248.585V183.914H245.333V168.123H248.585ZM239.972 184.5C245.45 184.5 248.819 186.346 248.849 189.51C248.819 192.703 245.45 194.578 239.972 194.578C234.435 194.578 231.007 192.703 231.007 189.51C231.007 186.346 234.435 184.5 239.972 184.5ZM239.972 187.049C236.339 187.049 234.259 187.898 234.259 189.51C234.259 191.15 236.339 192.029 239.972 192.029C243.604 192.029 245.626 191.15 245.626 189.51C245.626 187.898 243.604 187.049 239.972 187.049ZM274.366 168.123V178.67H278.438V181.365H274.366V194.607H271.144V168.123H274.366ZM269.093 172.195V174.803H253.478V172.195H259.747V168.504H262.999V172.195H269.093ZM261.388 176.531C265.196 176.531 268.038 179.109 268.038 182.771C268.038 186.434 265.196 188.982 261.388 188.982C257.521 188.982 254.679 186.434 254.708 182.771C254.679 179.109 257.521 176.531 261.388 176.531ZM261.388 179.197C259.308 179.197 257.813 180.604 257.813 182.771C257.813 184.939 259.308 186.316 261.388 186.287C263.409 186.316 264.903 184.939 264.933 182.771C264.903 180.604 263.409 179.197 261.388 179.197ZM301.729 168.123V183.475H298.478V178.641H293.79V176.033H298.478V173.602H293.79V170.965H298.478V168.123H301.729ZM289.161 171.668C289.161 175.301 291.241 178.934 295.343 180.428L293.468 183.006C290.67 181.907 288.663 179.783 287.55 177.146C286.393 179.974 284.283 182.229 281.28 183.387L279.435 180.809C283.712 179.227 285.88 175.594 285.88 171.668V169.09H289.161V171.668ZM289.249 185.291C289.22 187.532 290.245 189.847 292.53 191.326C294.815 189.729 295.841 187.283 295.87 185.291V184.412H299.063V185.291C299.063 188.045 300.675 190.711 304.22 191.824L302.579 194.256C300.016 193.348 298.316 191.648 297.423 189.51C296.544 191.619 294.962 193.494 292.53 194.461C290.055 193.523 288.473 191.707 287.638 189.568C286.686 191.634 285.03 193.333 282.569 194.256L280.987 191.824C284.415 190.652 286.056 187.898 286.085 185.291V184.412H289.249V185.291ZM330.147 178.348V181.014H326.222V194.549H322.97V168.123H326.222V178.348H330.147ZM309.64 170.701V185.32C313.17 185.262 316.935 184.954 320.919 184.119L321.271 186.873C316.817 187.752 312.569 188.016 308.644 188.016H306.417V170.701H309.64ZM355.606 188.719V191.385H331.407V188.719H337.003V182.01C334.894 180.809 333.619 178.919 333.634 176.561C333.604 172.342 337.765 169.559 343.448 169.559C349.161 169.559 353.321 172.342 353.321 176.561C353.321 178.875 352.091 180.735 350.04 181.951V188.719H355.606ZM343.448 172.137C339.493 172.137 336.798 173.807 336.827 176.561C336.798 179.285 339.493 180.984 343.448 180.984C347.403 180.984 350.128 179.285 350.128 176.561C350.128 173.807 347.403 172.137 343.448 172.137ZM340.226 188.719H346.729V183.182C345.719 183.416 344.62 183.533 343.448 183.533C342.306 183.533 341.222 183.416 340.226 183.211V188.719ZM361.817 185.496C361.847 181.775 362.901 180.633 364.747 179.49C366.007 178.699 366.944 177.703 366.944 176.238C366.944 174.598 365.685 173.543 364.073 173.543C362.608 173.543 361.202 174.48 361.114 176.443H357.452C357.54 172.518 360.499 170.496 364.103 170.496C368.058 170.496 370.782 172.693 370.782 176.18C370.782 178.553 369.581 180.105 367.677 181.248C365.978 182.273 365.274 183.299 365.245 185.496V185.76H361.817V185.496ZM363.634 192.234C362.374 192.234 361.349 191.209 361.349 189.949C361.349 188.719 362.374 187.693 363.634 187.693C364.835 187.693 365.89 188.719 365.89 189.949C365.89 191.209 364.835 192.234 363.634 192.234Z" fill="#222222"/>
<path d="M137.97 244V226.324H140.167V234.186H149.518V226.324H151.74V244H149.518V236.114H140.167V244H137.97ZM160.773 244.269C157.16 244.269 154.718 241.559 154.718 237.433C154.718 233.307 157.16 230.572 160.773 230.572C164.362 230.572 166.779 233.307 166.779 237.433C166.779 241.559 164.362 244.269 160.773 244.269ZM160.773 242.413C163.434 242.413 164.679 240.069 164.679 237.433C164.679 234.796 163.434 232.428 160.773 232.428C158.063 232.428 156.818 234.796 156.818 237.433C156.818 240.069 158.063 242.413 160.773 242.413ZM169.538 244V230.743H171.564V232.818H171.735C172.296 231.402 173.566 230.572 175.299 230.572C177.033 230.572 178.205 231.402 178.839 232.818H178.986C179.669 231.451 181.061 230.572 182.965 230.572C185.333 230.572 187.018 232.013 187.018 235.138V244H184.918V235.162C184.918 233.209 183.673 232.452 182.233 232.452C180.377 232.452 179.328 233.697 179.328 235.382V244H177.204V234.942C177.204 233.453 176.129 232.452 174.616 232.452C173.029 232.452 171.637 233.795 171.637 235.724V244H169.538ZM195.954 244.269C192.121 244.269 189.752 241.559 189.752 237.481C189.752 233.404 192.145 230.572 195.758 230.572C198.542 230.572 201.471 232.281 201.471 237.188V238.067H191.852C191.95 240.875 193.585 242.413 195.954 242.413C197.541 242.413 198.542 241.729 199.03 240.899H201.276C200.641 242.901 198.688 244.269 195.954 244.269ZM191.876 236.285H199.347C199.347 234.063 197.931 232.428 195.758 232.428C193.463 232.428 191.999 234.234 191.876 236.285ZM227.667 224.273V246.026H225.763V233.941H220.563V240.533H210.553V225.982H212.482V231.646H218.683V225.982H220.563V232.354H225.763V224.273H227.667ZM212.482 238.946H218.683V233.185H212.482V238.946ZM251.056 236.31V237.872H231.256V236.31H251.056ZM248.981 243.902V245.514H233.844V239.459H235.749V243.902H248.981ZM248.712 232.745V234.259H233.893V225.104H248.59V226.642H235.822V228.912H248.004V230.401H235.822V232.745H248.712ZM262.775 224.664C267.609 224.664 270.441 225.982 270.441 228.399C270.441 230.865 267.609 232.184 262.775 232.208C257.941 232.184 255.084 230.865 255.084 228.399C255.084 225.982 257.941 224.664 262.775 224.664ZM262.775 226.104C259.162 226.104 257.062 226.983 257.086 228.399C257.062 229.913 259.162 230.743 262.775 230.743C266.364 230.743 268.488 229.913 268.488 228.399C268.488 226.983 266.364 226.104 262.775 226.104ZM272.663 233.673V235.235H252.887V233.673H272.663ZM270.124 237.115V241.974H257.233V244.22H270.783V245.733H255.329V240.558H268.244V238.58H255.28V237.115H270.124ZM298.297 231.598V233.185H283.332V225.396H285.236V231.598H298.297ZM300.641 236.456V238.067H291.559V245.978H289.655V238.067H280.768V236.456H300.641ZM322.248 241.632V243.243H302.375V241.632H322.248ZM319.733 225.934V232.501H306.769V236.065H320.246V237.604H304.865V230.938H317.853V227.521H304.816V225.934H319.733ZM334.967 226.178V228.106H340.045V224.298H341.974V240.143H340.045V234.356H334.967V236.31H325.006V226.178H334.967ZM326.911 227.765V234.771H333.087V227.765H326.911ZM342.462 243.902V245.514H327.936V238.727H329.865V243.902H342.462ZM334.967 232.77H340.045V229.718H334.967V232.77ZM91.0342 256.324H93.6709L99.6279 270.875H99.8477L105.805 256.324H108.441V274H106.366V260.646H106.195L100.702 274H98.749L93.2559 260.646H93.1094V274H91.0342V256.324ZM111.444 270.24C111.444 267.188 114.13 266.505 116.425 266.334C117.267 266.273 119.416 266.163 120.014 266.139V265.064C120.014 263.38 119.013 262.403 117.011 262.403C115.326 262.403 114.325 263.185 114.032 264.186H111.835C112.104 262.062 114.179 260.572 117.108 260.572C118.842 260.572 122.089 261.085 122.089 265.26V274H120.014V272.193H119.916C119.477 273.097 118.256 274.317 115.961 274.317C113.446 274.317 111.444 272.828 111.444 270.24ZM113.544 270.338C113.544 271.729 114.716 272.438 116.327 272.438C118.695 272.438 120.014 270.851 120.014 269.19V267.848L116.669 268.092C114.765 268.214 113.544 268.897 113.544 270.338ZM125.458 274V260.743H127.558V274H125.458ZM126.508 258.546C125.702 258.546 125.043 257.936 125.043 257.154C125.043 256.373 125.702 255.763 126.508 255.763C127.313 255.763 127.997 256.373 127.997 257.154C127.997 257.936 127.313 258.546 126.508 258.546ZM133.002 266.041V274H130.902V260.743H132.929V262.818H133.1C133.734 261.476 134.955 260.572 136.981 260.572C139.667 260.572 141.449 262.208 141.449 265.577V274H139.35V265.724C139.35 263.673 138.227 262.452 136.347 262.452C134.418 262.452 133.002 263.746 133.002 266.041ZM151.361 274V256.324H157.367C161.518 256.324 163.397 258.79 163.397 261.939C163.397 265.064 161.518 267.579 157.392 267.579H153.559V274H151.361ZM153.559 265.626H157.294C160.102 265.626 161.225 264.039 161.225 261.939C161.225 259.815 160.102 258.277 157.27 258.277H153.559V265.626ZM165.546 270.24C165.546 267.188 168.231 266.505 170.526 266.334C171.369 266.273 173.517 266.163 174.115 266.139V265.064C174.115 263.38 173.114 262.403 171.112 262.403C169.428 262.403 168.427 263.185 168.134 264.186H165.937C166.205 262.062 168.28 260.572 171.21 260.572C172.943 260.572 176.19 261.085 176.19 265.26V274H174.115V272.193H174.018C173.578 273.097 172.357 274.317 170.062 274.317C167.548 274.317 165.546 272.828 165.546 270.24ZM167.646 270.338C167.646 271.729 168.817 272.438 170.429 272.438C172.797 272.438 174.115 270.851 174.115 269.19V267.848L170.771 268.092C168.866 268.214 167.646 268.897 167.646 270.338ZM184.931 279.249C181.732 279.249 179.56 277.857 179.315 275.392H181.513C181.806 276.734 183.051 277.418 184.931 277.418C187.201 277.418 188.593 276.441 188.593 274.244V271.559H188.422C187.982 272.291 187.128 273.805 184.564 273.805C181.342 273.805 178.925 271.363 178.925 267.188C178.925 263.111 181.269 260.572 184.589 260.572C187.152 260.572 187.982 262.135 188.471 262.843H188.642V260.743H190.692V274.366C190.692 277.784 188.153 279.249 184.931 279.249ZM184.857 271.925C187.274 271.925 188.642 270.191 188.642 267.262C188.642 264.43 187.323 262.452 184.857 262.452C182.318 262.452 181.049 264.601 181.049 267.262C181.049 270.021 182.343 271.925 184.857 271.925ZM199.604 274.269C195.771 274.269 193.402 271.559 193.402 267.481C193.402 263.404 195.795 260.572 199.408 260.572C202.191 260.572 205.121 262.281 205.121 267.188V268.067H195.502C195.6 270.875 197.235 272.413 199.604 272.413C201.19 272.413 202.191 271.729 202.68 270.899H204.926C204.291 272.901 202.338 274.269 199.604 274.269ZM195.526 266.285H202.997C202.997 264.063 201.581 262.428 199.408 262.428C197.113 262.428 195.648 264.234 195.526 266.285ZM226.923 271.681V273.292H207.05V271.681H215.985V267.579H209.54V260.89H222.528V257.472H209.491V255.885H224.408V262.452H211.444V265.992H224.921V267.579H217.865V271.681H226.923ZM251.728 254.273V262.818H255.365V264.479H251.728V275.978H249.823V254.273H251.728ZM237.738 256.129V261.866H244.086V256.129H245.99V270.777H235.834V256.129H237.738ZM237.738 269.166H244.086V263.404H237.738V269.166ZM276.41 271.681V273.292H256.537V271.681H265.473V267.579H259.027V260.89H272.016V257.472H258.979V255.885H273.896V262.452H260.932V265.992H274.408V267.579H267.353V271.681H276.41ZM302.313 254.273V276.026H300.385V254.273H302.313ZM290.766 255.958C293.988 255.982 296.308 258.912 296.308 263.526C296.308 268.141 293.988 271.07 290.766 271.07C287.519 271.07 285.224 268.141 285.224 263.526C285.224 258.912 287.519 255.982 290.766 255.958ZM290.766 257.667C288.593 257.691 287.079 259.986 287.079 263.526C287.079 267.066 288.593 269.361 290.766 269.361C292.938 269.361 294.452 267.066 294.452 263.526C294.452 259.986 292.938 257.691 290.766 257.667ZM325.824 265.016V266.554H306.024V265.016H314.984V262.477H308.539V255.299H323.358V256.837H310.419V260.914H323.505V262.477H316.84V265.016H325.824ZM315.912 268.141C320.575 268.141 323.358 269.557 323.383 272.047C323.358 274.562 320.575 275.953 315.912 275.978C311.225 275.953 308.417 274.562 308.417 272.047C308.417 269.557 311.225 268.141 315.912 268.141ZM315.912 269.654C312.421 269.654 310.346 270.558 310.37 272.047C310.346 273.561 312.421 274.439 315.912 274.439C319.354 274.439 321.454 273.561 321.454 272.047C321.454 270.558 319.354 269.654 315.912 269.654ZM344.599 254.273V259.84H347.87V261.476H344.599V266.896H342.694V254.273H344.599ZM332.782 267.848V270.167H342.694V267.848H344.599V275.685H330.878V267.848H332.782ZM332.782 274.146H342.694V271.681H332.782V274.146ZM340.619 256.52V258.106H327.68V256.52H333.197V254.078H335.102V256.52H340.619ZM334.149 259.107C337.274 259.107 339.35 260.597 339.374 262.916C339.35 265.235 337.274 266.725 334.149 266.725C331 266.725 328.9 265.235 328.925 262.916C328.9 260.597 331 259.107 334.149 259.107ZM334.149 260.597C332.099 260.572 330.731 261.524 330.756 262.916C330.731 264.332 332.099 265.26 334.149 265.26C336.176 265.26 337.543 264.332 337.567 262.916C337.543 261.524 336.176 260.572 334.149 260.597ZM367.133 254.273V275.978H365.229V254.273H367.133ZM352.533 256.422V268.727C355.841 268.714 359.271 268.446 362.909 267.677L363.178 269.312C359.32 270.118 355.878 270.387 352.411 270.387H350.653V256.422H352.533ZM387.641 254.273V262.867H391.278V264.479H387.641V276.026H385.736V254.273H387.641ZM381.928 256.397V257.984H373.7V268.971C377.631 268.971 380.414 268.788 383.637 268.189L383.881 269.85C380.487 270.46 377.631 270.582 373.505 270.582H371.796V256.397H381.928ZM394.745 274.146C393.891 274.146 393.158 273.438 393.183 272.56C393.158 271.705 393.891 270.997 394.745 270.997C395.6 270.997 396.308 271.705 396.308 272.56C396.308 273.438 395.6 274.146 394.745 274.146Z" fill="#222222" fill-opacity="0.5"/>
</svg>
