<svg width="181" height="62" viewBox="0 0 181 62" fill="none" xmlns="http://www.w3.org/2000/svg">
<g filter="url(#filter0_d_1144_2)">
<rect x="2" y="2" width="173" height="54" rx="10" fill="#F8F8F8"/>
</g>
<path d="M47.457 19.1602V36.6602H45.582V19.1602H47.457ZM42.2422 21.0352C42.2422 26.1523 40.0547 30.6055 34.0586 33.4766L33.082 31.9727C37.7402 29.7559 40.0059 26.6016 40.3672 22.5195H33.9219V21.0352H42.2422ZM56.2656 23.6133C56.2461 26.7188 58.043 29.8828 60.6602 31.1523L59.5078 32.6367C57.6035 31.6504 56.1289 29.6875 55.3672 27.3438C54.5762 29.8438 53.043 31.9336 51.0508 32.9688L49.8984 31.4648C52.5938 30.1758 54.4102 26.8164 54.4102 23.6133V20.625H56.2656V23.6133ZM63.8242 19.1602V26.1328H66.6367V27.7148H63.8242V36.6602H61.9688V19.1602H63.8242ZM86.9102 19.1797V32.4414H85.0547V30.7617H81.5391V29.4531H85.0547V19.1797H86.9102ZM87.3398 34.7852V36.2891H74.7031V31.1523H76.5391V34.7852H87.3398ZM72.2812 27.168C75.5234 27.1484 79.8789 27.1094 83.6094 26.6406L83.7266 27.9688C82.2324 28.2129 80.6602 28.3789 79.1172 28.4766V31.8945H77.2617V28.5742C75.5625 28.6523 73.9316 28.6621 72.5156 28.6523L72.2812 27.168ZM78.0039 19.8438C80.5625 19.8438 82.3398 21.0742 82.3398 22.9297C82.3398 24.7852 80.5625 25.9766 78.0039 25.9766C75.4062 25.9766 73.6484 24.7852 73.6484 22.9297C73.6484 21.0742 75.4062 19.8438 78.0039 19.8438ZM78.0039 21.2305C76.4414 21.2109 75.3867 21.875 75.4062 22.9297C75.3867 23.9648 76.4414 24.6094 78.0039 24.6094C79.5078 24.6094 80.5625 23.9648 80.582 22.9297C80.5625 21.875 79.5078 21.2109 78.0039 21.2305ZM105.641 28.0078V29.5117H98.6875V32.9102H96.8516V29.5117H89.625V28.0078H105.641ZM103.57 19.9805V26.1914H91.6758V19.9805H103.57ZM93.4922 21.4453V24.7266H101.734V21.4453H93.4922ZM103.863 34.7852V36.2891H91.6172V31.25H93.4727V34.7852H103.863ZM127.828 32.9492V34.4922H111.812V32.9492H118.863V29.3555H113.648V20.3516H115.504V23.3594H124.098V20.3516H125.934V29.3555H120.699V32.9492H127.828ZM115.504 27.8516H124.098V24.8633H115.504V27.8516ZM143.648 19.1602V36.6602H141.773V19.1602H143.648ZM138.434 21.0352C138.434 26.1523 136.246 30.6055 130.25 33.4766L129.273 31.9727C133.932 29.7559 136.197 26.6016 136.559 22.5195H130.113V21.0352H138.434Z" fill="#222222"/>
<defs>
<filter id="filter0_d_1144_2" x="0" y="0" width="181" height="62" filterUnits="userSpaceOnUse" color-interpolation-filters="sRGB">
<feFlood flood-opacity="0" result="BackgroundImageFix"/>
<feColorMatrix in="SourceAlpha" type="matrix" values="0 0 0 0 0 0 0 0 0 0 0 0 0 0 0 0 0 0 127 0" result="hardAlpha"/>
<feOffset dx="2" dy="2"/>
<feGaussianBlur stdDeviation="2"/>
<feComposite in2="hardAlpha" operator="out"/>
<feColorMatrix type="matrix" values="0 0 0 0 0 0 0 0 0 0 0 0 0 0 0 0 0 0 0.25 0"/>
<feBlend mode="normal" in2="BackgroundImageFix" result="effect1_dropShadow_1144_2"/>
<feBlend mode="normal" in="SourceGraphic" in2="effect1_dropShadow_1144_2" result="shape"/>
</filter>
</defs>
</svg>
