<svg width="156" height="53" viewBox="0 0 156 53" fill="none" xmlns="http://www.w3.org/2000/svg">
<g filter="url(#filter0_d_1156_4)">
<rect x="2" y="2" width="148" height="45" rx="10" fill="#F8F8F8"/>
</g>
<path d="M63.7305 32H61.4453L66.5234 17.8594H69.0039L74.1016 32H71.8164L70.5273 28.2695H65.0195L63.7305 32ZM65.6445 26.4727H69.9023L67.8125 20.4375H67.7148L65.6445 26.4727ZM78.0469 17.8594V32H75.8984V17.8594H78.0469ZM101.016 29.9297V31.4727H85V29.9297H88.8281V25.3594C87.3926 24.5684 86.5234 23.3086 86.5234 21.7461C86.5234 18.9922 89.2188 17.1758 92.9688 17.1758C96.7383 17.1758 99.4336 18.9922 99.4336 21.7461C99.4336 23.2891 98.5938 24.5293 97.1875 25.3203V29.9297H101.016ZM92.9688 18.6602C90.2148 18.6602 88.3203 19.8516 88.3203 21.7461C88.3203 23.6211 90.2148 24.8516 92.9688 24.8516C95.7031 24.8516 97.6367 23.6211 97.6367 21.7461C97.6367 19.8516 95.7031 18.6602 92.9688 18.6602ZM90.6641 29.9297H95.3125V26.0234C94.5996 26.209 93.8086 26.2969 92.9688 26.2969C92.1484 26.2969 91.3672 26.209 90.6641 26.043V29.9297ZM118.516 18.7188V20.2422H116.035V22.4688H118.516V24.0312H116.035V26.5312H114.18V16.1602H116.035V18.7188H118.516ZM116.035 27.3125V33.6602H114.18V28.8164H104.473V27.3125H116.035ZM107.207 17.1758C109.883 17.1758 111.855 18.8945 111.875 21.3555C111.855 23.8164 109.883 25.5352 107.207 25.5352C104.531 25.5352 102.539 23.8164 102.559 21.3555C102.539 18.8945 104.531 17.1758 107.207 17.1758ZM107.207 18.7578C105.566 18.7578 104.355 19.793 104.375 21.3555C104.355 22.9375 105.566 23.9727 107.207 23.9531C108.848 23.9727 110.059 22.9375 110.059 21.3555C110.059 19.793 108.848 18.7578 107.207 18.7578Z" fill="#222222"/>
<path d="M49.3997 27.9436C46.2244 26.9397 43.8097 24.2749 43.0612 20.9531C42.3126 24.279 39.898 26.9438 36.7227 27.9436L36.6221 27.9767L36.7227 28.0097C39.898 29.0137 42.3126 31.6785 43.0612 35.0002C43.8097 31.6744 46.2244 29.0096 49.3997 28.0097L49.5003 27.9767L49.3997 27.9436Z" fill="#222222"/>
<path d="M40.2359 20.2627C38.437 19.6967 37.0687 18.1845 36.6461 16.3047C36.2236 18.1887 34.8553 19.6967 33.0563 20.2627L33 20.2792L33.0563 20.2957C34.8553 20.8617 36.2236 22.3739 36.6461 24.2537C37.0687 22.3697 38.437 20.8617 40.2359 20.2957L40.2923 20.2792L40.2359 20.2627Z" fill="#222222"/>
<path d="M42.4617 15.3136C41.4114 14.9831 40.6105 14.099 40.365 13C40.1195 14.099 39.3187 14.9831 38.2683 15.3136L38.2361 15.326L38.2683 15.3384C39.3187 15.669 40.1195 16.5531 40.365 17.6521C40.6105 16.5531 41.4114 15.669 42.4617 15.3384L42.4939 15.326L42.4617 15.3136Z" fill="#222222"/>
<defs>
<filter id="filter0_d_1156_4" x="0" y="0" width="156" height="53" filterUnits="userSpaceOnUse" color-interpolation-filters="sRGB">
<feFlood flood-opacity="0" result="BackgroundImageFix"/>
<feColorMatrix in="SourceAlpha" type="matrix" values="0 0 0 0 0 0 0 0 0 0 0 0 0 0 0 0 0 0 127 0" result="hardAlpha"/>
<feOffset dx="2" dy="2"/>
<feGaussianBlur stdDeviation="2"/>
<feComposite in2="hardAlpha" operator="out"/>
<feColorMatrix type="matrix" values="0 0 0 0 0 0 0 0 0 0 0 0 0 0 0 0 0 0 0.25 0"/>
<feBlend mode="normal" in2="BackgroundImageFix" result="effect1_dropShadow_1156_4"/>
<feBlend mode="normal" in="SourceGraphic" in2="effect1_dropShadow_1156_4" result="shape"/>
</filter>
</defs>
</svg>
