<svg width="164" height="54" viewBox="0 0 164 54" fill="none" xmlns="http://www.w3.org/2000/svg">
<line x1="128" y1="20" x2="128" y2="34" stroke="#222222" stroke-width="2" stroke-linecap="round"/>
<line x1="135" y1="27" x2="121" y2="27" stroke="#222222" stroke-width="2" stroke-linecap="round"/>
<path d="M43.0977 19.6094V21.0156H40.5586V24.0625H43.0195V25.4492H37.5312V26.9531H44.6016V28.418H28.6445V26.9531H35.6758V25.4492H30.1875V24.0625H32.668V21.0156H30.1094V19.6094H43.0977ZM42.5898 29.668V33.6133H32.3945V35.0781H43.0781V36.4844H30.5781V32.3047H40.7539V31.0156H30.5586V29.668H42.5898ZM34.5039 24.0625H38.7031V21.0156H34.5039V24.0625ZM54.8164 20.7812V22.3242H48.6641V30.8594C51.5938 30.8496 53.6152 30.7422 55.9102 30.293L56.125 31.8164C53.6055 32.2852 51.4766 32.4023 48.1758 32.4023H46.7891V20.7812H54.8164ZM60.5391 19.1602V36.6992H58.6836V26.9531H53.8203V25.4102H58.6836V19.1602H60.5391ZM84.0547 29.707V31.2305H76.9844V36.6797H75.1484V31.2305H68.0977V29.707H84.0547ZM82.5312 21.2695V22.7734H77.0039C77.1113 24.707 79.748 26.5918 83.0781 27.0117L82.4141 28.4961C79.6016 28.1055 77.209 26.7871 76.0859 25C74.9434 26.8066 72.5312 28.1055 69.7188 28.4961L69.0352 27.0117C72.3652 26.5918 75.0215 24.7461 75.1484 22.7734H69.6016V21.2695H75.1484V19.1602H76.9844V21.2695H82.5312ZM99.0156 19.1602V26.1328H101.73V27.6758H99.0156V36.6406H97.1602V19.1602H99.0156ZM94.4453 20.9961C94.4258 26.0547 92.1992 30.5664 86.4375 33.418L85.4023 31.9727C89.7871 29.7852 92.1699 26.6211 92.5508 22.5391H86.2812V20.9961H94.4453Z" fill="#222222"/>
<rect x="0.5" y="0.5" width="163" height="53" rx="9.5" stroke="#222222" stroke-dasharray="2 2"/>
</svg>
