<svg width="215" height="42" viewBox="0 0 215 42" fill="none" xmlns="http://www.w3.org/2000/svg">
<path d="M1 5.37109H37.0386" stroke="#FF4545" stroke-width="2" stroke-miterlimit="10" stroke-linecap="round"/>
<path d="M29.1397 40.3156H8.89969C7.75345 40.3156 6.79369 39.4729 6.67634 38.3643L3.18457 5.36914H34.8548L31.3631 38.3643C31.2457 39.4729 30.286 40.3156 29.1397 40.3156Z" stroke="#FF4545" stroke-width="2" stroke-miterlimit="10"/>
<path d="M14.5166 1H24.6156C25.4449 1 26.1186 1.68437 26.1186 2.52683V5.36831H13.0137V2.52683C13.0137 1.68437 13.6873 1 14.5166 1Z" stroke="#FF4545" stroke-width="2" stroke-miterlimit="10"/>
<path d="M19.5645 10.8281V35.9459" stroke="#FF4545" stroke-width="2" stroke-miterlimit="10" stroke-linecap="round"/>
<path d="M28.3033 10.8281L26.1191 35.9459" stroke="#FF4545" stroke-width="2" stroke-miterlimit="10" stroke-linecap="round"/>
<path d="M9.73633 10.8281L11.9205 35.9459" stroke="#FF4545" stroke-width="2" stroke-miterlimit="10" stroke-linecap="round"/>
<path d="M89.8721 12.7617V14.5195H86.6982V18.3281H89.7744V20.0615H82.9141V21.9414H91.752V23.7725H71.8057V21.9414H80.5947V20.0615H73.7344V18.3281H76.835V14.5195H73.6367V12.7617H89.8721ZM89.2373 25.335V30.2666H76.4932V32.0977H89.8477V33.8555H74.2227V28.6309H86.9424V27.0195H74.1982V25.335H89.2373ZM79.1299 18.3281H84.3789V14.5195H79.1299V18.3281ZM104.521 14.2266V16.1553H96.8301V26.8242C100.492 26.812 103.019 26.6777 105.888 26.1162L106.156 28.0205C103.007 28.6064 100.346 28.7529 96.2197 28.7529H94.4863V14.2266H104.521ZM111.674 12.2002V34.124H109.354V21.9414H103.275V20.0127H109.354V12.2002H111.674ZM128.715 15.6914C128.715 18.5479 130.717 21.209 134.037 22.3076L132.841 24.1143C130.375 23.2964 128.556 21.5508 127.616 19.3535C126.652 21.7583 124.784 23.6016 122.196 24.5049L121 22.6738C124.442 21.502 126.42 18.6699 126.42 15.4961V13.3232H128.715V15.6914ZM138.31 12.2002V17.8398H141.483V19.793H138.31V25.457H135.99V12.2002H138.31ZM138.31 26.458V34.0752H135.99V28.3379H123.856V26.458H138.31ZM161.503 12.2002V34.0752H159.281V12.2002H161.503ZM157.06 12.6641V32.9766H154.862V21.8438H151.469V19.9395H154.862V12.6641H157.06ZM149.32 18.3037C149.32 22.0391 150.834 25.7744 153.91 27.5566L152.519 29.2656C150.431 28.0205 148.991 25.811 148.246 23.1621C147.453 26.0186 145.963 28.4478 143.827 29.7783L142.411 28.0449C145.512 26.165 147.099 22.1855 147.099 18.3037V16.5459H143.07V14.666H153.08V16.5459H149.32V18.3037ZM181.376 12.2002V21.0625H184.892V22.9912H181.376V34.0752H179.081V12.2002H181.376ZM177.177 15.6182V17.5225H164.213V15.6182H169.608V12.4932H171.928V15.6182H177.177ZM170.78 19.1338C173.905 19.1338 176.2 21.2334 176.225 24.2119C176.2 27.2148 173.905 29.29 170.78 29.3145C167.631 29.29 165.336 27.2148 165.336 24.2119C165.336 21.2334 167.631 19.1338 170.78 19.1338ZM170.78 21.0381C168.925 21.0381 167.533 22.332 167.558 24.2119C167.533 26.1162 168.925 27.3857 170.78 27.3613C172.636 27.3857 174.003 26.1162 174.003 24.2119C174.003 22.332 172.636 21.0381 170.78 21.0381ZM204.13 12.2002V34.0752H201.786V12.2002H204.13ZM197.611 14.5439C197.611 20.9404 194.877 26.5068 187.382 30.0957L186.161 28.2158C191.984 25.4448 194.816 21.502 195.268 16.3994H187.211V14.5439H197.611Z" fill="#FF4545"/>
</svg>
