<svg width="68.4" height="32.4" viewBox="0 0 114 54" fill="none" xmlns="http://www.w3.org/2000/svg">
<rect width="114" height="54" rx="10" fill="#8F8F8F"/>
<path d="M31.9609 34V19.8594H33.7188V26.1484H41.1992V19.8594H42.9766V34H41.1992V27.6914H33.7188V34H31.9609ZM50.2031 34.2148C47.3125 34.2148 45.3594 32.0469 45.3594 28.7461C45.3594 25.4453 47.3125 23.2578 50.2031 23.2578C53.0742 23.2578 55.0078 25.4453 55.0078 28.7461C55.0078 32.0469 53.0742 34.2148 50.2031 34.2148ZM50.2031 32.7305C52.332 32.7305 53.3281 30.8555 53.3281 28.7461C53.3281 26.6367 52.332 24.7422 50.2031 24.7422C48.0352 24.7422 47.0391 26.6367 47.0391 28.7461C47.0391 30.8555 48.0352 32.7305 50.2031 32.7305ZM57.2148 34V23.3945H58.8359V25.0547H58.9727C59.4219 23.9219 60.4375 23.2578 61.8242 23.2578C63.2109 23.2578 64.1484 23.9219 64.6562 25.0547H64.7734C65.3203 23.9609 66.4336 23.2578 67.957 23.2578C69.8516 23.2578 71.1992 24.4102 71.1992 26.9102V34H69.5195V26.9297C69.5195 25.3672 68.5234 24.7617 67.3711 24.7617C65.8867 24.7617 65.0469 25.7578 65.0469 27.1055V34H63.3477V26.7539C63.3477 25.5625 62.4883 24.7617 61.2773 24.7617C60.0078 24.7617 58.8945 25.8359 58.8945 27.3789V34H57.2148ZM78.3477 34.2148C75.2812 34.2148 73.3867 32.0469 73.3867 28.7852C73.3867 25.5234 75.3008 23.2578 78.1914 23.2578C80.418 23.2578 82.7617 24.625 82.7617 28.5508V29.2539H75.0664C75.1445 31.5 76.4531 32.7305 78.3477 32.7305C79.6172 32.7305 80.418 32.1836 80.8086 31.5195H82.6055C82.0977 33.1211 80.5352 34.2148 78.3477 34.2148ZM75.0859 27.8281H81.0625C81.0625 26.0508 79.9297 24.7422 78.1914 24.7422C76.3555 24.7422 75.1836 26.1875 75.0859 27.8281Z" fill="white"/>
</svg>
