<svg width="160" height="40" viewBox="0 0 195 54" fill="none" xmlns="http://www.w3.org/2000/svg">
<rect x="13" width="169" height="54" rx="10" fill="white"/>
<path d="M76.0371 34H71.7129V21.2734H76.1074C79.9043 21.2734 82.207 23.6641 82.207 27.6191C82.207 31.5918 79.9043 34 76.0371 34ZM73.998 32.0137H75.9141C78.5684 32.0137 79.9219 30.5547 79.9219 27.6191C79.9219 24.7012 78.5684 23.2598 75.9844 23.2598H73.998V32.0137ZM88.3594 34.1934C85.4766 34.1934 83.7188 32.2773 83.7188 29.2891C83.7188 26.3359 85.5117 24.332 88.2363 24.332C90.5742 24.332 92.5957 25.791 92.5957 29.1484V29.8516H85.9336C85.96 31.4775 86.918 32.4355 88.377 32.4355C89.3613 32.4355 90.0293 32.0137 90.3105 31.4512H92.5078C92.1035 33.1035 90.5742 34.1934 88.3594 34.1934ZM85.9512 28.3223H90.4512C90.4336 27.0215 89.5723 26.0723 88.2715 26.0723C86.918 26.0723 86.0215 27.1006 85.9512 28.3223ZM96.5859 21.2734V34H94.3359V21.2734H96.5859ZM102.967 34.1934C100.084 34.1934 98.3262 32.2773 98.3262 29.2891C98.3262 26.3359 100.119 24.332 102.844 24.332C105.182 24.332 107.203 25.791 107.203 29.1484V29.8516H100.541C100.567 31.4775 101.525 32.4355 102.984 32.4355C103.969 32.4355 104.637 32.0137 104.918 31.4512H107.115C106.711 33.1035 105.182 34.1934 102.967 34.1934ZM100.559 28.3223H105.059C105.041 27.0215 104.18 26.0723 102.879 26.0723C101.525 26.0723 100.629 27.1006 100.559 28.3223ZM113.707 24.4551V26.1777H111.826V31.1348C111.826 32.0488 112.283 32.2422 112.846 32.2422C113.109 32.2422 113.549 32.2246 113.83 32.207V34.0352C113.566 34.0879 113.127 34.123 112.564 34.123C110.877 34.123 109.576 33.2969 109.594 31.5039V26.1777H108.223V24.4551H109.594V22.1699H111.826V24.4551H113.707ZM119.561 34.1934C116.678 34.1934 114.92 32.2773 114.92 29.2891C114.92 26.3359 116.713 24.332 119.438 24.332C121.775 24.332 123.797 25.791 123.797 29.1484V29.8516H117.135C117.161 31.4775 118.119 32.4355 119.578 32.4355C120.562 32.4355 121.23 32.0137 121.512 31.4512H123.709C123.305 33.1035 121.775 34.1934 119.561 34.1934ZM117.152 28.3223H121.652C121.635 27.0215 120.773 26.0723 119.473 26.0723C118.119 26.0723 117.223 27.1006 117.152 28.3223Z" fill="black"/>
</svg>
