<svg width="169" height="54" viewBox="0 0 169 54" fill="none" xmlns="http://www.w3.org/2000/svg">
<rect width="169" height="54" rx="10" fill="#CFCFCF"/>
<path d="M66.9531 28.7266V30.0156H59.7852V35.6211H58.2812V30.0156H51.1328V28.7266H66.9531ZM59.8047 21.6562C59.8047 23.8242 62.832 25.7188 65.9375 26.1484L65.3711 27.3789C62.6855 26.9688 60.1562 25.6211 59.0625 23.7266C57.9492 25.6406 55.3809 26.9688 52.6953 27.3789L52.1289 26.1484C55.2148 25.7188 58.2812 23.8438 58.2812 21.6562V21.6367H52.6758V20.3867H58.2812V18.2188H59.7852V20.3867H65.4297V21.6367H59.8047V21.6562ZM81.8555 18.2188V25.2891H84.668V26.5781H81.8555V35.582H80.332V18.2188H81.8555ZM77.3633 20.0938C77.3633 25.0156 75.0586 29.4883 69.3945 32.2812L68.5352 31.0703C73.0273 28.834 75.4688 25.4941 75.8203 21.3828H69.3359V20.0938H77.3633ZM99.1406 18.2188V25.3867H102.051V26.6562H99.1406V35.582H97.6172V18.2188H99.1406ZM95.9375 21.0117V22.2812H85.6055V21.0117H90.0781V18.4336H91.6016V21.0117H95.9375ZM90.8594 23.7266C93.3203 23.7266 95.0977 25.3672 95.1172 27.7109C95.0977 30.0547 93.3203 31.6953 90.8594 31.6953C88.3789 31.6953 86.582 30.0547 86.6016 27.7109C86.582 25.3672 88.3789 23.7266 90.8594 23.7266ZM90.8594 25.0156C89.2383 25.0156 88.0469 26.1484 88.0664 27.7109C88.0469 29.293 89.2383 30.4062 90.8594 30.3867C92.4609 30.4062 93.6328 29.293 93.6523 27.7109C93.6328 26.1484 92.4609 25.0156 90.8594 25.0156ZM117.344 18.2188V35.582H115.801V18.2188H117.344ZM112.207 20.1133C112.188 25.1133 109.863 29.5273 104.043 32.3203L103.203 31.0703C107.9 28.8438 110.293 25.5137 110.645 21.3633H104.004V20.1133H112.207Z" fill="#222222"/>
</svg>
