<svg width="255" height="160.2" viewBox="0 0 425 267" fill="none" xmlns="http://www.w3.org/2000/svg">
<circle cx="213" cy="56" r="56" fill="#FF4545" fill-opacity="0.3"/>
<path d="M183 31.1553H242" stroke="#FF4545" stroke-width="3.5" stroke-miterlimit="10" stroke-linecap="round"/>
<path d="M229.069 88.3645H195.934C194.057 88.3645 192.486 86.9847 192.294 85.1698L186.577 31.1523H238.426L232.709 85.1698C232.517 86.9847 230.946 88.3645 229.069 88.3645Z" stroke="#FF4545" stroke-width="3.5" stroke-miterlimit="10"/>
<path d="M205.128 24H221.661C223.019 24 224.122 25.1204 224.122 26.4996V31.1515H202.667V26.4996C202.667 25.1204 203.77 24 205.128 24Z" stroke="#FF4545" stroke-width="3.5" stroke-miterlimit="10"/>
<path d="M213.395 40.0898V81.2111" stroke="#FF4545" stroke-width="3.5" stroke-miterlimit="10" stroke-linecap="round"/>
<path d="M227.702 40.0898L224.126 81.2111" stroke="#FF4545" stroke-width="3.5" stroke-miterlimit="10" stroke-linecap="round"/>
<path d="M197.302 40.0898L200.878 81.2111" stroke="#FF4545" stroke-width="3.5" stroke-miterlimit="10" stroke-linecap="round"/>
<path d="M107.939 155.797V158.229H104.307V162.271H107.793V164.703H99.6777V166.666H110.166V169.215H86.0254V166.666H96.4258V164.703H88.3398V162.271H91.8262V158.229H88.1934V155.797H107.939ZM107.148 170.855V177.066H92.0898V178.941H107.881V181.373H88.8965V174.84H103.955V173.199H88.8672V170.855H107.148ZM95.0781 162.271H101.025V158.229H95.0781V162.271ZM125.342 157.525V160.191H116.523V172.525C120.654 172.496 123.569 172.32 126.865 171.705L127.217 174.342C123.496 175.074 120.303 175.221 115.352 175.221H113.242V157.525H125.342ZM134.189 155.123V181.637H130.938V167.105H123.936V164.439H130.938V155.123H134.189ZM160.732 155.123V181.607H157.598V155.123H160.732ZM155.283 155.592V180.318H152.178V167.721H149.658C149.351 172.877 147.139 176.07 143.857 176.041C140.4 176.07 138.145 172.408 138.145 166.578C138.145 160.748 140.4 157.145 143.857 157.145C147.065 157.145 149.248 160.133 149.629 165.084H152.178V155.592H155.283ZM143.857 160.221C142.188 160.191 141.133 162.447 141.162 166.578C141.133 170.709 142.188 172.965 143.857 172.936C145.615 172.965 146.67 170.709 146.67 166.578C146.67 162.447 145.615 160.191 143.857 160.221ZM180.332 172.35C180.332 174.547 181.343 176.861 183.613 178.297C185.913 176.759 186.982 174.356 187.012 172.35V171.266H190.205V172.35C190.176 175.133 191.816 177.711 195.303 178.824L193.721 181.197C191.143 180.333 189.429 178.648 188.506 176.539C187.656 178.619 186.089 180.479 183.701 181.432C181.182 180.523 179.6 178.736 178.779 176.627C177.827 178.663 176.143 180.318 173.682 181.197L172.07 178.824C175.498 177.623 177.139 174.928 177.168 172.35V171.266H180.332V172.35ZM192.988 155.152V170.152H189.707V155.152H192.988ZM178.545 156.559C182.617 156.559 185.664 159.137 185.664 162.857C185.664 166.549 182.617 169.127 178.545 169.127C174.443 169.127 171.396 166.549 171.396 162.857C171.396 159.137 174.443 156.559 178.545 156.559ZM178.545 159.312C176.23 159.312 174.561 160.689 174.59 162.857C174.561 165.025 176.23 166.432 178.545 166.432C180.83 166.432 182.471 165.025 182.471 162.857C182.471 160.689 180.83 159.312 178.545 159.312ZM218.301 162.623V165.201H199.961V156.09H203.184V162.623H218.301ZM221.025 168.277V170.855H196.826V168.277H221.025ZM218.477 178.355V180.992H199.727V173.199H202.979V178.355H218.477ZM245.02 157.701V160.367H242.471V172.291C243.672 172.188 244.858 172.086 245.986 171.939L246.133 174.283C240.654 175.221 234.531 175.338 229.932 175.338L229.551 172.672L232.744 172.643V160.367H230.225V157.701H245.02ZM250.645 155.123V165.377H254.717V168.043H250.645V181.607H247.393V155.123H250.645ZM235.908 172.584C237.036 172.569 238.179 172.525 239.336 172.467V160.367H235.908V172.584ZM263.33 155.973C267.344 155.973 270.332 158.463 270.361 161.949C270.332 165.465 267.344 167.926 263.33 167.926C259.287 167.926 256.299 165.465 256.299 161.949C256.299 158.463 259.287 155.973 263.33 155.973ZM263.33 158.668C261.104 158.668 259.463 159.928 259.463 161.949C259.463 164 261.104 165.289 263.33 165.289C265.557 165.289 267.197 164 267.197 161.949C267.197 159.928 265.557 158.668 263.33 158.668ZM277.891 155.123V168.512H274.609V155.123H277.891ZM277.891 169.654V176.568H263.564V178.707H278.682V181.285H260.371V174.166H274.639V172.203H260.312V169.654H277.891ZM305.928 165.729V168.307H281.758V165.729H305.928ZM303.057 161.451V164.029H284.834V155.797H302.822V158.404H288.086V161.451H303.057ZM302.881 170.123V176.773H287.822V178.795H303.613V181.344H284.629V174.43H299.688V172.584H284.6V170.123H302.881ZM329.189 167.164V169.742H321.338V175.807H331.885V178.473H307.686V175.807H318.115V169.742H310.615V157.086H328.984V159.693H313.867V167.164H329.189ZM28.2227 211.719V214.385H4.02344V211.719H14.4531V205.947H6.68945V193.174H25.4395V205.947H17.6758V211.719H28.2227ZM9.88281 195.781V203.398H22.2168V195.781H9.88281ZM51.2207 200.703V203.281H33.0859V192.588H50.9277V195.195H36.4258V200.703H51.2207ZM54.1211 206.211V208.848H43.5742V217.549H40.3516V208.848H29.9219V206.211H54.1211ZM72.4902 195.312C72.4609 198.623 74.5996 201.787 78.7305 203.105L77.0898 205.654C74.1016 204.702 72.0068 202.71 70.8789 200.176C69.707 202.9 67.5537 205.024 64.4629 206.064L62.793 203.486C67.0703 202.08 69.209 198.682 69.209 195.049V192.5H72.4902V195.312ZM83.8867 191.123V197.773H87.5781V200.498H83.8867V207.148H80.6348V191.123H83.8867ZM83.8867 208.32V217.607H80.6348V210.928H66.25V208.32H83.8867ZM111.719 191.123V217.607H108.613V191.123H111.719ZM106.328 191.621V216.318H103.252V202.988H99.4434V200.352H103.252V191.621H106.328ZM97.0996 198.359C97.0996 202.842 98.7109 207.324 102.49 209.492L100.557 211.895C98.1104 210.43 96.4844 207.91 95.5762 204.893C94.6387 208.159 92.9541 210.942 90.4492 212.51L88.457 210.078C92.2949 207.764 93.9648 202.959 93.9648 198.359V196.602H89.3652V193.965H101.377V196.602H97.0996V198.359ZM130.615 202.109V204.746H125.254V209.375C127.568 209.272 129.883 209.111 132.08 208.877L132.344 211.279C126.514 212.158 120.391 212.217 115.381 212.217L114.971 209.521C117.153 209.536 119.541 209.536 122.002 209.463V204.746H116.816V193.555H130.498V196.133H120.039V202.109H130.615ZM136.914 191.123V217.637H133.662V191.123H136.914ZM162.227 198.623V201.201H143.887V192.09H147.109V198.623H162.227ZM164.951 204.277V206.855H140.752V204.277H164.951ZM162.402 214.355V216.992H143.652V209.199H146.904V214.355H162.402ZM189.561 191.123V217.607H186.396V191.123H189.561ZM183.994 191.65V216.318H180.947V203.604H175.85V200.938H180.947V191.65H183.994ZM177.666 194.229V196.836H170.781V208.818C173.916 208.789 176.157 208.657 178.75 208.115L179.014 210.781C176.025 211.396 173.389 211.514 169.375 211.543H167.588V194.229H177.666ZM209.248 195.312C209.219 198.623 211.357 201.787 215.488 203.105L213.848 205.654C210.859 204.702 208.765 202.71 207.637 200.176C206.465 202.9 204.312 205.024 201.221 206.064L199.551 203.486C203.828 202.08 205.967 198.682 205.967 195.049V192.5H209.248V195.312ZM220.645 191.123V197.773H224.336V200.498H220.645V207.148H217.393V191.123H220.645ZM220.645 208.32V217.607H217.393V210.928H203.008V208.32H220.645ZM248.477 191.123V217.607H245.371V191.123H248.477ZM243.086 191.621V216.318H240.01V202.988H236.201V200.352H240.01V191.621H243.086ZM233.857 198.359C233.857 202.842 235.469 207.324 239.248 209.492L237.314 211.895C234.868 210.43 233.242 207.91 232.334 204.893C231.396 208.159 229.712 210.942 227.207 212.51L225.215 210.078C229.053 207.764 230.723 202.959 230.723 198.359V196.602H226.123V193.965H238.135V196.602H233.857V198.359ZM272.354 191.123V201.67H276.426V204.365H272.354V217.607H269.131V191.123H272.354ZM267.08 195.195V197.803H251.465V195.195H257.734V191.504H260.986V195.195H267.08ZM259.375 199.531C263.184 199.531 266.025 202.109 266.025 205.771C266.025 209.434 263.184 211.982 259.375 211.982C255.508 211.982 252.666 209.434 252.695 205.771C252.666 202.109 255.508 199.531 259.375 199.531ZM259.375 202.197C257.295 202.197 255.801 203.604 255.801 205.771C255.801 207.939 257.295 209.316 259.375 209.287C261.396 209.316 262.891 207.939 262.92 205.771C262.891 203.604 261.396 202.197 259.375 202.197ZM287.559 197.48C287.529 202.344 290.078 207.207 294.385 209.053L292.451 211.66C289.404 210.254 287.163 207.441 285.947 203.984C284.731 207.72 282.461 210.767 279.238 212.275L277.246 209.551C281.67 207.646 284.248 202.578 284.248 197.48V193.262H287.559V197.48ZM299.57 191.123V217.637H296.289V191.123H299.57ZM315.186 192.998C315.186 194.917 314.907 196.675 314.336 198.271H317.588V191.68H320.664V205.918H317.588V200.879H313.047C311.406 203.428 308.799 205.449 305.195 206.973L303.584 204.541C308.638 202.563 311.26 199.59 311.816 195.635H304.844V192.998H315.186ZM326.113 191.152V206.299H323.008V191.152H326.113ZM313.076 208.525C313.047 210.737 314.058 213.037 316.328 214.502C318.628 212.92 319.668 210.503 319.697 208.525V207.119H322.891V208.525C322.891 211.279 324.531 213.945 328.018 215.029L326.436 217.432C323.843 216.538 322.144 214.824 321.221 212.686C320.371 214.795 318.818 216.655 316.387 217.637C313.882 216.699 312.314 214.883 311.494 212.744C310.557 214.81 308.887 216.523 306.426 217.432L304.785 215.029C308.242 213.857 309.941 211.104 309.941 208.525V207.119H313.076V208.525ZM335.518 207.002V209.521H347.178V207.002H350.43V217.285H332.295V207.002H335.518ZM335.518 214.707H347.178V212.012H335.518V214.707ZM353.535 202.842V205.508H329.395V202.842H353.535ZM343.135 192.412C343.135 195.254 346.768 198.242 352.246 198.887L351.104 201.465C346.665 200.864 343.164 198.901 341.465 196.221C339.751 198.916 336.235 200.864 331.826 201.465L330.625 198.887C336.162 198.213 339.766 195.342 339.795 192.412V191.416H343.135V192.412ZM377.412 191.123V217.607H374.189V191.123H377.412ZM360.068 193.701V208.174C363.789 208.115 367.744 207.778 371.816 206.973L372.227 209.697C367.568 210.664 363.232 210.957 359.131 210.957H356.846V193.701H360.068ZM402.373 191.123V201.699H406.035V204.395H402.373V217.607H399.092V191.123H402.373ZM389.189 193.906C389.16 200.85 388.193 206.709 383.418 211.865L380.869 210.02C384.604 206.064 385.82 201.875 386.084 196.572H381.924V193.906H389.189ZM396.514 193.906C396.484 201.025 395.752 207.822 390.977 213.564L388.369 211.777C392.148 207.28 393.203 202.314 393.438 196.572H390.068V193.906H396.514ZM411.66 208.496C411.689 204.775 412.744 203.633 414.59 202.49C415.85 201.699 416.787 200.703 416.787 199.238C416.787 197.598 415.527 196.543 413.916 196.543C412.451 196.543 411.045 197.48 410.957 199.443H407.295C407.383 195.518 410.342 193.496 413.945 193.496C417.9 193.496 420.625 195.693 420.625 199.18C420.625 201.553 419.424 203.105 417.52 204.248C415.82 205.273 415.117 206.299 415.088 208.496V208.76H411.66V208.496ZM413.477 215.234C412.217 215.234 411.191 214.209 411.191 212.949C411.191 211.719 412.217 210.693 413.477 210.693C414.678 210.693 415.732 211.719 415.732 212.949C415.732 214.209 414.678 215.234 413.477 215.234Z" fill="#222222"/>
<path d="M42.9077 244.765C42.8833 247.719 45.1294 250.429 48.3276 251.527L47.3267 253.041C44.873 252.162 42.9565 250.319 42.0044 248.012C41.0889 250.563 39.1357 252.528 36.5601 253.48L35.5591 251.942C38.8306 250.771 41.0034 247.938 41.0278 244.643V242.396H42.9077V244.765ZM52.5757 241.273V247.035H55.8472V248.671H52.5757V254.433H50.6714V241.273H52.5757ZM52.5757 255.507V262.978H50.6714V257.069H38.3667V255.507H52.5757ZM75.769 241.273V262.978H73.938V241.273H75.769ZM71.3745 241.811V261.854H69.5679V250.673H65.9058V249.11H69.5679V241.811H71.3745ZM63.5864 247.475C63.5864 251.234 65.271 254.97 68.2739 256.703L67.1021 258.119C64.9658 256.837 63.4521 254.494 62.7075 251.723C61.9141 254.713 60.3394 257.265 58.1665 258.632L56.9458 257.191C59.9731 255.385 61.731 251.43 61.731 247.475V245.424H57.5562V243.837H67.5659V245.424H63.5864V247.475ZM95.6177 241.273V250.233H99.2554V251.82H95.6177V262.978H93.7134V241.273H95.6177ZM91.6138 244.765V246.352H78.6987V244.765H84.2896V241.542H86.1938V244.765H91.6138ZM85.2661 248.158C88.3423 248.158 90.564 250.209 90.5884 253.139C90.564 256.068 88.3423 258.119 85.2661 258.119C82.1655 258.119 79.9194 256.068 79.9438 253.139C79.9194 250.209 82.1655 248.158 85.2661 248.158ZM85.2661 249.77C83.2397 249.77 81.7505 251.186 81.7749 253.139C81.7505 255.116 83.2397 256.508 85.2661 256.483C87.2681 256.508 88.7329 255.116 88.7573 253.139C88.7329 251.186 87.2681 249.77 85.2661 249.77ZM118.323 241.273V252.528H116.443V241.273H118.323ZM118.347 253.627V258.827H106.165V261.171H119.128V262.733H104.285V257.338H116.443V255.165H104.236V253.627H118.347ZM108.118 243.568C108.093 246.645 110.437 249.354 113.66 250.404L112.708 251.894C110.168 251.027 108.142 249.208 107.166 246.864C106.189 249.391 104.15 251.381 101.575 252.309L100.574 250.795C103.845 249.647 106.165 246.767 106.165 243.568V241.908H108.118V243.568ZM146.301 241.298V254.335H144.373V251.405H138.611V249.818H144.373V246.889H138.831C137.402 250.38 134.045 252.907 129.407 254.286L128.601 252.772C133.85 251.21 137.109 248.28 137.512 244.521H129.7V242.909H139.587C139.587 243.764 139.49 244.582 139.319 245.351H144.373V241.298H146.301ZM139.197 254.555C143.591 254.555 146.423 256.117 146.423 258.705C146.423 261.317 143.591 262.88 139.197 262.88C134.753 262.88 131.946 261.317 131.946 258.705C131.946 256.117 134.753 254.555 139.197 254.555ZM139.197 256.093C135.925 256.068 133.826 257.069 133.826 258.705C133.826 260.341 135.925 261.317 139.197 261.317C142.419 261.317 144.495 260.341 144.519 258.705C144.495 257.069 142.419 256.068 139.197 256.093ZM169.763 253.725V255.336H160.706V262.978H158.826V255.336H149.89V253.725H169.763ZM159.778 242.152C164.343 242.152 167.419 243.983 167.419 246.938C167.419 249.818 164.343 251.649 159.778 251.649C155.212 251.649 152.136 249.818 152.136 246.938C152.136 243.983 155.212 242.152 159.778 242.152ZM159.778 243.715C156.384 243.715 154.089 244.984 154.114 246.938C154.089 248.866 156.384 250.111 159.778 250.111C163.147 250.111 165.466 248.866 165.466 246.938C165.466 244.984 163.147 243.715 159.778 243.715ZM197.571 252.504V254.091H177.795V252.504H186.731V249.892H180.432V241.786H182.336V244.301H193.079V241.786H194.983V249.892H188.635V252.504H197.571ZM195.129 256.239V262.978H193.201V257.777H179.993V256.239H195.129ZM182.336 248.354H193.079V245.766H182.336V248.354ZM216.565 242.689V244.594C216.565 246.657 216.565 248.891 215.955 252.016H219.177V253.603H210.217V263.026H208.289V253.603H199.402V252.016H214.001C214.661 248.891 214.661 246.608 214.661 244.594V244.276H201.892V242.689H216.565ZM237.805 241.273V250.233H241.443V251.82H237.805V262.978H235.901V241.273H237.805ZM233.801 244.765V246.352H220.886V244.765H226.477V241.542H228.381V244.765H233.801ZM227.454 248.158C230.53 248.158 232.751 250.209 232.776 253.139C232.751 256.068 230.53 258.119 227.454 258.119C224.353 258.119 222.107 256.068 222.131 253.139C222.107 250.209 224.353 248.158 227.454 248.158ZM227.454 249.77C225.427 249.77 223.938 251.186 223.962 253.139C223.938 255.116 225.427 256.508 227.454 256.483C229.456 256.508 230.92 255.116 230.945 253.139C230.92 251.186 229.456 249.77 227.454 249.77ZM260.51 241.273V252.528H258.63V241.273H260.51ZM260.535 253.627V258.827H248.352V261.171H261.316V262.733H246.472V257.338H258.63V255.165H246.423V253.627H260.535ZM250.305 243.568C250.281 246.645 252.625 249.354 255.847 250.404L254.895 251.894C252.356 251.027 250.33 249.208 249.353 246.864C248.376 249.391 246.338 251.381 243.762 252.309L242.761 250.795C246.033 249.647 248.352 246.767 248.352 243.568V241.908H250.305V243.568ZM281.384 243.3C281.384 246.352 285.388 249.013 289.294 249.55L288.513 251.112C285.144 250.551 281.812 248.683 280.408 246.01C279.016 248.695 275.671 250.551 272.302 251.112L271.521 249.55C275.427 249.013 279.407 246.4 279.407 243.3V242.055H281.384V243.3ZM290.271 253.505V255.116H281.287V262.978H279.407V255.116H270.496V253.505H290.271ZM302.698 254.018V256.728H306.653V254.018H308.435V262.685H300.891V254.018H302.698ZM302.698 261.171H306.653V258.192H302.698V261.171ZM314.636 255.727C314.612 258.021 315.979 260.414 318.64 261.391L317.639 262.855C315.637 262.05 314.319 260.524 313.66 258.705C312.964 260.487 311.646 262.025 309.729 262.855L308.728 261.391C311.34 260.316 312.732 257.924 312.732 255.727V253.871H314.636V255.727ZM304.358 242.25C307.263 242.25 309.485 243.898 309.9 246.4H314.441V241.273H316.37V252.772H314.441V247.987H309.924C309.534 250.551 307.3 252.235 304.358 252.235C301.062 252.235 298.718 250.209 298.718 247.23C298.718 244.276 301.062 242.25 304.358 242.25ZM304.358 243.861C302.136 243.861 300.549 245.253 300.549 247.23C300.549 249.232 302.136 250.648 304.358 250.648C306.555 250.648 308.118 249.232 308.118 247.23C308.118 245.253 306.555 243.861 304.358 243.861ZM324.402 254.311V256.85H335.242V254.311H337.17V262.685H322.498V254.311H324.402ZM324.402 261.146H335.242V258.363H324.402V261.146ZM339.758 251.186V252.772H319.983V251.186H339.758ZM330.872 242.543C330.872 245.229 334.827 247.621 338.635 248.109L337.927 249.647C334.558 249.147 331.262 247.426 329.895 244.984C328.503 247.438 325.183 249.147 321.838 249.647L321.106 248.109C324.963 247.597 328.894 245.302 328.894 242.543V241.518H330.872V242.543ZM359.485 241.273V262.978H357.581V241.273H359.485ZM344.885 243.422V255.727C348.193 255.714 351.624 255.446 355.261 254.677L355.53 256.312C351.672 257.118 348.23 257.387 344.763 257.387H343.005V243.422H344.885ZM379.993 241.273V249.867H383.63V251.479H379.993V263.026H378.088V241.273H379.993ZM374.28 243.397V244.984H366.052V255.971C369.983 255.971 372.766 255.788 375.989 255.189L376.233 256.85C372.839 257.46 369.983 257.582 365.857 257.582H364.148V243.397H374.28ZM387.097 261.146C386.243 261.146 385.51 260.438 385.535 259.56C385.51 258.705 386.243 257.997 387.097 257.997C387.952 257.997 388.66 258.705 388.66 259.56C388.66 260.438 387.952 261.146 387.097 261.146Z" fill="#222222" fill-opacity="0.5"/>
</svg>