<svg width="22" height="25" viewBox="0 0 27 25" fill="none" xmlns="http://www.w3.org/2000/svg">
        <path d="M24.862 11.2266V7.45654C24.862 3.90576 22.254 1 19.067 1H8.00633C4.81938 1 2.21135 3.90576 2.21135 7.45654V11.2266L1 9.71516" stroke="black" stroke-width="1.5" stroke-miterlimit="10"/>
        <path d="M2.13647 14.6348V17.9859C2.13647 21.1422 4.74471 23.7251 7.93192 23.7251H18.9935C22.1807 23.7251 24.789 21.1422 24.789 17.9859V14.6348L25.9985 15.9783" stroke="black" stroke-width="1.5" stroke-miterlimit="10"/>
        <path d="M15.7529 9.67285C15.665 8.76465 14.8887 8.2373 13.7461 8.2373C12.5449 8.2373 11.8125 8.82324 11.8125 9.61426C11.8125 10.5078 12.75 10.874 13.6289 11.0791L14.625 11.3428C16.207 11.709 17.7305 12.5439 17.7305 14.3896C17.7305 16.25 16.2656 17.5244 13.7168 17.5244C11.2412 17.5244 9.68848 16.3379 9.60059 14.2432H11.4756C11.5635 15.3564 12.501 15.8984 13.7021 15.8984C14.9619 15.8984 15.8262 15.2832 15.8262 14.375C15.8262 13.54 15.0498 13.1885 13.9072 12.8955L12.7061 12.5879C10.9629 12.1338 9.87891 11.2549 9.87891 9.73145C9.87891 7.85645 11.5488 6.61133 13.7754 6.61133C16.0312 6.61133 17.5547 7.88574 17.584 9.67285H15.7529Z" fill="black"/>
        <line x1="13.75" y1="4.36328" x2="13.75" y2="21.0286" stroke="black" stroke-width="1.5"/>
        </svg>