<svg width="401.6" height="53" viewBox="0 0 502 66" fill="none" xmlns="http://www.w3.org/2000/svg">
<rect x="0.5" y="0.5" width="501" height="65" rx="9.5" fill="#5B5B5B" stroke="#222222"/>
<path d="M237.898 39.3633V41.6094H217.732V39.3633H226.424V35.7744H220.125V28.5479H232.82V25.8135H220.076V23.6162H235.506V30.6963H222.835V33.5527H236.019V35.7744H229.109V39.3633H237.898ZM256.893 24.251V26.7412C256.893 29.6953 256.893 32.7471 256.087 37.3857L253.328 37.1416C254.183 32.7959 254.183 29.5977 254.183 26.7412V26.4482H241.463V24.251H256.893ZM259.456 38.9238V41.1455H239.339V38.9238H259.456ZM279.329 22.127V38.0693H276.595V22.127H279.329ZM279.939 41.5361V43.7334H264.729V36.458H267.464V41.5361H279.939ZM267.293 23.5674C270.638 23.5674 273.226 25.8867 273.226 29.085C273.226 32.3564 270.638 34.627 267.293 34.627C263.924 34.627 261.336 32.3564 261.336 29.085C261.336 25.8867 263.924 23.5674 267.293 23.5674ZM267.293 25.9355C265.413 25.9355 263.973 27.1807 263.997 29.085C263.973 31.0381 265.413 32.2588 267.293 32.2588C269.124 32.2588 270.564 31.0381 270.564 29.085C270.564 27.1807 269.124 25.9355 267.293 25.9355Z" fill="white"/>
</svg>
