<svg width="464" height="47" viewBox="0 0 464 47" fill="none" xmlns="http://www.w3.org/2000/svg">
<path d="M20.6627 0C9.25045 0 0 9.25045 0 20.6627C0 32.075 8.53979 40.5909 19.331 41.2777C19.331 41.2777 20.6687 41.63 20.6687 42.6751V45.3983C20.6687 46.4851 21.7257 47.2555 22.7589 46.9211C28.0081 45.2311 41.3314 39.1158 41.3314 20.6567C41.3195 9.25045 32.069 0 20.6627 0Z" fill="#222222"/>
<path d="M14.7213 32C14.5373 32 14.3763 31.908 14.3303 31.724L8.39627 15.532C8.30427 15.302 8.41927 15.118 8.69527 15.118H12.8353C13.0423 15.118 13.2033 15.21 13.2493 15.417L16.2623 24.893L19.2063 15.417C19.2753 15.21 19.4133 15.118 19.6203 15.118H22.4723C22.6563 15.118 22.7943 15.21 22.8633 15.417L26.0373 24.916L28.8203 15.417C28.8893 15.21 29.0273 15.118 29.2343 15.118H33.3053C33.5583 15.118 33.6963 15.302 33.6043 15.532L27.6703 31.724C27.6013 31.908 27.4633 32 27.2563 32H24.3813C24.1973 32 24.0593 31.908 23.9903 31.701L21.0003 22.041L17.9873 31.701C17.9413 31.908 17.8033 32 17.5963 32H14.7213Z" fill="#E9E9E9"/>
<path d="M60.7266 32L56.3438 16.4453H59.3516L62.166 27.8965H62.3164L65.3027 16.4453H68.0527L71.0605 27.918H71.1895L74.0039 16.4453H77.0117L72.6289 32H69.8574L66.7422 21.0645H66.6348L63.498 32H60.7266ZM81.416 25.168V32H78.666V16.4453H81.3516V22.3105H81.502C82.0391 21 83.1562 20.1836 84.9609 20.1836C87.3887 20.1836 88.9785 21.752 88.9785 24.5664V32H86.25V24.9961C86.25 23.4062 85.3906 22.5039 83.9512 22.5039C82.4688 22.5039 81.416 23.4707 81.416 25.168ZM91.041 28.7129C91.041 26.0918 93.2109 25.3184 95.3809 25.1895C96.1865 25.1357 97.8623 25.0391 98.3672 25.0176V24.0938C98.3672 22.9336 97.6152 22.2676 96.2617 22.2676C95.0371 22.2676 94.2852 22.8262 94.0703 23.6641H91.4277C91.6211 21.6875 93.4043 20.1836 96.3262 20.1836C98.5391 20.1836 101.096 21.0859 101.096 24.2012V32H98.4746V30.3887H98.3887C97.873 31.377 96.7773 32.2363 94.9512 32.2363C92.7168 32.2363 91.041 31.0117 91.041 28.7129ZM93.6836 28.6914C93.6836 29.7012 94.5 30.2168 95.6602 30.2168C97.3145 30.2168 98.3887 29.1211 98.3887 27.8105V26.8438L95.8105 27.0156C94.5 27.123 93.6836 27.6602 93.6836 28.6914ZM109.496 20.334V22.4395H107.197V28.498C107.197 29.6152 107.756 29.8516 108.443 29.8516C108.766 29.8516 109.303 29.8301 109.646 29.8086V32.043C109.324 32.1074 108.787 32.1504 108.1 32.1504C106.037 32.1504 104.447 31.1406 104.469 28.9492V22.4395H102.793V20.334H104.469V17.541H107.197V20.334H109.496ZM115.512 16.4668L113.707 22.4824H111.666L112.783 16.4668H115.512ZM122.73 23.6641C122.559 22.7832 121.828 22.2246 120.668 22.2246C119.486 22.2246 118.627 22.8047 118.648 23.5996C118.627 24.2012 119.121 24.6523 120.303 24.9316L122.279 25.3398C124.492 25.834 125.545 26.8438 125.566 28.5195C125.545 30.7109 123.633 32.2363 120.582 32.2363C117.617 32.2363 115.855 30.9043 115.576 28.6699H118.369C118.541 29.6582 119.314 30.1523 120.582 30.1523C121.893 30.1523 122.773 29.6152 122.773 28.7559C122.773 28.0898 122.236 27.6602 121.076 27.4023L119.207 26.9941C117.037 26.5645 115.92 25.4258 115.92 23.75C115.92 21.6016 117.768 20.1836 120.625 20.1836C123.418 20.1836 125.137 21.5371 125.33 23.6641H122.73ZM143.42 21.4082C142.926 19.7539 141.637 18.7441 139.746 18.7441C137.232 18.7441 135.428 20.6992 135.428 24.2012C135.428 27.7461 137.211 29.7012 139.811 29.7012C142.152 29.7012 143.656 28.2832 143.699 26.0703H140.09V23.8574H146.406V25.7266C146.406 29.7227 143.656 32.2148 139.811 32.2148C135.514 32.2148 132.613 29.1641 132.613 24.2227C132.613 19.2383 135.643 16.2305 139.725 16.2305C143.162 16.2305 145.805 18.3574 146.277 21.4082H143.42ZM153.904 32.2363C150.51 32.2363 148.318 29.8301 148.318 26.2207C148.318 22.5898 150.51 20.1836 153.904 20.1836C157.32 20.1836 159.49 22.5898 159.49 26.2207C159.49 29.8301 157.32 32.2363 153.904 32.2363ZM153.926 30.0449C155.795 30.0449 156.719 28.3477 156.719 26.1992C156.719 24.0723 155.795 22.3535 153.926 22.3535C152.014 22.3535 151.09 24.0723 151.09 26.1992C151.09 28.3477 152.014 30.0449 153.926 30.0449ZM161.617 32V20.334H164.367V32H161.617ZM163.014 18.6797C162.154 18.6797 161.424 18.0137 161.424 17.1758C161.424 16.3594 162.154 15.6934 163.014 15.6934C163.895 15.6934 164.604 16.3594 164.604 17.1758C164.604 18.0137 163.895 18.6797 163.014 18.6797ZM169.738 25.168V32H166.988V20.334H169.609V22.3105H169.76C170.297 21 171.479 20.1836 173.219 20.1836C175.646 20.1836 177.236 21.7734 177.215 24.5664V32H174.486V24.9961C174.486 23.4277 173.648 22.5039 172.209 22.5039C170.748 22.5039 169.738 23.4707 169.738 25.168ZM184.928 36.6191C181.834 36.6191 179.879 35.2441 179.686 33.0527H182.414C182.607 34.0625 183.574 34.5566 184.971 34.5566C186.604 34.5566 187.678 33.8477 187.678 32.1289V29.8945H187.549C187.119 30.7539 186.195 31.8281 184.176 31.8281C181.49 31.8281 179.363 29.873 179.363 26.0703C179.363 22.2246 181.49 20.1836 184.197 20.1836C186.26 20.1836 187.119 21.4082 187.549 22.2461H187.678V20.334H190.385V32.1934C190.385 35.1797 188.086 36.6191 184.928 36.6191ZM184.928 29.6797C186.689 29.6797 187.699 28.3477 187.699 26.1133C187.699 23.9004 186.711 22.418 184.928 22.418C183.102 22.418 182.156 23.9863 182.156 26.1133C182.156 28.2617 183.123 29.6797 184.928 29.6797ZM212.234 24.2227C212.234 29.25 209.184 32.2148 205.102 32.2148C201.02 32.2148 197.969 29.2285 197.969 24.2227C197.969 19.1953 201.02 16.2305 205.102 16.2305C209.184 16.2305 212.234 19.1953 212.234 24.2227ZM209.42 24.2227C209.42 20.6777 207.637 18.7441 205.102 18.7441C202.566 18.7441 200.783 20.6777 200.783 24.2227C200.783 27.7676 202.566 29.7012 205.102 29.7012C207.637 29.7012 209.42 27.7676 209.42 24.2227ZM217.348 25.168V32H214.598V20.334H217.219V22.3105H217.369C217.906 21 219.088 20.1836 220.828 20.1836C223.256 20.1836 224.846 21.7734 224.824 24.5664V32H222.096V24.9961C222.096 23.4277 221.258 22.5039 219.818 22.5039C218.357 22.5039 217.348 23.4707 217.348 25.168Z" fill="#222222"/>
</svg>
