<svg width="68.4" height="32.4" viewBox="0 0 114 54" fill="none" xmlns="http://www.w3.org/2000/svg">
<rect width="114" height="54" rx="10" fill="#FF4545"/>
<path d="M46.2578 21.0117C46.2383 23.375 48.0352 25.543 50.5938 26.4219L49.793 27.6328C47.8301 26.9297 46.2969 25.4551 45.5352 23.6094C44.8027 25.6504 43.2402 27.2227 41.1797 27.9844L40.3789 26.7539C42.9961 25.8164 44.7344 23.5508 44.7539 20.9141V19.1172H46.2578V21.0117ZM53.9922 18.2188V22.8281H56.6094V24.1367H53.9922V28.7461H52.4688V18.2188H53.9922ZM53.9922 29.6055V35.582H52.4688V30.8555H42.625V29.6055H53.9922ZM72.5469 18.2188V35.582H71.082V18.2188H72.5469ZM69.0312 18.6484V34.6836H67.5859V25.7383H64.6562V24.4883H67.5859V18.6484H69.0312ZM62.8008 23.1797C62.8008 26.1875 64.1484 29.1758 66.5508 30.5625L65.6133 31.6953C63.9043 30.6699 62.6934 28.7949 62.0977 26.5781C61.4629 28.9707 60.2031 31.0117 58.4648 32.1055L57.4883 30.9531C59.9102 29.5078 61.3164 26.3438 61.3164 23.1797V21.5391H57.9766V20.2695H65.9844V21.5391H62.8008V23.1797Z" fill="white"/>
</svg>
