<svg width="114" height="54" viewBox="0 0 114 54" fill="none" xmlns="http://www.w3.org/2000/svg">
<rect width="114" height="54" rx="10" fill="#FF4545"/>
<path d="M45.2578 21.0117C45.2383 23.375 47.0352 25.543 49.5938 26.4219L48.793 27.6328C46.8301 26.9297 45.2969 25.4551 44.5352 23.6094C43.8027 25.6504 42.2402 27.2227 40.1797 27.9844L39.3789 26.7539C41.9961 25.8164 43.7344 23.5508 43.7539 20.9141V19.1172H45.2578V21.0117ZM52.9922 18.2188V22.8281H55.6094V24.1367H52.9922V28.7461H51.4688V18.2188H52.9922ZM52.9922 29.6055V35.582H51.4688V30.8555H41.625V29.6055H52.9922ZM71.5469 18.2188V35.582H70.082V18.2188H71.5469ZM68.0312 18.6484V34.6836H66.5859V25.7383H63.6562V24.4883H66.5859V18.6484H68.0312ZM61.8008 23.1797C61.8008 26.1875 63.1484 29.1758 65.5508 30.5625L64.6133 31.6953C62.9043 30.6699 61.6934 28.7949 61.0977 26.5781C60.4629 28.9707 59.2031 31.0117 57.4648 32.1055L56.4883 30.9531C58.9102 29.5078 60.3164 26.3438 60.3164 23.1797V21.5391H56.9766V20.2695H64.9844V21.5391H61.8008V23.1797Z" fill="white"/>
</svg>
