<svg width="114" height="54" viewBox="0 0 114 54" fill="none" xmlns="http://www.w3.org/2000/svg">
<rect x="0.5" y="0.5" width="113" height="53" rx="9.5" stroke="#CFCFCF"/>
<path d="M46.9609 21.5C46.9609 23.2578 48.6992 24.7422 51.1602 25.2891L50.5352 26.5195C48.5332 26.0312 46.9902 24.9668 46.2383 23.5508C45.4863 25.084 43.9238 26.2461 41.8633 26.7539L41.1992 25.5234C43.6992 24.9766 45.4375 23.3555 45.4375 21.5V21.4219H41.5703V20.2109H45.4375V18.2773H46.9609V20.2109H50.8281V21.4219H46.9609V21.5ZM54.7344 18.2383V35.6016H53.2305V18.2383H54.7344ZM40.3789 27.9844C43.6992 27.9844 48.1133 27.9453 51.9609 27.457L52.0586 28.5703C50.3984 28.8438 48.6797 29.0098 47 29.0977V35.0742H45.4766V29.1758C43.7188 29.2637 42.0488 29.2734 40.5938 29.2734L40.3789 27.9844ZM73.6016 32.0469V33.3164H57.7031V32.0469H64.8125V27.7891H66.3164V32.0469H73.6016ZM66.3555 20.7383C66.3555 23.6484 69.793 26.1875 72.8203 26.7148L72.1367 27.9844C69.4902 27.4473 66.6973 25.6504 65.5742 23.1406C64.4316 25.6406 61.6582 27.4473 59.0117 27.9844L58.3281 26.7148C61.3555 26.1875 64.7539 23.6484 64.7539 20.7383V19.4102H66.3555V20.7383Z" fill="#222222"/>
</svg>
