<svg width="150.4" height="41" viewBox="0 0 188 51" fill="none" xmlns="http://www.w3.org/2000/svg">
<rect x="0.5" y="0.5" width="187" height="50" rx="14.5" fill="white" stroke="#222222"/>
<path d="M86.3828 17.4219V19.5459H81.8174C81.8662 21.4502 83.6118 23.147 86.8711 23.7939L85.7969 25.8936C83.27 25.3687 81.4756 24.1846 80.499 22.5977C79.5347 24.3311 77.728 25.6372 75.1279 26.1865L73.9805 24.0869C77.2886 23.4399 79.0464 21.5723 79.083 19.5459H74.542V17.4219H79.1074V15.1514H81.8174V17.4219H86.3828ZM91.583 15.127V37.1484H88.8975V15.127H91.583ZM73.1504 27.334C77.252 27.334 82.7451 27.3096 87.457 26.7236L87.6523 28.6768C85.748 29.0063 83.7705 29.2139 81.8418 29.3359V36.4893H79.1074V29.4824C77.0933 29.5679 75.1768 29.5801 73.4922 29.5801L73.1504 27.334ZM114.898 32.2412V34.4385H94.7324V32.2412H103.375V27.1387H106.061V32.2412H114.898ZM106.134 18.0566C106.134 21.4014 109.479 24.6973 114.117 25.4297L112.945 27.6758C109.21 26.9678 106.158 24.8315 104.693 21.9385C103.229 24.8193 100.201 26.9922 96.4902 27.6758L95.3184 25.4297C99.9326 24.6973 103.229 21.377 103.253 18.0566V16.4453H106.134V18.0566Z" fill="#222222"/>
</svg>
