<svg width="150.4" height="41" viewBox="0 0 188 51" fill="none" xmlns="http://www.w3.org/2000/svg">
<rect x="0.5" y="0.5" width="187" height="50" rx="14.5" fill="white" stroke="#222222"/>
<path d="M90.4111 15.1025V23.7207H93.6826V25.9912H90.4111V37.124H87.7012V15.1025H90.4111ZM84.5762 17.3975C84.5762 23.8916 81.8906 29.5801 74.542 33.1934L73.0039 31.0938C78.375 28.4204 81.2803 24.6606 81.8418 19.6436H74.2002V17.3975H84.5762ZM113.116 15.1025V26.9434H110.382V15.1025H113.116ZM101.202 27.9688V30.2393H110.406V27.9688H113.116V36.9043H98.5166V27.9688H101.202ZM101.202 34.707H110.406V32.3633H101.202V34.707ZM101.08 16.0791C104.474 16.0547 107.013 18.1787 107.013 21.2549C107.013 24.2578 104.474 26.3818 101.08 26.3818C97.6621 26.3818 95.123 24.2578 95.123 21.2549C95.123 18.1787 97.6621 16.0547 101.08 16.0791ZM101.08 18.3496C99.1514 18.3496 97.7598 19.4727 97.7842 21.2549C97.7598 23.0127 99.1514 24.1357 101.08 24.1602C102.984 24.1357 104.352 23.0127 104.352 21.2549C104.352 19.4727 102.984 18.3496 101.08 18.3496Z" fill="#222222"/>
</svg>