<svg width="298" height="54" viewBox="0 0 298 54" fill="none" xmlns="http://www.w3.org/2000/svg">
<rect x="0.5" y="0.5" width="297" height="53" rx="9.5" fill="white" stroke="black"/>
<path d="M127.331 17.6943V37.999H124.838V17.6943H127.331ZM110.508 32.3613C112.125 32.3501 113.956 32.3501 115.876 32.2939V30.4297C113.585 30.0703 112.103 28.6665 112.103 26.7461C112.103 24.4551 114.124 22.9277 117.089 22.9277C120.076 22.9277 122.143 24.4551 122.143 26.7461C122.143 28.6553 120.649 30.0479 118.369 30.4072V32.2041C120.155 32.1255 121.952 31.9795 123.647 31.7549L123.827 33.6191C119.357 34.3828 114.528 34.4277 110.867 34.4277L110.508 32.3613ZM123.288 20.0303V22.0068H110.935V20.0303H115.876V17.7617H118.369V20.0303H123.288ZM117.089 24.8369C115.562 24.8594 114.461 25.5557 114.483 26.7461C114.461 27.9141 115.562 28.6104 117.089 28.5879C118.684 28.6104 119.739 27.9141 119.739 26.7461C119.739 25.5557 118.684 24.8594 117.089 24.8369ZM147.321 17.7168V33.0801H144.806V31.3057H140.83V29.5537H144.806V17.7168H147.321ZM147.793 35.5732V37.5947H132.901V31.5977H135.395V35.5732H147.793ZM130.206 26.8359C133.957 26.8135 138.988 26.7686 143.301 26.2295L143.436 28.0264C141.762 28.3071 140.033 28.498 138.314 28.6104V32.5186H135.821V28.7451C133.923 28.8237 132.115 28.835 130.521 28.835L130.206 26.8359ZM136.832 18.458C139.797 18.458 141.863 19.918 141.886 22.0518C141.863 24.2305 139.797 25.623 136.832 25.623C133.822 25.623 131.756 24.2305 131.756 22.0518C131.756 19.918 133.822 18.458 136.832 18.458ZM136.832 20.2998C135.215 20.2998 134.114 20.9512 134.114 22.0518C134.114 23.1523 135.215 23.8037 136.832 23.8037C138.382 23.8037 139.482 23.1523 139.505 22.0518C139.482 20.9512 138.382 20.2998 136.832 20.2998ZM166.076 17.6943V25.623H169.086V27.7119H166.076V37.9541H163.583V17.6943H166.076ZM160.708 19.8057C160.708 25.7803 158.237 31.0137 151.477 34.3379L150.062 32.4062C155.003 29.9468 157.676 26.4878 158.192 21.8721H151.162V19.8057H160.708ZM186.965 17.6943V28.5879H184.449V17.6943H186.965ZM176.004 29.5312V31.6201H184.472V29.5312H186.965V37.752H173.533V29.5312H176.004ZM176.004 35.7305H184.472V33.5742H176.004V35.7305ZM175.892 18.5928C179.014 18.5703 181.35 20.5244 181.35 23.3545C181.35 26.1172 179.014 28.0713 175.892 28.0713C172.747 28.0713 170.411 26.1172 170.411 23.3545C170.411 20.5244 172.747 18.5703 175.892 18.5928ZM175.892 20.6816C174.117 20.6816 172.837 21.7148 172.859 23.3545C172.837 24.9717 174.117 26.0049 175.892 26.0273C177.644 26.0049 178.901 24.9717 178.901 23.3545C178.901 21.7148 177.644 20.6816 175.892 20.6816Z" fill="black"/>
</svg>
