<svg width="298" height="54" viewBox="0 0 298 54" fill="none" xmlns="http://www.w3.org/2000/svg">
<rect x="0.5" y="0.5" width="297" height="53" rx="9.5" fill="white" stroke="black"/>
<path d="M138.91 33.5742V35.6406H120.357V33.5742H128.353V30.2725H122.558V23.624H134.238V21.1084H122.513V19.0869H136.708V25.6006H125.051V28.2285H137.18V30.2725H130.824V33.5742H138.91ZM156.384 19.6709V21.9619C156.384 24.6797 156.384 27.4873 155.643 31.7549L153.105 31.5303C153.891 27.5322 153.891 24.5898 153.891 21.9619V21.6924H142.189V19.6709H156.384ZM158.743 33.1699V35.2139H140.235V33.1699H158.743ZM177.026 17.7168V32.3838H174.51V17.7168H177.026ZM177.587 35.5732V37.5947H163.594V30.9014H166.11V35.5732H177.587ZM165.953 19.042C169.03 19.042 171.411 21.1758 171.411 24.1182C171.411 27.1279 169.03 29.2168 165.953 29.2168C162.853 29.2168 160.472 27.1279 160.472 24.1182C160.472 21.1758 162.853 19.042 165.953 19.042ZM165.953 21.2207C164.223 21.2207 162.898 22.3662 162.92 24.1182C162.898 25.915 164.223 27.0381 165.953 27.0381C167.637 27.0381 168.962 25.915 168.962 24.1182C168.962 22.3662 167.637 21.2207 165.953 21.2207Z" fill="black"/>
</svg>
