<svg width="298" height="54" viewBox="0 0 298 54" fill="none" xmlns="http://www.w3.org/2000/svg">
<rect x="0.5" y="0.5" width="297" height="53" rx="9.5" fill="white" stroke="black"/>
<path d="M61.5093 25.5332V27.5771H58.4995V37.9541H56.0063V17.6943H58.4995V25.5332H61.5093ZM45.7866 19.6709V30.8789C48.4932 30.834 51.3794 30.5981 54.4341 29.958L54.7036 32.0693C51.2896 32.7432 48.0327 32.9453 45.0229 32.9453H43.3159V19.6709H45.7866ZM69.0562 19.1094C72.2681 19.0869 74.6265 21.1309 74.6489 24.0059C74.6265 26.9033 72.2681 28.9248 69.0562 28.9248C65.8667 28.9248 63.4858 26.9033 63.4858 24.0059C63.4858 21.1309 65.8667 19.0869 69.0562 19.1094ZM69.0562 21.2656C67.2817 21.2656 65.9565 22.3213 65.9565 24.0059C65.9565 25.7129 67.2817 26.7461 69.0562 26.7461C70.853 26.7461 72.2007 25.7129 72.2007 24.0059C72.2007 22.3213 70.853 21.2656 69.0562 21.2656ZM79.3882 17.6943V38.0215H76.895V17.6943H79.3882ZM62.5649 31.7324C66.2261 31.7324 71.3022 31.6875 75.6821 31.0586L75.8843 32.8779C71.3247 33.7539 66.4507 33.7764 62.8794 33.7764L62.5649 31.7324ZM104.208 24.2529V26.2744H90.1021V18.6602H92.5952V24.2529H104.208ZM106.319 28.7676V30.7891H101.872V37.999H99.356V30.7891H94.7739V37.999H92.2808V30.7891H87.811V28.7676H106.319ZM118.178 20.4795C118.178 23.624 121.255 26.7686 125.5 27.5098L124.377 29.5986C120.975 28.8799 118.189 26.8247 116.875 24.0957C115.528 26.8022 112.743 28.8687 109.351 29.5986L108.25 27.5098C112.451 26.7461 115.505 23.6016 115.528 20.4795V18.9746H118.178V20.4795ZM126.242 33.3496V35.416H107.689V33.3496H126.242ZM140.459 20.6143C140.437 23.377 142.054 25.8926 145.244 26.9033L143.896 28.8574C141.684 28.0825 140.134 26.6113 139.269 24.6797C138.371 26.8921 136.675 28.6328 134.215 29.4863L132.89 27.4648C136.259 26.3643 137.944 23.6465 137.944 20.7266V18.7949H140.459V20.6143ZM150.028 17.6943V29.6436H147.535V23.6689H143.492V21.625H147.535V17.6943H150.028ZM143.155 30.1826C147.467 30.1826 150.095 31.6201 150.095 34.0908C150.095 36.5615 147.467 37.9766 143.155 37.9766C138.865 37.9766 136.237 36.5615 136.259 34.0908C136.237 31.6201 138.865 30.1826 143.155 30.1826ZM143.155 32.1143C140.325 32.1143 138.73 32.8105 138.73 34.0908C138.73 35.3262 140.325 36.0225 143.155 36.0225C145.985 36.0225 147.602 35.3262 147.602 34.0908C147.602 32.8105 145.985 32.1143 143.155 32.1143ZM171.68 20.8613V22.9053H168.917V25.2188H171.68V27.2627H168.917V30.6543H166.424V17.6943H168.917V20.8613H171.68ZM162.359 30.834C166.514 30.834 169.142 32.1592 169.142 34.4053C169.142 36.6289 166.514 37.9766 162.359 37.9766C158.136 37.9766 155.553 36.6289 155.576 34.4053C155.553 32.1592 158.136 30.834 162.359 30.834ZM162.359 32.7432C159.574 32.7432 158.024 33.2822 158.046 34.4053C158.024 35.4834 159.574 36.0898 162.359 36.0898C165.099 36.0898 166.649 35.4834 166.649 34.4053C166.649 33.2822 165.099 32.7432 162.359 32.7432ZM164.964 19.7607V21.7148H152.925V19.7607H157.709V17.5596H160.203V19.7607H164.964ZM158.945 22.5234C161.887 22.5234 163.886 23.9834 163.909 26.1621C163.886 28.3408 161.887 29.7783 158.945 29.7783C155.98 29.7783 153.958 28.3408 153.958 26.1621C153.958 23.9834 155.98 22.5234 158.945 22.5234ZM158.945 24.3652C157.395 24.3652 156.384 25.0391 156.384 26.1621C156.384 27.2627 157.395 27.8916 158.945 27.8916C160.495 27.8916 161.528 27.2627 161.528 26.1621C161.528 25.0391 160.495 24.3652 158.945 24.3652ZM194.253 17.6943V21.7822H197.083V23.8486H194.253V27.8916H191.76V17.6943H194.253ZM194.253 28.7676V34.0908H183.472V35.7754H194.882V37.752H181.001V32.2715H191.76V30.6992H180.979V28.7676H194.253ZM183.854 18.3682C186.954 18.3682 189.222 20.2324 189.245 22.9277C189.222 25.5781 186.954 27.4648 183.854 27.4648C180.754 27.4648 178.441 25.5781 178.463 22.9277C178.441 20.2324 180.754 18.3682 183.854 18.3682ZM183.854 20.3896C182.147 20.3896 180.889 21.3779 180.912 22.9277C180.889 24.4551 182.147 25.4883 183.854 25.4883C185.561 25.4883 186.819 24.4551 186.819 22.9277C186.819 21.3779 185.561 20.3896 183.854 20.3896ZM203.575 19.1768C206.629 19.1768 208.831 21.9619 208.853 26.3418C208.831 30.7666 206.629 33.5293 203.575 33.5293C200.498 33.5293 198.274 30.7666 198.296 26.3418C198.274 21.9619 200.498 19.1768 203.575 19.1768ZM203.575 21.4229C201.868 21.4229 200.7 23.2422 200.7 26.3418C200.7 29.4639 201.868 31.2832 203.575 31.2832C205.304 31.2832 206.45 29.4639 206.45 26.3418C206.45 23.2422 205.304 21.4229 203.575 21.4229ZM214.019 17.6943V25.4883H217.141V27.5996H214.019V37.999H211.526V17.6943H214.019ZM236.547 33.5068V35.5508H217.995V33.5068H225.991V29.5537H220.039V19.042H222.532V22.3662H231.943V19.042H234.436V29.5537H228.461V33.5068H236.547ZM222.532 27.5322H231.943V24.3652H222.532V27.5322ZM254.831 17.6943V37.999H252.315V17.6943H254.831ZM248.766 19.8506C248.766 25.8926 246.43 31.0361 239.31 34.4053L238.007 32.4062C243.319 29.8794 245.79 26.4429 246.228 21.8271H239.041V19.8506H248.766Z" fill="black"/>
</svg>
